G04*
G04 #@! TF.GenerationSoftware,Altium Limited,Altium Designer,19.1.8 (144)*
G04*
G04 Layer_Color=32896*
%FSLAX25Y25*%
%MOIN*%
G70*
G01*
G75*
%ADD11C,0.01000*%
%ADD16C,0.00050*%
%ADD17C,0.00000*%
D11*
X201861Y131681D02*
X201028Y132514D01*
Y134180D01*
X201861Y135013D01*
X205194D01*
X206027Y134180D01*
Y132514D01*
X205194Y131681D01*
X204361D01*
X203528Y132514D01*
Y135013D01*
X205194Y136679D02*
X206027Y137512D01*
Y139178D01*
X205194Y140011D01*
X201861D01*
X201028Y139178D01*
Y137512D01*
X201861Y136679D01*
X205194D01*
X201861Y141677D02*
X206027Y145843D01*
Y141677D02*
X206860D01*
Y142510D01*
X206027D01*
Y141677D01*
X201028Y145010D02*
X201861D01*
Y145843D01*
X201028D01*
Y145010D01*
Y152507D02*
X204361D01*
X206027Y154173D01*
X204361Y155840D01*
X201028D01*
X203528D01*
Y152507D01*
X201028Y157506D02*
Y160005D01*
X201861Y160838D01*
X202695Y160005D01*
Y158339D01*
X203528Y157506D01*
X204361Y158339D01*
Y160838D01*
X201028Y162504D02*
Y164170D01*
Y163337D01*
X204361D01*
Y162504D01*
Y167502D02*
Y169169D01*
X203528Y170002D01*
X201028D01*
Y167502D01*
X201861Y166669D01*
X202695Y167502D01*
Y170002D01*
X201028Y171668D02*
X204361D01*
Y174167D01*
X203528Y175000D01*
X201028D01*
X192630Y85862D02*
X197629D01*
Y88361D01*
X196796Y89195D01*
X195130D01*
X194297Y88361D01*
Y85862D01*
X197629Y93360D02*
Y91694D01*
X196796Y90861D01*
X193463D01*
X192630Y91694D01*
Y93360D01*
X193463Y94193D01*
X196796D01*
X197629Y93360D01*
X196796Y99191D02*
X197629Y98358D01*
Y96692D01*
X196796Y95859D01*
X193463D01*
X192630Y96692D01*
Y98358D01*
X193463Y99191D01*
X192630Y107522D02*
X194297Y105856D01*
X195963D01*
X197629Y107522D01*
X192630Y110021D02*
X197629D01*
Y112520D01*
X196796Y113353D01*
X195130D01*
X194297Y112520D01*
Y110021D01*
X192630Y115019D02*
Y116686D01*
Y115852D01*
X195963D01*
Y115019D01*
X192630Y121684D02*
Y120018D01*
X193463Y119185D01*
X195130D01*
X195963Y120018D01*
Y121684D01*
X195130Y122517D01*
X194297D01*
Y119185D01*
X195963Y127515D02*
Y125016D01*
X195130Y124183D01*
X193463D01*
X192630Y125016D01*
Y127515D01*
Y131681D02*
Y130015D01*
X193463Y129182D01*
X195130D01*
X195963Y130015D01*
Y131681D01*
X195130Y132514D01*
X194297D01*
Y129182D01*
X197629Y141677D02*
Y140011D01*
X196796Y139178D01*
X193463D01*
X192630Y140011D01*
Y141677D01*
X193463Y142510D01*
X196796D01*
X197629Y141677D01*
X192630Y145010D02*
X196796D01*
X195130D01*
Y144177D01*
Y145843D01*
Y145010D01*
X196796D01*
X197629Y145843D01*
X196796Y156673D02*
X197629Y155840D01*
Y154173D01*
X196796Y153340D01*
X193463D01*
X192630Y154173D01*
Y155840D01*
X193463Y156673D01*
X195963Y158339D02*
X192630D01*
X194297D01*
X195130Y159172D01*
X195963Y160005D01*
Y160838D01*
Y164170D02*
Y165836D01*
X195130Y166669D01*
X192630D01*
Y164170D01*
X193463Y163337D01*
X194297Y164170D01*
Y166669D01*
X190964Y168335D02*
X195963D01*
Y170835D01*
X195130Y171668D01*
X193463D01*
X192630Y170835D01*
Y168335D01*
Y173334D02*
X194297Y175000D01*
X195963D01*
X197629Y173334D01*
X182566Y55872D02*
X187565D01*
Y58371D01*
X186731Y59204D01*
X185065D01*
X184232Y58371D01*
Y55872D01*
X186731Y64203D02*
X187565Y63370D01*
Y61703D01*
X186731Y60870D01*
X183399D01*
X182566Y61703D01*
Y63370D01*
X183399Y64203D01*
X187565Y65869D02*
X182566D01*
Y68368D01*
X183399Y69201D01*
X184232D01*
X185065Y68368D01*
Y65869D01*
Y68368D01*
X185898Y69201D01*
X186731D01*
X187565Y68368D01*
Y65869D01*
X182566Y77532D02*
X184232Y75865D01*
X185898D01*
X187565Y77532D01*
X182566Y80031D02*
X187565D01*
Y82530D01*
X186731Y83363D01*
X185065D01*
X184232Y82530D01*
Y80031D01*
X185898Y85029D02*
X182566D01*
X184232D01*
X185065Y85862D01*
X185898Y86695D01*
Y87528D01*
X182566Y92527D02*
Y90861D01*
X183399Y90027D01*
X185065D01*
X185898Y90861D01*
Y92527D01*
X185065Y93360D01*
X184232D01*
Y90027D01*
X186731Y95859D02*
X185898D01*
Y95026D01*
Y96692D01*
Y95859D01*
X183399D01*
X182566Y96692D01*
X186731Y100024D02*
X185898D01*
Y99191D01*
Y100857D01*
Y100024D01*
X183399D01*
X182566Y100857D01*
X185898Y103357D02*
X183399D01*
X182566Y104190D01*
Y106689D01*
X181733D01*
X180900Y105856D01*
Y105023D01*
X182566Y106689D02*
X185898D01*
X186731Y116686D02*
X187565Y115852D01*
Y114186D01*
X186731Y113353D01*
X183399D01*
X182566Y114186D01*
Y115852D01*
X183399Y116686D01*
X185898Y118352D02*
X182566D01*
X184232D01*
X185065Y119185D01*
X185898Y120018D01*
Y120851D01*
Y124183D02*
Y125849D01*
X185065Y126682D01*
X182566D01*
Y124183D01*
X183399Y123350D01*
X184232Y124183D01*
Y126682D01*
X180900Y128349D02*
X185898D01*
Y130848D01*
X185065Y131681D01*
X183399D01*
X182566Y130848D01*
Y128349D01*
X180900Y133347D02*
X185898D01*
Y135846D01*
X185065Y136679D01*
X183399D01*
X182566Y135846D01*
Y133347D01*
X185898Y138345D02*
X183399D01*
X182566Y139178D01*
Y141677D01*
X181733D01*
X180900Y140844D01*
Y140011D01*
X182566Y141677D02*
X185898D01*
X187565Y148342D02*
X182566D01*
Y150841D01*
X183399Y151674D01*
X184232D01*
X185065Y150841D01*
Y148342D01*
Y150841D01*
X185898Y151674D01*
X186731D01*
X187565Y150841D01*
Y148342D01*
X182566Y154173D02*
Y155840D01*
X183399Y156673D01*
X185065D01*
X185898Y155840D01*
Y154173D01*
X185065Y153340D01*
X183399D01*
X182566Y154173D01*
X185898Y159172D02*
Y160838D01*
X185065Y161671D01*
X182566D01*
Y159172D01*
X183399Y158339D01*
X184232Y159172D01*
Y161671D01*
X185898Y163337D02*
X182566D01*
X184232D01*
X185065Y164170D01*
X185898Y165003D01*
Y165836D01*
X187565Y171668D02*
X182566D01*
Y169169D01*
X183399Y168335D01*
X185065D01*
X185898Y169169D01*
Y171668D01*
X182566Y173334D02*
X184232Y175000D01*
X185898D01*
X187565Y173334D01*
D16*
X0Y195000D02*
X80000D01*
X205000Y0D02*
X210000D01*
Y180000D01*
X205000D02*
X210000D01*
X95000D02*
X205000D01*
X0Y0D02*
X205000D01*
X80000Y195000D02*
X95000Y180000D01*
X0Y0D02*
Y195000D01*
D17*
X38941Y128425D02*
Y131575D01*
X31461D02*
X38941D01*
X31461Y128425D02*
Y131575D01*
Y128425D02*
X38941D01*
X20240Y157559D02*
Y160709D01*
X12760D02*
X20240D01*
X12760Y157559D02*
Y160709D01*
Y157559D02*
X20240D01*
X38941D02*
Y160709D01*
X31461D02*
X38941D01*
X31461Y157559D02*
Y160709D01*
Y157559D02*
X38941D01*
X20240Y128425D02*
Y131575D01*
X12760D02*
X20240D01*
X12760Y128425D02*
Y131575D01*
Y128425D02*
X20240D01*
M02*
