G04*
G04 #@! TF.GenerationSoftware,Altium Limited,Altium Designer,19.1.8 (144)*
G04*
G04 Layer_Color=16711935*
%FSLAX25Y25*%
%MOIN*%
G70*
G01*
G75*
%ADD16C,0.00050*%
%ADD17C,0.00000*%
%ADD83C,0.00394*%
D16*
X0Y195000D02*
X80000D01*
X205000Y0D02*
X210000D01*
Y180000D01*
X205000D02*
X210000D01*
X95000D02*
X205000D01*
X0Y0D02*
X205000D01*
X80000Y195000D02*
X95000Y180000D01*
X0Y0D02*
Y195000D01*
D17*
X38941Y128425D02*
Y131575D01*
X31461D02*
X38941D01*
X31461Y128425D02*
Y131575D01*
Y128425D02*
X38941D01*
X20240Y157559D02*
Y160709D01*
X12760D02*
X20240D01*
X12760Y157559D02*
Y160709D01*
Y157559D02*
X20240D01*
X38941D02*
Y160709D01*
X31461D02*
X38941D01*
X31461Y157559D02*
Y160709D01*
Y157559D02*
X38941D01*
X20240Y128425D02*
Y131575D01*
X12760D02*
X20240D01*
X12760Y128425D02*
Y131575D01*
Y128425D02*
X20240D01*
D83*
X123632Y82064D02*
G03*
X123632Y82064I-1969J0D01*
G01*
X80405Y42063D02*
G03*
X80405Y42063I-1969J0D01*
G01*
X21088Y116626D02*
G03*
X21088Y116626I-1969J0D01*
G01*
X35099Y53601D02*
G03*
X35099Y53601I-1969J0D01*
G01*
X104446Y109969D02*
X110154D01*
Y118631D01*
X104446D02*
X110154D01*
X104446Y109969D02*
Y118631D01*
X47269Y86346D02*
Y92054D01*
X55931Y86346D02*
Y92054D01*
X47269D02*
X55931D01*
X47269Y86346D02*
X55931D01*
X47269Y94246D02*
Y99954D01*
X55931Y94246D02*
Y99954D01*
X47269D02*
X55931D01*
X47269Y94246D02*
X55931D01*
X193650Y109697D02*
X199950D01*
X193650Y123083D02*
X199950D01*
X193650Y109697D02*
Y123083D01*
X199950Y109697D02*
Y123083D01*
X165133Y69717D02*
X169267D01*
X165133Y71883D02*
X169267D01*
Y69717D02*
Y71883D01*
X165133Y69717D02*
Y71883D01*
Y62617D02*
X169267D01*
X165133Y64783D02*
X169267D01*
Y62617D02*
Y64783D01*
X165133Y62617D02*
Y64783D01*
X145679Y78521D02*
Y106079D01*
X118121Y78521D02*
Y106079D01*
X145679D01*
X118121Y78521D02*
X145679D01*
X107817Y67467D02*
X109983D01*
X107817Y63333D02*
X109983D01*
Y67467D01*
X107817Y63333D02*
Y67467D01*
X158817Y57133D02*
X160983D01*
X158817Y61267D02*
X160983D01*
X158817Y57133D02*
Y61267D01*
X160983Y57133D02*
Y61267D01*
X146767Y114317D02*
Y116483D01*
X142633Y114317D02*
Y116483D01*
Y114317D02*
X146767D01*
X142633Y116483D02*
X146767D01*
X193650Y96705D02*
X199950D01*
X193650Y83319D02*
X199950D01*
Y96705D01*
X193650Y83319D02*
Y96705D01*
X74894Y21394D02*
X99106D01*
X74894Y45606D02*
X99106D01*
Y21394D02*
Y45606D01*
X74894Y21394D02*
Y45606D01*
X15576Y78831D02*
Y120169D01*
X37624Y78831D02*
Y120169D01*
X15576D02*
X37624D01*
X15576Y78831D02*
X37624D01*
X109454Y42169D02*
Y50831D01*
X103746Y42169D02*
Y50831D01*
X109454D01*
X103746Y42169D02*
X109454D01*
X64146Y19669D02*
Y28331D01*
X69854Y19669D02*
Y28331D01*
X64146Y19669D02*
X69854D01*
X64146Y28331D02*
X69854D01*
X2083Y110583D02*
X6217D01*
X2083Y108417D02*
X6217D01*
X2083D02*
Y110583D01*
X6217Y108417D02*
Y110583D01*
X2133Y114657D02*
X6267D01*
X2133Y112492D02*
X6267D01*
X2133D02*
Y114657D01*
X6267Y112492D02*
Y114657D01*
X138633Y121117D02*
X142767D01*
X138633Y123283D02*
X142767D01*
Y121117D02*
Y123283D01*
X138633Y121117D02*
Y123283D01*
X117033Y121017D02*
X121167D01*
X117033Y123183D02*
X121167D01*
Y121017D02*
Y123183D01*
X117033Y121017D02*
Y123183D01*
X95133Y121017D02*
X99267D01*
X95133Y123183D02*
X99267D01*
Y121017D02*
Y123183D01*
X95133Y121017D02*
Y123183D01*
X48433Y78417D02*
X52567D01*
X48433Y80583D02*
X52567D01*
Y78417D02*
Y80583D01*
X48433Y78417D02*
Y80583D01*
Y81917D02*
X52567D01*
X48433Y84083D02*
X52567D01*
Y81917D02*
Y84083D01*
X48433Y81917D02*
Y84083D01*
X95654Y52069D02*
Y60731D01*
X89946Y52069D02*
Y60731D01*
X95654D01*
X89946Y52069D02*
X95654D01*
X169569Y47754D02*
X178231D01*
X169569Y42046D02*
X178231D01*
X169569D02*
Y47754D01*
X178231Y42046D02*
Y47754D01*
X169598Y39854D02*
X178259D01*
X169598Y34146D02*
X178259D01*
X169598D02*
Y39854D01*
X178259Y34146D02*
Y39854D01*
X169669Y31854D02*
X178331D01*
X169669Y26146D02*
X178331D01*
X169669D02*
Y31854D01*
X178331Y26146D02*
Y31854D01*
X169669Y23854D02*
X178331D01*
X169669Y18146D02*
X178331D01*
X169669D02*
Y23854D01*
X178331Y18146D02*
Y23854D01*
X169669Y15854D02*
X178331D01*
X169669Y10146D02*
X178331D01*
X169669D02*
Y15854D01*
X178331Y10146D02*
Y15854D01*
X173633Y50317D02*
X177767D01*
X173633Y52483D02*
X177767D01*
Y50317D02*
Y52483D01*
X173633Y50317D02*
Y52483D01*
Y54317D02*
X177767D01*
X173633Y56483D02*
X177767D01*
Y54317D02*
Y56483D01*
X173633Y54317D02*
Y56483D01*
Y62317D02*
X177767D01*
X173633Y64483D02*
X177767D01*
Y62317D02*
Y64483D01*
X173633Y62317D02*
Y64483D01*
X66917Y64265D02*
Y68399D01*
X69083Y64265D02*
Y68399D01*
X66917Y64265D02*
X69083D01*
X66917Y68399D02*
X69083D01*
X66917Y72562D02*
Y76695D01*
X69083Y72562D02*
Y76695D01*
X66917Y72562D02*
X69083D01*
X66917Y76695D02*
X69083D01*
X67833Y14217D02*
X71967D01*
X67833Y16383D02*
X71967D01*
Y14217D02*
Y16383D01*
X67833Y14217D02*
Y16383D01*
Y12683D02*
X71967D01*
X67833Y10517D02*
X71967D01*
X67833D02*
Y12683D01*
X71967Y10517D02*
Y12683D01*
X79969Y15854D02*
X88631D01*
X79969Y10146D02*
X88631D01*
X79969D02*
Y15854D01*
X88631Y10146D02*
Y15854D01*
X94369Y2046D02*
X103031D01*
X94369Y7754D02*
X103031D01*
Y2046D02*
Y7754D01*
X94369Y2046D02*
Y7754D01*
X80469D02*
X89131D01*
X80469Y2046D02*
X89131D01*
X80469D02*
Y7754D01*
X89131Y2046D02*
Y7754D01*
X103746Y28369D02*
Y37031D01*
X109454Y28369D02*
Y37031D01*
X103746Y28369D02*
X109454D01*
X103746Y37031D02*
X109454D01*
X94869Y10146D02*
X103531D01*
X94869Y15854D02*
X103531D01*
Y10146D02*
Y15854D01*
X94869Y10146D02*
Y15854D01*
X87554Y52005D02*
Y60666D01*
X81846Y52005D02*
Y60666D01*
X87554D01*
X81846Y52005D02*
X87554D01*
X79383Y49933D02*
Y54067D01*
X77217Y49933D02*
Y54067D01*
X79383D01*
X77217Y49933D02*
X79383D01*
X173633Y58317D02*
X177767D01*
X173633Y60483D02*
X177767D01*
Y58317D02*
Y60483D01*
X173633Y58317D02*
Y60483D01*
X44817Y62833D02*
Y66967D01*
X46983Y62833D02*
Y66967D01*
X44817Y62833D02*
X46983D01*
X44817Y66967D02*
X46983D01*
X67533Y112317D02*
Y114483D01*
X71667Y112317D02*
Y114483D01*
X67533D02*
X71667D01*
X67533Y112317D02*
X71667D01*
X67533Y103817D02*
Y105983D01*
X71667Y103817D02*
Y105983D01*
X67533D02*
X71667D01*
X67533Y103817D02*
X71667D01*
X50233Y72483D02*
X54367D01*
X50233Y70317D02*
X54367D01*
X50233D02*
Y72483D01*
X54367Y70317D02*
Y72483D01*
X50233Y66317D02*
X54367D01*
X50233Y68483D02*
X54367D01*
Y66317D02*
Y68483D01*
X50233Y66317D02*
Y68483D01*
Y61317D02*
X54367D01*
X50233Y63483D02*
X54367D01*
Y61317D02*
Y63483D01*
X50233Y61317D02*
Y63483D01*
X46233Y56317D02*
X50367D01*
X46233Y58483D02*
X50367D01*
Y56317D02*
Y58483D01*
X46233Y56317D02*
Y58483D01*
X127983Y57133D02*
Y61267D01*
X125817Y57133D02*
Y61267D01*
X127983D01*
X125817Y57133D02*
X127983D01*
X116983D02*
Y61267D01*
X114817Y57133D02*
Y61267D01*
X116983D01*
X114817Y57133D02*
X116983D01*
X138983D02*
Y61267D01*
X136817Y57133D02*
Y61267D01*
X138983D01*
X136817Y57133D02*
X138983D01*
X149983D02*
Y61267D01*
X147817Y57133D02*
Y61267D01*
X149983D01*
X147817Y57133D02*
X149983D01*
X61169Y2146D02*
Y7854D01*
X69831Y2146D02*
Y7854D01*
X61169D02*
X69831D01*
X61169Y2146D02*
X69831D01*
X36674Y50058D02*
Y69743D01*
X20926Y50058D02*
Y69743D01*
Y50058D02*
X36674D01*
X20926Y69743D02*
X36674D01*
X58102Y147653D02*
Y154347D01*
X45898Y147653D02*
Y154347D01*
X58102D01*
X45898Y147653D02*
X58102D01*
M02*
