G04*
G04 #@! TF.GenerationSoftware,Altium Limited,Altium Designer,19.1.8 (144)*
G04*
G04 Layer_Color=16711935*
%FSLAX25Y25*%
%MOIN*%
G70*
G01*
G75*
%ADD16C,0.00050*%
%ADD17C,0.00000*%
%ADD58C,0.05150*%
%ADD59O,0.11099X0.11099*%
%ADD60C,0.11099*%
%ADD61C,0.07800*%
%ADD62C,0.10249*%
%ADD63C,0.03300*%
%ADD64C,0.03800*%
%ADD65C,0.02900*%
D16*
X0Y0D02*
X190000D01*
Y180000D01*
X95000D02*
X190000D01*
X80000Y195000D02*
X95000Y180000D01*
X0Y195000D02*
X80000D01*
X0Y0D02*
Y195000D01*
D17*
X38941Y128425D02*
Y131575D01*
X31461D02*
X38941D01*
X31461Y128425D02*
Y131575D01*
Y128425D02*
X38941D01*
X20240Y157559D02*
Y160709D01*
X12760D02*
X20240D01*
X12760Y157559D02*
Y160709D01*
Y157559D02*
X20240D01*
X38941D02*
Y160709D01*
X31461D02*
X38941D01*
X31461Y157559D02*
Y160709D01*
Y157559D02*
X38941D01*
X20240Y128425D02*
Y131575D01*
X12760D02*
X20240D01*
X12760Y128425D02*
Y131575D01*
Y128425D02*
X20240D01*
D58*
X38744Y150866D02*
D03*
Y144567D02*
D03*
Y138268D02*
D03*
X34020Y147716D02*
D03*
Y141417D02*
D03*
D59*
X16500Y159134D02*
D03*
X35201D02*
D03*
Y130000D02*
D03*
D60*
X16500D02*
D03*
D61*
X94400Y82600D02*
D03*
X84400D02*
D03*
X94400Y92600D02*
D03*
X84400D02*
D03*
X94400Y102600D02*
D03*
X84400D02*
D03*
D62*
X55500Y28000D02*
D03*
X32000D02*
D03*
X43780Y9496D02*
D03*
D63*
X92905Y27595D02*
D03*
X88968D02*
D03*
X85031D02*
D03*
X81094D02*
D03*
Y31532D02*
D03*
X92905D02*
D03*
Y35469D02*
D03*
Y39406D02*
D03*
X88968D02*
D03*
X85031D02*
D03*
X81094D02*
D03*
Y35469D02*
D03*
X88968Y31532D02*
D03*
X85031D02*
D03*
X88968Y35469D02*
D03*
X85031D02*
D03*
X121400Y38900D02*
D03*
X114400Y45400D02*
D03*
X59900Y85900D02*
D03*
Y76800D02*
D03*
X18800Y80800D02*
D03*
X6500Y78000D02*
D03*
X2200Y102700D02*
D03*
X155300Y32200D02*
D03*
X160500Y31727D02*
D03*
X164900Y25800D02*
D03*
X154772Y26072D02*
D03*
X164700Y32000D02*
D03*
X170300Y55400D02*
D03*
X161000Y45400D02*
D03*
X20400Y72900D02*
D03*
X27700Y74300D02*
D03*
X101700Y71000D02*
D03*
X92300Y76800D02*
D03*
X95800Y73503D02*
D03*
X85300Y67200D02*
D03*
X63400Y46500D02*
D03*
Y37700D02*
D03*
X68100Y46500D02*
D03*
Y37800D02*
D03*
X71700Y34400D02*
D03*
X111600Y22500D02*
D03*
X65200Y79800D02*
D03*
X82800Y118900D02*
D03*
X80300Y127300D02*
D03*
X120923Y139677D02*
D03*
X98923Y139577D02*
D03*
X73500Y83000D02*
D03*
X56100Y94900D02*
D03*
X104900Y63600D02*
D03*
X101400Y60100D02*
D03*
X91750Y18050D02*
D03*
X72500Y21100D02*
D03*
X19200Y108400D02*
D03*
X30750Y112750D02*
D03*
X111600Y32700D02*
D03*
X56000Y87000D02*
D03*
X34100Y90543D02*
D03*
X34000Y98220D02*
D03*
X34100Y111016D02*
D03*
X19200Y100779D02*
D03*
D64*
X179800Y2200D02*
D03*
X175000D02*
D03*
X169965D02*
D03*
D65*
X159900Y38300D02*
D03*
X169865Y44900D02*
D03*
X177935D02*
D03*
X54100Y73900D02*
D03*
X177964Y37000D02*
D03*
X169893D02*
D03*
X174000Y67000D02*
D03*
X106600Y50535D02*
D03*
X9600Y122500D02*
D03*
X75200Y53700D02*
D03*
X53200Y57400D02*
D03*
X64900Y65700D02*
D03*
X65000Y72900D02*
D03*
X110923Y158526D02*
D03*
X73026Y188177D02*
D03*
X44026D02*
D03*
X34826D02*
D03*
X5826D02*
D03*
X132923Y158626D02*
D03*
X154323Y158826D02*
D03*
Y129826D02*
D03*
X132923Y129626D02*
D03*
X110923Y129526D02*
D03*
X120923Y129626D02*
D03*
X98923Y129526D02*
D03*
X106600Y42465D02*
D03*
X88835Y4900D02*
D03*
X94665D02*
D03*
X178000Y13000D02*
D03*
Y21000D02*
D03*
Y29000D02*
D03*
X69535Y5000D02*
D03*
X92800Y60435D02*
D03*
X84700Y60371D02*
D03*
X126900Y38300D02*
D03*
X137900D02*
D03*
X148900D02*
D03*
X115900D02*
D03*
X102735Y4900D02*
D03*
X80765D02*
D03*
X67000Y19965D02*
D03*
X24500Y52400D02*
D03*
Y57400D02*
D03*
Y62400D02*
D03*
Y67300D02*
D03*
X52000Y141600D02*
D03*
M02*
