G04*
G04 #@! TF.GenerationSoftware,Altium Limited,Altium Designer,19.1.8 (144)*
G04*
G04 Layer_Color=8421504*
%FSLAX25Y25*%
%MOIN*%
G70*
G01*
G75*
%ADD16C,0.00000*%
%ADD17R,0.02165X0.02165*%
%ADD18R,0.05709X0.03543*%
%ADD19R,0.02165X0.02165*%
%ADD20R,0.02598X0.02441*%
%ADD21R,0.03543X0.05709*%
%ADD22R,0.02441X0.02598*%
%ADD23R,0.04606X0.05787*%
%ADD24R,0.05787X0.04606*%
%ADD25R,0.05500X0.06300*%
%ADD26R,0.06300X0.05500*%
%ADD27R,0.15945X0.15945*%
%ADD28O,0.00787X0.03347*%
%ADD29O,0.03347X0.00787*%
%ADD30R,0.07480X0.06693*%
%ADD31O,0.05709X0.02362*%
%ADD32R,0.06693X0.07480*%
%ADD33O,0.06102X0.01968*%
%ADD34R,0.13386X0.07480*%
%ADD35O,0.02362X0.07284*%
%ADD36O,0.01968X0.03937*%
D16*
X12760Y128425D02*
X20240D01*
X12760D02*
Y131575D01*
X20240D01*
Y128425D02*
Y131575D01*
X31461Y157559D02*
X38941D01*
X31461D02*
Y160709D01*
X38941D01*
Y157559D02*
Y160709D01*
X12760Y157559D02*
X20240D01*
X12760D02*
Y160709D01*
X20240D01*
Y157559D02*
Y160709D01*
X31461Y128425D02*
X38941D01*
X31461D02*
Y131575D01*
X38941D01*
Y128425D02*
Y131575D01*
D17*
X115900Y57428D02*
D03*
Y60972D02*
D03*
X68000Y72857D02*
D03*
Y76400D02*
D03*
X45900Y63128D02*
D03*
Y66672D02*
D03*
X137900Y60972D02*
D03*
Y57428D02*
D03*
X126900Y60972D02*
D03*
Y57428D02*
D03*
X148900Y60972D02*
D03*
Y57428D02*
D03*
X159900Y60972D02*
D03*
Y57428D02*
D03*
X162000Y75294D02*
D03*
Y78838D02*
D03*
Y112106D02*
D03*
Y108562D02*
D03*
D18*
X106600Y50535D02*
D03*
Y42465D02*
D03*
X67000Y19965D02*
D03*
Y28035D02*
D03*
X92800Y60435D02*
D03*
Y52365D02*
D03*
X84700Y60371D02*
D03*
Y52300D02*
D03*
D19*
X2378Y109500D02*
D03*
X5922D02*
D03*
X2528Y118700D02*
D03*
X6072D02*
D03*
X142472Y122200D02*
D03*
X138928D02*
D03*
X120872Y122100D02*
D03*
X117328D02*
D03*
X98972D02*
D03*
X95428D02*
D03*
X52272Y79500D02*
D03*
X48728D02*
D03*
X52272Y83000D02*
D03*
X48728D02*
D03*
X177472Y51400D02*
D03*
X173928D02*
D03*
X177472Y55400D02*
D03*
X173928D02*
D03*
X71672Y15300D02*
D03*
X68128D02*
D03*
X68128Y11600D02*
D03*
X71672D02*
D03*
X177472Y59400D02*
D03*
X173928D02*
D03*
X67828Y113400D02*
D03*
X71372D02*
D03*
X67828Y104900D02*
D03*
X71372D02*
D03*
X50528Y71400D02*
D03*
X54072D02*
D03*
D20*
X2468Y113575D02*
D03*
X5932D02*
D03*
X177432Y63400D02*
D03*
X173968D02*
D03*
X52332Y94900D02*
D03*
X48868D02*
D03*
X52232Y87000D02*
D03*
X48768D02*
D03*
X54032Y67400D02*
D03*
X50568D02*
D03*
X54032Y62400D02*
D03*
X50568D02*
D03*
X50032Y57400D02*
D03*
X46568D02*
D03*
D21*
X169865Y44900D02*
D03*
X177935D02*
D03*
X169893Y37000D02*
D03*
X177964D02*
D03*
X169965Y29000D02*
D03*
X178035D02*
D03*
X169965Y21000D02*
D03*
X178035D02*
D03*
X169965Y13000D02*
D03*
X178035D02*
D03*
X102735Y4900D02*
D03*
X94665D02*
D03*
X80765D02*
D03*
X88835D02*
D03*
X61465Y5000D02*
D03*
X69535D02*
D03*
D22*
X68000Y64600D02*
D03*
Y68065D02*
D03*
X78300Y53732D02*
D03*
Y50268D02*
D03*
D23*
X80875Y13000D02*
D03*
X87725D02*
D03*
X102625D02*
D03*
X95775D02*
D03*
D24*
X106600Y29275D02*
D03*
Y36125D02*
D03*
D25*
X50600Y113400D02*
D03*
X62400D02*
D03*
Y104900D02*
D03*
X50600D02*
D03*
D26*
X115900Y38300D02*
D03*
Y50100D02*
D03*
X126900Y38300D02*
D03*
Y50100D02*
D03*
X137900Y38300D02*
D03*
Y50100D02*
D03*
X148900Y38300D02*
D03*
Y50100D02*
D03*
X159900Y38300D02*
D03*
Y50100D02*
D03*
X74500Y64600D02*
D03*
Y76400D02*
D03*
D27*
X87000Y33500D02*
D03*
D28*
X78339Y45213D02*
D03*
X79913D02*
D03*
X81488D02*
D03*
X83063D02*
D03*
X84638D02*
D03*
X86213D02*
D03*
X87787D02*
D03*
X89362D02*
D03*
X90937D02*
D03*
X92512D02*
D03*
X94087D02*
D03*
X95661D02*
D03*
Y21787D02*
D03*
X94087D02*
D03*
X92512D02*
D03*
X90937D02*
D03*
X89362D02*
D03*
X87787D02*
D03*
X86213D02*
D03*
X84638D02*
D03*
X83063D02*
D03*
X81488D02*
D03*
X79913D02*
D03*
X78339D02*
D03*
D29*
X98713Y42161D02*
D03*
Y40587D02*
D03*
Y39012D02*
D03*
Y37437D02*
D03*
Y35862D02*
D03*
Y34287D02*
D03*
Y32713D02*
D03*
Y31138D02*
D03*
Y29563D02*
D03*
Y27988D02*
D03*
Y26413D02*
D03*
Y24839D02*
D03*
X75287D02*
D03*
Y26413D02*
D03*
Y27988D02*
D03*
Y29563D02*
D03*
Y31138D02*
D03*
Y32713D02*
D03*
Y34287D02*
D03*
Y35862D02*
D03*
Y37437D02*
D03*
Y39012D02*
D03*
Y40587D02*
D03*
Y42161D02*
D03*
D30*
X73026Y176177D02*
D03*
Y188177D02*
D03*
X44026Y176177D02*
D03*
Y188177D02*
D03*
X34826Y176177D02*
D03*
Y188177D02*
D03*
X5826Y176177D02*
D03*
Y188177D02*
D03*
D31*
X39528Y52400D02*
D03*
Y57400D02*
D03*
Y62400D02*
D03*
Y67400D02*
D03*
X18072Y52400D02*
D03*
Y57400D02*
D03*
Y62400D02*
D03*
Y67400D02*
D03*
D32*
X110923Y158526D02*
D03*
X98923D02*
D03*
X110923Y129526D02*
D03*
X98923D02*
D03*
X132923Y158626D02*
D03*
X120923D02*
D03*
X132923Y129626D02*
D03*
X120923D02*
D03*
X154323Y158826D02*
D03*
X142323D02*
D03*
X154323Y129826D02*
D03*
X142323D02*
D03*
D33*
X40675Y82866D02*
D03*
Y85425D02*
D03*
Y87984D02*
D03*
Y90543D02*
D03*
Y93102D02*
D03*
Y95661D02*
D03*
Y98220D02*
D03*
Y100779D02*
D03*
Y103339D02*
D03*
Y105898D02*
D03*
Y108457D02*
D03*
Y111016D02*
D03*
Y113575D02*
D03*
Y116134D02*
D03*
X12525Y82866D02*
D03*
Y85425D02*
D03*
Y87984D02*
D03*
Y90543D02*
D03*
Y93102D02*
D03*
Y95661D02*
D03*
Y98220D02*
D03*
Y100779D02*
D03*
Y103339D02*
D03*
Y105898D02*
D03*
Y108457D02*
D03*
Y111016D02*
D03*
Y113575D02*
D03*
Y116134D02*
D03*
D34*
X68000Y148323D02*
D03*
Y163677D02*
D03*
D35*
X110900Y75295D02*
D03*
X115900D02*
D03*
X120900D02*
D03*
X125900D02*
D03*
X130900D02*
D03*
X135900D02*
D03*
X140900D02*
D03*
X145900D02*
D03*
X150900D02*
D03*
X155900Y75295D02*
D03*
X110900Y112106D02*
D03*
X115900D02*
D03*
X120900D02*
D03*
X125900D02*
D03*
X130900D02*
D03*
X135900D02*
D03*
X140900D02*
D03*
X145900D02*
D03*
X150900D02*
D03*
X155900D02*
D03*
D36*
X55740Y156315D02*
D03*
X52000D02*
D03*
X48260D02*
D03*
X55740Y145685D02*
D03*
X52000D02*
D03*
X48260D02*
D03*
M02*
