G04*
G04 #@! TF.GenerationSoftware,Altium Limited,Altium Designer,19.1.8 (144)*
G04*
G04 Layer_Physical_Order=2*
G04 Layer_Color=16711680*
%FSLAX25Y25*%
%MOIN*%
G70*
G01*
G75*
%ADD13C,0.01000*%
%ADD14C,0.00600*%
%ADD16C,0.00050*%
%ADD17C,0.00000*%
%ADD66C,0.02000*%
%ADD67C,0.04756*%
%ADD68O,0.10299X0.10299*%
%ADD69C,0.10299*%
%ADD70C,0.07000*%
%ADD71C,0.09449*%
%ADD72C,0.02500*%
%ADD73C,0.03000*%
G36*
X95000Y180000D02*
X190000D01*
Y0D01*
X181187D01*
X181036Y500D01*
X181314Y686D01*
X181778Y1381D01*
X181941Y2200D01*
X181778Y3019D01*
X181314Y3714D01*
X180619Y4178D01*
X179800Y4341D01*
X178981Y4178D01*
X178286Y3714D01*
X177822Y3019D01*
X177659Y2200D01*
X177822Y1381D01*
X178286Y686D01*
X178564Y500D01*
X178413Y0D01*
X176387D01*
X176236Y500D01*
X176514Y686D01*
X176978Y1381D01*
X177141Y2200D01*
X176978Y3019D01*
X176514Y3714D01*
X175819Y4178D01*
X175000Y4341D01*
X174181Y4178D01*
X173486Y3714D01*
X173022Y3019D01*
X172859Y2200D01*
X173022Y1381D01*
X173486Y686D01*
X173764Y500D01*
X173613Y0D01*
X171352D01*
X171200Y500D01*
X171479Y686D01*
X171943Y1381D01*
X172106Y2200D01*
X171943Y3019D01*
X171479Y3714D01*
X170784Y4178D01*
X169965Y4341D01*
X169145Y4178D01*
X168450Y3714D01*
X167986Y3019D01*
X167823Y2200D01*
X167986Y1381D01*
X168450Y686D01*
X168729Y500D01*
X168577Y0D01*
X0D01*
Y101831D01*
X251Y101912D01*
X500Y101914D01*
X866Y101366D01*
X1478Y100957D01*
X2200Y100814D01*
X2922Y100957D01*
X3534Y101366D01*
X3943Y101978D01*
X4086Y102700D01*
X3943Y103422D01*
X3831Y103588D01*
Y114424D01*
X10125Y120718D01*
X10322Y120757D01*
X10934Y121166D01*
X11343Y121778D01*
X11486Y122500D01*
X11343Y123222D01*
X10934Y123834D01*
X10322Y124243D01*
X9600Y124386D01*
X8878Y124243D01*
X8266Y123834D01*
X7857Y123222D01*
X7818Y123025D01*
X1046Y116253D01*
X693Y115724D01*
X569Y115100D01*
Y103958D01*
X500Y103857D01*
X140Y103957D01*
X0Y104069D01*
Y195000D01*
X80000D01*
X95000Y180000D01*
D02*
G37*
%LPC*%
G36*
X73526Y190372D02*
Y188677D01*
X75221D01*
X75145Y189055D01*
X74648Y189799D01*
X73904Y190297D01*
X73526Y190372D01*
D02*
G37*
G36*
X72526D02*
X72148Y190297D01*
X71404Y189799D01*
X70907Y189055D01*
X70831Y188677D01*
X72526D01*
Y190372D01*
D02*
G37*
G36*
X44526D02*
Y188677D01*
X46221D01*
X46145Y189055D01*
X45648Y189799D01*
X44904Y190297D01*
X44526Y190372D01*
D02*
G37*
G36*
X43526D02*
X43148Y190297D01*
X42404Y189799D01*
X41906Y189055D01*
X41831Y188677D01*
X43526D01*
Y190372D01*
D02*
G37*
G36*
X35326D02*
Y188677D01*
X37021D01*
X36945Y189055D01*
X36448Y189799D01*
X35704Y190297D01*
X35326Y190372D01*
D02*
G37*
G36*
X34326D02*
X33948Y190297D01*
X33204Y189799D01*
X32706Y189055D01*
X32631Y188677D01*
X34326D01*
Y190372D01*
D02*
G37*
G36*
X6326D02*
Y188677D01*
X8021D01*
X7945Y189055D01*
X7448Y189799D01*
X6704Y190297D01*
X6326Y190372D01*
D02*
G37*
G36*
X5326D02*
X4948Y190297D01*
X4204Y189799D01*
X3706Y189055D01*
X3631Y188677D01*
X5326D01*
Y190372D01*
D02*
G37*
G36*
X75221Y187677D02*
X73526D01*
Y185983D01*
X73904Y186058D01*
X74648Y186555D01*
X75145Y187299D01*
X75221Y187677D01*
D02*
G37*
G36*
X72526D02*
X70831D01*
X70907Y187299D01*
X71404Y186555D01*
X72148Y186058D01*
X72526Y185983D01*
Y187677D01*
D02*
G37*
G36*
X46221D02*
X44526D01*
Y185983D01*
X44904Y186058D01*
X45648Y186555D01*
X46145Y187299D01*
X46221Y187677D01*
D02*
G37*
G36*
X43526D02*
X41831D01*
X41906Y187299D01*
X42404Y186555D01*
X43148Y186058D01*
X43526Y185983D01*
Y187677D01*
D02*
G37*
G36*
X37021D02*
X35326D01*
Y185983D01*
X35704Y186058D01*
X36448Y186555D01*
X36945Y187299D01*
X37021Y187677D01*
D02*
G37*
G36*
X34326D02*
X32631D01*
X32706Y187299D01*
X33204Y186555D01*
X33948Y186058D01*
X34326Y185983D01*
Y187677D01*
D02*
G37*
G36*
X8021D02*
X6326D01*
Y185983D01*
X6704Y186058D01*
X7448Y186555D01*
X7945Y187299D01*
X8021Y187677D01*
D02*
G37*
G36*
X5326D02*
X3631D01*
X3706Y187299D01*
X4204Y186555D01*
X4948Y186058D01*
X5326Y185983D01*
Y187677D01*
D02*
G37*
G36*
X35701Y165264D02*
Y159634D01*
X41331D01*
X41261Y160339D01*
X40910Y161499D01*
X40339Y162567D01*
X39570Y163503D01*
X38634Y164272D01*
X37565Y164843D01*
X36406Y165194D01*
X35701Y165264D01*
D02*
G37*
G36*
X17000D02*
Y159634D01*
X22630D01*
X22561Y160339D01*
X22209Y161499D01*
X21638Y162567D01*
X20869Y163503D01*
X19933Y164272D01*
X18865Y164843D01*
X17706Y165194D01*
X17000Y165264D01*
D02*
G37*
G36*
X34701D02*
X33995Y165194D01*
X32836Y164843D01*
X31768Y164272D01*
X30831Y163503D01*
X30063Y162567D01*
X29492Y161499D01*
X29140Y160339D01*
X29071Y159634D01*
X34701D01*
Y165264D01*
D02*
G37*
G36*
X16000D02*
X15294Y165194D01*
X14135Y164843D01*
X13067Y164272D01*
X12130Y163503D01*
X11362Y162567D01*
X10791Y161499D01*
X10439Y160339D01*
X10370Y159634D01*
X16000D01*
Y165264D01*
D02*
G37*
G36*
X154823Y161021D02*
Y159326D01*
X156518D01*
X156442Y159704D01*
X155945Y160448D01*
X155201Y160945D01*
X154823Y161021D01*
D02*
G37*
G36*
X153823D02*
X153445Y160945D01*
X152701Y160448D01*
X152203Y159704D01*
X152128Y159326D01*
X153823D01*
Y161021D01*
D02*
G37*
G36*
X133423Y160821D02*
Y159126D01*
X135117D01*
X135042Y159504D01*
X134545Y160248D01*
X133801Y160745D01*
X133423Y160821D01*
D02*
G37*
G36*
X132423D02*
X132045Y160745D01*
X131301Y160248D01*
X130803Y159504D01*
X130728Y159126D01*
X132423D01*
Y160821D01*
D02*
G37*
G36*
X111423Y160721D02*
Y159026D01*
X113118D01*
X113042Y159404D01*
X112545Y160148D01*
X111801Y160645D01*
X111423Y160721D01*
D02*
G37*
G36*
X110423D02*
X110045Y160645D01*
X109301Y160148D01*
X108803Y159404D01*
X108728Y159026D01*
X110423D01*
Y160721D01*
D02*
G37*
G36*
X156518Y158326D02*
X154823D01*
Y156631D01*
X155201Y156707D01*
X155945Y157204D01*
X156442Y157948D01*
X156518Y158326D01*
D02*
G37*
G36*
X153823D02*
X152128D01*
X152203Y157948D01*
X152701Y157204D01*
X153445Y156707D01*
X153823Y156631D01*
Y158326D01*
D02*
G37*
G36*
X135117Y158126D02*
X133423D01*
Y156431D01*
X133801Y156507D01*
X134545Y157004D01*
X135042Y157748D01*
X135117Y158126D01*
D02*
G37*
G36*
X132423D02*
X130728D01*
X130803Y157748D01*
X131301Y157004D01*
X132045Y156507D01*
X132423Y156431D01*
Y158126D01*
D02*
G37*
G36*
X113118Y158026D02*
X111423D01*
Y156331D01*
X111801Y156406D01*
X112545Y156904D01*
X113042Y157648D01*
X113118Y158026D01*
D02*
G37*
G36*
X110423D02*
X108728D01*
X108803Y157648D01*
X109301Y156904D01*
X110045Y156406D01*
X110423Y156331D01*
Y158026D01*
D02*
G37*
G36*
X22630Y158634D02*
X17000D01*
Y153004D01*
X17706Y153073D01*
X18865Y153425D01*
X19933Y153996D01*
X20869Y154764D01*
X21638Y155701D01*
X22209Y156769D01*
X22561Y157928D01*
X22630Y158634D01*
D02*
G37*
G36*
X34701D02*
X29071D01*
X29140Y157928D01*
X29492Y156769D01*
X30063Y155701D01*
X30831Y154764D01*
X31768Y153996D01*
X32836Y153425D01*
X33995Y153073D01*
X34701Y153004D01*
Y158634D01*
D02*
G37*
G36*
X16000D02*
X10370D01*
X10439Y157928D01*
X10791Y156769D01*
X11362Y155701D01*
X12130Y154764D01*
X13067Y153996D01*
X14135Y153425D01*
X15294Y153073D01*
X16000Y153004D01*
Y158634D01*
D02*
G37*
G36*
X41331D02*
X35701D01*
Y153004D01*
X36025Y153036D01*
X36290Y152559D01*
X36143Y152368D01*
X35843Y151644D01*
X35740Y150866D01*
X35758Y150735D01*
X35296Y150411D01*
X34797Y150618D01*
X34020Y150720D01*
X33242Y150618D01*
X32518Y150318D01*
X31896Y149840D01*
X31418Y149218D01*
X31118Y148494D01*
X31016Y147716D01*
X31118Y146939D01*
X31418Y146215D01*
X31896Y145593D01*
X32518Y145115D01*
X33242Y144815D01*
Y144319D01*
X32518Y144019D01*
X31896Y143541D01*
X31418Y142919D01*
X31118Y142195D01*
X31016Y141417D01*
X31118Y140640D01*
X31418Y139916D01*
X31896Y139293D01*
X32518Y138816D01*
X33242Y138516D01*
X34020Y138414D01*
X34797Y138516D01*
X34941Y138575D01*
X35063Y138481D01*
X35346Y138202D01*
X35453Y137386D01*
X35768Y136626D01*
X35701Y136470D01*
Y130500D01*
X41331D01*
X41261Y131205D01*
X40910Y132365D01*
X40339Y133433D01*
X39570Y134370D01*
X39426Y134488D01*
X39564Y134968D01*
X39626Y134977D01*
X40448Y135317D01*
X41153Y135859D01*
X41695Y136564D01*
X42035Y137386D01*
X42085Y137768D01*
X38744D01*
Y138768D01*
X42085D01*
X42035Y139149D01*
X41695Y139971D01*
X41153Y140677D01*
X40448Y141218D01*
X40098Y141363D01*
X40098Y141904D01*
X40246Y141966D01*
X40868Y142443D01*
X41345Y143065D01*
X41645Y143790D01*
X41748Y144567D01*
X41645Y145344D01*
X41345Y146069D01*
X40868Y146691D01*
X40246Y147168D01*
X39522Y147468D01*
Y147965D01*
X40246Y148265D01*
X40868Y148742D01*
X41345Y149364D01*
X41645Y150089D01*
X41748Y150866D01*
X41645Y151644D01*
X41345Y152368D01*
X40868Y152990D01*
X40246Y153467D01*
X39522Y153767D01*
X39196Y153810D01*
X39046Y154334D01*
X39570Y154764D01*
X40339Y155701D01*
X40910Y156769D01*
X41261Y157928D01*
X41331Y158634D01*
D02*
G37*
G36*
X52500Y143795D02*
Y142100D01*
X54195D01*
X54119Y142478D01*
X53622Y143222D01*
X52878Y143719D01*
X52500Y143795D01*
D02*
G37*
G36*
X51500D02*
X51122Y143719D01*
X50378Y143222D01*
X49880Y142478D01*
X49805Y142100D01*
X51500D01*
Y143795D01*
D02*
G37*
G36*
X54195Y141100D02*
X52500D01*
Y139405D01*
X52878Y139480D01*
X53622Y139978D01*
X54119Y140722D01*
X54195Y141100D01*
D02*
G37*
G36*
X51500D02*
X49805D01*
X49880Y140722D01*
X50378Y139978D01*
X51122Y139480D01*
X51500Y139405D01*
Y141100D01*
D02*
G37*
G36*
X17000Y136130D02*
Y130500D01*
X22630D01*
X22561Y131205D01*
X22209Y132365D01*
X21638Y133433D01*
X20869Y134370D01*
X19933Y135138D01*
X18865Y135709D01*
X17706Y136061D01*
X17000Y136130D01*
D02*
G37*
G36*
X34701D02*
X33995Y136061D01*
X32836Y135709D01*
X31768Y135138D01*
X30831Y134370D01*
X30063Y133433D01*
X29492Y132365D01*
X29140Y131205D01*
X29071Y130500D01*
X34701D01*
Y136130D01*
D02*
G37*
G36*
X16000D02*
X15294Y136061D01*
X14135Y135709D01*
X13067Y135138D01*
X12130Y134370D01*
X11362Y133433D01*
X10791Y132365D01*
X10439Y131205D01*
X10370Y130500D01*
X16000D01*
Y136130D01*
D02*
G37*
G36*
X154823Y132021D02*
Y130326D01*
X156518D01*
X156442Y130704D01*
X155945Y131448D01*
X155201Y131945D01*
X154823Y132021D01*
D02*
G37*
G36*
X153823D02*
X153445Y131945D01*
X152701Y131448D01*
X152203Y130704D01*
X152128Y130326D01*
X153823D01*
Y132021D01*
D02*
G37*
G36*
X133423Y131821D02*
Y130126D01*
X135117D01*
X135042Y130504D01*
X134545Y131248D01*
X133801Y131745D01*
X133423Y131821D01*
D02*
G37*
G36*
X132423D02*
X132045Y131745D01*
X131301Y131248D01*
X130803Y130504D01*
X130728Y130126D01*
X132423D01*
Y131821D01*
D02*
G37*
G36*
X111423Y131721D02*
Y130026D01*
X113118D01*
X113042Y130404D01*
X112545Y131148D01*
X111801Y131645D01*
X111423Y131721D01*
D02*
G37*
G36*
X110423D02*
X110045Y131645D01*
X109301Y131148D01*
X108803Y130404D01*
X108728Y130026D01*
X110423D01*
Y131721D01*
D02*
G37*
G36*
X120923Y141563D02*
X120201Y141420D01*
X119589Y141011D01*
X119180Y140399D01*
X119037Y139677D01*
X119180Y138955D01*
X119291Y138789D01*
Y130514D01*
X119180Y130348D01*
X119037Y129626D01*
X119180Y128904D01*
X119589Y128292D01*
X120201Y127883D01*
X120923Y127740D01*
X121645Y127883D01*
X122257Y128292D01*
X122666Y128904D01*
X122809Y129626D01*
X122666Y130348D01*
X122554Y130514D01*
Y138789D01*
X122666Y138955D01*
X122809Y139677D01*
X122666Y140399D01*
X122257Y141011D01*
X121645Y141420D01*
X120923Y141563D01*
D02*
G37*
G36*
X98923Y141463D02*
X98201Y141320D01*
X97589Y140911D01*
X97180Y140299D01*
X97037Y139577D01*
X97180Y138855D01*
X97291Y138689D01*
Y130414D01*
X97180Y130248D01*
X97037Y129526D01*
X97180Y128804D01*
X97589Y128192D01*
X98201Y127783D01*
X98923Y127640D01*
X99645Y127783D01*
X100257Y128192D01*
X100665Y128804D01*
X100809Y129526D01*
X100665Y130248D01*
X100554Y130414D01*
Y138689D01*
X100665Y138855D01*
X100809Y139577D01*
X100665Y140299D01*
X100257Y140911D01*
X99645Y141320D01*
X98923Y141463D01*
D02*
G37*
G36*
X156518Y129326D02*
X154823D01*
Y127631D01*
X155201Y127707D01*
X155945Y128204D01*
X156442Y128948D01*
X156518Y129326D01*
D02*
G37*
G36*
X153823D02*
X152128D01*
X152203Y128948D01*
X152701Y128204D01*
X153445Y127707D01*
X153823Y127631D01*
Y129326D01*
D02*
G37*
G36*
X135117Y129126D02*
X133423D01*
Y127431D01*
X133801Y127506D01*
X134545Y128004D01*
X135042Y128748D01*
X135117Y129126D01*
D02*
G37*
G36*
X132423D02*
X130728D01*
X130803Y128748D01*
X131301Y128004D01*
X132045Y127506D01*
X132423Y127431D01*
Y129126D01*
D02*
G37*
G36*
X113118Y129026D02*
X111423D01*
Y127331D01*
X111801Y127407D01*
X112545Y127904D01*
X113042Y128648D01*
X113118Y129026D01*
D02*
G37*
G36*
X110423D02*
X108728D01*
X108803Y128648D01*
X109301Y127904D01*
X110045Y127407D01*
X110423Y127331D01*
Y129026D01*
D02*
G37*
G36*
X111423Y125595D02*
Y123900D01*
X113118D01*
X113042Y124278D01*
X112545Y125022D01*
X111801Y125520D01*
X111423Y125595D01*
D02*
G37*
G36*
X110423D02*
X110045Y125520D01*
X109301Y125022D01*
X108803Y124278D01*
X108728Y123900D01*
X110423D01*
Y125595D01*
D02*
G37*
G36*
X41331Y129500D02*
X35701D01*
Y123870D01*
X36406Y123939D01*
X37565Y124291D01*
X38634Y124862D01*
X39570Y125630D01*
X40339Y126567D01*
X40910Y127635D01*
X41261Y128795D01*
X41331Y129500D01*
D02*
G37*
G36*
X22630D02*
X17000D01*
Y123870D01*
X17706Y123939D01*
X18865Y124291D01*
X19933Y124862D01*
X20869Y125630D01*
X21638Y126567D01*
X22209Y127635D01*
X22561Y128795D01*
X22630Y129500D01*
D02*
G37*
G36*
X34701D02*
X29071D01*
X29140Y128795D01*
X29492Y127635D01*
X30063Y126567D01*
X30831Y125630D01*
X31768Y124862D01*
X32836Y124291D01*
X33995Y123939D01*
X34701Y123870D01*
Y129500D01*
D02*
G37*
G36*
X16000D02*
X10370D01*
X10439Y128795D01*
X10791Y127635D01*
X11362Y126567D01*
X12130Y125630D01*
X13067Y124862D01*
X14135Y124291D01*
X15294Y123939D01*
X16000Y123870D01*
Y129500D01*
D02*
G37*
G36*
X113118Y122900D02*
X111423D01*
Y121205D01*
X111801Y121281D01*
X112545Y121778D01*
X113042Y122522D01*
X113118Y122900D01*
D02*
G37*
G36*
X110423D02*
X108728D01*
X108794Y122569D01*
X103351Y117126D01*
X103152Y116828D01*
X103082Y116477D01*
Y114493D01*
X102378Y114022D01*
X101881Y113278D01*
X101805Y112900D01*
X106195D01*
X106120Y113278D01*
X105622Y114022D01*
X104918Y114493D01*
Y116097D01*
X110092Y121271D01*
X110423Y121205D01*
Y122900D01*
D02*
G37*
G36*
X80300Y129186D02*
X79578Y129043D01*
X78966Y128634D01*
X78557Y128022D01*
X78414Y127300D01*
X78557Y126578D01*
X78966Y125966D01*
X79578Y125557D01*
X80300Y125414D01*
X80791Y125511D01*
X81882Y124420D01*
Y120512D01*
X81466Y120234D01*
X81057Y119622D01*
X80914Y118900D01*
X81057Y118178D01*
X81466Y117566D01*
X82078Y117157D01*
X82800Y117014D01*
X83522Y117157D01*
X84134Y117566D01*
X84543Y118178D01*
X84686Y118900D01*
X84543Y119622D01*
X84134Y120234D01*
X83718Y120512D01*
Y124800D01*
X83648Y125151D01*
X83449Y125449D01*
X82089Y126809D01*
X82186Y127300D01*
X82043Y128022D01*
X81634Y128634D01*
X81022Y129043D01*
X80300Y129186D01*
D02*
G37*
G36*
X34600Y113210D02*
Y111516D01*
X36295D01*
X36219Y111894D01*
X35722Y112638D01*
X34978Y113135D01*
X34600Y113210D01*
D02*
G37*
G36*
X106195Y111900D02*
X104500D01*
Y110205D01*
X104878Y110281D01*
X105622Y110778D01*
X106120Y111522D01*
X106195Y111900D01*
D02*
G37*
G36*
X103500D02*
X101805D01*
X101881Y111522D01*
X102378Y110778D01*
X103122Y110281D01*
X103500Y110205D01*
Y111900D01*
D02*
G37*
G36*
X36295Y110516D02*
X34600D01*
Y108821D01*
X34978Y108896D01*
X35722Y109394D01*
X36219Y110138D01*
X36295Y110516D01*
D02*
G37*
G36*
X30750Y114636D02*
X30028Y114493D01*
X29416Y114084D01*
X29007Y113472D01*
X28968Y113275D01*
X25724Y110031D01*
X20088D01*
X19922Y110143D01*
X19200Y110286D01*
X18478Y110143D01*
X17866Y109734D01*
X17457Y109122D01*
X17314Y108400D01*
X17457Y107678D01*
X17866Y107066D01*
X18478Y106657D01*
X19200Y106514D01*
X19922Y106657D01*
X20088Y106769D01*
X26400D01*
X27024Y106893D01*
X27553Y107246D01*
X31275Y110968D01*
X31342Y110982D01*
X31490Y110992D01*
X31874Y110675D01*
X31980Y110138D01*
X32478Y109394D01*
X33222Y108896D01*
X33600Y108821D01*
Y111016D01*
Y113210D01*
X33222Y113135D01*
X33087Y113045D01*
X32532Y113275D01*
X32493Y113472D01*
X32084Y114084D01*
X31472Y114493D01*
X30750Y114636D01*
D02*
G37*
G36*
X84900Y107073D02*
Y103100D01*
X88873D01*
X88784Y103775D01*
X88331Y104869D01*
X87609Y105809D01*
X86669Y106531D01*
X85575Y106984D01*
X84900Y107073D01*
D02*
G37*
G36*
X83900D02*
X83225Y106984D01*
X82131Y106531D01*
X81191Y105809D01*
X80469Y104869D01*
X80016Y103775D01*
X79927Y103100D01*
X83900D01*
Y107073D01*
D02*
G37*
G36*
X19700Y102974D02*
Y101279D01*
X21395D01*
X21319Y101657D01*
X20822Y102402D01*
X20078Y102899D01*
X19700Y102974D01*
D02*
G37*
G36*
X18700D02*
X18322Y102899D01*
X17578Y102402D01*
X17081Y101657D01*
X17005Y101279D01*
X18700D01*
Y102974D01*
D02*
G37*
G36*
X34500Y100415D02*
Y98721D01*
X36195D01*
X36119Y99098D01*
X35622Y99843D01*
X34878Y100340D01*
X34500Y100415D01*
D02*
G37*
G36*
X33500D02*
X33122Y100340D01*
X32378Y99843D01*
X31881Y99098D01*
X31805Y98721D01*
X33500D01*
Y100415D01*
D02*
G37*
G36*
X21395Y100279D02*
X19700D01*
Y98585D01*
X20078Y98660D01*
X20822Y99157D01*
X21319Y99902D01*
X21395Y100279D01*
D02*
G37*
G36*
X18700D02*
X17005D01*
X17081Y99902D01*
X17578Y99157D01*
X18322Y98660D01*
X18700Y98585D01*
Y100279D01*
D02*
G37*
G36*
X94400Y106735D02*
X93330Y106595D01*
X92332Y106181D01*
X91476Y105524D01*
X90819Y104668D01*
X90405Y103670D01*
X90265Y102600D01*
X90405Y101530D01*
X90819Y100532D01*
X91476Y99676D01*
X92332Y99019D01*
X93330Y98606D01*
X94400Y98465D01*
X95470Y98606D01*
X96468Y99019D01*
X97324Y99676D01*
X97981Y100532D01*
X98395Y101530D01*
X98535Y102600D01*
X98395Y103670D01*
X97981Y104668D01*
X97324Y105524D01*
X96468Y106181D01*
X95470Y106595D01*
X94400Y106735D01*
D02*
G37*
G36*
X88873Y102100D02*
X84900D01*
Y98127D01*
X85575Y98216D01*
X86669Y98669D01*
X87609Y99391D01*
X88331Y100331D01*
X88784Y101425D01*
X88873Y102100D01*
D02*
G37*
G36*
X83900D02*
X79927D01*
X80016Y101425D01*
X80469Y100331D01*
X81191Y99391D01*
X82131Y98669D01*
X83225Y98216D01*
X83900Y98127D01*
Y102100D01*
D02*
G37*
G36*
X36195Y97720D02*
X34500D01*
Y96026D01*
X34878Y96101D01*
X35622Y96598D01*
X36119Y97343D01*
X36195Y97720D01*
D02*
G37*
G36*
X33500D02*
X31805D01*
X31881Y97343D01*
X32378Y96598D01*
X33122Y96101D01*
X33500Y96026D01*
Y97720D01*
D02*
G37*
G36*
X56600Y97095D02*
Y95400D01*
X58295D01*
X58219Y95778D01*
X57722Y96522D01*
X56978Y97019D01*
X56600Y97095D01*
D02*
G37*
G36*
X55600D02*
X55222Y97019D01*
X54478Y96522D01*
X53981Y95778D01*
X53905Y95400D01*
X55600D01*
Y97095D01*
D02*
G37*
G36*
X58295Y94400D02*
X56600D01*
Y92705D01*
X56978Y92781D01*
X57722Y93278D01*
X58219Y94022D01*
X58295Y94400D01*
D02*
G37*
G36*
X55600D02*
X53905D01*
X53981Y94022D01*
X54478Y93278D01*
X55222Y92781D01*
X55600Y92705D01*
Y94400D01*
D02*
G37*
G36*
X34600Y92738D02*
Y91043D01*
X36295D01*
X36219Y91421D01*
X35722Y92165D01*
X34978Y92663D01*
X34600Y92738D01*
D02*
G37*
G36*
X33600D02*
X33222Y92663D01*
X32478Y92165D01*
X31980Y91421D01*
X31905Y91043D01*
X33600D01*
Y92738D01*
D02*
G37*
G36*
X94400Y96735D02*
X93330Y96595D01*
X92332Y96181D01*
X91476Y95524D01*
X90819Y94668D01*
X90405Y93670D01*
X90265Y92600D01*
X90405Y91530D01*
X90819Y90532D01*
X91476Y89676D01*
X92332Y89019D01*
X93330Y88605D01*
X94400Y88465D01*
X95470Y88605D01*
X96468Y89019D01*
X97324Y89676D01*
X97981Y90532D01*
X98395Y91530D01*
X98535Y92600D01*
X98395Y93670D01*
X97981Y94668D01*
X97324Y95524D01*
X96468Y96181D01*
X95470Y96595D01*
X94400Y96735D01*
D02*
G37*
G36*
X84400D02*
X83330Y96595D01*
X82332Y96181D01*
X81476Y95524D01*
X80819Y94668D01*
X80405Y93670D01*
X80265Y92600D01*
X80405Y91530D01*
X80819Y90532D01*
X81476Y89676D01*
X82332Y89019D01*
X83330Y88605D01*
X84400Y88465D01*
X85470Y88605D01*
X86468Y89019D01*
X87324Y89676D01*
X87981Y90532D01*
X88394Y91530D01*
X88535Y92600D01*
X88394Y93670D01*
X87981Y94668D01*
X87324Y95524D01*
X86468Y96181D01*
X85470Y96595D01*
X84400Y96735D01*
D02*
G37*
G36*
X36295Y90043D02*
X34600D01*
Y88349D01*
X34978Y88424D01*
X35722Y88921D01*
X36219Y89665D01*
X36295Y90043D01*
D02*
G37*
G36*
X33600D02*
X31905D01*
X31980Y89665D01*
X32478Y88921D01*
X33222Y88424D01*
X33600Y88349D01*
Y90043D01*
D02*
G37*
G36*
X55500Y89195D02*
X55122Y89119D01*
X54378Y88622D01*
X53881Y87878D01*
X53805Y87500D01*
X55500D01*
Y89195D01*
D02*
G37*
G36*
Y86500D02*
X53805D01*
X53881Y86122D01*
X54378Y85378D01*
X55122Y84881D01*
X55500Y84805D01*
Y86500D01*
D02*
G37*
G36*
X18800Y82686D02*
X18078Y82543D01*
X17466Y82134D01*
X17057Y81522D01*
X17018Y81325D01*
X15324Y79631D01*
X7388D01*
X7222Y79743D01*
X6500Y79886D01*
X5778Y79743D01*
X5166Y79334D01*
X4757Y78722D01*
X4614Y78000D01*
X4757Y77278D01*
X5166Y76666D01*
X5778Y76257D01*
X6500Y76114D01*
X7222Y76257D01*
X7388Y76369D01*
X16000D01*
X16624Y76493D01*
X17154Y76846D01*
X19325Y79018D01*
X19522Y79057D01*
X20134Y79466D01*
X20543Y80078D01*
X20686Y80800D01*
X20543Y81522D01*
X20134Y82134D01*
X19522Y82543D01*
X18800Y82686D01*
D02*
G37*
G36*
X84400Y86735D02*
X83330Y86594D01*
X82332Y86181D01*
X81476Y85524D01*
X80819Y84668D01*
X80405Y83670D01*
X80265Y82600D01*
X80405Y81530D01*
X80819Y80532D01*
X81476Y79676D01*
X82332Y79019D01*
X83330Y78606D01*
X84400Y78465D01*
X85470Y78606D01*
X86468Y79019D01*
X87324Y79676D01*
X87981Y80532D01*
X88394Y81530D01*
X88535Y82600D01*
X88394Y83670D01*
X87981Y84668D01*
X87324Y85524D01*
X86468Y86181D01*
X85470Y86594D01*
X84400Y86735D01*
D02*
G37*
G36*
X94400D02*
X93330Y86594D01*
X92332Y86181D01*
X91476Y85524D01*
X90819Y84668D01*
X90405Y83670D01*
X90265Y82600D01*
X90405Y81530D01*
X90819Y80532D01*
X91476Y79676D01*
X92142Y79165D01*
X92017Y78630D01*
X91578Y78543D01*
X90966Y78134D01*
X90688Y77718D01*
X80080D01*
X75289Y82509D01*
X75386Y83000D01*
X75243Y83722D01*
X74834Y84334D01*
X74222Y84743D01*
X73500Y84886D01*
X72778Y84743D01*
X72166Y84334D01*
X71757Y83722D01*
X71614Y83000D01*
X71757Y82278D01*
X72166Y81666D01*
X72778Y81257D01*
X73500Y81114D01*
X73991Y81211D01*
X79051Y76151D01*
X79349Y75952D01*
X79700Y75882D01*
X90688D01*
X90966Y75466D01*
X91578Y75057D01*
X92300Y74914D01*
X93022Y75057D01*
X93634Y75466D01*
X94043Y76078D01*
X94186Y76800D01*
X94043Y77522D01*
X93687Y78054D01*
X93798Y78354D01*
X93927Y78527D01*
X94400Y78465D01*
X95470Y78606D01*
X96468Y79019D01*
X97324Y79676D01*
X97981Y80532D01*
X98395Y81530D01*
X98535Y82600D01*
X98395Y83670D01*
X97981Y84668D01*
X97324Y85524D01*
X96468Y86181D01*
X95470Y86594D01*
X94400Y86735D01*
D02*
G37*
G36*
X56500Y89195D02*
Y87000D01*
Y84805D01*
X56878Y84881D01*
X57622Y85378D01*
X58142Y85256D01*
X58157Y85178D01*
X58269Y85012D01*
Y77688D01*
X58157Y77522D01*
X58014Y76800D01*
X58157Y76078D01*
X58566Y75466D01*
X59178Y75057D01*
X59900Y74914D01*
X60622Y75057D01*
X61234Y75466D01*
X61643Y76078D01*
X61786Y76800D01*
X61643Y77522D01*
X61531Y77688D01*
Y85012D01*
X61643Y85178D01*
X61786Y85900D01*
X61643Y86622D01*
X61234Y87234D01*
X60622Y87643D01*
X59900Y87786D01*
X59178Y87643D01*
X58735Y87347D01*
X58242Y87493D01*
X58187Y87536D01*
X58119Y87878D01*
X57622Y88622D01*
X56878Y89119D01*
X56500Y89195D01*
D02*
G37*
G36*
X54600Y76095D02*
Y74400D01*
X56295D01*
X56219Y74778D01*
X55722Y75522D01*
X54978Y76019D01*
X54600Y76095D01*
D02*
G37*
G36*
X53600D02*
X53222Y76019D01*
X52478Y75522D01*
X51981Y74778D01*
X51905Y74400D01*
X53600D01*
Y76095D01*
D02*
G37*
G36*
X65500Y75095D02*
Y73400D01*
X67195D01*
X67119Y73778D01*
X66622Y74522D01*
X65878Y75019D01*
X65500Y75095D01*
D02*
G37*
G36*
X64500D02*
X64122Y75019D01*
X63378Y74522D01*
X62881Y73778D01*
X62805Y73400D01*
X64500D01*
Y75095D01*
D02*
G37*
G36*
X27700Y76186D02*
X26978Y76043D01*
X26812Y75931D01*
X21800D01*
X21176Y75807D01*
X20647Y75454D01*
X19875Y74682D01*
X19678Y74643D01*
X19066Y74234D01*
X18657Y73622D01*
X18514Y72900D01*
X18657Y72178D01*
X19066Y71566D01*
X19678Y71157D01*
X20400Y71014D01*
X21122Y71157D01*
X21734Y71566D01*
X22143Y72178D01*
X22182Y72375D01*
X22476Y72669D01*
X26812D01*
X26978Y72557D01*
X27700Y72414D01*
X28422Y72557D01*
X29034Y72966D01*
X29443Y73578D01*
X29586Y74300D01*
X29443Y75022D01*
X29034Y75634D01*
X28422Y76043D01*
X27700Y76186D01*
D02*
G37*
G36*
X56295Y73400D02*
X54600D01*
Y71705D01*
X54978Y71781D01*
X55722Y72278D01*
X56219Y73022D01*
X56295Y73400D01*
D02*
G37*
G36*
X53600D02*
X51905D01*
X51981Y73022D01*
X52478Y72278D01*
X53222Y71781D01*
X53600Y71705D01*
Y73400D01*
D02*
G37*
G36*
X67195Y72400D02*
X65500D01*
Y70705D01*
X65878Y70781D01*
X66622Y71278D01*
X67119Y72022D01*
X67195Y72400D01*
D02*
G37*
G36*
X64500D02*
X62805D01*
X62881Y72022D01*
X63378Y71278D01*
X64122Y70781D01*
X64500Y70705D01*
Y72400D01*
D02*
G37*
G36*
X65200Y81686D02*
X64478Y81543D01*
X63866Y81134D01*
X63457Y80522D01*
X63314Y79800D01*
X63457Y79078D01*
X63866Y78466D01*
X64478Y78057D01*
X65200Y77914D01*
X65691Y78011D01*
X70848Y72854D01*
X71146Y72655D01*
X71497Y72585D01*
X93823D01*
X93923Y72418D01*
X93640Y71918D01*
X89100D01*
X88749Y71848D01*
X88451Y71649D01*
X85791Y68989D01*
X85300Y69086D01*
X84578Y68943D01*
X83966Y68534D01*
X83557Y67922D01*
X83414Y67200D01*
X83557Y66478D01*
X83966Y65866D01*
X84578Y65457D01*
X85300Y65314D01*
X86022Y65457D01*
X86634Y65866D01*
X87043Y66478D01*
X87186Y67200D01*
X87089Y67691D01*
X89480Y70082D01*
X100088D01*
X100366Y69666D01*
X100978Y69257D01*
X101700Y69114D01*
X102422Y69257D01*
X103034Y69666D01*
X103443Y70278D01*
X103586Y71000D01*
X103443Y71722D01*
X103034Y72334D01*
X102422Y72743D01*
X101700Y72886D01*
X100978Y72743D01*
X100366Y72334D01*
X100088Y71918D01*
X97567D01*
X97300Y72418D01*
X97543Y72781D01*
X97686Y73503D01*
X97543Y74225D01*
X97134Y74837D01*
X96522Y75246D01*
X95800Y75389D01*
X95078Y75246D01*
X94466Y74837D01*
X94188Y74421D01*
X71877D01*
X66989Y79309D01*
X67086Y79800D01*
X66943Y80522D01*
X66534Y81134D01*
X65922Y81543D01*
X65200Y81686D01*
D02*
G37*
G36*
X25000Y69495D02*
Y67800D01*
X26695D01*
X26619Y68178D01*
X26122Y68922D01*
X25378Y69419D01*
X25000Y69495D01*
D02*
G37*
G36*
X24000D02*
X23622Y69419D01*
X22878Y68922D01*
X22380Y68178D01*
X22305Y67800D01*
X24000D01*
Y69495D01*
D02*
G37*
G36*
X174500Y69195D02*
Y67500D01*
X176195D01*
X176119Y67878D01*
X175622Y68622D01*
X174878Y69119D01*
X174500Y69195D01*
D02*
G37*
G36*
X173500D02*
X173122Y69119D01*
X172378Y68622D01*
X171880Y67878D01*
X171805Y67500D01*
X173500D01*
Y69195D01*
D02*
G37*
G36*
X65400Y67895D02*
Y66200D01*
X67095D01*
X67019Y66578D01*
X66522Y67322D01*
X65778Y67819D01*
X65400Y67895D01*
D02*
G37*
G36*
X64400D02*
X64022Y67819D01*
X63278Y67322D01*
X62781Y66578D01*
X62705Y66200D01*
X64400D01*
Y67895D01*
D02*
G37*
G36*
X176195Y66500D02*
X174500D01*
Y64805D01*
X174878Y64881D01*
X175622Y65378D01*
X176119Y66122D01*
X176195Y66500D01*
D02*
G37*
G36*
X173500D02*
X171805D01*
X171880Y66122D01*
X172378Y65378D01*
X173122Y64881D01*
X173500Y64805D01*
Y66500D01*
D02*
G37*
G36*
X67095Y65200D02*
X65400D01*
Y63505D01*
X65778Y63581D01*
X66522Y64078D01*
X67019Y64822D01*
X67095Y65200D01*
D02*
G37*
G36*
X64400D02*
X62705D01*
X62781Y64822D01*
X63278Y64078D01*
X64022Y63581D01*
X64400Y63505D01*
Y65200D01*
D02*
G37*
G36*
X26695Y66800D02*
X22305D01*
X22380Y66422D01*
X22878Y65678D01*
X23622Y65181D01*
X24002Y65105D01*
Y64595D01*
X23622Y64519D01*
X22878Y64022D01*
X22380Y63278D01*
X22305Y62900D01*
X26695D01*
X26619Y63278D01*
X26122Y64022D01*
X25378Y64519D01*
X24998Y64595D01*
Y65105D01*
X25378Y65181D01*
X26122Y65678D01*
X26619Y66422D01*
X26695Y66800D01*
D02*
G37*
G36*
X93300Y62630D02*
Y60935D01*
X94995D01*
X94919Y61313D01*
X94422Y62058D01*
X93678Y62555D01*
X93300Y62630D01*
D02*
G37*
G36*
X92300D02*
X91922Y62555D01*
X91178Y62058D01*
X90681Y61313D01*
X90605Y60935D01*
X92300D01*
Y62630D01*
D02*
G37*
G36*
X85200Y62565D02*
Y60871D01*
X86895D01*
X86819Y61249D01*
X86322Y61993D01*
X85578Y62490D01*
X85200Y62565D01*
D02*
G37*
G36*
X84200D02*
X83822Y62490D01*
X83078Y61993D01*
X82581Y61249D01*
X82505Y60871D01*
X84200D01*
Y62565D01*
D02*
G37*
G36*
X86895Y59871D02*
X85200D01*
Y58176D01*
X85578Y58251D01*
X86322Y58749D01*
X86819Y59493D01*
X86895Y59871D01*
D02*
G37*
G36*
X84200D02*
X82505D01*
X82581Y59493D01*
X83078Y58749D01*
X83822Y58251D01*
X84200Y58176D01*
Y59871D01*
D02*
G37*
G36*
X104900Y65486D02*
X104178Y65343D01*
X103566Y64934D01*
X103157Y64322D01*
X103118Y64125D01*
X100875Y61882D01*
X100678Y61843D01*
X100066Y61434D01*
X99657Y60822D01*
X99514Y60100D01*
X99657Y59378D01*
X100066Y58766D01*
X100567Y58431D01*
X100452Y57931D01*
X94002D01*
X93851Y58431D01*
X94422Y58813D01*
X94919Y59557D01*
X94995Y59935D01*
X90605D01*
X90681Y59557D01*
X91178Y58813D01*
X91749Y58431D01*
X91598Y57931D01*
X90400D01*
X89776Y57807D01*
X89246Y57454D01*
X84998Y53205D01*
X84644Y52676D01*
X84520Y52052D01*
Y49040D01*
X84409Y48873D01*
X84265Y48151D01*
X84409Y47430D01*
X84818Y46818D01*
X85430Y46409D01*
X86151Y46265D01*
X86873Y46409D01*
X87485Y46818D01*
X87894Y47430D01*
X88038Y48151D01*
X87894Y48873D01*
X87783Y49040D01*
Y51376D01*
X91076Y54669D01*
X98255D01*
X98462Y54169D01*
X93846Y49553D01*
X93825Y49522D01*
X92476D01*
X92334Y49734D01*
X91722Y50143D01*
X91000Y50286D01*
X90278Y50143D01*
X89666Y49734D01*
X89257Y49122D01*
X89114Y48400D01*
X89257Y47678D01*
X89666Y47066D01*
X90278Y46657D01*
X91000Y46514D01*
X91722Y46657D01*
X92334Y47066D01*
X92476Y47278D01*
X93825D01*
X93846Y47247D01*
X94376Y46893D01*
X95000Y46769D01*
X95624Y46893D01*
X96153Y47247D01*
X100661Y51754D01*
X104153D01*
X104449Y51254D01*
X104405Y51035D01*
X106600D01*
Y50035D01*
X104405D01*
X104481Y49657D01*
X104978Y48913D01*
X105250Y48731D01*
X105098Y48231D01*
X101600D01*
X101600Y48231D01*
X100976Y48107D01*
X100446Y47754D01*
X96824Y44131D01*
X79800D01*
X79176Y44007D01*
X78646Y43654D01*
X71175Y36182D01*
X70978Y36143D01*
X70366Y35734D01*
X69957Y35122D01*
X69814Y34400D01*
X69957Y33678D01*
X70069Y33512D01*
Y21900D01*
X70193Y21276D01*
X70547Y20746D01*
X70718Y20575D01*
X70757Y20378D01*
X71166Y19766D01*
X71778Y19357D01*
X72500Y19214D01*
X73222Y19357D01*
X73834Y19766D01*
X74243Y20378D01*
X74386Y21100D01*
X74243Y21822D01*
X73834Y22434D01*
X73331Y22770D01*
Y33512D01*
X73443Y33678D01*
X73482Y33875D01*
X78461Y38853D01*
X78939Y38708D01*
X78975Y38528D01*
X79472Y37783D01*
X79616Y37687D01*
Y37187D01*
X79472Y37091D01*
X78975Y36346D01*
X78900Y35969D01*
X81094D01*
Y34969D01*
X78900D01*
X78975Y34591D01*
X79472Y33846D01*
X79616Y33750D01*
Y33250D01*
X79472Y33154D01*
X78975Y32409D01*
X78900Y32032D01*
X81094D01*
Y31032D01*
X78900D01*
X78975Y30654D01*
X79472Y29909D01*
X79616Y29813D01*
Y29313D01*
X79472Y29217D01*
X78975Y28472D01*
X78900Y28095D01*
X81094D01*
Y27595D01*
X81595D01*
Y25400D01*
X81972Y25475D01*
X82717Y25972D01*
X82813Y26116D01*
X83313D01*
X83409Y25972D01*
X84154Y25475D01*
X84531Y25400D01*
Y27595D01*
X85532D01*
Y25400D01*
X85909Y25475D01*
X86654Y25972D01*
X86750Y26116D01*
X87250D01*
X87346Y25972D01*
X88091Y25475D01*
X88468Y25400D01*
Y27595D01*
X89468D01*
Y25400D01*
X89846Y25475D01*
X90591Y25972D01*
X90687Y26116D01*
X91187D01*
X91283Y25972D01*
X92028Y25475D01*
X92389Y25403D01*
X92554Y24861D01*
X90596Y22904D01*
X90243Y22374D01*
X90119Y21750D01*
Y18938D01*
X90007Y18772D01*
X89864Y18050D01*
X90007Y17328D01*
X90119Y17162D01*
Y6772D01*
X89619Y6602D01*
X89557Y6643D01*
X88835Y6786D01*
X88114Y6643D01*
X87502Y6234D01*
X87093Y5622D01*
X86949Y4900D01*
X87093Y4178D01*
X87502Y3566D01*
X88114Y3157D01*
X88835Y3014D01*
X89557Y3157D01*
X89724Y3269D01*
X93776D01*
X93943Y3157D01*
X94665Y3014D01*
X95386Y3157D01*
X95998Y3566D01*
X96407Y4178D01*
X96551Y4900D01*
X96407Y5622D01*
X95998Y6234D01*
X95386Y6643D01*
X94665Y6786D01*
X93943Y6643D01*
X93881Y6602D01*
X93381Y6772D01*
Y17162D01*
X93493Y17328D01*
X93636Y18050D01*
X93493Y18772D01*
X93381Y18938D01*
Y21074D01*
X99654Y27347D01*
X100007Y27876D01*
X100131Y28500D01*
Y38324D01*
X102640Y40833D01*
X105712D01*
X105878Y40722D01*
X106600Y40578D01*
X107322Y40722D01*
X107934Y41131D01*
X108343Y41743D01*
X108486Y42465D01*
X108343Y43186D01*
X107934Y43798D01*
X107322Y44207D01*
X106600Y44351D01*
X105878Y44207D01*
X105712Y44096D01*
X102110D01*
X101907Y44466D01*
X101889Y44582D01*
X102276Y44969D01*
X112389D01*
X112652Y44706D01*
X112657Y44678D01*
X113066Y44066D01*
X113678Y43657D01*
X114400Y43514D01*
X115122Y43657D01*
X115734Y44066D01*
X116143Y44678D01*
X116156Y44744D01*
X116634Y44889D01*
X119769Y41755D01*
Y39788D01*
X119657Y39622D01*
X119514Y38900D01*
X119657Y38178D01*
X120066Y37566D01*
X120678Y37157D01*
X121400Y37014D01*
X122122Y37157D01*
X122734Y37566D01*
X123143Y38178D01*
X123286Y38900D01*
X123143Y39622D01*
X123031Y39788D01*
Y42430D01*
X122907Y43055D01*
X122554Y43584D01*
X118150Y47988D01*
X118151Y47999D01*
X118376Y48469D01*
X151424D01*
X152569Y47324D01*
Y43900D01*
X152693Y43276D01*
X153047Y42746D01*
X154647Y41146D01*
X155176Y40793D01*
X155800Y40669D01*
X158495D01*
X158647Y40169D01*
X158278Y39922D01*
X157781Y39178D01*
X157705Y38800D01*
X162095D01*
X162020Y39178D01*
X161522Y39922D01*
X161153Y40169D01*
X161305Y40669D01*
X167265D01*
X167889Y40793D01*
X168418Y41146D01*
X170390Y43118D01*
X170586Y43157D01*
X171198Y43566D01*
X171607Y44178D01*
X171751Y44900D01*
X171607Y45622D01*
X171198Y46234D01*
X170586Y46643D01*
X169865Y46786D01*
X169143Y46643D01*
X168531Y46234D01*
X168122Y45622D01*
X168083Y45425D01*
X166589Y43931D01*
X162845D01*
X162578Y44431D01*
X162743Y44678D01*
X162782Y44875D01*
X171358Y53451D01*
X171712Y53980D01*
X171769Y54268D01*
X172043Y54678D01*
X172186Y55400D01*
X172043Y56122D01*
X171634Y56734D01*
X171022Y57143D01*
X170300Y57286D01*
X169578Y57143D01*
X168966Y56734D01*
X168557Y56122D01*
X168414Y55400D01*
X168460Y55167D01*
X160475Y47182D01*
X160278Y47143D01*
X159666Y46734D01*
X159257Y46122D01*
X159114Y45400D01*
X159257Y44678D01*
X159422Y44431D01*
X159155Y43931D01*
X156476D01*
X155831Y44576D01*
Y48000D01*
X155707Y48624D01*
X155353Y49154D01*
X153253Y51253D01*
X152724Y51607D01*
X152100Y51731D01*
X118876D01*
X113154Y57454D01*
X112624Y57807D01*
X112000Y57931D01*
X102348D01*
X102233Y58431D01*
X102734Y58766D01*
X103143Y59378D01*
X103182Y59575D01*
X105425Y61818D01*
X105622Y61857D01*
X106234Y62266D01*
X106643Y62878D01*
X106786Y63600D01*
X106643Y64322D01*
X106234Y64934D01*
X105622Y65343D01*
X104900Y65486D01*
D02*
G37*
G36*
X53700Y59595D02*
Y57900D01*
X55395D01*
X55319Y58278D01*
X54822Y59022D01*
X54078Y59519D01*
X53700Y59595D01*
D02*
G37*
G36*
X52700D02*
X52322Y59519D01*
X51578Y59022D01*
X51081Y58278D01*
X51005Y57900D01*
X52700D01*
Y59595D01*
D02*
G37*
G36*
X26695Y61900D02*
X22305D01*
X22380Y61522D01*
X22878Y60778D01*
X23622Y60281D01*
X24254Y60155D01*
Y59645D01*
X23622Y59519D01*
X22878Y59022D01*
X22380Y58278D01*
X22305Y57900D01*
X26695D01*
X26619Y58278D01*
X26122Y59022D01*
X25378Y59519D01*
X24746Y59645D01*
Y60155D01*
X25378Y60281D01*
X26122Y60778D01*
X26619Y61522D01*
X26695Y61900D01*
D02*
G37*
G36*
X55395Y56900D02*
X53700D01*
Y55205D01*
X54078Y55281D01*
X54822Y55778D01*
X55319Y56522D01*
X55395Y56900D01*
D02*
G37*
G36*
X52700D02*
X51005D01*
X51081Y56522D01*
X51578Y55778D01*
X52322Y55281D01*
X52700Y55205D01*
Y56900D01*
D02*
G37*
G36*
X75700Y55895D02*
Y54200D01*
X77395D01*
X77319Y54578D01*
X76822Y55322D01*
X76078Y55819D01*
X75700Y55895D01*
D02*
G37*
G36*
X74700D02*
X74322Y55819D01*
X73578Y55322D01*
X73081Y54578D01*
X73005Y54200D01*
X74700D01*
Y55895D01*
D02*
G37*
G36*
X26695Y56900D02*
X22305D01*
X22380Y56522D01*
X22878Y55778D01*
X23622Y55281D01*
X24254Y55155D01*
Y54645D01*
X23622Y54519D01*
X22878Y54022D01*
X22380Y53278D01*
X22305Y52900D01*
X26695D01*
X26619Y53278D01*
X26122Y54022D01*
X25378Y54519D01*
X24746Y54645D01*
Y55155D01*
X25378Y55281D01*
X26122Y55778D01*
X26619Y56522D01*
X26695Y56900D01*
D02*
G37*
G36*
X77395Y53200D02*
X75700D01*
Y51505D01*
X76078Y51581D01*
X76822Y52078D01*
X77319Y52822D01*
X77395Y53200D01*
D02*
G37*
G36*
X74700D02*
X73005D01*
X73081Y52822D01*
X73578Y52078D01*
X74322Y51581D01*
X74700Y51505D01*
Y53200D01*
D02*
G37*
G36*
X26695Y51900D02*
X25000D01*
Y50205D01*
X25378Y50280D01*
X26122Y50778D01*
X26619Y51522D01*
X26695Y51900D01*
D02*
G37*
G36*
X24000D02*
X22305D01*
X22380Y51522D01*
X22878Y50778D01*
X23622Y50280D01*
X24000Y50205D01*
Y51900D01*
D02*
G37*
G36*
X178435Y47095D02*
Y45400D01*
X180130D01*
X180055Y45778D01*
X179558Y46522D01*
X178813Y47019D01*
X178435Y47095D01*
D02*
G37*
G36*
X177435D02*
X177058Y47019D01*
X176313Y46522D01*
X175816Y45778D01*
X175741Y45400D01*
X177435D01*
Y47095D01*
D02*
G37*
G36*
X180130Y44400D02*
X178435D01*
Y42705D01*
X178813Y42781D01*
X179558Y43278D01*
X180055Y44022D01*
X180130Y44400D01*
D02*
G37*
G36*
X177435D02*
X175741D01*
X175816Y44022D01*
X176313Y43278D01*
X177058Y42781D01*
X177435Y42705D01*
Y44400D01*
D02*
G37*
G36*
X149400Y40495D02*
Y38800D01*
X151095D01*
X151020Y39178D01*
X150522Y39922D01*
X149778Y40420D01*
X149400Y40495D01*
D02*
G37*
G36*
X148400D02*
X148022Y40420D01*
X147278Y39922D01*
X146781Y39178D01*
X146705Y38800D01*
X148400D01*
Y40495D01*
D02*
G37*
G36*
X138400D02*
Y38800D01*
X140095D01*
X140020Y39178D01*
X139522Y39922D01*
X138778Y40420D01*
X138400Y40495D01*
D02*
G37*
G36*
X137400D02*
X137022Y40420D01*
X136278Y39922D01*
X135781Y39178D01*
X135705Y38800D01*
X137400D01*
Y40495D01*
D02*
G37*
G36*
X127400D02*
Y38800D01*
X129095D01*
X129019Y39178D01*
X128522Y39922D01*
X127778Y40420D01*
X127400Y40495D01*
D02*
G37*
G36*
X126400D02*
X126022Y40420D01*
X125278Y39922D01*
X124780Y39178D01*
X124705Y38800D01*
X126400D01*
Y40495D01*
D02*
G37*
G36*
X116400D02*
Y38800D01*
X118095D01*
X118019Y39178D01*
X117522Y39922D01*
X116778Y40420D01*
X116400Y40495D01*
D02*
G37*
G36*
X115400D02*
X115022Y40420D01*
X114278Y39922D01*
X113780Y39178D01*
X113705Y38800D01*
X115400D01*
Y40495D01*
D02*
G37*
G36*
X178464Y39195D02*
Y37500D01*
X180158D01*
X180083Y37878D01*
X179586Y38622D01*
X178842Y39119D01*
X178464Y39195D01*
D02*
G37*
G36*
X177464D02*
X177086Y39119D01*
X176342Y38622D01*
X175844Y37878D01*
X175769Y37500D01*
X177464D01*
Y39195D01*
D02*
G37*
G36*
X169893Y38886D02*
X169171Y38743D01*
X168559Y38334D01*
X168150Y37722D01*
X168111Y37525D01*
X167667Y37081D01*
X162347D01*
X162051Y37581D01*
X162095Y37800D01*
X157705D01*
X157781Y37422D01*
X158278Y36678D01*
X158295Y36502D01*
X155783Y33990D01*
X155300Y34086D01*
X154578Y33943D01*
X153966Y33534D01*
X153557Y32922D01*
X153414Y32200D01*
X153557Y31478D01*
X153966Y30866D01*
X154578Y30457D01*
X155300Y30314D01*
X156022Y30457D01*
X156188Y30569D01*
X156300D01*
X156924Y30693D01*
X157454Y31047D01*
X157882Y31475D01*
X158426Y31312D01*
X158475Y31073D01*
X155262Y27860D01*
X154772Y27958D01*
X154050Y27814D01*
X153438Y27405D01*
X153029Y26794D01*
X152885Y26072D01*
X153029Y25350D01*
X153438Y24738D01*
X154050Y24329D01*
X154772Y24185D01*
X155493Y24329D01*
X156105Y24738D01*
X156514Y25350D01*
X156658Y26072D01*
X156560Y26562D01*
X159948Y29951D01*
X160500Y29841D01*
X161222Y29985D01*
X161834Y30393D01*
X162243Y31005D01*
X162338Y31484D01*
X162386Y31727D01*
X162863Y31754D01*
X162957Y31278D01*
X163366Y30666D01*
X163782Y30388D01*
Y27580D01*
X163551Y27349D01*
X163352Y27051D01*
X163285Y26713D01*
X163157Y26522D01*
X163014Y25800D01*
X163157Y25078D01*
X163566Y24466D01*
X164178Y24057D01*
X164900Y23914D01*
X165622Y24057D01*
X166234Y24466D01*
X166643Y25078D01*
X166786Y25800D01*
X166643Y26522D01*
X166234Y27134D01*
X165622Y27543D01*
X165618Y27544D01*
Y30388D01*
X166034Y30666D01*
X166443Y31278D01*
X166586Y32000D01*
X166443Y32722D01*
X166044Y33319D01*
X166062Y33411D01*
X166208Y33819D01*
X168343D01*
X168967Y33943D01*
X169497Y34297D01*
X170418Y35218D01*
X170615Y35257D01*
X171227Y35666D01*
X171636Y36278D01*
X171779Y37000D01*
X171636Y37722D01*
X171227Y38334D01*
X170615Y38743D01*
X169893Y38886D01*
D02*
G37*
G36*
X151095Y37800D02*
X149400D01*
Y36105D01*
X149778Y36180D01*
X150522Y36678D01*
X151020Y37422D01*
X151095Y37800D01*
D02*
G37*
G36*
X148400D02*
X146705D01*
X146781Y37422D01*
X147278Y36678D01*
X148022Y36180D01*
X148400Y36105D01*
Y37800D01*
D02*
G37*
G36*
X140095D02*
X138400D01*
Y36105D01*
X138778Y36180D01*
X139522Y36678D01*
X140020Y37422D01*
X140095Y37800D01*
D02*
G37*
G36*
X137400D02*
X135705D01*
X135781Y37422D01*
X136278Y36678D01*
X137022Y36180D01*
X137400Y36105D01*
Y37800D01*
D02*
G37*
G36*
X129095D02*
X127400D01*
Y36105D01*
X127778Y36180D01*
X128522Y36678D01*
X129019Y37422D01*
X129095Y37800D01*
D02*
G37*
G36*
X126400D02*
X124705D01*
X124780Y37422D01*
X125278Y36678D01*
X126022Y36180D01*
X126400Y36105D01*
Y37800D01*
D02*
G37*
G36*
X118095D02*
X116400D01*
Y36105D01*
X116778Y36180D01*
X117522Y36678D01*
X118019Y37422D01*
X118095Y37800D01*
D02*
G37*
G36*
X115400D02*
X113705D01*
X113780Y37422D01*
X114278Y36678D01*
X115022Y36180D01*
X115400Y36105D01*
Y37800D01*
D02*
G37*
G36*
X68100Y48386D02*
X67378Y48243D01*
X66766Y47834D01*
X66357Y47222D01*
X66214Y46500D01*
X66357Y45778D01*
X66469Y45612D01*
Y38688D01*
X66357Y38522D01*
X66214Y37800D01*
X66357Y37078D01*
X66766Y36466D01*
X67378Y36057D01*
X68100Y35914D01*
X68822Y36057D01*
X69434Y36466D01*
X69843Y37078D01*
X69986Y37800D01*
X69843Y38522D01*
X69731Y38688D01*
Y45612D01*
X69843Y45778D01*
X69986Y46500D01*
X69843Y47222D01*
X69434Y47834D01*
X68822Y48243D01*
X68100Y48386D01*
D02*
G37*
G36*
X63400D02*
X62678Y48243D01*
X62066Y47834D01*
X61657Y47222D01*
X61514Y46500D01*
X61657Y45778D01*
X62066Y45166D01*
X62482Y44888D01*
Y39312D01*
X62066Y39034D01*
X61657Y38422D01*
X61514Y37700D01*
X61657Y36978D01*
X62066Y36366D01*
X62678Y35957D01*
X63400Y35814D01*
X64122Y35957D01*
X64734Y36366D01*
X65143Y36978D01*
X65286Y37700D01*
X65143Y38422D01*
X64734Y39034D01*
X64318Y39312D01*
Y44888D01*
X64734Y45166D01*
X65143Y45778D01*
X65286Y46500D01*
X65143Y47222D01*
X64734Y47834D01*
X64122Y48243D01*
X63400Y48386D01*
D02*
G37*
G36*
X180158Y36500D02*
X178464D01*
Y34805D01*
X178842Y34881D01*
X179586Y35378D01*
X180083Y36122D01*
X180158Y36500D01*
D02*
G37*
G36*
X177464D02*
X175769D01*
X175844Y36122D01*
X176342Y35378D01*
X177086Y34881D01*
X177464Y34805D01*
Y36500D01*
D02*
G37*
G36*
X178500Y31195D02*
Y29500D01*
X180195D01*
X180120Y29878D01*
X179622Y30622D01*
X178878Y31119D01*
X178500Y31195D01*
D02*
G37*
G36*
X177500D02*
X177122Y31119D01*
X176378Y30622D01*
X175881Y29878D01*
X175805Y29500D01*
X177500D01*
Y31195D01*
D02*
G37*
G36*
X32500Y33708D02*
Y28500D01*
X37708D01*
X37577Y29494D01*
X37000Y30887D01*
X36083Y32083D01*
X34887Y33000D01*
X33494Y33577D01*
X32500Y33708D01*
D02*
G37*
G36*
X31500D02*
X30506Y33577D01*
X29113Y33000D01*
X27917Y32083D01*
X27000Y30887D01*
X26423Y29494D01*
X26292Y28500D01*
X31500D01*
Y33708D01*
D02*
G37*
G36*
X180195Y28500D02*
X178500D01*
Y26805D01*
X178878Y26880D01*
X179622Y27378D01*
X180120Y28122D01*
X180195Y28500D01*
D02*
G37*
G36*
X177500D02*
X175805D01*
X175881Y28122D01*
X176378Y27378D01*
X177122Y26880D01*
X177500Y26805D01*
Y28500D01*
D02*
G37*
G36*
X80594Y27095D02*
X78900D01*
X78975Y26717D01*
X79472Y25972D01*
X80217Y25475D01*
X80594Y25400D01*
Y27095D01*
D02*
G37*
G36*
X55500Y33370D02*
X54110Y33187D01*
X52815Y32651D01*
X51703Y31797D01*
X50849Y30685D01*
X50313Y29390D01*
X50130Y28000D01*
X50313Y26610D01*
X50849Y25315D01*
X51703Y24203D01*
X52815Y23349D01*
X54110Y22813D01*
X55500Y22630D01*
X56890Y22813D01*
X58185Y23349D01*
X59297Y24203D01*
X60151Y25315D01*
X60687Y26610D01*
X60870Y28000D01*
X60687Y29390D01*
X60151Y30685D01*
X59297Y31797D01*
X58185Y32651D01*
X56890Y33187D01*
X55500Y33370D01*
D02*
G37*
G36*
X37708Y27500D02*
X32500D01*
Y22292D01*
X33494Y22423D01*
X34887Y23000D01*
X36083Y23917D01*
X37000Y25113D01*
X37577Y26506D01*
X37708Y27500D01*
D02*
G37*
G36*
X31500D02*
X26292D01*
X26423Y26506D01*
X27000Y25113D01*
X27917Y23917D01*
X29113Y23000D01*
X30506Y22423D01*
X31500Y22292D01*
Y27500D01*
D02*
G37*
G36*
X178500Y23195D02*
Y21500D01*
X180195D01*
X180120Y21878D01*
X179622Y22622D01*
X178878Y23120D01*
X178500Y23195D01*
D02*
G37*
G36*
X177500D02*
X177122Y23120D01*
X176378Y22622D01*
X175881Y21878D01*
X175805Y21500D01*
X177500D01*
Y23195D01*
D02*
G37*
G36*
X111600Y34586D02*
X110878Y34443D01*
X110266Y34034D01*
X109857Y33422D01*
X109714Y32700D01*
X109857Y31978D01*
X110266Y31366D01*
X110682Y31088D01*
Y24112D01*
X110266Y23834D01*
X109857Y23222D01*
X109714Y22500D01*
X109857Y21778D01*
X110266Y21166D01*
X110878Y20757D01*
X111600Y20614D01*
X112322Y20757D01*
X112934Y21166D01*
X113343Y21778D01*
X113486Y22500D01*
X113343Y23222D01*
X112934Y23834D01*
X112518Y24112D01*
Y31088D01*
X112934Y31366D01*
X113343Y31978D01*
X113486Y32700D01*
X113343Y33422D01*
X112934Y34034D01*
X112322Y34443D01*
X111600Y34586D01*
D02*
G37*
G36*
X67500Y22159D02*
Y20465D01*
X69195D01*
X69119Y20843D01*
X68622Y21587D01*
X67878Y22084D01*
X67500Y22159D01*
D02*
G37*
G36*
X66500D02*
X66122Y22084D01*
X65378Y21587D01*
X64881Y20843D01*
X64805Y20465D01*
X66500D01*
Y22159D01*
D02*
G37*
G36*
X180195Y20500D02*
X178500D01*
Y18805D01*
X178878Y18880D01*
X179622Y19378D01*
X180120Y20122D01*
X180195Y20500D01*
D02*
G37*
G36*
X177500D02*
X175805D01*
X175881Y20122D01*
X176378Y19378D01*
X177122Y18880D01*
X177500Y18805D01*
Y20500D01*
D02*
G37*
G36*
X69195Y19465D02*
X67500D01*
Y17770D01*
X67878Y17845D01*
X68622Y18342D01*
X69119Y19087D01*
X69195Y19465D01*
D02*
G37*
G36*
X66500D02*
X64805D01*
X64881Y19087D01*
X65378Y18342D01*
X66122Y17845D01*
X66500Y17770D01*
Y19465D01*
D02*
G37*
G36*
X178500Y15195D02*
Y13500D01*
X180195D01*
X180120Y13878D01*
X179622Y14622D01*
X178878Y15120D01*
X178500Y15195D01*
D02*
G37*
G36*
X177500D02*
X177122Y15120D01*
X176378Y14622D01*
X175881Y13878D01*
X175805Y13500D01*
X177500D01*
Y15195D01*
D02*
G37*
G36*
X180195Y12500D02*
X178500D01*
Y10805D01*
X178878Y10881D01*
X179622Y11378D01*
X180120Y12122D01*
X180195Y12500D01*
D02*
G37*
G36*
X177500D02*
X175805D01*
X175881Y12122D01*
X176378Y11378D01*
X177122Y10881D01*
X177500Y10805D01*
Y12500D01*
D02*
G37*
G36*
X70035Y7195D02*
Y5500D01*
X71730D01*
X71655Y5878D01*
X71158Y6622D01*
X70413Y7119D01*
X70035Y7195D01*
D02*
G37*
G36*
X69035D02*
X68657Y7119D01*
X67913Y6622D01*
X67416Y5878D01*
X67341Y5500D01*
X69035D01*
Y7195D01*
D02*
G37*
G36*
X103235Y7095D02*
Y5400D01*
X104930D01*
X104855Y5778D01*
X104358Y6522D01*
X103613Y7019D01*
X103235Y7095D01*
D02*
G37*
G36*
X102235D02*
X101857Y7019D01*
X101113Y6522D01*
X100616Y5778D01*
X100541Y5400D01*
X102235D01*
Y7095D01*
D02*
G37*
G36*
X81265D02*
Y5400D01*
X82959D01*
X82884Y5778D01*
X82387Y6522D01*
X81643Y7019D01*
X81265Y7095D01*
D02*
G37*
G36*
X80265D02*
X79887Y7019D01*
X79142Y6522D01*
X78645Y5778D01*
X78570Y5400D01*
X80265D01*
Y7095D01*
D02*
G37*
G36*
X43780Y14866D02*
X42390Y14683D01*
X41094Y14147D01*
X39982Y13294D01*
X39129Y12181D01*
X38592Y10886D01*
X38409Y9496D01*
X38592Y8106D01*
X39129Y6811D01*
X39982Y5699D01*
X41094Y4845D01*
X42390Y4309D01*
X43780Y4126D01*
X45169Y4309D01*
X46465Y4845D01*
X47577Y5699D01*
X48430Y6811D01*
X48967Y8106D01*
X49150Y9496D01*
X48967Y10886D01*
X48430Y12181D01*
X47577Y13294D01*
X46465Y14147D01*
X45169Y14683D01*
X43780Y14866D01*
D02*
G37*
G36*
X71730Y4500D02*
X70035D01*
Y2805D01*
X70413Y2881D01*
X71158Y3378D01*
X71655Y4122D01*
X71730Y4500D01*
D02*
G37*
G36*
X69035D02*
X67341D01*
X67416Y4122D01*
X67913Y3378D01*
X68657Y2881D01*
X69035Y2805D01*
Y4500D01*
D02*
G37*
G36*
X104930Y4400D02*
X103235D01*
Y2705D01*
X103613Y2781D01*
X104358Y3278D01*
X104855Y4022D01*
X104930Y4400D01*
D02*
G37*
G36*
X102235D02*
X100541D01*
X100616Y4022D01*
X101113Y3278D01*
X101857Y2781D01*
X102235Y2705D01*
Y4400D01*
D02*
G37*
G36*
X82959D02*
X81265D01*
Y2705D01*
X81643Y2781D01*
X82387Y3278D01*
X82884Y4022D01*
X82959Y4400D01*
D02*
G37*
G36*
X80265D02*
X78570D01*
X78645Y4022D01*
X79142Y3278D01*
X79887Y2781D01*
X80265Y2705D01*
Y4400D01*
D02*
G37*
%LPD*%
G36*
X97557Y40499D02*
X97575Y40383D01*
X97347Y40154D01*
X96993Y39624D01*
X96869Y39000D01*
Y29176D01*
X95639Y27946D01*
X95097Y28111D01*
X95025Y28472D01*
X94528Y29217D01*
X94384Y29313D01*
Y29813D01*
X94528Y29909D01*
X95025Y30654D01*
X95100Y31032D01*
X92905D01*
Y32032D01*
X95100D01*
X95025Y32409D01*
X94528Y33154D01*
X94384Y33250D01*
Y33750D01*
X94528Y33846D01*
X95025Y34591D01*
X95100Y34969D01*
X92905D01*
Y35969D01*
X95100D01*
X95025Y36346D01*
X94528Y37091D01*
X94384Y37187D01*
Y37687D01*
X94528Y37783D01*
X95025Y38528D01*
X95100Y38906D01*
X92905D01*
Y39906D01*
X95100D01*
X95025Y40283D01*
X94929Y40428D01*
X95164Y40869D01*
X97355D01*
X97557Y40499D01*
D02*
G37*
D13*
X91000Y48400D02*
X95000D01*
D14*
X164200Y26700D02*
X165000Y25900D01*
X160427Y31727D02*
X160500D01*
X154772Y26072D02*
X160427Y31727D01*
X164900Y25800D02*
X165000Y25900D01*
X164700Y27200D02*
Y32000D01*
X164200Y26700D02*
X164700Y27200D01*
X104000Y112400D02*
Y116477D01*
X110923Y123400D01*
X89100Y71000D02*
X101700D01*
X85300Y67200D02*
X89100Y71000D01*
X71497Y73503D02*
X95800D01*
X79700Y76800D02*
X92300D01*
X73500Y83000D02*
X79700Y76800D01*
X65200Y79800D02*
X71497Y73503D01*
X63400Y37700D02*
Y46500D01*
X111600Y22500D02*
Y32700D01*
X111700Y32600D01*
X82800Y118900D02*
Y124800D01*
X80300Y127300D02*
X82800Y124800D01*
D16*
X0Y0D02*
X190000D01*
Y180000D01*
X95000D02*
X190000D01*
X80000Y195000D02*
X95000Y180000D01*
X0Y195000D02*
X80000D01*
X0Y0D02*
Y195000D01*
D17*
X38941Y128425D02*
Y131575D01*
X31461D02*
X38941D01*
X31461Y128425D02*
Y131575D01*
Y128425D02*
X38941D01*
X20240Y157559D02*
Y160709D01*
X12760D02*
X20240D01*
X12760Y157559D02*
Y160709D01*
Y157559D02*
X20240D01*
X38941D02*
Y160709D01*
X31461D02*
X38941D01*
X31461Y157559D02*
Y160709D01*
Y157559D02*
X38941D01*
X20240Y128425D02*
Y131575D01*
X12760D02*
X20240D01*
X12760Y128425D02*
Y131575D01*
Y128425D02*
X20240D01*
D66*
X159550Y35450D02*
X168343D01*
X156300Y32200D02*
X159550Y35450D01*
X155300Y32200D02*
X156300D01*
X168343Y35450D02*
X169893Y37000D01*
X167265Y42300D02*
X169865Y44900D01*
X155800Y42300D02*
X167265D01*
X154200Y43900D02*
X155800Y42300D01*
X118200Y50100D02*
X152100D01*
X112000Y56300D02*
X118200Y50100D01*
X90400Y56300D02*
X112000D01*
X121400Y38900D02*
Y42430D01*
X110445Y53385D02*
X121400Y42430D01*
X99985Y53385D02*
X110445D01*
X95000Y48400D02*
X99985Y53385D01*
X6500Y78000D02*
X16000D01*
X18800Y80800D01*
X154200Y43900D02*
Y48000D01*
X152100Y50100D02*
X154200Y48000D01*
X86151Y52052D02*
X90400Y56300D01*
X86151Y48151D02*
Y52052D01*
X101600Y46600D02*
X113065D01*
X114265Y45400D01*
X114400D01*
X161000D02*
X170204Y54604D01*
Y55304D01*
X170300Y55400D01*
X59900Y76800D02*
Y85900D01*
X2200Y102831D02*
Y115100D01*
X9600Y122500D01*
X97500Y42500D02*
X101600Y46600D01*
X79800Y42500D02*
X97500D01*
X71700Y34400D02*
X79800Y42500D01*
X20400Y72900D02*
X21800Y74300D01*
X27700D01*
X68100Y37800D02*
Y46500D01*
X71700Y21900D02*
Y34400D01*
X120923Y129626D02*
Y139677D01*
X98923Y129526D02*
Y139577D01*
X101400Y60100D02*
X104900Y63600D01*
X98500Y39000D02*
X101965Y42465D01*
X106600D01*
X98500Y28500D02*
Y39000D01*
X91750Y21750D02*
X98500Y28500D01*
X91750Y18050D02*
Y21750D01*
Y4900D02*
X94665D01*
X88835D02*
X91750D01*
Y18050D01*
X71700Y21900D02*
X72500Y21100D01*
X19200Y108400D02*
X26400D01*
X30750Y112750D01*
D67*
X38744Y150866D02*
D03*
Y144567D02*
D03*
Y138268D02*
D03*
X34020Y147716D02*
D03*
Y141417D02*
D03*
D68*
X16500Y159134D02*
D03*
X35201D02*
D03*
Y130000D02*
D03*
D69*
X16500D02*
D03*
D70*
X94400Y82600D02*
D03*
X84400D02*
D03*
X94400Y92600D02*
D03*
X84400D02*
D03*
X94400Y102600D02*
D03*
X84400D02*
D03*
D71*
X55500Y28000D02*
D03*
X32000D02*
D03*
X43780Y9496D02*
D03*
D72*
X92905Y27595D02*
D03*
X88968D02*
D03*
X85031D02*
D03*
X81094D02*
D03*
Y31532D02*
D03*
X92905D02*
D03*
Y35469D02*
D03*
Y39406D02*
D03*
X88968D02*
D03*
X85031D02*
D03*
X81094D02*
D03*
Y35469D02*
D03*
X88968Y31532D02*
D03*
X85031D02*
D03*
X88968Y35469D02*
D03*
X85031D02*
D03*
X91000Y48400D02*
D03*
X121400Y38900D02*
D03*
X114400Y45400D02*
D03*
X159900Y38300D02*
D03*
X169865Y44900D02*
D03*
X177935D02*
D03*
X59900Y85900D02*
D03*
Y76800D02*
D03*
X54100Y73900D02*
D03*
X18800Y80800D02*
D03*
X6500Y78000D02*
D03*
X177964Y37000D02*
D03*
X2200Y102700D02*
D03*
X155300Y32200D02*
D03*
X160500Y31727D02*
D03*
X164900Y25800D02*
D03*
X154772Y26072D02*
D03*
X164700Y32000D02*
D03*
X169893Y37000D02*
D03*
X174000Y67000D02*
D03*
X170300Y55400D02*
D03*
X161000Y45400D02*
D03*
X86151Y48151D02*
D03*
X104000Y112400D02*
D03*
X110923Y123400D02*
D03*
X106600Y50535D02*
D03*
X9600Y122500D02*
D03*
X20400Y72900D02*
D03*
X27700Y74300D02*
D03*
X101700Y71000D02*
D03*
X92300Y76800D02*
D03*
X95800Y73503D02*
D03*
X85300Y67200D02*
D03*
X63400Y46500D02*
D03*
Y37700D02*
D03*
X68100Y46500D02*
D03*
Y37800D02*
D03*
X71700Y34400D02*
D03*
X111600Y22500D02*
D03*
X75200Y53700D02*
D03*
X53200Y57400D02*
D03*
X64900Y65700D02*
D03*
X65000Y72900D02*
D03*
X65200Y79800D02*
D03*
X82800Y118900D02*
D03*
X80300Y127300D02*
D03*
X110923Y158526D02*
D03*
X120923Y139677D02*
D03*
X98923Y139577D02*
D03*
X73026Y188177D02*
D03*
X44026D02*
D03*
X34826D02*
D03*
X5826D02*
D03*
X132923Y158626D02*
D03*
X154323Y158826D02*
D03*
Y129826D02*
D03*
X132923Y129626D02*
D03*
X110923Y129526D02*
D03*
X120923Y129626D02*
D03*
X98923Y129526D02*
D03*
X73500Y83000D02*
D03*
X56100Y94900D02*
D03*
X104900Y63600D02*
D03*
X101400Y60100D02*
D03*
X106600Y42465D02*
D03*
X91750Y18050D02*
D03*
X88835Y4900D02*
D03*
X94665D02*
D03*
X72500Y21100D02*
D03*
X19200Y108400D02*
D03*
X30750Y112750D02*
D03*
X111600Y32700D02*
D03*
X178000Y13000D02*
D03*
Y21000D02*
D03*
Y29000D02*
D03*
X69535Y5000D02*
D03*
X92800Y60435D02*
D03*
X84700Y60371D02*
D03*
X126900Y38300D02*
D03*
X137900D02*
D03*
X148900D02*
D03*
X115900D02*
D03*
X102735Y4900D02*
D03*
X80765D02*
D03*
X67000Y19965D02*
D03*
X56000Y87000D02*
D03*
X24500Y52400D02*
D03*
Y57400D02*
D03*
Y62400D02*
D03*
Y67300D02*
D03*
X52000Y141600D02*
D03*
X34100Y90543D02*
D03*
X34000Y98220D02*
D03*
X34100Y111016D02*
D03*
X19200Y100779D02*
D03*
D73*
X179800Y2200D02*
D03*
X175000D02*
D03*
X169965D02*
D03*
M02*
