G04*
G04 #@! TF.GenerationSoftware,Altium Limited,Altium Designer,19.1.8 (144)*
G04*
G04 Layer_Color=32896*
%FSLAX25Y25*%
%MOIN*%
G70*
G01*
G75*
%ADD12C,0.00500*%
%ADD14C,0.00600*%
%ADD16C,0.00050*%
%ADD17C,0.00000*%
%ADD74C,0.00400*%
G36*
X74492Y146560D02*
X61491D01*
Y150292D01*
X74492D01*
Y146560D01*
D02*
G37*
G36*
Y161660D02*
X61494D01*
Y165408D01*
X74492D01*
Y161660D01*
D02*
G37*
D12*
X39925Y129409D02*
Y159724D01*
X1146D02*
X39925D01*
X1146Y129409D02*
Y159724D01*
Y129409D02*
X39925D01*
Y159724D01*
X1146D02*
X39925D01*
X1146Y129409D02*
Y159724D01*
Y129409D02*
X39925D01*
D14*
X62400Y101900D02*
Y107900D01*
X50600D02*
X62400D01*
X50600Y101900D02*
Y107900D01*
Y101900D02*
X62400D01*
Y107900D01*
X50600Y101900D02*
Y107900D01*
X62400Y110400D02*
Y116400D01*
X50600D02*
X62400D01*
X50600Y110400D02*
Y116400D01*
Y110400D02*
X62400D01*
Y116400D01*
X50600Y110400D02*
Y116400D01*
X156900Y50100D02*
X162900D01*
X156900Y38300D02*
Y50100D01*
Y38300D02*
X162900D01*
Y50100D01*
X156900D02*
X162900D01*
X156900Y38300D02*
X162900D01*
X145900Y50100D02*
X151900D01*
X145900Y38300D02*
Y50100D01*
Y38300D02*
X151900D01*
Y50100D01*
X145900D02*
X151900D01*
X145900Y38300D02*
X151900D01*
X134900Y50100D02*
X140900D01*
X134900Y38300D02*
Y50100D01*
Y38300D02*
X140900D01*
Y50100D01*
X134900D02*
X140900D01*
X134900Y38300D02*
X140900D01*
X123900Y50100D02*
X129900D01*
X123900Y38300D02*
Y50100D01*
Y38300D02*
X129900D01*
Y50100D01*
X123900D02*
X129900D01*
X123900Y38300D02*
X129900D01*
X112900Y50100D02*
X118900D01*
X112900Y38300D02*
Y50100D01*
Y38300D02*
X118900D01*
Y50100D01*
X112900D02*
X118900D01*
X112900Y38300D02*
X118900D01*
X71500Y64600D02*
X77500D01*
Y76400D01*
X71500D02*
X77500D01*
X71500Y64600D02*
Y76400D01*
Y64600D02*
X77500D01*
X71500Y76400D02*
X77500D01*
D16*
X0Y0D02*
X190000D01*
Y180000D01*
X95000D02*
X190000D01*
X80000Y195000D02*
X95000Y180000D01*
X0Y195000D02*
X80000D01*
X0Y0D02*
Y195000D01*
D17*
X38941Y128425D02*
Y131575D01*
X31461D02*
X38941D01*
X31461Y128425D02*
Y131575D01*
Y128425D02*
X38941D01*
X20240Y157559D02*
Y160709D01*
X12760D02*
X20240D01*
X12760Y157559D02*
Y160709D01*
Y157559D02*
X20240D01*
X38941D02*
Y160709D01*
X31461D02*
X38941D01*
X31461Y157559D02*
Y160709D01*
Y157559D02*
X38941D01*
X20240Y128425D02*
Y131575D01*
X12760D02*
X20240D01*
X12760Y128425D02*
Y131575D01*
Y128425D02*
X20240D01*
D74*
X74300Y150200D02*
Y161800D01*
X61700Y150200D02*
Y161700D01*
X74300Y150200D02*
Y161800D01*
X61700Y150200D02*
Y161700D01*
M02*
