M48
;Layer_Color=9474304
;FILE_FORMAT=2:5
INCH,LZ
;TYPE=PLATED
T1F00S00C0.00787
T2F00S00C0.00800
T3F00S00C0.01300
T4F00S00C0.02500
T5F00S00C0.02756
T6F00S00C0.04331
T7F00S00C0.06299
T8F00S00C0.08000
%
T01
X0081094Y0027595
X0085031
X0088968
X0092905
Y0031532
Y0035469
Y0039406
X0088968
X0085031
X0081094
Y0035469
Y0031532
X0085031
X0088968
Y0035469
X0085031
T02
X0104Y01124
X0110923Y01234
T03
X00245Y00524
X00634Y00465
X00681
Y00378
X00634Y00377
X00717Y00344
X00725Y00211
X0067Y0019965
X0069535Y0005
X0080765Y00049
X0088835
X0094665
X0102735
X009175Y001805
X01116Y00225
Y00327
X01159Y00383
X01214Y00389
X01269Y00383
X01379
X01489
X01599
X01605Y0031727
X01647Y0032
X01649Y00258
X0154772Y0026072
X01553Y00322
X0161Y00454
X0169865Y00449
X0169893Y0037
X0177964
X0177935Y00449
X0178Y0029
Y0021
Y0013
X01703Y00554
X01144Y00454
X01066Y0042465
Y0050535
X0091Y00484
X0086151Y0048151
X00752Y00537
X00847Y0060371
X00853Y00672
X00928Y0060435
X01014Y00601
X01049Y00636
X01017Y0071
X00958Y0073503
X00923Y00768
X00735Y0083
X00652Y00798
X0065Y00729
X00649Y00657
X00599Y00768
Y00859
X00828Y01189
X00803Y01273
X0098923Y0129526
Y0139577
X0110923Y0129526
X0120923Y0129626
Y0139677
X0132923Y0129626
X0154323Y0129826
Y0158826
X0132923Y0158626
X0110923Y0158526
X0073026Y0188177
X0174Y0067
X00541Y00739
X0056Y0087
X00561Y00949
X0034Y009822
X00341Y0090543
Y0111016
X003075Y011275
X00192Y01084
Y0100779
X00022Y01027
X00096Y01225
X00065Y0078
X00188Y00808
X00204Y00729
X00277Y00743
X00245Y00673
Y00624
Y00574
X00532
X0052Y01416
X0044026Y0188177
X0034826
X0005826
T04
X0169965Y00022
X0175
X01798
T05
X003402Y0141417
Y0147716
X0038744Y0150866
Y0144567
Y0138268
T06
X00844Y00826
Y00926
Y01026
X00944
Y00926
Y00826
T07
X004378Y0009496
X00555Y0028
X0032
T08
X00165Y013
X0035201
Y0159134
X00165
M30
