G04*
G04 #@! TF.GenerationSoftware,Altium Limited,Altium Designer,19.1.8 (144)*
G04*
G04 Layer_Color=65535*
%FSLAX25Y25*%
%MOIN*%
G70*
G01*
G75*
%ADD10C,0.00984*%
%ADD11C,0.00787*%
%ADD12C,0.00500*%
%ADD13C,0.01000*%
%ADD14C,0.00600*%
%ADD15C,0.00700*%
%ADD16C,0.00050*%
%ADD17C,0.00000*%
D10*
X72236Y45606D02*
G03*
X72236Y45606I-492J0D01*
G01*
X13017Y119185D02*
G03*
X13017Y119185I-492J0D01*
G01*
X40020Y49053D02*
G03*
X40020Y49053I-492J0D01*
G01*
X108046Y75295D02*
G03*
X108046Y75295I-492J0D01*
G01*
X45602Y145685D02*
G03*
X45602Y145685I-492J0D01*
G01*
D11*
X74303Y20803D02*
X76370D01*
X74303D02*
Y22870D01*
X97630Y20803D02*
X99697D01*
Y22870D01*
Y44130D02*
Y46197D01*
X97630D02*
X99697D01*
X74303D02*
X76370D01*
X74303Y44130D02*
Y46197D01*
X17151Y78831D02*
Y120169D01*
X36049Y78831D02*
Y120169D01*
X17151D02*
X36049D01*
X17151Y78831D02*
X36049D01*
X47000Y101400D02*
Y108400D01*
Y109900D02*
Y116900D01*
X156400Y34700D02*
X163400D01*
X145400D02*
X152400D01*
X134400D02*
X141400D01*
X123400D02*
X130400D01*
X112400D02*
X119400D01*
X71000Y80000D02*
X78000D01*
X109061Y45713D02*
Y47287D01*
X104139Y45713D02*
Y47287D01*
X64539Y23213D02*
Y24787D01*
X69461Y23213D02*
Y24787D01*
X95261Y55613D02*
Y57187D01*
X90339Y55613D02*
Y57187D01*
X173113Y47361D02*
X174687D01*
X173113Y42439D02*
X174687D01*
X173141Y39461D02*
X174716D01*
X173141Y34539D02*
X174716D01*
X173213Y31461D02*
X174787D01*
X173213Y26539D02*
X174787D01*
X173213Y23461D02*
X174787D01*
X173213Y18539D02*
X174787D01*
X173213Y15461D02*
X174787D01*
X173213Y10539D02*
X174787D01*
X97913Y2439D02*
X99487D01*
X97913Y7361D02*
X99487D01*
X84013D02*
X85587D01*
X84013Y2439D02*
X85587D01*
X87161Y55548D02*
Y57123D01*
X82239Y55548D02*
Y57123D01*
X64713Y7461D02*
X66287D01*
X64713Y2539D02*
X66287D01*
X35099Y50058D02*
Y69743D01*
X22501Y50058D02*
Y69743D01*
Y50058D02*
X35099D01*
X22501Y69743D02*
X35099D01*
X108203Y80511D02*
X158597D01*
X108203Y106889D02*
X158597D01*
X108203Y80511D02*
Y106889D01*
X158597Y80511D02*
Y106889D01*
X58102Y149228D02*
Y152772D01*
X45898Y149228D02*
Y152772D01*
X58102D01*
X45898Y149228D02*
X58102D01*
D12*
X39925Y153779D02*
Y156575D01*
Y132520D02*
Y135394D01*
X22681Y159724D02*
X29020D01*
X22681Y129409D02*
X29020D01*
X1146Y159724D02*
X10240D01*
X1146Y129409D02*
Y159724D01*
Y129409D02*
X10240D01*
X51063Y10283D02*
X58346D01*
Y22291D01*
X1654Y10283D02*
Y45717D01*
X58346D01*
Y34102D02*
Y45717D01*
X1654Y10283D02*
X36890D01*
D13*
X79400Y107600D02*
X99400D01*
X79400Y77600D02*
Y107600D01*
X89400Y87600D02*
X99400D01*
X89400Y77600D02*
Y87600D01*
X99400Y80100D02*
Y107600D01*
X96900Y77600D02*
X99400Y80100D01*
X79400Y77600D02*
X96900D01*
X31969Y28000D02*
X32000D01*
X181602Y85700D02*
X186600D01*
X184101D01*
Y89032D01*
X181602D01*
X186600D01*
Y91531D02*
Y93198D01*
X185767Y94031D01*
X184101D01*
X183268Y93198D01*
Y91531D01*
X184101Y90698D01*
X185767D01*
X186600Y91531D01*
Y95697D02*
Y97363D01*
Y96530D01*
X181602D01*
Y95697D01*
Y103194D02*
X186600D01*
Y100695D01*
X185767Y99862D01*
X184101D01*
X183268Y100695D01*
Y103194D01*
X181602Y113191D02*
Y109859D01*
X184101D01*
Y111525D01*
Y109859D01*
X186600D01*
X183268Y115690D02*
Y117356D01*
X184101Y118190D01*
X186600D01*
Y115690D01*
X185767Y114857D01*
X184934Y115690D01*
Y118190D01*
X183268Y123188D02*
Y120689D01*
X184101Y119856D01*
X185767D01*
X186600Y120689D01*
Y123188D01*
Y124854D02*
Y126520D01*
Y125687D01*
X183268D01*
Y124854D01*
X186600Y129019D02*
X183268D01*
Y131518D01*
X184101Y132352D01*
X186600D01*
X188266Y135684D02*
Y136517D01*
X187433Y137350D01*
X183268D01*
Y134851D01*
X184101Y134018D01*
X185767D01*
X186600Y134851D01*
Y137350D01*
X182435Y147347D02*
X181602Y146514D01*
Y144848D01*
X182435Y144014D01*
X185767D01*
X186600Y144848D01*
Y146514D01*
X185767Y147347D01*
X183268Y149846D02*
Y151512D01*
X184101Y152345D01*
X186600D01*
Y149846D01*
X185767Y149013D01*
X184934Y149846D01*
Y152345D01*
X181602Y154011D02*
X186600D01*
Y156510D01*
X185767Y157343D01*
X184934D01*
X184101D01*
X183268Y156510D01*
Y154011D01*
X186600Y159010D02*
Y160676D01*
Y159843D01*
X181602D01*
Y159010D01*
X186600Y163175D02*
Y164841D01*
Y164008D01*
X183268D01*
Y163175D01*
X186600Y167340D02*
X183268D01*
Y169839D01*
X184101Y170673D01*
X186600D01*
X188266Y174005D02*
Y174838D01*
X187433Y175671D01*
X183268D01*
Y173172D01*
X184101Y172339D01*
X185767D01*
X186600Y173172D01*
Y175671D01*
X144500Y167498D02*
X147832Y170831D01*
X151164Y167498D01*
X125498Y173000D02*
X128831Y169668D01*
X125498Y166335D01*
X106002Y166000D02*
X102669Y169332D01*
X106002Y172664D01*
X157502Y8500D02*
X160834D01*
X162500Y10166D01*
X160834Y11832D01*
X157502D01*
Y13498D02*
X162500D01*
Y16831D01*
X157502Y18497D02*
X162500D01*
Y20996D01*
X161667Y21829D01*
X158335D01*
X157502Y20996D01*
Y18497D01*
Y25994D02*
Y24328D01*
X158335Y23495D01*
X161667D01*
X162500Y24328D01*
Y25994D01*
X161667Y26827D01*
X158335D01*
X157502Y25994D01*
X162500Y31826D02*
Y28493D01*
X159168Y31826D01*
X158335D01*
X157502Y30993D01*
Y29327D01*
X158335Y28493D01*
X146502Y10500D02*
X149834D01*
X151500Y12166D01*
X149834Y13832D01*
X146502D01*
Y15498D02*
X151500D01*
Y18831D01*
X146502Y20497D02*
X151500D01*
Y22996D01*
X150667Y23829D01*
X147335D01*
X146502Y22996D01*
Y20497D01*
Y27994D02*
Y26328D01*
X147335Y25495D01*
X150667D01*
X151500Y26328D01*
Y27994D01*
X150667Y28827D01*
X147335D01*
X146502Y27994D01*
X151500Y30494D02*
Y32160D01*
Y31327D01*
X146502D01*
X147335Y30494D01*
X135502Y4000D02*
X138834D01*
X140500Y5666D01*
X138834Y7332D01*
X135502D01*
Y8998D02*
X140500D01*
Y11498D01*
X139667Y12331D01*
X136335D01*
X135502Y11498D01*
Y8998D01*
X136335Y17329D02*
X135502Y16496D01*
Y14830D01*
X136335Y13997D01*
X139667D01*
X140500Y14830D01*
Y16496D01*
X139667Y17329D01*
X135502Y18995D02*
X140500D01*
Y21494D01*
X139667Y22327D01*
X136335D01*
X135502Y21494D01*
Y18995D01*
X136335Y27326D02*
X135502Y26493D01*
Y24827D01*
X136335Y23993D01*
X139667D01*
X140500Y24827D01*
Y26493D01*
X139667Y27326D01*
X136335Y28992D02*
X135502Y29825D01*
Y31491D01*
X136335Y32324D01*
X137168D01*
X138001Y31491D01*
Y30658D01*
Y31491D01*
X138834Y32324D01*
X139667D01*
X140500Y31491D01*
Y29825D01*
X139667Y28992D01*
X124502Y4000D02*
X127834D01*
X129500Y5666D01*
X127834Y7332D01*
X124502D01*
Y8998D02*
X129500D01*
Y11498D01*
X128667Y12331D01*
X125335D01*
X124502Y11498D01*
Y8998D01*
X125335Y17329D02*
X124502Y16496D01*
Y14830D01*
X125335Y13997D01*
X128667D01*
X129500Y14830D01*
Y16496D01*
X128667Y17329D01*
X124502Y18995D02*
X129500D01*
Y21494D01*
X128667Y22327D01*
X125335D01*
X124502Y21494D01*
Y18995D01*
X125335Y27326D02*
X124502Y26493D01*
Y24827D01*
X125335Y23993D01*
X128667D01*
X129500Y24827D01*
Y26493D01*
X128667Y27326D01*
X129500Y32324D02*
Y28992D01*
X126168Y32324D01*
X125335D01*
X124502Y31491D01*
Y29825D01*
X125335Y28992D01*
X113502Y6000D02*
X116834D01*
X118500Y7666D01*
X116834Y9332D01*
X113502D01*
Y10998D02*
X118500D01*
Y13498D01*
X117667Y14331D01*
X114335D01*
X113502Y13498D01*
Y10998D01*
X114335Y19329D02*
X113502Y18496D01*
Y16830D01*
X114335Y15997D01*
X117667D01*
X118500Y16830D01*
Y18496D01*
X117667Y19329D01*
X113502Y20995D02*
X118500D01*
Y23494D01*
X117667Y24327D01*
X114335D01*
X113502Y23494D01*
Y20995D01*
X114335Y29326D02*
X113502Y28493D01*
Y26827D01*
X114335Y25993D01*
X117667D01*
X118500Y26827D01*
Y28493D01*
X117667Y29326D01*
X118500Y30992D02*
Y32658D01*
Y31825D01*
X113502D01*
X114335Y30992D01*
D14*
X54000Y101900D02*
X59000D01*
X54000Y107900D02*
X59000D01*
X54000Y110400D02*
X59000D01*
X54000Y116400D02*
X59000D01*
X162900Y41700D02*
Y46700D01*
X156900Y41700D02*
Y46700D01*
X151900Y41700D02*
Y46700D01*
X145900Y41700D02*
Y46700D01*
X140900Y41700D02*
Y46700D01*
X134900Y41700D02*
Y46700D01*
X129900Y41700D02*
Y46700D01*
X123900Y41700D02*
Y46700D01*
X118900Y41700D02*
Y46700D01*
X112900Y41700D02*
Y46700D01*
X71500Y68000D02*
Y73000D01*
X77500Y68000D02*
Y73000D01*
D15*
X175999Y4700D02*
X174000D01*
X175999Y6699D01*
Y7199D01*
X175499Y7699D01*
X174500D01*
X174000Y7199D01*
X153000Y3899D02*
Y1900D01*
X154000Y900D01*
X154999Y1900D01*
Y3899D01*
X155999D02*
Y900D01*
X157499D01*
X157998Y1400D01*
Y3399D01*
X157499Y3899D01*
X155999D01*
X160997Y3399D02*
X160498Y3899D01*
X159498D01*
X158998Y3399D01*
Y1400D01*
X159498Y900D01*
X160498D01*
X160997Y1400D01*
X161997Y3899D02*
Y900D01*
X163497D01*
X163996Y1400D01*
Y3399D01*
X163497Y3899D01*
X161997D01*
X166996Y3399D02*
X166496Y3899D01*
X165496D01*
X164996Y3399D01*
Y1400D01*
X165496Y900D01*
X166496D01*
X166996Y1400D01*
X169400Y4700D02*
X170400D01*
X169900D01*
Y7699D01*
X169400Y7199D01*
X178700D02*
X179200Y7699D01*
X180200D01*
X180699Y7199D01*
Y6699D01*
X180200Y6199D01*
X179700D01*
X180200D01*
X180699Y5700D01*
Y5200D01*
X180200Y4700D01*
X179200D01*
X178700Y5200D01*
X145200Y120500D02*
Y123499D01*
X146700D01*
X147199Y122999D01*
Y122000D01*
X146700Y121500D01*
X145200D01*
X146200D02*
X147199Y120500D01*
X148199D02*
X149199D01*
X148699D01*
Y123499D01*
X148199Y122999D01*
X150698D02*
X151198Y123499D01*
X152198D01*
X152698Y122999D01*
Y122499D01*
X152198Y122000D01*
X152698Y121500D01*
Y121000D01*
X152198Y120500D01*
X151198D01*
X150698Y121000D01*
Y121500D01*
X151198Y122000D01*
X150698Y122499D01*
Y122999D01*
X151198Y122000D02*
X152198D01*
X123700Y120500D02*
Y123499D01*
X125199D01*
X125699Y122999D01*
Y122000D01*
X125199Y121500D01*
X123700D01*
X124700D02*
X125699Y120500D01*
X126699D02*
X127699D01*
X127199D01*
Y123499D01*
X126699Y122999D01*
X129198D02*
X129698Y123499D01*
X130698D01*
X131198Y122999D01*
Y122499D01*
X130698Y122000D01*
X130198D01*
X130698D01*
X131198Y121500D01*
Y121000D01*
X130698Y120500D01*
X129698D01*
X129198Y121000D01*
X101700Y120500D02*
Y123499D01*
X103200D01*
X103699Y122999D01*
Y122000D01*
X103200Y121500D01*
X101700D01*
X102700D02*
X103699Y120500D01*
X104699D02*
X105699D01*
X105199D01*
Y123499D01*
X104699Y122999D01*
X107198Y120500D02*
X108198D01*
X107698D01*
Y123499D01*
X107198Y122999D01*
X66500Y107400D02*
Y110399D01*
X68000D01*
X68499Y109899D01*
Y108899D01*
X68000Y108400D01*
X66500D01*
X67500D02*
X68499Y107400D01*
X71498D02*
X69499D01*
X71498Y109399D01*
Y109899D01*
X70999Y110399D01*
X69999D01*
X69499Y109899D01*
X73998Y107400D02*
Y110399D01*
X72498Y108899D01*
X74497D01*
X66400Y116000D02*
Y118999D01*
X67900D01*
X68399Y118499D01*
Y117499D01*
X67900Y117000D01*
X66400D01*
X67400D02*
X68399Y116000D01*
X71398D02*
X69399D01*
X71398Y117999D01*
Y118499D01*
X70899Y118999D01*
X69899D01*
X69399Y118499D01*
X72398D02*
X72898Y118999D01*
X73898D01*
X74397Y118499D01*
Y117999D01*
X73898Y117499D01*
X73398D01*
X73898D01*
X74397Y117000D01*
Y116500D01*
X73898Y116000D01*
X72898D01*
X72398Y116500D01*
X900Y121300D02*
Y124299D01*
X2400D01*
X2899Y123799D01*
Y122800D01*
X2400Y122300D01*
X900D01*
X1900D02*
X2899Y121300D01*
X5898D02*
X3899D01*
X5898Y123299D01*
Y123799D01*
X5399Y124299D01*
X4399D01*
X3899Y123799D01*
X6898Y121300D02*
X7898D01*
X7398D01*
Y124299D01*
X6898Y123799D01*
X1000Y97600D02*
Y100599D01*
X2499D01*
X2999Y100099D01*
Y99099D01*
X2499Y98600D01*
X1000D01*
X2000D02*
X2999Y97600D01*
X5998D02*
X3999D01*
X5998Y99599D01*
Y100099D01*
X5499Y100599D01*
X4499D01*
X3999Y100099D01*
X8997Y97600D02*
X6998D01*
X8997Y99599D01*
Y100099D01*
X8498Y100599D01*
X7498D01*
X6998Y100099D01*
X55500Y78000D02*
Y80999D01*
X56999D01*
X57499Y80499D01*
Y79500D01*
X56999Y79000D01*
X55500D01*
X56500D02*
X57499Y78000D01*
X60498D02*
X58499D01*
X60498Y79999D01*
Y80499D01*
X59999Y80999D01*
X58999D01*
X58499Y80499D01*
X61498D02*
X61998Y80999D01*
X62998D01*
X63497Y80499D01*
Y78500D01*
X62998Y78000D01*
X61998D01*
X61498Y78500D01*
Y80499D01*
X55500Y81500D02*
Y84499D01*
X56999D01*
X57499Y83999D01*
Y82999D01*
X56999Y82500D01*
X55500D01*
X56500D02*
X57499Y81500D01*
X58499D02*
X59499D01*
X58999D01*
Y84499D01*
X58499Y83999D01*
X60998Y82000D02*
X61498Y81500D01*
X62498D01*
X62998Y82000D01*
Y83999D01*
X62498Y84499D01*
X61498D01*
X60998Y83999D01*
Y83499D01*
X61498Y82999D01*
X62998D01*
X156200Y65500D02*
Y68499D01*
X157700D01*
X158199Y67999D01*
Y67000D01*
X157700Y66500D01*
X156200D01*
X157200D02*
X158199Y65500D01*
X159199D02*
X160199D01*
X159699D01*
Y68499D01*
X159199Y67999D01*
X161698Y68499D02*
X163698D01*
Y67999D01*
X161698Y66000D01*
Y65500D01*
X145200D02*
Y68499D01*
X146700D01*
X147199Y67999D01*
Y67000D01*
X146700Y66500D01*
X145200D01*
X146200D02*
X147199Y65500D01*
X148199D02*
X149199D01*
X148699D01*
Y68499D01*
X148199Y67999D01*
X152698Y68499D02*
X151698Y67999D01*
X150698Y67000D01*
Y66000D01*
X151198Y65500D01*
X152198D01*
X152698Y66000D01*
Y66500D01*
X152198Y67000D01*
X150698D01*
X134200Y65500D02*
Y68499D01*
X135699D01*
X136199Y67999D01*
Y67000D01*
X135699Y66500D01*
X134200D01*
X135200D02*
X136199Y65500D01*
X137199D02*
X138199D01*
X137699D01*
Y68499D01*
X137199Y67999D01*
X141698Y68499D02*
X139698D01*
Y67000D01*
X140698Y67499D01*
X141198D01*
X141698Y67000D01*
Y66000D01*
X141198Y65500D01*
X140198D01*
X139698Y66000D01*
X123200Y65500D02*
Y68499D01*
X124699D01*
X125199Y67999D01*
Y67000D01*
X124699Y66500D01*
X123200D01*
X124200D02*
X125199Y65500D01*
X126199D02*
X127199D01*
X126699D01*
Y68499D01*
X126199Y67999D01*
X130198Y65500D02*
Y68499D01*
X128698Y67000D01*
X130698D01*
X112200Y65500D02*
Y68499D01*
X113699D01*
X114199Y67999D01*
Y67000D01*
X113699Y66500D01*
X112200D01*
X113200D02*
X114199Y65500D01*
X115199D02*
X116199D01*
X115699D01*
Y68499D01*
X115199Y67999D01*
X119698Y65500D02*
X117698D01*
X119698Y67499D01*
Y67999D01*
X119198Y68499D01*
X118198D01*
X117698Y67999D01*
X47400Y69400D02*
X44401D01*
Y70899D01*
X44901Y71399D01*
X45900D01*
X46400Y70899D01*
Y69400D01*
Y70400D02*
X47400Y71399D01*
Y72399D02*
Y73399D01*
Y72899D01*
X44401D01*
X44901Y72399D01*
Y74898D02*
X44401Y75398D01*
Y76398D01*
X44901Y76898D01*
X46900D01*
X47400Y76398D01*
Y75398D01*
X46900Y74898D01*
X44901D01*
X57300Y70600D02*
Y73599D01*
X58799D01*
X59299Y73099D01*
Y72100D01*
X58799Y71600D01*
X57300D01*
X58300D02*
X59299Y70600D01*
X60299Y71100D02*
X60799Y70600D01*
X61799D01*
X62298Y71100D01*
Y73099D01*
X61799Y73599D01*
X60799D01*
X60299Y73099D01*
Y72599D01*
X60799Y72100D01*
X62298D01*
X66500Y84128D02*
X69499D01*
Y82629D01*
X68999Y82129D01*
X68000D01*
X67500Y82629D01*
Y84128D01*
Y83129D02*
X66500Y82129D01*
X68999Y81129D02*
X69499Y80629D01*
Y79630D01*
X68999Y79130D01*
X68499D01*
X68000Y79630D01*
X67500Y79130D01*
X67000D01*
X66500Y79630D01*
Y80629D01*
X67000Y81129D01*
X67500D01*
X68000Y80629D01*
X68499Y81129D01*
X68999D01*
X68000Y80629D02*
Y79630D01*
X180700Y53900D02*
Y56899D01*
X182200D01*
X182699Y56399D01*
Y55400D01*
X182200Y54900D01*
X180700D01*
X181700D02*
X182699Y53900D01*
X183699Y56899D02*
X185698D01*
Y56399D01*
X183699Y54400D01*
Y53900D01*
X180700Y57900D02*
Y60899D01*
X182200D01*
X182699Y60399D01*
Y59399D01*
X182200Y58900D01*
X180700D01*
X181700D02*
X182699Y57900D01*
X185698Y60899D02*
X184699Y60399D01*
X183699Y59399D01*
Y58400D01*
X184199Y57900D01*
X185199D01*
X185698Y58400D01*
Y58900D01*
X185199Y59399D01*
X183699D01*
X60400Y14000D02*
Y16999D01*
X61900D01*
X62399Y16499D01*
Y15499D01*
X61900Y15000D01*
X60400D01*
X61400D02*
X62399Y14000D01*
X65398Y16999D02*
X63399D01*
Y15499D01*
X64399Y15999D01*
X64899D01*
X65398Y15499D01*
Y14500D01*
X64899Y14000D01*
X63899D01*
X63399Y14500D01*
X180700Y49900D02*
Y52899D01*
X182200D01*
X182699Y52399D01*
Y51399D01*
X182200Y50900D01*
X180700D01*
X181700D02*
X182699Y49900D01*
X185199D02*
Y52899D01*
X183699Y51399D01*
X185698D01*
X60400Y10200D02*
Y13199D01*
X61900D01*
X62399Y12699D01*
Y11699D01*
X61900Y11200D01*
X60400D01*
X61400D02*
X62399Y10200D01*
X63399Y12699D02*
X63899Y13199D01*
X64899D01*
X65398Y12699D01*
Y12199D01*
X64899Y11699D01*
X64399D01*
X64899D01*
X65398Y11200D01*
Y10700D01*
X64899Y10200D01*
X63899D01*
X63399Y10700D01*
X160800Y83400D02*
Y86399D01*
X162300D01*
X162799Y85899D01*
Y84899D01*
X162300Y84400D01*
X160800D01*
X161800D02*
X162799Y83400D01*
X165798D02*
X163799D01*
X165798Y85399D01*
Y85899D01*
X165299Y86399D01*
X164299D01*
X163799Y85899D01*
X160800Y116700D02*
Y119699D01*
X162300D01*
X162799Y119199D01*
Y118200D01*
X162300Y117700D01*
X160800D01*
X161800D02*
X162799Y116700D01*
X163799D02*
X164799D01*
X164299D01*
Y119699D01*
X163799Y119199D01*
X104100Y24899D02*
Y21900D01*
X106099D01*
X107099Y24399D02*
X107599Y24899D01*
X108599D01*
X109098Y24399D01*
Y23899D01*
X108599Y23400D01*
X108099D01*
X108599D01*
X109098Y22900D01*
Y22400D01*
X108599Y21900D01*
X107599D01*
X107099Y22400D01*
X106501Y10600D02*
X109500D01*
Y12599D01*
Y15598D02*
Y13599D01*
X107501Y15598D01*
X107001D01*
X106501Y15099D01*
Y14099D01*
X107001Y13599D01*
X74101Y11000D02*
X77100D01*
Y12999D01*
Y13999D02*
Y14999D01*
Y14499D01*
X74101D01*
X74601Y13999D01*
X49199Y91799D02*
X48700Y92299D01*
X47700D01*
X47200Y91799D01*
Y89800D01*
X47700Y89300D01*
X48700D01*
X49199Y89800D01*
X52198Y89300D02*
X50199D01*
X52198Y91299D01*
Y91799D01*
X51699Y92299D01*
X50699D01*
X50199Y91799D01*
X53198Y89300D02*
X54198D01*
X53698D01*
Y92299D01*
X53198Y91799D01*
X49099Y99699D02*
X48599Y100199D01*
X47600D01*
X47100Y99699D01*
Y97700D01*
X47600Y97200D01*
X48599D01*
X49099Y97700D01*
X52098Y97200D02*
X50099D01*
X52098Y99199D01*
Y99699D01*
X51599Y100199D01*
X50599D01*
X50099Y99699D01*
X53098D02*
X53598Y100199D01*
X54598D01*
X55097Y99699D01*
Y97700D01*
X54598Y97200D01*
X53598D01*
X53098Y97700D01*
Y99699D01*
X2899Y106899D02*
X2400Y107399D01*
X1400D01*
X900Y106899D01*
Y104900D01*
X1400Y104400D01*
X2400D01*
X2899Y104900D01*
X3899Y104400D02*
X4899D01*
X4399D01*
Y107399D01*
X3899Y106899D01*
X6398Y104900D02*
X6898Y104400D01*
X7898D01*
X8398Y104900D01*
Y106899D01*
X7898Y107399D01*
X6898D01*
X6398Y106899D01*
Y106399D01*
X6898Y105900D01*
X8398D01*
X59099Y63499D02*
X58600Y63999D01*
X57600D01*
X57100Y63499D01*
Y61500D01*
X57600Y61000D01*
X58600D01*
X59099Y61500D01*
X60099Y61000D02*
X61099D01*
X60599D01*
Y63999D01*
X60099Y63499D01*
X62598D02*
X63098Y63999D01*
X64098D01*
X64598Y63499D01*
Y62999D01*
X64098Y62499D01*
X64598Y62000D01*
Y61500D01*
X64098Y61000D01*
X63098D01*
X62598Y61500D01*
Y62000D01*
X63098Y62499D01*
X62598Y62999D01*
Y63499D01*
X63098Y62499D02*
X64098D01*
X59099Y68399D02*
X58600Y68899D01*
X57600D01*
X57100Y68399D01*
Y66400D01*
X57600Y65900D01*
X58600D01*
X59099Y66400D01*
X60099Y65900D02*
X61099D01*
X60599D01*
Y68899D01*
X60099Y68399D01*
X62598Y68899D02*
X64598D01*
Y68399D01*
X62598Y66400D01*
Y65900D01*
X59099Y58599D02*
X58600Y59099D01*
X57600D01*
X57100Y58599D01*
Y56600D01*
X57600Y56100D01*
X58600D01*
X59099Y56600D01*
X60099Y56100D02*
X61099D01*
X60599D01*
Y59099D01*
X60099Y58599D01*
X64598Y59099D02*
X63598Y58599D01*
X62598Y57600D01*
Y56600D01*
X63098Y56100D01*
X64098D01*
X64598Y56600D01*
Y57100D01*
X64098Y57600D01*
X62598D01*
X68999Y59833D02*
X69499Y60333D01*
Y61332D01*
X68999Y61832D01*
X67000D01*
X66500Y61332D01*
Y60333D01*
X67000Y59833D01*
X66500Y58833D02*
Y57834D01*
Y58333D01*
X69499D01*
X68999Y58833D01*
X69499Y54335D02*
Y56334D01*
X68000D01*
X68499Y55334D01*
Y54835D01*
X68000Y54335D01*
X67000D01*
X66500Y54835D01*
Y55834D01*
X67000Y56334D01*
X182699Y64399D02*
X182200Y64899D01*
X181200D01*
X180700Y64399D01*
Y62400D01*
X181200Y61900D01*
X182200D01*
X182699Y62400D01*
X183699Y61900D02*
X184699D01*
X184199D01*
Y64899D01*
X183699Y64399D01*
X187698Y61900D02*
Y64899D01*
X186198Y63399D01*
X188198D01*
X183399Y45899D02*
X182899Y46399D01*
X181900D01*
X181400Y45899D01*
Y43900D01*
X181900Y43400D01*
X182899D01*
X183399Y43900D01*
X184399Y43400D02*
X185399D01*
X184899D01*
Y46399D01*
X184399Y45899D01*
X186898D02*
X187398Y46399D01*
X188398D01*
X188898Y45899D01*
Y45399D01*
X188398Y44899D01*
X187898D01*
X188398D01*
X188898Y44400D01*
Y43900D01*
X188398Y43400D01*
X187398D01*
X186898Y43900D01*
X91399Y66399D02*
X90899Y66899D01*
X89900D01*
X89400Y66399D01*
Y64400D01*
X89900Y63900D01*
X90899D01*
X91399Y64400D01*
X92399Y63900D02*
X93399D01*
X92899D01*
Y66899D01*
X92399Y66399D01*
X96898Y63900D02*
X94898D01*
X96898Y65899D01*
Y66399D01*
X96398Y66899D01*
X95398D01*
X94898Y66399D01*
X183428Y37999D02*
X182928Y38499D01*
X181928D01*
X181428Y37999D01*
Y36000D01*
X181928Y35500D01*
X182928D01*
X183428Y36000D01*
X184427Y35500D02*
X185427D01*
X184927D01*
Y38499D01*
X184427Y37999D01*
X186927Y35500D02*
X187926D01*
X187426D01*
Y38499D01*
X186927Y37999D01*
X104899Y56499D02*
X104400Y56999D01*
X103400D01*
X102900Y56499D01*
Y54500D01*
X103400Y54000D01*
X104400D01*
X104899Y54500D01*
X105899Y54000D02*
X106899D01*
X106399D01*
Y56999D01*
X105899Y56499D01*
X108398D02*
X108898Y56999D01*
X109898D01*
X110398Y56499D01*
Y54500D01*
X109898Y54000D01*
X108898D01*
X108398Y54500D01*
Y56499D01*
X183499Y29999D02*
X183000Y30499D01*
X182000D01*
X181500Y29999D01*
Y28000D01*
X182000Y27500D01*
X183000D01*
X183499Y28000D01*
X184499D02*
X184999Y27500D01*
X185999D01*
X186498Y28000D01*
Y29999D01*
X185999Y30499D01*
X184999D01*
X184499Y29999D01*
Y29499D01*
X184999Y29000D01*
X186498D01*
X106501Y4499D02*
X106001Y3999D01*
Y3000D01*
X106501Y2500D01*
X108500D01*
X109000Y3000D01*
Y3999D01*
X108500Y4499D01*
X106501Y5499D02*
X106001Y5999D01*
Y6999D01*
X106501Y7498D01*
X107001D01*
X107501Y6999D01*
X108000Y7498D01*
X108500D01*
X109000Y6999D01*
Y5999D01*
X108500Y5499D01*
X108000D01*
X107501Y5999D01*
X107001Y5499D01*
X106501D01*
X107501Y5999D02*
Y6999D01*
X75001Y4399D02*
X74501Y3900D01*
Y2900D01*
X75001Y2400D01*
X77000D01*
X77500Y2900D01*
Y3900D01*
X77000Y4399D01*
X74501Y5399D02*
Y7398D01*
X75001D01*
X77000Y5399D01*
X77500D01*
X183499Y21999D02*
X183000Y22499D01*
X182000D01*
X181500Y21999D01*
Y20000D01*
X182000Y19500D01*
X183000D01*
X183499Y20000D01*
X186498Y22499D02*
X185499Y21999D01*
X184499Y21000D01*
Y20000D01*
X184999Y19500D01*
X185999D01*
X186498Y20000D01*
Y20500D01*
X185999Y21000D01*
X184499D01*
X183499Y13999D02*
X183000Y14499D01*
X182000D01*
X181500Y13999D01*
Y12000D01*
X182000Y11500D01*
X183000D01*
X183499Y12000D01*
X186498Y14499D02*
X184499D01*
Y13000D01*
X185499Y13499D01*
X185999D01*
X186498Y13000D01*
Y12000D01*
X185999Y11500D01*
X184999D01*
X184499Y12000D01*
X84399Y66335D02*
X83899Y66834D01*
X82900D01*
X82400Y66335D01*
Y64335D01*
X82900Y63835D01*
X83899D01*
X84399Y64335D01*
X86899Y63835D02*
Y66834D01*
X85399Y65335D01*
X87398D01*
X77299Y59099D02*
X76799Y59599D01*
X75800D01*
X75300Y59099D01*
Y57100D01*
X75800Y56600D01*
X76799D01*
X77299Y57100D01*
X78299Y59099D02*
X78799Y59599D01*
X79799D01*
X80298Y59099D01*
Y58599D01*
X79799Y58100D01*
X79299D01*
X79799D01*
X80298Y57600D01*
Y57100D01*
X79799Y56600D01*
X78799D01*
X78299Y57100D01*
X52999Y5999D02*
X52500Y6499D01*
X51500D01*
X51000Y5999D01*
Y4000D01*
X51500Y3500D01*
X52500D01*
X52999Y4000D01*
X55998Y3500D02*
X53999D01*
X55998Y5499D01*
Y5999D01*
X55499Y6499D01*
X54499D01*
X53999Y5999D01*
X65899Y33599D02*
X65399Y34099D01*
X64400D01*
X63900Y33599D01*
Y31600D01*
X64400Y31100D01*
X65399D01*
X65899Y31600D01*
X66899Y31100D02*
X67899D01*
X67399D01*
Y34099D01*
X66899Y33599D01*
D16*
X0Y0D02*
X190000D01*
Y180000D01*
X95000D02*
X190000D01*
X80000Y195000D02*
X95000Y180000D01*
X0Y195000D02*
X80000D01*
X0Y0D02*
Y195000D01*
D17*
X38941Y128425D02*
Y131575D01*
X31461D02*
X38941D01*
X31461Y128425D02*
Y131575D01*
Y128425D02*
X38941D01*
X20240Y157559D02*
Y160709D01*
X12760D02*
X20240D01*
X12760Y157559D02*
Y160709D01*
Y157559D02*
X20240D01*
X38941D02*
Y160709D01*
X31461D02*
X38941D01*
X31461Y157559D02*
Y160709D01*
Y157559D02*
X38941D01*
X20240Y128425D02*
Y131575D01*
X12760D02*
X20240D01*
X12760Y128425D02*
Y131575D01*
Y128425D02*
X20240D01*
M02*
