G04*
G04 #@! TF.GenerationSoftware,Altium Limited,Altium Designer,19.1.8 (144)*
G04*
G04 Layer_Physical_Order=1*
G04 Layer_Color=255*
%FSLAX25Y25*%
%MOIN*%
G70*
G01*
G75*
%ADD12C,0.00600*%
%ADD14C,0.01000*%
%ADD16C,0.00000*%
%ADD17R,0.02165X0.02165*%
%ADD18R,0.05709X0.03543*%
%ADD19R,0.02165X0.02165*%
%ADD20R,0.02598X0.02441*%
%ADD21R,0.03543X0.05709*%
%ADD22R,0.02441X0.02598*%
%ADD23R,0.04606X0.05787*%
%ADD24R,0.05787X0.04606*%
%ADD25R,0.05500X0.06300*%
%ADD26R,0.06300X0.05500*%
%ADD27R,0.15945X0.15945*%
%ADD28O,0.00787X0.03347*%
%ADD29O,0.03347X0.00787*%
%ADD30R,0.07480X0.06693*%
%ADD31O,0.05709X0.02362*%
%ADD32R,0.06693X0.07480*%
%ADD33O,0.06102X0.01968*%
%ADD34R,0.13386X0.07480*%
%ADD35O,0.02362X0.07284*%
%ADD36O,0.01968X0.03937*%
%ADD66C,0.02000*%
%ADD67C,0.09449*%
%ADD68C,0.07000*%
%ADD69C,0.10299*%
%ADD70O,0.10299X0.10299*%
%ADD71C,0.04756*%
%ADD72C,0.02500*%
%ADD73C,0.03000*%
%ADD74C,0.02000*%
%ADD75C,0.01968*%
D12*
X89397Y52197D02*
X92633D01*
X88800Y51600D02*
X89397Y52197D01*
X88800Y47760D02*
Y51600D01*
X90960Y48360D02*
X91000Y48400D01*
X92512Y46871D02*
X93300Y47660D01*
X92512Y45213D02*
Y46871D01*
X173700Y8300D02*
X179800Y2200D01*
X173700Y8300D02*
Y28200D01*
X172900Y29000D02*
X173700Y28200D01*
X102125Y13000D02*
Y16675D01*
X171900Y21000D02*
X172700Y20200D01*
Y4500D02*
Y20200D01*
Y4500D02*
X175000Y2200D01*
X169965Y21000D02*
X171900D01*
X169965Y2165D02*
Y13000D01*
Y29000D02*
X172900D01*
X97000Y68300D02*
X111450Y53850D01*
Y32850D02*
Y53850D01*
X91100Y68300D02*
X97000D01*
X164950Y34763D02*
Y61447D01*
X163950Y35177D02*
Y60750D01*
X111450Y32850D02*
X111600Y32700D01*
X153500Y71200D02*
X163950Y60750D01*
X155900Y70497D02*
X164950Y61447D01*
X54072Y71400D02*
Y73900D01*
X72220Y24720D02*
X75287D01*
X9457Y108457D02*
X12525D01*
X7200Y106200D02*
X9457Y108457D01*
X160500Y31727D02*
X163950Y35177D01*
X162600Y23500D02*
X164900Y25800D01*
X103333Y26072D02*
X154772D01*
X164700Y32000D02*
Y34513D01*
X101605Y40969D02*
X103100Y42465D01*
X101986D02*
X103100D01*
X93300Y47660D02*
Y51865D01*
X92800Y52365D02*
X93300Y51865D01*
X87823Y46783D02*
X88800Y47760D01*
X87823Y45248D02*
Y46783D01*
X87787Y45213D02*
X87823Y45248D01*
X86151Y48151D02*
X86182Y48121D01*
Y45243D02*
Y48121D01*
Y45243D02*
X86213Y45213D01*
X90960Y45236D02*
Y48360D01*
X90937Y45213D02*
X90960Y45236D01*
X164700Y34513D02*
X164950Y34763D01*
X173968Y66968D02*
X174000Y67000D01*
X84800Y49841D02*
Y50965D01*
X84001Y49042D02*
X84800Y49841D01*
X84001Y48101D02*
Y49042D01*
X83900Y48000D02*
X84001Y48101D01*
X92900Y52365D02*
X93648D01*
X92800D02*
X92900D01*
X92633Y52197D02*
X92800Y52365D01*
X110606Y112400D02*
X110900Y112106D01*
X104000Y112400D02*
X110606D01*
X110923Y123400D02*
Y129526D01*
X87787Y32713D02*
X98713D01*
X89362Y35862D02*
Y45213D01*
X145900Y75295D02*
Y80400D01*
X141200Y85100D02*
X145900Y80400D01*
X107397Y85100D02*
X141200D01*
X114302Y84100D02*
X137200D01*
X101700Y71498D02*
X114302Y84100D01*
X101700Y71000D02*
Y71498D01*
X137200Y84100D02*
X140900Y80400D01*
Y75295D02*
Y80400D01*
X76100Y83300D02*
X91100Y68300D01*
X92300Y76800D02*
X97400D01*
X76100Y83300D02*
Y169200D01*
X97400Y76800D02*
X106900Y86300D01*
X95800Y73503D02*
X107397Y85100D01*
X77800Y59700D02*
X85300Y67200D01*
X72900Y59700D02*
X77800D01*
X63400Y50200D02*
X72900Y59700D01*
X63400Y46500D02*
Y50200D01*
X68100Y34500D02*
Y37800D01*
Y34500D02*
X71462Y31138D01*
X75287D01*
X63400Y37700D02*
X71537Y29563D01*
X75287D01*
X101172Y24839D02*
X103511Y22500D01*
X98713Y24839D02*
X101172D01*
X103511Y22500D02*
X111600D01*
X102837Y24872D02*
X152228D01*
X153600Y23500D01*
X102806Y26599D02*
X103333Y26072D01*
X101606Y26102D02*
X102837Y24872D01*
X173968Y63400D02*
Y66968D01*
X153600Y23500D02*
X162600D01*
X101606Y26102D02*
Y26794D01*
X100570Y29527D02*
X102806Y27291D01*
Y26599D02*
Y27291D01*
X98748Y29527D02*
X100570D01*
X98713Y29563D02*
X98748Y29527D01*
X100448Y27952D02*
X101606Y26794D01*
X98748Y27952D02*
X100448D01*
X98713Y27988D02*
X98748Y27952D01*
X42600Y121600D02*
X58700Y137700D01*
X35994Y121600D02*
X42600D01*
X58700Y137700D02*
Y149000D01*
X41700Y123200D02*
X55740Y137240D01*
X35331Y123200D02*
X41700D01*
X55740Y137240D02*
Y145685D01*
X69000Y8900D02*
X106300D01*
X68128Y9772D02*
X69000Y8900D01*
X68128Y9772D02*
Y11600D01*
X78268Y53700D02*
X78300Y53732D01*
X75200Y53700D02*
X78268D01*
X50032Y57400D02*
X53200D01*
X64900Y67000D02*
X65965Y68065D01*
X64900Y65700D02*
Y67000D01*
X65000Y72900D02*
X65043Y72857D01*
X68000D01*
X65965Y68065D02*
X68000D01*
X54032Y71361D02*
X54072Y71400D01*
X54032Y67400D02*
Y71361D01*
Y62400D02*
Y67400D01*
X52232Y87000D02*
X56000D01*
X52032D02*
X52232D01*
X54900Y79500D02*
X55200Y79800D01*
X52272Y79500D02*
X54900D01*
X55200Y79800D02*
X65200D01*
X66643Y70500D02*
X71400D01*
X2428Y113539D02*
X2528Y113639D01*
X2428Y113539D02*
X2468Y113500D01*
X80300Y127300D02*
Y177900D01*
X76300Y181900D02*
X80300Y177900D01*
X36200Y181900D02*
X76300D01*
X82800Y114200D02*
X94400Y102600D01*
X82800Y114200D02*
Y118900D01*
X34826Y180526D02*
X36200Y181900D01*
X34826Y176177D02*
Y180526D01*
X144800Y86300D02*
X150900Y80200D01*
X106900Y86300D02*
X144800D01*
X155900Y70497D02*
Y75295D01*
X153500Y71200D02*
Y100600D01*
X155900Y103000D01*
Y112106D01*
X103100Y42465D02*
X106600D01*
X101605Y36919D02*
Y40969D01*
X155900Y75295D02*
X155900Y75294D01*
X162000D01*
X162000Y112106D02*
X162000Y112106D01*
X155900Y112106D02*
X162000D01*
X52272Y83000D02*
X73500D01*
X56043Y59900D02*
X66643Y70500D01*
X52332Y94900D02*
X56100D01*
X45200D02*
X48868D01*
X44439Y95661D02*
X45200Y94900D01*
X40675Y95661D02*
X44439D01*
X46452Y104900D02*
X50600D01*
X46100Y104549D02*
X46452Y104900D01*
X46100Y102600D02*
Y104549D01*
X44280Y100779D02*
X46100Y102600D01*
X40675Y100779D02*
X44280D01*
X44900Y112200D02*
X46100Y113400D01*
X50600D01*
X44900Y104100D02*
Y112200D01*
X44172Y103373D02*
X44900Y104100D01*
X40709Y103373D02*
X44172D01*
X40675Y103339D02*
X40709Y103373D01*
X47300Y59900D02*
X56043D01*
X46569Y59169D02*
X47300Y59900D01*
X46569Y57401D02*
Y59169D01*
X46568Y57400D02*
X46569Y57401D01*
X150900Y75295D02*
Y80200D01*
X136700Y89200D02*
X153381Y105881D01*
X101000Y89200D02*
X136700D01*
X94400Y82600D02*
X101000Y89200D01*
X80500Y48000D02*
X83900D01*
X79913Y47413D02*
X80500Y48000D01*
X79913Y45213D02*
Y47413D01*
X78300Y50268D02*
X78339Y50229D01*
Y45213D02*
Y50229D01*
X2528Y113639D02*
Y118700D01*
Y146528D01*
X5826Y149826D01*
Y176177D01*
X5922Y113564D02*
X5932Y113575D01*
X5922Y109500D02*
Y113564D01*
X12475Y113575D02*
X12500Y113600D01*
X5932Y113575D02*
X12475D01*
X90937Y19352D02*
Y21787D01*
Y19352D02*
X91750Y18539D01*
Y18050D02*
Y18539D01*
X70693Y17293D02*
X72495Y19095D01*
X68200Y15372D02*
Y16800D01*
X68128Y15300D02*
X68200Y15372D01*
Y16800D02*
X68693Y17293D01*
X70693D01*
X66976Y27988D02*
X75287D01*
X66965Y28000D02*
X66976Y27988D01*
X71700Y37600D02*
X73112Y39012D01*
X75287D01*
X86002Y17214D02*
X87787Y19000D01*
Y21787D01*
X80900Y13000D02*
Y15900D01*
X79514Y18114D02*
X80214Y18814D01*
X85414D01*
X86213Y19613D02*
Y21787D01*
X85414Y18814D02*
X86213Y19613D01*
X82214Y17214D02*
X86002D01*
X89362Y18312D02*
Y21787D01*
X75287Y35862D02*
Y37318D01*
X26550Y112156D02*
X35994Y121600D01*
X26550Y92850D02*
Y112156D01*
Y92850D02*
X33975Y85425D01*
X16843Y108457D02*
X16900Y108400D01*
X12525Y108457D02*
X16843D01*
X15525Y115872D02*
X23350Y108047D01*
X12787Y115872D02*
X15525D01*
X23350Y91150D02*
Y108047D01*
X24950Y92050D02*
Y112819D01*
X35331Y123200D01*
X17688Y105898D02*
X21750Y101836D01*
X12525Y105898D02*
X17688D01*
X24950Y92050D02*
X34134Y82866D01*
X73026Y172274D02*
X76100Y169200D01*
X73026Y172274D02*
Y176177D01*
X31600Y96024D02*
X31963Y95661D01*
X40675D01*
X136900Y69600D02*
X153400D01*
X135900Y70600D02*
X136900Y69600D01*
X135900Y70600D02*
Y75295D01*
X153400Y69600D02*
X159900Y63100D01*
X133000Y67000D02*
X144500D01*
X130900Y69100D02*
X133000Y67000D01*
X130900Y69100D02*
Y75295D01*
X144500Y67000D02*
X148897Y62603D01*
X130000Y64500D02*
X136000D01*
X125900Y68600D02*
X130000Y64500D01*
X125900Y68600D02*
Y75295D01*
X136000Y64500D02*
X137897Y62603D01*
X126900Y60972D02*
Y62600D01*
X120900Y68600D02*
X126900Y62600D01*
X120900Y68600D02*
Y75295D01*
X159900Y60972D02*
Y63100D01*
X148897Y60975D02*
Y62603D01*
Y60975D02*
X148900Y60972D01*
X137897Y60975D02*
Y62603D01*
Y60975D02*
X137900Y60972D01*
X115900D02*
Y75295D01*
X75287Y31138D02*
Y32594D01*
X145900Y112106D02*
Y116900D01*
X130900Y107900D02*
Y112106D01*
X147000Y118000D02*
X152148D01*
X153381Y116767D01*
X145900Y116900D02*
X147000Y118000D01*
X33255Y78982D02*
X44351D01*
X44869Y79500D02*
X48728D01*
X44351Y78982D02*
X44869Y79500D01*
X150900Y107900D02*
Y112106D01*
X140900Y107900D02*
Y112106D01*
X46106Y83000D02*
X48728D01*
X43688Y80582D02*
X46106Y83000D01*
X45008Y87492D02*
X45500Y87000D01*
X44516Y87984D02*
X45008Y87492D01*
X45100Y87584D01*
X45500Y87000D02*
X48768D01*
X40675Y87984D02*
X44516D01*
X71500Y24000D02*
X72220Y24720D01*
X21750Y90487D02*
X33255Y78982D01*
X34134Y82866D02*
X40675D01*
X21750Y90487D02*
Y101836D01*
X23350Y91150D02*
X33918Y80582D01*
X43688D01*
X12525Y116134D02*
X12787Y115872D01*
X153381Y105881D02*
Y116767D01*
X89600Y97800D02*
X130800D01*
X84400Y92600D02*
X89600Y97800D01*
X130800D02*
X140900Y107900D01*
X125600Y102600D02*
X130900Y107900D01*
X94400Y102600D02*
X125600D01*
X135600Y92600D02*
X150900Y107900D01*
X94400Y92600D02*
X135600D01*
X88225Y17175D02*
X89362Y18312D01*
X88225Y13000D02*
Y17175D01*
X80900Y15900D02*
X82214Y17214D01*
X100548Y35862D02*
X101605Y36919D01*
X98713Y35862D02*
X100548D01*
X91056Y21787D02*
X92393D01*
X101362Y31138D02*
X103158Y29342D01*
X106533D01*
X98713Y31138D02*
X101362D01*
X101387Y34287D02*
X103158Y36058D01*
X106533D01*
X106600Y36125D01*
X98713Y34287D02*
X101387D01*
X88968Y35469D02*
X89362Y35862D01*
X87000Y33500D02*
X88968Y35469D01*
X87000Y33500D02*
X87787Y32713D01*
X100800Y18000D02*
X102125Y16675D01*
X97546Y18000D02*
X100800D01*
X95661Y19884D02*
X97546Y18000D01*
X95661Y19884D02*
Y21787D01*
X95275Y13000D02*
Y17825D01*
X94087Y19013D02*
X95275Y17825D01*
X94087Y19013D02*
Y21787D01*
X71500Y43600D02*
X71946D01*
X73384Y42161D01*
X75287D01*
X71500Y40600D02*
X71513Y40587D01*
X75287D01*
X44026Y176177D02*
X73026D01*
X55740Y151960D02*
X58700Y149000D01*
X55740Y151960D02*
Y156315D01*
X33975Y85425D02*
X40675D01*
X18072Y52400D02*
X24500D01*
X18072Y57400D02*
X24500D01*
X18072Y62400D02*
X24500D01*
X24400Y67400D02*
X24500Y67300D01*
X18072Y67400D02*
X24400D01*
X45100Y87584D02*
Y92400D01*
X44398Y93102D02*
X45100Y92400D01*
X40675Y93102D02*
X44398D01*
X62400Y104900D02*
X67828D01*
X62400Y113400D02*
X67828D01*
X52000Y141600D02*
Y145685D01*
X34100Y90543D02*
X40675D01*
X40675Y90543D01*
X34000Y98220D02*
X40675D01*
X40675Y98220D01*
Y108457D02*
Y111016D01*
X34100Y111016D02*
X34100Y111016D01*
X40675D01*
X19200Y100779D02*
X19200Y100779D01*
X12525Y100779D02*
X19200D01*
X12500Y113600D02*
X12525Y113575D01*
X5826Y176177D02*
X34826D01*
X39869Y144567D02*
X40987Y145685D01*
X38744Y144567D02*
X39869D01*
X40987Y145685D02*
X48260D01*
X26000Y155736D02*
Y163000D01*
Y155736D02*
X34020Y147716D01*
X26000Y163000D02*
X31000Y168000D01*
X41000D01*
X48260Y160740D01*
Y156315D02*
Y160740D01*
X159900Y50100D02*
Y57428D01*
X148900Y50100D02*
Y57428D01*
X137900Y50100D02*
Y57428D01*
X126900Y50100D02*
Y57428D01*
X115900Y50100D02*
Y57428D01*
D14*
X2378Y107122D02*
Y109500D01*
X4700Y79800D02*
X6500Y78000D01*
X4700Y79800D02*
Y104800D01*
X2378Y107122D02*
X4700Y104800D01*
D16*
X12760Y128425D02*
X20240D01*
X12760D02*
Y131575D01*
X20240D01*
Y128425D02*
Y131575D01*
X31461Y157559D02*
X38941D01*
X31461D02*
Y160709D01*
X38941D01*
Y157559D02*
Y160709D01*
X12760Y157559D02*
X20240D01*
X12760D02*
Y160709D01*
X20240D01*
Y157559D02*
Y160709D01*
X31461Y128425D02*
X38941D01*
X31461D02*
Y131575D01*
X38941D01*
Y128425D02*
Y131575D01*
D17*
X115900Y57428D02*
D03*
Y60972D02*
D03*
X68000Y72857D02*
D03*
Y76400D02*
D03*
X45900Y63128D02*
D03*
Y66672D02*
D03*
X137900Y60972D02*
D03*
Y57428D02*
D03*
X126900Y60972D02*
D03*
Y57428D02*
D03*
X148900Y60972D02*
D03*
Y57428D02*
D03*
X159900Y60972D02*
D03*
Y57428D02*
D03*
X162000Y75294D02*
D03*
Y78838D02*
D03*
Y112106D02*
D03*
Y108562D02*
D03*
D18*
X106600Y50535D02*
D03*
Y42465D02*
D03*
X67000Y19965D02*
D03*
Y28035D02*
D03*
X92800Y60435D02*
D03*
Y52365D02*
D03*
X84700Y60371D02*
D03*
Y52300D02*
D03*
D19*
X2378Y109500D02*
D03*
X5922D02*
D03*
X2528Y118700D02*
D03*
X6072D02*
D03*
X142472Y122200D02*
D03*
X138928D02*
D03*
X120872Y122100D02*
D03*
X117328D02*
D03*
X98972D02*
D03*
X95428D02*
D03*
X52272Y79500D02*
D03*
X48728D02*
D03*
X52272Y83000D02*
D03*
X48728D02*
D03*
X177472Y51400D02*
D03*
X173928D02*
D03*
X177472Y55400D02*
D03*
X173928D02*
D03*
X71672Y15300D02*
D03*
X68128D02*
D03*
X68128Y11600D02*
D03*
X71672D02*
D03*
X177472Y59400D02*
D03*
X173928D02*
D03*
X67828Y113400D02*
D03*
X71372D02*
D03*
X67828Y104900D02*
D03*
X71372D02*
D03*
X50528Y71400D02*
D03*
X54072D02*
D03*
D20*
X2468Y113575D02*
D03*
X5932D02*
D03*
X177432Y63400D02*
D03*
X173968D02*
D03*
X52332Y94900D02*
D03*
X48868D02*
D03*
X52232Y87000D02*
D03*
X48768D02*
D03*
X54032Y67400D02*
D03*
X50568D02*
D03*
X54032Y62400D02*
D03*
X50568D02*
D03*
X50032Y57400D02*
D03*
X46568D02*
D03*
D21*
X169865Y44900D02*
D03*
X177935D02*
D03*
X169893Y37000D02*
D03*
X177964D02*
D03*
X169965Y29000D02*
D03*
X178035D02*
D03*
X169965Y21000D02*
D03*
X178035D02*
D03*
X169965Y13000D02*
D03*
X178035D02*
D03*
X102735Y4900D02*
D03*
X94665D02*
D03*
X80765D02*
D03*
X88835D02*
D03*
X61465Y5000D02*
D03*
X69535D02*
D03*
D22*
X68000Y64600D02*
D03*
Y68065D02*
D03*
X78300Y53732D02*
D03*
Y50268D02*
D03*
D23*
X80875Y13000D02*
D03*
X87725D02*
D03*
X102625D02*
D03*
X95775D02*
D03*
D24*
X106600Y29275D02*
D03*
Y36125D02*
D03*
D25*
X50600Y113400D02*
D03*
X62400D02*
D03*
Y104900D02*
D03*
X50600D02*
D03*
D26*
X115900Y38300D02*
D03*
Y50100D02*
D03*
X126900Y38300D02*
D03*
Y50100D02*
D03*
X137900Y38300D02*
D03*
Y50100D02*
D03*
X148900Y38300D02*
D03*
Y50100D02*
D03*
X159900Y38300D02*
D03*
Y50100D02*
D03*
X74500Y64600D02*
D03*
Y76400D02*
D03*
D27*
X87000Y33500D02*
D03*
D28*
X78339Y45213D02*
D03*
X79913D02*
D03*
X81488D02*
D03*
X83063D02*
D03*
X84638D02*
D03*
X86213D02*
D03*
X87787D02*
D03*
X89362D02*
D03*
X90937D02*
D03*
X92512D02*
D03*
X94087D02*
D03*
X95661D02*
D03*
Y21787D02*
D03*
X94087D02*
D03*
X92512D02*
D03*
X90937D02*
D03*
X89362D02*
D03*
X87787D02*
D03*
X86213D02*
D03*
X84638D02*
D03*
X83063D02*
D03*
X81488D02*
D03*
X79913D02*
D03*
X78339D02*
D03*
D29*
X98713Y42161D02*
D03*
Y40587D02*
D03*
Y39012D02*
D03*
Y37437D02*
D03*
Y35862D02*
D03*
Y34287D02*
D03*
Y32713D02*
D03*
Y31138D02*
D03*
Y29563D02*
D03*
Y27988D02*
D03*
Y26413D02*
D03*
Y24839D02*
D03*
X75287D02*
D03*
Y26413D02*
D03*
Y27988D02*
D03*
Y29563D02*
D03*
Y31138D02*
D03*
Y32713D02*
D03*
Y34287D02*
D03*
Y35862D02*
D03*
Y37437D02*
D03*
Y39012D02*
D03*
Y40587D02*
D03*
Y42161D02*
D03*
D30*
X73026Y176177D02*
D03*
Y188177D02*
D03*
X44026Y176177D02*
D03*
Y188177D02*
D03*
X34826Y176177D02*
D03*
Y188177D02*
D03*
X5826Y176177D02*
D03*
Y188177D02*
D03*
D31*
X39528Y52400D02*
D03*
Y57400D02*
D03*
Y62400D02*
D03*
Y67400D02*
D03*
X18072Y52400D02*
D03*
Y57400D02*
D03*
Y62400D02*
D03*
Y67400D02*
D03*
D32*
X110923Y158526D02*
D03*
X98923D02*
D03*
X110923Y129526D02*
D03*
X98923D02*
D03*
X132923Y158626D02*
D03*
X120923D02*
D03*
X132923Y129626D02*
D03*
X120923D02*
D03*
X154323Y158826D02*
D03*
X142323D02*
D03*
X154323Y129826D02*
D03*
X142323D02*
D03*
D33*
X40675Y82866D02*
D03*
Y85425D02*
D03*
Y87984D02*
D03*
Y90543D02*
D03*
Y93102D02*
D03*
Y95661D02*
D03*
Y98220D02*
D03*
Y100779D02*
D03*
Y103339D02*
D03*
Y105898D02*
D03*
Y108457D02*
D03*
Y111016D02*
D03*
Y113575D02*
D03*
Y116134D02*
D03*
X12525Y82866D02*
D03*
Y85425D02*
D03*
Y87984D02*
D03*
Y90543D02*
D03*
Y93102D02*
D03*
Y95661D02*
D03*
Y98220D02*
D03*
Y100779D02*
D03*
Y103339D02*
D03*
Y105898D02*
D03*
Y108457D02*
D03*
Y111016D02*
D03*
Y113575D02*
D03*
Y116134D02*
D03*
D34*
X68000Y148323D02*
D03*
Y163677D02*
D03*
D35*
X110900Y75295D02*
D03*
X115900D02*
D03*
X120900D02*
D03*
X125900D02*
D03*
X130900D02*
D03*
X135900D02*
D03*
X140900D02*
D03*
X145900D02*
D03*
X150900D02*
D03*
X155900Y75295D02*
D03*
X110900Y112106D02*
D03*
X115900D02*
D03*
X120900D02*
D03*
X125900D02*
D03*
X130900D02*
D03*
X135900D02*
D03*
X140900D02*
D03*
X145900D02*
D03*
X150900D02*
D03*
X155900D02*
D03*
D36*
X55740Y156315D02*
D03*
X52000D02*
D03*
X48260D02*
D03*
X55740Y145685D02*
D03*
X52000D02*
D03*
X48260D02*
D03*
D66*
X89153Y56000D02*
X90700D01*
X89117Y55964D02*
X89153Y56000D01*
X80851Y55964D02*
X89117D01*
X80183Y56631D02*
X80851Y55964D01*
X169886Y28922D02*
X169965Y29000D01*
X161725Y28922D02*
X169886D01*
X114400Y45400D02*
X161000D01*
X121400Y34500D02*
Y38900D01*
Y34500D02*
X123700Y32200D01*
X169865Y44900D02*
Y51805D01*
X167450Y54220D02*
X169865Y51805D01*
X167450Y54220D02*
Y75350D01*
X164045Y78755D02*
X167450Y75350D01*
X162083Y78755D02*
X164045D01*
X162000Y78838D02*
X162083Y78755D01*
X169893Y37000D02*
X172600D01*
X173928Y38328D01*
Y51400D01*
X71372Y97372D02*
Y104900D01*
X59900Y85900D02*
X71372Y97372D01*
X30500Y76800D02*
X59900D01*
X26500Y80800D02*
X30500Y76800D01*
X18800Y80800D02*
X26500D01*
X92900Y52365D02*
Y53800D01*
X6100Y73600D02*
X19565D01*
X2200Y77500D02*
X6100Y73600D01*
X2200Y77500D02*
Y102700D01*
X13200Y76000D02*
X21800D01*
X7200Y82000D02*
X13200Y76000D01*
X7200Y82000D02*
Y106200D01*
X19565Y73600D02*
X20265Y72900D01*
X20400D01*
X21800Y76000D02*
X27500Y70300D01*
X123700Y32200D02*
X155300D01*
X161680Y28877D02*
X161725Y28922D01*
X159319Y28877D02*
X161680D01*
X159275Y28922D02*
X159319Y28877D01*
X151800Y28922D02*
X159275D01*
X97314Y48486D02*
X101986Y43814D01*
X98486Y48486D02*
X99000Y49000D01*
X97314Y48486D02*
X98486D01*
X101986Y42465D02*
Y43814D01*
X93850Y48486D02*
X97314D01*
X151078Y28200D02*
X151800Y28922D01*
X107675Y28200D02*
X151078D01*
X90700Y56000D02*
X92900Y53800D01*
X106600Y29275D02*
X107675Y28200D01*
X107000Y120600D02*
X115828D01*
X104900Y122700D02*
X107000Y120600D01*
X115828D02*
X117328Y122100D01*
X104900Y122700D02*
Y133100D01*
X99040Y119760D02*
X100600Y118200D01*
X114800D01*
X115900Y117100D01*
X170300Y55400D02*
X173928D01*
X99000Y57700D02*
X101400Y60100D01*
X99000Y49000D02*
Y57700D01*
X6154Y120954D02*
X7645Y122445D01*
X9545D01*
X9600Y122500D01*
X6154Y118783D02*
Y120954D01*
X6072Y118700D02*
X6154Y118783D01*
X27500Y44500D02*
Y70300D01*
Y44500D02*
X51500Y20500D01*
X27700Y74300D02*
X33000Y69000D01*
Y56000D02*
Y69000D01*
X91887Y70200D02*
X98300D01*
X95100Y66400D02*
X101400Y60100D01*
X90313Y66400D02*
X95100D01*
X86213Y70500D02*
X90313Y66400D01*
X98300Y70200D02*
X104900Y63600D01*
X84540Y77547D02*
X91887Y70200D01*
X71400Y70500D02*
X86213D01*
X84540Y77547D02*
Y82460D01*
X84400Y82600D02*
X84540Y82460D01*
X54500Y43600D02*
X71500D01*
X45700Y52400D02*
X54500Y43600D01*
X41400Y40600D02*
X71500D01*
X33000Y49000D02*
X41400Y40600D01*
X74101Y56631D02*
X80183D01*
X68100Y50630D02*
X74101Y56631D01*
X68100Y46500D02*
Y50630D01*
X71700Y34400D02*
Y37600D01*
X119500Y21000D02*
X169965D01*
X111500Y13000D02*
X119500Y21000D01*
X45200Y119200D02*
X68000Y142000D01*
X37200Y119200D02*
X45200D01*
X68000Y142000D02*
Y148323D01*
X78400Y88600D02*
X84400Y82600D01*
X80500Y122100D02*
X94300Y135900D01*
X80500Y122100D02*
X95428D01*
X94300Y135900D02*
X102100D01*
X78400Y120000D02*
X80500Y122100D01*
X33000Y56000D02*
X34400Y57400D01*
X33000Y49000D02*
Y56000D01*
X120923Y139677D02*
Y158626D01*
X102100Y135900D02*
X124100D01*
X126900Y133100D01*
X142323Y129826D02*
Y158826D01*
X98923Y139577D02*
Y158526D01*
X128900Y122200D02*
X138928D01*
X126900Y124200D02*
X128900Y122200D01*
X126900Y124200D02*
Y133100D01*
X102100Y135900D02*
X104900Y133100D01*
X162000Y78838D02*
Y108562D01*
X47953Y62547D02*
X50420D01*
X47454Y63046D02*
X47953Y62547D01*
X45983Y63046D02*
X47454D01*
X50420Y62547D02*
X50568Y62400D01*
X45700Y52400D02*
X61300D01*
X68000Y59100D01*
X39528Y52400D02*
X45700D01*
X68000Y59100D02*
Y64600D01*
X104900Y63600D02*
X110900Y69600D01*
Y75295D01*
X106300Y8900D02*
X119900D01*
X124000Y13000D01*
X72495Y19095D02*
Y21095D01*
X72500Y21100D01*
X76514Y18114D02*
X79514D01*
X16900Y108400D02*
X19200D01*
X78400Y88600D02*
Y120000D01*
X74500Y76400D02*
X74500Y76400D01*
X68000Y76400D02*
X74500D01*
X74500Y64600D02*
X74500Y64600D01*
X68000Y64600D02*
X74500D01*
X30750Y96874D02*
X31600Y96024D01*
X30750Y96874D02*
Y112750D01*
X37200Y119200D01*
X98923Y129526D02*
X98972Y128677D01*
Y122100D02*
Y128677D01*
X99040Y119760D02*
Y122032D01*
X98972Y122100D02*
X99040Y122032D01*
X115900Y112106D02*
Y117100D01*
X142423Y128726D02*
X142472Y128677D01*
Y122200D02*
Y128677D01*
X140900Y118400D02*
X142389Y119889D01*
Y122117D01*
X142472Y122200D01*
X127400Y118400D02*
X140900D01*
X125900Y116900D02*
X127400Y118400D01*
X125900Y112106D02*
Y116900D01*
X120872Y128675D02*
X120923Y129626D01*
X120872Y122100D02*
Y128675D01*
Y122100D02*
X120900Y122072D01*
Y112106D02*
Y122072D01*
X177432Y63400D02*
X177472Y63361D01*
Y59400D02*
Y63361D01*
Y51400D02*
Y55400D01*
X173928D02*
Y59400D01*
X124000Y13000D02*
X169965D01*
X102625D02*
X111500D01*
X106533Y29342D02*
X106600Y29275D01*
X51500Y20500D02*
X59500D01*
X61465Y22465D01*
X63000Y24000D02*
X71500D01*
X61465Y22465D02*
X63000Y24000D01*
X61465Y5000D02*
Y22465D01*
X55177Y163677D02*
X68000D01*
X52000Y160500D02*
X55177Y163677D01*
X52000Y156315D02*
Y160500D01*
X75900Y13000D02*
X80875D01*
X80900D01*
X73783Y15383D02*
X76514Y18114D01*
X71754Y15383D02*
X73783D01*
X71672Y15300D02*
X71754Y15383D01*
X74500Y11600D02*
X75900Y13000D01*
X71672Y11600D02*
X74500D01*
X50528Y67439D02*
Y71400D01*
Y67439D02*
X50568Y67400D01*
X50470Y67303D02*
X50568Y67400D01*
X47903Y67303D02*
X50470D01*
X47354Y66754D02*
X47903Y67303D01*
X45983Y66754D02*
X47354D01*
X45900Y66672D02*
X45983Y66754D01*
X42969Y67331D02*
X43560Y66740D01*
X45832D01*
X45900Y66672D01*
X39598Y67331D02*
X42969D01*
X39528Y67400D02*
X39598Y67331D01*
X45900Y63128D02*
X45983Y63046D01*
X42969Y62469D02*
X43560Y63060D01*
X45832D01*
X45900Y63128D01*
X39598Y62469D02*
X42969D01*
X39528Y62400D02*
X39598Y62469D01*
X39528Y57400D02*
X46568D01*
X55500Y28000D02*
X66965D01*
X34400Y57400D02*
X39528D01*
X71372Y104900D02*
Y113400D01*
X48866Y150866D02*
X52000Y154000D01*
Y156315D01*
X38744Y150866D02*
X48866D01*
D67*
X43780Y9496D02*
D03*
X32000Y28000D02*
D03*
X55500D02*
D03*
D68*
X84400Y102600D02*
D03*
X94400D02*
D03*
X84400Y92600D02*
D03*
X94400D02*
D03*
X84400Y82600D02*
D03*
X94400D02*
D03*
D69*
X16500Y130000D02*
D03*
D70*
X35201D02*
D03*
Y159134D02*
D03*
X16500D02*
D03*
D71*
X34020Y141417D02*
D03*
Y147716D02*
D03*
X38744Y138268D02*
D03*
Y144567D02*
D03*
Y150866D02*
D03*
D72*
X91000Y48400D02*
D03*
X121400Y38900D02*
D03*
X114400Y45400D02*
D03*
X159900Y38300D02*
D03*
X169865Y44900D02*
D03*
X177935D02*
D03*
X59900Y85900D02*
D03*
Y76800D02*
D03*
X54100Y73900D02*
D03*
X18800Y80800D02*
D03*
X6500Y78000D02*
D03*
X177964Y37000D02*
D03*
X2200Y102700D02*
D03*
X155300Y32200D02*
D03*
X160500Y31727D02*
D03*
X164900Y25800D02*
D03*
X154772Y26072D02*
D03*
X164700Y32000D02*
D03*
X169893Y37000D02*
D03*
X174000Y67000D02*
D03*
X170300Y55400D02*
D03*
X161000Y45400D02*
D03*
X86151Y48151D02*
D03*
X104000Y112400D02*
D03*
X106600Y50535D02*
D03*
X9600Y122500D02*
D03*
X20400Y72900D02*
D03*
X27700Y74300D02*
D03*
X101700Y71000D02*
D03*
X92300Y76800D02*
D03*
X95800Y73503D02*
D03*
X85300Y67200D02*
D03*
X63400Y46500D02*
D03*
Y37700D02*
D03*
X68100Y46500D02*
D03*
Y37800D02*
D03*
X71700Y34400D02*
D03*
X111600Y22500D02*
D03*
X75200Y53700D02*
D03*
X53200Y57400D02*
D03*
X64900Y65700D02*
D03*
X65000Y72900D02*
D03*
X65200Y79800D02*
D03*
X82800Y118900D02*
D03*
X80300Y127300D02*
D03*
X110923Y158526D02*
D03*
X120923Y139677D02*
D03*
X98923Y139577D02*
D03*
X73026Y188177D02*
D03*
X44026D02*
D03*
X34826D02*
D03*
X5826D02*
D03*
X132923Y158626D02*
D03*
X154323Y158826D02*
D03*
Y129826D02*
D03*
X132923Y129626D02*
D03*
X110923Y129526D02*
D03*
X120923Y129626D02*
D03*
X98923Y129526D02*
D03*
X73500Y83000D02*
D03*
X56100Y94900D02*
D03*
X104900Y63600D02*
D03*
X101400Y60100D02*
D03*
X106600Y42465D02*
D03*
X91750Y18050D02*
D03*
X88835Y4900D02*
D03*
X94665D02*
D03*
X72500Y21100D02*
D03*
X19200Y108400D02*
D03*
X30750Y112750D02*
D03*
X111600Y32700D02*
D03*
X178000Y13000D02*
D03*
Y21000D02*
D03*
Y29000D02*
D03*
X69535Y5000D02*
D03*
X92800Y60435D02*
D03*
X84700Y60371D02*
D03*
X126900Y38300D02*
D03*
X137900D02*
D03*
X148900D02*
D03*
X115900D02*
D03*
X102735Y4900D02*
D03*
X80765D02*
D03*
X67000Y19965D02*
D03*
X56000Y87000D02*
D03*
X24500Y52400D02*
D03*
Y57400D02*
D03*
Y62400D02*
D03*
Y67300D02*
D03*
X52000Y141600D02*
D03*
X34100Y90543D02*
D03*
X34000Y98220D02*
D03*
X34100Y111016D02*
D03*
X19200Y100779D02*
D03*
D73*
X179800Y2200D02*
D03*
X175000D02*
D03*
X169965D02*
D03*
D74*
X110923Y123400D02*
D03*
D75*
X92905Y27595D02*
D03*
X88968D02*
D03*
X85031D02*
D03*
X81094D02*
D03*
Y31532D02*
D03*
X92905D02*
D03*
Y35469D02*
D03*
Y39406D02*
D03*
X88968D02*
D03*
X85031D02*
D03*
X81094D02*
D03*
Y35469D02*
D03*
X88968Y31532D02*
D03*
X85031D02*
D03*
X88968Y35469D02*
D03*
X85031D02*
D03*
M02*
