G04*
G04 #@! TF.GenerationSoftware,Altium Limited,Altium Designer,19.1.8 (144)*
G04*
G04 Layer_Color=32768*
%FSLAX25Y25*%
%MOIN*%
G70*
G01*
G75*
%ADD16C,0.00050*%
%ADD17C,0.00000*%
%ADD83C,0.00394*%
%ADD84C,0.00197*%
D16*
X0Y195000D02*
X80000D01*
X205000Y0D02*
X210000D01*
Y180000D01*
X205000D02*
X210000D01*
X95000D02*
X205000D01*
X0Y0D02*
X205000D01*
X80000Y195000D02*
X95000Y180000D01*
X0Y0D02*
Y195000D01*
D17*
X38941Y128425D02*
Y131575D01*
X31461D02*
X38941D01*
X31461Y128425D02*
Y131575D01*
Y128425D02*
X38941D01*
X20240Y157559D02*
Y160709D01*
X12760D02*
X20240D01*
X12760Y157559D02*
Y160709D01*
Y157559D02*
X20240D01*
X38941D02*
Y160709D01*
X31461D02*
X38941D01*
X31461Y157559D02*
Y160709D01*
Y157559D02*
X38941D01*
X20240Y128425D02*
Y131575D01*
X12760D02*
X20240D01*
X12760Y128425D02*
Y131575D01*
Y128425D02*
X20240D01*
D83*
X107300Y112331D02*
Y116269D01*
X105332Y114300D02*
X109268D01*
X49632Y89200D02*
X53569D01*
X51600Y87231D02*
Y91168D01*
X49632Y97100D02*
X53569D01*
X51600Y95131D02*
Y99068D01*
X196800Y114421D02*
Y118358D01*
X194832Y116390D02*
X198768D01*
X167200Y69717D02*
Y71883D01*
X166117Y70800D02*
X168283D01*
X167200Y62617D02*
Y64783D01*
X166117Y63700D02*
X168283D01*
X129931Y92300D02*
X133869D01*
X131900Y90332D02*
Y94269D01*
X108900Y64317D02*
Y66483D01*
X107817Y65400D02*
X109983D01*
X159900Y58117D02*
Y60283D01*
X158817Y59200D02*
X160983D01*
X143617Y115400D02*
X145783D01*
X144700Y114317D02*
Y116483D01*
X196800Y88043D02*
Y91980D01*
X194832Y90012D02*
X198768D01*
X87000Y31532D02*
Y35469D01*
X85031Y33500D02*
X88968D01*
X24632Y99500D02*
X28569D01*
X26600Y97531D02*
Y101469D01*
X104631Y46500D02*
X108569D01*
X106600Y44532D02*
Y48469D01*
X65031Y24000D02*
X68968D01*
X67000Y22031D02*
Y25969D01*
X4150Y108417D02*
Y110583D01*
X3067Y109500D02*
X5233D01*
X4200Y112492D02*
Y114657D01*
X3117Y113575D02*
X5283D01*
X140700Y121117D02*
Y123283D01*
X139617Y122200D02*
X141783D01*
X119100Y121017D02*
Y123183D01*
X118017Y122100D02*
X120183D01*
X97200Y121017D02*
Y123183D01*
X96117Y122100D02*
X98283D01*
X50500Y78417D02*
Y80583D01*
X49417Y79500D02*
X51583D01*
X50500Y81917D02*
Y84083D01*
X49417Y83000D02*
X51583D01*
X90832Y56400D02*
X94769D01*
X92800Y54431D02*
Y58368D01*
X173900Y42932D02*
Y46869D01*
X171932Y44900D02*
X175868D01*
X173928Y35032D02*
Y38969D01*
X171960Y37000D02*
X175897D01*
X174000Y27031D02*
Y30968D01*
X172031Y29000D02*
X175969D01*
X174000Y19031D02*
Y22968D01*
X172031Y21000D02*
X175969D01*
X174000Y11032D02*
Y14968D01*
X172031Y13000D02*
X175969D01*
X175700Y50317D02*
Y52483D01*
X174617Y51400D02*
X176783D01*
X175700Y54317D02*
Y56483D01*
X174617Y55400D02*
X176783D01*
X175700Y62317D02*
Y64483D01*
X174617Y63400D02*
X176783D01*
X66917Y66332D02*
X69083D01*
X68000Y65250D02*
Y67415D01*
X66917Y74628D02*
X69083D01*
X68000Y73546D02*
Y75711D01*
X69900Y14217D02*
Y16383D01*
X68817Y15300D02*
X70983D01*
X69900Y10517D02*
Y12683D01*
X68817Y11600D02*
X70983D01*
X84300Y11032D02*
Y14968D01*
X82332Y13000D02*
X86269D01*
X98700Y2932D02*
Y6869D01*
X96732Y4900D02*
X100669D01*
X84800Y2932D02*
Y6869D01*
X82832Y4900D02*
X86769D01*
X104631Y32700D02*
X108569D01*
X106600Y30731D02*
Y34668D01*
X99200Y11032D02*
Y14968D01*
X97232Y13000D02*
X101169D01*
X82731Y56335D02*
X86668D01*
X84700Y54367D02*
Y58304D01*
X77217Y52000D02*
X79383D01*
X78300Y50917D02*
Y53083D01*
X175700Y58317D02*
Y60483D01*
X174617Y59400D02*
X176783D01*
X44817Y64900D02*
X46983D01*
X45900Y63817D02*
Y65983D01*
X68517Y113400D02*
X70683D01*
X69600Y112317D02*
Y114483D01*
X68517Y104900D02*
X70683D01*
X69600Y103817D02*
Y105983D01*
X52300Y70317D02*
Y72483D01*
X51217Y71400D02*
X53383D01*
X52300Y66317D02*
Y68483D01*
X51217Y67400D02*
X53383D01*
X52300Y61317D02*
Y63483D01*
X51217Y62400D02*
X53383D01*
X48300Y56317D02*
Y58483D01*
X47217Y57400D02*
X49383D01*
X125817Y59200D02*
X127983D01*
X126900Y58117D02*
Y60283D01*
X114817Y59200D02*
X116983D01*
X115900Y58117D02*
Y60283D01*
X136817Y59200D02*
X138983D01*
X137900Y58117D02*
Y60283D01*
X147817Y59200D02*
X149983D01*
X148900Y58117D02*
Y60283D01*
X63532Y5000D02*
X67469D01*
X65500Y3032D02*
Y6968D01*
X26831Y59900D02*
X30768D01*
X28800Y57932D02*
Y61869D01*
X50032Y151000D02*
X53969D01*
X52000Y149031D02*
Y152969D01*
D84*
X103363Y107607D02*
X111237D01*
Y120993D01*
X103363Y107607D02*
Y120993D01*
X111237D01*
X44907Y85263D02*
Y93137D01*
X58293Y85263D02*
Y93137D01*
X44907D02*
X58293D01*
X44907Y85263D02*
X58293D01*
X44907Y93163D02*
Y101037D01*
X58293Y93163D02*
Y101037D01*
X44907D02*
X58293D01*
X44907Y93163D02*
X58293D01*
X192469Y107335D02*
X201131D01*
X192469Y125445D02*
X201131D01*
X192469Y107335D02*
Y125445D01*
X201131Y107335D02*
Y125445D01*
X163657Y69028D02*
X170743D01*
X163657Y72572D02*
X170743D01*
Y69028D02*
Y72572D01*
X163657Y69028D02*
X163657Y72572D01*
X163657Y61928D02*
X170743D01*
X163657Y65472D02*
X170743D01*
Y61928D02*
Y65472D01*
X163657Y61928D02*
X163657Y65472D01*
X152471Y71729D02*
Y112871D01*
X111329Y71729D02*
Y112871D01*
X152471D01*
X111329Y71729D02*
X152471D01*
X107128Y68943D02*
X110672Y68943D01*
X107128Y61857D02*
X110672D01*
Y68943D01*
X107128Y61857D02*
Y68943D01*
X158128Y55657D02*
X161672D01*
X158128Y62743D02*
X161672D01*
X158128Y55657D02*
Y62743D01*
X161672Y55657D02*
Y62743D01*
X148243Y113628D02*
X148243Y117172D01*
X141157D02*
X141157Y113628D01*
X148243D01*
X141157Y117172D02*
X148243D01*
X192469Y99067D02*
X201131D01*
X192469Y80957D02*
X201131D01*
Y99067D01*
X192469Y80957D02*
Y99067D01*
X72728Y19228D02*
X101272D01*
X72728Y47772D02*
X101272D01*
Y19228D02*
Y47772D01*
X72728Y19228D02*
Y47772D01*
X8588Y77846D02*
Y121153D01*
X44612Y77846D02*
Y121153D01*
X8588D02*
X44612D01*
X8588Y77846D02*
X44612D01*
X110537Y39807D02*
Y53193D01*
X102663Y39807D02*
Y53193D01*
X110537D01*
X102663Y39807D02*
X110537D01*
X63063Y17307D02*
Y30693D01*
X70937Y17307D02*
Y30693D01*
X63063Y17307D02*
X70937D01*
X63063Y30693D02*
X70937D01*
X607Y111272D02*
X7693D01*
X607Y107728D02*
X7693D01*
X607D02*
Y111272D01*
X7693Y107728D02*
Y111272D01*
X460Y115543D02*
X7940D01*
X460Y111606D02*
X7940D01*
X460D02*
Y115543D01*
X7940Y111606D02*
Y115543D01*
X137157Y120428D02*
X144243D01*
X137157Y123972D02*
X144243D01*
Y120428D02*
Y123972D01*
X137157Y120428D02*
Y123972D01*
X115557Y120328D02*
X122643D01*
X115557Y123872D02*
X122643D01*
Y120328D02*
Y123872D01*
X115557Y120328D02*
Y123872D01*
X93657Y120328D02*
X100743D01*
X93657Y123872D02*
X100743D01*
Y120328D02*
Y123872D01*
X93657Y120328D02*
Y123872D01*
X46957Y77728D02*
X54043D01*
X46957Y81272D02*
X54043D01*
Y77728D02*
Y81272D01*
X46957Y77728D02*
Y81272D01*
Y81228D02*
X54043D01*
X46957Y84772D02*
X54043D01*
Y81228D02*
Y84772D01*
X46957Y81228D02*
Y84772D01*
X96737Y49707D02*
Y63093D01*
X88863Y49707D02*
Y63093D01*
X96737D01*
X88863Y49707D02*
X96737D01*
X167207Y48837D02*
X180593D01*
X167207Y40963D02*
X180593D01*
X167207D02*
Y48837D01*
X180593Y40963D02*
Y48837D01*
X167235Y40937D02*
X180621D01*
X167235Y33063D02*
X180621D01*
X167235D02*
Y40937D01*
X180621Y33063D02*
Y40937D01*
X167307Y32937D02*
X180693D01*
X167307Y25063D02*
X180693D01*
X167307D02*
Y32937D01*
X180693Y25063D02*
Y32937D01*
X167307Y24937D02*
X180693D01*
X167307Y17063D02*
X180693D01*
X167307D02*
Y24937D01*
X180693Y17063D02*
Y24937D01*
X167307Y16937D02*
X180693D01*
X167307Y9063D02*
X180693D01*
X167307D02*
Y16937D01*
X180693Y9063D02*
Y16937D01*
X172157Y49628D02*
X179243D01*
X172157Y53172D02*
X179243D01*
Y49628D02*
Y53172D01*
X172157Y49628D02*
Y53172D01*
Y53628D02*
X179243D01*
X172157Y57172D02*
X179243D01*
Y53628D02*
Y57172D01*
X172157Y53628D02*
Y57172D01*
X171960Y61431D02*
X179440D01*
X171960Y65368D02*
X179440D01*
Y61431D02*
Y65368D01*
X171960Y61431D02*
Y65368D01*
X66031Y62592D02*
Y70073D01*
X69968Y62592D02*
Y70073D01*
X66031Y62592D02*
X69968D01*
X66031Y70073D02*
X69968D01*
X66228Y71085D02*
Y78172D01*
X69772Y71085D02*
Y78172D01*
X66228Y71085D02*
X69772D01*
X66228Y78172D02*
X69772D01*
X66357Y13528D02*
X73443D01*
X66357Y17072D02*
X73443D01*
Y13528D02*
Y17072D01*
X66357Y13528D02*
Y17072D01*
X66357Y13372D02*
X73443D01*
X66357Y9828D02*
X73443D01*
X66357D02*
Y13372D01*
X73443Y9828D02*
Y13372D01*
X77607Y16937D02*
X90993D01*
X77607Y9063D02*
X90993D01*
X77607D02*
Y16937D01*
X90993Y9063D02*
Y16937D01*
X92007Y963D02*
X105393D01*
X92007Y8837D02*
X105393D01*
Y963D02*
Y8837D01*
X92007Y963D02*
Y8837D01*
X78107D02*
X91493D01*
X78107Y963D02*
X91493D01*
X78107D02*
Y8837D01*
X91493Y963D02*
Y8837D01*
X102663Y26007D02*
Y39393D01*
X110537Y26007D02*
Y39393D01*
X102663Y26007D02*
X110537D01*
X102663Y39393D02*
X110537D01*
X92507Y9063D02*
X105893D01*
X92507Y16937D02*
X105893D01*
Y9063D02*
Y16937D01*
X92507Y9063D02*
Y16937D01*
X88637Y49643D02*
Y63028D01*
X80763Y49643D02*
Y63028D01*
X88637D01*
X80763Y49643D02*
X88637D01*
X80269Y48260D02*
Y55740D01*
X76332Y48260D02*
Y55740D01*
X80269D01*
X76332Y48260D02*
X80269D01*
X172157Y57628D02*
X179243D01*
X172157Y61172D02*
X179243D01*
Y57628D02*
Y61172D01*
X172157Y57628D02*
Y61172D01*
X44128Y61357D02*
Y68443D01*
X47672Y61357D02*
Y68443D01*
X44128Y61357D02*
X47672D01*
X44128Y68443D02*
X47672D01*
X66057Y111628D02*
Y115172D01*
X73143Y111628D02*
Y115172D01*
X66057D02*
X73143D01*
X66057Y111628D02*
X73143D01*
X66057Y103128D02*
Y106672D01*
X73143Y103128D02*
Y106672D01*
X66057D02*
X73143D01*
X66057Y103128D02*
X73143D01*
X48757Y73172D02*
X55843D01*
X48757Y69628D02*
X55843D01*
X48757D02*
Y73172D01*
X55843Y69628D02*
Y73172D01*
X48560Y65431D02*
X56040D01*
X48560Y69368D02*
X56040D01*
Y65431D02*
Y69368D01*
X48560Y65431D02*
Y69368D01*
Y60431D02*
X56040D01*
X48560Y64368D02*
X56040D01*
Y60431D02*
Y64368D01*
X48560Y60431D02*
Y64368D01*
X44560Y55431D02*
X52040D01*
X44560Y59368D02*
X52040D01*
Y55431D02*
Y59368D01*
X44560Y55431D02*
Y59368D01*
X128672Y55657D02*
Y62743D01*
X125128Y55657D02*
Y62743D01*
X128672D01*
X125128Y55657D02*
X128672D01*
X117672D02*
Y62743D01*
X114128Y55657D02*
Y62743D01*
X117672D01*
X114128Y55657D02*
X117672D01*
X139672D02*
Y62743D01*
X136128Y55657D02*
Y62743D01*
X139672D01*
X136128Y55657D02*
X139672D01*
X150672D02*
Y62743D01*
X147128Y55657D02*
Y62743D01*
X150672D01*
X147128Y55657D02*
X150672D01*
X58807Y1063D02*
Y8937D01*
X72193Y1063D02*
Y8937D01*
X58807D02*
X72193D01*
X58807Y1063D02*
X72193D01*
X43367Y49073D02*
Y70727D01*
X14233Y49073D02*
Y70727D01*
Y49073D02*
X43367D01*
X14233Y70727D02*
X43367D01*
X59087Y142732D02*
Y159268D01*
X44913Y142732D02*
Y159268D01*
X59087D01*
X44913Y142732D02*
X59087D01*
M02*
