G04*
G04 #@! TF.GenerationSoftware,Altium Limited,Altium Designer,19.1.8 (144)*
G04*
G04 Layer_Color=8421504*
%FSLAX25Y25*%
%MOIN*%
G70*
G01*
G75*
%ADD16C,0.00050*%
%ADD17C,0.00000*%
%ADD18R,0.05709X0.03543*%
%ADD19R,0.03543X0.05709*%
%ADD20R,0.06496X0.05118*%
%ADD21R,0.02165X0.02165*%
%ADD22O,0.05906X0.02165*%
%ADD23O,0.02165X0.05906*%
%ADD24R,0.02165X0.02165*%
%ADD25R,0.07480X0.06693*%
%ADD26R,0.08268X0.22047*%
%ADD27R,0.06300X0.05500*%
%ADD28R,0.15945X0.15945*%
%ADD29O,0.00787X0.03347*%
%ADD30O,0.03347X0.00787*%
%ADD31O,0.06102X0.01772*%
%ADD32R,0.06693X0.07480*%
%ADD33R,0.13386X0.07480*%
%ADD34R,0.05500X0.06300*%
%ADD35R,0.02598X0.02441*%
%ADD36R,0.02441X0.02598*%
%ADD37R,0.04606X0.05787*%
%ADD38R,0.05787X0.04606*%
%ADD39O,0.05709X0.02362*%
%ADD40O,0.01968X0.03937*%
D16*
X0Y195000D02*
X80000D01*
X205000Y0D02*
X210000D01*
Y180000D01*
X205000D02*
X210000D01*
X95000D02*
X205000D01*
X0Y0D02*
X205000D01*
X80000Y195000D02*
X95000Y180000D01*
X0Y0D02*
Y195000D01*
D17*
X38941Y128425D02*
Y131575D01*
X31461D02*
X38941D01*
X31461Y128425D02*
Y131575D01*
Y128425D02*
X38941D01*
X20240Y157559D02*
Y160709D01*
X12760D02*
X20240D01*
X12760Y157559D02*
Y160709D01*
Y157559D02*
X20240D01*
X38941D02*
Y160709D01*
X31461D02*
X38941D01*
X31461Y157559D02*
Y160709D01*
Y157559D02*
X38941D01*
X20240Y128425D02*
Y131575D01*
X12760D02*
X20240D01*
X12760Y128425D02*
Y131575D01*
Y128425D02*
X20240D01*
D18*
X107300Y110265D02*
D03*
Y118335D02*
D03*
X106600Y50535D02*
D03*
Y42465D02*
D03*
X67000Y19965D02*
D03*
Y28035D02*
D03*
X92800Y60435D02*
D03*
Y52365D02*
D03*
X84700Y60371D02*
D03*
Y52300D02*
D03*
D19*
X47565Y89200D02*
D03*
X55635D02*
D03*
X47565Y97100D02*
D03*
X55635D02*
D03*
X169865Y44900D02*
D03*
X177935D02*
D03*
X169893Y37000D02*
D03*
X177964D02*
D03*
X169965Y29000D02*
D03*
X178035D02*
D03*
X169965Y21000D02*
D03*
X178035D02*
D03*
X169965Y13000D02*
D03*
X178035D02*
D03*
X102735Y4900D02*
D03*
X94665D02*
D03*
X80765D02*
D03*
X88835D02*
D03*
X61465Y5000D02*
D03*
X69535D02*
D03*
D20*
X196800Y110878D02*
D03*
Y121902D02*
D03*
Y95524D02*
D03*
Y84500D02*
D03*
D21*
X168972Y70800D02*
D03*
X165428D02*
D03*
X168972Y63700D02*
D03*
X165428D02*
D03*
X146472Y115400D02*
D03*
X142928D02*
D03*
X2378Y109500D02*
D03*
X5922D02*
D03*
X142472Y122200D02*
D03*
X138928D02*
D03*
X120872Y122100D02*
D03*
X117328D02*
D03*
X98972D02*
D03*
X95428D02*
D03*
X52272Y79500D02*
D03*
X48728D02*
D03*
X52272Y83000D02*
D03*
X48728D02*
D03*
X177472Y51400D02*
D03*
X173928D02*
D03*
X177472Y55400D02*
D03*
X173928D02*
D03*
X71672Y15300D02*
D03*
X68128D02*
D03*
X68128Y11600D02*
D03*
X71672D02*
D03*
X177472Y59400D02*
D03*
X173928D02*
D03*
X67828Y113400D02*
D03*
X71372D02*
D03*
X67828Y104900D02*
D03*
X71372D02*
D03*
X50528Y71400D02*
D03*
X54072D02*
D03*
D22*
X115168Y81276D02*
D03*
Y84426D02*
D03*
Y87576D02*
D03*
Y90725D02*
D03*
Y93875D02*
D03*
Y97024D02*
D03*
Y100174D02*
D03*
Y103324D02*
D03*
X148632D02*
D03*
Y100174D02*
D03*
Y97024D02*
D03*
Y93875D02*
D03*
Y90725D02*
D03*
Y87576D02*
D03*
Y84426D02*
D03*
Y81276D02*
D03*
D23*
X120876Y109032D02*
D03*
X124026D02*
D03*
X127176D02*
D03*
X130325D02*
D03*
X133475D02*
D03*
X136624D02*
D03*
X139774D02*
D03*
X142924D02*
D03*
Y75568D02*
D03*
X139774D02*
D03*
X136624D02*
D03*
X133475D02*
D03*
X130325D02*
D03*
X127176D02*
D03*
X124026D02*
D03*
X120876D02*
D03*
D24*
X108900Y67172D02*
D03*
Y63628D02*
D03*
X159900Y57428D02*
D03*
Y60972D02*
D03*
X68000Y72857D02*
D03*
Y76400D02*
D03*
X45900Y63128D02*
D03*
Y66672D02*
D03*
X126900Y60972D02*
D03*
Y57428D02*
D03*
X115900Y60972D02*
D03*
Y57428D02*
D03*
X137900Y60972D02*
D03*
Y57428D02*
D03*
X148900Y60972D02*
D03*
Y57428D02*
D03*
D25*
X34874Y176123D02*
D03*
Y188123D02*
D03*
X5874Y176123D02*
D03*
Y188123D02*
D03*
X44026Y188177D02*
D03*
Y176177D02*
D03*
X73026Y188177D02*
D03*
Y176177D02*
D03*
D26*
X181000Y121902D02*
D03*
Y84500D02*
D03*
D27*
X157300Y108600D02*
D03*
Y120400D02*
D03*
X159900Y38300D02*
D03*
Y50100D02*
D03*
X148900Y38300D02*
D03*
Y50100D02*
D03*
X137900Y38300D02*
D03*
Y50100D02*
D03*
X126900Y38300D02*
D03*
Y50100D02*
D03*
X115900Y38300D02*
D03*
Y50100D02*
D03*
X74500Y76400D02*
D03*
Y64600D02*
D03*
D28*
X87000Y33500D02*
D03*
D29*
X78339Y45213D02*
D03*
X79913D02*
D03*
X81488D02*
D03*
X83063D02*
D03*
X84638D02*
D03*
X86213D02*
D03*
X87787D02*
D03*
X89362D02*
D03*
X90937D02*
D03*
X92512D02*
D03*
X94087D02*
D03*
X95661D02*
D03*
Y21787D02*
D03*
X94087D02*
D03*
X92512D02*
D03*
X90937D02*
D03*
X89362D02*
D03*
X87787D02*
D03*
X86213D02*
D03*
X84638D02*
D03*
X83063D02*
D03*
X81488D02*
D03*
X79913D02*
D03*
X78339D02*
D03*
D30*
X98713Y42161D02*
D03*
Y40587D02*
D03*
Y39012D02*
D03*
Y37437D02*
D03*
Y35862D02*
D03*
Y34287D02*
D03*
Y32713D02*
D03*
Y31138D02*
D03*
Y29563D02*
D03*
Y27988D02*
D03*
Y26413D02*
D03*
Y24839D02*
D03*
X75287D02*
D03*
Y26413D02*
D03*
Y27988D02*
D03*
Y29563D02*
D03*
Y31138D02*
D03*
Y32713D02*
D03*
Y34287D02*
D03*
Y35862D02*
D03*
Y37437D02*
D03*
Y39012D02*
D03*
Y40587D02*
D03*
Y42161D02*
D03*
D31*
X12525Y116134D02*
D03*
Y113575D02*
D03*
Y111016D02*
D03*
Y108457D02*
D03*
Y105898D02*
D03*
Y103339D02*
D03*
Y100779D02*
D03*
Y98220D02*
D03*
Y95661D02*
D03*
Y93102D02*
D03*
Y90543D02*
D03*
Y87984D02*
D03*
Y85425D02*
D03*
Y82866D02*
D03*
X40675Y116134D02*
D03*
Y113575D02*
D03*
Y111016D02*
D03*
Y108457D02*
D03*
Y105898D02*
D03*
Y103339D02*
D03*
Y100779D02*
D03*
Y98220D02*
D03*
Y95661D02*
D03*
Y93102D02*
D03*
Y90543D02*
D03*
Y87984D02*
D03*
Y85425D02*
D03*
Y82866D02*
D03*
D32*
X142323Y129826D02*
D03*
X154323D02*
D03*
X142323Y158826D02*
D03*
X154323D02*
D03*
X120923Y129626D02*
D03*
X132923D02*
D03*
X120923Y158626D02*
D03*
X132923D02*
D03*
X98923Y129526D02*
D03*
X110923D02*
D03*
X98923Y158526D02*
D03*
X110923D02*
D03*
D33*
X68000Y163677D02*
D03*
Y148323D02*
D03*
D34*
X50600Y104900D02*
D03*
X62400D02*
D03*
X50600Y113400D02*
D03*
X62400D02*
D03*
D35*
X2468Y113575D02*
D03*
X5932D02*
D03*
X177432Y63400D02*
D03*
X173968D02*
D03*
X54032Y67400D02*
D03*
X50568D02*
D03*
X54032Y62400D02*
D03*
X50568D02*
D03*
X50032Y57400D02*
D03*
X46568D02*
D03*
D36*
X68000Y64600D02*
D03*
Y68065D02*
D03*
X78300Y53732D02*
D03*
Y50268D02*
D03*
D37*
X80875Y13000D02*
D03*
X87725D02*
D03*
X102625D02*
D03*
X95775D02*
D03*
D38*
X106600Y29275D02*
D03*
Y36125D02*
D03*
D39*
X39528Y52400D02*
D03*
Y57400D02*
D03*
Y62400D02*
D03*
Y67400D02*
D03*
X18072Y52400D02*
D03*
Y57400D02*
D03*
Y62400D02*
D03*
Y67400D02*
D03*
D40*
X55740Y156315D02*
D03*
X52000D02*
D03*
X48260D02*
D03*
X55740Y145685D02*
D03*
X52000D02*
D03*
X48260D02*
D03*
M02*
