G04*
G04 #@! TF.GenerationSoftware,Altium Limited,Altium Designer,19.1.8 (144)*
G04*
G04 Layer_Color=8388736*
%FSLAX25Y25*%
%MOIN*%
G70*
G01*
G75*
%ADD16C,0.00050*%
%ADD17C,0.00000*%
%ADD41R,0.06509X0.04343*%
%ADD42R,0.04343X0.06509*%
%ADD43R,0.07296X0.05918*%
%ADD44R,0.02965X0.02965*%
%ADD45O,0.06299X0.02559*%
%ADD46O,0.02559X0.06299*%
%ADD47R,0.02965X0.02965*%
%ADD48R,0.08280X0.07493*%
%ADD49R,0.09068X0.22847*%
%ADD50R,0.07100X0.06300*%
%ADD51R,0.16745X0.16745*%
%ADD52O,0.01181X0.03740*%
%ADD53O,0.03740X0.01181*%
%ADD54O,0.06496X0.02165*%
%ADD55R,0.07493X0.08280*%
%ADD56R,0.14186X0.08280*%
%ADD57R,0.06300X0.07100*%
%ADD58R,0.03398X0.03241*%
%ADD59R,0.03241X0.03398*%
%ADD60R,0.05406X0.06587*%
%ADD61R,0.06587X0.05406*%
%ADD62O,0.06509X0.03162*%
%ADD63O,0.02769X0.04737*%
%ADD64C,0.05150*%
%ADD65O,0.11099X0.11099*%
%ADD66C,0.11099*%
%ADD67C,0.07800*%
%ADD68C,0.10249*%
%ADD69C,0.03300*%
%ADD70C,0.02900*%
%ADD71C,0.03800*%
D16*
X0Y195000D02*
X80000D01*
X205000Y0D02*
X210000D01*
Y180000D01*
X205000D02*
X210000D01*
X95000D02*
X205000D01*
X0Y0D02*
X205000D01*
X80000Y195000D02*
X95000Y180000D01*
X0Y0D02*
Y195000D01*
D17*
X38941Y128425D02*
Y131575D01*
X31461D02*
X38941D01*
X31461Y128425D02*
Y131575D01*
Y128425D02*
X38941D01*
X20240Y157559D02*
Y160709D01*
X12760D02*
X20240D01*
X12760Y157559D02*
Y160709D01*
Y157559D02*
X20240D01*
X38941D02*
Y160709D01*
X31461D02*
X38941D01*
X31461Y157559D02*
Y160709D01*
Y157559D02*
X38941D01*
X20240Y128425D02*
Y131575D01*
X12760D02*
X20240D01*
X12760Y128425D02*
Y131575D01*
Y128425D02*
X20240D01*
D41*
X107300Y110265D02*
D03*
Y118335D02*
D03*
X106600Y50535D02*
D03*
Y42465D02*
D03*
X67000Y19965D02*
D03*
Y28035D02*
D03*
X92800Y60435D02*
D03*
Y52365D02*
D03*
X84700Y60371D02*
D03*
Y52300D02*
D03*
D42*
X47565Y89200D02*
D03*
X55635D02*
D03*
X47565Y97100D02*
D03*
X55635D02*
D03*
X169865Y44900D02*
D03*
X177935D02*
D03*
X169893Y37000D02*
D03*
X177964D02*
D03*
X169965Y29000D02*
D03*
X178035D02*
D03*
X169965Y21000D02*
D03*
X178035D02*
D03*
X169965Y13000D02*
D03*
X178035D02*
D03*
X102735Y4900D02*
D03*
X94665D02*
D03*
X80765D02*
D03*
X88835D02*
D03*
X61465Y5000D02*
D03*
X69535D02*
D03*
D43*
X196800Y110878D02*
D03*
Y121902D02*
D03*
Y95524D02*
D03*
Y84500D02*
D03*
D44*
X168972Y70800D02*
D03*
X165428D02*
D03*
X168972Y63700D02*
D03*
X165428D02*
D03*
X146472Y115400D02*
D03*
X142928D02*
D03*
X2378Y109500D02*
D03*
X5922D02*
D03*
X142472Y122200D02*
D03*
X138928D02*
D03*
X120872Y122100D02*
D03*
X117328D02*
D03*
X98972D02*
D03*
X95428D02*
D03*
X52272Y79500D02*
D03*
X48728D02*
D03*
X52272Y83000D02*
D03*
X48728D02*
D03*
X177472Y51400D02*
D03*
X173928D02*
D03*
X177472Y55400D02*
D03*
X173928D02*
D03*
X71672Y15300D02*
D03*
X68128D02*
D03*
X68128Y11600D02*
D03*
X71672D02*
D03*
X177472Y59400D02*
D03*
X173928D02*
D03*
X67828Y113400D02*
D03*
X71372D02*
D03*
X67828Y104900D02*
D03*
X71372D02*
D03*
X50528Y71400D02*
D03*
X54072D02*
D03*
D45*
X115168Y81276D02*
D03*
Y84426D02*
D03*
Y87576D02*
D03*
Y90725D02*
D03*
Y93875D02*
D03*
Y97024D02*
D03*
Y100174D02*
D03*
Y103324D02*
D03*
X148632D02*
D03*
Y100174D02*
D03*
Y97024D02*
D03*
Y93875D02*
D03*
Y90725D02*
D03*
Y87576D02*
D03*
Y84426D02*
D03*
Y81276D02*
D03*
D46*
X120876Y109032D02*
D03*
X124026D02*
D03*
X127176D02*
D03*
X130325D02*
D03*
X133475D02*
D03*
X136624D02*
D03*
X139774D02*
D03*
X142924D02*
D03*
Y75568D02*
D03*
X139774D02*
D03*
X136624D02*
D03*
X133475D02*
D03*
X130325D02*
D03*
X127176D02*
D03*
X124026D02*
D03*
X120876D02*
D03*
D47*
X108900Y67172D02*
D03*
Y63628D02*
D03*
X159900Y57428D02*
D03*
Y60972D02*
D03*
X68000Y72857D02*
D03*
Y76400D02*
D03*
X45900Y63128D02*
D03*
Y66672D02*
D03*
X126900Y60972D02*
D03*
Y57428D02*
D03*
X115900Y60972D02*
D03*
Y57428D02*
D03*
X137900Y60972D02*
D03*
Y57428D02*
D03*
X148900Y60972D02*
D03*
Y57428D02*
D03*
D48*
X34874Y176123D02*
D03*
Y188123D02*
D03*
X5874Y176123D02*
D03*
Y188123D02*
D03*
X44026Y188177D02*
D03*
Y176177D02*
D03*
X73026Y188177D02*
D03*
Y176177D02*
D03*
D49*
X181000Y121902D02*
D03*
Y84500D02*
D03*
D50*
X157300Y108600D02*
D03*
Y120400D02*
D03*
X159900Y38300D02*
D03*
Y50100D02*
D03*
X148900Y38300D02*
D03*
Y50100D02*
D03*
X137900Y38300D02*
D03*
Y50100D02*
D03*
X126900Y38300D02*
D03*
Y50100D02*
D03*
X115900Y38300D02*
D03*
Y50100D02*
D03*
X74500Y76400D02*
D03*
Y64600D02*
D03*
D51*
X87000Y33500D02*
D03*
D52*
X78339Y45213D02*
D03*
X79913D02*
D03*
X81488D02*
D03*
X83063D02*
D03*
X84638D02*
D03*
X86213D02*
D03*
X87787D02*
D03*
X89362D02*
D03*
X90937D02*
D03*
X92512D02*
D03*
X94087D02*
D03*
X95661D02*
D03*
Y21787D02*
D03*
X94087D02*
D03*
X92512D02*
D03*
X90937D02*
D03*
X89362D02*
D03*
X87787D02*
D03*
X86213D02*
D03*
X84638D02*
D03*
X83063D02*
D03*
X81488D02*
D03*
X79913D02*
D03*
X78339D02*
D03*
D53*
X98713Y42161D02*
D03*
Y40587D02*
D03*
Y39012D02*
D03*
Y37437D02*
D03*
Y35862D02*
D03*
Y34287D02*
D03*
Y32713D02*
D03*
Y31138D02*
D03*
Y29563D02*
D03*
Y27988D02*
D03*
Y26413D02*
D03*
Y24839D02*
D03*
X75287D02*
D03*
Y26413D02*
D03*
Y27988D02*
D03*
Y29563D02*
D03*
Y31138D02*
D03*
Y32713D02*
D03*
Y34287D02*
D03*
Y35862D02*
D03*
Y37437D02*
D03*
Y39012D02*
D03*
Y40587D02*
D03*
Y42161D02*
D03*
D54*
X12525Y116134D02*
D03*
Y113575D02*
D03*
Y111016D02*
D03*
Y108457D02*
D03*
Y105898D02*
D03*
Y103339D02*
D03*
Y100779D02*
D03*
Y98220D02*
D03*
Y95661D02*
D03*
Y93102D02*
D03*
Y90543D02*
D03*
Y87984D02*
D03*
Y85425D02*
D03*
Y82866D02*
D03*
X40675Y116134D02*
D03*
Y113575D02*
D03*
Y111016D02*
D03*
Y108457D02*
D03*
Y105898D02*
D03*
Y103339D02*
D03*
Y100779D02*
D03*
Y98220D02*
D03*
Y95661D02*
D03*
Y93102D02*
D03*
Y90543D02*
D03*
Y87984D02*
D03*
Y85425D02*
D03*
Y82866D02*
D03*
D55*
X142323Y129826D02*
D03*
X154323D02*
D03*
X142323Y158826D02*
D03*
X154323D02*
D03*
X120923Y129626D02*
D03*
X132923D02*
D03*
X120923Y158626D02*
D03*
X132923D02*
D03*
X98923Y129526D02*
D03*
X110923D02*
D03*
X98923Y158526D02*
D03*
X110923D02*
D03*
D56*
X68000Y163677D02*
D03*
Y148323D02*
D03*
D57*
X50600Y104900D02*
D03*
X62400D02*
D03*
X50600Y113400D02*
D03*
X62400D02*
D03*
D58*
X2468Y113575D02*
D03*
X5932D02*
D03*
X177432Y63400D02*
D03*
X173968D02*
D03*
X54032Y67400D02*
D03*
X50568D02*
D03*
X54032Y62400D02*
D03*
X50568D02*
D03*
X50032Y57400D02*
D03*
X46568D02*
D03*
D59*
X68000Y64600D02*
D03*
Y68065D02*
D03*
X78300Y53732D02*
D03*
Y50268D02*
D03*
D60*
X80875Y13000D02*
D03*
X87725D02*
D03*
X102625D02*
D03*
X95775D02*
D03*
D61*
X106600Y29275D02*
D03*
Y36125D02*
D03*
D62*
X39528Y52400D02*
D03*
Y57400D02*
D03*
Y62400D02*
D03*
Y67400D02*
D03*
X18072Y52400D02*
D03*
Y57400D02*
D03*
Y62400D02*
D03*
Y67400D02*
D03*
D63*
X55740Y156315D02*
D03*
X52000D02*
D03*
X48260D02*
D03*
X55740Y145685D02*
D03*
X52000D02*
D03*
X48260D02*
D03*
D64*
X38744Y150866D02*
D03*
Y144567D02*
D03*
Y138268D02*
D03*
X34020Y147716D02*
D03*
Y141417D02*
D03*
D65*
X16500Y159134D02*
D03*
X35201D02*
D03*
Y130000D02*
D03*
D66*
X16500D02*
D03*
D67*
X94400Y82600D02*
D03*
X84400D02*
D03*
X94400Y92600D02*
D03*
X84400D02*
D03*
X94400Y102600D02*
D03*
X84400D02*
D03*
D68*
X55500Y28000D02*
D03*
X32000D02*
D03*
X43780Y9496D02*
D03*
D69*
X128400Y80600D02*
D03*
X142900Y79900D02*
D03*
X139800Y81600D02*
D03*
X158000Y86100D02*
D03*
X105600Y85700D02*
D03*
X109900Y81400D02*
D03*
X155500Y89300D02*
D03*
X142800Y90400D02*
D03*
X135900Y91300D02*
D03*
X109800Y77800D02*
D03*
X117700D02*
D03*
X127000Y97500D02*
D03*
X134500Y100000D02*
D03*
X140000D02*
D03*
X107000Y94000D02*
D03*
Y97500D02*
D03*
Y90500D02*
D03*
X92905Y27595D02*
D03*
X88968D02*
D03*
X85031D02*
D03*
X81094D02*
D03*
Y31532D02*
D03*
X92905D02*
D03*
Y35469D02*
D03*
Y39406D02*
D03*
X88968D02*
D03*
X85031D02*
D03*
X81094D02*
D03*
Y35469D02*
D03*
X88968Y31532D02*
D03*
X85031D02*
D03*
X88968Y35469D02*
D03*
X85031D02*
D03*
X121400Y38900D02*
D03*
X114400Y45400D02*
D03*
X59900Y85900D02*
D03*
Y76800D02*
D03*
X18800Y80800D02*
D03*
X6500Y78000D02*
D03*
X155300Y32200D02*
D03*
X160500Y31727D02*
D03*
X164900Y25800D02*
D03*
X154772Y26072D02*
D03*
X164700Y32000D02*
D03*
X170300Y55400D02*
D03*
X161000Y45400D02*
D03*
X101700Y71000D02*
D03*
X92300Y76800D02*
D03*
X95800Y73503D02*
D03*
X85300Y67200D02*
D03*
X63400Y46500D02*
D03*
Y37700D02*
D03*
X68100Y46500D02*
D03*
Y37800D02*
D03*
X71700Y34400D02*
D03*
X111600Y22500D02*
D03*
X65200Y79800D02*
D03*
X82800Y118900D02*
D03*
X80300Y127300D02*
D03*
X120923Y139677D02*
D03*
X98923Y139577D02*
D03*
X73500Y83000D02*
D03*
X104900Y63600D02*
D03*
X101400Y60100D02*
D03*
X91750Y18050D02*
D03*
X72500Y21100D02*
D03*
X19200Y108400D02*
D03*
X30750Y112750D02*
D03*
X111600Y32700D02*
D03*
X34100Y90543D02*
D03*
X34000Y98220D02*
D03*
X34100Y111016D02*
D03*
X19200Y100779D02*
D03*
D70*
X181000Y84500D02*
D03*
Y121902D02*
D03*
X157300Y108600D02*
D03*
X55635Y89200D02*
D03*
Y97100D02*
D03*
X142300Y139700D02*
D03*
X142323Y129826D02*
D03*
X159900Y38300D02*
D03*
X169865Y44900D02*
D03*
X177935D02*
D03*
X54100Y73900D02*
D03*
X177964Y37000D02*
D03*
X169893D02*
D03*
X174000Y67000D02*
D03*
X106600Y50535D02*
D03*
X75200Y53700D02*
D03*
X53200Y57400D02*
D03*
X64900Y65700D02*
D03*
X65000Y72900D02*
D03*
X110923Y158526D02*
D03*
X73026Y188177D02*
D03*
X44026D02*
D03*
X34826D02*
D03*
X5826D02*
D03*
X132923Y158626D02*
D03*
X154323Y158826D02*
D03*
Y129826D02*
D03*
X132923Y129626D02*
D03*
X110923Y129526D02*
D03*
X120923Y129626D02*
D03*
X98923Y129526D02*
D03*
X106600Y42465D02*
D03*
X88835Y4900D02*
D03*
X94665D02*
D03*
X178000Y13000D02*
D03*
Y21000D02*
D03*
Y29000D02*
D03*
X69535Y5000D02*
D03*
X92800Y60435D02*
D03*
X84700Y60371D02*
D03*
X126900Y38300D02*
D03*
X137900D02*
D03*
X148900D02*
D03*
X115900D02*
D03*
X102735Y4900D02*
D03*
X80765D02*
D03*
X67000Y19965D02*
D03*
X24500Y52400D02*
D03*
Y57400D02*
D03*
Y62400D02*
D03*
Y67300D02*
D03*
X52000Y141600D02*
D03*
D71*
X179800Y2200D02*
D03*
X175000D02*
D03*
X169965D02*
D03*
M02*
