G04*
G04 #@! TF.GenerationSoftware,Altium Limited,Altium Designer,19.1.8 (144)*
G04*
G04 Layer_Color=12632256*
%FSLAX25Y25*%
%MOIN*%
G70*
G01*
G75*
%ADD16C,0.00050*%
%ADD17C,0.00000*%
%ADD73C,0.04756*%
%ADD74O,0.10299X0.10299*%
%ADD75C,0.10299*%
%ADD76C,0.07000*%
%ADD77C,0.09449*%
D16*
X0Y195000D02*
X80000D01*
X205000Y0D02*
X210000D01*
Y180000D01*
X205000D02*
X210000D01*
X95000D02*
X205000D01*
X0Y0D02*
X205000D01*
X80000Y195000D02*
X95000Y180000D01*
X0Y0D02*
Y195000D01*
D17*
X38941Y128425D02*
Y131575D01*
X31461D02*
X38941D01*
X31461Y128425D02*
Y131575D01*
Y128425D02*
X38941D01*
X20240Y157559D02*
Y160709D01*
X12760D02*
X20240D01*
X12760Y157559D02*
Y160709D01*
Y157559D02*
X20240D01*
X38941D02*
Y160709D01*
X31461D02*
X38941D01*
X31461Y157559D02*
Y160709D01*
Y157559D02*
X38941D01*
X20240Y128425D02*
Y131575D01*
X12760D02*
X20240D01*
X12760Y128425D02*
Y131575D01*
Y128425D02*
X20240D01*
D73*
X38744Y150866D02*
D03*
Y144567D02*
D03*
Y138268D02*
D03*
X34020Y147716D02*
D03*
Y141417D02*
D03*
D74*
X16500Y159134D02*
D03*
X35201D02*
D03*
Y130000D02*
D03*
D75*
X16500D02*
D03*
D76*
X94400Y82600D02*
D03*
X84400D02*
D03*
X94400Y92600D02*
D03*
X84400D02*
D03*
X94400Y102600D02*
D03*
X84400D02*
D03*
D77*
X55500Y28000D02*
D03*
X32000D02*
D03*
X43780Y9496D02*
D03*
M02*
