G04*
G04 #@! TF.GenerationSoftware,Altium Limited,Altium Designer,19.1.9 (167)*
G04*
G04 Layer_Color=32896*
%FSLAX25Y25*%
%MOIN*%
G70*
G01*
G75*
%ADD10C,0.00984*%
%ADD11C,0.00100*%
%ADD12C,0.00787*%
%ADD14C,0.01000*%
%ADD15C,0.00300*%
%ADD135C,0.00500*%
D10*
X320431Y23510D02*
G03*
X320431Y23510I-492J0D01*
G01*
X122004Y100587D02*
G03*
X122004Y100587I-492J0D01*
G01*
X200799Y46404D02*
G03*
X200799Y46404I-492J0D01*
G01*
X320131Y81010D02*
G03*
X320131Y81010I-492J0D01*
G01*
X42764Y62154D02*
G03*
X42764Y62154I-492J0D01*
G01*
D11*
X167800Y12100D02*
G03*
X167800Y12100I-5000J0D01*
G01*
X166400D02*
G03*
X166400Y12100I-3600J0D01*
G01*
X262506Y22217D02*
G03*
X262506Y22217I-5000J0D01*
G01*
X261105D02*
G03*
X261105Y22217I-3600J0D01*
G01*
X-788Y210334D02*
X26771D01*
Y180020D02*
Y210334D01*
X-788Y180020D02*
X26771D01*
X-788D02*
Y210334D01*
X167823Y164210D02*
X191445D01*
X167823D02*
Y177990D01*
X191445D01*
Y164210D02*
Y177990D01*
X125000Y33500D02*
Y83500D01*
X155000D01*
Y33500D02*
Y83500D01*
X125000Y33500D02*
X155000D01*
X329167Y95047D02*
Y100953D01*
X325033D02*
X329167D01*
X325033Y95047D02*
Y100953D01*
Y95047D02*
X329167D01*
X330467Y36147D02*
Y42053D01*
X326333D02*
X330467D01*
X326333Y36147D02*
Y42053D01*
Y36147D02*
X330467D01*
X10035Y128583D02*
X15535D01*
X10035Y121583D02*
Y128583D01*
X17535Y121583D02*
X23035D01*
Y122083D01*
Y128583D01*
X17535D02*
X23035D01*
X16935Y123583D02*
Y126583D01*
X16235Y123583D02*
Y126583D01*
X10035Y121583D02*
X15535D01*
X234034Y76926D02*
Y134176D01*
X269234D01*
Y76926D02*
Y134176D01*
X234034Y76926D02*
X269234D01*
D12*
X324072Y36502D02*
X333128D01*
X324072Y24298D02*
X333128D01*
X114032Y87398D02*
Y99602D01*
X117968Y87398D02*
Y99602D01*
X114032Y87398D02*
X117968D01*
X114032Y99602D02*
X117968D01*
X202866Y46601D02*
Y59199D01*
X211134Y46601D02*
Y59199D01*
X202866Y46601D02*
X211134D01*
X202866Y59199D02*
X211134D01*
X323772Y94002D02*
X332828D01*
X323772Y81798D02*
X332828D01*
X46701Y82842D02*
X59299D01*
X46701Y63157D02*
X59299D01*
Y82842D01*
X46701Y63157D02*
Y82842D01*
X92213Y136539D02*
X93787D01*
X92213Y141461D02*
X93787D01*
X90139Y172113D02*
Y173687D01*
X95061Y172113D02*
Y173687D01*
X268113Y72039D02*
X269687D01*
X268113Y76961D02*
X269687D01*
X211939Y81713D02*
Y83287D01*
X216861Y81713D02*
Y83287D01*
X135913Y95461D02*
X137487D01*
X135913Y90539D02*
X137487D01*
X135913Y122461D02*
X137487D01*
X135913Y117539D02*
X137487D01*
X135913Y110961D02*
X137487D01*
X135913Y106039D02*
X137487D01*
X268113Y134339D02*
X269687D01*
X268113Y139261D02*
X269687D01*
X135913Y151839D02*
X137487D01*
X135913Y156761D02*
X137487D01*
X85039Y74713D02*
Y76287D01*
X89961Y74713D02*
Y76287D01*
X100039Y59713D02*
Y61287D01*
X104961Y59713D02*
Y61287D01*
X100039Y74713D02*
Y76287D01*
X104961Y74713D02*
Y76287D01*
X97461Y74713D02*
Y76287D01*
X92539Y74713D02*
Y76287D01*
Y59713D02*
Y61287D01*
X97461Y59713D02*
Y61287D01*
X82461Y59713D02*
Y61287D01*
X77539Y59713D02*
Y61287D01*
X82461Y74713D02*
Y76287D01*
X77539Y74713D02*
Y76287D01*
X31213Y43539D02*
X32787D01*
X31213Y48461D02*
X32787D01*
D14*
X333200Y46200D02*
Y52198D01*
X330201D01*
X329201Y51198D01*
Y49199D01*
X330201Y48199D01*
X333200D01*
X331201D02*
X329201Y46200D01*
X327202Y52198D02*
X323203D01*
Y51198D01*
X327202Y47200D01*
Y46200D01*
X317205Y52198D02*
X319205Y51198D01*
X321204Y49199D01*
Y47200D01*
X320204Y46200D01*
X318205D01*
X317205Y47200D01*
Y48199D01*
X318205Y49199D01*
X321204D01*
X357400Y46600D02*
Y52598D01*
X354401D01*
X353401Y51598D01*
Y49599D01*
X354401Y48599D01*
X357400D01*
X355401D02*
X353401Y46600D01*
X351402Y52598D02*
X347403D01*
Y51598D01*
X351402Y47600D01*
Y46600D01*
X341405Y52598D02*
X345404D01*
Y49599D01*
X343405Y50599D01*
X342405D01*
X341405Y49599D01*
Y47600D01*
X342405Y46600D01*
X344404D01*
X345404Y47600D01*
X335100Y46598D02*
X333101D01*
X334100D01*
Y40600D01*
X335100D01*
X333101D01*
X326103Y45598D02*
X327103Y46598D01*
X329102D01*
X330102Y45598D01*
Y41600D01*
X329102Y40600D01*
X327103D01*
X326103Y41600D01*
X324104Y40600D02*
X322104D01*
X323104D01*
Y46598D01*
X324104Y45598D01*
X319105Y40600D02*
X317106D01*
X318106D01*
Y46598D01*
X319105Y45598D01*
D15*
X168000Y89400D02*
X170299D01*
Y90550D01*
X169916Y90933D01*
X169150D01*
X168766Y90550D01*
Y89400D01*
Y90166D02*
X168000Y90933D01*
Y91699D02*
Y92466D01*
Y92083D01*
X170299D01*
X169916Y91699D01*
X170299Y95148D02*
X169916Y94382D01*
X169150Y93615D01*
X168383D01*
X168000Y93998D01*
Y94765D01*
X168383Y95148D01*
X168766D01*
X169150Y94765D01*
Y93615D01*
X220116Y70133D02*
X220499Y69750D01*
Y68983D01*
X220116Y68600D01*
X218583D01*
X218200Y68983D01*
Y69750D01*
X218583Y70133D01*
X218200Y70899D02*
Y71666D01*
Y71283D01*
X220499D01*
X220116Y70899D01*
Y72815D02*
X220499Y73198D01*
Y73965D01*
X220116Y74348D01*
X218583D01*
X218200Y73965D01*
Y73198D01*
X218583Y72815D01*
X220116D01*
X218583Y75115D02*
X218200Y75498D01*
Y76264D01*
X218583Y76647D01*
X220116D01*
X220499Y76264D01*
Y75498D01*
X220116Y75115D01*
X219733D01*
X219350Y75498D01*
Y76647D01*
X177416Y90933D02*
X177799Y90550D01*
Y89783D01*
X177416Y89400D01*
X175883D01*
X175500Y89783D01*
Y90550D01*
X175883Y90933D01*
Y91699D02*
X175500Y92083D01*
Y92849D01*
X175883Y93232D01*
X177416D01*
X177799Y92849D01*
Y92083D01*
X177416Y91699D01*
X177033D01*
X176650Y92083D01*
Y93232D01*
X177799Y93998D02*
Y95531D01*
X177416D01*
X175883Y93998D01*
X175500D01*
X210216Y70533D02*
X210599Y70150D01*
Y69383D01*
X210216Y69000D01*
X208683D01*
X208300Y69383D01*
Y70150D01*
X208683Y70533D01*
X210599Y72832D02*
Y71299D01*
X209450D01*
X209833Y72066D01*
Y72449D01*
X209450Y72832D01*
X208683D01*
X208300Y72449D01*
Y71683D01*
X208683Y71299D01*
X208300Y75131D02*
Y73598D01*
X209833Y75131D01*
X210216D01*
X210599Y74748D01*
Y73982D01*
X210216Y73598D01*
X159867Y106516D02*
X160250Y106899D01*
X161017D01*
X161400Y106516D01*
Y104983D01*
X161017Y104600D01*
X160250D01*
X159867Y104983D01*
X159101Y106516D02*
X158718Y106899D01*
X157951D01*
X157568Y106516D01*
Y106133D01*
X157951Y105750D01*
X158334D01*
X157951D01*
X157568Y105366D01*
Y104983D01*
X157951Y104600D01*
X158718D01*
X159101Y104983D01*
X156801Y106516D02*
X156418Y106899D01*
X155652D01*
X155269Y106516D01*
Y106133D01*
X155652Y105750D01*
X155269Y105366D01*
Y104983D01*
X155652Y104600D01*
X156418D01*
X156801Y104983D01*
Y105366D01*
X156418Y105750D01*
X156801Y106133D01*
Y106516D01*
X156418Y105750D02*
X155652D01*
X159867Y102516D02*
X160250Y102899D01*
X161017D01*
X161400Y102516D01*
Y100983D01*
X161017Y100600D01*
X160250D01*
X159867Y100983D01*
X159101Y102516D02*
X158718Y102899D01*
X157951D01*
X157568Y102516D01*
Y102133D01*
X157951Y101750D01*
X158334D01*
X157951D01*
X157568Y101366D01*
Y100983D01*
X157951Y100600D01*
X158718D01*
X159101Y100983D01*
X155269Y102899D02*
X156035Y102516D01*
X156801Y101750D01*
Y100983D01*
X156418Y100600D01*
X155652D01*
X155269Y100983D01*
Y101366D01*
X155652Y101750D01*
X156801D01*
X188716Y90933D02*
X189099Y90550D01*
Y89783D01*
X188716Y89400D01*
X187183D01*
X186800Y89783D01*
Y90550D01*
X187183Y90933D01*
X186800Y91699D02*
Y92466D01*
Y92083D01*
X189099D01*
X188716Y91699D01*
X186800Y94765D02*
X189099D01*
X187950Y93615D01*
Y95148D01*
X120500Y183500D02*
X122799D01*
Y184650D01*
X122416Y185033D01*
X121650D01*
X121266Y184650D01*
Y183500D01*
Y184266D02*
X120500Y185033D01*
Y185799D02*
Y186566D01*
Y186182D01*
X122799D01*
X122416Y185799D01*
X120883Y187715D02*
X120500Y188099D01*
Y188865D01*
X120883Y189248D01*
X122416D01*
X122799Y188865D01*
Y188099D01*
X122416Y187715D01*
X122033D01*
X121650Y188099D01*
Y189248D01*
X339300Y101600D02*
X341599D01*
Y102750D01*
X341216Y103133D01*
X340450D01*
X340066Y102750D01*
Y101600D01*
Y102366D02*
X339300Y103133D01*
Y105432D02*
Y103899D01*
X340833Y105432D01*
X341216D01*
X341599Y105049D01*
Y104282D01*
X341216Y103899D01*
X341599Y107731D02*
Y106199D01*
X340450D01*
X340833Y106965D01*
Y107348D01*
X340450Y107731D01*
X339683D01*
X339300Y107348D01*
Y106582D01*
X339683Y106199D01*
X262300Y31899D02*
X260767D01*
X261534D01*
Y29600D01*
X260001D02*
Y31899D01*
X258851D01*
X258468Y31516D01*
Y30750D01*
X258851Y30366D01*
X260001D01*
X256169Y31899D02*
X256935Y31516D01*
X257701Y30750D01*
Y29983D01*
X257318Y29600D01*
X256552D01*
X256169Y29983D01*
Y30366D01*
X256552Y30750D01*
X257701D01*
X167573Y21764D02*
X166040D01*
X166807D01*
Y19465D01*
X165274D02*
Y21764D01*
X164124D01*
X163741Y21381D01*
Y20614D01*
X164124Y20231D01*
X165274D01*
X162975Y21764D02*
X161442D01*
Y21381D01*
X162975Y19848D01*
Y19465D01*
X197014Y147544D02*
X197398Y147161D01*
Y146394D01*
X197014Y146011D01*
X195482D01*
X195098Y146394D01*
Y147161D01*
X195482Y147544D01*
X195098Y148310D02*
Y149077D01*
Y148694D01*
X197398D01*
X197014Y148310D01*
X195482Y150226D02*
X195098Y150610D01*
Y151376D01*
X195482Y151759D01*
X197014D01*
X197398Y151376D01*
Y150610D01*
X197014Y150226D01*
X196631D01*
X196248Y150610D01*
Y151759D01*
X201232Y77033D02*
X201615Y76650D01*
Y75883D01*
X201232Y75500D01*
X199699D01*
X199316Y75883D01*
Y76650D01*
X199699Y77033D01*
X199316Y79332D02*
Y77799D01*
X200849Y79332D01*
X201232D01*
X201615Y78949D01*
Y78183D01*
X201232Y77799D01*
Y80098D02*
X201615Y80482D01*
Y81248D01*
X201232Y81631D01*
X199699D01*
X199316Y81248D01*
Y80482D01*
X199699Y80098D01*
X201232D01*
X206200Y77033D02*
X206583Y76650D01*
Y75883D01*
X206200Y75500D01*
X204667D01*
X204284Y75883D01*
Y76650D01*
X204667Y77033D01*
X204284Y79332D02*
Y77799D01*
X205817Y79332D01*
X206200D01*
X206583Y78949D01*
Y78183D01*
X206200Y77799D01*
X204284Y80098D02*
Y80865D01*
Y80482D01*
X206583D01*
X206200Y80098D01*
X172767Y159416D02*
X173150Y159799D01*
X173917D01*
X174300Y159416D01*
Y157883D01*
X173917Y157500D01*
X173150D01*
X172767Y157883D01*
X170468Y157500D02*
X172001D01*
X170468Y159033D01*
Y159416D01*
X170851Y159799D01*
X171617D01*
X172001Y159416D01*
X168169Y157500D02*
X169702D01*
X168169Y159033D01*
Y159416D01*
X168552Y159799D01*
X169318D01*
X169702Y159416D01*
X153667Y187816D02*
X154050Y188199D01*
X154817D01*
X155200Y187816D01*
Y186283D01*
X154817Y185900D01*
X154050D01*
X153667Y186283D01*
X151368Y185900D02*
X152901D01*
X151368Y187433D01*
Y187816D01*
X151751Y188199D01*
X152517D01*
X152901Y187816D01*
X150601D02*
X150218Y188199D01*
X149452D01*
X149069Y187816D01*
Y187433D01*
X149452Y187050D01*
X149835D01*
X149452D01*
X149069Y186666D01*
Y186283D01*
X149452Y185900D01*
X150218D01*
X150601Y186283D01*
X223067Y112916D02*
X223450Y113299D01*
X224217D01*
X224600Y112916D01*
Y111383D01*
X224217Y111000D01*
X223450D01*
X223067Y111383D01*
X220768Y111000D02*
X222301D01*
X220768Y112533D01*
Y112916D01*
X221151Y113299D01*
X221918D01*
X222301Y112916D01*
X220002Y113299D02*
X218469D01*
Y112916D01*
X220002Y111383D01*
Y111000D01*
X220416Y58033D02*
X220799Y57650D01*
Y56883D01*
X220416Y56500D01*
X218883D01*
X218500Y56883D01*
Y57650D01*
X218883Y58033D01*
X220416Y58799D02*
X220799Y59183D01*
Y59949D01*
X220416Y60332D01*
X220033D01*
X219650Y59949D01*
Y59566D01*
Y59949D01*
X219266Y60332D01*
X218883D01*
X218500Y59949D01*
Y59183D01*
X218883Y58799D01*
X218500Y62631D02*
Y61098D01*
X220033Y62631D01*
X220416D01*
X220799Y62248D01*
Y61482D01*
X220416Y61098D01*
X338867Y47916D02*
X339250Y48299D01*
X340017D01*
X340400Y47916D01*
Y46383D01*
X340017Y46000D01*
X339250D01*
X338867Y46383D01*
X338101Y47916D02*
X337718Y48299D01*
X336951D01*
X336568Y47916D01*
Y47533D01*
X336951Y47150D01*
X337334D01*
X336951D01*
X336568Y46766D01*
Y46383D01*
X336951Y46000D01*
X337718D01*
X338101Y46383D01*
X334652Y46000D02*
Y48299D01*
X335802Y47150D01*
X334269D01*
X336916Y103133D02*
X337299Y102750D01*
Y101983D01*
X336916Y101600D01*
X335383D01*
X335000Y101983D01*
Y102750D01*
X335383Y103133D01*
X336916Y103899D02*
X337299Y104282D01*
Y105049D01*
X336916Y105432D01*
X336533D01*
X336150Y105049D01*
Y104666D01*
Y105049D01*
X335766Y105432D01*
X335383D01*
X335000Y105049D01*
Y104282D01*
X335383Y103899D01*
X337299Y107731D02*
Y106199D01*
X336150D01*
X336533Y106965D01*
Y107348D01*
X336150Y107731D01*
X335383D01*
X335000Y107348D01*
Y106582D01*
X335383Y106199D01*
X131567Y148616D02*
X131950Y148999D01*
X132717D01*
X133100Y148616D01*
Y147083D01*
X132717Y146700D01*
X131950D01*
X131567Y147083D01*
X129651Y146700D02*
Y148999D01*
X130801Y147850D01*
X129268D01*
X128501Y148616D02*
X128118Y148999D01*
X127352D01*
X126969Y148616D01*
Y147083D01*
X127352Y146700D01*
X128118D01*
X128501Y147083D01*
Y148616D01*
X183267Y149016D02*
X183650Y149399D01*
X184417D01*
X184800Y149016D01*
Y147483D01*
X184417Y147100D01*
X183650D01*
X183267Y147483D01*
X181351Y147100D02*
Y149399D01*
X182501Y148250D01*
X180968D01*
X180201Y147100D02*
X179435D01*
X179818D01*
Y149399D01*
X180201Y149016D01*
X197367Y139216D02*
X197750Y139599D01*
X198517D01*
X198900Y139216D01*
Y137683D01*
X198517Y137300D01*
X197750D01*
X197367Y137683D01*
X195451Y137300D02*
Y139599D01*
X196601Y138450D01*
X195068D01*
X192769Y137300D02*
X194301D01*
X192769Y138833D01*
Y139216D01*
X193152Y139599D01*
X193918D01*
X194301Y139216D01*
X269184Y194481D02*
X268801Y194864D01*
Y195630D01*
X269184Y196013D01*
X270717D01*
X271100Y195630D01*
Y194864D01*
X270717Y194481D01*
X271100Y192564D02*
X268801D01*
X269950Y193714D01*
Y192181D01*
X269184Y191415D02*
X268801Y191032D01*
Y190265D01*
X269184Y189882D01*
X269567D01*
X269950Y190265D01*
Y190648D01*
Y190265D01*
X270334Y189882D01*
X270717D01*
X271100Y190265D01*
Y191032D01*
X270717Y191415D01*
X131567Y145016D02*
X131950Y145399D01*
X132717D01*
X133100Y145016D01*
Y143483D01*
X132717Y143100D01*
X131950D01*
X131567Y143483D01*
X129651Y143100D02*
Y145399D01*
X130801Y144250D01*
X129268D01*
X127352Y143100D02*
Y145399D01*
X128501Y144250D01*
X126969D01*
X159867Y130116D02*
X160250Y130499D01*
X161017D01*
X161400Y130116D01*
Y128583D01*
X161017Y128200D01*
X160250D01*
X159867Y128583D01*
X157951Y128200D02*
Y130499D01*
X159101Y129350D01*
X157568D01*
X155269Y130499D02*
X156801D01*
Y129350D01*
X156035Y129733D01*
X155652D01*
X155269Y129350D01*
Y128583D01*
X155652Y128200D01*
X156418D01*
X156801Y128583D01*
X166823Y151560D02*
X167206Y151177D01*
Y150411D01*
X166823Y150028D01*
X165290D01*
X164907Y150411D01*
Y151177D01*
X165290Y151560D01*
X164907Y153476D02*
X167206D01*
X166057Y152327D01*
Y153860D01*
X167206Y156159D02*
X166823Y155393D01*
X166057Y154626D01*
X165290D01*
X164907Y155009D01*
Y155776D01*
X165290Y156159D01*
X165673D01*
X166057Y155776D01*
Y154626D01*
X159867Y122216D02*
X160250Y122599D01*
X161017D01*
X161400Y122216D01*
Y120683D01*
X161017Y120300D01*
X160250D01*
X159867Y120683D01*
X157951Y120300D02*
Y122599D01*
X159101Y121450D01*
X157568D01*
X156801Y122599D02*
X155269D01*
Y122216D01*
X156801Y120683D01*
Y120300D01*
X186751Y94766D02*
X187134Y95149D01*
X187901D01*
X188284Y94766D01*
Y93233D01*
X187901Y92850D01*
X187134D01*
X186751Y93233D01*
X184835Y92850D02*
Y95149D01*
X185985Y94000D01*
X184452D01*
X183685Y94766D02*
X183302Y95149D01*
X182536D01*
X182152Y94766D01*
Y94383D01*
X182536Y94000D01*
X182152Y93616D01*
Y93233D01*
X182536Y92850D01*
X183302D01*
X183685Y93233D01*
Y93616D01*
X183302Y94000D01*
X183685Y94383D01*
Y94766D01*
X183302Y94000D02*
X182536D01*
X179616Y109333D02*
X179999Y108950D01*
Y108183D01*
X179616Y107800D01*
X178083D01*
X177700Y108183D01*
Y108950D01*
X178083Y109333D01*
X177700Y111249D02*
X179999D01*
X178850Y110099D01*
Y111632D01*
X178083Y112399D02*
X177700Y112782D01*
Y113548D01*
X178083Y113931D01*
X179616D01*
X179999Y113548D01*
Y112782D01*
X179616Y112399D01*
X179233D01*
X178850Y112782D01*
Y113931D01*
X189592Y153616D02*
X189975Y153999D01*
X190741D01*
X191125Y153616D01*
Y152083D01*
X190741Y151700D01*
X189975D01*
X189592Y152083D01*
X187293Y153999D02*
X188825D01*
Y152850D01*
X188059Y153233D01*
X187676D01*
X187293Y152850D01*
Y152083D01*
X187676Y151700D01*
X188442D01*
X188825Y152083D01*
X186526Y153616D02*
X186143Y153999D01*
X185376D01*
X184993Y153616D01*
Y152083D01*
X185376Y151700D01*
X186143D01*
X186526Y152083D01*
Y153616D01*
X233367Y87116D02*
X233750Y87499D01*
X234517D01*
X234900Y87116D01*
Y85583D01*
X234517Y85200D01*
X233750D01*
X233367Y85583D01*
X231068Y87499D02*
X232601D01*
Y86350D01*
X231834Y86733D01*
X231451D01*
X231068Y86350D01*
Y85583D01*
X231451Y85200D01*
X232218D01*
X232601Y85583D01*
X230301Y85200D02*
X229535D01*
X229918D01*
Y87499D01*
X230301Y87116D01*
X207416Y90933D02*
X207799Y90550D01*
Y89783D01*
X207416Y89400D01*
X205883D01*
X205500Y89783D01*
Y90550D01*
X205883Y90933D01*
X207799Y93232D02*
Y91699D01*
X206650D01*
X207033Y92466D01*
Y92849D01*
X206650Y93232D01*
X205883D01*
X205500Y92849D01*
Y92083D01*
X205883Y91699D01*
X207416Y93998D02*
X207799Y94382D01*
Y95148D01*
X207416Y95531D01*
X207033D01*
X206650Y95148D01*
Y94765D01*
Y95148D01*
X206266Y95531D01*
X205883D01*
X205500Y95148D01*
Y94382D01*
X205883Y93998D01*
X197367Y120316D02*
X197750Y120699D01*
X198517D01*
X198900Y120316D01*
Y118783D01*
X198517Y118400D01*
X197750D01*
X197367Y118783D01*
X195068Y120699D02*
X196601D01*
Y119550D01*
X195834Y119933D01*
X195451D01*
X195068Y119550D01*
Y118783D01*
X195451Y118400D01*
X196218D01*
X196601Y118783D01*
X193152Y118400D02*
Y120699D01*
X194301Y119550D01*
X192769D01*
X197367Y126616D02*
X197750Y126999D01*
X198517D01*
X198900Y126616D01*
Y125083D01*
X198517Y124700D01*
X197750D01*
X197367Y125083D01*
X195068Y126999D02*
X196601D01*
Y125850D01*
X195834Y126233D01*
X195451D01*
X195068Y125850D01*
Y125083D01*
X195451Y124700D01*
X196218D01*
X196601Y125083D01*
X192769Y126999D02*
X194301D01*
Y125850D01*
X193535Y126233D01*
X193152D01*
X192769Y125850D01*
Y125083D01*
X193152Y124700D01*
X193918D01*
X194301Y125083D01*
X197367Y114016D02*
X197750Y114399D01*
X198517D01*
X198900Y114016D01*
Y112483D01*
X198517Y112100D01*
X197750D01*
X197367Y112483D01*
X195068Y114399D02*
X196601D01*
Y113250D01*
X195834Y113633D01*
X195451D01*
X195068Y113250D01*
Y112483D01*
X195451Y112100D01*
X196218D01*
X196601Y112483D01*
X192769Y114399D02*
X193535Y114016D01*
X194301Y113250D01*
Y112483D01*
X193918Y112100D01*
X193152D01*
X192769Y112483D01*
Y112866D01*
X193152Y113250D01*
X194301D01*
X197367Y132916D02*
X197750Y133299D01*
X198517D01*
X198900Y132916D01*
Y131383D01*
X198517Y131000D01*
X197750D01*
X197367Y131383D01*
X195068Y133299D02*
X196601D01*
Y132150D01*
X195834Y132533D01*
X195451D01*
X195068Y132150D01*
Y131383D01*
X195451Y131000D01*
X196218D01*
X196601Y131383D01*
X194301Y133299D02*
X192769D01*
Y132916D01*
X194301Y131383D01*
Y131000D01*
X270067Y142816D02*
X270450Y143199D01*
X271217D01*
X271600Y142816D01*
Y141283D01*
X271217Y140900D01*
X270450D01*
X270067Y141283D01*
X267768Y143199D02*
X269301D01*
Y142050D01*
X268534Y142433D01*
X268151D01*
X267768Y142050D01*
Y141283D01*
X268151Y140900D01*
X268917D01*
X269301Y141283D01*
X267002D02*
X266618Y140900D01*
X265852D01*
X265469Y141283D01*
Y142816D01*
X265852Y143199D01*
X266618D01*
X267002Y142816D01*
Y142433D01*
X266618Y142050D01*
X265469D01*
X206516Y198033D02*
X206899Y197650D01*
Y196883D01*
X206516Y196500D01*
X204983D01*
X204600Y196883D01*
Y197650D01*
X204983Y198033D01*
X206899Y200332D02*
X206516Y199566D01*
X205750Y198799D01*
X204983D01*
X204600Y199182D01*
Y199949D01*
X204983Y200332D01*
X205366D01*
X205750Y199949D01*
Y198799D01*
X206516Y201098D02*
X206899Y201482D01*
Y202248D01*
X206516Y202631D01*
X204983D01*
X204600Y202248D01*
Y201482D01*
X204983Y201098D01*
X206516D01*
X207187Y150102D02*
X207571Y149719D01*
Y148952D01*
X207187Y148569D01*
X205654D01*
X205271Y148952D01*
Y149719D01*
X205654Y150102D01*
X207571Y152401D02*
X207187Y151635D01*
X206421Y150869D01*
X205654D01*
X205271Y151252D01*
Y152018D01*
X205654Y152401D01*
X206038D01*
X206421Y152018D01*
Y150869D01*
X205271Y153168D02*
Y153934D01*
Y153551D01*
X207571D01*
X207187Y153168D01*
X164723Y150243D02*
X165106Y150627D01*
X165873D01*
X166256Y150243D01*
Y148711D01*
X165873Y148327D01*
X165106D01*
X164723Y148711D01*
X162424Y150627D02*
X163190Y150243D01*
X163957Y149477D01*
Y148711D01*
X163574Y148327D01*
X162807D01*
X162424Y148711D01*
Y149094D01*
X162807Y149477D01*
X163957D01*
X160125Y148327D02*
X161658D01*
X160125Y149860D01*
Y150243D01*
X160508Y150627D01*
X161274D01*
X161658Y150243D01*
X169067Y120316D02*
X169450Y120699D01*
X170217D01*
X170600Y120316D01*
Y118783D01*
X170217Y118400D01*
X169450D01*
X169067Y118783D01*
X166768Y120699D02*
X167534Y120316D01*
X168301Y119550D01*
Y118783D01*
X167918Y118400D01*
X167151D01*
X166768Y118783D01*
Y119166D01*
X167151Y119550D01*
X168301D01*
X164852Y118400D02*
Y120699D01*
X166001Y119550D01*
X164469D01*
X169067Y132916D02*
X169450Y133299D01*
X170217D01*
X170600Y132916D01*
Y131383D01*
X170217Y131000D01*
X169450D01*
X169067Y131383D01*
X166768Y133299D02*
X167534Y132916D01*
X168301Y132150D01*
Y131383D01*
X167918Y131000D01*
X167151D01*
X166768Y131383D01*
Y131766D01*
X167151Y132150D01*
X168301D01*
X164469Y133299D02*
X166001D01*
Y132150D01*
X165235Y132533D01*
X164852D01*
X164469Y132150D01*
Y131383D01*
X164852Y131000D01*
X165618D01*
X166001Y131383D01*
X198943Y158734D02*
X199326Y159117D01*
X200092D01*
X200476Y158734D01*
Y157201D01*
X200092Y156818D01*
X199326D01*
X198943Y157201D01*
X196643Y159117D02*
X197410Y158734D01*
X198176Y157968D01*
Y157201D01*
X197793Y156818D01*
X197027D01*
X196643Y157201D01*
Y157585D01*
X197027Y157968D01*
X198176D01*
X195877Y159117D02*
X194344D01*
Y158734D01*
X195877Y157201D01*
Y156818D01*
X138267Y160316D02*
X138650Y160699D01*
X139417D01*
X139800Y160316D01*
Y158783D01*
X139417Y158400D01*
X138650D01*
X138267Y158783D01*
X135968Y160699D02*
X136734Y160316D01*
X137501Y159550D01*
Y158783D01*
X137118Y158400D01*
X136351D01*
X135968Y158783D01*
Y159166D01*
X136351Y159550D01*
X137501D01*
X135202Y160316D02*
X134818Y160699D01*
X134052D01*
X133669Y160316D01*
Y159933D01*
X134052Y159550D01*
X133669Y159166D01*
Y158783D01*
X134052Y158400D01*
X134818D01*
X135202Y158783D01*
Y159166D01*
X134818Y159550D01*
X135202Y159933D01*
Y160316D01*
X134818Y159550D02*
X134052D01*
X168667Y114016D02*
X169050Y114399D01*
X169817D01*
X170200Y114016D01*
Y112483D01*
X169817Y112100D01*
X169050D01*
X168667Y112483D01*
X166368Y114399D02*
X167134Y114016D01*
X167901Y113250D01*
Y112483D01*
X167517Y112100D01*
X166751D01*
X166368Y112483D01*
Y112866D01*
X166751Y113250D01*
X167901D01*
X165602Y112483D02*
X165218Y112100D01*
X164452D01*
X164069Y112483D01*
Y114016D01*
X164452Y114399D01*
X165218D01*
X165602Y114016D01*
Y113633D01*
X165218Y113250D01*
X164069D01*
X138267Y104016D02*
X138650Y104399D01*
X139417D01*
X139800Y104016D01*
Y102483D01*
X139417Y102100D01*
X138650D01*
X138267Y102483D01*
X137501Y104399D02*
X135968D01*
Y104016D01*
X137501Y102483D01*
Y102100D01*
X133669D02*
X135202D01*
X133669Y103633D01*
Y104016D01*
X134052Y104399D01*
X134818D01*
X135202Y104016D01*
X185116Y134133D02*
X185499Y133750D01*
Y132983D01*
X185116Y132600D01*
X183583D01*
X183200Y132983D01*
Y133750D01*
X183583Y134133D01*
X185499Y134899D02*
Y136432D01*
X185116D01*
X183583Y134899D01*
X183200D01*
X185116Y137198D02*
X185499Y137582D01*
Y138348D01*
X185116Y138731D01*
X184733D01*
X184350Y138348D01*
Y137965D01*
Y138348D01*
X183966Y138731D01*
X183583D01*
X183200Y138348D01*
Y137582D01*
X183583Y137198D01*
X185116Y116833D02*
X185499Y116450D01*
Y115683D01*
X185116Y115300D01*
X183583D01*
X183200Y115683D01*
Y116450D01*
X183583Y116833D01*
X185499Y117599D02*
Y119132D01*
X185116D01*
X183583Y117599D01*
X183200D01*
Y121048D02*
X185499D01*
X184350Y119898D01*
Y121431D01*
X188716Y103833D02*
X189099Y103450D01*
Y102683D01*
X188716Y102300D01*
X187183D01*
X186800Y102683D01*
Y103450D01*
X187183Y103833D01*
X189099Y104599D02*
Y106132D01*
X188716D01*
X187183Y104599D01*
X186800D01*
X189099Y108431D02*
Y106898D01*
X187950D01*
X188333Y107665D01*
Y108048D01*
X187950Y108431D01*
X187183D01*
X186800Y108048D01*
Y107282D01*
X187183Y106898D01*
X169067Y139216D02*
X169450Y139599D01*
X170217D01*
X170600Y139216D01*
Y137683D01*
X170217Y137300D01*
X169450D01*
X169067Y137683D01*
X168301Y139599D02*
X166768D01*
Y139216D01*
X168301Y137683D01*
Y137300D01*
X164469Y139599D02*
X165235Y139216D01*
X166001Y138450D01*
Y137683D01*
X165618Y137300D01*
X164852D01*
X164469Y137683D01*
Y138066D01*
X164852Y138450D01*
X166001D01*
X179616Y126333D02*
X179999Y125950D01*
Y125183D01*
X179616Y124800D01*
X178083D01*
X177700Y125183D01*
Y125950D01*
X178083Y126333D01*
X179999Y127099D02*
Y128632D01*
X179616D01*
X178083Y127099D01*
X177700D01*
X179999Y129399D02*
Y130931D01*
X179616D01*
X178083Y129399D01*
X177700D01*
X176867Y121116D02*
X177250Y121499D01*
X178017D01*
X178400Y121116D01*
Y119583D01*
X178017Y119200D01*
X177250D01*
X176867Y119583D01*
X176101Y121499D02*
X174568D01*
Y121116D01*
X176101Y119583D01*
Y119200D01*
X173802Y121116D02*
X173418Y121499D01*
X172652D01*
X172269Y121116D01*
Y120733D01*
X172652Y120350D01*
X172269Y119966D01*
Y119583D01*
X172652Y119200D01*
X173418D01*
X173802Y119583D01*
Y119966D01*
X173418Y120350D01*
X173802Y120733D01*
Y121116D01*
X173418Y120350D02*
X172652D01*
X135071Y121990D02*
X134687Y121607D01*
X133921D01*
X133538Y121990D01*
Y123523D01*
X133921Y123906D01*
X134687D01*
X135071Y123523D01*
X135837Y121990D02*
X136220Y121607D01*
X136987D01*
X137370Y121990D01*
Y122373D01*
X136987Y122756D01*
X137370Y123139D01*
Y123523D01*
X136987Y123906D01*
X136220D01*
X135837Y123523D01*
Y123139D01*
X136220Y122756D01*
X135837Y122373D01*
Y121990D01*
X136220Y122756D02*
X136987D01*
X138136Y121990D02*
X138520Y121607D01*
X139286D01*
X139669Y121990D01*
Y123523D01*
X139286Y123906D01*
X138520D01*
X138136Y123523D01*
Y121990D01*
X127950Y116544D02*
X127567Y116927D01*
Y117693D01*
X127950Y118077D01*
X129483D01*
X129866Y117693D01*
Y116927D01*
X129483Y116544D01*
X127950Y115777D02*
X127567Y115394D01*
Y114628D01*
X127950Y114244D01*
X128333D01*
X128716Y114628D01*
X129099Y114244D01*
X129483D01*
X129866Y114628D01*
Y115394D01*
X129483Y115777D01*
X129099D01*
X128716Y115394D01*
X128333Y115777D01*
X127950D01*
X128716Y115394D02*
Y114628D01*
X129866Y113478D02*
Y112712D01*
Y113095D01*
X127567D01*
X127950Y113478D01*
X159867Y110416D02*
X160250Y110799D01*
X161017D01*
X161400Y110416D01*
Y108883D01*
X161017Y108500D01*
X160250D01*
X159867Y108883D01*
X159101Y110416D02*
X158718Y110799D01*
X157951D01*
X157568Y110416D01*
Y110033D01*
X157951Y109650D01*
X157568Y109266D01*
Y108883D01*
X157951Y108500D01*
X158718D01*
X159101Y108883D01*
Y109266D01*
X158718Y109650D01*
X159101Y110033D01*
Y110416D01*
X158718Y109650D02*
X157951D01*
X155269Y108500D02*
X156801D01*
X155269Y110033D01*
Y110416D01*
X155652Y110799D01*
X156418D01*
X156801Y110416D01*
X159867Y114416D02*
X160250Y114799D01*
X161017D01*
X161400Y114416D01*
Y112883D01*
X161017Y112500D01*
X160250D01*
X159867Y112883D01*
X159101Y114416D02*
X158718Y114799D01*
X157951D01*
X157568Y114416D01*
Y114033D01*
X157951Y113650D01*
X157568Y113266D01*
Y112883D01*
X157951Y112500D01*
X158718D01*
X159101Y112883D01*
Y113266D01*
X158718Y113650D01*
X159101Y114033D01*
Y114416D01*
X158718Y113650D02*
X157951D01*
X156801Y114416D02*
X156418Y114799D01*
X155652D01*
X155269Y114416D01*
Y114033D01*
X155652Y113650D01*
X156035D01*
X155652D01*
X155269Y113266D01*
Y112883D01*
X155652Y112500D01*
X156418D01*
X156801Y112883D01*
X159967Y126216D02*
X160350Y126599D01*
X161117D01*
X161500Y126216D01*
Y124683D01*
X161117Y124300D01*
X160350D01*
X159967Y124683D01*
X159201Y126216D02*
X158818Y126599D01*
X158051D01*
X157668Y126216D01*
Y125833D01*
X158051Y125450D01*
X157668Y125066D01*
Y124683D01*
X158051Y124300D01*
X158818D01*
X159201Y124683D01*
Y125066D01*
X158818Y125450D01*
X159201Y125833D01*
Y126216D01*
X158818Y125450D02*
X158051D01*
X155752Y124300D02*
Y126599D01*
X156902Y125450D01*
X155369D01*
X188716Y139233D02*
X189099Y138850D01*
Y138083D01*
X188716Y137700D01*
X187183D01*
X186800Y138083D01*
Y138850D01*
X187183Y139233D01*
X188716Y139999D02*
X189099Y140383D01*
Y141149D01*
X188716Y141532D01*
X188333D01*
X187950Y141149D01*
X187566Y141532D01*
X187183D01*
X186800Y141149D01*
Y140383D01*
X187183Y139999D01*
X187566D01*
X187950Y140383D01*
X188333Y139999D01*
X188716D01*
X187950Y140383D02*
Y141149D01*
X189099Y143831D02*
Y142298D01*
X187950D01*
X188333Y143065D01*
Y143448D01*
X187950Y143831D01*
X187183D01*
X186800Y143448D01*
Y142682D01*
X187183Y142298D01*
X189467Y126616D02*
X189850Y126999D01*
X190617D01*
X191000Y126616D01*
Y125083D01*
X190617Y124700D01*
X189850D01*
X189467Y125083D01*
X188701Y126616D02*
X188318Y126999D01*
X187551D01*
X187168Y126616D01*
Y126233D01*
X187551Y125850D01*
X187168Y125466D01*
Y125083D01*
X187551Y124700D01*
X188318D01*
X188701Y125083D01*
Y125466D01*
X188318Y125850D01*
X188701Y126233D01*
Y126616D01*
X188318Y125850D02*
X187551D01*
X184869Y126999D02*
X185635Y126616D01*
X186401Y125850D01*
Y125083D01*
X186018Y124700D01*
X185252D01*
X184869Y125083D01*
Y125466D01*
X185252Y125850D01*
X186401D01*
X138267Y126016D02*
X138650Y126399D01*
X139417D01*
X139800Y126016D01*
Y124483D01*
X139417Y124100D01*
X138650D01*
X138267Y124483D01*
X137501Y126016D02*
X137118Y126399D01*
X136351D01*
X135968Y126016D01*
Y125633D01*
X136351Y125250D01*
X135968Y124866D01*
Y124483D01*
X136351Y124100D01*
X137118D01*
X137501Y124483D01*
Y124866D01*
X137118Y125250D01*
X137501Y125633D01*
Y126016D01*
X137118Y125250D02*
X136351D01*
X135202Y126399D02*
X133669D01*
Y126016D01*
X135202Y124483D01*
Y124100D01*
X138267Y99016D02*
X138650Y99399D01*
X139417D01*
X139800Y99016D01*
Y97483D01*
X139417Y97100D01*
X138650D01*
X138267Y97483D01*
X137501Y99016D02*
X137118Y99399D01*
X136351D01*
X135968Y99016D01*
Y98633D01*
X136351Y98250D01*
X135968Y97866D01*
Y97483D01*
X136351Y97100D01*
X137118D01*
X137501Y97483D01*
Y97866D01*
X137118Y98250D01*
X137501Y98633D01*
Y99016D01*
X137118Y98250D02*
X136351D01*
X135202Y99016D02*
X134818Y99399D01*
X134052D01*
X133669Y99016D01*
Y98633D01*
X134052Y98250D01*
X133669Y97866D01*
Y97483D01*
X134052Y97100D01*
X134818D01*
X135202Y97483D01*
Y97866D01*
X134818Y98250D01*
X135202Y98633D01*
Y99016D01*
X134818Y98250D02*
X134052D01*
X168667Y126616D02*
X169050Y126999D01*
X169817D01*
X170200Y126616D01*
Y125083D01*
X169817Y124700D01*
X169050D01*
X168667Y125083D01*
X167901Y126616D02*
X167517Y126999D01*
X166751D01*
X166368Y126616D01*
Y126233D01*
X166751Y125850D01*
X166368Y125466D01*
Y125083D01*
X166751Y124700D01*
X167517D01*
X167901Y125083D01*
Y125466D01*
X167517Y125850D01*
X167901Y126233D01*
Y126616D01*
X167517Y125850D02*
X166751D01*
X165602Y125083D02*
X165218Y124700D01*
X164452D01*
X164069Y125083D01*
Y126616D01*
X164452Y126999D01*
X165218D01*
X165602Y126616D01*
Y126233D01*
X165218Y125850D01*
X164069D01*
X176967Y117516D02*
X177350Y117899D01*
X178117D01*
X178500Y117516D01*
Y115983D01*
X178117Y115600D01*
X177350D01*
X176967Y115983D01*
X176201D02*
X175818Y115600D01*
X175051D01*
X174668Y115983D01*
Y117516D01*
X175051Y117899D01*
X175818D01*
X176201Y117516D01*
Y117133D01*
X175818Y116750D01*
X174668D01*
X173901Y117516D02*
X173518Y117899D01*
X172752D01*
X172369Y117516D01*
Y115983D01*
X172752Y115600D01*
X173518D01*
X173901Y115983D01*
Y117516D01*
X179616Y101033D02*
X179999Y100650D01*
Y99883D01*
X179616Y99500D01*
X178083D01*
X177700Y99883D01*
Y100650D01*
X178083Y101033D01*
Y101799D02*
X177700Y102182D01*
Y102949D01*
X178083Y103332D01*
X179616D01*
X179999Y102949D01*
Y102182D01*
X179616Y101799D01*
X179233D01*
X178850Y102182D01*
Y103332D01*
X179616Y104098D02*
X179999Y104482D01*
Y105248D01*
X179616Y105631D01*
X179233D01*
X178850Y105248D01*
Y104865D01*
Y105248D01*
X178466Y105631D01*
X178083D01*
X177700Y105248D01*
Y104482D01*
X178083Y104098D01*
X159867Y147616D02*
X160250Y147999D01*
X161017D01*
X161400Y147616D01*
Y146083D01*
X161017Y145700D01*
X160250D01*
X159867Y146083D01*
X159101D02*
X158718Y145700D01*
X157951D01*
X157568Y146083D01*
Y147616D01*
X157951Y147999D01*
X158718D01*
X159101Y147616D01*
Y147233D01*
X158718Y146850D01*
X157568D01*
X155269Y147999D02*
X156801D01*
Y146850D01*
X156035Y147233D01*
X155652D01*
X155269Y146850D01*
Y146083D01*
X155652Y145700D01*
X156418D01*
X156801Y146083D01*
X184916Y90933D02*
X185299Y90550D01*
Y89783D01*
X184916Y89400D01*
X183383D01*
X183000Y89783D01*
Y90550D01*
X183383Y90933D01*
Y91699D02*
X183000Y92083D01*
Y92849D01*
X183383Y93232D01*
X184916D01*
X185299Y92849D01*
Y92083D01*
X184916Y91699D01*
X184533D01*
X184150Y92083D01*
Y93232D01*
X185299Y95531D02*
X184916Y94765D01*
X184150Y93998D01*
X183383D01*
X183000Y94382D01*
Y95148D01*
X183383Y95531D01*
X183766D01*
X184150Y95148D01*
Y93998D01*
X181116Y90933D02*
X181499Y90550D01*
Y89783D01*
X181116Y89400D01*
X179583D01*
X179200Y89783D01*
Y90550D01*
X179583Y90933D01*
Y91699D02*
X179200Y92083D01*
Y92849D01*
X179583Y93232D01*
X181116D01*
X181499Y92849D01*
Y92083D01*
X181116Y91699D01*
X180733D01*
X180350Y92083D01*
Y93232D01*
X181116Y93998D02*
X181499Y94382D01*
Y95148D01*
X181116Y95531D01*
X180733D01*
X180350Y95148D01*
X179966Y95531D01*
X179583D01*
X179200Y95148D01*
Y94382D01*
X179583Y93998D01*
X179966D01*
X180350Y94382D01*
X180733Y93998D01*
X181116D01*
X180350Y94382D02*
Y95148D01*
X196216Y90933D02*
X196599Y90550D01*
Y89783D01*
X196216Y89400D01*
X194683D01*
X194300Y89783D01*
Y90550D01*
X194683Y90933D01*
Y91699D02*
X194300Y92083D01*
Y92849D01*
X194683Y93232D01*
X196216D01*
X196599Y92849D01*
Y92083D01*
X196216Y91699D01*
X195833D01*
X195450Y92083D01*
Y93232D01*
X194683Y93998D02*
X194300Y94382D01*
Y95148D01*
X194683Y95531D01*
X196216D01*
X196599Y95148D01*
Y94382D01*
X196216Y93998D01*
X195833D01*
X195450Y94382D01*
Y95531D01*
X192167Y161650D02*
X192550Y162033D01*
X193316D01*
X193700Y161650D01*
Y160117D01*
X193316Y159734D01*
X192550D01*
X192167Y160117D01*
X191400Y159734D02*
X190634D01*
X191017D01*
Y162033D01*
X191400Y161650D01*
X189484D02*
X189101Y162033D01*
X188335D01*
X187951Y161650D01*
Y160117D01*
X188335Y159734D01*
X189101D01*
X189484Y160117D01*
Y161650D01*
X187185Y159734D02*
X186419D01*
X186802D01*
Y162033D01*
X187185Y161650D01*
X161767Y118316D02*
X162150Y118699D01*
X162917D01*
X163300Y118316D01*
Y116783D01*
X162917Y116400D01*
X162150D01*
X161767Y116783D01*
X161001Y116400D02*
X160234D01*
X160617D01*
Y118699D01*
X161001Y118316D01*
X159085D02*
X158702Y118699D01*
X157935D01*
X157552Y118316D01*
Y116783D01*
X157935Y116400D01*
X158702D01*
X159085Y116783D01*
Y118316D01*
X155253Y116400D02*
X156785D01*
X155253Y117933D01*
Y118316D01*
X155636Y118699D01*
X156402D01*
X156785Y118316D01*
X192416Y90933D02*
X192799Y90550D01*
Y89783D01*
X192416Y89400D01*
X190883D01*
X190500Y89783D01*
Y90550D01*
X190883Y90933D01*
X190500Y91699D02*
Y92466D01*
Y92083D01*
X192799D01*
X192416Y91699D01*
Y93615D02*
X192799Y93998D01*
Y94765D01*
X192416Y95148D01*
X190883D01*
X190500Y94765D01*
Y93998D01*
X190883Y93615D01*
X192416D01*
Y95915D02*
X192799Y96298D01*
Y97064D01*
X192416Y97447D01*
X192033D01*
X191650Y97064D01*
Y96681D01*
Y97064D01*
X191266Y97447D01*
X190883D01*
X190500Y97064D01*
Y96298D01*
X190883Y95915D01*
X176116Y139233D02*
X176499Y138850D01*
Y138083D01*
X176116Y137700D01*
X174583D01*
X174200Y138083D01*
Y138850D01*
X174583Y139233D01*
X174200Y139999D02*
Y140766D01*
Y140383D01*
X176499D01*
X176116Y139999D01*
Y141915D02*
X176499Y142298D01*
Y143065D01*
X176116Y143448D01*
X174583D01*
X174200Y143065D01*
Y142298D01*
X174583Y141915D01*
X176116D01*
X176499Y145747D02*
Y144215D01*
X175350D01*
X175733Y144981D01*
Y145364D01*
X175350Y145747D01*
X174583D01*
X174200Y145364D01*
Y144598D01*
X174583Y144215D01*
X234367Y134316D02*
X234750Y134699D01*
X235517D01*
X235900Y134316D01*
Y132783D01*
X235517Y132400D01*
X234750D01*
X234367Y132783D01*
X233601Y132400D02*
X232834D01*
X233218D01*
Y134699D01*
X233601Y134316D01*
X231685D02*
X231301Y134699D01*
X230535D01*
X230152Y134316D01*
Y132783D01*
X230535Y132400D01*
X231301D01*
X231685Y132783D01*
Y134316D01*
X227853Y134699D02*
X228619Y134316D01*
X229385Y133550D01*
Y132783D01*
X229002Y132400D01*
X228236D01*
X227853Y132783D01*
Y133166D01*
X228236Y133550D01*
X229385D01*
X234367Y128016D02*
X234750Y128399D01*
X235517D01*
X235900Y128016D01*
Y126483D01*
X235517Y126100D01*
X234750D01*
X234367Y126483D01*
X233601Y126100D02*
X232834D01*
X233218D01*
Y128399D01*
X233601Y128016D01*
X231685D02*
X231301Y128399D01*
X230535D01*
X230152Y128016D01*
Y126483D01*
X230535Y126100D01*
X231301D01*
X231685Y126483D01*
Y128016D01*
X229385Y128399D02*
X227853D01*
Y128016D01*
X229385Y126483D01*
Y126100D01*
X234167Y118616D02*
X234550Y118999D01*
X235317D01*
X235700Y118616D01*
Y117083D01*
X235317Y116700D01*
X234550D01*
X234167Y117083D01*
X233401Y116700D02*
X232634D01*
X233017D01*
Y118999D01*
X233401Y118616D01*
X231485D02*
X231101Y118999D01*
X230335D01*
X229952Y118616D01*
Y117083D01*
X230335Y116700D01*
X231101D01*
X231485Y117083D01*
Y118616D01*
X229185D02*
X228802Y118999D01*
X228036D01*
X227653Y118616D01*
Y118233D01*
X228036Y117850D01*
X227653Y117466D01*
Y117083D01*
X228036Y116700D01*
X228802D01*
X229185Y117083D01*
Y117466D01*
X228802Y117850D01*
X229185Y118233D01*
Y118616D01*
X228802Y117850D02*
X228036D01*
X234167Y112316D02*
X234550Y112699D01*
X235317D01*
X235700Y112316D01*
Y110783D01*
X235317Y110400D01*
X234550D01*
X234167Y110783D01*
X233401Y110400D02*
X232634D01*
X233017D01*
Y112699D01*
X233401Y112316D01*
X231485Y110400D02*
X230718D01*
X231101D01*
Y112699D01*
X231485Y112316D01*
X229569D02*
X229185Y112699D01*
X228419D01*
X228036Y112316D01*
Y110783D01*
X228419Y110400D01*
X229185D01*
X229569Y110783D01*
Y112316D01*
X222567Y101816D02*
X222950Y102199D01*
X223717D01*
X224100Y101816D01*
Y100283D01*
X223717Y99900D01*
X222950D01*
X222567Y100283D01*
X221801Y99900D02*
X221034D01*
X221417D01*
Y102199D01*
X221801Y101816D01*
X219885Y99900D02*
X219118D01*
X219501D01*
Y102199D01*
X219885Y101816D01*
X217969Y99900D02*
X217202D01*
X217585D01*
Y102199D01*
X217969Y101816D01*
X234167Y93516D02*
X234550Y93899D01*
X235317D01*
X235700Y93516D01*
Y91983D01*
X235317Y91600D01*
X234550D01*
X234167Y91983D01*
X233401Y91600D02*
X232634D01*
X233017D01*
Y93899D01*
X233401Y93516D01*
X231485Y91600D02*
X230718D01*
X231101D01*
Y93899D01*
X231485Y93516D01*
X228036Y91600D02*
X229569D01*
X228036Y93133D01*
Y93516D01*
X228419Y93899D01*
X229185D01*
X229569Y93516D01*
X280967Y131516D02*
X281350Y131899D01*
X282117D01*
X282500Y131516D01*
Y129983D01*
X282117Y129600D01*
X281350D01*
X280967Y129983D01*
X280201Y129600D02*
X279434D01*
X279818D01*
Y131899D01*
X280201Y131516D01*
X278285Y129600D02*
X277518D01*
X277902D01*
Y131899D01*
X278285Y131516D01*
X276369D02*
X275985Y131899D01*
X275219D01*
X274836Y131516D01*
Y131133D01*
X275219Y130750D01*
X275602D01*
X275219D01*
X274836Y130366D01*
Y129983D01*
X275219Y129600D01*
X275985D01*
X276369Y129983D01*
X280974Y125255D02*
X281357Y125638D01*
X282124D01*
X282507Y125255D01*
Y123722D01*
X282124Y123339D01*
X281357D01*
X280974Y123722D01*
X280208Y123339D02*
X279441D01*
X279825D01*
Y125638D01*
X280208Y125255D01*
X278292Y123339D02*
X277525D01*
X277908D01*
Y125638D01*
X278292Y125255D01*
X275226Y123339D02*
Y125638D01*
X276376Y124488D01*
X274843D01*
X280967Y119016D02*
X281350Y119399D01*
X282117D01*
X282500Y119016D01*
Y117483D01*
X282117Y117100D01*
X281350D01*
X280967Y117483D01*
X280201Y117100D02*
X279434D01*
X279818D01*
Y119399D01*
X280201Y119016D01*
X278285Y117100D02*
X277518D01*
X277902D01*
Y119399D01*
X278285Y119016D01*
X274836Y119399D02*
X276369D01*
Y118250D01*
X275602Y118633D01*
X275219D01*
X274836Y118250D01*
Y117483D01*
X275219Y117100D01*
X275985D01*
X276369Y117483D01*
X280987Y109503D02*
X281370Y109886D01*
X282136D01*
X282520Y109503D01*
Y107970D01*
X282136Y107587D01*
X281370D01*
X280987Y107970D01*
X280220Y107587D02*
X279454D01*
X279837D01*
Y109886D01*
X280220Y109503D01*
X278304Y107587D02*
X277538D01*
X277921D01*
Y109886D01*
X278304Y109503D01*
X274855Y109886D02*
X275622Y109503D01*
X276388Y108736D01*
Y107970D01*
X276005Y107587D01*
X275239D01*
X274855Y107970D01*
Y108353D01*
X275239Y108736D01*
X276388D01*
X216767Y90716D02*
X217150Y91099D01*
X217917D01*
X218300Y90716D01*
Y89183D01*
X217917Y88800D01*
X217150D01*
X216767Y89183D01*
X216001Y88800D02*
X215234D01*
X215617D01*
Y91099D01*
X216001Y90716D01*
X214085Y88800D02*
X213318D01*
X213702D01*
Y91099D01*
X214085Y90716D01*
X212169Y91099D02*
X210636D01*
Y90716D01*
X212169Y89183D01*
Y88800D01*
X281381Y104827D02*
X281764Y105210D01*
X282530D01*
X282913Y104827D01*
Y103294D01*
X282530Y102911D01*
X281764D01*
X281381Y103294D01*
X280614Y102911D02*
X279848D01*
X280231D01*
Y105210D01*
X280614Y104827D01*
X278698Y102911D02*
X277932D01*
X278315D01*
Y105210D01*
X278698Y104827D01*
X276782D02*
X276399Y105210D01*
X275632D01*
X275249Y104827D01*
Y104444D01*
X275632Y104061D01*
X275249Y103677D01*
Y103294D01*
X275632Y102911D01*
X276399D01*
X276782Y103294D01*
Y103677D01*
X276399Y104061D01*
X276782Y104444D01*
Y104827D01*
X276399Y104061D02*
X275632D01*
X280567Y90616D02*
X280950Y90999D01*
X281717D01*
X282100Y90616D01*
Y89083D01*
X281717Y88700D01*
X280950D01*
X280567Y89083D01*
X279801Y88700D02*
X279034D01*
X279417D01*
Y90999D01*
X279801Y90616D01*
X277885Y88700D02*
X277118D01*
X277502D01*
Y90999D01*
X277885Y90616D01*
X275969Y89083D02*
X275585Y88700D01*
X274819D01*
X274436Y89083D01*
Y90616D01*
X274819Y90999D01*
X275585D01*
X275969Y90616D01*
Y90233D01*
X275585Y89850D01*
X274436D01*
X281367Y84316D02*
X281750Y84699D01*
X282517D01*
X282900Y84316D01*
Y82783D01*
X282517Y82400D01*
X281750D01*
X281367Y82783D01*
X280601Y82400D02*
X279834D01*
X280218D01*
Y84699D01*
X280601Y84316D01*
X277152Y82400D02*
X278685D01*
X277152Y83933D01*
Y84316D01*
X277535Y84699D01*
X278302D01*
X278685Y84316D01*
X276385D02*
X276002Y84699D01*
X275236D01*
X274853Y84316D01*
Y82783D01*
X275236Y82400D01*
X276002D01*
X276385Y82783D01*
Y84316D01*
X271467Y70016D02*
X271850Y70399D01*
X272617D01*
X273000Y70016D01*
Y68483D01*
X272617Y68100D01*
X271850D01*
X271467Y68483D01*
X270701Y68100D02*
X269934D01*
X270318D01*
Y70399D01*
X270701Y70016D01*
X267252Y68100D02*
X268785D01*
X267252Y69633D01*
Y70016D01*
X267635Y70399D01*
X268402D01*
X268785Y70016D01*
X266485Y68100D02*
X265719D01*
X266102D01*
Y70399D01*
X266485Y70016D01*
X246367Y104816D02*
X246750Y105199D01*
X247517D01*
X247900Y104816D01*
Y103283D01*
X247517Y102900D01*
X246750D01*
X246367Y103283D01*
X245601Y102900D02*
X244834D01*
X245217D01*
Y105199D01*
X245601Y104816D01*
X242152Y102900D02*
X243685D01*
X242152Y104433D01*
Y104816D01*
X242535Y105199D01*
X243302D01*
X243685Y104816D01*
X239853Y102900D02*
X241385D01*
X239853Y104433D01*
Y104816D01*
X240236Y105199D01*
X241002D01*
X241385Y104816D01*
X246367Y95316D02*
X246750Y95699D01*
X247517D01*
X247900Y95316D01*
Y93783D01*
X247517Y93400D01*
X246750D01*
X246367Y93783D01*
X245601Y93400D02*
X244834D01*
X245217D01*
Y95699D01*
X245601Y95316D01*
X242152Y93400D02*
X243685D01*
X242152Y94933D01*
Y95316D01*
X242535Y95699D01*
X243302D01*
X243685Y95316D01*
X241385D02*
X241002Y95699D01*
X240236D01*
X239853Y95316D01*
Y94933D01*
X240236Y94550D01*
X240619D01*
X240236D01*
X239853Y94166D01*
Y93783D01*
X240236Y93400D01*
X241002D01*
X241385Y93783D01*
X288767Y37399D02*
X290300D01*
Y36250D01*
X289534D01*
X290300D01*
Y35100D01*
X286851D02*
Y37399D01*
X288001Y36250D01*
X286468D01*
X292267Y14199D02*
X293800D01*
Y13050D01*
X293034D01*
X293800D01*
Y11900D01*
X289968Y14199D02*
X291501D01*
Y13050D01*
X290734Y13433D01*
X290351D01*
X289968Y13050D01*
Y12283D01*
X290351Y11900D01*
X291118D01*
X291501Y12283D01*
X288767Y63799D02*
X290300D01*
Y62650D01*
X289534D01*
X290300D01*
Y61500D01*
X286468Y63799D02*
X287234Y63416D01*
X288001Y62650D01*
Y61883D01*
X287617Y61500D01*
X286851D01*
X286468Y61883D01*
Y62266D01*
X286851Y62650D01*
X288001D01*
X292167Y86999D02*
X293700D01*
Y85850D01*
X292934D01*
X293700D01*
Y84700D01*
X291401Y86999D02*
X289868D01*
Y86616D01*
X291401Y85083D01*
Y84700D01*
X184501Y80899D02*
X186034D01*
Y79750D01*
X185267D01*
X186034D01*
Y78600D01*
X183735Y80516D02*
X183351Y80899D01*
X182585D01*
X182202Y80516D01*
Y80133D01*
X182585Y79750D01*
X182202Y79366D01*
Y78983D01*
X182585Y78600D01*
X183351D01*
X183735Y78983D01*
Y79366D01*
X183351Y79750D01*
X183735Y80133D01*
Y80516D01*
X183351Y79750D02*
X182585D01*
X174401Y80899D02*
X175934D01*
Y79750D01*
X175168D01*
X175934D01*
Y78600D01*
X173635Y78983D02*
X173251Y78600D01*
X172485D01*
X172102Y78983D01*
Y80516D01*
X172485Y80899D01*
X173251D01*
X173635Y80516D01*
Y80133D01*
X173251Y79750D01*
X172102D01*
X138067Y140399D02*
X139600D01*
Y139250D01*
X138834D01*
X139600D01*
Y138100D01*
X137301D02*
X136534D01*
X136917D01*
Y140399D01*
X137301Y140016D01*
X135385D02*
X135002Y140399D01*
X134235D01*
X133852Y140016D01*
Y138483D01*
X134235Y138100D01*
X135002D01*
X135385Y138483D01*
Y140016D01*
X331200Y80199D02*
X330434D01*
X330817D01*
Y77900D01*
X331200D01*
X330434D01*
X327751Y79816D02*
X328134Y80199D01*
X328901D01*
X329284Y79816D01*
Y78283D01*
X328901Y77900D01*
X328134D01*
X327751Y78283D01*
X325452Y80199D02*
X326985D01*
Y79050D01*
X326218Y79433D01*
X325835D01*
X325452Y79050D01*
Y78283D01*
X325835Y77900D01*
X326602D01*
X326985Y78283D01*
X209800Y63099D02*
X209034D01*
X209417D01*
Y60800D01*
X209800D01*
X209034D01*
X206351Y62716D02*
X206734Y63099D01*
X207501D01*
X207884Y62716D01*
Y61183D01*
X207501Y60800D01*
X206734D01*
X206351Y61183D01*
X204052Y63099D02*
X204818Y62716D01*
X205585Y61950D01*
Y61183D01*
X205202Y60800D01*
X204435D01*
X204052Y61183D01*
Y61566D01*
X204435Y61950D01*
X205585D01*
X331300Y45599D02*
X330534D01*
X330917D01*
Y43300D01*
X331300D01*
X330534D01*
X327851Y45216D02*
X328234Y45599D01*
X329001D01*
X329384Y45216D01*
Y43683D01*
X329001Y43300D01*
X328234D01*
X327851Y43683D01*
X327085Y45216D02*
X326701Y45599D01*
X325935D01*
X325552Y45216D01*
Y44833D01*
X325935Y44450D01*
X325552Y44066D01*
Y43683D01*
X325935Y43300D01*
X326701D01*
X327085Y43683D01*
Y44066D01*
X326701Y44450D01*
X327085Y44833D01*
Y45216D01*
X326701Y44450D02*
X325935D01*
X330900Y104499D02*
X330134D01*
X330517D01*
Y102200D01*
X330900D01*
X330134D01*
X327451Y104116D02*
X327834Y104499D01*
X328601D01*
X328984Y104116D01*
Y102583D01*
X328601Y102200D01*
X327834D01*
X327451Y102583D01*
X326685D02*
X326302Y102200D01*
X325535D01*
X325152Y102583D01*
Y104116D01*
X325535Y104499D01*
X326302D01*
X326685Y104116D01*
Y103733D01*
X326302Y103350D01*
X325152D01*
X354867Y192199D02*
X355634D01*
X355250D01*
Y190283D01*
X355634Y189900D01*
X356017D01*
X356400Y190283D01*
X354101Y191816D02*
X353717Y192199D01*
X352951D01*
X352568Y191816D01*
Y191433D01*
X352951Y191050D01*
X352568Y190666D01*
Y190283D01*
X352951Y189900D01*
X353717D01*
X354101Y190283D01*
Y190666D01*
X353717Y191050D01*
X354101Y191433D01*
Y191816D01*
X353717Y191050D02*
X352951D01*
X152200Y164100D02*
Y166399D01*
X151050D01*
X150667Y166016D01*
Y165250D01*
X151050Y164866D01*
X152200D01*
X151434D02*
X150667Y164100D01*
X149901D02*
X149134D01*
X149518D01*
Y166399D01*
X149901Y166016D01*
X146452Y164100D02*
X147985D01*
X146452Y165633D01*
Y166016D01*
X146835Y166399D01*
X147601D01*
X147985Y166016D01*
X182500Y157500D02*
Y159799D01*
X181350D01*
X180967Y159416D01*
Y158650D01*
X181350Y158266D01*
X182500D01*
X181734D02*
X180967Y157500D01*
X180201D02*
X179434D01*
X179817D01*
Y159799D01*
X180201Y159416D01*
X178285D02*
X177901Y159799D01*
X177135D01*
X176752Y159416D01*
Y159033D01*
X177135Y158650D01*
X177518D01*
X177135D01*
X176752Y158266D01*
Y157883D01*
X177135Y157500D01*
X177901D01*
X178285Y157883D01*
X230494Y13145D02*
Y15445D01*
X229345D01*
X228962Y15062D01*
Y14295D01*
X229345Y13912D01*
X230494D01*
X229728D02*
X228962Y13145D01*
X228195D02*
X227429D01*
X227812D01*
Y15445D01*
X228195Y15062D01*
X225130Y13145D02*
Y15445D01*
X226279Y14295D01*
X224746D01*
X164200Y89400D02*
X166499D01*
Y90550D01*
X166116Y90933D01*
X165350D01*
X164966Y90550D01*
Y89400D01*
Y90166D02*
X164200Y90933D01*
Y91699D02*
Y92466D01*
Y92083D01*
X166499D01*
X166116Y91699D01*
X166499Y95148D02*
Y93615D01*
X165350D01*
X165733Y94382D01*
Y94765D01*
X165350Y95148D01*
X164583D01*
X164200Y94765D01*
Y93998D01*
X164583Y93615D01*
X141500Y170900D02*
Y173199D01*
X140350D01*
X139967Y172816D01*
Y172050D01*
X140350Y171666D01*
X141500D01*
X140734D02*
X139967Y170900D01*
X139201D02*
X138434D01*
X138818D01*
Y173199D01*
X139201Y172816D01*
X137285Y173199D02*
X135752D01*
Y172816D01*
X137285Y171283D01*
Y170900D01*
X224600Y121700D02*
Y123999D01*
X223450D01*
X223067Y123616D01*
Y122850D01*
X223450Y122466D01*
X224600D01*
X223834D02*
X223067Y121700D01*
X220768D02*
X222301D01*
X220768Y123233D01*
Y123616D01*
X221151Y123999D01*
X221918D01*
X222301Y123616D01*
X220002D02*
X219618Y123999D01*
X218852D01*
X218469Y123616D01*
Y123233D01*
X218852Y122850D01*
X219235D01*
X218852D01*
X218469Y122466D01*
Y122083D01*
X218852Y121700D01*
X219618D01*
X220002Y122083D01*
X198000Y89400D02*
X200299D01*
Y90550D01*
X199916Y90933D01*
X199150D01*
X198766Y90550D01*
Y89400D01*
Y90166D02*
X198000Y90933D01*
Y93232D02*
Y91699D01*
X199533Y93232D01*
X199916D01*
X200299Y92849D01*
Y92083D01*
X199916Y91699D01*
X198000Y95148D02*
X200299D01*
X199150Y93998D01*
Y95531D01*
X315500Y101800D02*
X317799D01*
Y102950D01*
X317416Y103333D01*
X316650D01*
X316266Y102950D01*
Y101800D01*
Y102566D02*
X315500Y103333D01*
Y105632D02*
Y104099D01*
X317033Y105632D01*
X317416D01*
X317799Y105249D01*
Y104482D01*
X317416Y104099D01*
X317799Y107931D02*
X317416Y107165D01*
X316650Y106398D01*
X315883D01*
X315500Y106782D01*
Y107548D01*
X315883Y107931D01*
X316266D01*
X316650Y107548D01*
Y106398D01*
X160500Y89400D02*
X162799D01*
Y90550D01*
X162416Y90933D01*
X161650D01*
X161266Y90550D01*
Y89400D01*
Y90166D02*
X160500Y90933D01*
X162416Y91699D02*
X162799Y92083D01*
Y92849D01*
X162416Y93232D01*
X162033D01*
X161650Y92849D01*
Y92466D01*
Y92849D01*
X161266Y93232D01*
X160883D01*
X160500Y92849D01*
Y92083D01*
X160883Y91699D01*
X162799Y95531D02*
Y93998D01*
X161650D01*
X162033Y94765D01*
Y95148D01*
X161650Y95531D01*
X160883D01*
X160500Y95148D01*
Y94382D01*
X160883Y93998D01*
X201700Y89400D02*
X203999D01*
Y90550D01*
X203616Y90933D01*
X202850D01*
X202466Y90550D01*
Y89400D01*
Y90166D02*
X201700Y90933D01*
X203616Y91699D02*
X203999Y92083D01*
Y92849D01*
X203616Y93232D01*
X203233D01*
X202850Y92849D01*
Y92466D01*
Y92849D01*
X202466Y93232D01*
X202083D01*
X201700Y92849D01*
Y92083D01*
X202083Y91699D01*
X203999Y95531D02*
X203616Y94765D01*
X202850Y93998D01*
X202083D01*
X201700Y94382D01*
Y95148D01*
X202083Y95531D01*
X202466D01*
X202850Y95148D01*
Y93998D01*
X212500Y196500D02*
X214799D01*
Y197650D01*
X214416Y198033D01*
X213650D01*
X213266Y197650D01*
Y196500D01*
Y197266D02*
X212500Y198033D01*
X214416Y198799D02*
X214799Y199182D01*
Y199949D01*
X214416Y200332D01*
X214033D01*
X213650Y199949D01*
Y199566D01*
Y199949D01*
X213266Y200332D01*
X212883D01*
X212500Y199949D01*
Y199182D01*
X212883Y198799D01*
X214799Y201098D02*
Y202631D01*
X214416D01*
X212883Y201098D01*
X212500D01*
X208500Y196500D02*
X210799D01*
Y197650D01*
X210416Y198033D01*
X209650D01*
X209266Y197650D01*
Y196500D01*
Y197266D02*
X208500Y198033D01*
X210416Y198799D02*
X210799Y199182D01*
Y199949D01*
X210416Y200332D01*
X210033D01*
X209650Y199949D01*
Y199566D01*
Y199949D01*
X209266Y200332D01*
X208883D01*
X208500Y199949D01*
Y199182D01*
X208883Y198799D01*
X210416Y201098D02*
X210799Y201482D01*
Y202248D01*
X210416Y202631D01*
X210033D01*
X209650Y202248D01*
X209266Y202631D01*
X208883D01*
X208500Y202248D01*
Y201482D01*
X208883Y201098D01*
X209266D01*
X209650Y201482D01*
X210033Y201098D01*
X210416D01*
X209650Y201482D02*
Y202248D01*
X220300Y196500D02*
X222599D01*
Y197650D01*
X222216Y198033D01*
X221450D01*
X221066Y197650D01*
Y196500D01*
Y197266D02*
X220300Y198033D01*
X222216Y198799D02*
X222599Y199182D01*
Y199949D01*
X222216Y200332D01*
X221833D01*
X221450Y199949D01*
Y199566D01*
Y199949D01*
X221066Y200332D01*
X220683D01*
X220300Y199949D01*
Y199182D01*
X220683Y198799D01*
Y201098D02*
X220300Y201482D01*
Y202248D01*
X220683Y202631D01*
X222216D01*
X222599Y202248D01*
Y201482D01*
X222216Y201098D01*
X221833D01*
X221450Y201482D01*
Y202631D01*
X224300Y196500D02*
X226599D01*
Y197650D01*
X226216Y198033D01*
X225450D01*
X225066Y197650D01*
Y196500D01*
Y197266D02*
X224300Y198033D01*
Y199949D02*
X226599D01*
X225450Y198799D01*
Y200332D01*
X226216Y201098D02*
X226599Y201482D01*
Y202248D01*
X226216Y202631D01*
X224683D01*
X224300Y202248D01*
Y201482D01*
X224683Y201098D01*
X226216D01*
X216400Y196500D02*
X218699D01*
Y197650D01*
X218316Y198033D01*
X217550D01*
X217166Y197650D01*
Y196500D01*
Y197266D02*
X216400Y198033D01*
Y199949D02*
X218699D01*
X217550Y198799D01*
Y200332D01*
X216400Y201098D02*
Y201865D01*
Y201482D01*
X218699D01*
X218316Y201098D01*
X228200Y196500D02*
X230499D01*
Y197650D01*
X230116Y198033D01*
X229350D01*
X228966Y197650D01*
Y196500D01*
Y197266D02*
X228200Y198033D01*
Y199949D02*
X230499D01*
X229350Y198799D01*
Y200332D01*
X228200Y202631D02*
Y201098D01*
X229733Y202631D01*
X230116D01*
X230499Y202248D01*
Y201482D01*
X230116Y201098D01*
X232200Y196500D02*
X234499D01*
Y197650D01*
X234116Y198033D01*
X233350D01*
X232966Y197650D01*
Y196500D01*
Y197266D02*
X232200Y198033D01*
Y199949D02*
X234499D01*
X233350Y198799D01*
Y200332D01*
X234116Y201098D02*
X234499Y201482D01*
Y202248D01*
X234116Y202631D01*
X233733D01*
X233350Y202248D01*
Y201865D01*
Y202248D01*
X232966Y202631D01*
X232583D01*
X232200Y202248D01*
Y201482D01*
X232583Y201098D01*
X236100Y196500D02*
X238399D01*
Y197650D01*
X238016Y198033D01*
X237250D01*
X236866Y197650D01*
Y196500D01*
Y197266D02*
X236100Y198033D01*
Y199949D02*
X238399D01*
X237250Y198799D01*
Y200332D01*
X236100Y202248D02*
X238399D01*
X237250Y201098D01*
Y202631D01*
X240000Y196500D02*
X242299D01*
Y197650D01*
X241916Y198033D01*
X241150D01*
X240766Y197650D01*
Y196500D01*
Y197266D02*
X240000Y198033D01*
Y199949D02*
X242299D01*
X241150Y198799D01*
Y200332D01*
X242299Y202631D02*
Y201098D01*
X241150D01*
X241533Y201865D01*
Y202248D01*
X241150Y202631D01*
X240383D01*
X240000Y202248D01*
Y201482D01*
X240383Y201098D01*
X244000Y196500D02*
X246299D01*
Y197650D01*
X245916Y198033D01*
X245150D01*
X244766Y197650D01*
Y196500D01*
Y197266D02*
X244000Y198033D01*
Y199949D02*
X246299D01*
X245150Y198799D01*
Y200332D01*
X246299Y202631D02*
X245916Y201865D01*
X245150Y201098D01*
X244383D01*
X244000Y201482D01*
Y202248D01*
X244383Y202631D01*
X244766D01*
X245150Y202248D01*
Y201098D01*
X247900Y196500D02*
X250199D01*
Y197650D01*
X249816Y198033D01*
X249050D01*
X248666Y197650D01*
Y196500D01*
Y197266D02*
X247900Y198033D01*
Y199949D02*
X250199D01*
X249050Y198799D01*
Y200332D01*
X250199Y201098D02*
Y202631D01*
X249816D01*
X248283Y201098D01*
X247900D01*
X251900Y196500D02*
X254199D01*
Y197650D01*
X253816Y198033D01*
X253050D01*
X252666Y197650D01*
Y196500D01*
Y197266D02*
X251900Y198033D01*
Y199949D02*
X254199D01*
X253050Y198799D01*
Y200332D01*
X253816Y201098D02*
X254199Y201482D01*
Y202248D01*
X253816Y202631D01*
X253433D01*
X253050Y202248D01*
X252666Y202631D01*
X252283D01*
X251900Y202248D01*
Y201482D01*
X252283Y201098D01*
X252666D01*
X253050Y201482D01*
X253433Y201098D01*
X253816D01*
X253050Y201482D02*
Y202248D01*
X255800Y196500D02*
X258099D01*
Y197650D01*
X257716Y198033D01*
X256950D01*
X256566Y197650D01*
Y196500D01*
Y197266D02*
X255800Y198033D01*
Y199949D02*
X258099D01*
X256950Y198799D01*
Y200332D01*
X256183Y201098D02*
X255800Y201482D01*
Y202248D01*
X256183Y202631D01*
X257716D01*
X258099Y202248D01*
Y201482D01*
X257716Y201098D01*
X257333D01*
X256950Y201482D01*
Y202631D01*
X259700Y196500D02*
X261999D01*
Y197650D01*
X261616Y198033D01*
X260850D01*
X260466Y197650D01*
Y196500D01*
Y197266D02*
X259700Y198033D01*
X261999Y200332D02*
Y198799D01*
X260850D01*
X261233Y199566D01*
Y199949D01*
X260850Y200332D01*
X260083D01*
X259700Y199949D01*
Y199182D01*
X260083Y198799D01*
X261616Y201098D02*
X261999Y201482D01*
Y202248D01*
X261616Y202631D01*
X260083D01*
X259700Y202248D01*
Y201482D01*
X260083Y201098D01*
X261616D01*
X263700Y196500D02*
X265999D01*
Y197650D01*
X265616Y198033D01*
X264850D01*
X264466Y197650D01*
Y196500D01*
Y197266D02*
X263700Y198033D01*
X265999Y200332D02*
Y198799D01*
X264850D01*
X265233Y199566D01*
Y199949D01*
X264850Y200332D01*
X264083D01*
X263700Y199949D01*
Y199182D01*
X264083Y198799D01*
X263700Y201098D02*
Y201865D01*
Y201482D01*
X265999D01*
X265616Y201098D01*
X267600Y196500D02*
X269899D01*
Y197650D01*
X269516Y198033D01*
X268750D01*
X268366Y197650D01*
Y196500D01*
Y197266D02*
X267600Y198033D01*
X269899Y200332D02*
Y198799D01*
X268750D01*
X269133Y199566D01*
Y199949D01*
X268750Y200332D01*
X267983D01*
X267600Y199949D01*
Y199182D01*
X267983Y198799D01*
X267600Y202631D02*
Y201098D01*
X269133Y202631D01*
X269516D01*
X269899Y202248D01*
Y201482D01*
X269516Y201098D01*
X281000Y98100D02*
Y100399D01*
X279850D01*
X279467Y100016D01*
Y99250D01*
X279850Y98866D01*
X281000D01*
X280234D02*
X279467Y98100D01*
X278701Y100399D02*
X277168D01*
Y100016D01*
X278701Y98483D01*
Y98100D01*
X276401Y100016D02*
X276018Y100399D01*
X275252D01*
X274869Y100016D01*
Y98483D01*
X275252Y98100D01*
X276018D01*
X276401Y98483D01*
Y100016D01*
X254600Y85400D02*
Y87699D01*
X253450D01*
X253067Y87316D01*
Y86550D01*
X253450Y86166D01*
X254600D01*
X253834D02*
X253067Y85400D01*
X252301Y87699D02*
X250768D01*
Y87316D01*
X252301Y85783D01*
Y85400D01*
X250002D02*
X249235D01*
X249618D01*
Y87699D01*
X250002Y87316D01*
X247900Y107600D02*
Y109899D01*
X246750D01*
X246367Y109516D01*
Y108750D01*
X246750Y108366D01*
X247900D01*
X247134D02*
X246367Y107600D01*
X245601Y109899D02*
X244068D01*
Y109516D01*
X245601Y107983D01*
Y107600D01*
X241769D02*
X243302D01*
X241769Y109133D01*
Y109516D01*
X242152Y109899D01*
X242918D01*
X243302Y109516D01*
X247900Y98200D02*
Y100499D01*
X246750D01*
X246367Y100116D01*
Y99350D01*
X246750Y98966D01*
X247900D01*
X247134D02*
X246367Y98200D01*
X245601Y100499D02*
X244068D01*
Y100116D01*
X245601Y98583D01*
Y98200D01*
X243302Y100116D02*
X242918Y100499D01*
X242152D01*
X241769Y100116D01*
Y99733D01*
X242152Y99350D01*
X242535D01*
X242152D01*
X241769Y98966D01*
Y98583D01*
X242152Y98200D01*
X242918D01*
X243302Y98583D01*
X281000Y93400D02*
Y95699D01*
X279850D01*
X279467Y95316D01*
Y94550D01*
X279850Y94166D01*
X281000D01*
X280234D02*
X279467Y93400D01*
X278701Y95699D02*
X277168D01*
Y95316D01*
X278701Y93783D01*
Y93400D01*
X275252D02*
Y95699D01*
X276401Y94550D01*
X274869D01*
X193000Y184000D02*
X195299D01*
Y185150D01*
X194916Y185533D01*
X194150D01*
X193766Y185150D01*
Y184000D01*
Y184766D02*
X193000Y185533D01*
X195299Y186299D02*
Y187832D01*
X194916D01*
X193383Y186299D01*
X193000D01*
X195299Y188599D02*
Y190131D01*
X194916D01*
X193383Y188599D01*
X193000D01*
X182934Y183200D02*
X185233D01*
Y184350D01*
X184850Y184733D01*
X184084D01*
X183701Y184350D01*
Y183200D01*
Y183966D02*
X182934Y184733D01*
X185233Y185499D02*
Y187032D01*
X184850D01*
X183317Y185499D01*
X182934D01*
X184850Y187799D02*
X185233Y188182D01*
Y188948D01*
X184850Y189331D01*
X184467D01*
X184084Y188948D01*
X183701Y189331D01*
X183317D01*
X182934Y188948D01*
Y188182D01*
X183317Y187799D01*
X183701D01*
X184084Y188182D01*
X184467Y187799D01*
X184850D01*
X184084Y188182D02*
Y188948D01*
X188034Y183200D02*
X190333D01*
Y184350D01*
X189950Y184733D01*
X189184D01*
X188801Y184350D01*
Y183200D01*
Y183966D02*
X188034Y184733D01*
X189950Y185499D02*
X190333Y185882D01*
Y186649D01*
X189950Y187032D01*
X189567D01*
X189184Y186649D01*
X188801Y187032D01*
X188417D01*
X188034Y186649D01*
Y185882D01*
X188417Y185499D01*
X188801D01*
X189184Y185882D01*
X189567Y185499D01*
X189950D01*
X189184Y185882D02*
Y186649D01*
X188034Y187799D02*
Y188565D01*
Y188182D01*
X190333D01*
X189950Y187799D01*
X173034Y183200D02*
X175333D01*
Y184350D01*
X174950Y184733D01*
X174184D01*
X173801Y184350D01*
Y183200D01*
Y183966D02*
X173034Y184733D01*
X174950Y185499D02*
X175333Y185882D01*
Y186649D01*
X174950Y187032D01*
X174567D01*
X174184Y186649D01*
X173801Y187032D01*
X173417D01*
X173034Y186649D01*
Y185882D01*
X173417Y185499D01*
X173801D01*
X174184Y185882D01*
X174567Y185499D01*
X174950D01*
X174184Y185882D02*
Y186649D01*
X173034Y189331D02*
Y187799D01*
X174567Y189331D01*
X174950D01*
X175333Y188948D01*
Y188182D01*
X174950Y187799D01*
X98000Y183100D02*
X100299D01*
Y184250D01*
X99916Y184633D01*
X99150D01*
X98766Y184250D01*
Y183100D01*
Y183866D02*
X98000Y184633D01*
X99916Y185399D02*
X100299Y185783D01*
Y186549D01*
X99916Y186932D01*
X99533D01*
X99150Y186549D01*
X98766Y186932D01*
X98383D01*
X98000Y186549D01*
Y185783D01*
X98383Y185399D01*
X98766D01*
X99150Y185783D01*
X99533Y185399D01*
X99916D01*
X99150Y185783D02*
Y186549D01*
X98000Y188848D02*
X100299D01*
X99150Y187698D01*
Y189231D01*
X167934Y183200D02*
X170234D01*
Y184350D01*
X169850Y184733D01*
X169084D01*
X168701Y184350D01*
Y183200D01*
Y183966D02*
X167934Y184733D01*
X169850Y185499D02*
X170234Y185882D01*
Y186649D01*
X169850Y187032D01*
X169467D01*
X169084Y186649D01*
X168701Y187032D01*
X168317D01*
X167934Y186649D01*
Y185882D01*
X168317Y185499D01*
X168701D01*
X169084Y185882D01*
X169467Y185499D01*
X169850D01*
X169084Y185882D02*
Y186649D01*
X170234Y189331D02*
Y187799D01*
X169084D01*
X169467Y188565D01*
Y188948D01*
X169084Y189331D01*
X168317D01*
X167934Y188948D01*
Y188182D01*
X168317Y187799D01*
X177934Y183200D02*
X180234D01*
Y184350D01*
X179850Y184733D01*
X179084D01*
X178701Y184350D01*
Y183200D01*
Y183966D02*
X177934Y184733D01*
X179850Y185499D02*
X180234Y185882D01*
Y186649D01*
X179850Y187032D01*
X179467D01*
X179084Y186649D01*
X178701Y187032D01*
X178317D01*
X177934Y186649D01*
Y185882D01*
X178317Y185499D01*
X178701D01*
X179084Y185882D01*
X179467Y185499D01*
X179850D01*
X179084Y185882D02*
Y186649D01*
X180234Y189331D02*
X179850Y188565D01*
X179084Y187799D01*
X178317D01*
X177934Y188182D01*
Y188948D01*
X178317Y189331D01*
X178701D01*
X179084Y188948D01*
Y187799D01*
X191300Y181499D02*
X189767Y179200D01*
Y181499D02*
X191300Y179200D01*
X189001D02*
X188234D01*
X188618D01*
Y181499D01*
X189001Y181116D01*
X144967Y87216D02*
X145350Y87599D01*
X146117D01*
X146500Y87216D01*
Y85683D01*
X146117Y85300D01*
X145350D01*
X144967Y85683D01*
X144201D02*
X143817Y85300D01*
X143051D01*
X142668Y85683D01*
Y87216D01*
X143051Y87599D01*
X143817D01*
X144201Y87216D01*
Y86833D01*
X143817Y86450D01*
X142668D01*
X141902Y85300D02*
X141135D01*
X141518D01*
Y87599D01*
X141902Y87216D01*
X32067Y52016D02*
X32450Y52399D01*
X33217D01*
X33600Y52016D01*
Y50483D01*
X33217Y50100D01*
X32450D01*
X32067Y50483D01*
X31301Y50100D02*
X30534D01*
X30918D01*
Y52399D01*
X31301Y52016D01*
X80367Y84116D02*
X80750Y84499D01*
X81517D01*
X81900Y84116D01*
Y82583D01*
X81517Y82200D01*
X80750D01*
X80367Y82583D01*
X78451Y82200D02*
Y84499D01*
X79601Y83350D01*
X78068D01*
X80367Y53416D02*
X80750Y53799D01*
X81517D01*
X81900Y53416D01*
Y51883D01*
X81517Y51500D01*
X80750D01*
X80367Y51883D01*
X79601Y53799D02*
X78068D01*
Y53416D01*
X79601Y51883D01*
Y51500D01*
X95367Y53416D02*
X95750Y53799D01*
X96517D01*
X96900Y53416D01*
Y51883D01*
X96517Y51500D01*
X95750D01*
X95367Y51883D01*
X94601Y53416D02*
X94217Y53799D01*
X93451D01*
X93068Y53416D01*
Y53033D01*
X93451Y52650D01*
X93068Y52266D01*
Y51883D01*
X93451Y51500D01*
X94217D01*
X94601Y51883D01*
Y52266D01*
X94217Y52650D01*
X94601Y53033D01*
Y53416D01*
X94217Y52650D02*
X93451D01*
X96367Y84116D02*
X96750Y84499D01*
X97517D01*
X97900Y84116D01*
Y82583D01*
X97517Y82200D01*
X96750D01*
X96367Y82583D01*
X95601Y82200D02*
X94834D01*
X95218D01*
Y84499D01*
X95601Y84116D01*
X93685D02*
X93301Y84499D01*
X92535D01*
X92152Y84116D01*
Y82583D01*
X92535Y82200D01*
X93301D01*
X93685Y82583D01*
Y84116D01*
X103467D02*
X103850Y84499D01*
X104617D01*
X105000Y84116D01*
Y82583D01*
X104617Y82200D01*
X103850D01*
X103467Y82583D01*
X102701Y82200D02*
X101934D01*
X102318D01*
Y84499D01*
X102701Y84116D01*
X100785Y82200D02*
X100018D01*
X100401D01*
Y84499D01*
X100785Y84116D01*
X103867Y53416D02*
X104250Y53799D01*
X105017D01*
X105400Y53416D01*
Y51883D01*
X105017Y51500D01*
X104250D01*
X103867Y51883D01*
X103101Y51500D02*
X102334D01*
X102717D01*
Y53799D01*
X103101Y53416D01*
X99652Y51500D02*
X101185D01*
X99652Y53033D01*
Y53416D01*
X100035Y53799D01*
X100802D01*
X101185Y53416D01*
X88867Y84116D02*
X89250Y84499D01*
X90017D01*
X90400Y84116D01*
Y82583D01*
X90017Y82200D01*
X89250D01*
X88867Y82583D01*
X88101Y82200D02*
X87334D01*
X87717D01*
Y84499D01*
X88101Y84116D01*
X86185D02*
X85802Y84499D01*
X85035D01*
X84652Y84116D01*
Y83733D01*
X85035Y83350D01*
X85418D01*
X85035D01*
X84652Y82966D01*
Y82583D01*
X85035Y82200D01*
X85802D01*
X86185Y82583D01*
X34367Y68516D02*
X34750Y68899D01*
X35517D01*
X35900Y68516D01*
Y66983D01*
X35517Y66600D01*
X34750D01*
X34367Y66983D01*
X33601Y66600D02*
X32834D01*
X33217D01*
Y68899D01*
X33601Y68516D01*
X30152Y68899D02*
X30918Y68516D01*
X31685Y67750D01*
Y66983D01*
X31302Y66600D01*
X30535D01*
X30152Y66983D01*
Y67366D01*
X30535Y67750D01*
X31685D01*
X119616Y51033D02*
X119999Y50650D01*
Y49883D01*
X119616Y49500D01*
X118083D01*
X117700Y49883D01*
Y50650D01*
X118083Y51033D01*
X117700Y53332D02*
Y51799D01*
X119233Y53332D01*
X119616D01*
X119999Y52949D01*
Y52183D01*
X119616Y51799D01*
X117700Y55248D02*
X119999D01*
X118850Y54098D01*
Y55631D01*
X115567Y46916D02*
X115950Y47299D01*
X116717D01*
X117100Y46916D01*
Y45383D01*
X116717Y45000D01*
X115950D01*
X115567Y45383D01*
X113268Y45000D02*
X114801D01*
X113268Y46533D01*
Y46916D01*
X113651Y47299D01*
X114418D01*
X114801Y46916D01*
X110969Y47299D02*
X112502D01*
Y46150D01*
X111735Y46533D01*
X111352D01*
X110969Y46150D01*
Y45383D01*
X111352Y45000D01*
X112118D01*
X112502Y45383D01*
X58566Y189640D02*
X58949Y190024D01*
X59715D01*
X60098Y189640D01*
Y188108D01*
X59715Y187724D01*
X58949D01*
X58566Y188108D01*
X57799Y189640D02*
X57416Y190024D01*
X56650D01*
X56266Y189640D01*
Y189257D01*
X56650Y188874D01*
X57033D01*
X56650D01*
X56266Y188491D01*
Y188108D01*
X56650Y187724D01*
X57416D01*
X57799Y188108D01*
X55500Y189640D02*
X55117Y190024D01*
X54350D01*
X53967Y189640D01*
Y189257D01*
X54350Y188874D01*
X54734D01*
X54350D01*
X53967Y188491D01*
Y188108D01*
X54350Y187724D01*
X55117D01*
X55500Y188108D01*
X159867Y153816D02*
X160250Y154199D01*
X161017D01*
X161400Y153816D01*
Y152283D01*
X161017Y151900D01*
X160250D01*
X159867Y152283D01*
X159101Y154199D02*
X157568D01*
Y153816D01*
X159101Y152283D01*
Y151900D01*
X156801Y153816D02*
X156418Y154199D01*
X155652D01*
X155269Y153816D01*
Y152283D01*
X155652Y151900D01*
X156418D01*
X156801Y152283D01*
Y153816D01*
X159067Y98716D02*
X159450Y99099D01*
X160217D01*
X160600Y98716D01*
Y97183D01*
X160217Y96800D01*
X159450D01*
X159067Y97183D01*
X158301Y98716D02*
X157917Y99099D01*
X157151D01*
X156768Y98716D01*
Y98333D01*
X157151Y97950D01*
X157534D01*
X157151D01*
X156768Y97566D01*
Y97183D01*
X157151Y96800D01*
X157917D01*
X158301Y97183D01*
X156001D02*
X155618Y96800D01*
X154852D01*
X154469Y97183D01*
Y98716D01*
X154852Y99099D01*
X155618D01*
X156001Y98716D01*
Y98333D01*
X155618Y97950D01*
X154469D01*
X159867Y136416D02*
X160250Y136799D01*
X161017D01*
X161400Y136416D01*
Y134883D01*
X161017Y134500D01*
X160250D01*
X159867Y134883D01*
X159101Y136416D02*
X158718Y136799D01*
X157951D01*
X157568Y136416D01*
Y136033D01*
X157951Y135650D01*
X158334D01*
X157951D01*
X157568Y135266D01*
Y134883D01*
X157951Y134500D01*
X158718D01*
X159101Y134883D01*
X156801Y136799D02*
X155269D01*
Y136416D01*
X156801Y134883D01*
Y134500D01*
X129816Y183333D02*
X130199Y182950D01*
Y182183D01*
X129816Y181800D01*
X128283D01*
X127900Y182183D01*
Y182950D01*
X128283Y183333D01*
X127900Y184099D02*
Y184866D01*
Y184483D01*
X130199D01*
X129816Y184099D01*
Y186015D02*
X130199Y186398D01*
Y187165D01*
X129816Y187548D01*
X129433D01*
X129050Y187165D01*
Y186782D01*
Y187165D01*
X128666Y187548D01*
X128283D01*
X127900Y187165D01*
Y186398D01*
X128283Y186015D01*
X129816Y188315D02*
X130199Y188698D01*
Y189464D01*
X129816Y189847D01*
X128283D01*
X127900Y189464D01*
Y188698D01*
X128283Y188315D01*
X129816D01*
X88116Y170433D02*
X88499Y170050D01*
Y169283D01*
X88116Y168900D01*
X86583D01*
X86200Y169283D01*
Y170050D01*
X86583Y170433D01*
X86200Y171199D02*
Y171966D01*
Y171582D01*
X88499D01*
X88116Y171199D01*
X86200Y174648D02*
Y173115D01*
X87733Y174648D01*
X88116D01*
X88499Y174265D01*
Y173498D01*
X88116Y173115D01*
X88499Y176947D02*
Y175415D01*
X87350D01*
X87733Y176181D01*
Y176564D01*
X87350Y176947D01*
X86583D01*
X86200Y176564D01*
Y175798D01*
X86583Y175415D01*
X105216Y170433D02*
X105599Y170050D01*
Y169283D01*
X105216Y168900D01*
X103683D01*
X103300Y169283D01*
Y170050D01*
X103683Y170433D01*
X103300Y171199D02*
Y171966D01*
Y171582D01*
X105599D01*
X105216Y171199D01*
X103300Y174648D02*
Y173115D01*
X104833Y174648D01*
X105216D01*
X105599Y174265D01*
Y173498D01*
X105216Y173115D01*
X105599Y176947D02*
X105216Y176181D01*
X104450Y175415D01*
X103683D01*
X103300Y175798D01*
Y176564D01*
X103683Y176947D01*
X104066D01*
X104450Y176564D01*
Y175415D01*
X35567Y73816D02*
X35950Y74199D01*
X36717D01*
X37100Y73816D01*
Y72283D01*
X36717Y71900D01*
X35950D01*
X35567Y72283D01*
X34801Y71900D02*
X34034D01*
X34418D01*
Y74199D01*
X34801Y73816D01*
X31352Y71900D02*
X32885D01*
X31352Y73433D01*
Y73816D01*
X31735Y74199D01*
X32502D01*
X32885Y73816D01*
X30585Y74199D02*
X29053D01*
Y73816D01*
X30585Y72283D01*
Y71900D01*
X114516Y170433D02*
X114899Y170050D01*
Y169283D01*
X114516Y168900D01*
X112983D01*
X112600Y169283D01*
Y170050D01*
X112983Y170433D01*
X112600Y171199D02*
Y171966D01*
Y171582D01*
X114899D01*
X114516Y171199D01*
X112600Y174648D02*
Y173115D01*
X114133Y174648D01*
X114516D01*
X114899Y174265D01*
Y173498D01*
X114516Y173115D01*
Y175415D02*
X114899Y175798D01*
Y176564D01*
X114516Y176947D01*
X114133D01*
X113750Y176564D01*
X113366Y176947D01*
X112983D01*
X112600Y176564D01*
Y175798D01*
X112983Y175415D01*
X113366D01*
X113750Y175798D01*
X114133Y175415D01*
X114516D01*
X113750Y175798D02*
Y176564D01*
X125416Y170333D02*
X125799Y169950D01*
Y169183D01*
X125416Y168800D01*
X123883D01*
X123500Y169183D01*
Y169950D01*
X123883Y170333D01*
X123500Y171099D02*
Y171866D01*
Y171483D01*
X125799D01*
X125416Y171099D01*
X123500Y174548D02*
Y173015D01*
X125033Y174548D01*
X125416D01*
X125799Y174165D01*
Y173398D01*
X125416Y173015D01*
X123883Y175315D02*
X123500Y175698D01*
Y176464D01*
X123883Y176847D01*
X125416D01*
X125799Y176464D01*
Y175698D01*
X125416Y175315D01*
X125033D01*
X124650Y175698D01*
Y176847D01*
X105916Y89833D02*
X106299Y89450D01*
Y88683D01*
X105916Y88300D01*
X104383D01*
X104000Y88683D01*
Y89450D01*
X104383Y89833D01*
X104000Y90599D02*
Y91366D01*
Y90983D01*
X106299D01*
X105916Y90599D01*
X104000Y93665D02*
X106299D01*
X105150Y92515D01*
Y94048D01*
X106299Y96347D02*
X105916Y95581D01*
X105150Y94815D01*
X104383D01*
X104000Y95198D01*
Y95964D01*
X104383Y96347D01*
X104766D01*
X105150Y95964D01*
Y94815D01*
X84867Y48999D02*
X86400D01*
Y47850D01*
X85634D01*
X86400D01*
Y46700D01*
X84101D02*
X83334D01*
X83718D01*
Y48999D01*
X84101Y48616D01*
X100367Y48999D02*
X101900D01*
Y47850D01*
X101134D01*
X101900D01*
Y46700D01*
X98068D02*
X99601D01*
X98068Y48233D01*
Y48616D01*
X98451Y48999D01*
X99217D01*
X99601Y48616D01*
X114367Y75999D02*
X115900D01*
Y74850D01*
X115134D01*
X115900D01*
Y73700D01*
X113601Y75616D02*
X113217Y75999D01*
X112451D01*
X112068Y75616D01*
Y75233D01*
X112451Y74850D01*
X112834D01*
X112451D01*
X112068Y74466D01*
Y74083D01*
X112451Y73700D01*
X113217D01*
X113601Y74083D01*
X26367Y221499D02*
X27134D01*
X26750D01*
Y219583D01*
X27134Y219200D01*
X27517D01*
X27900Y219583D01*
X24451Y219200D02*
Y221499D01*
X25601Y220350D01*
X24068D01*
X87600Y92000D02*
X89899D01*
Y93150D01*
X89516Y93533D01*
X88750D01*
X88366Y93150D01*
Y92000D01*
Y92766D02*
X87600Y93533D01*
Y94299D02*
Y95066D01*
Y94683D01*
X89899D01*
X89516Y94299D01*
X77000Y46700D02*
Y48999D01*
X75850D01*
X75467Y48616D01*
Y47850D01*
X75850Y47466D01*
X77000D01*
X76234D02*
X75467Y46700D01*
X73551D02*
Y48999D01*
X74701Y47850D01*
X73168D01*
X19500Y74700D02*
Y76999D01*
X18350D01*
X17967Y76616D01*
Y75850D01*
X18350Y75466D01*
X19500D01*
X18734D02*
X17967Y74700D01*
X17201Y75083D02*
X16817Y74700D01*
X16051D01*
X15668Y75083D01*
Y76616D01*
X16051Y76999D01*
X16817D01*
X17201Y76616D01*
Y76233D01*
X16817Y75850D01*
X15668D01*
X35500Y82200D02*
Y84499D01*
X34350D01*
X33967Y84116D01*
Y83350D01*
X34350Y82966D01*
X35500D01*
X34734D02*
X33967Y82200D01*
X33201D02*
X32434D01*
X32818D01*
Y84499D01*
X33201Y84116D01*
X31285Y82200D02*
X30518D01*
X30902D01*
Y84499D01*
X31285Y84116D01*
X117100Y57800D02*
Y60099D01*
X115950D01*
X115567Y59716D01*
Y58950D01*
X115950Y58566D01*
X117100D01*
X116334D02*
X115567Y57800D01*
X114801D02*
X114034D01*
X114418D01*
Y60099D01*
X114801Y59716D01*
X112885D02*
X112502Y60099D01*
X111735D01*
X111352Y59716D01*
Y59333D01*
X111735Y58950D01*
X111352Y58566D01*
Y58183D01*
X111735Y57800D01*
X112502D01*
X112885Y58183D01*
Y58566D01*
X112502Y58950D01*
X112885Y59333D01*
Y59716D01*
X112502Y58950D02*
X111735D01*
X161400Y140500D02*
Y142799D01*
X160250D01*
X159867Y142416D01*
Y141650D01*
X160250Y141266D01*
X161400D01*
X160634D02*
X159867Y140500D01*
X159101Y142416D02*
X158718Y142799D01*
X157951D01*
X157568Y142416D01*
Y142033D01*
X157951Y141650D01*
X158334D01*
X157951D01*
X157568Y141266D01*
Y140883D01*
X157951Y140500D01*
X158718D01*
X159101Y140883D01*
X155269Y140500D02*
X156801D01*
X155269Y142033D01*
Y142416D01*
X155652Y142799D01*
X156418D01*
X156801Y142416D01*
X103000Y183100D02*
X105299D01*
Y184250D01*
X104916Y184633D01*
X104150D01*
X103766Y184250D01*
Y183100D01*
Y183866D02*
X103000Y184633D01*
X105299Y185399D02*
Y186932D01*
X104916D01*
X103383Y185399D01*
X103000D01*
X103383Y187698D02*
X103000Y188082D01*
Y188848D01*
X103383Y189231D01*
X104916D01*
X105299Y188848D01*
Y188082D01*
X104916Y187698D01*
X104533D01*
X104150Y188082D01*
Y189231D01*
X108000Y183100D02*
X110299D01*
Y184250D01*
X109916Y184633D01*
X109150D01*
X108766Y184250D01*
Y183100D01*
Y183866D02*
X108000Y184633D01*
X109916Y185399D02*
X110299Y185783D01*
Y186549D01*
X109916Y186932D01*
X109533D01*
X109150Y186549D01*
X108766Y186932D01*
X108383D01*
X108000Y186549D01*
Y185783D01*
X108383Y185399D01*
X108766D01*
X109150Y185783D01*
X109533Y185399D01*
X109916D01*
X109150Y185783D02*
Y186549D01*
X109916Y187698D02*
X110299Y188082D01*
Y188848D01*
X109916Y189231D01*
X108383D01*
X108000Y188848D01*
Y188082D01*
X108383Y187698D01*
X109916D01*
X93000Y183100D02*
X95299D01*
Y184250D01*
X94916Y184633D01*
X94150D01*
X93766Y184250D01*
Y183100D01*
Y183866D02*
X93000Y184633D01*
X94916Y185399D02*
X95299Y185783D01*
Y186549D01*
X94916Y186932D01*
X94533D01*
X94150Y186549D01*
X93766Y186932D01*
X93383D01*
X93000Y186549D01*
Y185783D01*
X93383Y185399D01*
X93766D01*
X94150Y185783D01*
X94533Y185399D01*
X94916D01*
X94150Y185783D02*
Y186549D01*
X94916Y187698D02*
X95299Y188082D01*
Y188848D01*
X94916Y189231D01*
X94533D01*
X94150Y188848D01*
Y188465D01*
Y188848D01*
X93766Y189231D01*
X93383D01*
X93000Y188848D01*
Y188082D01*
X93383Y187698D01*
X115400Y183900D02*
X117699D01*
Y185050D01*
X117316Y185433D01*
X116550D01*
X116166Y185050D01*
Y183900D01*
Y184666D02*
X115400Y185433D01*
X117316Y186199D02*
X117699Y186583D01*
Y187349D01*
X117316Y187732D01*
X116933D01*
X116550Y187349D01*
X116166Y187732D01*
X115783D01*
X115400Y187349D01*
Y186583D01*
X115783Y186199D01*
X116166D01*
X116550Y186583D01*
X116933Y186199D01*
X117316D01*
X116550Y186583D02*
Y187349D01*
X117699Y188498D02*
Y190031D01*
X117316D01*
X115783Y188498D01*
X115400D01*
X94600Y88200D02*
X96899D01*
Y89350D01*
X96516Y89733D01*
X95750D01*
X95366Y89350D01*
Y88200D01*
Y88966D02*
X94600Y89733D01*
Y90499D02*
Y91266D01*
Y90882D01*
X96899D01*
X96516Y90499D01*
X94600Y93948D02*
Y92415D01*
X96133Y93948D01*
X96516D01*
X96899Y93565D01*
Y92799D01*
X96516Y92415D01*
X94983Y94715D02*
X94600Y95098D01*
Y95864D01*
X94983Y96247D01*
X96516D01*
X96899Y95864D01*
Y95098D01*
X96516Y94715D01*
X96133D01*
X95750Y95098D01*
Y96247D01*
X92800Y159600D02*
Y161899D01*
X91650D01*
X91267Y161516D01*
Y160750D01*
X91650Y160366D01*
X92800D01*
X92034D02*
X91267Y159600D01*
X90501Y161516D02*
X90118Y161899D01*
X89351D01*
X88968Y161516D01*
Y161133D01*
X89351Y160750D01*
X89734D01*
X89351D01*
X88968Y160366D01*
Y159983D01*
X89351Y159600D01*
X90118D01*
X90501Y159983D01*
X88201Y161516D02*
X87818Y161899D01*
X87052D01*
X86669Y161516D01*
Y159983D01*
X87052Y159600D01*
X87818D01*
X88201Y159983D01*
Y161516D01*
X189280Y75500D02*
X191580D01*
Y76650D01*
X191197Y77033D01*
X190430D01*
X190047Y76650D01*
Y75500D01*
Y76266D02*
X189280Y77033D01*
X191197Y77799D02*
X191580Y78183D01*
Y78949D01*
X191197Y79332D01*
X190813D01*
X190430Y78949D01*
Y78566D01*
Y78949D01*
X190047Y79332D01*
X189664D01*
X189280Y78949D01*
Y78183D01*
X189664Y77799D01*
X189280Y80098D02*
Y80865D01*
Y80482D01*
X191580D01*
X191197Y80098D01*
X194348Y75500D02*
X196648D01*
Y76650D01*
X196264Y77033D01*
X195498D01*
X195115Y76650D01*
Y75500D01*
Y76266D02*
X194348Y77033D01*
X196264Y77799D02*
X196648Y78183D01*
Y78949D01*
X196264Y79332D01*
X195881D01*
X195498Y78949D01*
Y78566D01*
Y78949D01*
X195115Y79332D01*
X194731D01*
X194348Y78949D01*
Y78183D01*
X194731Y77799D01*
X196264Y80098D02*
X196648Y80482D01*
Y81248D01*
X196264Y81631D01*
X195881D01*
X195498Y81248D01*
Y80865D01*
Y81248D01*
X195115Y81631D01*
X194731D01*
X194348Y81248D01*
Y80482D01*
X194731Y80098D01*
X119900Y85799D02*
X119134D01*
X119517D01*
Y83500D01*
X119900D01*
X119134D01*
X116451Y85416D02*
X116834Y85799D01*
X117601D01*
X117984Y85416D01*
Y83883D01*
X117601Y83500D01*
X116834D01*
X116451Y83883D01*
X115685Y83500D02*
X114918D01*
X115302D01*
Y85799D01*
X115685Y85416D01*
X112619Y83500D02*
Y85799D01*
X113769Y84650D01*
X112236D01*
X96467Y119416D02*
X96850Y119799D01*
X97617D01*
X98000Y119416D01*
Y117883D01*
X97617Y117500D01*
X96850D01*
X96467Y117883D01*
X95701Y117500D02*
X94934D01*
X95318D01*
Y119799D01*
X95701Y119416D01*
X93785D02*
X93401Y119799D01*
X92635D01*
X92252Y119416D01*
Y119033D01*
X92635Y118650D01*
X93018D01*
X92635D01*
X92252Y118266D01*
Y117883D01*
X92635Y117500D01*
X93401D01*
X93785Y117883D01*
X91485Y119799D02*
X89953D01*
Y119416D01*
X91485Y117883D01*
Y117500D01*
X96467Y129316D02*
X96850Y129699D01*
X97617D01*
X98000Y129316D01*
Y127783D01*
X97617Y127400D01*
X96850D01*
X96467Y127783D01*
X95701Y127400D02*
X94934D01*
X95318D01*
Y129699D01*
X95701Y129316D01*
X93785D02*
X93401Y129699D01*
X92635D01*
X92252Y129316D01*
Y128933D01*
X92635Y128550D01*
X93018D01*
X92635D01*
X92252Y128166D01*
Y127783D01*
X92635Y127400D01*
X93401D01*
X93785Y127783D01*
X91485Y129316D02*
X91102Y129699D01*
X90336D01*
X89953Y129316D01*
Y128933D01*
X90336Y128550D01*
X89953Y128166D01*
Y127783D01*
X90336Y127400D01*
X91102D01*
X91485Y127783D01*
Y128166D01*
X91102Y128550D01*
X91485Y128933D01*
Y129316D01*
X91102Y128550D02*
X90336D01*
X95467Y134616D02*
X95850Y134999D01*
X96617D01*
X97000Y134616D01*
Y133083D01*
X96617Y132700D01*
X95850D01*
X95467Y133083D01*
X94701Y132700D02*
X93934D01*
X94318D01*
Y134999D01*
X94701Y134616D01*
X92785D02*
X92401Y134999D01*
X91635D01*
X91252Y134616D01*
Y134233D01*
X91635Y133850D01*
X92018D01*
X91635D01*
X91252Y133466D01*
Y133083D01*
X91635Y132700D01*
X92401D01*
X92785Y133083D01*
X90485D02*
X90102Y132700D01*
X89336D01*
X88953Y133083D01*
Y134616D01*
X89336Y134999D01*
X90102D01*
X90485Y134616D01*
Y134233D01*
X90102Y133850D01*
X88953D01*
X106967Y119416D02*
X107350Y119799D01*
X108117D01*
X108500Y119416D01*
Y117883D01*
X108117Y117500D01*
X107350D01*
X106967Y117883D01*
X106201Y117500D02*
X105434D01*
X105817D01*
Y119799D01*
X106201Y119416D01*
X103135Y117500D02*
Y119799D01*
X104285Y118650D01*
X102752D01*
X101985Y117500D02*
X101219D01*
X101602D01*
Y119799D01*
X101985Y119416D01*
X106367Y143616D02*
X106750Y143999D01*
X107517D01*
X107900Y143616D01*
Y142083D01*
X107517Y141700D01*
X106750D01*
X106367Y142083D01*
X105601Y141700D02*
X104834D01*
X105218D01*
Y143999D01*
X105601Y143616D01*
X103685D02*
X103302Y143999D01*
X102535D01*
X102152Y143616D01*
Y143233D01*
X102535Y142850D01*
X102918D01*
X102535D01*
X102152Y142466D01*
Y142083D01*
X102535Y141700D01*
X103302D01*
X103685Y142083D01*
X99853Y143999D02*
X100619Y143616D01*
X101385Y142850D01*
Y142083D01*
X101002Y141700D01*
X100236D01*
X99853Y142083D01*
Y142466D01*
X100236Y142850D01*
X101385D01*
X106967Y129316D02*
X107350Y129699D01*
X108117D01*
X108500Y129316D01*
Y127783D01*
X108117Y127400D01*
X107350D01*
X106967Y127783D01*
X106201Y127400D02*
X105434D01*
X105817D01*
Y129699D01*
X106201Y129316D01*
X103135Y127400D02*
Y129699D01*
X104285Y128550D01*
X102752D01*
X101985Y129316D02*
X101602Y129699D01*
X100836D01*
X100453Y129316D01*
Y127783D01*
X100836Y127400D01*
X101602D01*
X101985Y127783D01*
Y129316D01*
X43267Y143316D02*
X43650Y143699D01*
X44417D01*
X44800Y143316D01*
Y141783D01*
X44417Y141400D01*
X43650D01*
X43267Y141783D01*
X42501Y141400D02*
X41734D01*
X42118D01*
Y143699D01*
X42501Y143316D01*
X40585D02*
X40202Y143699D01*
X39435D01*
X39052Y143316D01*
Y142933D01*
X39435Y142550D01*
X39818D01*
X39435D01*
X39052Y142166D01*
Y141783D01*
X39435Y141400D01*
X40202D01*
X40585Y141783D01*
X38285Y141400D02*
X37519D01*
X37902D01*
Y143699D01*
X38285Y143316D01*
X43267Y138316D02*
X43650Y138699D01*
X44417D01*
X44800Y138316D01*
Y136783D01*
X44417Y136400D01*
X43650D01*
X43267Y136783D01*
X42501Y136400D02*
X41734D01*
X42118D01*
Y138699D01*
X42501Y138316D01*
X40585D02*
X40202Y138699D01*
X39435D01*
X39052Y138316D01*
Y137933D01*
X39435Y137550D01*
X39818D01*
X39435D01*
X39052Y137166D01*
Y136783D01*
X39435Y136400D01*
X40202D01*
X40585Y136783D01*
X36753Y136400D02*
X38285D01*
X36753Y137933D01*
Y138316D01*
X37136Y138699D01*
X37902D01*
X38285Y138316D01*
X43267Y133316D02*
X43650Y133699D01*
X44417D01*
X44800Y133316D01*
Y131783D01*
X44417Y131400D01*
X43650D01*
X43267Y131783D01*
X42501Y131400D02*
X41734D01*
X42118D01*
Y133699D01*
X42501Y133316D01*
X40585D02*
X40202Y133699D01*
X39435D01*
X39052Y133316D01*
Y132933D01*
X39435Y132550D01*
X39818D01*
X39435D01*
X39052Y132166D01*
Y131783D01*
X39435Y131400D01*
X40202D01*
X40585Y131783D01*
X38285Y133316D02*
X37902Y133699D01*
X37136D01*
X36753Y133316D01*
Y132933D01*
X37136Y132550D01*
X37519D01*
X37136D01*
X36753Y132166D01*
Y131783D01*
X37136Y131400D01*
X37902D01*
X38285Y131783D01*
X43267Y118316D02*
X43650Y118699D01*
X44417D01*
X44800Y118316D01*
Y116783D01*
X44417Y116400D01*
X43650D01*
X43267Y116783D01*
X42501Y116400D02*
X41734D01*
X42118D01*
Y118699D01*
X42501Y118316D01*
X40585D02*
X40202Y118699D01*
X39435D01*
X39052Y118316D01*
Y117933D01*
X39435Y117550D01*
X39818D01*
X39435D01*
X39052Y117166D01*
Y116783D01*
X39435Y116400D01*
X40202D01*
X40585Y116783D01*
X37136Y116400D02*
Y118699D01*
X38285Y117550D01*
X36753D01*
X43267Y128316D02*
X43650Y128699D01*
X44417D01*
X44800Y128316D01*
Y126783D01*
X44417Y126400D01*
X43650D01*
X43267Y126783D01*
X42501Y126400D02*
X41734D01*
X42118D01*
Y128699D01*
X42501Y128316D01*
X40585D02*
X40202Y128699D01*
X39435D01*
X39052Y128316D01*
Y127933D01*
X39435Y127550D01*
X39818D01*
X39435D01*
X39052Y127166D01*
Y126783D01*
X39435Y126400D01*
X40202D01*
X40585Y126783D01*
X36753Y128699D02*
X38285D01*
Y127550D01*
X37519Y127933D01*
X37136D01*
X36753Y127550D01*
Y126783D01*
X37136Y126400D01*
X37902D01*
X38285Y126783D01*
X92316Y99833D02*
X92699Y99450D01*
Y98683D01*
X92316Y98300D01*
X90783D01*
X90400Y98683D01*
Y99450D01*
X90783Y99833D01*
X90400Y100599D02*
Y101366D01*
Y100982D01*
X92699D01*
X92316Y100599D01*
X90400Y103665D02*
X92699D01*
X91550Y102515D01*
Y104048D01*
X90400Y106347D02*
Y104815D01*
X91933Y106347D01*
X92316D01*
X92699Y105964D01*
Y105198D01*
X92316Y104815D01*
X107316Y99833D02*
X107699Y99450D01*
Y98683D01*
X107316Y98300D01*
X105783D01*
X105400Y98683D01*
Y99450D01*
X105783Y99833D01*
X105400Y100599D02*
Y101366D01*
Y100982D01*
X107699D01*
X107316Y100599D01*
X105400Y103665D02*
X107699D01*
X106550Y102515D01*
Y104048D01*
X107316Y104815D02*
X107699Y105198D01*
Y105964D01*
X107316Y106347D01*
X106933D01*
X106550Y105964D01*
Y105581D01*
Y105964D01*
X106166Y106347D01*
X105783D01*
X105400Y105964D01*
Y105198D01*
X105783Y104815D01*
X93867Y154399D02*
X95400D01*
Y153250D01*
X94634D01*
X95400D01*
Y152100D01*
X93101D02*
X92334D01*
X92717D01*
Y154399D01*
X93101Y154016D01*
X91185Y152100D02*
X90418D01*
X90802D01*
Y154399D01*
X91185Y154016D01*
X118300Y128200D02*
Y130499D01*
X117150D01*
X116767Y130116D01*
Y129350D01*
X117150Y128966D01*
X118300D01*
X117534D02*
X116767Y128200D01*
X116001D02*
X115234D01*
X115618D01*
Y130499D01*
X116001Y130116D01*
X114085Y128200D02*
X113318D01*
X113701D01*
Y130499D01*
X114085Y130116D01*
X112169Y128200D02*
X111402D01*
X111785D01*
Y130499D01*
X112169Y130116D01*
X118300Y139300D02*
Y141599D01*
X117150D01*
X116767Y141216D01*
Y140450D01*
X117150Y140066D01*
X118300D01*
X117534D02*
X116767Y139300D01*
X116001D02*
X115234D01*
X115618D01*
Y141599D01*
X116001Y141216D01*
X114085Y139300D02*
X113318D01*
X113701D01*
Y141599D01*
X114085Y141216D01*
X110636Y139300D02*
X112169D01*
X110636Y140833D01*
Y141216D01*
X111019Y141599D01*
X111785D01*
X112169Y141216D01*
X118300Y124500D02*
Y126799D01*
X117150D01*
X116767Y126416D01*
Y125650D01*
X117150Y125266D01*
X118300D01*
X117534D02*
X116767Y124500D01*
X116001D02*
X115234D01*
X115618D01*
Y126799D01*
X116001Y126416D01*
X114085Y124500D02*
X113318D01*
X113701D01*
Y126799D01*
X114085Y126416D01*
X112169D02*
X111785Y126799D01*
X111019D01*
X110636Y126416D01*
Y126033D01*
X111019Y125650D01*
X111402D01*
X111019D01*
X110636Y125266D01*
Y124883D01*
X111019Y124500D01*
X111785D01*
X112169Y124883D01*
X118300Y120800D02*
Y123099D01*
X117150D01*
X116767Y122716D01*
Y121950D01*
X117150Y121566D01*
X118300D01*
X117534D02*
X116767Y120800D01*
X116001D02*
X115234D01*
X115618D01*
Y123099D01*
X116001Y122716D01*
X114085D02*
X113701Y123099D01*
X112935D01*
X112552Y122716D01*
Y121183D01*
X112935Y120800D01*
X113701D01*
X114085Y121183D01*
Y122716D01*
X111785Y123099D02*
X110253D01*
Y122716D01*
X111785Y121183D01*
Y120800D01*
X118300Y117100D02*
Y119399D01*
X117150D01*
X116767Y119016D01*
Y118250D01*
X117150Y117866D01*
X118300D01*
X117534D02*
X116767Y117100D01*
X116001D02*
X115234D01*
X115618D01*
Y119399D01*
X116001Y119016D01*
X114085D02*
X113701Y119399D01*
X112935D01*
X112552Y119016D01*
Y117483D01*
X112935Y117100D01*
X113701D01*
X114085Y117483D01*
Y119016D01*
X111785Y117483D02*
X111402Y117100D01*
X110636D01*
X110253Y117483D01*
Y119016D01*
X110636Y119399D01*
X111402D01*
X111785Y119016D01*
Y118633D01*
X111402Y118250D01*
X110253D01*
X118300Y131900D02*
Y134199D01*
X117150D01*
X116767Y133816D01*
Y133050D01*
X117150Y132666D01*
X118300D01*
X117534D02*
X116767Y131900D01*
X116001D02*
X115234D01*
X115618D01*
Y134199D01*
X116001Y133816D01*
X114085Y131900D02*
X113318D01*
X113701D01*
Y134199D01*
X114085Y133816D01*
X112169D02*
X111785Y134199D01*
X111019D01*
X110636Y133816D01*
Y132283D01*
X111019Y131900D01*
X111785D01*
X112169Y132283D01*
Y133816D01*
X76600Y121400D02*
Y123699D01*
X75450D01*
X75067Y123316D01*
Y122550D01*
X75450Y122166D01*
X76600D01*
X75834D02*
X75067Y121400D01*
X74301Y123316D02*
X73918Y123699D01*
X73151D01*
X72768Y123316D01*
Y122933D01*
X73151Y122550D01*
X72768Y122166D01*
Y121783D01*
X73151Y121400D01*
X73918D01*
X74301Y121783D01*
Y122166D01*
X73918Y122550D01*
X74301Y122933D01*
Y123316D01*
X73918Y122550D02*
X73151D01*
X72001Y123316D02*
X71618Y123699D01*
X70852D01*
X70469Y123316D01*
Y122933D01*
X70852Y122550D01*
X70469Y122166D01*
Y121783D01*
X70852Y121400D01*
X71618D01*
X72001Y121783D01*
Y122166D01*
X71618Y122550D01*
X72001Y122933D01*
Y123316D01*
X71618Y122550D02*
X70852D01*
X76600Y125400D02*
Y127699D01*
X75450D01*
X75067Y127316D01*
Y126550D01*
X75450Y126166D01*
X76600D01*
X75834D02*
X75067Y125400D01*
X74301Y127316D02*
X73918Y127699D01*
X73151D01*
X72768Y127316D01*
Y126933D01*
X73151Y126550D01*
X72768Y126166D01*
Y125783D01*
X73151Y125400D01*
X73918D01*
X74301Y125783D01*
Y126166D01*
X73918Y126550D01*
X74301Y126933D01*
Y127316D01*
X73918Y126550D02*
X73151D01*
X72001Y125783D02*
X71618Y125400D01*
X70852D01*
X70469Y125783D01*
Y127316D01*
X70852Y127699D01*
X71618D01*
X72001Y127316D01*
Y126933D01*
X71618Y126550D01*
X70469D01*
X76600Y129400D02*
Y131699D01*
X75450D01*
X75067Y131316D01*
Y130550D01*
X75450Y130166D01*
X76600D01*
X75834D02*
X75067Y129400D01*
X74301Y129783D02*
X73918Y129400D01*
X73151D01*
X72768Y129783D01*
Y131316D01*
X73151Y131699D01*
X73918D01*
X74301Y131316D01*
Y130933D01*
X73918Y130550D01*
X72768D01*
X72001Y131316D02*
X71618Y131699D01*
X70852D01*
X70469Y131316D01*
Y129783D01*
X70852Y129400D01*
X71618D01*
X72001Y129783D01*
Y131316D01*
X76600Y133400D02*
Y135699D01*
X75450D01*
X75067Y135316D01*
Y134550D01*
X75450Y134166D01*
X76600D01*
X75834D02*
X75067Y133400D01*
X74301Y133783D02*
X73918Y133400D01*
X73151D01*
X72768Y133783D01*
Y135316D01*
X73151Y135699D01*
X73918D01*
X74301Y135316D01*
Y134933D01*
X73918Y134550D01*
X72768D01*
X72001Y133400D02*
X71235D01*
X71618D01*
Y135699D01*
X72001Y135316D01*
X84000Y114500D02*
Y116799D01*
X82850D01*
X82467Y116416D01*
Y115650D01*
X82850Y115266D01*
X84000D01*
X83234D02*
X82467Y114500D01*
X81701D02*
X80934D01*
X81318D01*
Y116799D01*
X81701Y116416D01*
X78252Y114500D02*
X79785D01*
X78252Y116033D01*
Y116416D01*
X78635Y116799D01*
X79401D01*
X79785Y116416D01*
X77485D02*
X77102Y116799D01*
X76336D01*
X75953Y116416D01*
Y114883D01*
X76336Y114500D01*
X77102D01*
X77485Y114883D01*
Y116416D01*
X32000Y116500D02*
Y118799D01*
X30850D01*
X30467Y118416D01*
Y117650D01*
X30850Y117266D01*
X32000D01*
X31234D02*
X30467Y116500D01*
X29701Y116883D02*
X29318Y116500D01*
X28551D01*
X28168Y116883D01*
Y118416D01*
X28551Y118799D01*
X29318D01*
X29701Y118416D01*
Y118033D01*
X29318Y117650D01*
X28168D01*
X27402Y118416D02*
X27018Y118799D01*
X26252D01*
X25869Y118416D01*
Y118033D01*
X26252Y117650D01*
X26635D01*
X26252D01*
X25869Y117266D01*
Y116883D01*
X26252Y116500D01*
X27018D01*
X27402Y116883D01*
X32000Y131500D02*
Y133799D01*
X30850D01*
X30467Y133416D01*
Y132650D01*
X30850Y132266D01*
X32000D01*
X31234D02*
X30467Y131500D01*
X29701Y131883D02*
X29318Y131500D01*
X28551D01*
X28168Y131883D01*
Y133416D01*
X28551Y133799D01*
X29318D01*
X29701Y133416D01*
Y133033D01*
X29318Y132650D01*
X28168D01*
X25869Y133799D02*
X27402D01*
Y132650D01*
X26635Y133033D01*
X26252D01*
X25869Y132650D01*
Y131883D01*
X26252Y131500D01*
X27018D01*
X27402Y131883D01*
X32000Y111500D02*
Y113799D01*
X30850D01*
X30467Y113416D01*
Y112650D01*
X30850Y112266D01*
X32000D01*
X31234D02*
X30467Y111500D01*
X29701Y111883D02*
X29318Y111500D01*
X28551D01*
X28168Y111883D01*
Y113416D01*
X28551Y113799D01*
X29318D01*
X29701Y113416D01*
Y113033D01*
X29318Y112650D01*
X28168D01*
X26252Y111500D02*
Y113799D01*
X27402Y112650D01*
X25869D01*
X24300Y122000D02*
X26599D01*
Y123150D01*
X26216Y123533D01*
X25450D01*
X25066Y123150D01*
Y122000D01*
Y122766D02*
X24300Y123533D01*
X24683Y124299D02*
X24300Y124682D01*
Y125449D01*
X24683Y125832D01*
X26216D01*
X26599Y125449D01*
Y124682D01*
X26216Y124299D01*
X25833D01*
X25450Y124682D01*
Y125832D01*
X24300Y128131D02*
Y126599D01*
X25833Y128131D01*
X26216D01*
X26599Y127748D01*
Y126982D01*
X26216Y126599D01*
X44800Y121400D02*
Y123699D01*
X43650D01*
X43267Y123316D01*
Y122550D01*
X43650Y122166D01*
X44800D01*
X44034D02*
X43267Y121400D01*
X42501Y121783D02*
X42118Y121400D01*
X41351D01*
X40968Y121783D01*
Y123316D01*
X41351Y123699D01*
X42118D01*
X42501Y123316D01*
Y122933D01*
X42118Y122550D01*
X40968D01*
X38669Y123699D02*
X39435Y123316D01*
X40202Y122550D01*
Y121783D01*
X39818Y121400D01*
X39052D01*
X38669Y121783D01*
Y122166D01*
X39052Y122550D01*
X40202D01*
X94100Y98300D02*
X96399D01*
Y99450D01*
X96016Y99833D01*
X95250D01*
X94866Y99450D01*
Y98300D01*
Y99066D02*
X94100Y99833D01*
Y100599D02*
Y101366D01*
Y100982D01*
X96399D01*
X96016Y100599D01*
X94100Y102515D02*
Y103282D01*
Y102899D01*
X96399D01*
X96016Y102515D01*
X94483Y104431D02*
X94100Y104815D01*
Y105581D01*
X94483Y105964D01*
X96016D01*
X96399Y105581D01*
Y104815D01*
X96016Y104431D01*
X95633D01*
X95250Y104815D01*
Y105964D01*
X118300Y143000D02*
Y145299D01*
X117150D01*
X116767Y144916D01*
Y144150D01*
X117150Y143766D01*
X118300D01*
X117534D02*
X116767Y143000D01*
X116001D02*
X115234D01*
X115618D01*
Y145299D01*
X116001Y144916D01*
X112552Y143000D02*
X114085D01*
X112552Y144533D01*
Y144916D01*
X112935Y145299D01*
X113701D01*
X114085Y144916D01*
X111785Y143000D02*
X111019D01*
X111402D01*
Y145299D01*
X111785Y144916D01*
X131467Y115016D02*
X131850Y115399D01*
X132617D01*
X133000Y115016D01*
Y113483D01*
X132617Y113100D01*
X131850D01*
X131467Y113483D01*
X130701Y115399D02*
X129168D01*
Y115016D01*
X130701Y113483D01*
Y113100D01*
X128402Y113483D02*
X128018Y113100D01*
X127252D01*
X126869Y113483D01*
Y115016D01*
X127252Y115399D01*
X128018D01*
X128402Y115016D01*
Y114633D01*
X128018Y114250D01*
X126869D01*
X76600Y139900D02*
Y142199D01*
X75450D01*
X75067Y141816D01*
Y141050D01*
X75450Y140666D01*
X76600D01*
X75834D02*
X75067Y139900D01*
X74301D02*
X73534D01*
X73918D01*
Y142199D01*
X74301Y141816D01*
X72385D02*
X72001Y142199D01*
X71235D01*
X70852Y141816D01*
Y140283D01*
X71235Y139900D01*
X72001D01*
X72385Y140283D01*
Y141816D01*
X70085D02*
X69702Y142199D01*
X68936D01*
X68553Y141816D01*
Y141433D01*
X68936Y141050D01*
X69319D01*
X68936D01*
X68553Y140666D01*
Y140283D01*
X68936Y139900D01*
X69702D01*
X70085Y140283D01*
X118300Y113400D02*
Y115699D01*
X117150D01*
X116767Y115316D01*
Y114550D01*
X117150Y114166D01*
X118300D01*
X117534D02*
X116767Y113400D01*
X116001D02*
X115234D01*
X115618D01*
Y115699D01*
X116001Y115316D01*
X114085D02*
X113701Y115699D01*
X112935D01*
X112552Y115316D01*
Y113783D01*
X112935Y113400D01*
X113701D01*
X114085Y113783D01*
Y115316D01*
X110636Y113400D02*
Y115699D01*
X111785Y114550D01*
X110253D01*
X118300Y146700D02*
Y148999D01*
X117150D01*
X116767Y148616D01*
Y147850D01*
X117150Y147466D01*
X118300D01*
X117534D02*
X116767Y146700D01*
X116001D02*
X115234D01*
X115618D01*
Y148999D01*
X116001Y148616D01*
X114085D02*
X113701Y148999D01*
X112935D01*
X112552Y148616D01*
Y147083D01*
X112935Y146700D01*
X113701D01*
X114085Y147083D01*
Y148616D01*
X111785D02*
X111402Y148999D01*
X110636D01*
X110253Y148616D01*
Y148233D01*
X110636Y147850D01*
X110253Y147466D01*
Y147083D01*
X110636Y146700D01*
X111402D01*
X111785Y147083D01*
Y147466D01*
X111402Y147850D01*
X111785Y148233D01*
Y148616D01*
X111402Y147850D02*
X110636D01*
X118300Y135600D02*
Y137899D01*
X117150D01*
X116767Y137516D01*
Y136750D01*
X117150Y136366D01*
X118300D01*
X117534D02*
X116767Y135600D01*
X116001D02*
X115234D01*
X115618D01*
Y137899D01*
X116001Y137516D01*
X114085Y135600D02*
X113318D01*
X113701D01*
Y137899D01*
X114085Y137516D01*
X111019Y135600D02*
Y137899D01*
X112169Y136750D01*
X110636D01*
X118300Y109700D02*
Y111999D01*
X117150D01*
X116767Y111616D01*
Y110850D01*
X117150Y110466D01*
X118300D01*
X117534D02*
X116767Y109700D01*
X116001D02*
X115234D01*
X115618D01*
Y111999D01*
X116001Y111616D01*
X114085Y109700D02*
X113318D01*
X113701D01*
Y111999D01*
X114085Y111616D01*
X110636Y111999D02*
X111402Y111616D01*
X112169Y110850D01*
Y110083D01*
X111785Y109700D01*
X111019D01*
X110636Y110083D01*
Y110466D01*
X111019Y110850D01*
X112169D01*
X97900Y99100D02*
X100199D01*
Y100250D01*
X99816Y100633D01*
X99050D01*
X98666Y100250D01*
Y99100D01*
Y99866D02*
X97900Y100633D01*
Y101399D02*
Y102166D01*
Y101783D01*
X100199D01*
X99816Y101399D01*
X97900Y103315D02*
Y104082D01*
Y103699D01*
X100199D01*
X99816Y103315D01*
X100199Y105231D02*
Y106764D01*
X99816D01*
X98283Y105231D01*
X97900D01*
X101600Y98300D02*
X103899D01*
Y99450D01*
X103516Y99833D01*
X102750D01*
X102366Y99450D01*
Y98300D01*
Y99066D02*
X101600Y99833D01*
Y100599D02*
Y101366D01*
Y100982D01*
X103899D01*
X103516Y100599D01*
X101600Y102515D02*
Y103282D01*
Y102899D01*
X103899D01*
X103516Y102515D01*
Y104431D02*
X103899Y104815D01*
Y105581D01*
X103516Y105964D01*
X103133D01*
X102750Y105581D01*
X102366Y105964D01*
X101983D01*
X101600Y105581D01*
Y104815D01*
X101983Y104431D01*
X102366D01*
X102750Y104815D01*
X103133Y104431D01*
X103516D01*
X102750Y104815D02*
Y105581D01*
D135*
X354931Y185667D02*
X356481D01*
X354931Y128167D02*
X356481D01*
X296231Y149917D02*
Y167367D01*
Y185667D02*
X303431D01*
X296231Y173467D02*
Y185667D01*
X312681D02*
X336281D01*
X317731Y128167D02*
X336186D01*
X296231D02*
Y143667D01*
Y128167D02*
X308281D01*
M02*
