G04*
G04 #@! TF.GenerationSoftware,Altium Limited,Altium Designer,19.1.9 (167)*
G04*
G04 Layer_Color=128*
%FSLAX25Y25*%
%MOIN*%
G70*
G01*
G75*
%ADD11C,0.00100*%
%ADD13C,0.00200*%
D11*
X234034Y76926D02*
Y134176D01*
X269234D01*
Y76926D02*
Y134176D01*
X234034Y76926D02*
X269234D01*
D13*
X4500Y85000D02*
X8500D01*
X6500Y83000D02*
Y87000D01*
X160800Y12100D02*
X164800D01*
X162800Y10100D02*
Y14100D01*
X255505Y22217D02*
X259506D01*
X257505Y20217D02*
Y24217D01*
X67000Y51000D02*
X71000D01*
X69000Y49000D02*
Y53000D01*
X57000Y41000D02*
X61000D01*
X59000Y39000D02*
Y43000D01*
X57000Y51000D02*
X61000D01*
X59000Y49000D02*
Y53000D01*
X67000Y41000D02*
X71000D01*
X69000Y39000D02*
Y43000D01*
X149800Y12200D02*
X153800D01*
X151800Y10200D02*
Y14200D01*
X342150Y14500D02*
X354650D01*
X348400Y8250D02*
Y20750D01*
X66300Y223000D02*
X78800D01*
X72550Y216750D02*
Y229250D01*
X328573Y223567D02*
X341073D01*
X334823Y217317D02*
Y229817D01*
X50750Y13400D02*
X63250D01*
X57000Y7150D02*
Y19650D01*
X25850Y102500D02*
X38650D01*
X32250Y96100D02*
Y108900D01*
X25850Y147500D02*
X38650D01*
X32250Y141100D02*
Y153900D01*
X55250Y112500D02*
X59250D01*
X57250Y110500D02*
Y114500D01*
X65250Y107500D02*
X69250D01*
X67250Y105500D02*
Y109500D01*
X41100Y156000D02*
X47400D01*
X44250Y152850D02*
Y159150D01*
X41100Y94000D02*
X47400D01*
X44250Y90850D02*
Y97150D01*
X55250Y142500D02*
X59250D01*
X57250Y140500D02*
Y144500D01*
X65250Y137500D02*
X69250D01*
X67250Y135500D02*
Y139500D01*
X55250Y132500D02*
X59250D01*
X57250Y130500D02*
Y134500D01*
X65250Y117500D02*
X69250D01*
X67250Y115500D02*
Y119500D01*
X10950Y149900D02*
X14950D01*
X12950Y147900D02*
Y151900D01*
X16950Y139900D02*
X20950D01*
X18950Y137900D02*
Y141900D01*
X16950Y100100D02*
X20950D01*
X18950Y98100D02*
Y102100D01*
X10950Y110100D02*
X14950D01*
X12950Y108100D02*
Y112100D01*
X65250Y127500D02*
X69250D01*
X67250Y125500D02*
Y129500D01*
X55250Y122500D02*
X59250D01*
X57250Y120500D02*
Y124500D01*
X300753Y108417D02*
X304753D01*
X302753Y106417D02*
Y110417D01*
X311060Y120507D02*
X315785D01*
X313423Y118145D02*
Y122869D01*
X311060Y68767D02*
X315785D01*
X313423Y66405D02*
Y71129D01*
X300753Y98577D02*
X304753D01*
X302753Y96577D02*
Y100577D01*
X300753Y90697D02*
X304753D01*
X302753Y88697D02*
Y92697D01*
X300753Y80857D02*
X304753D01*
X302753Y78857D02*
Y82857D01*
X300753Y45617D02*
X304753D01*
X302753Y43617D02*
Y47617D01*
X311060Y57707D02*
X315785D01*
X313423Y55345D02*
Y60069D01*
X311060Y5967D02*
X315785D01*
X313423Y3605D02*
Y8329D01*
X300753Y35777D02*
X304753D01*
X302753Y33777D02*
Y37777D01*
X300753Y27897D02*
X304753D01*
X302753Y25897D02*
Y29897D01*
X300753Y18057D02*
X304753D01*
X302753Y16057D02*
Y20057D01*
X186600Y36700D02*
X190600D01*
X188600Y34700D02*
Y38700D01*
X216600Y36700D02*
X220600D01*
X218600Y34700D02*
Y38700D01*
X176600Y36700D02*
X180600D01*
X178600Y34700D02*
Y38700D01*
X206600Y36700D02*
X210600D01*
X208600Y34700D02*
Y38700D01*
X196600Y36700D02*
X200600D01*
X198600Y34700D02*
Y38700D01*
X166600Y36700D02*
X170600D01*
X168600Y34700D02*
Y38700D01*
X18000Y46000D02*
X22000D01*
X20000Y44000D02*
Y48000D01*
X41600Y46000D02*
X45600D01*
X43600Y44000D02*
Y48000D01*
X29800Y27500D02*
X33800D01*
X31800Y25500D02*
Y29500D01*
X131234Y125551D02*
X132034D01*
X131634Y125151D02*
Y125951D01*
X82600Y85500D02*
X83400D01*
X83000Y85100D02*
Y85900D01*
X74600Y80500D02*
X75400D01*
X75000Y80100D02*
Y80900D01*
X74600Y84000D02*
X75400D01*
X75000Y83600D02*
Y84400D01*
X71000Y78400D02*
X71800D01*
X71400Y78000D02*
Y78800D01*
X131234Y88051D02*
X132034D01*
X131634Y87651D02*
Y88451D01*
X128734Y88051D02*
X129534D01*
X129134Y87651D02*
Y88451D01*
X105600Y84700D02*
X106400D01*
X106000Y84300D02*
Y85100D01*
X143284Y92551D02*
X144084D01*
X143684Y92151D02*
Y92951D01*
X143284Y95051D02*
X144084D01*
X143684Y94651D02*
Y95451D01*
X209234Y88051D02*
X210034D01*
X209634Y87651D02*
Y88451D01*
X126100Y98000D02*
X126900D01*
X126500Y97600D02*
Y98400D01*
X162600Y47196D02*
X163400D01*
X163000Y46796D02*
Y47596D01*
X157600Y50100D02*
X158400D01*
X158000Y49700D02*
Y50500D01*
X157600Y47200D02*
X158400D01*
X158000Y46800D02*
Y47600D01*
X136100Y53500D02*
X136900D01*
X136500Y53100D02*
Y53900D01*
X95000Y143300D02*
X95800D01*
X95400Y142900D02*
Y143700D01*
X97616Y143300D02*
X98416D01*
X98016Y142900D02*
Y143700D01*
X101553Y143300D02*
X102353D01*
X101953Y142900D02*
Y143700D01*
X92400Y143300D02*
X93200D01*
X92800Y142900D02*
Y143700D01*
X330372Y26069D02*
X331159D01*
X330765Y25676D02*
Y26463D01*
X326041Y26069D02*
X326828D01*
X326435Y25676D02*
Y26463D01*
X326041Y34731D02*
X326828D01*
X326435Y34337D02*
Y35124D01*
X330372Y34731D02*
X331159D01*
X330765Y34337D02*
Y35124D01*
X330372Y30400D02*
X331159D01*
X330765Y30006D02*
Y30794D01*
X326041Y30400D02*
X326828D01*
X326435Y30006D02*
Y30794D01*
X265409Y99251D02*
X266209D01*
X265809Y98851D02*
Y99651D01*
X243359Y102401D02*
X244159D01*
X243759Y102001D02*
Y102801D01*
X243359Y96101D02*
X244159D01*
X243759Y95701D02*
Y96501D01*
X259109Y127601D02*
X259909D01*
X259509Y127201D02*
Y128001D01*
X262259Y89801D02*
X263059D01*
X262659Y89401D02*
Y90201D01*
X243359Y89801D02*
X244159D01*
X243759Y89401D02*
Y90201D01*
X259109Y118151D02*
X259909D01*
X259509Y117751D02*
Y118551D01*
X259109Y86651D02*
X259909D01*
X259509Y86251D02*
Y87051D01*
X243359Y86651D02*
X244159D01*
X243759Y86251D02*
Y87051D01*
X240209Y89801D02*
X241009D01*
X240609Y89401D02*
Y90201D01*
X262259Y86651D02*
X263059D01*
X262659Y86251D02*
Y87051D01*
X240209Y86651D02*
X241009D01*
X240609Y86251D02*
Y87051D01*
X262259Y83501D02*
X263059D01*
X262659Y83101D02*
Y83901D01*
X240209Y83501D02*
X241009D01*
X240609Y83101D02*
Y83901D01*
X262259Y80351D02*
X263059D01*
X262659Y79951D02*
Y80751D01*
X243359Y83501D02*
X244159D01*
X243759Y83101D02*
Y83901D01*
X259109Y96101D02*
X259909D01*
X259509Y95701D02*
Y96501D01*
X259109Y83501D02*
X259909D01*
X259509Y83101D02*
Y83901D01*
X259109Y89801D02*
X259909D01*
X259509Y89401D02*
Y90201D01*
X243359Y80351D02*
X244159D01*
X243759Y79951D02*
Y80751D01*
X262259Y118151D02*
X263059D01*
X262659Y117751D02*
Y118551D01*
X262259Y121301D02*
X263059D01*
X262659Y120901D02*
Y121701D01*
X265409Y127601D02*
X266209D01*
X265809Y127201D02*
Y128001D01*
X240209Y118151D02*
X241009D01*
X240609Y117751D02*
Y118551D01*
X237059Y127601D02*
X237859D01*
X237459Y127201D02*
Y128001D01*
X243359Y127601D02*
X244159D01*
X243759Y127201D02*
Y128001D01*
X262259Y102401D02*
X263059D01*
X262659Y102001D02*
Y102801D01*
X262259Y111851D02*
X263059D01*
X262659Y111451D02*
Y112251D01*
X265409Y111851D02*
X266209D01*
X265809Y111451D02*
Y112251D01*
X240209Y102401D02*
X241009D01*
X240609Y102001D02*
Y102801D01*
X240209Y115001D02*
X241009D01*
X240609Y114601D02*
Y115401D01*
X265409Y80351D02*
X266209D01*
X265809Y79951D02*
Y80751D01*
X265409Y86651D02*
X266209D01*
X265809Y86251D02*
Y87051D01*
X265409Y92951D02*
X266209D01*
X265809Y92551D02*
Y93351D01*
X237059Y80351D02*
X237859D01*
X237459Y79951D02*
Y80751D01*
X237059Y86651D02*
X237859D01*
X237459Y86251D02*
Y87051D01*
X237059Y92951D02*
X237859D01*
X237459Y92551D02*
Y93351D01*
X237059Y99251D02*
X237859D01*
X237459Y98851D02*
Y99651D01*
X240209Y92951D02*
X241009D01*
X240609Y92551D02*
Y93351D01*
X243359Y92951D02*
X244159D01*
X243759Y92551D02*
Y93351D01*
X259109Y124451D02*
X259909D01*
X259509Y124051D02*
Y124851D01*
X259109Y108701D02*
X259909D01*
X259509Y108301D02*
Y109101D01*
X262259Y108701D02*
X263059D01*
X262659Y108301D02*
Y109101D01*
X259109Y115001D02*
X259909D01*
X259509Y114601D02*
Y115401D01*
X262259Y115001D02*
X263059D01*
X262659Y114601D02*
Y115401D01*
X246509Y118151D02*
X247309D01*
X246909Y117751D02*
Y118551D01*
X262259Y127601D02*
X263059D01*
X262659Y127201D02*
Y128001D01*
X240209Y124451D02*
X241009D01*
X240609Y124051D02*
Y124851D01*
X262259Y124451D02*
X263059D01*
X262659Y124051D02*
Y124851D01*
X259109Y130751D02*
X259909D01*
X259509Y130351D02*
Y131151D01*
X240209Y80351D02*
X241009D01*
X240609Y79951D02*
Y80751D01*
X259109Y80351D02*
X259909D01*
X259509Y79951D02*
Y80751D01*
X262259Y96101D02*
X263059D01*
X262659Y95701D02*
Y96501D01*
X262259Y130751D02*
X263059D01*
X262659Y130351D02*
Y131151D01*
X265409Y124451D02*
X266209D01*
X265809Y124051D02*
Y124851D01*
X265409Y118151D02*
X266209D01*
X265809Y117751D02*
Y118551D01*
X265409Y121301D02*
X266209D01*
X265809Y120901D02*
Y121701D01*
X237059Y124451D02*
X237859D01*
X237459Y124051D02*
Y124851D01*
X237059Y130751D02*
X237859D01*
X237459Y130351D02*
Y131151D01*
X243359Y118151D02*
X244159D01*
X243759Y117751D02*
Y118551D01*
X240209Y127601D02*
X241009D01*
X240609Y127201D02*
Y128001D01*
X265409Y108701D02*
X266209D01*
X265809Y108301D02*
Y109101D01*
X262259Y99251D02*
X263059D01*
X262659Y98851D02*
Y99651D01*
X259109Y111851D02*
X259909D01*
X259509Y111451D02*
Y112251D01*
X237059Y115001D02*
X237859D01*
X237459Y114601D02*
Y115401D01*
X240209Y99251D02*
X241009D01*
X240609Y98851D02*
Y99651D01*
X240209Y108701D02*
X241009D01*
X240609Y108301D02*
Y109101D01*
X265409Y83501D02*
X266209D01*
X265809Y83101D02*
Y83901D01*
X265409Y89801D02*
X266209D01*
X265809Y89401D02*
Y90201D01*
X237059Y83501D02*
X237859D01*
X237459Y83101D02*
Y83901D01*
X237059Y89801D02*
X237859D01*
X237459Y89401D02*
Y90201D01*
X237059Y108701D02*
X237859D01*
X237459Y108301D02*
Y109101D01*
X262259Y92951D02*
X263059D01*
X262659Y92551D02*
Y93351D01*
X240209Y130751D02*
X241009D01*
X240609Y130351D02*
Y131151D01*
X243359Y99252D02*
X244159D01*
X243759Y98852D02*
Y99652D01*
X243359Y124449D02*
X244159D01*
X243759Y124049D02*
Y124849D01*
X226231Y83501D02*
X227031D01*
X226631Y83101D02*
Y83901D01*
X196981Y141951D02*
X197781D01*
X197381Y141551D02*
Y142351D01*
X94276Y130500D02*
X95063D01*
X94669Y130106D02*
Y130894D01*
X98606Y126169D02*
X99394D01*
X99000Y125776D02*
Y126563D01*
X98606Y130500D02*
X99394D01*
X99000Y130106D02*
Y130894D01*
X98606Y134831D02*
X99394D01*
X99000Y134437D02*
Y135224D01*
X102937Y130500D02*
X103724D01*
X103331Y130106D02*
Y130894D01*
X131300Y104300D02*
X132100D01*
X131700Y103900D02*
Y104700D01*
X127600Y108100D02*
X128400D01*
X128000Y107700D02*
Y108500D01*
X222700Y53632D02*
X223500D01*
X223100Y53232D02*
Y54032D01*
X225700Y53632D02*
X226500D01*
X226100Y53232D02*
Y54032D01*
X225700Y50632D02*
X226500D01*
X226100Y50232D02*
Y51032D01*
X184384Y110450D02*
X185184D01*
X184784Y110050D02*
Y110851D01*
X111600Y136505D02*
X112400D01*
X112000Y136105D02*
Y136905D01*
X111600Y140000D02*
X112400D01*
X112000Y139600D02*
Y140400D01*
X90768Y118000D02*
X91568D01*
X91168Y117600D02*
Y118400D01*
X95700Y118000D02*
X96500D01*
X96100Y117600D02*
Y118400D01*
X93200Y118000D02*
X94000D01*
X93600Y117600D02*
Y118400D01*
X116100Y104300D02*
X116900D01*
X116500Y103900D02*
Y104700D01*
X108800Y188049D02*
X109600D01*
X109200Y187648D02*
Y188449D01*
X103800Y188049D02*
X104600D01*
X104200Y187648D02*
Y188449D01*
X98800Y188049D02*
X99600D01*
X99200Y187648D02*
Y188449D01*
X93800Y188049D02*
X94600D01*
X94200Y187648D02*
Y188449D01*
X193734Y197600D02*
X194534D01*
X194134Y197200D02*
Y198000D01*
X183734Y197600D02*
X184534D01*
X184134Y197200D02*
Y198000D01*
X173734Y197600D02*
X174534D01*
X174134Y197200D02*
Y198000D01*
X128600Y197600D02*
X129400D01*
X129000Y197200D02*
Y198000D01*
X116200Y197600D02*
X117000D01*
X116600Y197200D02*
Y198000D01*
X108800Y197600D02*
X109600D01*
X109200Y197200D02*
Y198000D01*
X103800Y197600D02*
X104600D01*
X104200Y197200D02*
Y198000D01*
X98800Y197600D02*
X99600D01*
X99200Y197200D02*
Y198000D01*
X93800Y197600D02*
X94600D01*
X94200Y197200D02*
Y198000D01*
X168734Y197600D02*
X169534D01*
X169134Y197200D02*
Y198000D01*
X118600Y83000D02*
X119400D01*
X119000Y82600D02*
Y83400D01*
X118600Y80000D02*
X119400D01*
X119000Y79600D02*
Y80400D01*
X118600Y77000D02*
X119400D01*
X119000Y76600D02*
Y77400D01*
X74600Y71000D02*
X75400D01*
X75000Y70600D02*
Y71400D01*
X178759Y182073D02*
X179559D01*
X179159Y181674D02*
Y182474D01*
X188734Y182073D02*
X189534D01*
X189134Y181674D02*
Y182474D01*
X193734Y188049D02*
X194534D01*
X194134Y187648D02*
Y188449D01*
X173734Y188049D02*
X174534D01*
X174134Y187648D02*
Y188449D01*
X183734Y188049D02*
X184534D01*
X184134Y187648D02*
Y188449D01*
X188734Y188049D02*
X189534D01*
X189134Y187648D02*
Y188449D01*
X178734Y188049D02*
X179534D01*
X179134Y187648D02*
Y188449D01*
X168734Y188049D02*
X169534D01*
X169134Y187648D02*
Y188449D01*
X153141Y176100D02*
X153941D01*
X153541Y175700D02*
Y176500D01*
X158259Y176100D02*
X159059D01*
X158659Y175700D02*
Y176500D01*
X101200Y167900D02*
X102000D01*
X101600Y167500D02*
Y168300D01*
X92200Y165000D02*
X93000D01*
X92600Y164600D02*
Y165400D01*
X92200Y180700D02*
X93000D01*
X92600Y180300D02*
Y181100D01*
X175000Y41800D02*
X175800D01*
X175400Y41400D02*
Y42200D01*
X136100Y46000D02*
X136900D01*
X136500Y45600D02*
Y46400D01*
X140400Y32600D02*
X141200D01*
X140800Y32200D02*
Y33000D01*
X136100Y32600D02*
X136900D01*
X136500Y32200D02*
Y33000D01*
X168200Y41800D02*
X169000D01*
X168600Y41400D02*
Y42200D01*
X162600Y50196D02*
X163400D01*
X163000Y49796D02*
Y50596D01*
X162600Y54196D02*
X163400D01*
X163000Y53796D02*
Y54596D01*
X181900Y64000D02*
X182700D01*
X182300Y63600D02*
Y64400D01*
X175000Y64000D02*
X175800D01*
X175400Y63600D02*
Y64400D01*
X172300Y64000D02*
X173100D01*
X172700Y63600D02*
Y64400D01*
X178734Y64000D02*
X179534D01*
X179134Y63600D02*
Y64400D01*
X181600Y80032D02*
X182400D01*
X182000Y79632D02*
Y80432D01*
X178734Y70500D02*
X179534D01*
X179134Y70100D02*
Y70900D01*
X178734Y73500D02*
X179534D01*
X179134Y73100D02*
Y73900D01*
X191200Y78051D02*
X192000D01*
X191600Y77651D02*
Y78451D01*
X191234Y80400D02*
X192034D01*
X191634Y80000D02*
Y80800D01*
X194984Y80400D02*
X195784D01*
X195384Y80000D02*
Y80800D01*
X200016Y66561D02*
X200816D01*
X200416Y66161D02*
Y66961D01*
X204984Y66561D02*
X205784D01*
X205384Y66161D02*
Y66961D01*
X208248Y66561D02*
X209048D01*
X208648Y66161D02*
Y66961D01*
X198700Y78051D02*
X199500D01*
X199100Y77651D02*
Y78451D01*
X206234Y78051D02*
X207034D01*
X206634Y77651D02*
Y78451D01*
X202484Y78051D02*
X203284D01*
X202884Y77651D02*
Y78451D01*
X200147Y158051D02*
X200947D01*
X200547Y157651D02*
Y158451D01*
X193832Y158051D02*
X194632D01*
X194232Y157651D02*
Y158451D01*
X187525Y158051D02*
X188325D01*
X187925Y157651D02*
Y158451D01*
X106600Y71600D02*
X107400D01*
X107000Y71200D02*
Y72000D01*
X74600Y66500D02*
X75400D01*
X75000Y66100D02*
Y66900D01*
X157600Y59200D02*
X158400D01*
X158000Y58800D02*
Y59600D01*
X143100Y59200D02*
X143900D01*
X143500Y58800D02*
Y59600D01*
X143100Y61700D02*
X143900D01*
X143500Y61300D02*
Y62100D01*
X157600Y75200D02*
X158400D01*
X158000Y74800D02*
Y75600D01*
X157600Y72200D02*
X158400D01*
X158000Y71800D02*
Y72600D01*
X157600Y66000D02*
X158400D01*
X158000Y65600D02*
Y66400D01*
X172484Y90551D02*
X173284D01*
X172884Y90151D02*
Y90951D01*
X126100Y93500D02*
X126900D01*
X126500Y93100D02*
Y93900D01*
X130711Y176837D02*
X131311D01*
X131011Y176537D02*
Y177137D01*
X130711Y178806D02*
X131311D01*
X131011Y178506D02*
Y179106D01*
X130711Y180774D02*
X131311D01*
X131011Y180474D02*
Y181074D01*
X130711Y182743D02*
X131311D01*
X131011Y182443D02*
Y183043D01*
X112010Y175853D02*
X112610D01*
X112310Y175553D02*
Y176153D01*
X128743Y184711D02*
X129343D01*
X129043Y184411D02*
Y185011D01*
X115947Y179790D02*
X116547D01*
X116247Y179490D02*
Y180090D01*
X112010Y177821D02*
X112610D01*
X112310Y177521D02*
Y178121D01*
X130711Y184711D02*
X131311D01*
X131011Y184411D02*
Y185011D01*
X133900Y177821D02*
X134500D01*
X134200Y177521D02*
Y178121D01*
X112010Y169947D02*
X112610D01*
X112310Y169647D02*
Y170247D01*
X115947Y165900D02*
X116547D01*
X116247Y165600D02*
Y166200D01*
X103900Y181758D02*
X104500D01*
X104200Y181458D02*
Y182058D01*
X103900Y177821D02*
X104500D01*
X104200Y177521D02*
Y178121D01*
X112010Y179790D02*
X112610D01*
X112310Y179490D02*
Y180090D01*
X107089Y180774D02*
X107689D01*
X107389Y180474D02*
Y181074D01*
X121853Y179790D02*
X122453D01*
X122153Y179490D02*
Y180090D01*
X125790Y175853D02*
X126390D01*
X126090Y175553D02*
Y176153D01*
X112010Y171916D02*
X112610D01*
X112310Y171616D02*
Y172216D01*
X117916Y165900D02*
X118516D01*
X118216Y165600D02*
Y166200D01*
X136300Y167900D02*
X137100D01*
X136700Y167500D02*
Y168300D01*
X125790Y173884D02*
X126390D01*
X126090Y173584D02*
Y174184D01*
X103900Y179790D02*
X104500D01*
X104200Y179490D02*
Y180090D01*
X103947Y175853D02*
X104547D01*
X104247Y175553D02*
Y176153D01*
X119884Y179790D02*
X120484D01*
X120184Y179490D02*
Y180090D01*
X107089Y184711D02*
X107689D01*
X107389Y184411D02*
Y185011D01*
X107089Y178806D02*
X107689D01*
X107389Y178506D02*
Y179106D01*
X125790Y177821D02*
X126390D01*
X126090Y177521D02*
Y178121D01*
X143200Y78900D02*
X144000D01*
X143600Y78500D02*
Y79300D01*
X272300Y197638D02*
X273100D01*
X272700Y197238D02*
Y198038D01*
X268363Y197638D02*
X269163D01*
X268763Y197238D02*
Y198038D01*
X264426Y197638D02*
X265226D01*
X264826Y197238D02*
Y198038D01*
X260489Y197638D02*
X261289D01*
X260889Y197238D02*
Y198038D01*
X256552Y197638D02*
X257352D01*
X256952Y197238D02*
Y198038D01*
X252615Y197638D02*
X253415D01*
X253015Y197238D02*
Y198038D01*
X248678Y197638D02*
X249478D01*
X249078Y197238D02*
Y198038D01*
X244741Y197638D02*
X245541D01*
X245141Y197238D02*
Y198038D01*
X240804Y197638D02*
X241604D01*
X241204Y197238D02*
Y198038D01*
X236867Y197638D02*
X237667D01*
X237267Y197238D02*
Y198038D01*
X232930Y197638D02*
X233730D01*
X233330Y197238D02*
Y198038D01*
X228993Y197638D02*
X229793D01*
X229393Y197238D02*
Y198038D01*
X225056Y197638D02*
X225856D01*
X225456Y197238D02*
Y198038D01*
X221119Y197638D02*
X221919D01*
X221519Y197238D02*
Y198038D01*
X217182Y197638D02*
X217982D01*
X217582Y197238D02*
Y198038D01*
X213245Y197638D02*
X214045D01*
X213645Y197238D02*
Y198038D01*
X209308Y197638D02*
X210108D01*
X209708Y197238D02*
Y198038D01*
X205371Y197638D02*
X206171D01*
X205771Y197238D02*
Y198038D01*
X49600Y62800D02*
X50400D01*
X50000Y62400D02*
Y63200D01*
X74600Y91300D02*
X75400D01*
X75000Y90900D02*
Y91700D01*
X91000Y83500D02*
X91800D01*
X91400Y83100D02*
Y83900D01*
X96112Y83500D02*
X96912D01*
X96512Y83100D02*
Y83900D01*
X92962Y85500D02*
X93762D01*
X93362Y85100D02*
Y85900D01*
X105600Y87900D02*
X106400D01*
X106000Y87500D02*
Y88300D01*
X127600Y105600D02*
X128400D01*
X128000Y105200D02*
Y106000D01*
X111600Y147800D02*
X112400D01*
X112000Y147400D02*
Y148200D01*
X116100Y147800D02*
X116900D01*
X116500Y147400D02*
Y148200D01*
X116100Y144100D02*
X116900D01*
X116500Y143700D02*
Y144500D01*
X126200Y147800D02*
X127000D01*
X126600Y147400D02*
Y148200D01*
X126200Y144100D02*
X127000D01*
X126600Y143700D02*
Y144500D01*
X126200Y154301D02*
X127000D01*
X126600Y153901D02*
Y154701D01*
X330072Y83569D02*
X330859D01*
X330465Y83176D02*
Y83963D01*
X325741Y83569D02*
X326528D01*
X326135Y83176D02*
Y83963D01*
X325741Y92231D02*
X326528D01*
X326135Y91837D02*
Y92624D01*
X330072Y92231D02*
X330859D01*
X330465Y91837D02*
Y92624D01*
X330072Y87900D02*
X330859D01*
X330465Y87506D02*
Y88294D01*
X325741Y87900D02*
X326528D01*
X326135Y87506D02*
Y88294D01*
X159187Y123051D02*
X159987D01*
X159587Y122651D02*
Y123451D01*
X162336Y123051D02*
X163136D01*
X162736Y122651D02*
Y123451D01*
X196982Y97854D02*
X197782D01*
X197382Y97454D02*
Y98254D01*
X200132Y97854D02*
X200932D01*
X200532Y97454D02*
Y98254D01*
X203281Y97854D02*
X204081D01*
X203681Y97454D02*
Y98254D01*
X168635Y97854D02*
X169435D01*
X169035Y97454D02*
Y98254D01*
X162336Y97854D02*
X163136D01*
X162736Y97454D02*
Y98254D01*
X159187Y97854D02*
X159987D01*
X159587Y97454D02*
Y98254D01*
X159187Y145098D02*
X159987D01*
X159587Y144699D02*
Y145499D01*
X162336Y145098D02*
X163136D01*
X162736Y144699D02*
Y145499D01*
X165486Y145098D02*
X166286D01*
X165886Y144699D02*
Y145499D01*
X168635Y145098D02*
X169435D01*
X169035Y144699D02*
Y145499D01*
X171785Y145098D02*
X172585D01*
X172185Y144699D02*
Y145499D01*
X174935Y145098D02*
X175735D01*
X175335Y144699D02*
Y145499D01*
X178084Y145098D02*
X178884D01*
X178484Y144699D02*
Y145499D01*
X184383Y145098D02*
X185184D01*
X184783Y144699D02*
Y145499D01*
X187533Y145098D02*
X188333D01*
X187933Y144699D02*
Y145499D01*
X190683Y145098D02*
X191483D01*
X191083Y144699D02*
Y145499D01*
X193832Y145098D02*
X194632D01*
X194232Y144699D02*
Y145499D01*
X196982Y145098D02*
X197782D01*
X197382Y144699D02*
Y145499D01*
X200132Y145098D02*
X200932D01*
X200532Y144699D02*
Y145499D01*
X203281Y145098D02*
X204081D01*
X203681Y144699D02*
Y145499D01*
X203281Y141949D02*
X204081D01*
X203681Y141549D02*
Y142349D01*
X200132Y141949D02*
X200932D01*
X200532Y141549D02*
Y142349D01*
X190683Y141949D02*
X191483D01*
X191083Y141549D02*
Y142349D01*
X187533Y141949D02*
X188333D01*
X187933Y141549D02*
Y142349D01*
X184383Y141949D02*
X185184D01*
X184783Y141549D02*
Y142349D01*
X203281Y138799D02*
X204081D01*
X203681Y138399D02*
Y139199D01*
X200132Y138799D02*
X200932D01*
X200532Y138399D02*
Y139199D01*
X196982Y138799D02*
X197782D01*
X197382Y138399D02*
Y139199D01*
X193832Y138799D02*
X194632D01*
X194232Y138399D02*
Y139199D01*
X190683Y138799D02*
X191483D01*
X191083Y138399D02*
Y139199D01*
X184383Y138799D02*
X185184D01*
X184783Y138399D02*
Y139199D01*
X203281Y135650D02*
X204081D01*
X203681Y135250D02*
Y136050D01*
X200132Y135650D02*
X200932D01*
X200532Y135250D02*
Y136050D01*
X190683Y135650D02*
X191483D01*
X191083Y135250D02*
Y136050D01*
X184383Y135650D02*
X185184D01*
X184783Y135250D02*
Y136050D01*
X203281Y132500D02*
X204081D01*
X203681Y132100D02*
Y132900D01*
X200132Y132500D02*
X200932D01*
X200532Y132100D02*
Y132900D01*
X190683Y132500D02*
X191483D01*
X191083Y132100D02*
Y132900D01*
X184383Y132500D02*
X185184D01*
X184783Y132100D02*
Y132900D01*
X196982Y132500D02*
X197782D01*
X197382Y132100D02*
Y132900D01*
X203281Y129350D02*
X204081D01*
X203681Y128950D02*
Y129750D01*
X200132Y129350D02*
X200932D01*
X200532Y128950D02*
Y129750D01*
X190683Y129350D02*
X191483D01*
X191083Y128950D02*
Y129750D01*
X187533Y129350D02*
X188333D01*
X187933Y128950D02*
Y129750D01*
X184383Y129350D02*
X185184D01*
X184783Y128950D02*
Y129750D01*
X203281Y126201D02*
X204081D01*
X203681Y125801D02*
Y126601D01*
X200132Y126201D02*
X200932D01*
X200532Y125801D02*
Y126601D01*
X196982Y126201D02*
X197782D01*
X197382Y125801D02*
Y126601D01*
X193832Y126201D02*
X194632D01*
X194232Y125801D02*
Y126601D01*
X187533Y126201D02*
X188333D01*
X187933Y125801D02*
Y126601D01*
X184383Y126201D02*
X185184D01*
X184783Y125801D02*
Y126601D01*
X203281Y119902D02*
X204081D01*
X203681Y119502D02*
Y120302D01*
X200132Y119902D02*
X200932D01*
X200532Y119502D02*
Y120302D01*
X196982Y119902D02*
X197782D01*
X197382Y119502D02*
Y120302D01*
X193832Y119902D02*
X194632D01*
X194232Y119502D02*
Y120302D01*
X190683Y119902D02*
X191483D01*
X191083Y119502D02*
Y120302D01*
X187533Y119902D02*
X188333D01*
X187933Y119502D02*
Y120302D01*
X184383Y119902D02*
X185184D01*
X184783Y119502D02*
Y120302D01*
X203281Y116752D02*
X204081D01*
X203681Y116352D02*
Y117152D01*
X200132Y116752D02*
X200932D01*
X200532Y116352D02*
Y117152D01*
X190683Y116752D02*
X191483D01*
X191083Y116352D02*
Y117152D01*
X187533Y116752D02*
X188333D01*
X187933Y116352D02*
Y117152D01*
X184383Y116752D02*
X185184D01*
X184783Y116352D02*
Y117152D01*
X203281Y113602D02*
X204081D01*
X203681Y113202D02*
Y114002D01*
X200132Y113602D02*
X200932D01*
X200532Y113202D02*
Y114002D01*
X196982Y113602D02*
X197782D01*
X197382Y113202D02*
Y114002D01*
X193832Y113602D02*
X194632D01*
X194232Y113202D02*
Y114002D01*
X190683Y113602D02*
X191483D01*
X191083Y113202D02*
Y114002D01*
X184383Y113602D02*
X185184D01*
X184783Y113202D02*
Y114002D01*
X203281Y110453D02*
X204081D01*
X203681Y110053D02*
Y110853D01*
X200132Y110453D02*
X200932D01*
X200532Y110053D02*
Y110853D01*
X190683Y110453D02*
X191483D01*
X191083Y110053D02*
Y110853D01*
X184383Y110453D02*
X185184D01*
X184783Y110053D02*
Y110853D01*
X203281Y107303D02*
X204081D01*
X203681Y106903D02*
Y107703D01*
X200132Y107303D02*
X200932D01*
X200532Y106903D02*
Y107703D01*
X193832Y107303D02*
X194632D01*
X194232Y106903D02*
Y107703D01*
X190683Y107303D02*
X191483D01*
X191083Y106903D02*
Y107703D01*
X187533Y107303D02*
X188333D01*
X187933Y106903D02*
Y107703D01*
X200132Y104154D02*
X200932D01*
X200532Y103754D02*
Y104554D01*
X196982Y104154D02*
X197782D01*
X197382Y103754D02*
Y104554D01*
X193832Y104154D02*
X194632D01*
X194232Y103754D02*
Y104554D01*
X190683Y104154D02*
X191483D01*
X191083Y103754D02*
Y104554D01*
X187533Y104154D02*
X188333D01*
X187933Y103754D02*
Y104554D01*
X184383Y104154D02*
X185184D01*
X184783Y103754D02*
Y104554D01*
X203281Y101004D02*
X204081D01*
X203681Y100604D02*
Y101404D01*
X200132Y101004D02*
X200932D01*
X200532Y100604D02*
Y101404D01*
X196982Y101004D02*
X197782D01*
X197382Y100604D02*
Y101404D01*
X193832Y101004D02*
X194632D01*
X194232Y100604D02*
Y101404D01*
X190683Y101004D02*
X191483D01*
X191083Y100604D02*
Y101404D01*
X187533Y101004D02*
X188333D01*
X187933Y100604D02*
Y101404D01*
X184383Y101004D02*
X185184D01*
X184783Y100604D02*
Y101404D01*
X178084Y141949D02*
X178884D01*
X178484Y141549D02*
Y142349D01*
X168635Y141949D02*
X169435D01*
X169035Y141549D02*
Y142349D01*
X165486Y141949D02*
X166286D01*
X165886Y141549D02*
Y142349D01*
X162336Y141949D02*
X163136D01*
X162736Y141549D02*
Y142349D01*
X159187Y141949D02*
X159987D01*
X159587Y141549D02*
Y142349D01*
X178084Y138799D02*
X178884D01*
X178484Y138399D02*
Y139199D01*
X174935Y138799D02*
X175735D01*
X175335Y138399D02*
Y139199D01*
X171785Y138799D02*
X172585D01*
X172185Y138399D02*
Y139199D01*
X168635Y138799D02*
X169435D01*
X169035Y138399D02*
Y139199D01*
X165486Y138799D02*
X166286D01*
X165886Y138399D02*
Y139199D01*
X162336Y138799D02*
X163136D01*
X162736Y138399D02*
Y139199D01*
X159187Y138799D02*
X159987D01*
X159587Y138399D02*
Y139199D01*
X178084Y135650D02*
X178884D01*
X178484Y135250D02*
Y136050D01*
X162336Y135650D02*
X163136D01*
X162736Y135250D02*
Y136050D01*
X159187Y135650D02*
X159987D01*
X159587Y135250D02*
Y136050D01*
X178084Y132500D02*
X178884D01*
X178484Y132100D02*
Y132900D01*
X171785Y132500D02*
X172585D01*
X172185Y132100D02*
Y132900D01*
X168635Y132500D02*
X169435D01*
X169035Y132100D02*
Y132900D01*
X165486Y132500D02*
X166286D01*
X165886Y132100D02*
Y132900D01*
X178084Y129350D02*
X178884D01*
X178484Y128950D02*
Y129750D01*
X174935Y129350D02*
X175735D01*
X175335Y128950D02*
Y129750D01*
X171785Y129350D02*
X172585D01*
X172185Y128950D02*
Y129750D01*
X162336Y129350D02*
X163136D01*
X162736Y128950D02*
Y129750D01*
X178084Y126201D02*
X178884D01*
X178484Y125801D02*
Y126601D01*
X174935Y126201D02*
X175735D01*
X175335Y125801D02*
Y126601D01*
X171785Y126201D02*
X172585D01*
X172185Y125801D02*
Y126601D01*
X168635Y126201D02*
X169435D01*
X169035Y125801D02*
Y126601D01*
X165486Y126201D02*
X166286D01*
X165886Y125801D02*
Y126601D01*
X162336Y126201D02*
X163136D01*
X162736Y125801D02*
Y126601D01*
X159187Y126201D02*
X159987D01*
X159587Y125801D02*
Y126601D01*
X171785Y141949D02*
X172585D01*
X172185Y141549D02*
Y142349D01*
X178084Y119902D02*
X178884D01*
X178484Y119502D02*
Y120302D01*
X174935Y119902D02*
X175735D01*
X175335Y119502D02*
Y120302D01*
X171785Y119902D02*
X172585D01*
X172185Y119502D02*
Y120302D01*
X168635Y119902D02*
X169435D01*
X169035Y119502D02*
Y120302D01*
X165486Y119902D02*
X166286D01*
X165886Y119502D02*
Y120302D01*
X159187Y119902D02*
X159987D01*
X159587Y119502D02*
Y120302D01*
X178084Y116752D02*
X178884D01*
X178484Y116352D02*
Y117152D01*
X174935Y116752D02*
X175735D01*
X175335Y116352D02*
Y117152D01*
X171785Y116752D02*
X172585D01*
X172185Y116352D02*
Y117152D01*
X162336Y116752D02*
X163136D01*
X162736Y116352D02*
Y117152D01*
X159187Y116752D02*
X159987D01*
X159587Y116352D02*
Y117152D01*
X171785Y113602D02*
X172585D01*
X172185Y113202D02*
Y114002D01*
X168635Y113602D02*
X169435D01*
X169035Y113202D02*
Y114002D01*
X165486Y113602D02*
X166286D01*
X165886Y113202D02*
Y114002D01*
X162336Y113602D02*
X163136D01*
X162736Y113202D02*
Y114002D01*
X159187Y113602D02*
X159987D01*
X159587Y113202D02*
Y114002D01*
X178084Y110453D02*
X178884D01*
X178484Y110053D02*
Y110853D01*
X171785Y110453D02*
X172585D01*
X172185Y110053D02*
Y110853D01*
X162336Y110453D02*
X163136D01*
X162736Y110053D02*
Y110853D01*
X178084Y107303D02*
X178884D01*
X178484Y106903D02*
Y107703D01*
X174935Y107303D02*
X175735D01*
X175335Y106903D02*
Y107703D01*
X171785Y107303D02*
X172585D01*
X172185Y106903D02*
Y107703D01*
X165486Y107303D02*
X166286D01*
X165886Y106903D02*
Y107703D01*
X162336Y107303D02*
X163136D01*
X162736Y106903D02*
Y107703D01*
X159187Y107303D02*
X159987D01*
X159587Y106903D02*
Y107703D01*
X174935Y104154D02*
X175735D01*
X175335Y103754D02*
Y104554D01*
X171785Y104154D02*
X172585D01*
X172185Y103754D02*
Y104554D01*
X165486Y104154D02*
X166286D01*
X165886Y103754D02*
Y104554D01*
X162336Y104154D02*
X163136D01*
X162736Y103754D02*
Y104554D01*
X159187Y104154D02*
X159987D01*
X159587Y103754D02*
Y104554D01*
X178084Y101004D02*
X178884D01*
X178484Y100604D02*
Y101404D01*
X174935Y101004D02*
X175735D01*
X175335Y100604D02*
Y101404D01*
X171785Y101004D02*
X172585D01*
X172185Y100604D02*
Y101404D01*
X168635Y101004D02*
X169435D01*
X169035Y100604D02*
Y101404D01*
X165486Y101004D02*
X166286D01*
X165886Y100604D02*
Y101404D01*
X162336Y101004D02*
X163136D01*
X162736Y100604D02*
Y101404D01*
X159187Y101004D02*
X159987D01*
X159587Y100604D02*
Y101404D01*
X156037Y138799D02*
X156837D01*
X156437Y138399D02*
Y139199D01*
X156037Y132500D02*
X156837D01*
X156437Y132100D02*
Y132900D01*
X152887Y94705D02*
X153687D01*
X153287Y94305D02*
Y95105D01*
X159187Y94705D02*
X159987D01*
X159587Y94305D02*
Y95105D01*
X162336Y94705D02*
X163136D01*
X162736Y94305D02*
Y95105D01*
X168635Y94705D02*
X169435D01*
X169035Y94305D02*
Y95105D01*
X210368Y129350D02*
X211168D01*
X210768Y128950D02*
Y129750D01*
X168635Y107303D02*
X169435D01*
X169035Y106903D02*
Y107703D01*
X88638Y69968D02*
X89425D01*
X89031Y69575D02*
Y70362D01*
X92575Y69968D02*
X93362D01*
X92968Y69575D02*
Y70362D01*
X88638Y66031D02*
X89425D01*
X89031Y65638D02*
Y66425D01*
X92575Y66031D02*
X93362D01*
X92968Y65638D02*
Y66425D01*
X84701Y69968D02*
X85488D01*
X85094Y69575D02*
Y70362D01*
X84701Y73905D02*
X85488D01*
X85094Y73512D02*
Y74299D01*
X88638Y73905D02*
X89425D01*
X89031Y73512D02*
Y74299D01*
X92575Y73905D02*
X93362D01*
X92968Y73512D02*
Y74299D01*
X96512Y73905D02*
X97299D01*
X96905Y73512D02*
Y74299D01*
X96512Y69968D02*
X97299D01*
X96905Y69575D02*
Y70362D01*
X96512Y66031D02*
X97299D01*
X96905Y65638D02*
Y66425D01*
X84701Y66031D02*
X85488D01*
X85094Y65638D02*
Y66425D01*
X84701Y62094D02*
X85488D01*
X85094Y61701D02*
Y62488D01*
X88638Y62094D02*
X89425D01*
X89031Y61701D02*
Y62488D01*
X92575Y62094D02*
X93362D01*
X92968Y61701D02*
Y62488D01*
X96512Y62094D02*
X97299D01*
X96905Y61701D02*
Y62488D01*
X233234Y102051D02*
X234034D01*
X233634Y101651D02*
Y102451D01*
X226234Y89801D02*
X227034D01*
X226634Y89401D02*
Y90201D01*
X226234Y83501D02*
X227034D01*
X226634Y83101D02*
Y83901D01*
X226200Y86600D02*
X227000D01*
X226600Y86200D02*
Y87000D01*
X146234Y113602D02*
X147034D01*
X146634Y113202D02*
Y114002D01*
X156037Y113602D02*
X156837D01*
X156437Y113202D02*
Y114002D01*
X146234Y122551D02*
X147034D01*
X146634Y122151D02*
Y122951D01*
X159187Y129350D02*
X159987D01*
X159587Y128950D02*
Y129750D01*
X152887Y132500D02*
X153687D01*
X153287Y132100D02*
Y132900D01*
X209200Y80400D02*
X210000D01*
X209600Y80000D02*
Y80800D01*
X219234Y77051D02*
X220034D01*
X219634Y76651D02*
Y77451D01*
X219234Y74051D02*
X220034D01*
X219634Y73651D02*
Y74451D01*
X219234Y70301D02*
X220034D01*
X219634Y69901D02*
Y70701D01*
X168234Y70500D02*
X169034D01*
X168634Y70100D02*
Y70900D01*
X168234Y73500D02*
X169034D01*
X168634Y73100D02*
Y73900D01*
X181234Y158051D02*
X182034D01*
X181634Y157651D02*
Y158451D01*
X178086Y158051D02*
X178886D01*
X178486Y157651D02*
Y158451D01*
X174984Y165051D02*
X175784D01*
X175384Y164651D02*
Y165451D01*
X178084Y104154D02*
X178884D01*
X178484Y103753D02*
Y104553D01*
X154734Y85551D02*
X155534D01*
X155134Y85151D02*
Y85951D01*
X336200Y181000D02*
X337000D01*
X336600Y180600D02*
Y181400D01*
X344400Y181000D02*
X345200D01*
X344800Y180600D02*
Y181400D01*
X340337Y181000D02*
X341137D01*
X340737Y180600D02*
Y181400D01*
X337500Y132900D02*
X338300D01*
X337900Y132500D02*
Y133300D01*
X340337Y132900D02*
X341137D01*
X340737Y132500D02*
Y133300D01*
X345900Y132900D02*
X346700D01*
X346300Y132500D02*
Y133300D01*
X261300Y74500D02*
X262100D01*
X261700Y74100D02*
Y74900D01*
X275522Y74500D02*
X276322D01*
X275922Y74100D02*
Y74900D01*
X111600Y118300D02*
X112400D01*
X112000Y117900D02*
Y118700D01*
X111600Y121900D02*
X112400D01*
X112000Y121500D02*
Y122300D01*
X116100Y110800D02*
X116900D01*
X116500Y110400D02*
Y111200D01*
X116100Y136700D02*
X116900D01*
X116500Y136300D02*
Y137100D01*
X116100Y114500D02*
X116900D01*
X116500Y114100D02*
Y114900D01*
X116100Y118200D02*
X116900D01*
X116500Y117800D02*
Y118600D01*
X116100Y121900D02*
X116900D01*
X116500Y121500D02*
Y122300D01*
X116100Y125600D02*
X116900D01*
X116500Y125200D02*
Y126000D01*
X116100Y133000D02*
X116900D01*
X116500Y132600D02*
Y133400D01*
X116100Y129300D02*
X116900D01*
X116500Y128900D02*
Y129700D01*
X111600Y133000D02*
X112400D01*
X112000Y132600D02*
Y133400D01*
X111600Y129516D02*
X112400D01*
X112000Y129116D02*
Y129916D01*
X100900Y149300D02*
X101700D01*
X101300Y148900D02*
Y149700D01*
X84100Y148400D02*
X84900D01*
X84500Y148000D02*
Y148800D01*
X126200Y114500D02*
X127000D01*
X126600Y114100D02*
Y114900D01*
X126200Y110800D02*
X127000D01*
X126600Y110400D02*
Y111200D01*
X126200Y118200D02*
X127000D01*
X126600Y117800D02*
Y118600D01*
X126200Y125600D02*
X127000D01*
X126600Y125200D02*
Y126000D01*
X126200Y129300D02*
X127000D01*
X126600Y128900D02*
Y129700D01*
X126200Y133000D02*
X127000D01*
X126600Y132600D02*
Y133400D01*
X126200Y140400D02*
X127000D01*
X126600Y140000D02*
Y140800D01*
X126200Y136700D02*
X127000D01*
X126600Y136300D02*
Y137100D01*
X151234Y138551D02*
X152034D01*
X151634Y138151D02*
Y138951D01*
X131234Y115801D02*
X132034D01*
X131634Y115401D02*
Y116201D01*
X146234Y105728D02*
X147034D01*
X146634Y105328D02*
Y106128D01*
X226234Y119903D02*
X227034D01*
X226634Y119503D02*
Y120303D01*
X226234Y115001D02*
X227034D01*
X226634Y114601D02*
Y115401D01*
X213234Y92551D02*
X214034D01*
X213634Y92151D02*
Y92951D01*
X246844Y136083D02*
X247644D01*
X247244Y135683D02*
Y136483D01*
X249206Y134508D02*
X250006D01*
X249606Y134108D02*
Y134908D01*
X226234Y96551D02*
X227034D01*
X226634Y96151D02*
Y96951D01*
X222234Y130751D02*
X223034D01*
X222634Y130351D02*
Y131151D01*
X222234Y72051D02*
X223034D01*
X222634Y71651D02*
Y72451D01*
X226234Y124451D02*
X227034D01*
X226634Y124051D02*
Y124851D01*
X226234Y130751D02*
X227034D01*
X226634Y130351D02*
Y131151D01*
X226234Y99251D02*
X227034D01*
X226634Y98851D02*
Y99651D01*
X226234Y108701D02*
X227034D01*
X226634Y108301D02*
Y109101D01*
X229234Y102051D02*
X230034D01*
X229634Y101651D02*
Y102451D01*
X222234Y134551D02*
X223034D01*
X222634Y134151D02*
Y134951D01*
X222234Y126051D02*
X223034D01*
X222634Y125651D02*
Y126451D01*
X217182Y188189D02*
X217982D01*
X217582Y187789D02*
Y188589D01*
X213245Y188189D02*
X214045D01*
X213645Y187789D02*
Y188589D01*
X209308Y188189D02*
X210108D01*
X209708Y187789D02*
Y188589D01*
X205371Y188189D02*
X206171D01*
X205771Y187789D02*
Y188589D01*
X264426Y188189D02*
X265226D01*
X264826Y187789D02*
Y188589D01*
X268363Y188189D02*
X269163D01*
X268763Y187789D02*
Y188589D01*
X260489Y188189D02*
X261289D01*
X260889Y187789D02*
Y188589D01*
X256552Y188189D02*
X257352D01*
X256952Y187789D02*
Y188589D01*
X272300Y188189D02*
X273100D01*
X272700Y187789D02*
Y188589D01*
X213234Y108878D02*
X214034D01*
X213634Y108478D02*
Y109278D01*
X213234Y99051D02*
X214034D01*
X213634Y98651D02*
Y99451D01*
X213234Y95051D02*
X214034D01*
X213634Y94651D02*
Y95451D01*
X213234Y113601D02*
X214034D01*
X213634Y113201D02*
Y114001D01*
X181234Y153551D02*
X182034D01*
X181634Y153151D02*
Y153951D01*
X208006Y152551D02*
X208806D01*
X208406Y152151D02*
Y152951D01*
X146234Y138551D02*
X147034D01*
X146634Y138151D02*
Y138951D01*
X151234Y149823D02*
X152034D01*
X151634Y149423D02*
Y150223D01*
X131000Y147800D02*
X131800D01*
X131400Y147400D02*
Y148200D01*
X129134Y154301D02*
X129934D01*
X129534Y153901D02*
Y154701D01*
X141200Y141551D02*
X142000D01*
X141600Y141151D02*
Y141951D01*
X184384Y126201D02*
X185184D01*
X184784Y125801D02*
Y126601D01*
X146234Y129351D02*
X147034D01*
X146634Y128951D02*
Y129751D01*
X131234Y112551D02*
X132034D01*
X131634Y112151D02*
Y112951D01*
X208006Y93551D02*
X208806D01*
X208406Y93151D02*
Y93951D01*
X152884Y94701D02*
X153684D01*
X153284Y94301D02*
Y95101D01*
X143234Y85551D02*
X144034D01*
X143634Y85151D02*
Y85951D01*
X213234Y129351D02*
X214034D01*
X213634Y128951D02*
Y129751D01*
X187484Y90551D02*
X188284D01*
X187884Y90151D02*
Y90951D01*
X194984Y90551D02*
X195784D01*
X195384Y90151D02*
Y90951D01*
X203284Y126201D02*
X204084D01*
X203684Y125801D02*
Y126601D01*
X213234Y126199D02*
X214034D01*
X213634Y125799D02*
Y126599D01*
X200134Y126201D02*
X200934D01*
X200534Y125801D02*
Y126601D01*
X193834Y126201D02*
X194634D01*
X194234Y125801D02*
Y126601D01*
X187533Y126201D02*
X188333D01*
X187933Y125801D02*
Y126601D01*
X190684Y110451D02*
X191484D01*
X191084Y110051D02*
Y110851D01*
X141234Y115801D02*
X142034D01*
X141634Y115401D02*
Y116201D01*
X141234Y112801D02*
X142034D01*
X141634Y112401D02*
Y113201D01*
X143634Y149801D02*
X144434D01*
X144034Y149401D02*
Y150201D01*
X146234Y156051D02*
X147034D01*
X146634Y155651D02*
Y156451D01*
X131000Y139051D02*
X131800D01*
X131400Y138651D02*
Y139451D01*
X131000Y141551D02*
X131800D01*
X131400Y141151D02*
Y141951D01*
X181734Y90551D02*
X182534D01*
X182134Y90151D02*
Y90951D01*
X148734Y138551D02*
X149534D01*
X149134Y138151D02*
Y138951D01*
X146234Y145051D02*
X147034D01*
X146634Y144651D02*
Y145451D01*
X131234Y85051D02*
X132034D01*
X131634Y84651D02*
Y85451D01*
X128734Y85051D02*
X129534D01*
X129134Y84651D02*
Y85451D01*
X146234Y149801D02*
X147034D01*
X146634Y149401D02*
Y150201D01*
X146234Y119903D02*
X147034D01*
X146634Y119503D02*
Y120303D01*
X146734Y85551D02*
X147534D01*
X147134Y85151D02*
Y85951D01*
X146234Y153051D02*
X147034D01*
X146634Y152651D02*
Y153451D01*
X141200Y147800D02*
X142000D01*
X141600Y147400D02*
Y148200D01*
X143684Y153051D02*
X144484D01*
X144084Y152651D02*
Y153451D01*
X143684Y156051D02*
X144484D01*
X144084Y155651D02*
Y156451D01*
X141234Y129301D02*
X142034D01*
X141634Y128901D02*
Y129701D01*
X141200Y139051D02*
X142000D01*
X141600Y138651D02*
Y139451D01*
X141234Y125551D02*
X142034D01*
X141634Y125151D02*
Y125951D01*
X158734Y87551D02*
X159534D01*
X159134Y87151D02*
Y87951D01*
X196984Y126201D02*
X197784D01*
X197384Y125801D02*
Y126601D01*
X209234Y85051D02*
X210034D01*
X209634Y84651D02*
Y85451D01*
X105600Y98000D02*
X106400D01*
X106000Y97600D02*
Y98400D01*
X85600Y85500D02*
X86400D01*
X86000Y85100D02*
Y85900D01*
X252884Y80379D02*
X253684D01*
X253284Y79979D02*
Y80779D01*
X249380Y91403D02*
X250180D01*
X249780Y91003D02*
Y91803D01*
X84100Y141000D02*
X84900D01*
X84500Y140600D02*
Y141400D01*
X84100Y138000D02*
X84900D01*
X84500Y137600D02*
Y138400D01*
X75100Y141000D02*
X75900D01*
X75500Y140600D02*
Y141400D01*
X99600Y118000D02*
X100400D01*
X100000Y117600D02*
Y118400D01*
X103100Y118000D02*
X103900D01*
X103500Y117600D02*
Y118400D01*
X98616Y114331D02*
X99416D01*
X99016Y113931D02*
Y114731D01*
X115100Y89000D02*
X115900D01*
X115500Y88600D02*
Y89400D01*
X111116Y108831D02*
X111916D01*
X111516Y108431D02*
Y109231D01*
X111116Y111831D02*
X111916D01*
X111516Y111431D02*
Y112231D01*
X86116Y108831D02*
X86916D01*
X86516Y108431D02*
Y109231D01*
X86116Y111831D02*
X86916D01*
X86516Y111431D02*
Y112231D01*
X181234Y123051D02*
X182034D01*
X181634Y122651D02*
Y123451D01*
X196982Y107303D02*
X197782D01*
X197382Y106903D02*
Y107703D01*
X275522Y108726D02*
X276322D01*
X275922Y108326D02*
Y109126D01*
X275522Y94553D02*
X276322D01*
X275922Y94153D02*
Y94953D01*
X275522Y130773D02*
X276322D01*
X275922Y130373D02*
Y131173D01*
X275522Y124474D02*
X276322D01*
X275922Y124074D02*
Y124874D01*
X275522Y118175D02*
X276322D01*
X275922Y117775D02*
Y118575D01*
X275522Y104002D02*
X276322D01*
X275922Y103602D02*
Y104402D01*
X275522Y99277D02*
X276322D01*
X275922Y98877D02*
Y99677D01*
X275522Y89828D02*
X276322D01*
X275922Y89428D02*
Y90228D01*
X275522Y83529D02*
X276322D01*
X275922Y83129D02*
Y83929D01*
X118100Y56000D02*
X118900D01*
X118500Y55600D02*
Y56400D01*
X118100Y49000D02*
X118900D01*
X118500Y48600D02*
Y49400D01*
X112100Y74500D02*
X112900D01*
X112500Y74100D02*
Y74900D01*
X115100Y74500D02*
X115900D01*
X115500Y74100D02*
Y74900D01*
X118600Y74500D02*
X119400D01*
X119000Y74100D02*
Y74900D01*
X112100Y59500D02*
X112900D01*
X112500Y59100D02*
Y59900D01*
X115100Y59500D02*
X115900D01*
X115500Y59100D02*
Y59900D01*
X109100Y56000D02*
X109900D01*
X109500Y55600D02*
Y56400D01*
X106600Y56000D02*
X107400D01*
X107000Y55600D02*
Y56400D01*
X106600Y58500D02*
X107400D01*
X107000Y58100D02*
Y58900D01*
X106600Y61000D02*
X107400D01*
X107000Y60600D02*
Y61400D01*
X106600Y63500D02*
X107400D01*
X107000Y63100D02*
Y63900D01*
X88600Y85500D02*
X89400D01*
X89000Y85100D02*
Y85900D01*
X79600Y83500D02*
X80400D01*
X80000Y83100D02*
Y83900D01*
X126100Y88000D02*
X126900D01*
X126500Y87600D02*
Y88400D01*
X143100Y36000D02*
X143900D01*
X143500Y35600D02*
Y36400D01*
X143100Y41000D02*
X143900D01*
X143500Y40600D02*
Y41400D01*
X136100Y51000D02*
X136900D01*
X136500Y50600D02*
Y51400D01*
X143100Y51000D02*
X143900D01*
X143500Y50600D02*
Y51400D01*
X136100Y56000D02*
X136900D01*
X136500Y55600D02*
Y56400D01*
X136100Y66000D02*
X136900D01*
X136500Y65600D02*
Y66400D01*
X136100Y71000D02*
X136900D01*
X136500Y70600D02*
Y71400D01*
X143100Y66000D02*
X143900D01*
X143500Y65600D02*
Y66400D01*
X143100Y71000D02*
X143900D01*
X143500Y70600D02*
Y71400D01*
X102100Y98000D02*
X102900D01*
X102500Y97600D02*
Y98400D01*
X91100Y98000D02*
X91900D01*
X91500Y97600D02*
Y98400D01*
X95600Y52500D02*
X96400D01*
X96000Y52100D02*
Y52900D01*
X87600Y52500D02*
X88400D01*
X88000Y52100D02*
Y52900D01*
X82100Y52500D02*
X82900D01*
X82500Y52100D02*
Y52900D01*
X106600Y78600D02*
X107400D01*
X107000Y78200D02*
Y79000D01*
X106600Y80500D02*
X107400D01*
X107000Y80100D02*
Y80900D01*
X96500Y38500D02*
X97300D01*
X96900Y38100D02*
Y38900D01*
X94600Y38500D02*
X95400D01*
X95000Y38100D02*
Y38900D01*
X104500Y47500D02*
X105300D01*
X104900Y47100D02*
Y47900D01*
X101600Y47500D02*
X102400D01*
X102000Y47100D02*
Y47900D01*
X97600Y47500D02*
X98400D01*
X98000Y47100D02*
Y47900D01*
X94700Y47500D02*
X95500D01*
X95100Y47100D02*
Y47900D01*
X89500Y47500D02*
X90300D01*
X89900Y47100D02*
Y47900D01*
X86600Y47500D02*
X87400D01*
X87000Y47100D02*
Y47900D01*
X89500Y38500D02*
X90300D01*
X89900Y38100D02*
Y38900D01*
X86600Y38500D02*
X87400D01*
X87000Y38100D02*
Y38900D01*
X82600Y38500D02*
X83400D01*
X83000Y38100D02*
Y38900D01*
X79700Y38500D02*
X80500D01*
X80100Y38100D02*
Y38900D01*
X82600Y47500D02*
X83400D01*
X83000Y47100D02*
Y47900D01*
X79700Y47500D02*
X80500D01*
X80100Y47100D02*
Y47900D01*
X74600Y56500D02*
X75400D01*
X75000Y56100D02*
Y56900D01*
X74600Y76500D02*
X75400D01*
X75000Y76100D02*
Y76900D01*
X72100Y68787D02*
X72900D01*
X72500Y68387D02*
Y69187D01*
X72100Y64063D02*
X72900D01*
X72500Y63663D02*
Y64463D01*
X49600Y71500D02*
X50400D01*
X50000Y71100D02*
Y71900D01*
X54100Y84000D02*
X54900D01*
X54500Y83600D02*
Y84400D01*
X37100Y80500D02*
X37900D01*
X37500Y80100D02*
Y80900D01*
X24100Y70500D02*
X24900D01*
X24500Y70100D02*
Y70900D01*
X14100Y76000D02*
X14900D01*
X14500Y75600D02*
Y76400D01*
X37100Y75500D02*
X37900D01*
X37500Y75100D02*
Y75900D01*
X37100Y70500D02*
X37900D01*
X37500Y70100D02*
Y70900D01*
X28100Y75500D02*
X28900D01*
X28500Y75100D02*
Y75900D01*
X28100Y70500D02*
X28900D01*
X28500Y70100D02*
Y70900D01*
X84100Y118500D02*
X84900D01*
X84500Y118100D02*
Y118900D01*
X84100Y122500D02*
X84900D01*
X84500Y122100D02*
Y122900D01*
X84100Y126500D02*
X84900D01*
X84500Y126100D02*
Y126900D01*
X84100Y130500D02*
X84900D01*
X84500Y130100D02*
Y130900D01*
X84100Y134500D02*
X84900D01*
X84500Y134100D02*
Y134900D01*
X75100Y118500D02*
X75900D01*
X75500Y118100D02*
Y118900D01*
X75100Y122500D02*
X75900D01*
X75500Y122100D02*
Y122900D01*
X75100Y126500D02*
X75900D01*
X75500Y126100D02*
Y126900D01*
X75100Y130500D02*
X75900D01*
X75500Y130100D02*
Y130900D01*
X75100Y134500D02*
X75900D01*
X75500Y134100D02*
Y134900D01*
X23872Y126500D02*
X24672D01*
X24272Y126100D02*
Y126900D01*
X23872Y123600D02*
X24672D01*
X24272Y123200D02*
Y124000D01*
X43100Y137500D02*
X43900D01*
X43500Y137100D02*
Y137900D01*
X43100Y142500D02*
X43900D01*
X43500Y142100D02*
Y142900D01*
X16600Y117500D02*
X17400D01*
X17000Y117100D02*
Y117900D01*
X43100Y132500D02*
X43900D01*
X43500Y132100D02*
Y132900D01*
X43100Y127500D02*
X43900D01*
X43500Y127100D02*
Y127900D01*
X43100Y117500D02*
X43900D01*
X43500Y117100D02*
Y117900D01*
M02*
