M48
;Layer_Color=9474304
;FILE_FORMAT=2:5
INCH,LZ
;TYPE=PLATED
T1F00S00C0.00600
T2F00S00C0.00787
T3F00S00C0.00800
T4F00S00C0.04000
T6F00S00C0.06300
T7F00S00C0.12500
T8F00S00C0.12800
%
T01
X0104247Y0175853
X01042Y0177821
Y017979
Y0181758
X0107389Y0180774
Y0178806
X011231Y017979
Y0177821
Y0175853
Y0171916
Y0169947
X0116247Y01659
X0118216
X012609Y0173884
Y0175853
Y0177821
X0131011Y0176837
Y0178806
Y0180774
Y0182743
Y0184711
X0129043
X0122153Y017979
X0120184
X0116247
X0107389Y0184711
X01342Y0177821
T02
X0085094Y0062094
Y0066031
Y0069968
X0089031
X0092968
Y0066031
X0089031
Y0062094
X0092968
X0096905
Y0066031
Y0069968
Y0073905
X0092968
X0089031
X0085094
X0094669Y01305
X0099
Y0126169
Y0134831
X0103331Y01305
X0326135Y0092231
X0330465
Y00879
X0326135
Y0083569
X0330465
X0330765Y0034731
X0326435
Y00304
X0330765
Y0026069
X0326435
T03
X00145Y0076
X00285Y00755
Y00705
X00245
X00375
Y00755
Y00805
X00545Y0084
X005Y00715
Y00628
X00725Y0064063
Y0068787
X0075Y0071
Y00665
Y00565
X00825Y00525
X0088
X0087Y00475
X00899
X00951
X0098
X0102
X01049
X0107Y0056
X01095
X0107Y00585
Y0061
Y00635
Y00716
Y00786
Y00805
X0106Y00847
Y00879
Y0098
X01025
X00915
X0093362Y00855
X00914Y00835
X0089Y00855
X0086
X0083
X008Y00835
X0075Y0084
Y00805
Y00765
X00714Y00784
X0075Y00913
X00755Y01185
Y01225
Y01265
Y01305
Y01345
Y0141
X00845
Y0138
Y01345
Y01305
Y01265
Y01225
Y01185
X0091168Y0118
X00936
X00961
X01
X01035
X0099016Y0114331
X0111516Y0111831
Y0108831
X01165Y01108
Y01145
Y01182
Y01219
Y01256
Y01293
Y0133
Y01367
X0112Y0136505
Y014
Y0133
Y0129516
Y01219
Y01183
X01266Y01182
Y01145
Y01108
X0128Y01081
Y01056
X01317Y01043
X0131634Y0112551
Y0115801
Y0125551
X01266Y01256
Y01293
Y0133
Y01367
Y01404
Y01441
Y01478
X01314
Y0141551
Y0139051
X01416
Y0141551
Y01478
X0144034Y0149801
X0146634
Y0153051
X0144084
Y0156051
X0146634
Y0145051
Y0138551
X0149134
X0151634
X0153287Y01325
X0146634Y0129351
X0141634Y0129301
Y0125551
X0146634Y0122551
Y0119903
X0146634Y0113602
X0141634Y0112801
Y0115801
X0146634Y0105728
X0143684Y0095051
Y0092551
X0143634Y0085551
X0147134
X0155134
X0153284Y0094701
X0153287Y0094705
X01436Y00789
X01435Y0071
Y0066
Y00617
Y00592
Y0051
X01365
Y00535
Y0056
Y0046
X01435Y0041
Y0036
X01408Y00326
X01365
Y0066
Y0071
X0131634Y0085051
X0129134
Y0088051
X0131634
X01265Y0088
Y00935
Y0098
X01165Y01043
X01155Y0089
X0119Y0083
Y008
Y0077
Y00745
X01155
X01125
Y00595
X01155
X01185Y0056
Y0049
X0096Y00525
X00969Y00385
X0095
X00899
X0087
X0083
X00801
Y00475
X0083
X0096512Y00835
X0086516Y0108831
Y0111831
X00928Y01433
X00954
X0098016
X0101953
X01013Y01493
X0112Y01478
X01165
Y01441
X01266Y0154301
X0129534Y0154301
X0151634Y0149823
X00845Y01484
X00435Y01425
Y01375
Y01325
Y01275
Y01175
X0024272Y01236
Y01265
X0017Y01175
X0159587Y0116752
Y0119902
Y0123051
X0162736
Y0126201
Y012935
X0159587Y012935
Y0126201
X0165886
X0169035
X0172185
Y012935
Y01325
X0169035
X0165886
Y0138799
Y0141949
Y0145098
X0169035
X0172185
Y0141949
X0169035
Y0138799
X0172185
X0175335
X0178484
Y013565
Y01325
Y012935
X0175335
Y0126201
X0178484
X0184783
X0184784Y0126201
X0187933
X0187933Y0126201
Y012935
X0184783
Y01325
Y013565
Y0138799
Y0141949
Y0145098
X0187933
Y0141949
X0191083
Y0145098
X0194232
X0197382
X0197381Y0141951
X0200532Y0141949
Y0145098
X0203681
Y0141949
Y0138799
X0200532
Y013565
X0203681
Y01325
X0200532
X0197382
Y0138799
X0194232
X0191083
Y013565
Y01325
Y012935
X0194232Y0126201
X0194234Y0126201
X0197382Y0126201
X0197384Y0126201
X0200532Y0126201
X0200534Y0126201
X0203681Y0126201
X0203684Y0126201
X0203681Y012935
X0200532
Y0119902
X0203681
Y0116752
X0200532
Y0113602
X0203681
Y0110453
X0200532
Y0107303
X0203681
X0200532Y0104154
Y0101004
X0203681
Y0097854
X0200532
X0197382
Y0101004
Y0104154
X0194232
Y0101004
X0191083
Y0104154
Y0107303
X0191084Y0110451
X0191083Y0110453
Y0113602
Y0116752
Y0119902
X0194232
X0197382
Y0113602
X0194232
Y0107303
X0197382Y0107303
X0187933Y0107303
Y0104154
X0184783
Y0101004
X0187933
X0178484
X0178484Y0104154
X0175335Y0104154
Y0101004
X0172185
Y0104154
Y0107303
Y0110453
Y0113602
X0169035
X0165886
X0162736
X0159587
X0156437Y0113602
X0162736Y0110453
Y0107303
X0159587
Y0104154
X0162736
Y0101004
X0159587
Y0097854
X0162736
Y0094705
X0159587
X0159134Y0087551
X0158Y00752
Y00722
Y0066
Y00592
Y00501
Y00472
X0163Y0047196
Y0050196
Y0054196
X01686Y00418
X01754
Y0064
X01727
X0179134
X01823
X0179134Y00705
Y00735
X0182Y0080032
X0191634Y00804
X01916Y0078051
X0195384Y00804
X01991Y0078051
X0202884
X0206634Y0078051
X02096Y00804
X0209634Y0085051
Y0088051
X0208406Y0093551
X0213634Y0092551
Y0095051
Y0099051
Y0108878
Y0113601
Y0126199
Y0129351
X0210768Y012935
X0222634Y0130751
Y0134551
X0226634Y0130751
Y0124451
X0226634Y0119903
X0226634Y0115001
Y0108701
Y0099251
Y0096551
Y0089801
X02266Y00866
X0226631Y0083501
X0226634Y0083501
X0237459
X0240609
Y0086651
X0243759
Y0089801
X0240609
Y0092951
X0237459
Y0089801
Y0086651
Y0080351
X0240609
X0243759
Y0083501
Y0092951
Y0096101
Y0099252
Y0102401
X0240609
Y0099251
X0237459
X0233634Y0102051
X0229634
X0237459Y0108701
X0240609
Y0115001
Y0118151
X0243759
X0246909
X0243759Y0124449
Y0127601
X0240609
X0237459
Y0124451
X0240609
Y0130751
X0237459
X0247244Y0136083
X0249606Y0134508
X0259509Y0130751
Y0127601
Y0124451
X0262659
Y0121301
Y0118151
X0259509
Y0115001
X0262659
Y0111851
X0265809
Y0108701
X0262659
X0259509
Y0111851
X0262659Y0102401
Y0099251
X0265809
Y0092951
Y0089801
X0262659
Y0086651
X0259509
Y0083501
X0262659
Y0080351
X0265809
Y0083501
Y0086651
X0259509Y0089801
Y0096101
X0262659
Y0092951
X024978Y0091403
X0253284Y0080379
X0259509Y0080351
X02617Y00745
X0275922
Y0083529
Y0089828
Y0094553
Y0099277
Y0104002
Y0108726
Y0118175
Y0124474
Y0130773
X0265809Y0127601
X0262659
Y0130751
X0265809Y0124451
Y0121301
Y0118151
X0237459Y0115001
X0222634Y0126051
X0208406Y0152551
X0181634Y0153551
X0178484Y0145098
X0175335
X0178484Y0141949
X0162736
Y0145098
X0159587
Y0141949
Y0138799
X0162736
Y013565
X0159587
X0156437Y0138799
Y01325
X0162736Y0116752
X0165886Y0119902
X0169035
X0172185
Y0116752
X0175335
Y0119902
X0178484
Y0116752
X0184783
Y0119902
X0187933
Y0116752
X0184783Y0113602
Y0110453
X0184784Y011045
X0178484Y0110453
Y0107303
X0175335
X0169035
X0165886
Y0104154
Y0101004
X0169035
X0169035Y0097854
Y0094705
X0172884Y0090551
X0182134
X0187884
X0195384
X0200416Y0066561
X0205384
X0208648
X0219634Y0070301
Y0074051
Y0077051
X0222634Y0072051
X02231Y0053632
X02261
Y0050632
X0168634Y00705
Y00735
X0181634Y0123051
X03379Y01329
X0340737
X03463
X03448Y0181
X0340737
X03366
X02727Y0188189
X0268763
X0264826
X0260889
X0256952
X0256952Y0197638
X0260889
X0264826
X0268763
X02727
X0253015
X0249078
X0245141
X0241204
X0237267
X023333
X0229393
X0225456
X0221519
X0217582
X0213645
X0209708
X0205771
X0205771Y0188189
X0209708
X0213645
X0217582
X0194134Y0188049
X0189134
X0184134
X0179134
X0174134
X0169134
X0169134Y01976
X0174134
X0184134
X0194134
X0189134Y0182073
X0179159
X0175384Y0165051
X0178486Y0158051
X0181634
X0187925
X0194232
X0200547
X0158659Y01761
X0153541
X01367Y01679
X01016Y01679
X00926Y0165
Y01807
X00942Y0188049
X00992
X01042
X01092
Y01976
X01042
X00992
X00942
X01166
X0129
T04
X00318Y00275
X002Y0046
X00436
X0059Y0041
Y0051
X0069
Y0041
X006725Y01075
Y01175
Y01275
Y01375
X005725Y01425
Y01325
Y01225
Y01125
X001295Y01101
X001895Y01001
X00065Y0085
X001895Y01399
X001295Y01499
X01518Y00122
X01628Y00121
X01686Y00367
X01786
X01886
X01986
X02086
X02186
X0257505Y0022217
X0302753Y0018057
Y0027897
Y0035777
Y0045617
Y0080857
Y0090697
Y0098577
Y0108417
T06
X004425Y0094
Y0156
T07
X0057Y00134
X03484Y00145
X0334823Y0223567
X007255Y0223
T08
X003225Y01025
Y01475
M30
