G04*
G04 #@! TF.GenerationSoftware,Altium Limited,Altium Designer,19.1.9 (167)*
G04*
G04 Layer_Physical_Order=1*
G04 Layer_Color=255*
%FSLAX25Y25*%
%MOIN*%
G70*
G01*
G75*
%ADD11C,0.00100*%
%ADD12C,0.00787*%
%ADD14C,0.01000*%
%ADD16R,0.07087X0.13583*%
%ADD17C,0.01400*%
%ADD18O,0.00945X0.02717*%
%ADD19O,0.02717X0.00945*%
%ADD20R,0.12598X0.12598*%
%ADD21C,0.01000*%
%ADD22R,0.02000X0.02500*%
%ADD23R,0.07000X0.08500*%
%ADD24O,0.06693X0.02953*%
%ADD25R,0.03500X0.04000*%
%ADD26R,0.02165X0.02165*%
%ADD27R,0.02165X0.02165*%
%ADD28R,0.02000X0.01200*%
%ADD29R,0.01378X0.03347*%
%ADD30O,0.03347X0.00787*%
%ADD31O,0.00787X0.03347*%
%ADD32R,0.15945X0.15945*%
%ADD33R,0.03000X0.04000*%
%ADD34R,0.05709X0.03543*%
%ADD35R,0.02500X0.02000*%
%ADD36R,0.03543X0.05709*%
%ADD38C,0.01800*%
%ADD68C,0.00475*%
%ADD69C,0.01500*%
%ADD70C,0.02000*%
%ADD71C,0.00780*%
%ADD72C,0.00800*%
%ADD73C,0.00770*%
%ADD74C,0.00375*%
%ADD75C,0.02500*%
%ADD76C,0.00945*%
%ADD77C,0.00750*%
%ADD78C,0.00450*%
%ADD79C,0.01200*%
%ADD80C,0.00600*%
%ADD81C,0.02350*%
%ADD82C,0.06000*%
%ADD83C,0.17500*%
%ADD84C,0.04000*%
%ADD85C,0.09000*%
%ADD86R,0.06000X0.06000*%
%ADD87C,0.06500*%
%ADD88O,0.13500X0.08000*%
%ADD89O,0.07000X0.15000*%
%ADD90O,0.07000X0.18000*%
%ADD91O,0.15000X0.07000*%
%ADD92C,0.01378*%
%ADD93C,0.01968*%
%ADD94C,0.01200*%
G36*
X77706Y62789D02*
X77582Y62488D01*
X77706Y62187D01*
X77925Y62096D01*
X75373Y62096D01*
X70289Y57013D01*
X53628Y57013D01*
X50500Y53885D01*
X50500Y47000D01*
X48500Y45000D01*
X47130D01*
Y45500D01*
X43600D01*
Y46000D01*
X43100D01*
Y54964D01*
X42686Y54910D01*
X41835Y54557D01*
X41104Y53996D01*
X40543Y53265D01*
X40500Y53162D01*
Y59737D01*
X43647Y62884D01*
X46297D01*
X46840Y62340D01*
X47051Y62199D01*
X47300Y62150D01*
X48871D01*
X49063Y61863D01*
X49493Y61575D01*
X50000Y61475D01*
X50507Y61575D01*
X50937Y61863D01*
X51225Y62293D01*
X51326Y62800D01*
X51309Y62884D01*
X71924D01*
X71993Y62838D01*
X72500Y62738D01*
X73007Y62838D01*
X73076Y62884D01*
X77935D01*
X77706Y62789D01*
D02*
G37*
G36*
X98500Y54500D02*
X99100Y53900D01*
Y47100D01*
X98400Y46400D01*
X94200D01*
X93900Y46700D01*
Y48800D01*
X95000Y49900D01*
X96400D01*
X97700Y51200D01*
Y54934D01*
X97716Y54854D01*
X97803Y54724D01*
X97933Y54637D01*
X98087Y54606D01*
X98240Y54637D01*
X98370Y54724D01*
X98457Y54854D01*
X98488Y55008D01*
Y56287D01*
X98500D01*
X98500Y54500D01*
D02*
G37*
G36*
X91486Y54707D02*
X91787Y54582D01*
X92089Y54707D01*
X92180Y54926D01*
X92180Y53380D01*
X91100Y52300D01*
X91096Y50995D01*
X89800Y49700D01*
X86600Y49700D01*
X85464Y48564D01*
X85464Y46964D01*
X84958Y46458D01*
X79541D01*
X79000Y47000D01*
X79000Y50000D01*
X79500Y50500D01*
X88000D01*
X91393Y53893D01*
Y54932D01*
X91486Y54707D01*
D02*
G37*
G36*
X93700Y49500D02*
X90600Y46400D01*
X86700D01*
X86100Y47000D01*
Y47411D01*
X86152Y47149D01*
X86351Y46851D01*
X86500Y46752D01*
Y47500D01*
Y48248D01*
X86351Y48149D01*
X86152Y47851D01*
X86100Y47589D01*
Y48000D01*
X87100Y49000D01*
X90400D01*
X92971Y51600D01*
Y53600D01*
X93700D01*
Y49500D01*
D02*
G37*
G36*
X102298Y57000D02*
X105149Y54149D01*
X109286D01*
X110106Y53329D01*
X110106Y51751D01*
X108000Y49645D01*
X107000Y48645D01*
Y43500D01*
X105807Y42307D01*
Y42500D01*
X104035D01*
Y43000D01*
X103535D01*
Y45854D01*
X103146D01*
X103037Y45963D01*
X102000D01*
X101000Y46963D01*
Y54000D01*
X100500Y54500D01*
X99500D01*
Y54649D01*
X99661Y54582D01*
X99963Y54707D01*
X100088Y55008D01*
Y55787D01*
X99661D01*
Y56787D01*
X100088D01*
Y57000D01*
X102298Y57000D01*
D02*
G37*
G36*
X110600Y63300D02*
X111100Y62800D01*
X111146D01*
Y61193D01*
X113500D01*
Y62965D01*
X114500D01*
Y61193D01*
X116800D01*
Y58900D01*
X115900Y58000D01*
X109900D01*
X108600Y59300D01*
Y64300D01*
X107600Y65300D01*
X104205D01*
X104294Y65337D01*
X104418Y65638D01*
X104294Y65939D01*
X104147Y66000D01*
X105100D01*
X105300Y66200D01*
X110600D01*
Y63300D01*
D02*
G37*
G36*
X116700Y75400D02*
Y73800D01*
X116200Y73300D01*
X110800D01*
X110400Y72900D01*
Y69400D01*
X109000Y68000D01*
X105100D01*
X104700Y68400D01*
X104086D01*
X104294Y68486D01*
X104418Y68787D01*
X104294Y69089D01*
X104025Y69200D01*
X106300D01*
X107467Y70367D01*
X107507Y70375D01*
X107937Y70663D01*
X108225Y71093D01*
X108232Y71132D01*
X108600Y71500D01*
Y75000D01*
X109500Y75900D01*
X116200D01*
X116700Y75400D01*
D02*
G37*
G36*
X120200Y63300D02*
X120700Y62800D01*
X121146D01*
Y61200D01*
X116854D01*
Y62800D01*
X117400D01*
X117900Y63300D01*
Y64600D01*
X120200D01*
Y63300D01*
D02*
G37*
G36*
X214134Y78051D02*
Y48051D01*
X213134Y47051D01*
X192634D01*
X191634Y48051D01*
Y76732D01*
X191712Y76748D01*
X191807Y76761D01*
X191807Y76761D01*
X191919Y76781D01*
X191979Y76796D01*
X192006Y76803D01*
X192232D01*
Y70769D01*
X200936D01*
Y71931D01*
X201300Y72174D01*
X201715Y72795D01*
X201860Y73527D01*
X201715Y74259D01*
X201300Y74880D01*
X200936Y75123D01*
Y76973D01*
X200694D01*
X200659Y76975D01*
X200624Y76979D01*
X200590Y76987D01*
X200557Y76998D01*
X200525Y77011D01*
X200494Y77027D01*
X200465Y77046D01*
X200437Y77067D01*
X200411Y77091D01*
X200388Y77117D01*
X200367Y77145D01*
X200348Y77174D01*
X200332Y77205D01*
X200319Y77237D01*
X200308Y77271D01*
X200301Y77305D01*
X200296Y77339D01*
X200295Y77374D01*
X200296Y77409D01*
X200301Y77444D01*
X200309Y77478D01*
X200319Y77511D01*
X200328Y77532D01*
X200328Y77532D01*
X200369Y77638D01*
X200400Y77747D01*
X200422Y77859D01*
X200433Y77972D01*
X200435Y78085D01*
X200428Y78199D01*
X200410Y78311D01*
X200382Y78421D01*
X200352Y78510D01*
X200352Y78510D01*
X200341Y78543D01*
X200333Y78577D01*
X200328Y78612D01*
X200326Y78647D01*
X200327Y78681D01*
X200331Y78716D01*
X200338Y78750D01*
X200348Y78784D01*
X200361Y78816D01*
X200377Y78847D01*
X200396Y78877D01*
X200417Y78905D01*
X200440Y78931D01*
X200465Y78955D01*
X200493Y78976D01*
X200522Y78995D01*
X200553Y79012D01*
X200585Y79026D01*
X200618Y79036D01*
X200652Y79044D01*
X200687Y79049D01*
X200721Y79051D01*
X200726Y79051D01*
X204305D01*
X205309Y78048D01*
X205347Y77856D01*
X205349Y77839D01*
X205373Y77728D01*
X205373Y77728D01*
X205409Y77544D01*
X205462Y77465D01*
X205469Y77432D01*
X205472Y77397D01*
X205473Y77362D01*
X205470Y77327D01*
X205465Y77293D01*
X205456Y77259D01*
X205445Y77226D01*
X205431Y77194D01*
X205414Y77164D01*
X205394Y77135D01*
X205372Y77108D01*
X205348Y77083D01*
X205322Y77060D01*
X205293Y77039D01*
X205263Y77021D01*
X205232Y77006D01*
X205199Y76994D01*
X205166Y76984D01*
X205132Y76977D01*
X205097Y76974D01*
X205074Y76973D01*
X204832D01*
Y75101D01*
X204500Y74880D01*
X204085Y74259D01*
X203940Y73527D01*
X204085Y72795D01*
X204500Y72174D01*
X204832Y71952D01*
Y70769D01*
X213536D01*
Y76973D01*
X208194D01*
X208159Y76975D01*
X208124Y76979D01*
X208090Y76987D01*
X208057Y76998D01*
X208025Y77011D01*
X207994Y77027D01*
X207965Y77046D01*
X207937Y77067D01*
X207911Y77091D01*
X207888Y77117D01*
X207867Y77145D01*
X207848Y77174D01*
X207832Y77205D01*
X207819Y77237D01*
X207808Y77271D01*
X207801Y77305D01*
X207796Y77339D01*
X207795Y77374D01*
X207797Y77409D01*
X207801Y77444D01*
X207806Y77466D01*
X207858Y77544D01*
X207896Y77735D01*
X207900Y77747D01*
X207922Y77859D01*
X207922Y77865D01*
X207959Y78051D01*
X207918Y78260D01*
X207910Y78311D01*
X207899Y78352D01*
X207858Y78558D01*
X207829Y78602D01*
X207828Y78612D01*
X207826Y78647D01*
X207827Y78681D01*
X207831Y78716D01*
X207838Y78750D01*
X207849Y78784D01*
X207861Y78816D01*
X207877Y78847D01*
X207896Y78877D01*
X207917Y78905D01*
X207940Y78931D01*
X207965Y78955D01*
X207993Y78976D01*
X208022Y78995D01*
X208053Y79012D01*
X208085Y79026D01*
X208118Y79036D01*
X208152Y79044D01*
X208187Y79049D01*
X208221Y79051D01*
X208226Y79051D01*
X213134D01*
X214134Y78051D01*
D02*
G37*
%LPC*%
G36*
X44100Y54964D02*
Y46500D01*
X47130D01*
Y51500D01*
X47010Y52414D01*
X46657Y53265D01*
X46096Y53996D01*
X45365Y54557D01*
X44514Y54910D01*
X44100Y54964D01*
D02*
G37*
G36*
X98500Y48251D02*
Y48000D01*
X98751D01*
X98642Y48142D01*
X98500Y48251D01*
D02*
G37*
G36*
X97500D02*
X97358Y48142D01*
X97249Y48000D01*
X97500D01*
Y48251D01*
D02*
G37*
G36*
X95600D02*
Y48000D01*
X95851D01*
X95742Y48142D01*
X95600Y48251D01*
D02*
G37*
G36*
X94600D02*
X94458Y48142D01*
X94349Y48000D01*
X94600D01*
Y48251D01*
D02*
G37*
G36*
X98751Y47000D02*
X98500D01*
Y46749D01*
X98642Y46858D01*
X98751Y47000D01*
D02*
G37*
G36*
X97500D02*
X97249D01*
X97358Y46858D01*
X97500Y46749D01*
Y47000D01*
D02*
G37*
G36*
X95851D02*
X95600D01*
Y46749D01*
X95742Y46858D01*
X95851Y47000D01*
D02*
G37*
G36*
X94600D02*
X94349D01*
X94458Y46858D01*
X94600Y46749D01*
Y47000D01*
D02*
G37*
G36*
X83500Y48248D02*
Y48000D01*
X83748D01*
X83649Y48149D01*
X83500Y48248D01*
D02*
G37*
G36*
X82500D02*
X82351Y48149D01*
X82252Y48000D01*
X82500D01*
Y48248D01*
D02*
G37*
G36*
X80600D02*
Y48000D01*
X80848D01*
X80749Y48149D01*
X80600Y48248D01*
D02*
G37*
G36*
X79600D02*
X79451Y48149D01*
X79352Y48000D01*
X79600D01*
Y48248D01*
D02*
G37*
G36*
X83748Y47000D02*
X83500D01*
Y46752D01*
X83649Y46851D01*
X83748Y47000D01*
D02*
G37*
G36*
X82500D02*
X82252D01*
X82351Y46851D01*
X82500Y46752D01*
Y47000D01*
D02*
G37*
G36*
X80848D02*
X80600D01*
Y46752D01*
X80749Y46851D01*
X80848Y47000D01*
D02*
G37*
G36*
X79600D02*
X79352D01*
X79451Y46851D01*
X79600Y46752D01*
Y47000D01*
D02*
G37*
G36*
X90400Y48248D02*
Y48000D01*
X90648D01*
X90549Y48149D01*
X90400Y48248D01*
D02*
G37*
G36*
X89400D02*
X89251Y48149D01*
X89152Y48000D01*
X89400D01*
Y48248D01*
D02*
G37*
G36*
X87500D02*
Y48000D01*
X87748D01*
X87649Y48149D01*
X87500Y48248D01*
D02*
G37*
G36*
X90648Y47000D02*
X90400D01*
Y46752D01*
X90549Y46851D01*
X90648Y47000D01*
D02*
G37*
G36*
X89400D02*
X89152D01*
X89251Y46851D01*
X89400Y46752D01*
Y47000D01*
D02*
G37*
G36*
X87748D02*
X87500D01*
Y46752D01*
X87649Y46851D01*
X87748Y47000D01*
D02*
G37*
G36*
X105400Y48248D02*
Y48000D01*
X105648D01*
X105549Y48149D01*
X105400Y48248D01*
D02*
G37*
G36*
X104400D02*
X104251Y48149D01*
X104152Y48000D01*
X104400D01*
Y48248D01*
D02*
G37*
G36*
X102500D02*
Y48000D01*
X102748D01*
X102649Y48149D01*
X102500Y48248D01*
D02*
G37*
G36*
X101500D02*
X101351Y48149D01*
X101252Y48000D01*
X101500D01*
Y48248D01*
D02*
G37*
G36*
X105648Y47000D02*
X105400D01*
Y46752D01*
X105549Y46851D01*
X105648Y47000D01*
D02*
G37*
G36*
X104400D02*
X104152D01*
X104251Y46851D01*
X104400Y46752D01*
Y47000D01*
D02*
G37*
G36*
X102748D02*
X102500D01*
Y46752D01*
X102649Y46851D01*
X102748Y47000D01*
D02*
G37*
G36*
X101500D02*
X101252D01*
X101351Y46851D01*
X101500Y46752D01*
Y47000D01*
D02*
G37*
G36*
X105807Y45854D02*
X104535D01*
Y43500D01*
X105807D01*
Y45854D01*
D02*
G37*
G36*
X116000Y60248D02*
Y60000D01*
X116248D01*
X116149Y60149D01*
X116000Y60248D01*
D02*
G37*
G36*
X115000D02*
X114851Y60149D01*
X114752Y60000D01*
X115000D01*
Y60248D01*
D02*
G37*
G36*
X113000D02*
Y60000D01*
X113248D01*
X113149Y60149D01*
X113000Y60248D01*
D02*
G37*
G36*
X112000D02*
X111851Y60149D01*
X111752Y60000D01*
X112000D01*
Y60248D01*
D02*
G37*
G36*
X116248Y59000D02*
X116000D01*
Y58752D01*
X116149Y58851D01*
X116248Y59000D01*
D02*
G37*
G36*
X115000D02*
X114752D01*
X114851Y58851D01*
X115000Y58752D01*
Y59000D01*
D02*
G37*
G36*
X113248D02*
X113000D01*
Y58752D01*
X113149Y58851D01*
X113248Y59000D01*
D02*
G37*
G36*
X112000D02*
X111752D01*
X111851Y58851D01*
X112000Y58752D01*
Y59000D01*
D02*
G37*
G36*
X116000Y75248D02*
Y75000D01*
X116248D01*
X116149Y75149D01*
X116000Y75248D01*
D02*
G37*
G36*
X115000D02*
X114851Y75149D01*
X114752Y75000D01*
X115000D01*
Y75248D01*
D02*
G37*
G36*
X113000D02*
Y75000D01*
X113248D01*
X113149Y75149D01*
X113000Y75248D01*
D02*
G37*
G36*
X112000D02*
X111851Y75149D01*
X111752Y75000D01*
X112000D01*
Y75248D01*
D02*
G37*
G36*
X116248Y74000D02*
X116000D01*
Y73752D01*
X116149Y73851D01*
X116248Y74000D01*
D02*
G37*
G36*
X115000D02*
X114752D01*
X114851Y73851D01*
X115000Y73752D01*
Y74000D01*
D02*
G37*
G36*
X113248D02*
X113000D01*
Y73752D01*
X113149Y73851D01*
X113248Y74000D01*
D02*
G37*
G36*
X112000D02*
X111752D01*
X111851Y73851D01*
X112000Y73752D01*
Y74000D01*
D02*
G37*
G36*
X203384Y78799D02*
Y78551D01*
X203632D01*
X203533Y78700D01*
X203384Y78799D01*
D02*
G37*
G36*
X202384D02*
X202235Y78700D01*
X202136Y78551D01*
X202384D01*
Y78799D01*
D02*
G37*
G36*
X203632Y77551D02*
X203384D01*
Y77303D01*
X203533Y77402D01*
X203632Y77551D01*
D02*
G37*
G36*
X202384D02*
X202136D01*
X202235Y77402D01*
X202384Y77303D01*
Y77551D01*
D02*
G37*
G36*
X205884Y67309D02*
Y67061D01*
X206132D01*
X206033Y67210D01*
X205884Y67309D01*
D02*
G37*
G36*
X204884D02*
X204735Y67210D01*
X204636Y67061D01*
X204884D01*
Y67309D01*
D02*
G37*
G36*
X200916D02*
Y67061D01*
X201164D01*
X201065Y67210D01*
X200916Y67309D01*
D02*
G37*
G36*
X199916D02*
X199767Y67210D01*
X199668Y67061D01*
X199916D01*
Y67309D01*
D02*
G37*
G36*
X206132Y66061D02*
X205884D01*
Y65813D01*
X206033Y65912D01*
X206132Y66061D01*
D02*
G37*
G36*
X204884D02*
X204636D01*
X204735Y65912D01*
X204884Y65813D01*
Y66061D01*
D02*
G37*
G36*
X201164D02*
X200916D01*
Y65813D01*
X201065Y65912D01*
X201164Y66061D01*
D02*
G37*
G36*
X199916D02*
X199668D01*
X199767Y65912D01*
X199916Y65813D01*
Y66061D01*
D02*
G37*
G36*
X208648Y67887D02*
X208141Y67786D01*
X207711Y67498D01*
X207423Y67068D01*
X207323Y66561D01*
X207423Y66054D01*
X207711Y65624D01*
X208141Y65336D01*
X208648Y65236D01*
X209155Y65336D01*
X209585Y65624D01*
X209873Y66054D01*
X209974Y66561D01*
X209873Y67068D01*
X209585Y67498D01*
X209155Y67786D01*
X208648Y67887D01*
D02*
G37*
G36*
X209593Y53786D02*
X205853D01*
X205121Y53641D01*
X204500Y53226D01*
X204085Y52605D01*
X203940Y51873D01*
X204085Y51141D01*
X204500Y50520D01*
X205121Y50106D01*
X205853Y49960D01*
X209593D01*
X210325Y50106D01*
X210946Y50520D01*
X211360Y51141D01*
X211506Y51873D01*
X211360Y52605D01*
X210946Y53226D01*
X210325Y53641D01*
X209593Y53786D01*
D02*
G37*
G36*
X199947D02*
X196207D01*
X195475Y53641D01*
X194854Y53226D01*
X194440Y52605D01*
X194294Y51873D01*
X194440Y51141D01*
X194854Y50520D01*
X195475Y50106D01*
X196207Y49960D01*
X199947D01*
X200679Y50106D01*
X201300Y50520D01*
X201715Y51141D01*
X201860Y51873D01*
X201715Y52605D01*
X201300Y53226D01*
X200679Y53641D01*
X199947Y53786D01*
D02*
G37*
%LPD*%
D11*
X234034Y76926D02*
Y134176D01*
X269234D01*
Y76926D02*
Y134176D01*
X234034Y76926D02*
X269234D01*
D12*
X93362Y52262D02*
Y56287D01*
X102713Y68787D02*
X106887D01*
X96400Y86000D02*
X97200D01*
X94700Y84300D02*
X96400Y86000D01*
X94700Y82900D02*
Y84300D01*
Y82900D02*
X94937Y82663D01*
Y79713D02*
Y82663D01*
X73000Y58000D02*
X75913Y60913D01*
X79287D01*
X73000Y55000D02*
Y58000D01*
X69000Y51000D02*
X73000Y55000D01*
D14*
X261084Y116576D02*
X262659Y118151D01*
X261084Y119726D02*
X262659Y121301D01*
X264234Y126026D02*
X265809Y127601D01*
X240609Y118151D02*
X242184Y116576D01*
X237459Y127601D02*
X239034Y126026D01*
X243759Y127601D02*
X245334Y126026D01*
X261084Y103976D02*
X262659Y102401D01*
X261084Y110276D02*
X262659Y111851D01*
X264234Y110276D02*
X265809Y111851D01*
X240609Y102401D02*
X242184Y103976D01*
X239034Y116576D02*
X240609Y115001D01*
X264234Y81926D02*
X265809Y80351D01*
X264234Y88226D02*
X265809Y86651D01*
X264234Y94526D02*
X265809Y92951D01*
X237459Y80351D02*
X239034Y81926D01*
X237459Y86651D02*
X239034Y88226D01*
X237459Y92951D02*
X239034Y94526D01*
X261084Y129176D02*
X262659Y130751D01*
X264234Y122876D02*
X265809Y124451D01*
X264234Y116576D02*
X265809Y118151D01*
X264234Y119726D02*
X265809Y121301D01*
X237459Y124451D02*
X239034Y122876D01*
X237459Y130751D02*
X239034Y129176D01*
X242184Y119726D02*
X243759Y118151D01*
X240609Y127601D02*
X242184Y126026D01*
X264234Y107126D02*
X265809Y108701D01*
X261084Y100826D02*
X262659Y99251D01*
X257934Y110276D02*
X259509Y111851D01*
X237459Y115001D02*
X239034Y113426D01*
X240609Y99251D02*
X242184Y100826D01*
X240609Y108701D02*
X242184Y107126D01*
X264234Y85076D02*
X265809Y83501D01*
X264234Y91376D02*
X265809Y89801D01*
X237459Y83501D02*
X239034Y85076D01*
X237459Y89801D02*
X239034Y91376D01*
X202884Y78051D02*
X202884Y78051D01*
X202884Y78051D02*
Y79801D01*
X184784Y132500D02*
X184784Y132501D01*
X184783Y132500D02*
X184784Y132500D01*
X184783Y135650D02*
X184784Y135650D01*
X183209Y134075D02*
X184783Y135650D01*
X184784Y135650D02*
X186358Y134075D01*
X184783Y135650D02*
X184784Y135650D01*
X178484Y138799D02*
X178485Y138800D01*
X176910Y137225D02*
X178484Y138799D01*
X180059Y137224D01*
X178484Y138799D02*
X178484Y138799D01*
X173760Y134075D02*
X173761Y134076D01*
X172186Y132501D02*
X173760Y134075D01*
X287323Y171549D02*
X287823Y171049D01*
X191083Y135650D02*
X191084Y135650D01*
X189509Y134075D02*
X191083Y135650D01*
X192658Y130925D02*
X192658Y130926D01*
X191083Y129351D02*
X192658Y130925D01*
X189508Y130925D02*
X191083Y129350D01*
X189508Y130925D02*
X189508Y130925D01*
X184784Y132500D02*
X186358Y130925D01*
X184783Y132500D02*
X184784Y132500D01*
X183209Y130926D02*
X184783Y132500D01*
X189508Y130925D02*
X189510D01*
X189508D02*
X189508D01*
X178484Y135650D02*
X180059Y134075D01*
X178484Y135650D02*
X178484Y135650D01*
X178485Y135650D01*
X176910Y134075D02*
X178484Y135650D01*
X180059Y127776D02*
X180060Y127776D01*
X180059Y127775D02*
X180059Y127776D01*
X178485Y126201D02*
X180059Y127775D01*
X175335Y129350D02*
X176910Y127775D01*
X175335Y129350D02*
X175335Y129350D01*
X175335Y129350D02*
X175335Y129350D01*
X173760Y130925D02*
X175335Y129350D01*
X180059Y127775D02*
X180059D01*
X180058D02*
X180059D01*
X194232Y119902D02*
X194232Y119901D01*
X192657Y121476D02*
X194232Y119902D01*
X189508Y121476D02*
Y124626D01*
Y121476D02*
Y121476D01*
X194232Y119902D02*
X194233Y119902D01*
X192658Y118327D02*
X194232Y119902D01*
X184783Y126201D02*
X184784Y126202D01*
X183209Y124627D02*
X184783Y126201D01*
X178484Y126201D02*
X180059Y124626D01*
X178484Y126201D02*
X178484Y126201D01*
X178484Y126201D02*
X178485Y126202D01*
X176910Y124627D02*
X178484Y126201D01*
X184783Y116752D02*
X184784Y116752D01*
X183209Y118327D02*
X184783Y116752D01*
X180059Y121476D02*
X180060Y121477D01*
X178485Y119902D02*
X180059Y121476D01*
X176909D02*
X176910Y121477D01*
X175335Y119902D02*
X176909Y121476D01*
X180059Y118327D02*
X180059D01*
X180058D02*
X180059D01*
X180059Y118327D01*
X178484Y119902D02*
X180059Y118327D01*
X184784Y116752D02*
X186357Y115178D01*
X184783Y116752D02*
X184784Y116752D01*
X184784Y113602D02*
Y113602D01*
Y113601D02*
Y113602D01*
X184783Y113602D02*
X184784Y113602D01*
X183209Y115177D02*
X184783Y113602D01*
X176284Y114551D02*
X176909Y115177D01*
X176283Y114551D02*
X176284Y114551D01*
X173760Y115177D02*
X174386Y114551D01*
X173760Y115177D02*
X173760Y115177D01*
X184784Y113602D02*
X186357Y112028D01*
X184784Y113602D02*
X184784Y113602D01*
X184783Y113602D02*
X184784Y113602D01*
X167461Y134075D02*
X167462Y134076D01*
X165887Y132501D02*
X167461Y134075D01*
X172185Y129350D02*
X173760Y127775D01*
X172185Y129350D02*
X172185Y129350D01*
X172185Y129350D02*
X172186Y129351D01*
X170611Y127776D02*
X172185Y129350D01*
X173760Y118327D02*
X173761Y118328D01*
X172186Y116753D02*
X173760Y118327D01*
X173760Y115177D02*
X173761Y115178D01*
X172186Y113603D02*
X173760Y115177D01*
X154862Y96280D02*
X154863Y96280D01*
X153288Y94705D02*
X154862Y96280D01*
X153284Y94701D02*
X154862Y96279D01*
X170185Y115602D02*
Y117902D01*
X170185Y115604D02*
X170611Y115178D01*
X170185Y117902D02*
X170611Y118328D01*
X176909Y130925D02*
X178484Y129350D01*
X195807Y108879D02*
Y112028D01*
X178484Y141949D02*
X180059Y140374D01*
X165886Y138799D02*
X167461Y137224D01*
X169035Y138799D02*
X170610Y137224D01*
X172185Y138799D02*
X173760Y137224D01*
X178484Y132500D02*
X180059Y130925D01*
X169035Y132500D02*
X170610Y130925D01*
X165886Y132500D02*
X167461Y130925D01*
X162736Y135650D02*
X164311Y134075D01*
X159587Y135650D02*
X161162Y134075D01*
X178484Y116752D02*
X180059Y115177D01*
X165886Y119902D02*
X167461Y118327D01*
X169035Y119902D02*
X170610Y118327D01*
X165886Y113602D02*
X167461Y112027D01*
X169035Y113602D02*
X170610Y112027D01*
X178484Y110453D02*
X180059Y108878D01*
X178484Y107303D02*
X180059Y105728D01*
X170610Y134075D02*
X172185Y132500D01*
X167461Y127776D02*
X169036Y126201D01*
X170610Y112028D02*
X172185Y110453D01*
X170610Y108878D02*
X172185Y107303D01*
X173760Y108878D02*
X175335Y107303D01*
X186358Y105728D02*
X187933Y104153D01*
X189508Y105728D02*
X191083Y104153D01*
X192657Y105728D02*
X194232Y104153D01*
X186358Y108878D02*
X187933Y107303D01*
X189508Y108878D02*
X191083Y107303D01*
X192657Y108878D02*
X194232Y107303D01*
X192657Y115177D02*
X194232Y113602D01*
X195807Y115177D02*
X197382Y113602D01*
X189508Y115177D02*
X191083Y113602D01*
X189508Y112028D02*
X191083Y110453D01*
X189508Y118327D02*
X191083Y116752D01*
X186358Y118327D02*
X187933Y116752D01*
X183209Y121476D02*
X184784Y119901D01*
X186358Y121476D02*
X187933Y119901D01*
X189508Y121476D02*
X191083Y119901D01*
X183209Y112028D02*
X184784Y110453D01*
X195807Y121476D02*
X197382Y119901D01*
X202106Y121476D02*
X203681Y119901D01*
X195807Y127776D02*
X197382Y126201D01*
X192657Y127776D02*
X194232Y126201D01*
X195807Y134075D02*
X197382Y132500D01*
X172186Y110453D02*
X173761Y112028D01*
X172186Y107304D02*
X173761Y108879D01*
X175335Y107304D02*
X176910Y108879D01*
X169036Y113603D02*
X170611Y115178D01*
X165887Y119902D02*
X167462Y121477D01*
X169036Y119902D02*
X170611Y121477D01*
X172186Y119902D02*
X173761Y121477D01*
X175335Y116753D02*
X176910Y118328D01*
X162737Y116753D02*
X164312Y118328D01*
X165887Y107304D02*
X167462Y108879D01*
X189509Y137225D02*
X191084Y138800D01*
X192658Y137225D02*
X194233Y138800D01*
X195808Y137225D02*
X197383Y138800D01*
X183209Y137225D02*
X184784Y138800D01*
X183209Y127776D02*
X184784Y129351D01*
X186359Y124627D02*
X187934Y126202D01*
X186359Y127776D02*
X187934Y129351D01*
X187934Y126201D02*
X189509Y127776D01*
X192658Y124627D02*
X194233Y126202D01*
X195808Y124627D02*
X197383Y126202D01*
X191083Y132501D02*
X192658Y134076D01*
X195808Y112028D02*
X197383Y113603D01*
X192658Y112028D02*
X194233Y113603D01*
X195808Y118327D02*
X197383Y119902D01*
X159587Y141949D02*
X161165Y140372D01*
X162736Y141949D02*
X164314Y140372D01*
X175335Y138800D02*
X176910Y140375D01*
X176910Y140375D02*
X178485Y141950D01*
X186358Y137224D02*
X189508D01*
X173761Y124627D02*
X175336Y126202D01*
X170611Y124627D02*
X172186Y126202D01*
X167461Y124627D02*
X169036Y126202D01*
X176910Y108879D02*
X178485Y110454D01*
X165887Y113603D02*
X167462Y115178D01*
X173760Y112028D02*
X176910D01*
X180059Y105728D02*
X183209Y108878D01*
X174386Y114551D02*
X176284D01*
X176909Y112028D02*
X177169Y112288D01*
X179799D02*
X180059Y112028D01*
X177169Y112287D02*
X179799D01*
X236634Y117051D02*
X238559D01*
X235134Y115551D02*
X236634Y117051D01*
X235134Y114176D02*
Y115551D01*
Y114176D02*
X239034Y110276D01*
X208406Y149823D02*
Y152551D01*
X151634Y149823D02*
X154862D01*
X186358Y115177D02*
Y115178D01*
X170610Y127775D02*
Y127777D01*
X176910Y124626D02*
Y124627D01*
X208406Y93551D02*
Y96279D01*
X181634Y97854D02*
X183209Y99429D01*
X198634Y84051D02*
X202884Y79801D01*
X198634Y84051D02*
Y92551D01*
X195807Y95378D02*
X198634Y92551D01*
X195807Y95378D02*
Y96279D01*
X189507Y127775D02*
X189508D01*
X175334Y126200D02*
Y126201D01*
X180058Y115177D02*
X180059D01*
X173758Y134075D02*
X173760D01*
X180059Y140374D02*
Y140423D01*
X176910Y140374D02*
Y140377D01*
X175334Y138801D02*
X175337D01*
X180058Y112027D02*
X180059D01*
X179798Y112287D02*
X180058Y112027D01*
X176910D02*
X177170Y112287D01*
X170610Y112025D02*
Y112027D01*
X192658Y137224D02*
Y137225D01*
X170610Y137224D02*
Y137225D01*
X197381Y132501D02*
X197384D01*
X176910Y108877D02*
Y108878D01*
X176911D01*
X172184Y107301D02*
Y107304D01*
X173760Y108875D02*
Y108878D01*
X195807Y112027D02*
X195810D01*
X166412Y113074D02*
X166672Y112814D01*
X209708Y194685D02*
X209958Y194935D01*
X328530Y181702D02*
X328800Y181972D01*
X287323Y174299D02*
X287823Y174799D01*
Y170835D02*
Y171049D01*
D16*
X239200Y23061D02*
D03*
Y43139D02*
D03*
D17*
X264234Y100826D02*
D03*
X257934D02*
D03*
X242184Y97676D02*
D03*
X245334Y103976D02*
D03*
Y100826D02*
D03*
Y97676D02*
D03*
Y110276D02*
D03*
X257934Y126026D02*
D03*
X261084Y91376D02*
D03*
X245334Y119726D02*
D03*
Y91376D02*
D03*
X257934Y116576D02*
D03*
Y88226D02*
D03*
X245334D02*
D03*
X242184Y91376D02*
D03*
X261084Y88226D02*
D03*
X242184D02*
D03*
X261084Y85076D02*
D03*
X242184D02*
D03*
X261084Y81926D02*
D03*
X245334Y85076D02*
D03*
X257934Y97676D02*
D03*
Y85076D02*
D03*
Y91376D02*
D03*
X245334Y81926D02*
D03*
X261084Y116576D02*
D03*
Y119726D02*
D03*
X264234Y126026D02*
D03*
Y129176D02*
D03*
X242184Y116576D02*
D03*
X239034Y119726D02*
D03*
Y126026D02*
D03*
X245334D02*
D03*
X261084Y103976D02*
D03*
Y110276D02*
D03*
X264234D02*
D03*
Y113426D02*
D03*
X242184Y103976D02*
D03*
X239034Y110276D02*
D03*
Y116576D02*
D03*
X264234Y81926D02*
D03*
Y88226D02*
D03*
Y94526D02*
D03*
X239034Y81926D02*
D03*
Y88226D02*
D03*
Y94526D02*
D03*
Y100826D02*
D03*
X257934Y103976D02*
D03*
X242184Y94526D02*
D03*
X245334D02*
D03*
Y113426D02*
D03*
X257934Y122876D02*
D03*
X245334Y107126D02*
D03*
X257934D02*
D03*
X242184Y110276D02*
D03*
X261084Y107126D02*
D03*
X257934Y113426D02*
D03*
X242184D02*
D03*
X261084D02*
D03*
X245334Y116576D02*
D03*
X261084Y126026D02*
D03*
X242184Y122876D02*
D03*
X261084D02*
D03*
X245334D02*
D03*
Y129176D02*
D03*
X257934D02*
D03*
Y119726D02*
D03*
X242184Y129176D02*
D03*
Y81926D02*
D03*
X264234Y97676D02*
D03*
X239034D02*
D03*
X264234Y103976D02*
D03*
X239034D02*
D03*
X257934Y81926D02*
D03*
X261084Y97676D02*
D03*
Y129176D02*
D03*
X264234Y122876D02*
D03*
Y116576D02*
D03*
Y119726D02*
D03*
X239034Y122876D02*
D03*
Y129176D02*
D03*
X242184Y119726D02*
D03*
Y126026D02*
D03*
X264234Y107126D02*
D03*
X261084Y100826D02*
D03*
X257934Y110276D02*
D03*
X239034Y113426D02*
D03*
X242184Y100826D02*
D03*
Y107126D02*
D03*
X264234Y85076D02*
D03*
Y91376D02*
D03*
X239034Y85076D02*
D03*
Y91376D02*
D03*
Y107126D02*
D03*
X261084Y94526D02*
D03*
X257934D02*
D03*
X208405Y96280D02*
D03*
X205256D02*
D03*
X202106D02*
D03*
X198957D02*
D03*
X195807D02*
D03*
X192657D02*
D03*
X189508D02*
D03*
X186358Y96280D02*
D03*
X183209Y96280D02*
D03*
X180059D02*
D03*
X176909D02*
D03*
X173760D02*
D03*
X170610D02*
D03*
X167461Y96280D02*
D03*
X164311D02*
D03*
X161161Y96280D02*
D03*
X158012D02*
D03*
X154862D02*
D03*
X208405Y99429D02*
D03*
X205256D02*
D03*
X202106D02*
D03*
X198957D02*
D03*
X195807D02*
D03*
X192657D02*
D03*
X189508D02*
D03*
X186358D02*
D03*
X183209D02*
D03*
X180059D02*
D03*
X176909D02*
D03*
X173760D02*
D03*
X170610D02*
D03*
X167461D02*
D03*
X164311D02*
D03*
X161161D02*
D03*
X158012D02*
D03*
X154862D02*
D03*
X208405Y102579D02*
D03*
X205256D02*
D03*
X202106D02*
D03*
X198957D02*
D03*
X195807D02*
D03*
X192657D02*
D03*
X189508D02*
D03*
X186358D02*
D03*
X183209D02*
D03*
X180059D02*
D03*
X176909D02*
D03*
X173760D02*
D03*
X170610D02*
D03*
X167461D02*
D03*
X164311D02*
D03*
X161161D02*
D03*
X158012D02*
D03*
X154862D02*
D03*
X208405Y105728D02*
D03*
X205256D02*
D03*
X202106D02*
D03*
X198957D02*
D03*
X195807D02*
D03*
X192657D02*
D03*
X189508D02*
D03*
X186358D02*
D03*
X183209D02*
D03*
X180059D02*
D03*
X176909Y105728D02*
D03*
X173760D02*
D03*
X170610Y105728D02*
D03*
X167461D02*
D03*
X164311D02*
D03*
X161161D02*
D03*
X158012Y105728D02*
D03*
X154862D02*
D03*
X208405Y108878D02*
D03*
X205256D02*
D03*
X202106D02*
D03*
X198957D02*
D03*
X195807D02*
D03*
X192657D02*
D03*
X189508D02*
D03*
X186358D02*
D03*
X183209D02*
D03*
X180059D02*
D03*
X176909Y108878D02*
D03*
X173760Y108878D02*
D03*
X170610D02*
D03*
X167461D02*
D03*
X164311D02*
D03*
X161161D02*
D03*
X158012D02*
D03*
X154862Y108878D02*
D03*
X208405Y112028D02*
D03*
X205256D02*
D03*
X202106D02*
D03*
X198957D02*
D03*
X195807D02*
D03*
X192657D02*
D03*
X189508D02*
D03*
X186358D02*
D03*
X183209D02*
D03*
X180059D02*
D03*
X176909D02*
D03*
X173760D02*
D03*
X170610D02*
D03*
X167461D02*
D03*
X164311D02*
D03*
X161161D02*
D03*
X158012D02*
D03*
X154862D02*
D03*
X208405Y115177D02*
D03*
X205256D02*
D03*
X202106D02*
D03*
X198957D02*
D03*
X195807D02*
D03*
X192657D02*
D03*
X189508D02*
D03*
X186358Y115177D02*
D03*
X183209D02*
D03*
X180059Y115177D02*
D03*
X176909D02*
D03*
X173760D02*
D03*
X170610D02*
D03*
X167461Y115177D02*
D03*
X164311D02*
D03*
X161161Y115177D02*
D03*
X158012D02*
D03*
X154862D02*
D03*
X208405Y118327D02*
D03*
X205256D02*
D03*
X202106D02*
D03*
X198957D02*
D03*
X195807D02*
D03*
X192657D02*
D03*
X189508D02*
D03*
X186358D02*
D03*
X183209D02*
D03*
X180059D02*
D03*
X176909D02*
D03*
X173760D02*
D03*
X170610D02*
D03*
X167461D02*
D03*
X164311D02*
D03*
X161161D02*
D03*
X158012D02*
D03*
X154862D02*
D03*
X208405Y121476D02*
D03*
X205256D02*
D03*
X202106D02*
D03*
X198957D02*
D03*
X195807D02*
D03*
X192657D02*
D03*
X189508D02*
D03*
X186358D02*
D03*
X183209D02*
D03*
X180059D02*
D03*
X176909D02*
D03*
X173760D02*
D03*
X170610D02*
D03*
X167461D02*
D03*
X164311D02*
D03*
X161161D02*
D03*
X158012D02*
D03*
X154862D02*
D03*
X208405Y124626D02*
D03*
X205256D02*
D03*
X202106D02*
D03*
X198957D02*
D03*
X195807D02*
D03*
X192657D02*
D03*
X189508D02*
D03*
X186358D02*
D03*
X183209D02*
D03*
X180059D02*
D03*
X176909D02*
D03*
X173760D02*
D03*
X170610D02*
D03*
X167461D02*
D03*
X164311D02*
D03*
X161161D02*
D03*
X158012D02*
D03*
X154862D02*
D03*
X208405Y127776D02*
D03*
X205256D02*
D03*
X202106D02*
D03*
X198957D02*
D03*
X195807D02*
D03*
X192657D02*
D03*
X189508D02*
D03*
X186358D02*
D03*
X183209D02*
D03*
X180059D02*
D03*
X176909D02*
D03*
X173760D02*
D03*
X170610D02*
D03*
X167461D02*
D03*
X164311D02*
D03*
X161161D02*
D03*
X158012D02*
D03*
X154862D02*
D03*
X208405Y130925D02*
D03*
X205256D02*
D03*
X202106D02*
D03*
X198957D02*
D03*
X195807D02*
D03*
X192657D02*
D03*
X189508D02*
D03*
X186358D02*
D03*
X183209D02*
D03*
X180059D02*
D03*
X176909D02*
D03*
X173760D02*
D03*
X170610D02*
D03*
X167461D02*
D03*
X164311D02*
D03*
X161161D02*
D03*
X158012D02*
D03*
X154862D02*
D03*
X208405Y134075D02*
D03*
X205256D02*
D03*
X202106D02*
D03*
X198957D02*
D03*
X195807D02*
D03*
X192657D02*
D03*
X189508D02*
D03*
X186358D02*
D03*
X183209D02*
D03*
X180059D02*
D03*
X176909D02*
D03*
X173760D02*
D03*
X170610D02*
D03*
X167461D02*
D03*
X164311D02*
D03*
X161161D02*
D03*
X158012D02*
D03*
X154862D02*
D03*
X208405Y137224D02*
D03*
X205256D02*
D03*
X202106D02*
D03*
X198957D02*
D03*
X195807D02*
D03*
X192657D02*
D03*
X189508D02*
D03*
X186358D02*
D03*
X183209D02*
D03*
X180059D02*
D03*
X176909D02*
D03*
X173760D02*
D03*
X170610D02*
D03*
X167461D02*
D03*
X164311D02*
D03*
X161161D02*
D03*
X158012D02*
D03*
X154862D02*
D03*
X208405Y140374D02*
D03*
X205256D02*
D03*
X202106D02*
D03*
X198957D02*
D03*
X195807D02*
D03*
X192657D02*
D03*
X189508D02*
D03*
X186358D02*
D03*
X183209D02*
D03*
X180059D02*
D03*
X176909D02*
D03*
X173760D02*
D03*
X170610D02*
D03*
X167461D02*
D03*
X164311D02*
D03*
X161161D02*
D03*
X158012D02*
D03*
X154862D02*
D03*
X208405Y143524D02*
D03*
X205256D02*
D03*
X202106D02*
D03*
X198957D02*
D03*
X195807D02*
D03*
X192657D02*
D03*
X189508D02*
D03*
X186358D02*
D03*
X183209D02*
D03*
X180059D02*
D03*
X176909Y143524D02*
D03*
X173760D02*
D03*
X170610Y143524D02*
D03*
X167461D02*
D03*
X164311D02*
D03*
X161161D02*
D03*
X158012Y143524D02*
D03*
X154862D02*
D03*
X208405Y146673D02*
D03*
X205256D02*
D03*
X202106D02*
D03*
X198957D02*
D03*
X195807D02*
D03*
X192657Y146673D02*
D03*
X189508Y146673D02*
D03*
X186358D02*
D03*
X183209D02*
D03*
X180059D02*
D03*
X176909Y146673D02*
D03*
X173760D02*
D03*
X170610D02*
D03*
X167461Y146673D02*
D03*
X164311D02*
D03*
X161161Y146673D02*
D03*
X158012D02*
D03*
X154862D02*
D03*
X208405Y149823D02*
D03*
X205256D02*
D03*
X202106D02*
D03*
X198957D02*
D03*
X195807D02*
D03*
X192657D02*
D03*
X189508D02*
D03*
X186358D02*
D03*
X183209D02*
D03*
X180059D02*
D03*
X176909D02*
D03*
X173760D02*
D03*
X170610D02*
D03*
X167461D02*
D03*
X164311D02*
D03*
X161161D02*
D03*
X158012D02*
D03*
X154862D02*
D03*
D18*
X92110Y121169D02*
D03*
X94079D02*
D03*
X96047D02*
D03*
X98016D02*
D03*
X99984D02*
D03*
X101953D02*
D03*
X103921D02*
D03*
X105890D02*
D03*
Y139831D02*
D03*
X103921D02*
D03*
X101953D02*
D03*
X99984D02*
D03*
X98016D02*
D03*
X96047D02*
D03*
X94079D02*
D03*
X92110D02*
D03*
D19*
X108331Y123610D02*
D03*
Y125579D02*
D03*
Y127547D02*
D03*
Y129516D02*
D03*
Y131484D02*
D03*
Y133453D02*
D03*
Y135421D02*
D03*
Y137390D02*
D03*
X89669D02*
D03*
Y135421D02*
D03*
Y133453D02*
D03*
Y131484D02*
D03*
Y129516D02*
D03*
Y127547D02*
D03*
Y125579D02*
D03*
Y123610D02*
D03*
D20*
X99000Y130500D02*
D03*
D21*
X124121Y185695D02*
D03*
Y167979D02*
D03*
X110342Y183727D02*
D03*
Y181758D02*
D03*
X106405Y162073D02*
D03*
Y164042D02*
D03*
Y166010D02*
D03*
X110342Y173884D02*
D03*
Y171916D02*
D03*
Y169947D02*
D03*
Y167979D02*
D03*
Y166010D02*
D03*
X131995Y185695D02*
D03*
X110342Y164042D02*
D03*
Y162073D02*
D03*
Y160105D02*
D03*
X108373Y185695D02*
D03*
X106405Y167979D02*
D03*
X108373Y181758D02*
D03*
X106405Y160105D02*
D03*
X116247Y164042D02*
D03*
X108373Y173884D02*
D03*
Y171916D02*
D03*
X124121Y164042D02*
D03*
X108373Y169947D02*
D03*
X124121Y177821D02*
D03*
X108373Y175853D02*
D03*
X114279D02*
D03*
X124121Y162073D02*
D03*
Y160105D02*
D03*
X122153Y185695D02*
D03*
Y183727D02*
D03*
Y181758D02*
D03*
X131995Y169947D02*
D03*
X130027Y160105D02*
D03*
X124121Y183727D02*
D03*
X128058Y160105D02*
D03*
Y162073D02*
D03*
Y164042D02*
D03*
Y166010D02*
D03*
X122153Y167979D02*
D03*
X128058D02*
D03*
X122153Y164042D02*
D03*
Y162073D02*
D03*
Y160105D02*
D03*
X128058Y169947D02*
D03*
X124121Y181758D02*
D03*
X128058Y171916D02*
D03*
Y173884D02*
D03*
Y177821D02*
D03*
Y181758D02*
D03*
Y185695D02*
D03*
X126090Y160105D02*
D03*
Y162073D02*
D03*
Y164042D02*
D03*
Y179790D02*
D03*
Y181758D02*
D03*
X131995Y183727D02*
D03*
X120184Y164042D02*
D03*
Y162073D02*
D03*
Y160105D02*
D03*
X118216Y185695D02*
D03*
Y183727D02*
D03*
Y181758D02*
D03*
X126090Y183727D02*
D03*
X118216Y177821D02*
D03*
X126090Y185695D02*
D03*
X130027Y162073D02*
D03*
X131995Y175853D02*
D03*
X130027Y164042D02*
D03*
Y166010D02*
D03*
Y167979D02*
D03*
Y169947D02*
D03*
X118216Y164042D02*
D03*
Y162073D02*
D03*
Y160105D02*
D03*
X116247Y185695D02*
D03*
Y183727D02*
D03*
Y181758D02*
D03*
X131995Y173884D02*
D03*
X116247Y177821D02*
D03*
X106405Y171916D02*
D03*
Y169947D02*
D03*
Y173884D02*
D03*
Y183727D02*
D03*
Y185695D02*
D03*
X108373Y160105D02*
D03*
Y162073D02*
D03*
Y164042D02*
D03*
X116247Y162073D02*
D03*
X131995Y171916D02*
D03*
X116247Y160105D02*
D03*
X114279Y185695D02*
D03*
Y183727D02*
D03*
Y181758D02*
D03*
X130027Y171916D02*
D03*
X108373Y167979D02*
D03*
Y166010D02*
D03*
X114279Y173884D02*
D03*
X120184Y167979D02*
D03*
Y181758D02*
D03*
X124121Y171916D02*
D03*
X114279Y167979D02*
D03*
X120184Y183727D02*
D03*
X114279Y164042D02*
D03*
Y162073D02*
D03*
Y160105D02*
D03*
X112310Y185695D02*
D03*
Y183727D02*
D03*
Y181758D02*
D03*
X120184Y185695D02*
D03*
X130027Y173884D02*
D03*
X124121Y169947D02*
D03*
X130027Y185695D02*
D03*
X131995Y160105D02*
D03*
Y162073D02*
D03*
Y164042D02*
D03*
Y166010D02*
D03*
Y167979D02*
D03*
X112310Y164042D02*
D03*
Y162073D02*
D03*
Y160105D02*
D03*
X110342Y185695D02*
D03*
X128058Y179790D02*
D03*
X108373Y177821D02*
D03*
Y183727D02*
D03*
X120184Y177821D02*
D03*
X106405Y175853D02*
D03*
Y179790D02*
D03*
X124121Y173884D02*
D03*
X118216Y167979D02*
D03*
X114279Y171916D02*
D03*
X122153Y177821D02*
D03*
X124121Y175853D02*
D03*
X128058D02*
D03*
X108373Y179790D02*
D03*
X110342D02*
D03*
X106405Y177821D02*
D03*
Y181758D02*
D03*
X116247Y167979D02*
D03*
X114279Y169947D02*
D03*
X131995Y177821D02*
D03*
X130027Y183727D02*
D03*
X110342Y177821D02*
D03*
X131995Y181758D02*
D03*
Y179790D02*
D03*
X114279Y177821D02*
D03*
X128058Y183727D02*
D03*
X110342Y175853D02*
D03*
X130027Y181758D02*
D03*
Y179790D02*
D03*
Y177821D02*
D03*
Y175853D02*
D03*
D22*
X272700Y194646D02*
D03*
Y191181D02*
D03*
X205771Y194646D02*
D03*
Y191181D02*
D03*
X344600Y159132D02*
D03*
Y155668D02*
D03*
X188500Y12432D02*
D03*
Y8968D02*
D03*
X109500Y91768D02*
D03*
Y95232D02*
D03*
X179134Y76568D02*
D03*
Y80032D02*
D03*
X167323Y76567D02*
D03*
Y80032D02*
D03*
X175259Y76568D02*
D03*
Y80032D02*
D03*
X171260Y76568D02*
D03*
Y80032D02*
D03*
X136500Y39268D02*
D03*
Y42732D02*
D03*
X287323Y170835D02*
D03*
Y174300D02*
D03*
D23*
X91536Y109831D02*
D03*
X106496D02*
D03*
D24*
X207723Y51873D02*
D03*
Y73527D02*
D03*
X198077Y51873D02*
D03*
Y73527D02*
D03*
D25*
X283529Y202550D02*
D03*
X299671D02*
D03*
Y208850D02*
D03*
X283529D02*
D03*
X38779Y220472D02*
D03*
X54921D02*
D03*
Y226772D02*
D03*
X38779D02*
D03*
Y195275D02*
D03*
X54921D02*
D03*
Y201575D02*
D03*
X38779D02*
D03*
D26*
X328300Y177928D02*
D03*
Y181472D02*
D03*
X340737Y174228D02*
D03*
Y177772D02*
D03*
X337000Y140372D02*
D03*
Y136828D02*
D03*
X340737Y140372D02*
D03*
Y136828D02*
D03*
X344400Y140372D02*
D03*
Y136828D02*
D03*
X344800Y174228D02*
D03*
Y177772D02*
D03*
X336600Y174228D02*
D03*
Y177772D02*
D03*
X268763Y194685D02*
D03*
Y191142D02*
D03*
X264826Y194685D02*
D03*
Y191142D02*
D03*
X260889Y194685D02*
D03*
Y191142D02*
D03*
X256952Y194685D02*
D03*
Y191142D02*
D03*
X253015Y194685D02*
D03*
Y191142D02*
D03*
X249078Y194685D02*
D03*
Y191142D02*
D03*
X245141Y194685D02*
D03*
Y191142D02*
D03*
X241204Y194685D02*
D03*
Y191142D02*
D03*
X237267Y194685D02*
D03*
Y191142D02*
D03*
X233330Y194685D02*
D03*
Y191142D02*
D03*
X229393Y194685D02*
D03*
Y191142D02*
D03*
X217582Y194685D02*
D03*
Y191142D02*
D03*
X225456Y194685D02*
D03*
Y191142D02*
D03*
X221519Y194685D02*
D03*
Y191142D02*
D03*
X209708Y194685D02*
D03*
Y191142D02*
D03*
X213645Y194685D02*
D03*
Y191142D02*
D03*
X276637Y191142D02*
D03*
Y194685D02*
D03*
X146500Y79772D02*
D03*
Y76228D02*
D03*
X183800Y53228D02*
D03*
Y56772D02*
D03*
X146500Y39228D02*
D03*
Y42772D02*
D03*
Y67772D02*
D03*
Y64228D02*
D03*
Y57272D02*
D03*
Y53728D02*
D03*
X106000Y95272D02*
D03*
Y91728D02*
D03*
X102500Y95272D02*
D03*
Y91728D02*
D03*
D27*
X123472Y136700D02*
D03*
X119928D02*
D03*
X123472Y110800D02*
D03*
X119928D02*
D03*
X123472Y133000D02*
D03*
X119928D02*
D03*
X123472Y129300D02*
D03*
X119928D02*
D03*
X123472Y125600D02*
D03*
X119928D02*
D03*
X123472Y121900D02*
D03*
X119928D02*
D03*
X123472Y118200D02*
D03*
X119928D02*
D03*
X123472Y114500D02*
D03*
X119928D02*
D03*
X119928Y140400D02*
D03*
X123472D02*
D03*
X134628Y117500D02*
D03*
X138172D02*
D03*
X178972Y83500D02*
D03*
X175428D02*
D03*
X34772Y75500D02*
D03*
X31228D02*
D03*
X43228D02*
D03*
X46772D02*
D03*
X60728Y70500D02*
D03*
X64272D02*
D03*
X43228D02*
D03*
X46772D02*
D03*
X43228Y80500D02*
D03*
X46772D02*
D03*
D28*
X64544Y182064D02*
D03*
Y186000D02*
D03*
Y184032D02*
D03*
X68000D02*
D03*
Y182064D02*
D03*
Y186000D02*
D03*
D29*
X153541Y180431D02*
D03*
X158659D02*
D03*
Y171769D02*
D03*
X156100D02*
D03*
X153541D02*
D03*
D30*
X79287Y76661D02*
D03*
Y75087D02*
D03*
Y73512D02*
D03*
Y71937D02*
D03*
Y70362D02*
D03*
Y68787D02*
D03*
Y67213D02*
D03*
Y65638D02*
D03*
Y64063D02*
D03*
Y62488D02*
D03*
Y60913D02*
D03*
Y59339D02*
D03*
X102713D02*
D03*
Y60913D02*
D03*
Y62488D02*
D03*
Y64063D02*
D03*
Y65638D02*
D03*
Y67213D02*
D03*
Y68787D02*
D03*
Y70362D02*
D03*
Y71937D02*
D03*
Y73512D02*
D03*
Y75087D02*
D03*
Y76661D02*
D03*
D31*
X82339Y56287D02*
D03*
X83913D02*
D03*
X85488D02*
D03*
X87063D02*
D03*
X88638D02*
D03*
X90213D02*
D03*
X91787D02*
D03*
X93362D02*
D03*
X94937D02*
D03*
X96512D02*
D03*
X98087D02*
D03*
X99661D02*
D03*
Y79713D02*
D03*
X98087D02*
D03*
X96512D02*
D03*
X94937D02*
D03*
X93362D02*
D03*
X91787D02*
D03*
X90213D02*
D03*
X88638D02*
D03*
X87063D02*
D03*
X85488D02*
D03*
X83913D02*
D03*
X82339D02*
D03*
D32*
X91000Y68000D02*
D03*
D33*
X14250Y70500D02*
D03*
X20750D02*
D03*
D34*
X336737Y161182D02*
D03*
Y153111D02*
D03*
X124000Y62965D02*
D03*
Y71035D02*
D03*
X219600Y66935D02*
D03*
Y58865D02*
D03*
X114000Y62965D02*
D03*
Y71035D02*
D03*
X54500Y79535D02*
D03*
Y71465D02*
D03*
D35*
X60768Y77000D02*
D03*
X64232D02*
D03*
X31268Y80500D02*
D03*
X34732D02*
D03*
X64232D02*
D03*
X60768D02*
D03*
X60768Y84000D02*
D03*
X64232D02*
D03*
D36*
X104035Y43000D02*
D03*
X95965D02*
D03*
X80965D02*
D03*
X89035D02*
D03*
D38*
X131634Y125551D02*
D03*
X83000Y85500D02*
D03*
X75000Y80500D02*
D03*
Y84000D02*
D03*
X71400Y78400D02*
D03*
X131634Y88051D02*
D03*
X129134D02*
D03*
X106000Y84700D02*
D03*
X143684Y92551D02*
D03*
Y95051D02*
D03*
X209634Y88051D02*
D03*
X126500Y98000D02*
D03*
X163000Y47196D02*
D03*
X158000Y50100D02*
D03*
Y47200D02*
D03*
X136500Y53500D02*
D03*
X95400Y143300D02*
D03*
X98016D02*
D03*
X101953D02*
D03*
X92800D02*
D03*
X265809Y99251D02*
D03*
X243759Y102401D02*
D03*
Y96101D02*
D03*
X259509Y127601D02*
D03*
X262659Y89801D02*
D03*
X243759D02*
D03*
X259509Y118151D02*
D03*
Y86651D02*
D03*
X243759D02*
D03*
X240609Y89801D02*
D03*
X262659Y86651D02*
D03*
X240609D02*
D03*
X262659Y83501D02*
D03*
X240609D02*
D03*
X262659Y80351D02*
D03*
X243759Y83501D02*
D03*
X259509Y96101D02*
D03*
Y83501D02*
D03*
Y89801D02*
D03*
X243759Y80351D02*
D03*
X262659Y118151D02*
D03*
Y121301D02*
D03*
X265809Y127601D02*
D03*
X240609Y118151D02*
D03*
X237459Y127601D02*
D03*
X243759D02*
D03*
X262659Y102401D02*
D03*
Y111851D02*
D03*
X265809D02*
D03*
X240609Y102401D02*
D03*
Y115001D02*
D03*
X265809Y80351D02*
D03*
Y86651D02*
D03*
Y92951D02*
D03*
X237459Y80351D02*
D03*
Y86651D02*
D03*
Y92951D02*
D03*
Y99251D02*
D03*
X240609Y92951D02*
D03*
X243759D02*
D03*
X259509Y124451D02*
D03*
Y108701D02*
D03*
X262659D02*
D03*
X259509Y115001D02*
D03*
X262659D02*
D03*
X246909Y118151D02*
D03*
X262659Y127601D02*
D03*
X240609Y124451D02*
D03*
X262659D02*
D03*
X259509Y130751D02*
D03*
X240609Y80351D02*
D03*
X259509D02*
D03*
X262659Y96101D02*
D03*
Y130751D02*
D03*
X265809Y124451D02*
D03*
Y118151D02*
D03*
Y121301D02*
D03*
X237459Y124451D02*
D03*
Y130751D02*
D03*
X243759Y118151D02*
D03*
X240609Y127601D02*
D03*
X265809Y108701D02*
D03*
X262659Y99251D02*
D03*
X259509Y111851D02*
D03*
X237459Y115001D02*
D03*
X240609Y99251D02*
D03*
Y108701D02*
D03*
X265809Y83501D02*
D03*
Y89801D02*
D03*
X237459Y83501D02*
D03*
Y89801D02*
D03*
Y108701D02*
D03*
X262659Y92951D02*
D03*
X240609Y130751D02*
D03*
X243759Y99252D02*
D03*
Y124449D02*
D03*
X226631Y83501D02*
D03*
X197381Y141951D02*
D03*
X131700Y104300D02*
D03*
X128000Y108100D02*
D03*
X223100Y53632D02*
D03*
X226100D02*
D03*
Y50632D02*
D03*
X184784Y110450D02*
D03*
X112000Y136505D02*
D03*
Y140000D02*
D03*
X91168Y118000D02*
D03*
X96100D02*
D03*
X93600D02*
D03*
X116500Y104300D02*
D03*
X109200Y188049D02*
D03*
X104200D02*
D03*
X99200D02*
D03*
X94200D02*
D03*
X194134Y197600D02*
D03*
X184134D02*
D03*
X174134D02*
D03*
X129000D02*
D03*
X116600D02*
D03*
X109200D02*
D03*
X104200D02*
D03*
X99200D02*
D03*
X94200D02*
D03*
X169134D02*
D03*
X119000Y83000D02*
D03*
Y80000D02*
D03*
Y77000D02*
D03*
X75000Y71000D02*
D03*
X179159Y182073D02*
D03*
X189134D02*
D03*
X194134Y188049D02*
D03*
X174134D02*
D03*
X184134D02*
D03*
X189134D02*
D03*
X179134D02*
D03*
X169134D02*
D03*
X153541Y176100D02*
D03*
X158659D02*
D03*
X101600Y167900D02*
D03*
X92600Y165000D02*
D03*
Y180700D02*
D03*
X175400Y41800D02*
D03*
X136500Y46000D02*
D03*
X140800Y32600D02*
D03*
X136500D02*
D03*
X168600Y41800D02*
D03*
X163000Y50196D02*
D03*
Y54196D02*
D03*
X182300Y64000D02*
D03*
X175400D02*
D03*
X172700D02*
D03*
X179134D02*
D03*
X182000Y80032D02*
D03*
X179134Y70500D02*
D03*
Y73500D02*
D03*
X191600Y78051D02*
D03*
X191634Y80400D02*
D03*
X195384D02*
D03*
X200416Y66561D02*
D03*
X205384D02*
D03*
X208648D02*
D03*
X199100Y78051D02*
D03*
X206634Y78051D02*
D03*
X202884Y78051D02*
D03*
X200547Y158051D02*
D03*
X194232D02*
D03*
X187925D02*
D03*
X107000Y71600D02*
D03*
X75000Y66500D02*
D03*
X158000Y59200D02*
D03*
X143500D02*
D03*
Y61700D02*
D03*
X158000Y75200D02*
D03*
Y72200D02*
D03*
Y66000D02*
D03*
X172884Y90551D02*
D03*
X126500Y93500D02*
D03*
X136700Y167900D02*
D03*
X143600Y78900D02*
D03*
X272700Y197638D02*
D03*
X268763D02*
D03*
X264826D02*
D03*
X260889D02*
D03*
X256952D02*
D03*
X253015D02*
D03*
X249078D02*
D03*
X245141D02*
D03*
X241204D02*
D03*
X237267D02*
D03*
X233330D02*
D03*
X229393D02*
D03*
X225456D02*
D03*
X221519D02*
D03*
X217582D02*
D03*
X213645D02*
D03*
X209708D02*
D03*
X205771D02*
D03*
X50000Y62800D02*
D03*
X75000Y91300D02*
D03*
X91400Y83500D02*
D03*
X96512D02*
D03*
X93362Y85500D02*
D03*
X106000Y87900D02*
D03*
X128000Y105600D02*
D03*
X112000Y147800D02*
D03*
X116500D02*
D03*
Y144100D02*
D03*
X126600Y147800D02*
D03*
Y144100D02*
D03*
Y154301D02*
D03*
X159587Y123051D02*
D03*
X162736D02*
D03*
X197382Y97854D02*
D03*
X200532D02*
D03*
X203681D02*
D03*
X169035D02*
D03*
X162736D02*
D03*
X159587D02*
D03*
Y145098D02*
D03*
X162736D02*
D03*
X165886D02*
D03*
X169035D02*
D03*
X172185D02*
D03*
X175335D02*
D03*
X178484D02*
D03*
X184783D02*
D03*
X187933D02*
D03*
X191083D02*
D03*
X194232D02*
D03*
X197382D02*
D03*
X200532D02*
D03*
X203681D02*
D03*
Y141949D02*
D03*
X200532D02*
D03*
X191083D02*
D03*
X187933D02*
D03*
X184783D02*
D03*
X203681Y138799D02*
D03*
X200532D02*
D03*
X197382D02*
D03*
X194232D02*
D03*
X191083D02*
D03*
X184783D02*
D03*
X203681Y135650D02*
D03*
X200532D02*
D03*
X191083D02*
D03*
X184783D02*
D03*
X203681Y132500D02*
D03*
X200532D02*
D03*
X191083D02*
D03*
X184783D02*
D03*
X197382D02*
D03*
X203681Y129350D02*
D03*
X200532D02*
D03*
X191083D02*
D03*
X187933D02*
D03*
X184783D02*
D03*
X203681Y126201D02*
D03*
X200532D02*
D03*
X197382D02*
D03*
X194232D02*
D03*
X187933D02*
D03*
X184783D02*
D03*
X203681Y119902D02*
D03*
X200532D02*
D03*
X197382D02*
D03*
X194232D02*
D03*
X191083D02*
D03*
X187933D02*
D03*
X184783D02*
D03*
X203681Y116752D02*
D03*
X200532D02*
D03*
X191083D02*
D03*
X187933D02*
D03*
X184783D02*
D03*
X203681Y113602D02*
D03*
X200532D02*
D03*
X197382D02*
D03*
X194232D02*
D03*
X191083D02*
D03*
X184783D02*
D03*
X203681Y110453D02*
D03*
X200532D02*
D03*
X191083D02*
D03*
X184783D02*
D03*
X203681Y107303D02*
D03*
X200532D02*
D03*
X194232D02*
D03*
X191083D02*
D03*
X187933D02*
D03*
X200532Y104154D02*
D03*
X197382D02*
D03*
X194232D02*
D03*
X191083D02*
D03*
X187933D02*
D03*
X184783D02*
D03*
X203681Y101004D02*
D03*
X200532D02*
D03*
X197382D02*
D03*
X194232D02*
D03*
X191083D02*
D03*
X187933D02*
D03*
X184783D02*
D03*
X178484Y141949D02*
D03*
X169035D02*
D03*
X165886D02*
D03*
X162736D02*
D03*
X159587D02*
D03*
X178484Y138799D02*
D03*
X175335D02*
D03*
X172185D02*
D03*
X169035D02*
D03*
X165886D02*
D03*
X162736D02*
D03*
X159587D02*
D03*
X178484Y135650D02*
D03*
X162736D02*
D03*
X159587D02*
D03*
X178484Y132500D02*
D03*
X172185D02*
D03*
X169035D02*
D03*
X165886D02*
D03*
X178484Y129350D02*
D03*
X175335D02*
D03*
X172185D02*
D03*
X162736D02*
D03*
X178484Y126201D02*
D03*
X175335D02*
D03*
X172185D02*
D03*
X169035D02*
D03*
X165886D02*
D03*
X162736D02*
D03*
X159587D02*
D03*
X172185Y141949D02*
D03*
X178484Y119902D02*
D03*
X175335D02*
D03*
X172185D02*
D03*
X169035D02*
D03*
X165886D02*
D03*
X159587D02*
D03*
X178484Y116752D02*
D03*
X175335D02*
D03*
X172185D02*
D03*
X162736D02*
D03*
X159587D02*
D03*
X172185Y113602D02*
D03*
X169035D02*
D03*
X165886D02*
D03*
X162736D02*
D03*
X159587D02*
D03*
X178484Y110453D02*
D03*
X172185D02*
D03*
X162736D02*
D03*
X178484Y107303D02*
D03*
X175335D02*
D03*
X172185D02*
D03*
X165886D02*
D03*
X162736D02*
D03*
X159587D02*
D03*
X175335Y104154D02*
D03*
X172185D02*
D03*
X165886D02*
D03*
X162736D02*
D03*
X159587D02*
D03*
X178484Y101004D02*
D03*
X175335D02*
D03*
X172185D02*
D03*
X169035D02*
D03*
X165886D02*
D03*
X162736D02*
D03*
X159587D02*
D03*
X156437Y138799D02*
D03*
Y132500D02*
D03*
X153287Y94705D02*
D03*
X159587D02*
D03*
X162736D02*
D03*
X169035D02*
D03*
X210768Y129350D02*
D03*
X169035Y107303D02*
D03*
X233634Y102051D02*
D03*
X226634Y89801D02*
D03*
Y83501D02*
D03*
X226600Y86600D02*
D03*
X146634Y113602D02*
D03*
X156437D02*
D03*
X146634Y122551D02*
D03*
X159587Y129350D02*
D03*
X153287Y132500D02*
D03*
X209600Y80400D02*
D03*
X219634Y77051D02*
D03*
Y74051D02*
D03*
Y70301D02*
D03*
X168634Y70500D02*
D03*
Y73500D02*
D03*
X181634Y158051D02*
D03*
X178486D02*
D03*
X175384Y165051D02*
D03*
X178484Y104154D02*
D03*
X155134Y85551D02*
D03*
X336600Y181000D02*
D03*
X344800D02*
D03*
X340737D02*
D03*
X337900Y132900D02*
D03*
X340737D02*
D03*
X346300D02*
D03*
X261700Y74500D02*
D03*
X275922D02*
D03*
X112000Y118300D02*
D03*
Y121900D02*
D03*
X116500Y110800D02*
D03*
Y136700D02*
D03*
Y114500D02*
D03*
Y118200D02*
D03*
Y121900D02*
D03*
Y125600D02*
D03*
Y133000D02*
D03*
Y129300D02*
D03*
X112000Y133000D02*
D03*
Y129516D02*
D03*
X101300Y149300D02*
D03*
X84500Y148400D02*
D03*
X126600Y114500D02*
D03*
Y110800D02*
D03*
Y118200D02*
D03*
Y125600D02*
D03*
Y129300D02*
D03*
Y133000D02*
D03*
Y140400D02*
D03*
Y136700D02*
D03*
X151634Y138551D02*
D03*
X131634Y115801D02*
D03*
X146634Y105728D02*
D03*
X226634Y119903D02*
D03*
X226634Y115001D02*
D03*
X213634Y92551D02*
D03*
X247244Y136083D02*
D03*
X249606Y134508D02*
D03*
X226634Y96551D02*
D03*
X222634Y130751D02*
D03*
Y72051D02*
D03*
X226634Y124451D02*
D03*
Y130751D02*
D03*
Y99251D02*
D03*
Y108701D02*
D03*
X229634Y102051D02*
D03*
X222634Y134551D02*
D03*
Y126051D02*
D03*
X217582Y188189D02*
D03*
X213645D02*
D03*
X209708D02*
D03*
X205771D02*
D03*
X264826D02*
D03*
X268763D02*
D03*
X260889D02*
D03*
X256952D02*
D03*
X272700D02*
D03*
X213634Y108878D02*
D03*
Y99051D02*
D03*
Y95051D02*
D03*
Y113601D02*
D03*
X181634Y153551D02*
D03*
X208406Y152551D02*
D03*
X146634Y138551D02*
D03*
X151634Y149823D02*
D03*
X131400Y147800D02*
D03*
X129534Y154301D02*
D03*
X141600Y141551D02*
D03*
X184784Y126201D02*
D03*
X146634Y129351D02*
D03*
X131634Y112551D02*
D03*
X208406Y93551D02*
D03*
X153284Y94701D02*
D03*
X143634Y85551D02*
D03*
X213634Y129351D02*
D03*
X187884Y90551D02*
D03*
X195384D02*
D03*
X203684Y126201D02*
D03*
X213634Y126199D02*
D03*
X200534Y126201D02*
D03*
X194234D02*
D03*
X187933D02*
D03*
X191084Y110451D02*
D03*
X141634Y115801D02*
D03*
Y112801D02*
D03*
X144034Y149801D02*
D03*
X146634Y156051D02*
D03*
X131400Y139051D02*
D03*
Y141551D02*
D03*
X182134Y90551D02*
D03*
X149134Y138551D02*
D03*
X146634Y145051D02*
D03*
X131634Y85051D02*
D03*
X129134D02*
D03*
X146634Y149801D02*
D03*
Y119903D02*
D03*
X147134Y85551D02*
D03*
X146634Y153051D02*
D03*
X141600Y147800D02*
D03*
X144084Y153051D02*
D03*
Y156051D02*
D03*
X141634Y129301D02*
D03*
X141600Y139051D02*
D03*
X141634Y125551D02*
D03*
X159134Y87551D02*
D03*
X197384Y126201D02*
D03*
X209634Y85051D02*
D03*
X106000Y98000D02*
D03*
X86000Y85500D02*
D03*
X253284Y80379D02*
D03*
X249780Y91403D02*
D03*
X84500Y141000D02*
D03*
Y138000D02*
D03*
X75500Y141000D02*
D03*
X100000Y118000D02*
D03*
X103500D02*
D03*
X99016Y114331D02*
D03*
X115500Y89000D02*
D03*
X111516Y108831D02*
D03*
Y111831D02*
D03*
X86516Y108831D02*
D03*
Y111831D02*
D03*
X181634Y123051D02*
D03*
X197382Y107303D02*
D03*
X275922Y108726D02*
D03*
Y94553D02*
D03*
Y130773D02*
D03*
Y124474D02*
D03*
Y118175D02*
D03*
Y104002D02*
D03*
Y99277D02*
D03*
Y89828D02*
D03*
Y83529D02*
D03*
X118500Y56000D02*
D03*
Y49000D02*
D03*
X112500Y74500D02*
D03*
X115500D02*
D03*
X119000D02*
D03*
X112500Y59500D02*
D03*
X115500D02*
D03*
X109500Y56000D02*
D03*
X107000D02*
D03*
Y58500D02*
D03*
Y61000D02*
D03*
Y63500D02*
D03*
X89000Y85500D02*
D03*
X80000Y83500D02*
D03*
X126500Y88000D02*
D03*
X143500Y36000D02*
D03*
Y41000D02*
D03*
X136500Y51000D02*
D03*
X143500D02*
D03*
X136500Y56000D02*
D03*
Y66000D02*
D03*
Y71000D02*
D03*
X143500Y66000D02*
D03*
Y71000D02*
D03*
X102500Y98000D02*
D03*
X91500D02*
D03*
X96000Y52500D02*
D03*
X88000D02*
D03*
X82500D02*
D03*
X107000Y78600D02*
D03*
Y80500D02*
D03*
X96900Y38500D02*
D03*
X95000D02*
D03*
X104900Y47500D02*
D03*
X102000D02*
D03*
X98000D02*
D03*
X95100D02*
D03*
X89900D02*
D03*
X87000D02*
D03*
X89900Y38500D02*
D03*
X87000D02*
D03*
X83000D02*
D03*
X80100D02*
D03*
X83000Y47500D02*
D03*
X80100D02*
D03*
X75000Y56500D02*
D03*
Y76500D02*
D03*
X72500Y68787D02*
D03*
Y64063D02*
D03*
X50000Y71500D02*
D03*
X54500Y84000D02*
D03*
X37500Y80500D02*
D03*
X24500Y70500D02*
D03*
X14500Y76000D02*
D03*
X37500Y75500D02*
D03*
Y70500D02*
D03*
X28500Y75500D02*
D03*
Y70500D02*
D03*
X84500Y118500D02*
D03*
Y122500D02*
D03*
Y126500D02*
D03*
Y130500D02*
D03*
Y134500D02*
D03*
X75500Y118500D02*
D03*
Y122500D02*
D03*
Y126500D02*
D03*
Y130500D02*
D03*
Y134500D02*
D03*
X24272Y126500D02*
D03*
Y123600D02*
D03*
X43500Y137500D02*
D03*
Y142500D02*
D03*
X17000Y117500D02*
D03*
X43500Y132500D02*
D03*
Y127500D02*
D03*
Y117500D02*
D03*
D68*
X134634Y146051D02*
X141634Y139051D01*
X122634Y146051D02*
X134634D01*
X146284Y147551D02*
X147134D01*
X144034Y149801D02*
X146284Y147551D01*
X83000Y85500D02*
X85488Y83012D01*
X64232Y80500D02*
X75000D01*
X76433D01*
X75000Y84000D02*
X79287Y79713D01*
X64232Y84000D02*
X75000D01*
X133208Y86125D02*
Y93625D01*
X134634Y85051D02*
Y93051D01*
X129134Y88051D02*
X131134Y90051D01*
X133208Y93625D02*
X135634Y96051D01*
X132634Y83051D02*
X134634Y85051D01*
X132134D02*
X133208Y86125D01*
X134634Y93051D02*
X136634Y95051D01*
X131634Y85051D02*
X132134D01*
X106000Y84700D02*
Y84800D01*
X102500Y88300D02*
X106000Y84800D01*
X102500Y88300D02*
Y91728D01*
X158000Y50100D02*
X160200D01*
X162300Y52200D02*
X164000D01*
X160200Y50100D02*
X162300Y52200D01*
X136500Y53500D02*
X136728Y53728D01*
X146500D01*
X95400Y143300D02*
X96047Y142653D01*
X98016Y143300D02*
X98016Y143300D01*
X101953Y143300D02*
X101953Y143300D01*
X98016Y139831D02*
Y143300D01*
X96047Y139831D02*
Y142653D01*
X91200Y142400D02*
Y145000D01*
Y142400D02*
X92110Y141490D01*
X92800Y143300D02*
X94079Y142021D01*
X264234Y100826D02*
X265809Y99251D01*
X243759Y102401D02*
X245334Y103976D01*
X243759Y96101D02*
X245334Y97676D01*
X257934Y126026D02*
X259509Y127601D01*
X261084Y91376D02*
X262659Y89801D01*
X243759D02*
X245334Y91376D01*
X257934Y116576D02*
X259509Y118151D01*
X257934Y88226D02*
X259509Y86651D01*
X243759D02*
X245334Y88226D01*
X240609Y89801D02*
X242184Y91376D01*
X261084Y88226D02*
X262659Y86651D01*
X240609D02*
X242184Y88226D01*
X261084Y85076D02*
X262659Y83501D01*
X240609D02*
X242184Y85076D01*
X261084Y81926D02*
X262659Y80351D01*
X243759Y83501D02*
X245334Y85076D01*
X257934Y97676D02*
X259509Y96101D01*
X257934Y85076D02*
X259509Y83501D01*
X257934Y91376D02*
X259509Y89801D01*
X243759Y80351D02*
X245334Y81926D01*
X237459Y99251D02*
X239034Y100826D01*
X240609Y92951D02*
X242184Y94526D01*
X243759Y92951D02*
X245334Y94526D01*
X257934Y122876D02*
X259509Y124451D01*
X257934Y107126D02*
X259509Y108701D01*
X261084Y107126D02*
X262659Y108701D01*
X257934Y113426D02*
X259509Y115001D01*
X261084Y113426D02*
X262659Y115001D01*
X245334Y116576D02*
X246909Y118151D01*
X261084Y126026D02*
X262659Y127601D01*
X240609Y124451D02*
X242184Y122876D01*
X261084D02*
X262659Y124451D01*
X257934Y129176D02*
X259509Y130751D01*
X240609Y80351D02*
X242184Y81926D01*
X257934D02*
X259509Y80351D01*
X261084Y97676D02*
X262659Y96101D01*
X237459Y108701D02*
X239034Y107126D01*
X261084Y94526D02*
X262659Y92951D01*
X240609Y130751D02*
X242184Y129176D01*
X243759Y99252D02*
X245334Y100827D01*
X243759Y124449D02*
X245334Y122874D01*
X158012Y121476D02*
X159587Y123051D01*
X158012Y121476D02*
X158012Y121476D01*
X129934Y106051D02*
X134334D01*
X129634Y107251D02*
X129934Y107551D01*
X129634Y106351D02*
Y107251D01*
Y106351D02*
X129934Y106051D01*
Y107551D02*
X132834D01*
X110916Y135421D02*
X112000Y136505D01*
X110800Y138200D02*
X113200D01*
X109990Y137390D02*
X110800Y138200D01*
X108331Y137390D02*
X109990D01*
X96047Y118053D02*
X96100Y118000D01*
X98016Y116884D02*
Y121169D01*
X93600Y118000D02*
X94079Y118479D01*
X175400Y41800D02*
Y59800D01*
X168600Y41800D02*
Y59085D01*
X166500Y52500D02*
Y59185D01*
X164196Y50196D02*
X166500Y52500D01*
X166634Y61051D02*
Y71051D01*
X163000Y50196D02*
X164196D01*
X166634Y61051D02*
X168600Y59085D01*
X164634Y73051D02*
X166634Y71051D01*
X175400Y59800D02*
X177300Y61700D01*
Y68666D01*
X179134Y70500D01*
X165634Y60051D02*
X166500Y59185D01*
X164134Y59551D02*
X165200Y58485D01*
Y53400D02*
Y58485D01*
X164134Y59551D02*
Y69426D01*
X165634Y60051D02*
Y70301D01*
X164000Y52200D02*
X165200Y53400D01*
X162634Y54562D02*
X163000Y54196D01*
X199100Y78051D02*
X199134Y78085D01*
Y81551D01*
X198077Y73527D02*
X199100Y74550D01*
Y78051D01*
X206634Y74616D02*
X207723Y73527D01*
X206634Y74616D02*
Y78051D01*
X161162Y127776D02*
Y127779D01*
Y127775D02*
Y127776D01*
X162736Y129350D01*
X161161Y127775D02*
X161162Y127776D01*
X173134Y88551D02*
X175634Y91051D01*
X169133Y88551D02*
X173134D01*
X169629Y87551D02*
X173634D01*
X170134Y86551D02*
X174134D01*
X165634Y82051D02*
X170134Y86551D01*
X173634Y87551D02*
X176634Y90551D01*
X174134Y86551D02*
X177634Y90051D01*
X106000Y144300D02*
X116500D01*
X114249Y145800D02*
X116500Y148051D01*
X130027Y175853D02*
X131011Y176837D01*
X130027Y177821D02*
X131011Y178806D01*
X130027Y179790D02*
X131011Y180774D01*
X130027Y181758D02*
X131011Y182743D01*
X128058Y183727D02*
X129043Y184711D01*
X130027Y183727D02*
X131011Y184711D01*
X107389D02*
X108373Y183727D01*
X143600Y78900D02*
X144472Y79772D01*
X146500D01*
X143457Y76228D02*
X146500D01*
X141634Y78051D02*
X143457Y76228D01*
X47300Y62800D02*
X50000D01*
X43228Y66872D02*
X47300Y62800D01*
X43228Y66872D02*
Y70500D01*
X106000Y87900D02*
Y91728D01*
X90536Y108831D02*
X91536Y109831D01*
X86516Y108831D02*
X90536D01*
X106496Y109831D02*
X107496Y108831D01*
X111516D01*
X105890Y121169D02*
X108931D01*
X110000Y120100D01*
X114600D01*
X116500Y118200D01*
X103921Y142221D02*
X106000Y144300D01*
X103921Y139831D02*
Y142221D01*
X106551Y142551D02*
X127634D01*
X105890Y141890D02*
X106551Y142551D01*
X105890Y139831D02*
Y141890D01*
X127634Y142551D02*
X129634Y144551D01*
X101500Y145800D02*
X114249D01*
X99984Y144284D02*
X101500Y145800D01*
X110949Y147000D02*
X112000Y148051D01*
X93200Y147000D02*
X110949D01*
X91200Y145000D02*
X93200Y147000D01*
X99984Y139831D02*
Y144284D01*
X101953Y139831D02*
Y143300D01*
X92110Y139831D02*
Y141490D01*
X87200Y138700D02*
X88400Y137500D01*
X87200Y138700D02*
Y142500D01*
X86400Y143300D02*
X87200Y142500D01*
X81300Y143300D02*
X86400D01*
X80200Y144400D02*
X81300Y143300D01*
X80200Y144400D02*
Y149900D01*
X81400Y151100D01*
X117585D01*
X122634Y146051D01*
X164311Y124626D02*
X165886Y126201D01*
X162736Y126201D02*
X164311Y127776D01*
X159586Y119901D02*
X161161Y121476D01*
X159586Y116752D02*
X161161Y118327D01*
X159586Y113602D02*
X161161Y115177D01*
X162736Y113602D02*
X164311Y115177D01*
X162736Y110453D02*
X164311Y112028D01*
X162736Y107303D02*
X164311Y108878D01*
X159586Y107303D02*
X161161Y108878D01*
X159586Y104153D02*
X161161Y105728D01*
X162736Y104153D02*
X164311Y105728D01*
X165886Y104153D02*
X167461Y105728D01*
X172185Y104153D02*
X173760Y105728D01*
X175334Y104153D02*
X176909Y105728D01*
X178484Y101004D02*
X180059Y102579D01*
X175334Y101004D02*
X176909Y102579D01*
X172185Y101004D02*
X173760Y102579D01*
X169035Y101004D02*
X170610Y102579D01*
X165886Y101004D02*
X167461Y102579D01*
X162736Y101004D02*
X164311Y102579D01*
X159586Y101004D02*
X161161Y102579D01*
X159586Y97854D02*
X161161Y99429D01*
X162736Y97854D02*
X164311Y99429D01*
X169035Y97854D02*
X170610Y99429D01*
X169035Y94705D02*
X170610Y96280D01*
X162736Y94705D02*
X164311Y96280D01*
X159586Y94705D02*
X161161Y96280D01*
X202106Y124626D02*
X203681Y126201D01*
X198957Y124626D02*
X200532Y126201D01*
X202106Y127775D02*
X203681Y129350D01*
X198957Y127775D02*
X200532Y129350D01*
X202106Y130925D02*
X203681Y132500D01*
X198957Y130925D02*
X200532Y132500D01*
X202106Y134075D02*
X203681Y135650D01*
X198957Y134075D02*
X200532Y135650D01*
X202106Y137224D02*
X203681Y138799D01*
X198957Y137224D02*
X200532Y138799D01*
X202106Y140374D02*
X203681Y141949D01*
X198957Y140374D02*
X200532Y141949D01*
X189508Y140374D02*
X191083Y141949D01*
X186358Y140374D02*
X187933Y141949D01*
X183209Y140374D02*
X184783Y141949D01*
X202106Y143524D02*
X203681Y145098D01*
X198957Y143524D02*
X200532Y145098D01*
X195807Y143524D02*
X197382Y145098D01*
X192657Y143524D02*
X194232Y145098D01*
X189508Y143524D02*
X191083Y145098D01*
X186358Y143524D02*
X187933Y145098D01*
X183209Y143524D02*
X184783Y145098D01*
X183209Y105728D02*
X184784Y104153D01*
X183209Y102579D02*
X184784Y101004D01*
X186358Y102579D02*
X187933Y101004D01*
X189508Y102579D02*
X191083Y101004D01*
X192657Y102579D02*
X194232Y101004D01*
X195807Y102579D02*
X197382Y101004D01*
X198957Y102579D02*
X200532Y101004D01*
X202106Y102579D02*
X203681Y101004D01*
X195807Y99429D02*
X197382Y97854D01*
X198957Y99429D02*
X200532Y97854D01*
X202106Y99429D02*
X203681Y97854D01*
X195807Y105728D02*
X197382Y104153D01*
X198957Y105728D02*
X200532Y104153D01*
X198957Y108878D02*
X200532Y107303D01*
X202106Y108878D02*
X203681Y107303D01*
X202106Y112028D02*
X203681Y110453D01*
X198957Y112028D02*
X200532Y110453D01*
X198957Y115177D02*
X200532Y113602D01*
X202106Y115177D02*
X203681Y113602D01*
X202106Y118327D02*
X203681Y116752D01*
X198957Y118327D02*
X200532Y116752D01*
X198957Y121476D02*
X200532Y119901D01*
X162736Y123051D02*
X164311Y121476D01*
X159587Y126201D02*
X161162Y124626D01*
X159587Y145098D02*
X161162Y143524D01*
X156437Y138799D02*
X158012Y137224D01*
X162736Y138799D02*
X164311Y137224D01*
X159587Y138799D02*
X161162Y137224D01*
X172185Y141949D02*
X173760Y140374D01*
X169035Y141949D02*
X170610Y140374D01*
X165886Y141949D02*
X167461Y140374D01*
X178484Y145098D02*
X180059Y143524D01*
X175335Y145098D02*
X176910Y143524D01*
X172185Y145098D02*
X173760Y143524D01*
X169035Y145098D02*
X170610Y143524D01*
X165886Y145098D02*
X167461Y143524D01*
X162736Y145098D02*
X164311Y143524D01*
X159583Y132501D02*
X161161Y130925D01*
X156437Y132500D02*
X159587D01*
X169035Y107303D02*
X170610Y105728D01*
X233634Y102051D02*
Y105551D01*
X226634Y93551D02*
X227134Y93051D01*
X230634D01*
X231134Y92551D01*
Y90551D02*
Y92551D01*
X230634Y90051D02*
X231134Y90551D01*
X230134Y90051D02*
X230634D01*
X229634Y89551D02*
X230134Y90051D01*
X229634Y88551D02*
Y89551D01*
Y88551D02*
X230134Y88051D01*
X230634D01*
X231134Y87551D01*
Y86551D02*
Y87551D01*
X230634Y86051D02*
X231134Y86551D01*
X228708Y86051D02*
X230634D01*
X228346Y86413D02*
X228708Y86051D01*
X228346Y86413D02*
Y91413D01*
X227708Y92051D02*
X228346Y91413D01*
X225134Y92051D02*
X227708D01*
X224634Y91551D02*
X225134Y92051D01*
X225060Y93469D02*
Y103551D01*
X224642Y93051D02*
X225060Y93469D01*
X224052Y93051D02*
X224642D01*
X220634Y85551D02*
X227634Y78551D01*
X226600Y86600D02*
X228649Y84551D01*
X232634Y79051D02*
Y93551D01*
X224634Y86051D02*
Y91551D01*
X224134Y85551D02*
X224634Y86051D01*
X222634Y85551D02*
X224134D01*
X145460Y124125D02*
X148062D01*
X145060Y123725D02*
X145460Y124125D01*
X145060Y119877D02*
Y123725D01*
X144085Y120902D02*
Y123626D01*
X143734Y123977D02*
X144085Y123626D01*
X141634Y125551D02*
X148209D01*
X143208Y123977D02*
X143734D01*
X142808Y123577D02*
X143208Y123977D01*
X143134Y126551D02*
X143734D01*
X144734Y127551D01*
X145734D01*
X146734Y126551D01*
X147808D01*
X148062Y124125D02*
X149134Y123053D01*
X142134Y127551D02*
X143134Y126551D01*
X142408Y121551D02*
X142808Y121951D01*
Y123577D01*
X147808Y126551D02*
X148208Y126951D01*
X128634Y119551D02*
X144734D01*
X145060Y119877D01*
X148209Y125551D02*
X149134Y124626D01*
X148208Y126951D02*
Y129225D01*
X131134Y90051D02*
Y93551D01*
X130134Y91551D02*
Y94551D01*
X126634Y88051D02*
X130134Y91551D01*
Y94551D02*
X133634Y98051D01*
X131134Y93551D02*
X134634Y97051D01*
X163647Y72288D02*
X165634Y70301D01*
X164634Y73051D02*
Y82556D01*
X165634Y74051D02*
Y82051D01*
Y74051D02*
X166634Y73051D01*
X168634D01*
X162272Y71288D02*
X164134Y69426D01*
X160634Y70551D02*
X162634Y68551D01*
Y54562D02*
Y68551D01*
X145272Y67772D02*
X146500D01*
X143500Y66000D02*
X145272Y67772D01*
X180059Y156476D02*
X181634Y158051D01*
X180059Y156476D02*
X180059D01*
X178485Y101003D02*
X178532Y101051D01*
X178484Y101001D02*
X178485Y101003D01*
X155134Y85551D02*
Y87051D01*
Y73551D02*
Y85551D01*
X153560Y73125D02*
Y86977D01*
X152585Y72600D02*
Y87502D01*
X151610Y72075D02*
Y88027D01*
X150634Y71551D02*
Y88551D01*
X156435Y94352D01*
X152585Y87502D02*
X157634Y92551D01*
X155134Y87051D02*
X158134Y90051D01*
X153560Y86977D02*
X158134Y91551D01*
X151610Y88027D02*
X158010Y94427D01*
X169109Y88526D02*
X169133Y88551D01*
X164634Y82556D02*
X169629Y87551D01*
X163647Y83064D02*
X169109Y88526D01*
X177634Y90051D02*
Y92551D01*
X175634Y91051D02*
Y93551D01*
X176634Y90551D02*
Y93051D01*
X127760Y116300D02*
X128208Y116748D01*
X114000Y116300D02*
X127760D01*
X112000Y118300D02*
X114000Y116300D01*
X112000Y116600D02*
X114100Y114500D01*
X107100Y116600D02*
X112000D01*
X116500Y114500D02*
X119928D01*
X114100D02*
X116500D01*
X114790Y123610D02*
X116500Y121900D01*
X108331Y123610D02*
X114790D01*
X116479Y125579D02*
X116500Y125600D01*
X108331Y125579D02*
X116479D01*
X114747Y127547D02*
X116500Y129300D01*
X108331Y127547D02*
X114747D01*
X111600Y115700D02*
X116500Y110800D01*
X102300Y115700D02*
X111600D01*
X100000Y118000D02*
X102300Y115700D01*
X103921Y119779D02*
X107100Y116600D01*
X103921Y119779D02*
Y121169D01*
X115400Y140400D02*
X119928D01*
X113200Y138200D02*
X115400Y140400D01*
X119928Y136328D02*
Y136700D01*
X118500Y134900D02*
X119928Y136328D01*
X113900Y134900D02*
X118500D01*
X112000Y133000D02*
X113900Y134900D01*
X119928Y110800D02*
Y114500D01*
X116500Y118200D02*
X119928D01*
Y120528D02*
Y121900D01*
X119500Y120100D02*
X119928Y120528D01*
X117000Y120100D02*
X119500D01*
X116500Y120600D02*
X117000Y120100D01*
X116500Y120600D02*
Y121900D01*
X119928Y124228D02*
Y125600D01*
X119500Y123800D02*
X119928Y124228D01*
X117000Y123800D02*
X119500D01*
X116500Y124300D02*
X117000Y123800D01*
X116500Y124300D02*
Y125600D01*
Y128000D02*
Y129300D01*
Y128000D02*
X117000Y127500D01*
X119500D01*
X119928Y127928D01*
Y129300D01*
X116500Y131600D02*
Y133000D01*
Y131600D02*
X116900Y131200D01*
X119500D01*
X119928Y131628D01*
Y133000D01*
X111558Y133453D02*
X112000Y133010D01*
X108331Y133453D02*
X111558D01*
X108331Y135421D02*
X110916D01*
X86016Y131484D02*
X89669D01*
X84500Y133000D02*
X86016Y131484D01*
X84500Y133000D02*
Y134500D01*
X86300Y137200D02*
X88079Y135421D01*
X86300Y137200D02*
Y139200D01*
X88079Y135421D02*
X89669D01*
X84500Y141000D02*
X86300Y139200D01*
X86900Y122900D02*
X87610Y123610D01*
X86900Y120900D02*
Y122900D01*
X84500Y118500D02*
X86900Y120900D01*
X87610Y123610D02*
X89669D01*
X156435Y94352D02*
Y97852D01*
X123472Y114500D02*
X126600D01*
Y114335D02*
Y114500D01*
Y114335D02*
X127384Y113551D01*
X123472Y118200D02*
Y118472D01*
X125551Y120551D01*
X123472Y121900D02*
Y122989D01*
X124034Y123551D01*
X125234D01*
X125634Y123151D01*
Y122201D02*
Y123151D01*
Y122201D02*
X126034Y121801D01*
X126734D01*
X127134Y122201D01*
Y123651D01*
X127534Y124051D01*
X123472Y125600D02*
X126600D01*
Y127985D02*
Y129300D01*
Y127985D02*
X127034Y127551D01*
X123472Y129300D02*
Y129572D01*
X126600Y132700D01*
Y133000D01*
X123472D02*
Y133272D01*
X125251Y135051D01*
X128759D01*
X128334Y113551D02*
X128634Y113851D01*
X127384Y113551D02*
X128334D01*
X119928Y140072D02*
Y140400D01*
Y140072D02*
X121326Y138674D01*
X127511D01*
X123472Y136700D02*
X126600D01*
X99016Y114331D02*
Y115884D01*
X98016Y116884D02*
X99016Y115884D01*
X94079Y139831D02*
Y142021D01*
X203682Y116753D02*
X203684Y116751D01*
X202161Y118272D02*
X203682Y116753D01*
X202106Y118327D02*
X202161Y118272D01*
X228649Y84551D02*
X230634D01*
X243761Y121299D02*
X245334Y119726D01*
X237882Y121299D02*
X243761D01*
X247244Y136083D02*
X247713Y136551D01*
X251134D01*
X242184Y110276D02*
X243771Y108689D01*
X214095Y90051D02*
X214747D01*
X213634Y90512D02*
Y92551D01*
Y90512D02*
X214095Y90051D01*
X214747D02*
X215208Y90512D01*
Y96477D01*
X206829Y135648D02*
X221537D01*
X205256Y134075D02*
X206829Y135648D01*
X217634Y137051D02*
X226134D01*
X243771Y108689D02*
X251272D01*
X240597Y96089D02*
X242184Y97676D01*
X236434Y96089D02*
X240597D01*
X236134Y96389D02*
X236434Y96089D01*
X236134Y96389D02*
Y97751D01*
X235834Y98051D02*
X236134Y97751D01*
X234934Y98051D02*
X235834D01*
X234634Y97751D02*
X234934Y98051D01*
X234634Y95551D02*
Y97751D01*
Y95551D02*
X235634Y94551D01*
Y80551D02*
Y94551D01*
X235134Y80051D02*
X235634Y80551D01*
X234609Y80051D02*
X235134D01*
X234109Y80551D02*
X234609Y80051D01*
X234109Y80551D02*
Y94051D01*
X233134Y95026D02*
X234109Y94051D01*
X233134Y95026D02*
Y99751D01*
X233434Y100051D01*
X235334D01*
X235634Y100351D01*
Y105551D01*
X229384Y111801D02*
X235634Y105551D01*
X224884Y111801D02*
X229384D01*
X216782Y119903D02*
X224884Y111801D01*
X216134Y112027D02*
X217134Y111027D01*
Y108051D02*
Y111027D01*
Y108051D02*
X219634Y105551D01*
X221634D01*
X222134Y105051D01*
Y86051D02*
Y105051D01*
Y86051D02*
X222634Y85551D01*
X226634Y93551D02*
Y96551D01*
X235634Y119051D02*
X237882Y121299D01*
X229134Y119051D02*
X235634D01*
X228634Y119551D02*
X229134Y119051D01*
X228634Y119551D02*
Y120551D01*
X229134Y121051D01*
X235134D01*
X235634Y121551D01*
Y122551D01*
X235134Y123051D02*
X235634Y122551D01*
X229134Y123051D02*
X235134D01*
X228634Y123551D02*
X229134Y123051D01*
X228634Y123551D02*
Y124551D01*
X229134Y125051D01*
X235134D01*
X235634Y125551D01*
Y126551D01*
X235134Y127051D02*
X235634Y126551D01*
X225134Y127051D02*
X235134D01*
X224634Y126551D02*
X225134Y127051D01*
X224634Y123551D02*
Y126551D01*
X224134Y123051D02*
X224634Y123551D01*
X219183Y132502D02*
X220934Y130751D01*
X222634D01*
X216358Y118327D02*
X224384Y110301D01*
X228884D01*
X233634Y105551D01*
X222634Y72051D02*
X224134Y73551D01*
Y75051D01*
X214731Y110454D02*
X215634Y109551D01*
Y107051D02*
Y109551D01*
Y107051D02*
X220634Y102051D01*
Y85551D02*
Y102051D01*
X227634Y78551D02*
X230634D01*
X231134Y79051D01*
Y84051D01*
X230634Y84551D02*
X231134Y84051D01*
X214634Y97051D02*
X215208Y96477D01*
X215507Y115178D02*
X218634Y112051D01*
Y108551D02*
Y112051D01*
Y108551D02*
X220134Y107051D01*
X222634D01*
X223634Y106051D01*
Y93469D02*
Y106051D01*
Y93469D02*
X224052Y93051D01*
X225060Y103551D02*
X225486Y103977D01*
X227208D01*
X227634Y103551D01*
Y101051D02*
Y103551D01*
Y101051D02*
X228208Y100477D01*
Y95051D02*
Y100477D01*
Y95051D02*
X228708Y94551D01*
X229634D01*
X230134Y95051D01*
Y101551D01*
X229634Y102051D02*
X230134Y101551D01*
X245334Y107126D02*
X251709D01*
X254634Y110051D01*
Y133051D01*
X251134Y136551D02*
X254634Y133051D01*
X251272Y108689D02*
X253134Y110551D01*
Y131051D01*
X249634Y134551D02*
X253134Y131051D01*
X242184Y113426D02*
X243761Y115003D01*
X245634D01*
X245644Y115013D02*
X247571D01*
X248609Y116051D01*
Y128576D01*
X242634Y134551D02*
X248609Y128576D01*
X242634Y134551D02*
Y138551D01*
X242134Y139051D02*
X242634Y138551D01*
X217634Y139051D02*
X242134D01*
X217134Y138551D02*
X217634Y139051D01*
X217134Y137551D02*
Y138551D01*
Y137551D02*
X217634Y137051D01*
X226134D02*
X226634Y136551D01*
Y133051D02*
Y136551D01*
X226134Y132551D02*
X226634Y133051D01*
X221634Y132551D02*
X226134D01*
X220110Y134075D02*
X221634Y132551D01*
X221537Y135648D02*
X222634Y134551D01*
X221208Y124625D02*
X222634Y126051D01*
X237959Y136551D02*
X245334Y129176D01*
X230134Y136551D02*
X237959D01*
X229634Y136051D02*
X230134Y136551D01*
X229634Y135051D02*
Y136051D01*
Y135051D02*
X230134Y134551D01*
X235134D01*
X235634Y134051D01*
Y133051D02*
Y134051D01*
X235134Y132551D02*
X235634Y133051D01*
X230134Y132551D02*
X235134D01*
X229634Y132051D02*
X230134Y132551D01*
X229634Y131051D02*
Y132051D01*
Y131051D02*
X230134Y130551D01*
X235134D01*
X235634Y130051D01*
Y129051D02*
Y130051D01*
X235134Y128551D02*
X235634Y129051D01*
X221134Y128551D02*
X235134D01*
X220634Y128051D02*
X221134Y128551D01*
X220634Y127051D02*
Y128051D01*
X220134Y126551D02*
X220634Y127051D01*
X216134Y126551D02*
X220134D01*
X215634Y127051D02*
X216134Y126551D01*
X215634Y127051D02*
Y128551D01*
X216134Y129051D01*
X217634D01*
X218134Y129551D01*
Y130426D01*
X217634Y130926D02*
X218134Y130426D01*
X217209Y121476D02*
X225384Y113301D01*
X233384D01*
X235384Y111301D01*
Y107801D02*
Y111301D01*
Y107801D02*
X237634Y105551D01*
X246634D01*
X247134Y105051D01*
Y99551D02*
Y105051D01*
Y99551D02*
X247634Y99051D01*
X249634D01*
X256134Y105551D01*
Y117926D01*
X257934Y119726D01*
X238809Y78551D02*
X240609Y80351D01*
X233134Y78551D02*
X238809D01*
X232634Y79051D02*
X233134Y78551D01*
X231634Y94551D02*
X232634Y93551D01*
X231634Y94551D02*
Y105051D01*
X229560Y107125D02*
X231634Y105051D01*
X225060Y107125D02*
X229560D01*
X223634Y108551D02*
X225060Y107125D01*
X221134Y108551D02*
X223634D01*
X220134Y109551D02*
X221134Y108551D01*
X220134Y109551D02*
Y112551D01*
X215931Y116754D02*
X220134Y112551D01*
X216634Y84551D02*
Y100051D01*
Y84551D02*
X226634Y74551D01*
X253134D01*
X255634Y77051D01*
Y92226D01*
X132808Y114227D02*
X133208Y113827D01*
X128634Y113851D02*
Y114751D01*
X129934Y110477D02*
X132808D01*
X133208Y110877D01*
Y113827D01*
X128634Y114751D02*
X128934Y115051D01*
X130058D02*
X130882Y114227D01*
X128934Y115051D02*
X130058D01*
X130882Y114227D02*
X132808D01*
X129634Y109351D02*
X129934Y109051D01*
X163647Y72288D02*
Y83064D01*
X175634Y93551D02*
X176910Y94827D01*
Y96279D01*
X206832Y119903D02*
X216782D01*
X205256Y118327D02*
X206832Y119903D01*
X176634Y93051D02*
X178486Y94903D01*
Y97856D01*
X180059Y99429D01*
Y94976D02*
Y96279D01*
X177634Y92551D02*
X180059Y94976D01*
X208406Y112027D02*
X216134D01*
X205256Y98489D02*
Y99429D01*
Y98489D02*
X206819Y96926D01*
Y90551D02*
Y96926D01*
Y90551D02*
X207319Y90051D01*
X210134D01*
X212134Y88051D01*
Y84551D02*
Y88051D01*
Y84551D02*
X219634Y77051D01*
X208406Y108878D02*
X213634D01*
X180059Y149823D02*
Y156476D01*
X176910Y146673D02*
X178486Y148249D01*
Y158051D01*
X197134Y83551D02*
X199134Y81551D01*
X197134Y83551D02*
Y91803D01*
X192658Y96279D02*
X197134Y91803D01*
X198957Y94228D02*
Y96279D01*
Y94228D02*
X199884Y93301D01*
Y84801D02*
Y93301D01*
Y84801D02*
X206634Y78051D01*
X191085Y97856D02*
X192658Y99429D01*
X191085Y95300D02*
Y97856D01*
Y95300D02*
X192634Y93751D01*
Y88551D02*
Y93751D01*
X190060Y85977D02*
X192634Y88551D01*
X190060Y47625D02*
Y85977D01*
X187931Y97852D02*
X189508Y99429D01*
X187931Y95454D02*
Y97852D01*
Y95454D02*
X190634Y92751D01*
Y89551D02*
Y92751D01*
X188110Y87027D02*
X190634Y89551D01*
X188110Y45575D02*
Y87027D01*
X189508Y95377D02*
Y96279D01*
Y95377D02*
X191659Y93226D01*
Y89076D02*
Y93226D01*
X189085Y86502D02*
X191659Y89076D01*
X189085Y46600D02*
Y86502D01*
X186358Y102577D02*
Y102579D01*
X184785Y97856D02*
X186358Y99429D01*
X184785Y95400D02*
Y97856D01*
Y95400D02*
X186134Y94051D01*
Y43551D02*
Y94051D01*
X206831Y123051D02*
X224134D01*
X205256Y121476D02*
X206831Y123051D01*
X205256Y130925D02*
X206833Y132502D01*
X219183D01*
X208406Y118327D02*
X216358D01*
X213134Y86051D02*
X224134Y75051D01*
X213134Y86051D02*
Y89051D01*
X210134Y92051D02*
X213134Y89051D01*
X210134Y92051D02*
Y96761D01*
X209029Y97866D02*
X210134Y96761D01*
X207759Y97866D02*
X209029D01*
X206819Y98806D02*
X207759Y97866D01*
X206819Y98806D02*
Y101016D01*
X205256Y102579D02*
X206819Y101016D01*
X208406Y99429D02*
X209256D01*
X211634Y97051D01*
Y95551D02*
Y97051D01*
Y95551D02*
X212134Y95051D01*
X213634D01*
X205256Y108878D02*
X206832Y110454D01*
X214731D01*
X213408Y97051D02*
X214634D01*
X210634Y99825D02*
X213408Y97051D01*
X210634Y99825D02*
Y100351D01*
X208406Y102579D02*
X210634Y100351D01*
X213631Y113604D02*
X213634Y113601D01*
X206833Y113604D02*
X213631D01*
X205256Y112027D02*
X206833Y113604D01*
X208406Y115177D02*
X212981D01*
X212982Y115178D01*
X215507D01*
X184784Y104151D02*
Y104153D01*
X181634Y94051D02*
Y97854D01*
X181134Y93551D02*
X181634Y94051D01*
X156439Y101006D02*
X158012Y102579D01*
X154089Y101006D02*
X156439D01*
X148634Y95551D02*
X154089Y101006D01*
X148634Y90051D02*
Y95551D01*
X145634Y87051D02*
X148634Y90051D01*
X145134Y87051D02*
X145634D01*
X143634Y85551D02*
X145134Y87051D01*
X172634Y151051D02*
Y184051D01*
X172197Y150614D02*
X172634Y151051D01*
X172197Y148236D02*
Y150614D01*
Y148236D02*
X173760Y146673D01*
X171634Y152051D02*
Y183051D01*
X170610Y151027D02*
X171634Y152051D01*
X170610Y149823D02*
Y151027D01*
X170608Y153051D02*
Y182077D01*
X169037Y151480D02*
X170608Y153051D01*
X169037Y148246D02*
Y151480D01*
Y148246D02*
X170610Y146673D01*
X183433Y153124D02*
Y159752D01*
X181634Y151325D02*
X183433Y153124D01*
X181634Y148248D02*
Y151325D01*
X180059Y146673D02*
X181634Y148248D01*
X176910Y102577D02*
Y102579D01*
X208406Y134075D02*
X220110D01*
X175347Y97866D02*
X176910Y99429D01*
X175347Y95330D02*
Y97866D01*
X170430Y90413D02*
X175347Y95330D01*
X168996Y90413D02*
X170430D01*
X162272Y83689D02*
X168996Y90413D01*
X162272Y71288D02*
Y83689D01*
X173760Y95677D02*
Y96279D01*
X172510Y94427D02*
X173760Y95677D01*
X172499Y94427D02*
X172510D01*
X169860Y91788D02*
X172499Y94427D01*
X168371Y91788D02*
X169860D01*
X160634Y84051D02*
X168371Y91788D01*
X160634Y70551D02*
Y84051D01*
X158134Y91551D02*
X162134D01*
X165884Y95301D01*
Y97852D01*
X167461Y99429D01*
X205256Y124626D02*
X206829Y126199D01*
X213634D01*
X208406Y124626D02*
X208407Y124625D01*
X221208D01*
X208406Y130925D02*
X217634D01*
X208406Y121476D02*
X217209D01*
X129634Y144551D02*
X133134D01*
X140634Y137051D01*
X142134D01*
X146134Y133051D01*
X150134D01*
X152634Y130551D01*
X154488D01*
X154862Y130925D01*
X173760Y149823D02*
Y185051D01*
X192658Y149823D02*
Y159075D01*
X195807Y102578D02*
Y102579D01*
X156439Y145096D02*
X158012Y143523D01*
X149589Y145096D02*
X156439D01*
X147134Y147551D02*
X149589Y145096D01*
X146634Y156051D02*
X148634Y154051D01*
Y149551D02*
Y154051D01*
Y149551D02*
X149939Y148246D01*
X155499D01*
X157072Y146673D01*
X158012D01*
X206833Y116754D02*
X215931D01*
X205256Y115177D02*
X206833Y116754D01*
X166859Y95677D02*
X167461Y96279D01*
X166859Y94276D02*
Y95677D01*
X162634Y90051D02*
X166859Y94276D01*
X158134Y90051D02*
X162634D01*
X187134Y44551D02*
Y87551D01*
X189634Y90051D01*
Y92051D01*
X186358Y95327D02*
X189634Y92051D01*
X186358Y95327D02*
Y96279D01*
X164311Y149823D02*
Y151374D01*
X159634Y156051D02*
X164311Y151374D01*
X184784Y101001D02*
Y101004D01*
X162735Y148249D02*
X164311Y146673D01*
X162735Y148249D02*
Y151450D01*
X159134Y155051D02*
X162735Y151450D01*
X156634Y155051D02*
X159134D01*
X149134Y162551D02*
X156634Y155051D01*
X148634Y161551D02*
X156109Y154076D01*
X158609D01*
X161162Y151523D01*
Y149823D02*
Y151523D01*
X158010Y94427D02*
Y95353D01*
X158012Y95355D01*
Y96279D01*
X156435Y97852D02*
X158012Y99429D01*
X153760Y115177D02*
X154862D01*
X148134Y109551D02*
X153760Y115177D01*
X141134Y109551D02*
X148134D01*
X134634Y103051D02*
X141134Y109551D01*
X134634Y97051D02*
Y103051D01*
X156439Y116750D02*
X158012Y115177D01*
X153833Y116750D02*
X156439D01*
X147634Y110551D02*
X153833Y116750D01*
X140634Y110551D02*
X147634D01*
X133634Y103551D02*
X140634Y110551D01*
X133634Y98051D02*
Y103551D01*
X135634Y96051D02*
Y102551D01*
X141658Y108575D01*
X148658D01*
X152110Y112027D01*
X154862D01*
X156426Y110441D02*
X158012Y112027D01*
X151975Y110441D02*
X156426D01*
X149134Y107600D02*
X151975Y110441D01*
X142183Y107600D02*
X149134D01*
X136634Y102051D02*
X142183Y107600D01*
X136634Y95051D02*
Y102051D01*
X131134Y83051D02*
X132634D01*
X129134Y85051D02*
X131134Y83051D01*
X202106Y96279D02*
X204134Y94251D01*
Y85551D02*
Y94251D01*
X205256Y89429D02*
Y96279D01*
Y89429D02*
X207634Y87051D01*
Y84051D02*
Y87051D01*
Y84051D02*
X209134Y82551D01*
X128759Y135051D02*
X129159Y134651D01*
Y128155D02*
Y134651D01*
Y128155D02*
X131634Y125680D01*
Y125551D02*
Y125680D01*
X164309Y121476D02*
X164311D01*
X149762Y146673D02*
X154862D01*
X146634Y149801D02*
X149762Y146673D01*
X156436Y119903D02*
X158012Y118327D01*
X146634Y119903D02*
X156436D01*
X156439Y129352D02*
X158012Y130925D01*
X152333Y129352D02*
X156439D01*
X149634Y132051D02*
X152333Y129352D01*
X145634Y132051D02*
X149634D01*
X141634Y136051D02*
X145634Y132051D01*
X140134Y136051D02*
X141634D01*
X133060Y143125D02*
X140134Y136051D01*
X130208Y143125D02*
X133060D01*
X128634Y141551D02*
X130208Y143125D01*
X128634Y139797D02*
Y141551D01*
X127511Y138674D02*
X128634Y139797D01*
X164308Y127775D02*
X164311D01*
X165884Y148250D02*
X167461Y146673D01*
X165884Y148250D02*
Y152301D01*
X160134Y158051D02*
X165884Y152301D01*
X149634Y94201D02*
X154862Y99429D01*
X149634Y89551D02*
Y94201D01*
X147134Y87051D02*
X149634Y89551D01*
X147134Y85551D02*
Y87051D01*
X194231Y154648D02*
X196134Y156551D01*
X194231Y148246D02*
Y154648D01*
X192658Y146673D02*
X194231Y148246D01*
X128208Y116748D02*
Y119125D01*
X128634Y119551D01*
X149134Y123053D02*
X156439D01*
X158012Y124626D01*
X151634Y118327D02*
X154862D01*
X150858Y117551D02*
X151634Y118327D01*
X138634Y117551D02*
X150858D01*
X195807Y99428D02*
Y99429D01*
X125551Y120551D02*
X135134D01*
X135634Y121051D01*
Y134651D01*
X136034Y135051D01*
X136734D01*
X137134Y134651D01*
Y120951D02*
Y134651D01*
Y120951D02*
X137534Y120551D01*
X143734D01*
X144085Y120902D01*
X141660Y121551D02*
X142408D01*
X141260Y121951D02*
X141660Y121551D01*
X141260Y121951D02*
Y123577D01*
X140860Y123977D02*
X141260Y123577D01*
X140534Y123977D02*
X140860D01*
X140134Y123577D02*
X140534Y123977D01*
X140134Y121951D02*
Y123577D01*
X139734Y121551D02*
X140134Y121951D01*
X139034Y121551D02*
X139734D01*
X138634Y121951D02*
X139034Y121551D01*
X138634Y121951D02*
Y127151D01*
X139034Y127551D01*
X142134D01*
X148208Y129225D02*
X148534Y129551D01*
X149234D01*
X149634Y129151D01*
Y126601D02*
Y129151D01*
Y126601D02*
X150034Y126201D01*
X156438D01*
X158012Y127775D01*
X127534Y124051D02*
X128234D01*
X128634Y123651D01*
Y122201D02*
Y123651D01*
Y122201D02*
X129034Y121801D01*
X134134D01*
X134634Y122301D01*
Y134151D01*
X134234Y134551D02*
X134634Y134151D01*
X132034Y134551D02*
X134234D01*
X131634Y134951D02*
X132034Y134551D01*
X131634Y134951D02*
Y135651D01*
X132034Y136051D01*
X133734D01*
X134134Y136451D01*
Y137651D01*
X134534Y138051D01*
X135255D01*
X138194Y135112D01*
Y129494D02*
Y135112D01*
Y129494D02*
X138637Y129051D01*
X139262D01*
X139705Y129494D01*
Y133676D01*
X140105Y134076D01*
X140634D01*
X141694Y133016D01*
Y131512D02*
Y133016D01*
Y131512D02*
X142094Y131112D01*
X143634D01*
X144134Y130612D01*
Y129801D02*
Y130612D01*
X143634Y129301D02*
X144134Y129801D01*
X141634Y129301D02*
X143634D01*
X164308Y124626D02*
X164311D01*
X147609Y121476D02*
X154862D01*
X146634Y122451D02*
X147609Y121476D01*
X149134Y124626D02*
X154862D01*
X127034Y127551D02*
X128384D01*
X129634Y126301D01*
Y123551D02*
Y126301D01*
Y123551D02*
X130134Y123051D01*
X132884D01*
X133384Y123551D01*
Y133151D01*
X132984Y133551D02*
X133384Y133151D01*
X132284Y133551D02*
X132984D01*
X131884Y133151D02*
X132284Y133551D01*
X131884Y128451D02*
Y133151D01*
X131484Y128051D02*
X131884Y128451D01*
X131034Y128051D02*
X131484D01*
X130634Y128451D02*
X131034Y128051D01*
X130634Y128451D02*
Y135626D01*
X130234Y136026D02*
X130634Y135626D01*
X128708Y136026D02*
X130234D01*
X128208Y136526D02*
X128708Y136026D01*
X128208Y136526D02*
Y137051D01*
X128634Y137477D01*
X132708D01*
X133208Y137977D01*
Y139625D01*
X133634Y140051D01*
X134634D01*
X139634Y135051D01*
X141134D01*
X145134Y131051D01*
X149134D01*
X152410Y127775D01*
X154862D01*
X158012Y121476D02*
Y121480D01*
X129634Y110177D02*
X129934Y110477D01*
X129634Y109351D02*
Y110177D01*
X129934Y109051D02*
X132834D01*
X133134Y108751D01*
Y107851D02*
Y108751D01*
X132834Y107551D02*
X133134Y107851D01*
X134334Y106051D02*
X134634Y106351D01*
Y107751D01*
X134934Y108051D01*
X135834D01*
X136134Y108351D01*
Y109251D01*
X135834Y109551D02*
X136134Y109251D01*
X134934Y109551D02*
X135834D01*
X134634Y109851D02*
X134934Y109551D01*
X134634Y109851D02*
Y110751D01*
X134934Y111051D01*
X139334D01*
X139634Y111351D01*
Y112251D01*
X139334Y112551D02*
X139634Y112251D01*
X134934Y112551D02*
X139334D01*
X134634Y112851D02*
X134934Y112551D01*
X134634Y112851D02*
Y113751D01*
X134934Y114051D01*
X139334D01*
X139634Y114351D01*
Y115251D01*
X139334Y115551D02*
X139634Y115251D01*
X134934Y115551D02*
X139334D01*
X134634Y115851D02*
X134934Y115551D01*
X134634Y115851D02*
Y117551D01*
X167461Y149823D02*
Y153224D01*
X162634Y158051D02*
X167461Y153224D01*
X172173Y97842D02*
X173760Y99429D01*
X172173Y95590D02*
Y97842D01*
X169346Y92763D02*
X172173Y95590D01*
X167346Y92763D02*
X169346D01*
X162134Y87551D02*
X167346Y92763D01*
X159134Y87551D02*
X162134D01*
X153662Y102579D02*
X154862D01*
X147634Y96551D02*
X153662Y102579D01*
X147634Y90551D02*
Y96551D01*
X145596Y88513D02*
X147634Y90551D01*
X143596Y88513D02*
X145596D01*
X141634Y86551D02*
X143596Y88513D01*
X141634Y78051D02*
Y86551D01*
X170607Y105728D02*
X170610D01*
X198957Y118327D02*
X200534Y116751D01*
X160584Y92551D02*
X162734Y94701D01*
X157634Y92551D02*
X160584D01*
X183209Y149823D02*
Y151521D01*
X184408Y152720D01*
Y160777D01*
X191634Y152051D02*
Y159801D01*
X191081Y151498D02*
X191634Y152051D01*
X191081Y148246D02*
Y151498D01*
X189508Y146673D02*
X191081Y148246D01*
X190634Y152551D02*
Y160977D01*
X189508Y151425D02*
X190634Y152551D01*
X189508Y149823D02*
Y151425D01*
X205256Y140374D02*
Y140423D01*
X185383Y152074D02*
Y161802D01*
X184782Y151473D02*
X185383Y152074D01*
X184782Y148246D02*
Y151473D01*
X183209Y146673D02*
X184782Y148246D01*
X189634Y153051D02*
Y161551D01*
X187935Y151352D02*
X189634Y153051D01*
X187935Y148250D02*
Y151352D01*
X186358Y146673D02*
X187935Y148250D01*
X186358Y149823D02*
Y162827D01*
X202106Y105728D02*
X203692Y104142D01*
X212543D01*
X216634Y100051D01*
X99984Y118016D02*
X100000Y118000D01*
X99984Y118016D02*
Y121169D01*
X96047Y118053D02*
Y121169D01*
X94079Y118479D02*
Y121169D01*
X106437Y64063D02*
X107000Y63500D01*
X102713Y64063D02*
X106437D01*
X72500D02*
X79287D01*
X76433Y80500D02*
X79287Y77646D01*
Y76661D02*
Y77646D01*
Y79713D02*
X82339D01*
X104500Y56000D02*
X107000D01*
X102713Y57787D02*
X104500Y56000D01*
X102713Y57787D02*
Y59339D01*
X104597Y60903D02*
X107000Y58500D01*
X102723Y60903D02*
X104597D01*
X102713Y60913D02*
X102723Y60903D01*
X105512Y62488D02*
X107000Y61000D01*
X102713Y62488D02*
X105512D01*
X86000Y85500D02*
X87063Y84437D01*
Y79713D02*
Y84437D01*
X85488Y79713D02*
Y83012D01*
X80000Y83500D02*
X82500D01*
X83913Y82087D01*
Y79713D02*
Y82087D01*
X143500Y36000D02*
X145500D01*
X146500Y37000D01*
Y39228D01*
X88357Y52500D02*
X90213Y54356D01*
X88000Y52500D02*
X88357D01*
X90213Y54356D02*
Y56287D01*
X82339Y52661D02*
X82500Y52500D01*
X82339Y52661D02*
Y56287D01*
X79287Y57787D02*
Y59339D01*
X78000Y56500D02*
X79287Y57787D01*
X75000Y56500D02*
X78000D01*
X50000Y71500D02*
X50035Y71465D01*
X54500D01*
X34732Y75539D02*
X34772Y75500D01*
X34732Y75539D02*
Y80500D01*
X37500D01*
X20750Y70500D02*
X24500D01*
X14250Y75750D02*
X14500Y76000D01*
X14250Y70500D02*
Y75750D01*
X17000Y114150D02*
Y117500D01*
X12950Y110100D02*
X17000Y114150D01*
D69*
X69400Y78400D02*
X71400D01*
X101500Y86000D02*
X107000Y80500D01*
X97200Y86000D02*
X101500D01*
X94600Y88600D02*
X97200Y86000D01*
X153541Y180431D02*
X153541Y180431D01*
X153541Y176100D02*
Y180431D01*
X158659Y171769D02*
Y176100D01*
Y171769D02*
X158659Y171769D01*
X136500Y42732D02*
Y46000D01*
X138847Y48347D01*
X136500Y32600D02*
Y39268D01*
X179134Y80051D02*
Y84176D01*
X182000Y80032D02*
X182000Y80032D01*
X179134Y80032D02*
X182000D01*
X179134Y73500D02*
Y76568D01*
X68000Y77000D02*
X69400Y78400D01*
X175259Y84962D02*
X179634Y89337D01*
X272700Y194646D02*
Y197638D01*
X272700Y188189D02*
X272700Y188189D01*
Y191181D01*
X268763Y188189D02*
X268763Y188189D01*
Y191142D01*
X260889Y188189D02*
X260889Y188189D01*
Y191142D01*
X205771Y188189D02*
X205771Y188189D01*
Y191181D01*
X205644Y194788D02*
X205800Y194632D01*
X30961Y80461D02*
X31228Y80193D01*
X80100Y38500D02*
X83000D01*
X28500Y75500D02*
X31228D01*
Y80461D02*
X31268Y80500D01*
X30961Y80461D02*
X31228D01*
Y75500D02*
Y80193D01*
X107000Y78600D02*
Y80500D01*
X52600Y88600D02*
X94600D01*
X46772Y82772D02*
X52600Y88600D01*
X46772Y80500D02*
Y82772D01*
X43228Y84700D02*
X43228Y84700D01*
Y80500D02*
Y84700D01*
X219634Y66969D02*
Y70301D01*
X219600Y66935D02*
X219634Y66969D01*
X175259Y80176D02*
Y84962D01*
X179634Y89337D02*
Y92051D01*
X179134Y84176D02*
X182109Y87151D01*
Y90526D01*
X167323Y80032D02*
X167324Y80032D01*
X171260D01*
X175259D01*
X171260Y76568D02*
X175259D01*
X171259Y76567D02*
X171260Y76568D01*
X167323Y76567D02*
X171259D01*
X175259Y76568D02*
X179134D01*
X182650D01*
X184634Y78551D01*
X123472Y140400D02*
X126600D01*
X217582Y188189D02*
Y191142D01*
X209708Y188189D02*
Y191142D01*
X264826D02*
X268763D01*
X260889D02*
X264826D01*
X256952D02*
X260889D01*
X253015D02*
X256952D01*
X249078D02*
X253015D01*
X245141D02*
X249078D01*
X241204D02*
X245141D01*
X237267D02*
X241204D01*
X233330D02*
X237267D01*
X229393D02*
X233330D01*
X225456D02*
X229393D01*
X221519D02*
X225456D01*
X217582D02*
X221519D01*
X213645D02*
X217582D01*
X209708D02*
X213645D01*
X183209Y94476D02*
Y94551D01*
Y94476D02*
X184634Y93051D01*
Y78551D02*
Y93051D01*
X179634Y92051D02*
X179947Y92364D01*
X106000Y95272D02*
Y98000D01*
X64232Y77000D02*
X68000D01*
X124000Y71035D02*
X124492Y70543D01*
X149448Y50699D02*
Y55974D01*
X147095Y48347D02*
X149448Y50699D01*
X138847Y48347D02*
X147095D01*
X148150Y57272D02*
X149448Y55974D01*
X146500Y57272D02*
X148150D01*
X143557Y41891D02*
X144379Y42712D01*
X143557Y41057D02*
Y41891D01*
X143500Y41000D02*
X143557Y41057D01*
X144379Y42712D02*
X146440D01*
X146500Y42772D01*
Y57272D02*
Y64228D01*
X109500Y91768D02*
X112732D01*
X115500Y89000D01*
X109461Y95272D02*
X109500Y95232D01*
X106000Y95272D02*
X109461D01*
X102500D02*
X106000D01*
X96900Y38500D02*
Y42065D01*
X95965Y43000D02*
X96900Y42065D01*
X95000Y38500D02*
X96900D01*
X87000D02*
X89900D01*
X95000D02*
Y42035D01*
X95965Y43000D01*
X80000Y42035D02*
X80100Y42135D01*
Y38500D02*
Y42135D01*
X80965Y43000D01*
X87000Y38500D02*
Y40017D01*
X87879Y40896D01*
X88014D01*
X89035Y41917D01*
Y43000D01*
X89900Y38500D02*
Y42135D01*
X89035Y43000D02*
X89900Y42135D01*
X83000Y38500D02*
Y40017D01*
X82121Y40896D02*
X83000Y40017D01*
X81986Y40896D02*
X82121D01*
X80965Y41917D02*
X81986Y40896D01*
X80965Y41917D02*
Y43000D01*
X57500Y84000D02*
X60768D01*
X60768Y84000D01*
Y80500D02*
Y84000D01*
Y77000D02*
Y80500D01*
X60768Y77000D02*
X60768Y77000D01*
X63354Y74000D02*
X64232Y74879D01*
X61607Y74000D02*
X63354D01*
X60728Y73121D02*
X61607Y74000D01*
X60728Y70500D02*
Y73121D01*
X64232Y74879D02*
Y77000D01*
X64212Y67212D02*
Y70441D01*
X62500Y65500D02*
X64212Y67212D01*
X48500Y65500D02*
X62500D01*
X64212Y70441D02*
X64272Y70500D01*
X46772Y67228D02*
X48500Y65500D01*
X46772Y67228D02*
Y70500D01*
Y75500D01*
X43228D02*
Y80500D01*
X30961Y80461D02*
X31000Y80500D01*
D70*
X143684Y92551D02*
Y93451D01*
Y95051D01*
X119000Y74500D02*
Y77000D01*
Y71035D02*
Y74500D01*
Y71035D02*
X119500Y71000D01*
D71*
X106900Y71600D02*
X107000Y71500D01*
X75000Y71000D02*
X75030D01*
X75276D02*
X75914Y70362D01*
X75030Y71000D02*
X75967Y71937D01*
X75914Y70362D02*
X79287D01*
X75030Y71000D02*
X75276D01*
X106800Y71600D02*
X106900D01*
X75000Y66500D02*
X75105D01*
X94937Y53563D02*
Y56287D01*
Y53563D02*
X96000Y52500D01*
X105862Y70362D02*
X107000Y71500D01*
X102713Y70362D02*
X105862D01*
X93362Y79713D02*
Y85500D01*
X91400Y83224D02*
X91787Y82837D01*
Y79713D02*
Y82837D01*
X91400Y83224D02*
Y83500D01*
X96512D02*
X96512Y83500D01*
Y79713D02*
Y83500D01*
X75105Y66500D02*
X75254D01*
X75105D02*
X75967Y65638D01*
X79287D01*
X75254Y66500D02*
X75967Y67213D01*
X79287D01*
X72500Y68787D02*
X79287D01*
X75967Y71937D02*
X79287D01*
X75000Y76500D02*
X76413Y75087D01*
X79287D01*
X89000Y83000D02*
X90213Y81787D01*
X89000Y83000D02*
Y85500D01*
X90213Y79713D02*
Y81787D01*
X96000Y52500D02*
Y52776D01*
X96512Y53288D01*
Y56287D01*
D72*
X110342Y175853D02*
X112310D01*
X114279Y177821D02*
Y177822D01*
X116247Y179790D01*
X110342Y177821D02*
X112310D01*
X131995D02*
X134200D01*
X112310Y169947D02*
X114279D01*
X116247Y165900D02*
Y167979D01*
X104200Y181758D02*
X106405D01*
X104200Y177821D02*
X106405D01*
X110342Y179790D02*
X112310D01*
X107389Y180774D02*
X108373Y179790D01*
X122153Y177821D02*
Y179790D01*
X126090Y175853D02*
X128058D01*
X124121D02*
X126090D01*
X112310Y171916D02*
X114279D01*
X118216Y165900D02*
Y167979D01*
X124121Y173884D02*
X126090D01*
X104200Y179790D02*
X106405D01*
X104247Y175853D02*
X106405D01*
X120184Y177821D02*
Y179790D01*
X107389Y178806D02*
X108373Y177821D01*
X126090Y177822D02*
X128058Y179790D01*
X126090Y177821D02*
Y177822D01*
D73*
X91787Y67213D02*
X102713D01*
D74*
X205256Y127776D02*
X206833Y129353D01*
X206831Y129350D02*
X210631D01*
X74388Y136188D02*
X76812D01*
X70600Y132400D02*
X74388Y136188D01*
X64794Y132400D02*
X70600D01*
X79250Y126694D02*
Y133750D01*
X76812Y136188D02*
X79250Y133750D01*
X77438Y137162D02*
X80350Y134250D01*
X70300Y133500D02*
X73962Y137162D01*
X65250Y133500D02*
X70300D01*
X80350Y127150D02*
Y134250D01*
X73962Y137162D02*
X77438D01*
X86204Y126100D02*
X87300D01*
X85400Y125296D02*
X86204Y126100D01*
X87300D02*
X87821Y125579D01*
X85400Y123400D02*
Y125296D01*
X84500Y122500D02*
X85400Y123400D01*
X87821Y125579D02*
X89669D01*
X87151Y126951D02*
X87747Y127547D01*
X84951Y126951D02*
X87151D01*
X84500Y126500D02*
X84951Y126951D01*
X83500Y125500D02*
X84500Y126500D01*
X87747Y127547D02*
X89669D01*
X86800Y130500D02*
X87784Y129516D01*
X84500Y130500D02*
X86800D01*
X87784Y129516D02*
X89669D01*
X64300Y141700D02*
X66589D01*
X62750Y140150D02*
X64300Y141700D01*
X62750Y136000D02*
Y140150D01*
X66589Y141700D02*
X67250Y141039D01*
X79250Y126694D02*
X82119Y123825D01*
X61650Y135544D02*
X64794Y132400D01*
X61650Y135544D02*
Y141500D01*
X60650Y142500D02*
X61650Y141500D01*
X57250Y142500D02*
X60650D01*
X82119Y123825D02*
X83175D01*
X84500Y122500D01*
X218134Y85051D02*
Y100995D01*
Y85051D02*
X227234Y75951D01*
X244534D01*
X253734Y85151D01*
Y98995D01*
X256968Y102229D01*
X258999D01*
X259410Y101818D01*
Y101237D02*
Y101818D01*
X258999Y100826D02*
X259410Y101237D01*
X257934Y100826D02*
X258999D01*
X216234Y142151D02*
X250090D01*
X251234Y141007D01*
Y139219D02*
Y141007D01*
X250090Y138075D02*
X251234Y139219D01*
X246214Y138075D02*
X250090D01*
X245610Y137471D02*
X246214Y138075D01*
X245610Y135575D02*
Y137471D01*
Y135575D02*
X251634Y129551D01*
Y112051D02*
Y129551D01*
X249859Y110276D02*
X251634Y112051D01*
X245334Y110276D02*
X249859D01*
X219234Y85507D02*
Y101451D01*
Y85507D02*
X227690Y77051D01*
X244078D01*
X252634Y85607D01*
Y99451D01*
X256512Y103329D01*
X257287D01*
X257934Y103976D01*
X216690Y141051D02*
X249634D01*
X250134Y140551D01*
Y139675D02*
Y140551D01*
X249634Y139175D02*
X250134Y139675D01*
X245758Y139175D02*
X249634D01*
X244510Y137927D02*
X245758Y139175D01*
X244510Y135119D02*
Y137927D01*
Y135119D02*
X250534Y129095D01*
Y112507D02*
Y129095D01*
X249403Y111376D02*
X250534Y112507D01*
X248684Y111376D02*
X249403D01*
X248384Y111676D02*
X248684Y111376D01*
X248384Y111676D02*
Y113276D01*
X248084Y113576D02*
X248384Y113276D01*
X247184Y113576D02*
X248084D01*
X246884Y113276D02*
X247184Y113576D01*
X246884Y112151D02*
Y113276D01*
X246584Y111851D02*
X246884Y112151D01*
X244234Y111851D02*
X246584D01*
X243934Y112151D02*
X244234Y111851D01*
X243934Y112151D02*
Y113126D01*
X244234Y113426D01*
X245334D01*
X208406Y105728D02*
X208829Y106151D01*
X212978D01*
X218134Y100995D01*
X205256Y137224D02*
X206769Y138737D01*
X212820D01*
X216234Y142151D01*
X205256Y127775D02*
X206833Y129352D01*
X210633D01*
X210634Y129351D01*
X205256Y105728D02*
X206266D01*
X207789Y107251D01*
X213434D01*
X219234Y101451D01*
X208406Y137224D02*
X208819Y137637D01*
X213276D01*
X216690Y141051D01*
X208406Y127775D02*
X212057D01*
X213634Y129351D01*
X89640Y125549D02*
X89669Y125579D01*
X82000Y125500D02*
X83500D01*
X80350Y127150D02*
X82000Y125500D01*
X67250Y137500D02*
Y141039D01*
X62750Y136000D02*
X65250Y133500D01*
D75*
X140034Y93451D02*
X143684D01*
X132134Y76051D02*
X137134Y81051D01*
X132134Y60051D02*
Y76051D01*
X124634Y52551D02*
X132134Y60051D01*
X105134Y52551D02*
X124634D01*
X137134Y90551D02*
X140034Y93451D01*
X137134Y81051D02*
Y90551D01*
X124000Y71035D02*
X125000D01*
X119000D02*
X124000D01*
X114000D02*
X119000D01*
D76*
X112000Y129516D02*
X112000Y129516D01*
X108331Y129516D02*
X112000D01*
X84500Y137100D02*
Y138000D01*
Y137100D02*
X86400Y135200D01*
Y134300D02*
Y135200D01*
Y134300D02*
X87247Y133453D01*
X89669D01*
X101953Y119547D02*
X103500Y118000D01*
X101953Y119547D02*
Y121169D01*
D77*
X123472Y110800D02*
Y111072D01*
X124900Y112500D01*
X131583D01*
X131634Y112551D01*
D78*
X151634Y138551D02*
Y139554D01*
X154402Y134535D02*
X154862Y134075D01*
X146594Y134535D02*
X154402D01*
X143634Y137495D02*
X146594Y134535D01*
X143634Y137495D02*
Y142951D01*
X142134Y144451D02*
X143634Y142951D01*
X140234Y144451D02*
X142134D01*
X133234Y151451D02*
X140234Y144451D01*
X122678Y151451D02*
X133234D01*
X156452Y135635D02*
X158012Y134075D01*
X147050Y135635D02*
X156452D01*
X144734Y137951D02*
X147050Y135635D01*
X144734Y137951D02*
Y143507D01*
X142690Y145551D02*
X144734Y143507D01*
X140690Y145551D02*
X142690D01*
X133690Y152551D02*
X140690Y145551D01*
X123134Y152551D02*
X133690D01*
X149134Y138551D02*
X152517Y141934D01*
X156452D01*
X158012Y140374D01*
X151634Y139554D02*
X152914Y140834D01*
X154402D01*
X154862Y140374D01*
D79*
X183209Y94551D02*
Y96279D01*
X175384Y151349D02*
X176910Y149823D01*
X175384Y151349D02*
Y165051D01*
X179947Y92364D02*
X181134Y93551D01*
X148190Y143523D02*
X154862D01*
X146662Y145051D02*
X148190Y143523D01*
D80*
X91000Y68000D02*
X91787Y67213D01*
D81*
X54500Y84000D02*
X57500D01*
X54500Y79535D02*
Y84000D01*
D82*
X6500Y85000D02*
D03*
X162800Y12100D02*
D03*
X257505Y22217D02*
D03*
X69000Y51000D02*
D03*
X59000Y41000D02*
D03*
Y51000D02*
D03*
X69000Y41000D02*
D03*
X151800Y12200D02*
D03*
X57250Y112500D02*
D03*
X67250Y107500D02*
D03*
Y137500D02*
D03*
X57250Y132500D02*
D03*
X67250Y117500D02*
D03*
X12950Y149900D02*
D03*
X18950Y139900D02*
D03*
Y100100D02*
D03*
X12950Y110100D02*
D03*
X67250Y127500D02*
D03*
X57250Y122500D02*
D03*
X188600Y36700D02*
D03*
X218600D02*
D03*
X178600D02*
D03*
X208600D02*
D03*
X198600D02*
D03*
D83*
X348400Y14500D02*
D03*
X72550Y223000D02*
D03*
X334823Y223567D02*
D03*
X57000Y13400D02*
D03*
D84*
X32250Y102500D02*
D03*
Y147500D02*
D03*
D85*
X44250Y156000D02*
D03*
Y94000D02*
D03*
D86*
X57250Y142500D02*
D03*
X168600Y36700D02*
D03*
D87*
X302753Y108417D02*
D03*
Y98577D02*
D03*
Y90697D02*
D03*
Y80857D02*
D03*
Y45617D02*
D03*
Y35777D02*
D03*
Y27897D02*
D03*
Y18057D02*
D03*
D88*
X313423Y120507D02*
D03*
Y68767D02*
D03*
Y57707D02*
D03*
Y5967D02*
D03*
D89*
X20000Y46000D02*
D03*
D90*
X43600D02*
D03*
D91*
X31800Y27500D02*
D03*
D92*
X330765Y26069D02*
D03*
X326435D02*
D03*
Y34731D02*
D03*
X330765D02*
D03*
Y30400D02*
D03*
X326435D02*
D03*
X330465Y83569D02*
D03*
X326135D02*
D03*
Y92231D02*
D03*
X330465D02*
D03*
Y87900D02*
D03*
X326135D02*
D03*
D93*
X94669Y130500D02*
D03*
X99000Y126169D02*
D03*
Y130500D02*
D03*
Y134831D02*
D03*
X103331Y130500D02*
D03*
X89031Y69968D02*
D03*
X92968D02*
D03*
X89031Y66031D02*
D03*
X92968D02*
D03*
X85094Y69968D02*
D03*
Y73905D02*
D03*
X89031D02*
D03*
X92968D02*
D03*
X96905D02*
D03*
Y69968D02*
D03*
Y66031D02*
D03*
X85094D02*
D03*
Y62094D02*
D03*
X89031D02*
D03*
X92968D02*
D03*
X96905D02*
D03*
D94*
X131011Y176837D02*
D03*
Y178806D02*
D03*
Y180774D02*
D03*
Y182743D02*
D03*
X112310Y175853D02*
D03*
X129043Y184711D02*
D03*
X116247Y179790D02*
D03*
X112310Y177821D02*
D03*
X131011Y184711D02*
D03*
X134200Y177821D02*
D03*
X112310Y169947D02*
D03*
X116247Y165900D02*
D03*
X104200Y181758D02*
D03*
Y177821D02*
D03*
X112310Y179790D02*
D03*
X107389Y180774D02*
D03*
X122153Y179790D02*
D03*
X126090Y175853D02*
D03*
X112310Y171916D02*
D03*
X118216Y165900D02*
D03*
X126090Y173884D02*
D03*
X104200Y179790D02*
D03*
X104247Y175853D02*
D03*
X120184Y179790D02*
D03*
X107389Y184711D02*
D03*
Y178806D02*
D03*
X126090Y177821D02*
D03*
M02*
