G04*
G04 #@! TF.GenerationSoftware,Altium Limited,Altium Designer,19.1.9 (167)*
G04*
G04 Layer_Physical_Order=4*
G04 Layer_Color=6736896*
%FSLAX25Y25*%
%MOIN*%
G70*
G01*
G75*
%ADD11C,0.00100*%
%ADD38C,0.01800*%
%ADD68C,0.00475*%
%ADD69C,0.01500*%
%ADD70C,0.02000*%
%ADD72C,0.00800*%
%ADD82C,0.06000*%
%ADD83C,0.17500*%
%ADD85C,0.09000*%
%ADD86R,0.06000X0.06000*%
%ADD87C,0.06500*%
%ADD88O,0.13500X0.08000*%
%ADD89O,0.07000X0.15000*%
%ADD90O,0.07000X0.18000*%
%ADD91O,0.15000X0.07000*%
%ADD92C,0.01378*%
%ADD93C,0.01968*%
%ADD94C,0.01200*%
%ADD95C,0.15000*%
%ADD96C,0.00525*%
G36*
X218634Y151049D02*
Y147048D01*
X217634Y146048D01*
X204599D01*
X204487Y146124D01*
X204396Y146189D01*
X204338Y146223D01*
X204188Y146323D01*
X204004Y146360D01*
X203980Y146366D01*
X203868Y146387D01*
X203861Y146388D01*
X203681Y146424D01*
X203456Y146379D01*
X203416Y146373D01*
X203393Y146367D01*
X203174Y146323D01*
X202763Y146048D01*
X201450D01*
X201331Y146127D01*
X201246Y146189D01*
X201191Y146221D01*
X201039Y146323D01*
X200853Y146360D01*
X200830Y146366D01*
X200718Y146387D01*
X200712Y146388D01*
X200532Y146424D01*
X200308Y146379D01*
X200267Y146373D01*
X200242Y146366D01*
X200024Y146323D01*
X199613Y146048D01*
X198300D01*
X198176Y146131D01*
X198096Y146189D01*
X198045Y146219D01*
X197889Y146323D01*
X197702Y146360D01*
X197680Y146366D01*
X197568Y146387D01*
X197563Y146388D01*
X197382Y146424D01*
X197160Y146380D01*
X197116Y146373D01*
X197090Y146366D01*
X196875Y146323D01*
X196464Y146048D01*
X195150D01*
X195020Y146135D01*
X194946Y146189D01*
X194898Y146217D01*
X194739Y146323D01*
X194551Y146361D01*
X194530Y146366D01*
X194418Y146387D01*
X194414Y146388D01*
X194232Y146424D01*
X194013Y146380D01*
X193966Y146373D01*
X193939Y146366D01*
X193725Y146323D01*
X193549Y146205D01*
X193547Y146204D01*
X193531Y146193D01*
X193314Y146048D01*
X192001D01*
X191865Y146139D01*
X191796Y146189D01*
X191752Y146215D01*
X191590Y146323D01*
X191400Y146361D01*
X191380Y146366D01*
X191268Y146387D01*
X191264Y146388D01*
X191083Y146424D01*
X190865Y146381D01*
X190816Y146373D01*
X190788Y146365D01*
X190575Y146323D01*
X190402Y146207D01*
X190397Y146204D01*
X190365Y146182D01*
X190164Y146048D01*
X188851D01*
X188440Y146323D01*
X187933Y146424D01*
X187426Y146323D01*
X187015Y146048D01*
X185702D01*
X185291Y146323D01*
X184783Y146424D01*
X184276Y146323D01*
X183865Y146048D01*
X182634D01*
X181634Y145048D01*
Y125048D01*
X180134Y123548D01*
Y122548D01*
X181634Y121048D01*
Y107102D01*
X180581Y106049D01*
X176808D01*
X176773Y106050D01*
X176739Y106054D01*
X176705Y106062D01*
X176671Y106073D01*
X176639Y106086D01*
X176608Y106102D01*
X176579Y106121D01*
X176551Y106142D01*
X176525Y106166D01*
X176502Y106191D01*
X176481Y106219D01*
X176462Y106248D01*
X176446Y106279D01*
X176432Y106312D01*
X176422Y106345D01*
X176414Y106379D01*
X176410Y106414D01*
X176408Y106448D01*
X176410Y106483D01*
X176414Y106518D01*
X176422Y106552D01*
X176432Y106585D01*
X176446Y106617D01*
X176462Y106649D01*
X176462D01*
X176462Y106648D01*
X176468Y106660D01*
X176559Y106796D01*
X176594Y106971D01*
X176617Y107073D01*
X176621Y107106D01*
X176660Y107303D01*
X176617Y107519D01*
X176616Y107526D01*
X176612Y107543D01*
X176559Y107810D01*
X176272Y108240D01*
X175842Y108528D01*
X175335Y108629D01*
X174827Y108528D01*
X174397Y108240D01*
X174110Y107810D01*
X174064Y107577D01*
X174052Y107524D01*
X174050Y107506D01*
X174009Y107303D01*
X174046Y107118D01*
X174052Y107071D01*
X174077Y106960D01*
X174078Y106957D01*
X174110Y106796D01*
X174198Y106665D01*
X174206Y106649D01*
X174206Y106649D01*
X174223Y106618D01*
X174236Y106586D01*
X174247Y106552D01*
X174254Y106518D01*
X174259Y106483D01*
X174260Y106449D01*
X174259Y106414D01*
X174254Y106379D01*
X174247Y106345D01*
X174236Y106312D01*
X174223Y106280D01*
X174207Y106249D01*
X174188Y106219D01*
X174167Y106192D01*
X174143Y106166D01*
X174118Y106142D01*
X174090Y106121D01*
X174060Y106102D01*
X174030Y106086D01*
X173997Y106073D01*
X173964Y106062D01*
X173930Y106055D01*
X173895Y106050D01*
X173860Y106049D01*
X173658D01*
X173623Y106050D01*
X173589Y106054D01*
X173555Y106062D01*
X173521Y106073D01*
X173489Y106086D01*
X173458Y106102D01*
X173429Y106121D01*
X173401Y106142D01*
X173375Y106166D01*
X173352Y106191D01*
X173331Y106219D01*
X173312Y106248D01*
X173296Y106279D01*
X173282Y106312D01*
X173272Y106345D01*
X173264Y106379D01*
X173260Y106414D01*
X173258Y106448D01*
X173260Y106483D01*
X173264Y106518D01*
X173272Y106552D01*
X173282Y106585D01*
X173296Y106617D01*
X173312Y106649D01*
X173312D01*
X173312Y106648D01*
X173317Y106657D01*
X173410Y106796D01*
X173448Y106989D01*
X173467Y107073D01*
X173470Y107101D01*
X173511Y107303D01*
X173466Y107525D01*
X173466Y107526D01*
X173466Y107526D01*
X173410Y107810D01*
X173122Y108240D01*
X172692Y108528D01*
X172185Y108629D01*
X171678Y108528D01*
X171248Y108240D01*
X170960Y107810D01*
X170917Y107594D01*
X170902Y107524D01*
X170899Y107501D01*
X170860Y107303D01*
X170895Y107124D01*
X170902Y107071D01*
X170927Y106960D01*
X170929Y106953D01*
X170960Y106796D01*
X171046Y106667D01*
X171056Y106649D01*
X171056Y106649D01*
X171073Y106618D01*
X171086Y106586D01*
X171097Y106552D01*
X171104Y106518D01*
X171109Y106483D01*
X171110Y106449D01*
X171109Y106414D01*
X171104Y106379D01*
X171097Y106345D01*
X171086Y106312D01*
X171073Y106280D01*
X171057Y106249D01*
X171038Y106219D01*
X171017Y106192D01*
X170993Y106166D01*
X170967Y106142D01*
X170940Y106121D01*
X170910Y106102D01*
X170879Y106086D01*
X170847Y106073D01*
X170814Y106062D01*
X170780Y106055D01*
X170745Y106050D01*
X170710Y106049D01*
X170508D01*
X170473Y106050D01*
X170439Y106054D01*
X170405Y106062D01*
X170371Y106073D01*
X170339Y106086D01*
X170308Y106102D01*
X170279Y106121D01*
X170251Y106142D01*
X170225Y106166D01*
X170202Y106191D01*
X170181Y106219D01*
X170162Y106248D01*
X170146Y106279D01*
X170132Y106312D01*
X170122Y106345D01*
X170114Y106379D01*
X170110Y106414D01*
X170108Y106448D01*
X170110Y106483D01*
X170114Y106518D01*
X170122Y106552D01*
X170132Y106585D01*
X170146Y106617D01*
X170162Y106649D01*
X170162D01*
X170162Y106648D01*
X170166Y106655D01*
X170260Y106796D01*
X170302Y107007D01*
X170317Y107073D01*
X170319Y107095D01*
X170361Y107303D01*
X170260Y107810D01*
X169973Y108240D01*
X169543Y108528D01*
X169035Y108629D01*
X168528Y108528D01*
X168098Y108240D01*
X167968Y108045D01*
X167967Y108044D01*
X167965Y108042D01*
X167811Y107810D01*
X167771Y107612D01*
X167752Y107524D01*
X167748Y107495D01*
X167710Y107303D01*
X167743Y107138D01*
X167745Y107117D01*
X167745Y107117D01*
X167749Y107083D01*
X167749Y107048D01*
X167746Y107013D01*
X167740Y106979D01*
X167732Y106945D01*
X167720Y106912D01*
X167705Y106880D01*
X167688Y106850D01*
X167668Y106821D01*
X167646Y106794D01*
X167622Y106770D01*
X167595Y106747D01*
X167567Y106727D01*
X167536Y106709D01*
X167505Y106694D01*
X167472Y106682D01*
X167439Y106673D01*
X167404Y106666D01*
X167369Y106663D01*
X167349Y106662D01*
X167121D01*
Y106851D01*
X167153Y107008D01*
X167158Y107030D01*
X167165Y107070D01*
X167211Y107303D01*
X167110Y107810D01*
X166823Y108240D01*
X166393Y108528D01*
X165886Y108629D01*
X165661Y108584D01*
X165634Y108584D01*
X165599Y108587D01*
X165564Y108592D01*
X165531Y108601D01*
X165498Y108613D01*
X165466Y108627D01*
X165436Y108645D01*
X165407Y108664D01*
X165380Y108687D01*
X165355Y108711D01*
X165333Y108738D01*
X165312Y108766D01*
X165295Y108796D01*
X165280Y108828D01*
X165268Y108861D01*
X165258Y108894D01*
X165252Y108928D01*
X165249Y108963D01*
X165248Y108984D01*
Y109264D01*
X164634Y109878D01*
Y112125D01*
X164636Y112159D01*
X164640Y112194D01*
X164648Y112228D01*
X164658Y112261D01*
X164672Y112294D01*
X164688Y112325D01*
X164707Y112354D01*
X164728Y112382D01*
X164751Y112407D01*
X164777Y112431D01*
X164805Y112452D01*
X164834Y112471D01*
X164865Y112487D01*
X164897Y112500D01*
X164931Y112511D01*
X164965Y112518D01*
X164999Y112523D01*
X165034Y112524D01*
X165069Y112523D01*
X165104Y112518D01*
X165138Y112511D01*
X165171Y112500D01*
X165203Y112487D01*
X165234Y112471D01*
Y112470D01*
X165234Y112470D01*
X165261Y112457D01*
X165379Y112378D01*
X165518Y112350D01*
X165548Y112340D01*
X165659Y112316D01*
X165747Y112305D01*
X165886Y112277D01*
X166031Y112306D01*
X166111Y112316D01*
X166222Y112341D01*
X166246Y112348D01*
X166393Y112378D01*
X166522Y112464D01*
X166536Y112471D01*
X166632Y112532D01*
X166681Y112570D01*
X166823Y112665D01*
X166927Y112821D01*
X166951Y112853D01*
X167012Y112948D01*
X167012Y112949D01*
X167110Y113095D01*
X167157Y113332D01*
X167167Y113373D01*
X167168Y113387D01*
X167211Y113602D01*
X167110Y114110D01*
X166823Y114540D01*
X166393Y114827D01*
X165886Y114928D01*
X165379Y114827D01*
X165204Y114710D01*
X165203Y114710D01*
X165171Y114697D01*
X165138Y114686D01*
X165104Y114679D01*
X165069Y114674D01*
X165034Y114673D01*
X165000Y114674D01*
X164965Y114679D01*
X164931Y114686D01*
X164898Y114697D01*
X164865Y114710D01*
X164834Y114726D01*
X164805Y114745D01*
X164777Y114766D01*
X164752Y114789D01*
X164728Y114815D01*
X164707Y114843D01*
X164688Y114872D01*
X164672Y114903D01*
X164658Y114936D01*
X164648Y114969D01*
X164640Y115003D01*
X164636Y115037D01*
X164634Y115072D01*
Y115073D01*
Y118424D01*
X164636Y118459D01*
X164640Y118494D01*
X164648Y118528D01*
X164658Y118561D01*
X164672Y118594D01*
X164688Y118624D01*
X164707Y118654D01*
X164728Y118682D01*
X164751Y118707D01*
X164777Y118731D01*
X164805Y118752D01*
X164834Y118771D01*
X164865Y118787D01*
X164897Y118800D01*
X164931Y118811D01*
X164965Y118818D01*
X164999Y118823D01*
X165034Y118825D01*
X165069Y118823D01*
X165104Y118818D01*
X165138Y118811D01*
X165171Y118800D01*
X165203Y118787D01*
X165234Y118771D01*
Y118771D01*
X165234Y118770D01*
X165255Y118759D01*
X165379Y118677D01*
X165525Y118648D01*
X165548Y118640D01*
X165659Y118616D01*
X165735Y118606D01*
X165886Y118576D01*
X166042Y118607D01*
X166111Y118616D01*
X166222Y118641D01*
X166239Y118646D01*
X166393Y118677D01*
X166528Y118767D01*
X166536Y118771D01*
X166632Y118833D01*
X166673Y118864D01*
X166823Y118964D01*
X166931Y119126D01*
X166951Y119152D01*
X167002Y119233D01*
X167110Y119394D01*
X167159Y119639D01*
X167167Y119673D01*
X167168Y119684D01*
X167211Y119902D01*
X167110Y120409D01*
X166823Y120839D01*
X166393Y121126D01*
X165886Y121227D01*
X165379Y121126D01*
X164949Y120839D01*
X164829Y120660D01*
X164817Y120644D01*
X164782Y120591D01*
X164783Y120591D01*
X164763Y120563D01*
X164741Y120536D01*
X164716Y120511D01*
X164689Y120488D01*
X164661Y120468D01*
X164631Y120451D01*
X164599Y120436D01*
X164566Y120424D01*
X164533Y120414D01*
X164498Y120408D01*
X164464Y120405D01*
X164429Y120405D01*
X164394Y120408D01*
X164360Y120413D01*
X164326Y120422D01*
X164293Y120434D01*
X164261Y120449D01*
X164231Y120466D01*
X164202Y120486D01*
X164175Y120508D01*
X164161Y120521D01*
X163634Y121048D01*
X160210D01*
X160094Y121126D01*
X159587Y121227D01*
X159079Y121126D01*
X159066Y121117D01*
X158134Y122048D01*
Y122416D01*
X158441D01*
X158500Y122327D01*
X158501Y122328D01*
X158568Y122236D01*
X158569Y122235D01*
X158649Y122114D01*
X158782Y122025D01*
X158813Y122001D01*
X158907Y121937D01*
X158944Y121917D01*
X159079Y121827D01*
X159238Y121795D01*
X159328Y121773D01*
X159426Y121758D01*
X159587Y121726D01*
X159759Y121760D01*
X159780Y121762D01*
X159892Y121784D01*
X159915Y121791D01*
X160094Y121827D01*
X160265Y121941D01*
X160306Y121966D01*
X160347Y121996D01*
X160524Y122114D01*
X160811Y122544D01*
X160861Y122793D01*
X160861Y122794D01*
X160861Y122794D01*
X160912Y123051D01*
X160811Y123558D01*
X160524Y123988D01*
X160094Y124276D01*
X159587Y124377D01*
X159079Y124276D01*
X158898Y124154D01*
X158862Y124133D01*
X158821Y124103D01*
X158718Y124035D01*
X158691Y124021D01*
X158659Y124009D01*
X158625Y124000D01*
X158591Y123994D01*
X158556Y123990D01*
X158521Y123990D01*
X158486Y123992D01*
X158452Y123998D01*
X158418Y124007D01*
X158385Y124018D01*
X158353Y124033D01*
X158323Y124050D01*
X158294Y124070D01*
X158267Y124092D01*
X158242Y124116D01*
X158220Y124143D01*
X158199Y124171D01*
X158181Y124201D01*
X158166Y124232D01*
X158154Y124265D01*
X158145Y124299D01*
X158138Y124333D01*
X158135Y124368D01*
X158134Y124389D01*
Y124859D01*
X158136Y124894D01*
X158141Y124929D01*
X158148Y124963D01*
X158159Y124996D01*
X158172Y125028D01*
X158188Y125059D01*
X158207Y125089D01*
X158229Y125116D01*
X158252Y125142D01*
X158278Y125165D01*
X158306Y125187D01*
X158335Y125205D01*
X158366Y125221D01*
X158398Y125235D01*
X158432Y125245D01*
X158466Y125253D01*
X158500Y125257D01*
X158535Y125259D01*
X158570Y125257D01*
X158605Y125252D01*
X158639Y125245D01*
X158672Y125234D01*
X158704Y125221D01*
X158735Y125204D01*
X158765Y125186D01*
X158781Y125173D01*
X158781Y125173D01*
X158874Y125107D01*
X158955Y125060D01*
X159079Y124976D01*
X159237Y124945D01*
X159290Y124930D01*
X159401Y124909D01*
X159429Y124907D01*
X159587Y124875D01*
X159740Y124906D01*
X159741Y124906D01*
X159853Y124925D01*
X159919Y124942D01*
X160094Y124976D01*
X160250Y125080D01*
X160273Y125093D01*
X160366Y125158D01*
X160372Y125162D01*
X160524Y125264D01*
X160652Y125456D01*
X160675Y125488D01*
X160687Y125507D01*
X160811Y125694D01*
X160912Y126201D01*
X160811Y126708D01*
X160524Y127138D01*
X160094Y127425D01*
X159587Y127526D01*
X159317Y127473D01*
X159315Y127472D01*
X159315Y127472D01*
X159079Y127425D01*
X158904Y127308D01*
X158896Y127304D01*
X158848Y127271D01*
X158715Y127182D01*
X158691Y127171D01*
X158659Y127158D01*
X158625Y127149D01*
X158591Y127143D01*
X158556Y127139D01*
X158521Y127139D01*
X158486Y127141D01*
X158452Y127147D01*
X158418Y127156D01*
X158385Y127167D01*
X158353Y127182D01*
X158323Y127199D01*
X158294Y127219D01*
X158267Y127241D01*
X158242Y127265D01*
X158220Y127292D01*
X158199Y127320D01*
X158181Y127350D01*
X158166Y127382D01*
X158154Y127414D01*
X158145Y127448D01*
X158138Y127482D01*
X158135Y127517D01*
X158134Y127538D01*
Y128009D01*
X158136Y128044D01*
X158141Y128079D01*
X158148Y128113D01*
X158159Y128146D01*
X158172Y128178D01*
X158188Y128209D01*
X158207Y128239D01*
X158229Y128266D01*
X158252Y128292D01*
X158278Y128315D01*
X158306Y128337D01*
X158335Y128355D01*
X158366Y128371D01*
X158398Y128385D01*
X158432Y128395D01*
X158466Y128403D01*
X158500Y128407D01*
X158535Y128409D01*
X158570Y128407D01*
X158605Y128402D01*
X158639Y128395D01*
X158672Y128384D01*
X158704Y128371D01*
X158735Y128354D01*
X158765Y128335D01*
X158781Y128323D01*
X158781Y128323D01*
X158874Y128257D01*
X158949Y128213D01*
X159079Y128126D01*
X159242Y128093D01*
X159290Y128080D01*
X159401Y128059D01*
X159425Y128057D01*
X159587Y128025D01*
X159750Y128057D01*
X159853Y128075D01*
X159912Y128090D01*
X160094Y128126D01*
X160254Y128233D01*
X160273Y128243D01*
X160366Y128308D01*
X160369Y128310D01*
X160524Y128413D01*
X160657Y128612D01*
X160675Y128638D01*
X160685Y128654D01*
X160811Y128843D01*
X160912Y129350D01*
X160811Y129858D01*
X160524Y130288D01*
X160094Y130575D01*
X159587Y130676D01*
X159330Y130625D01*
X159315Y130622D01*
X159307Y130620D01*
X159079Y130575D01*
X158908Y130460D01*
X158896Y130454D01*
X158823Y130403D01*
X158717Y130333D01*
X158691Y130321D01*
X158659Y130308D01*
X158625Y130299D01*
X158591Y130292D01*
X158556Y130289D01*
X158521Y130289D01*
X158486Y130291D01*
X158452Y130297D01*
X158418Y130306D01*
X158385Y130317D01*
X158353Y130332D01*
X158323Y130349D01*
X158294Y130369D01*
X158267Y130391D01*
X158242Y130415D01*
X158220Y130442D01*
X158199Y130470D01*
X158181Y130500D01*
X158166Y130532D01*
X158154Y130564D01*
X158145Y130598D01*
X158138Y130632D01*
X158135Y130667D01*
X158134Y130687D01*
Y137460D01*
X158136Y137494D01*
X158141Y137529D01*
X158148Y137563D01*
X158159Y137596D01*
X158172Y137628D01*
X158188Y137659D01*
X158207Y137689D01*
X158229Y137716D01*
X158252Y137742D01*
X158278Y137766D01*
X158306Y137787D01*
X158335Y137805D01*
X158366Y137821D01*
X158398Y137835D01*
X158432Y137845D01*
X158466Y137853D01*
X158500Y137857D01*
X158535Y137858D01*
X158570Y137857D01*
X158605Y137852D01*
X158639Y137845D01*
X158672Y137834D01*
X158704Y137821D01*
X158735Y137804D01*
X158747Y137797D01*
X158773Y137779D01*
X158781Y137774D01*
X158781Y137774D01*
X158874Y137707D01*
X158934Y137672D01*
X159079Y137575D01*
X159257Y137539D01*
X159290Y137530D01*
X159401Y137509D01*
X159414Y137508D01*
X159587Y137474D01*
X159785Y137513D01*
X159853Y137525D01*
X159892Y137534D01*
X160094Y137575D01*
X160265Y137689D01*
X160273Y137693D01*
X160320Y137726D01*
X160524Y137862D01*
X160668Y138078D01*
X160675Y138088D01*
X160679Y138094D01*
X160811Y138292D01*
X160912Y138799D01*
X160811Y139306D01*
X160524Y139736D01*
X160094Y140024D01*
X159880Y140066D01*
X159879Y140067D01*
X159870Y140068D01*
X159587Y140125D01*
X159365Y140080D01*
X159315Y140072D01*
X159287Y140065D01*
X159079Y140024D01*
X158919Y139917D01*
X158896Y139903D01*
X158802Y139839D01*
X158794Y139833D01*
X158724Y139787D01*
X158723Y139786D01*
X158691Y139770D01*
X158659Y139758D01*
X158625Y139749D01*
X158591Y139743D01*
X158556Y139739D01*
X158521Y139739D01*
X158486Y139741D01*
X158452Y139747D01*
X158418Y139756D01*
X158385Y139767D01*
X158353Y139782D01*
X158323Y139799D01*
X158294Y139819D01*
X158267Y139841D01*
X158242Y139865D01*
X158220Y139892D01*
X158199Y139920D01*
X158181Y139950D01*
X158166Y139981D01*
X158154Y140014D01*
X158145Y140048D01*
X158138Y140082D01*
X158135Y140117D01*
X158134Y140138D01*
Y143049D01*
X159008Y143922D01*
X159079Y143874D01*
X159271Y143836D01*
X159349Y143818D01*
X159388Y143812D01*
X159587Y143773D01*
X159788Y143813D01*
X159801Y143815D01*
X159867Y143829D01*
X160094Y143874D01*
X160308Y144017D01*
X160323Y144027D01*
X160334Y144034D01*
X160355Y144049D01*
X161964D01*
X161964Y144049D01*
X162059Y143985D01*
X162077Y143975D01*
X162229Y143874D01*
X162427Y143834D01*
X162480Y143822D01*
X162534Y143813D01*
X162736Y143773D01*
X162928Y143811D01*
X162932Y143812D01*
X163044Y143834D01*
X163048Y143835D01*
X163243Y143874D01*
X163440Y144005D01*
X163458Y144016D01*
X163494Y144041D01*
X163505Y144049D01*
X165115D01*
X165115Y144049D01*
X165210Y143986D01*
X165216Y143983D01*
X165379Y143874D01*
X165602Y143830D01*
X165631Y143822D01*
X165660Y143818D01*
X165886Y143773D01*
X166393Y143874D01*
X166605Y144016D01*
X166608Y144017D01*
X166615Y144022D01*
X166654Y144049D01*
X168264D01*
X168264Y144049D01*
X168359Y143985D01*
X168373Y143978D01*
X168528Y143874D01*
X168730Y143834D01*
X168780Y143822D01*
X168831Y143814D01*
X169035Y143773D01*
X169226Y143811D01*
X169232Y143812D01*
X169344Y143834D01*
X169350Y143835D01*
X169543Y143874D01*
X169731Y144000D01*
X169757Y144016D01*
X169782Y144034D01*
X169973Y144161D01*
X170260Y144591D01*
X170307Y144825D01*
X170311Y144844D01*
X170314Y144864D01*
X170361Y145098D01*
X170260Y145606D01*
X170142Y145783D01*
X170134Y145796D01*
Y151049D01*
X171134Y152049D01*
X207180D01*
X207181Y152044D01*
X207287Y151886D01*
X207312Y151843D01*
X207377Y151752D01*
X207469Y151614D01*
X207606Y151522D01*
X207619Y151512D01*
X207712Y151447D01*
X207756Y151422D01*
X207899Y151327D01*
X208060Y151295D01*
X208131Y151276D01*
X208243Y151257D01*
X208255Y151256D01*
X208406Y151226D01*
X208560Y151256D01*
X208583Y151259D01*
X208694Y151279D01*
X208753Y151295D01*
X208913Y151327D01*
X209050Y151418D01*
X209111Y151454D01*
X209204Y151520D01*
X209212Y151526D01*
X209343Y151614D01*
X209434Y151750D01*
X209443Y151761D01*
X209508Y151854D01*
X209534Y151900D01*
X209630Y152044D01*
X209631Y152049D01*
X217634D01*
X218634Y151049D01*
D02*
G37*
G36*
X193008Y144591D02*
X193159Y144365D01*
X193163Y144359D01*
X193165Y144356D01*
X193295Y144161D01*
X193476Y144040D01*
X193481Y144037D01*
X193502Y144023D01*
X193725Y143874D01*
X193949Y143829D01*
X194000Y143818D01*
X194025Y143814D01*
X194232Y143773D01*
X194426Y143812D01*
X194452Y143815D01*
X194563Y143839D01*
X194564Y143839D01*
X194739Y143874D01*
X194886Y143972D01*
X194974Y144027D01*
X195014Y144057D01*
X195169Y144161D01*
X195260Y144296D01*
X195280Y144320D01*
X195305Y144344D01*
X195332Y144366D01*
X195361Y144386D01*
X195391Y144403D01*
X195423Y144417D01*
X195456Y144429D01*
X195490Y144437D01*
X195525Y144443D01*
X195559Y144445D01*
X195594Y144445D01*
X195629Y144441D01*
X195663Y144435D01*
X195697Y144425D01*
X195729Y144413D01*
X195761Y144398D01*
X195791Y144380D01*
X195819Y144359D01*
X195846Y144337D01*
X195854Y144328D01*
X196134Y144049D01*
Y142346D01*
X196056Y141951D01*
X196134Y141556D01*
Y139190D01*
X196056Y138799D01*
X196134Y138408D01*
Y132891D01*
X196056Y132500D01*
X196134Y132109D01*
Y126592D01*
X196056Y126201D01*
X196134Y125810D01*
Y120293D01*
X196056Y119902D01*
X196134Y119510D01*
Y113994D01*
X196056Y113602D01*
X196101Y113376D01*
X196101Y113375D01*
X196102Y113372D01*
X196134Y113211D01*
Y107694D01*
X196056Y107303D01*
X196101Y107078D01*
X196101Y107075D01*
X196104Y107065D01*
X196134Y106912D01*
Y104545D01*
X196056Y104154D01*
X196101Y103930D01*
X196101Y103925D01*
X196105Y103910D01*
X196134Y103762D01*
Y103549D01*
X195134Y102549D01*
X194578D01*
Y102885D01*
X194641Y102909D01*
X194739Y102929D01*
X194844Y102999D01*
X194910Y103035D01*
X195004Y103098D01*
X195065Y103146D01*
X195169Y103216D01*
X195239Y103320D01*
X195250Y103333D01*
X195317Y103424D01*
X195376Y103521D01*
X195385Y103538D01*
X195457Y103646D01*
X195485Y103788D01*
X195500Y103838D01*
X195522Y103949D01*
X195528Y104004D01*
X195558Y104154D01*
X195526Y104315D01*
X195512Y104402D01*
X195491Y104490D01*
X195457Y104661D01*
X195351Y104820D01*
X195349Y104823D01*
X195286Y104918D01*
X195283Y104921D01*
X195169Y105091D01*
X194739Y105378D01*
X194232Y105479D01*
X193725Y105378D01*
X193295Y105091D01*
X193008Y104661D01*
X192907Y104154D01*
X192958Y103898D01*
X192958Y103895D01*
X192959Y103893D01*
X193008Y103646D01*
X193116Y103485D01*
X193122Y103474D01*
X193185Y103379D01*
X193193Y103369D01*
X193295Y103216D01*
X193357Y103175D01*
X193374Y103147D01*
X193390Y103116D01*
X193404Y103084D01*
X193414Y103051D01*
X193421Y103016D01*
X193426Y102982D01*
X193427Y102947D01*
X193426Y102912D01*
X193421Y102878D01*
X193413Y102844D01*
X193403Y102810D01*
X193389Y102778D01*
X193373Y102747D01*
X193354Y102718D01*
X193333Y102690D01*
X193309Y102665D01*
X193283Y102641D01*
X193255Y102620D01*
X193226Y102601D01*
X193195Y102585D01*
X193163Y102572D01*
X193129Y102562D01*
X193095Y102554D01*
X193061Y102550D01*
X193027Y102549D01*
X192291D01*
X192256Y102550D01*
X192222Y102555D01*
X192188Y102562D01*
X192154Y102573D01*
X192122Y102586D01*
X192091Y102602D01*
X192062Y102621D01*
X192034Y102642D01*
X192008Y102666D01*
X191985Y102691D01*
X191964Y102719D01*
X191945Y102749D01*
X191929Y102779D01*
X191915Y102812D01*
X191905Y102845D01*
X191897Y102879D01*
X191893Y102914D01*
X191891Y102948D01*
X191893Y102983D01*
X191897Y103018D01*
X191905Y103052D01*
X191915Y103085D01*
X191929Y103118D01*
X191945Y103148D01*
X191964Y103178D01*
X191965Y103180D01*
X192020Y103216D01*
X192096Y103330D01*
X192153Y103405D01*
X192214Y103500D01*
X192226Y103525D01*
X192307Y103646D01*
X192337Y103797D01*
X192343Y103815D01*
X192367Y103926D01*
X192375Y103986D01*
X192408Y104154D01*
X192371Y104342D01*
X192366Y104378D01*
X192345Y104470D01*
X192307Y104661D01*
X192150Y104895D01*
X192149Y104898D01*
X192148Y104899D01*
X192020Y105091D01*
X191590Y105378D01*
X191083Y105479D01*
X190575Y105378D01*
X190188Y105119D01*
X190158Y105108D01*
X190125Y105099D01*
X190091Y105093D01*
X190056Y105089D01*
X190021Y105089D01*
X189986Y105091D01*
X189952Y105097D01*
X189918Y105106D01*
X189885Y105117D01*
X189853Y105132D01*
X189823Y105149D01*
X189794Y105169D01*
X189767Y105191D01*
X189742Y105215D01*
X189719Y105242D01*
X189699Y105270D01*
X189681Y105300D01*
X189666Y105332D01*
X189654Y105364D01*
X189645Y105398D01*
X189638Y105432D01*
X189635Y105467D01*
X189634Y105488D01*
Y105961D01*
X189636Y105995D01*
X189640Y106030D01*
X189648Y106064D01*
X189658Y106097D01*
X189672Y106130D01*
X189688Y106160D01*
X189707Y106190D01*
X189728Y106218D01*
X189751Y106243D01*
X189777Y106267D01*
X189805Y106288D01*
X189834Y106307D01*
X189865Y106323D01*
X189897Y106336D01*
X189931Y106347D01*
X189965Y106354D01*
X189999Y106359D01*
X190034Y106360D01*
X190069Y106359D01*
X190104Y106354D01*
X190138Y106347D01*
X190171Y106336D01*
X190203Y106323D01*
X190232Y106308D01*
X190276Y106279D01*
X190280Y106275D01*
X190280Y106275D01*
X190373Y106209D01*
X190433Y106174D01*
X190575Y106079D01*
X190739Y106046D01*
X190789Y106032D01*
X190900Y106011D01*
X190926Y106009D01*
X191083Y105978D01*
X191231Y106007D01*
X191240Y106008D01*
X191352Y106027D01*
X191434Y106048D01*
X191590Y106079D01*
X191726Y106170D01*
X191772Y106195D01*
X191865Y106260D01*
X191886Y106276D01*
X192020Y106366D01*
X192107Y106496D01*
X192108Y106498D01*
X192174Y106590D01*
X192210Y106650D01*
X192307Y106796D01*
X192343Y106975D01*
X192351Y107006D01*
X192372Y107118D01*
X192373Y107129D01*
X192408Y107303D01*
X192367Y107510D01*
X192357Y107570D01*
X192348Y107603D01*
X192307Y107810D01*
X192190Y107985D01*
X192188Y107989D01*
X192174Y108010D01*
X192020Y108240D01*
X191590Y108528D01*
X191083Y108629D01*
X190575Y108528D01*
X190145Y108240D01*
X190070Y108127D01*
X190061Y108120D01*
X190033Y108099D01*
X190003Y108082D01*
X189971Y108067D01*
X189939Y108054D01*
X189905Y108045D01*
X189871Y108038D01*
X189836Y108035D01*
X189801Y108035D01*
X189767Y108037D01*
X189732Y108043D01*
X189698Y108052D01*
X189665Y108063D01*
X189634Y108078D01*
X189603Y108095D01*
X189574Y108114D01*
X189547Y108137D01*
X189531Y108151D01*
X188634Y109048D01*
X183634D01*
X182636Y110047D01*
Y121464D01*
X182634Y121465D01*
Y121548D01*
X181980Y122202D01*
X181985Y122203D01*
X182283Y122402D01*
X182382Y122551D01*
X181634D01*
Y123551D01*
X182382D01*
X182283Y123700D01*
X181985Y123899D01*
X181985Y123899D01*
X182634Y124548D01*
Y124633D01*
X182636Y124634D01*
Y144051D01*
X183059Y144474D01*
X183059Y144474D01*
X183085Y144497D01*
X183112Y144519D01*
X183142Y144537D01*
X183173Y144554D01*
X183205Y144567D01*
X183238Y144578D01*
X183272Y144585D01*
X183307Y144590D01*
X183342Y144591D01*
X183376Y144590D01*
X183411Y144586D01*
X183445Y144578D01*
X183478Y144568D01*
X183511Y144554D01*
X183542Y144538D01*
X183571Y144519D01*
X183599Y144498D01*
X183625Y144475D01*
X183648Y144449D01*
X183669Y144422D01*
X183681Y144404D01*
X183681Y144404D01*
X183746Y144310D01*
X183751Y144304D01*
X183846Y144161D01*
X183980Y144072D01*
X183984Y144068D01*
X184077Y144002D01*
X184135Y143968D01*
X184276Y143874D01*
X184437Y143842D01*
X184494Y143826D01*
X184605Y143806D01*
X184630Y143803D01*
X184783Y143773D01*
X184931Y143802D01*
X184945Y143803D01*
X185057Y143822D01*
X185139Y143844D01*
X185291Y143874D01*
X185423Y143963D01*
X185476Y143993D01*
X185570Y144057D01*
X185590Y144074D01*
X185721Y144161D01*
X185807Y144290D01*
X185812Y144296D01*
X185878Y144388D01*
X185914Y144450D01*
X186008Y144591D01*
X186043Y144767D01*
X186053Y144805D01*
X186068Y144880D01*
X186083Y144969D01*
X186099Y145046D01*
X186618D01*
X186640Y144937D01*
X186649Y144880D01*
X186649Y144880D01*
X186673Y144769D01*
X186674Y144766D01*
X186708Y144591D01*
X186801Y144453D01*
X186860Y144358D01*
X186896Y144310D01*
X186996Y144161D01*
X187137Y144067D01*
X187177Y144035D01*
X187273Y143974D01*
X187293Y143963D01*
X187426Y143874D01*
X187575Y143844D01*
X187585Y143841D01*
X187696Y143815D01*
X187780Y143804D01*
X187933Y143773D01*
X188090Y143804D01*
X188148Y143811D01*
X188259Y143835D01*
X188287Y143843D01*
X188440Y143874D01*
X188567Y143958D01*
X188575Y143962D01*
X188671Y144023D01*
X188734Y144070D01*
X188870Y144161D01*
X188967Y144305D01*
X188993Y144340D01*
X189055Y144435D01*
X189063Y144450D01*
X189158Y144591D01*
X189194Y144774D01*
X189214Y144858D01*
X189217Y144880D01*
X189229Y144949D01*
X189248Y145046D01*
X189768D01*
X189798Y144891D01*
X189800Y144880D01*
X189801Y144880D01*
X189858Y144591D01*
X190003Y144375D01*
X190013Y144359D01*
X190018Y144351D01*
X190145Y144161D01*
X190324Y144042D01*
X190331Y144037D01*
X190364Y144015D01*
X190575Y143874D01*
X190797Y143830D01*
X190850Y143818D01*
X190876Y143814D01*
X191083Y143773D01*
X191277Y143812D01*
X191302Y143815D01*
X191413Y143839D01*
X191413Y143839D01*
X191590Y143874D01*
X191743Y143976D01*
X191824Y144027D01*
X191861Y144055D01*
X192020Y144161D01*
X192122Y144314D01*
X192146Y144345D01*
X192208Y144440D01*
X192212Y144449D01*
X192307Y144591D01*
X192339Y144752D01*
X192340Y144754D01*
X192365Y144864D01*
X192368Y144880D01*
X192388Y144995D01*
X192398Y145046D01*
X192917D01*
X193008Y144591D01*
D02*
G37*
G36*
X154777Y133049D02*
X154811Y133045D01*
X154845Y133037D01*
X154878Y133027D01*
X154911Y133013D01*
X154942Y132997D01*
X154971Y132979D01*
X154999Y132957D01*
X155025Y132934D01*
X155048Y132908D01*
X155069Y132880D01*
X155088Y132851D01*
X155104Y132820D01*
X155117Y132788D01*
X155128Y132755D01*
X155136Y132720D01*
X155140Y132686D01*
X155142Y132651D01*
X155112Y132500D01*
X155150Y132304D01*
X155154Y132276D01*
X155173Y132189D01*
X155212Y131993D01*
X155334Y131811D01*
X155369Y131755D01*
X155384Y131737D01*
X155500Y131563D01*
X155676Y131445D01*
X155689Y131435D01*
X155732Y131408D01*
X155930Y131275D01*
X156173Y131227D01*
X156209Y131219D01*
X156222Y131217D01*
X156437Y131175D01*
X156652Y131217D01*
X156661Y131219D01*
X156665Y131219D01*
X156665Y131219D01*
X156699Y131223D01*
X156734Y131225D01*
X156769Y131223D01*
X156804Y131219D01*
X156838Y131211D01*
X156871Y131201D01*
X156903Y131188D01*
X156934Y131172D01*
X156964Y131153D01*
X156991Y131132D01*
X157017Y131108D01*
X157041Y131082D01*
X157062Y131055D01*
X157081Y131026D01*
X157097Y130994D01*
X157110Y130962D01*
X157121Y130929D01*
X157128Y130895D01*
X157133Y130860D01*
X157135Y130825D01*
Y130825D01*
Y121636D01*
X157137Y121635D01*
Y120051D01*
X158137Y119051D01*
X158591D01*
X158649Y118964D01*
X158817Y118853D01*
X158854Y118825D01*
X158913Y118788D01*
X159079Y118677D01*
X159258Y118641D01*
X159266Y118639D01*
X159378Y118616D01*
X159400Y118613D01*
X159587Y118576D01*
X159782Y118615D01*
X159830Y118622D01*
X159900Y118639D01*
X160094Y118677D01*
X160246Y118779D01*
X160253Y118782D01*
X160348Y118844D01*
X160364Y118858D01*
X160524Y118964D01*
X160582Y119051D01*
X162637D01*
X163635Y118053D01*
Y116849D01*
X163584Y117103D01*
X163385Y117401D01*
X163236Y117500D01*
Y116752D01*
Y116004D01*
X163385Y116103D01*
X163584Y116401D01*
X163635Y116655D01*
Y115549D01*
X162971Y114885D01*
X162930Y114889D01*
X162736Y114928D01*
X162229Y114827D01*
X162024Y114690D01*
X162011Y114682D01*
X162000Y114674D01*
X161816Y114551D01*
X160507D01*
X160317Y114678D01*
X160298Y114691D01*
X160286Y114699D01*
X160094Y114827D01*
X159587Y114928D01*
X159336Y114878D01*
X159319Y114875D01*
X159309Y114873D01*
X159079Y114827D01*
X158901Y114708D01*
X158899Y114707D01*
X158888Y114699D01*
X158687Y114565D01*
X158399D01*
X158385Y114551D01*
X157357D01*
X157163Y114681D01*
X157148Y114691D01*
X157139Y114697D01*
X156944Y114827D01*
X156437Y114928D01*
X156189Y114878D01*
X156169Y114875D01*
X156157Y114872D01*
X155930Y114827D01*
X155754Y114709D01*
X155749Y114707D01*
X155719Y114686D01*
X155517Y114551D01*
X153637D01*
X152637Y115551D01*
Y131854D01*
X152638Y131851D01*
X152787Y131752D01*
Y132500D01*
X153287D01*
Y133000D01*
X154036D01*
X154002Y133051D01*
X154742D01*
X154777Y133049D01*
D02*
G37*
%LPC*%
G36*
X178484Y146424D02*
X177977Y146323D01*
X177547Y146036D01*
X177260Y145606D01*
X177159Y145098D01*
X177260Y144591D01*
X177547Y144161D01*
X177977Y143874D01*
X178484Y143773D01*
X178991Y143874D01*
X179421Y144161D01*
X179709Y144591D01*
X179810Y145098D01*
X179709Y145606D01*
X179421Y146036D01*
X178991Y146323D01*
X178484Y146424D01*
D02*
G37*
G36*
X175335D02*
X174827Y146323D01*
X174397Y146036D01*
X174110Y145606D01*
X174009Y145098D01*
X174110Y144591D01*
X174397Y144161D01*
X174827Y143874D01*
X175335Y143773D01*
X175842Y143874D01*
X176272Y144161D01*
X176559Y144591D01*
X176660Y145098D01*
X176559Y145606D01*
X176272Y146036D01*
X175842Y146323D01*
X175335Y146424D01*
D02*
G37*
G36*
X172185D02*
X171678Y146323D01*
X171248Y146036D01*
X170960Y145606D01*
X170860Y145098D01*
X170960Y144591D01*
X171248Y144161D01*
X171678Y143874D01*
X172185Y143773D01*
X172692Y143874D01*
X173122Y144161D01*
X173410Y144591D01*
X173511Y145098D01*
X173410Y145606D01*
X173122Y146036D01*
X172692Y146323D01*
X172185Y146424D01*
D02*
G37*
G36*
X160087Y142697D02*
Y142449D01*
X160335D01*
X160236Y142598D01*
X160087Y142697D01*
D02*
G37*
G36*
X159087D02*
X158938Y142598D01*
X158838Y142449D01*
X159087D01*
Y142697D01*
D02*
G37*
G36*
X160335Y141449D02*
X160087D01*
Y141200D01*
X160236Y141300D01*
X160335Y141449D01*
D02*
G37*
G36*
X159087D02*
X158838D01*
X158938Y141300D01*
X159087Y141200D01*
Y141449D01*
D02*
G37*
G36*
X178484Y143274D02*
X177977Y143173D01*
X177547Y142886D01*
X177260Y142456D01*
X177159Y141949D01*
X177260Y141442D01*
X177547Y141012D01*
X177977Y140724D01*
X178484Y140623D01*
X178991Y140724D01*
X179421Y141012D01*
X179709Y141442D01*
X179810Y141949D01*
X179709Y142456D01*
X179421Y142886D01*
X178991Y143173D01*
X178484Y143274D01*
D02*
G37*
G36*
X172185D02*
X171678Y143173D01*
X171248Y142886D01*
X170960Y142456D01*
X170860Y141949D01*
X170960Y141442D01*
X171248Y141012D01*
X171678Y140724D01*
X172185Y140623D01*
X172692Y140724D01*
X173122Y141012D01*
X173410Y141442D01*
X173511Y141949D01*
X173410Y142456D01*
X173122Y142886D01*
X172692Y143173D01*
X172185Y143274D01*
D02*
G37*
G36*
X169035D02*
X168528Y143173D01*
X168098Y142886D01*
X167811Y142456D01*
X167710Y141949D01*
X167811Y141442D01*
X168098Y141012D01*
X168528Y140724D01*
X169035Y140623D01*
X169543Y140724D01*
X169973Y141012D01*
X170260Y141442D01*
X170361Y141949D01*
X170260Y142456D01*
X169973Y142886D01*
X169543Y143173D01*
X169035Y143274D01*
D02*
G37*
G36*
X165886D02*
X165379Y143173D01*
X164949Y142886D01*
X164661Y142456D01*
X164560Y141949D01*
X164661Y141442D01*
X164949Y141012D01*
X165379Y140724D01*
X165886Y140623D01*
X166393Y140724D01*
X166823Y141012D01*
X167110Y141442D01*
X167211Y141949D01*
X167110Y142456D01*
X166823Y142886D01*
X166393Y143173D01*
X165886Y143274D01*
D02*
G37*
G36*
X162736D02*
X162229Y143173D01*
X161799Y142886D01*
X161512Y142456D01*
X161411Y141949D01*
X161512Y141442D01*
X161799Y141012D01*
X162229Y140724D01*
X162736Y140623D01*
X163243Y140724D01*
X163673Y141012D01*
X163961Y141442D01*
X164062Y141949D01*
X163961Y142456D01*
X163673Y142886D01*
X163243Y143173D01*
X162736Y143274D01*
D02*
G37*
G36*
X178484Y140125D02*
X177977Y140024D01*
X177547Y139736D01*
X177260Y139306D01*
X177159Y138799D01*
X177260Y138292D01*
X177547Y137862D01*
X177977Y137575D01*
X178484Y137474D01*
X178991Y137575D01*
X179421Y137862D01*
X179709Y138292D01*
X179810Y138799D01*
X179709Y139306D01*
X179421Y139736D01*
X178991Y140024D01*
X178484Y140125D01*
D02*
G37*
G36*
X175335D02*
X174827Y140024D01*
X174397Y139736D01*
X174110Y139306D01*
X174009Y138799D01*
X174110Y138292D01*
X174397Y137862D01*
X174827Y137575D01*
X175335Y137474D01*
X175842Y137575D01*
X176272Y137862D01*
X176559Y138292D01*
X176660Y138799D01*
X176559Y139306D01*
X176272Y139736D01*
X175842Y140024D01*
X175335Y140125D01*
D02*
G37*
G36*
X172185D02*
X171678Y140024D01*
X171248Y139736D01*
X170960Y139306D01*
X170860Y138799D01*
X170960Y138292D01*
X171248Y137862D01*
X171678Y137575D01*
X172185Y137474D01*
X172692Y137575D01*
X173122Y137862D01*
X173410Y138292D01*
X173511Y138799D01*
X173410Y139306D01*
X173122Y139736D01*
X172692Y140024D01*
X172185Y140125D01*
D02*
G37*
G36*
X169035D02*
X168528Y140024D01*
X168098Y139736D01*
X167811Y139306D01*
X167710Y138799D01*
X167811Y138292D01*
X168098Y137862D01*
X168528Y137575D01*
X169035Y137474D01*
X169543Y137575D01*
X169973Y137862D01*
X170260Y138292D01*
X170361Y138799D01*
X170260Y139306D01*
X169973Y139736D01*
X169543Y140024D01*
X169035Y140125D01*
D02*
G37*
G36*
X165886D02*
X165379Y140024D01*
X164949Y139736D01*
X164661Y139306D01*
X164560Y138799D01*
X164661Y138292D01*
X164949Y137862D01*
X165379Y137575D01*
X165886Y137474D01*
X166393Y137575D01*
X166823Y137862D01*
X167110Y138292D01*
X167211Y138799D01*
X167110Y139306D01*
X166823Y139736D01*
X166393Y140024D01*
X165886Y140125D01*
D02*
G37*
G36*
X162736D02*
X162229Y140024D01*
X161799Y139736D01*
X161512Y139306D01*
X161411Y138799D01*
X161512Y138292D01*
X161799Y137862D01*
X162229Y137575D01*
X162736Y137474D01*
X163243Y137575D01*
X163673Y137862D01*
X163961Y138292D01*
X164062Y138799D01*
X163961Y139306D01*
X163673Y139736D01*
X163243Y140024D01*
X162736Y140125D01*
D02*
G37*
G36*
X160087Y136398D02*
Y136150D01*
X160335D01*
X160236Y136299D01*
X160087Y136398D01*
D02*
G37*
G36*
X159087D02*
X158938Y136299D01*
X158838Y136150D01*
X159087D01*
Y136398D01*
D02*
G37*
G36*
X160335Y135150D02*
X160087D01*
Y134901D01*
X160236Y135001D01*
X160335Y135150D01*
D02*
G37*
G36*
X159087D02*
X158838D01*
X158938Y135001D01*
X159087Y134901D01*
Y135150D01*
D02*
G37*
G36*
X178484Y136975D02*
X177977Y136874D01*
X177547Y136587D01*
X177260Y136157D01*
X177159Y135650D01*
X177260Y135142D01*
X177547Y134712D01*
X177977Y134425D01*
X178484Y134324D01*
X178991Y134425D01*
X179421Y134712D01*
X179709Y135142D01*
X179810Y135650D01*
X179709Y136157D01*
X179421Y136587D01*
X178991Y136874D01*
X178484Y136975D01*
D02*
G37*
G36*
X162736D02*
X162229Y136874D01*
X161799Y136587D01*
X161512Y136157D01*
X161411Y135650D01*
X161512Y135142D01*
X161799Y134712D01*
X162229Y134425D01*
X162736Y134324D01*
X163243Y134425D01*
X163673Y134712D01*
X163961Y135142D01*
X164062Y135650D01*
X163961Y136157D01*
X163673Y136587D01*
X163243Y136874D01*
X162736Y136975D01*
D02*
G37*
G36*
X178484Y133826D02*
X177977Y133725D01*
X177547Y133437D01*
X177260Y133007D01*
X177159Y132500D01*
X177260Y131993D01*
X177547Y131563D01*
X177977Y131275D01*
X178484Y131175D01*
X178991Y131275D01*
X179421Y131563D01*
X179709Y131993D01*
X179810Y132500D01*
X179709Y133007D01*
X179421Y133437D01*
X178991Y133725D01*
X178484Y133826D01*
D02*
G37*
G36*
X172185D02*
X171678Y133725D01*
X171248Y133437D01*
X170960Y133007D01*
X170860Y132500D01*
X170960Y131993D01*
X171248Y131563D01*
X171678Y131275D01*
X172185Y131175D01*
X172692Y131275D01*
X173122Y131563D01*
X173410Y131993D01*
X173511Y132500D01*
X173410Y133007D01*
X173122Y133437D01*
X172692Y133725D01*
X172185Y133826D01*
D02*
G37*
G36*
X169035D02*
X168528Y133725D01*
X168098Y133437D01*
X167811Y133007D01*
X167710Y132500D01*
X167811Y131993D01*
X168098Y131563D01*
X168528Y131275D01*
X169035Y131175D01*
X169543Y131275D01*
X169973Y131563D01*
X170260Y131993D01*
X170361Y132500D01*
X170260Y133007D01*
X169973Y133437D01*
X169543Y133725D01*
X169035Y133826D01*
D02*
G37*
G36*
X165886D02*
X165379Y133725D01*
X164949Y133437D01*
X164661Y133007D01*
X164560Y132500D01*
X164661Y131993D01*
X164949Y131563D01*
X165379Y131275D01*
X165886Y131175D01*
X166393Y131275D01*
X166823Y131563D01*
X167110Y131993D01*
X167211Y132500D01*
X167110Y133007D01*
X166823Y133437D01*
X166393Y133725D01*
X165886Y133826D01*
D02*
G37*
G36*
X178484Y130676D02*
X177977Y130575D01*
X177547Y130288D01*
X177260Y129858D01*
X177159Y129350D01*
X177260Y128843D01*
X177547Y128413D01*
X177977Y128126D01*
X178484Y128025D01*
X178991Y128126D01*
X179421Y128413D01*
X179709Y128843D01*
X179810Y129350D01*
X179709Y129858D01*
X179421Y130288D01*
X178991Y130575D01*
X178484Y130676D01*
D02*
G37*
G36*
X175335D02*
X174827Y130575D01*
X174397Y130288D01*
X174110Y129858D01*
X174009Y129350D01*
X174110Y128843D01*
X174397Y128413D01*
X174827Y128126D01*
X175335Y128025D01*
X175842Y128126D01*
X176272Y128413D01*
X176559Y128843D01*
X176660Y129350D01*
X176559Y129858D01*
X176272Y130288D01*
X175842Y130575D01*
X175335Y130676D01*
D02*
G37*
G36*
X172185D02*
X171678Y130575D01*
X171248Y130288D01*
X170960Y129858D01*
X170860Y129350D01*
X170960Y128843D01*
X171248Y128413D01*
X171678Y128126D01*
X172185Y128025D01*
X172692Y128126D01*
X173122Y128413D01*
X173410Y128843D01*
X173511Y129350D01*
X173410Y129858D01*
X173122Y130288D01*
X172692Y130575D01*
X172185Y130676D01*
D02*
G37*
G36*
X162736D02*
X162229Y130575D01*
X161799Y130288D01*
X161512Y129858D01*
X161411Y129350D01*
X161512Y128843D01*
X161799Y128413D01*
X162229Y128126D01*
X162736Y128025D01*
X163243Y128126D01*
X163673Y128413D01*
X163961Y128843D01*
X164062Y129350D01*
X163961Y129858D01*
X163673Y130288D01*
X163243Y130575D01*
X162736Y130676D01*
D02*
G37*
G36*
X178484Y127526D02*
X177977Y127425D01*
X177547Y127138D01*
X177260Y126708D01*
X177159Y126201D01*
X177260Y125694D01*
X177547Y125264D01*
X177977Y124976D01*
X178484Y124875D01*
X178991Y124976D01*
X179421Y125264D01*
X179709Y125694D01*
X179810Y126201D01*
X179709Y126708D01*
X179421Y127138D01*
X178991Y127425D01*
X178484Y127526D01*
D02*
G37*
G36*
X175335D02*
X174827Y127425D01*
X174397Y127138D01*
X174110Y126708D01*
X174009Y126201D01*
X174110Y125694D01*
X174397Y125264D01*
X174827Y124976D01*
X175335Y124875D01*
X175842Y124976D01*
X176272Y125264D01*
X176559Y125694D01*
X176660Y126201D01*
X176559Y126708D01*
X176272Y127138D01*
X175842Y127425D01*
X175335Y127526D01*
D02*
G37*
G36*
X172185D02*
X171678Y127425D01*
X171248Y127138D01*
X170960Y126708D01*
X170860Y126201D01*
X170960Y125694D01*
X171248Y125264D01*
X171678Y124976D01*
X172185Y124875D01*
X172692Y124976D01*
X173122Y125264D01*
X173410Y125694D01*
X173511Y126201D01*
X173410Y126708D01*
X173122Y127138D01*
X172692Y127425D01*
X172185Y127526D01*
D02*
G37*
G36*
X169035D02*
X168528Y127425D01*
X168098Y127138D01*
X167811Y126708D01*
X167710Y126201D01*
X167811Y125694D01*
X168098Y125264D01*
X168528Y124976D01*
X169035Y124875D01*
X169543Y124976D01*
X169973Y125264D01*
X170260Y125694D01*
X170361Y126201D01*
X170260Y126708D01*
X169973Y127138D01*
X169543Y127425D01*
X169035Y127526D01*
D02*
G37*
G36*
X165886D02*
X165379Y127425D01*
X164949Y127138D01*
X164661Y126708D01*
X164560Y126201D01*
X164661Y125694D01*
X164949Y125264D01*
X165379Y124976D01*
X165886Y124875D01*
X166393Y124976D01*
X166823Y125264D01*
X167110Y125694D01*
X167211Y126201D01*
X167110Y126708D01*
X166823Y127138D01*
X166393Y127425D01*
X165886Y127526D01*
D02*
G37*
G36*
X162736D02*
X162229Y127425D01*
X161799Y127138D01*
X161512Y126708D01*
X161411Y126201D01*
X161512Y125694D01*
X161799Y125264D01*
X162229Y124976D01*
X162736Y124875D01*
X163243Y124976D01*
X163673Y125264D01*
X163961Y125694D01*
X164062Y126201D01*
X163961Y126708D01*
X163673Y127138D01*
X163243Y127425D01*
X162736Y127526D01*
D02*
G37*
G36*
Y124377D02*
X162229Y124276D01*
X161799Y123988D01*
X161512Y123558D01*
X161411Y123051D01*
X161512Y122544D01*
X161799Y122114D01*
X162229Y121827D01*
X162736Y121726D01*
X163243Y121827D01*
X163673Y122114D01*
X163961Y122544D01*
X164062Y123051D01*
X163961Y123558D01*
X163673Y123988D01*
X163243Y124276D01*
X162736Y124377D01*
D02*
G37*
G36*
X178484Y121227D02*
X177977Y121126D01*
X177547Y120839D01*
X177260Y120409D01*
X177159Y119902D01*
X177260Y119394D01*
X177547Y118964D01*
X177977Y118677D01*
X178484Y118576D01*
X178991Y118677D01*
X179421Y118964D01*
X179709Y119394D01*
X179810Y119902D01*
X179709Y120409D01*
X179421Y120839D01*
X178991Y121126D01*
X178484Y121227D01*
D02*
G37*
G36*
X175335D02*
X174827Y121126D01*
X174397Y120839D01*
X174110Y120409D01*
X174009Y119902D01*
X174110Y119394D01*
X174397Y118964D01*
X174827Y118677D01*
X175335Y118576D01*
X175842Y118677D01*
X176272Y118964D01*
X176559Y119394D01*
X176660Y119902D01*
X176559Y120409D01*
X176272Y120839D01*
X175842Y121126D01*
X175335Y121227D01*
D02*
G37*
G36*
X172185D02*
X171678Y121126D01*
X171248Y120839D01*
X170960Y120409D01*
X170860Y119902D01*
X170960Y119394D01*
X171248Y118964D01*
X171678Y118677D01*
X172185Y118576D01*
X172692Y118677D01*
X173122Y118964D01*
X173410Y119394D01*
X173511Y119902D01*
X173410Y120409D01*
X173122Y120839D01*
X172692Y121126D01*
X172185Y121227D01*
D02*
G37*
G36*
X169035D02*
X168528Y121126D01*
X168098Y120839D01*
X167811Y120409D01*
X167710Y119902D01*
X167811Y119394D01*
X168098Y118964D01*
X168528Y118677D01*
X169035Y118576D01*
X169543Y118677D01*
X169973Y118964D01*
X170260Y119394D01*
X170361Y119902D01*
X170260Y120409D01*
X169973Y120839D01*
X169543Y121126D01*
X169035Y121227D01*
D02*
G37*
G36*
X178484Y118078D02*
X177977Y117977D01*
X177547Y117689D01*
X177260Y117259D01*
X177159Y116752D01*
X177260Y116245D01*
X177547Y115815D01*
X177977Y115527D01*
X178484Y115427D01*
X178991Y115527D01*
X179421Y115815D01*
X179709Y116245D01*
X179810Y116752D01*
X179709Y117259D01*
X179421Y117689D01*
X178991Y117977D01*
X178484Y118078D01*
D02*
G37*
G36*
X175335D02*
X174827Y117977D01*
X174397Y117689D01*
X174110Y117259D01*
X174009Y116752D01*
X174110Y116245D01*
X174397Y115815D01*
X174827Y115527D01*
X175335Y115427D01*
X175842Y115527D01*
X176272Y115815D01*
X176559Y116245D01*
X176660Y116752D01*
X176559Y117259D01*
X176272Y117689D01*
X175842Y117977D01*
X175335Y118078D01*
D02*
G37*
G36*
X172185D02*
X171678Y117977D01*
X171248Y117689D01*
X170960Y117259D01*
X170860Y116752D01*
X170960Y116245D01*
X171248Y115815D01*
X171678Y115527D01*
X172185Y115427D01*
X172692Y115527D01*
X173122Y115815D01*
X173410Y116245D01*
X173511Y116752D01*
X173410Y117259D01*
X173122Y117689D01*
X172692Y117977D01*
X172185Y118078D01*
D02*
G37*
G36*
Y114928D02*
X171678Y114827D01*
X171248Y114540D01*
X170960Y114110D01*
X170860Y113602D01*
X170960Y113095D01*
X171248Y112665D01*
X171678Y112378D01*
X172185Y112277D01*
X172692Y112378D01*
X173122Y112665D01*
X173410Y113095D01*
X173511Y113602D01*
X173410Y114110D01*
X173122Y114540D01*
X172692Y114827D01*
X172185Y114928D01*
D02*
G37*
G36*
X169035D02*
X168528Y114827D01*
X168098Y114540D01*
X167811Y114110D01*
X167710Y113602D01*
X167811Y113095D01*
X168098Y112665D01*
X168528Y112378D01*
X169035Y112277D01*
X169543Y112378D01*
X169973Y112665D01*
X170260Y113095D01*
X170361Y113602D01*
X170260Y114110D01*
X169973Y114540D01*
X169543Y114827D01*
X169035Y114928D01*
D02*
G37*
G36*
X178484Y111778D02*
X177977Y111677D01*
X177547Y111390D01*
X177260Y110960D01*
X177159Y110453D01*
X177260Y109946D01*
X177547Y109516D01*
X177977Y109228D01*
X178484Y109127D01*
X178991Y109228D01*
X179421Y109516D01*
X179709Y109946D01*
X179810Y110453D01*
X179709Y110960D01*
X179421Y111390D01*
X178991Y111677D01*
X178484Y111778D01*
D02*
G37*
G36*
X172185D02*
X171678Y111677D01*
X171248Y111390D01*
X170960Y110960D01*
X170860Y110453D01*
X170960Y109946D01*
X171248Y109516D01*
X171678Y109228D01*
X172185Y109127D01*
X172692Y109228D01*
X173122Y109516D01*
X173410Y109946D01*
X173511Y110453D01*
X173410Y110960D01*
X173122Y111390D01*
X172692Y111677D01*
X172185Y111778D01*
D02*
G37*
G36*
X178984Y108052D02*
Y107803D01*
X179233D01*
X179133Y107952D01*
X178984Y108052D01*
D02*
G37*
G36*
X177984D02*
X177835Y107952D01*
X177736Y107803D01*
X177984D01*
Y108052D01*
D02*
G37*
G36*
X179233Y106803D02*
X178984D01*
Y106555D01*
X179133Y106654D01*
X179233Y106803D01*
D02*
G37*
G36*
X177984D02*
X177736D01*
X177835Y106654D01*
X177984Y106555D01*
Y106803D01*
D02*
G37*
G36*
X191083Y143274D02*
X190575Y143173D01*
X190145Y142886D01*
X189858Y142456D01*
X189757Y141949D01*
X189858Y141442D01*
X190145Y141012D01*
X190575Y140724D01*
X191083Y140623D01*
X191590Y140724D01*
X192020Y141012D01*
X192307Y141442D01*
X192408Y141949D01*
X192307Y142456D01*
X192020Y142886D01*
X191590Y143173D01*
X191083Y143274D01*
D02*
G37*
G36*
X187933D02*
X187426Y143173D01*
X186996Y142886D01*
X186708Y142456D01*
X186608Y141949D01*
X186708Y141442D01*
X186996Y141012D01*
X187426Y140724D01*
X187933Y140623D01*
X188440Y140724D01*
X188870Y141012D01*
X189158Y141442D01*
X189259Y141949D01*
X189158Y142456D01*
X188870Y142886D01*
X188440Y143173D01*
X187933Y143274D01*
D02*
G37*
G36*
X184783D02*
X184276Y143173D01*
X183846Y142886D01*
X183559Y142456D01*
X183458Y141949D01*
X183559Y141442D01*
X183846Y141012D01*
X184276Y140724D01*
X184783Y140623D01*
X185291Y140724D01*
X185721Y141012D01*
X186008Y141442D01*
X186109Y141949D01*
X186008Y142456D01*
X185721Y142886D01*
X185291Y143173D01*
X184783Y143274D01*
D02*
G37*
G36*
X185284Y139548D02*
Y139299D01*
X185532D01*
X185432Y139448D01*
X185284Y139548D01*
D02*
G37*
G36*
X184283D02*
X184135Y139448D01*
X184035Y139299D01*
X184283D01*
Y139548D01*
D02*
G37*
G36*
X185532Y138299D02*
X185284D01*
Y138051D01*
X185432Y138150D01*
X185532Y138299D01*
D02*
G37*
G36*
X184283D02*
X184035D01*
X184135Y138150D01*
X184283Y138051D01*
Y138299D01*
D02*
G37*
G36*
X194232Y140125D02*
X193725Y140024D01*
X193295Y139736D01*
X193008Y139306D01*
X192907Y138799D01*
X193008Y138292D01*
X193295Y137862D01*
X193725Y137575D01*
X194232Y137474D01*
X194739Y137575D01*
X195169Y137862D01*
X195457Y138292D01*
X195558Y138799D01*
X195457Y139306D01*
X195169Y139736D01*
X194739Y140024D01*
X194232Y140125D01*
D02*
G37*
G36*
X191083D02*
X190575Y140024D01*
X190145Y139736D01*
X189858Y139306D01*
X189757Y138799D01*
X189858Y138292D01*
X190145Y137862D01*
X190575Y137575D01*
X191083Y137474D01*
X191590Y137575D01*
X192020Y137862D01*
X192307Y138292D01*
X192408Y138799D01*
X192307Y139306D01*
X192020Y139736D01*
X191590Y140024D01*
X191083Y140125D01*
D02*
G37*
G36*
Y136975D02*
X190575Y136874D01*
X190145Y136587D01*
X189858Y136157D01*
X189757Y135650D01*
X189858Y135142D01*
X190145Y134712D01*
X190575Y134425D01*
X191083Y134324D01*
X191590Y134425D01*
X192020Y134712D01*
X192307Y135142D01*
X192408Y135650D01*
X192307Y136157D01*
X192020Y136587D01*
X191590Y136874D01*
X191083Y136975D01*
D02*
G37*
G36*
X184783D02*
X184276Y136874D01*
X183846Y136587D01*
X183559Y136157D01*
X183458Y135650D01*
X183559Y135142D01*
X183846Y134712D01*
X184276Y134425D01*
X184783Y134324D01*
X185291Y134425D01*
X185721Y134712D01*
X186008Y135142D01*
X186109Y135650D01*
X186008Y136157D01*
X185721Y136587D01*
X185291Y136874D01*
X184783Y136975D01*
D02*
G37*
G36*
X191583Y133248D02*
Y133000D01*
X191831D01*
X191732Y133149D01*
X191583Y133248D01*
D02*
G37*
G36*
X190583D02*
X190434Y133149D01*
X190334Y133000D01*
X190583D01*
Y133248D01*
D02*
G37*
G36*
X191831Y132000D02*
X191583D01*
Y131752D01*
X191732Y131851D01*
X191831Y132000D01*
D02*
G37*
G36*
X190583D02*
X190334D01*
X190434Y131851D01*
X190583Y131752D01*
Y132000D01*
D02*
G37*
G36*
X184783Y133826D02*
X184276Y133725D01*
X183846Y133437D01*
X183559Y133007D01*
X183458Y132500D01*
X183559Y131993D01*
X183846Y131563D01*
X184276Y131275D01*
X184783Y131175D01*
X185291Y131275D01*
X185721Y131563D01*
X186008Y131993D01*
X186109Y132500D01*
X186008Y133007D01*
X185721Y133437D01*
X185291Y133725D01*
X184783Y133826D01*
D02*
G37*
G36*
X191083Y130676D02*
X190575Y130575D01*
X190145Y130288D01*
X189858Y129858D01*
X189757Y129350D01*
X189858Y128843D01*
X190145Y128413D01*
X190575Y128126D01*
X191083Y128025D01*
X191590Y128126D01*
X192020Y128413D01*
X192307Y128843D01*
X192408Y129350D01*
X192307Y129858D01*
X192020Y130288D01*
X191590Y130575D01*
X191083Y130676D01*
D02*
G37*
G36*
X187933D02*
X187426Y130575D01*
X186996Y130288D01*
X186708Y129858D01*
X186608Y129350D01*
X186708Y128843D01*
X186996Y128413D01*
X187426Y128126D01*
X187933Y128025D01*
X188440Y128126D01*
X188870Y128413D01*
X189158Y128843D01*
X189259Y129350D01*
X189158Y129858D01*
X188870Y130288D01*
X188440Y130575D01*
X187933Y130676D01*
D02*
G37*
G36*
X184783D02*
X184276Y130575D01*
X183846Y130288D01*
X183559Y129858D01*
X183458Y129350D01*
X183559Y128843D01*
X183846Y128413D01*
X184276Y128126D01*
X184783Y128025D01*
X185291Y128126D01*
X185721Y128413D01*
X186008Y128843D01*
X186109Y129350D01*
X186008Y129858D01*
X185721Y130288D01*
X185291Y130575D01*
X184783Y130676D01*
D02*
G37*
G36*
X194234Y127527D02*
X193727Y127426D01*
X193727Y127426D01*
X193725Y127425D01*
X193295Y127138D01*
X193008Y126708D01*
X192907Y126201D01*
X193008Y125694D01*
X193295Y125264D01*
X193725Y124976D01*
X194232Y124875D01*
X194739Y124976D01*
X194740Y124976D01*
X194741Y124977D01*
X195171Y125264D01*
X195458Y125694D01*
X195559Y126201D01*
X195458Y126708D01*
X195171Y127138D01*
X194741Y127426D01*
X194234Y127527D01*
D02*
G37*
G36*
X187933D02*
X187426Y127426D01*
X186996Y127138D01*
X186708Y126708D01*
X186607Y126201D01*
X186708Y125694D01*
X186708Y125694D01*
X186708Y125694D01*
X186996Y125264D01*
X187426Y124976D01*
X187933Y124875D01*
X188440Y124976D01*
X188870Y125264D01*
X189158Y125694D01*
X189259Y126201D01*
X189158Y126708D01*
X189157Y126708D01*
X189157Y126708D01*
X188870Y127138D01*
X188440Y127426D01*
X187933Y127527D01*
D02*
G37*
G36*
X184784D02*
X184277Y127426D01*
X183847Y127138D01*
X183846Y127138D01*
X183846Y127138D01*
X183559Y126708D01*
X183458Y126201D01*
X183559Y125694D01*
X183846Y125264D01*
X184276Y124976D01*
X184783Y124875D01*
X185291Y124976D01*
X185721Y125264D01*
X185721Y125264D01*
X185721Y125264D01*
X186008Y125694D01*
X186109Y126201D01*
X186008Y126708D01*
X185721Y127138D01*
X185291Y127426D01*
X184784Y127527D01*
D02*
G37*
G36*
X194232Y121227D02*
X193725Y121126D01*
X193295Y120839D01*
X193008Y120409D01*
X192907Y119902D01*
X193008Y119394D01*
X193295Y118964D01*
X193725Y118677D01*
X194232Y118576D01*
X194739Y118677D01*
X195169Y118964D01*
X195457Y119394D01*
X195558Y119902D01*
X195457Y120409D01*
X195169Y120839D01*
X194739Y121126D01*
X194232Y121227D01*
D02*
G37*
G36*
X191083D02*
X190575Y121126D01*
X190145Y120839D01*
X189858Y120409D01*
X189757Y119902D01*
X189858Y119394D01*
X190145Y118964D01*
X190575Y118677D01*
X191083Y118576D01*
X191590Y118677D01*
X192020Y118964D01*
X192307Y119394D01*
X192408Y119902D01*
X192307Y120409D01*
X192020Y120839D01*
X191590Y121126D01*
X191083Y121227D01*
D02*
G37*
G36*
X187933D02*
X187426Y121126D01*
X186996Y120839D01*
X186708Y120409D01*
X186608Y119902D01*
X186708Y119394D01*
X186996Y118964D01*
X187426Y118677D01*
X187933Y118576D01*
X188440Y118677D01*
X188870Y118964D01*
X189158Y119394D01*
X189259Y119902D01*
X189158Y120409D01*
X188870Y120839D01*
X188440Y121126D01*
X187933Y121227D01*
D02*
G37*
G36*
X184783D02*
X184276Y121126D01*
X183846Y120839D01*
X183559Y120409D01*
X183458Y119902D01*
X183559Y119394D01*
X183846Y118964D01*
X184276Y118677D01*
X184783Y118576D01*
X185291Y118677D01*
X185721Y118964D01*
X186008Y119394D01*
X186109Y119902D01*
X186008Y120409D01*
X185721Y120839D01*
X185291Y121126D01*
X184783Y121227D01*
D02*
G37*
G36*
X191083Y118078D02*
X190575Y117977D01*
X190145Y117689D01*
X189858Y117259D01*
X189757Y116752D01*
X189858Y116245D01*
X190145Y115815D01*
X190575Y115527D01*
X191083Y115427D01*
X191590Y115527D01*
X192020Y115815D01*
X192307Y116245D01*
X192408Y116752D01*
X192307Y117259D01*
X192020Y117689D01*
X191590Y117977D01*
X191083Y118078D01*
D02*
G37*
G36*
X187933D02*
X187426Y117977D01*
X186996Y117689D01*
X186708Y117259D01*
X186608Y116752D01*
X186708Y116245D01*
X186996Y115815D01*
X187426Y115527D01*
X187933Y115427D01*
X188440Y115527D01*
X188870Y115815D01*
X189158Y116245D01*
X189259Y116752D01*
X189158Y117259D01*
X188870Y117689D01*
X188440Y117977D01*
X187933Y118078D01*
D02*
G37*
G36*
X184783D02*
X184276Y117977D01*
X183846Y117689D01*
X183559Y117259D01*
X183458Y116752D01*
X183559Y116245D01*
X183846Y115815D01*
X184276Y115527D01*
X184783Y115427D01*
X185291Y115527D01*
X185721Y115815D01*
X186008Y116245D01*
X186109Y116752D01*
X186008Y117259D01*
X185721Y117689D01*
X185291Y117977D01*
X184783Y118078D01*
D02*
G37*
G36*
X194232Y114928D02*
X193725Y114827D01*
X193295Y114540D01*
X193008Y114110D01*
X192907Y113602D01*
X193008Y113095D01*
X193295Y112665D01*
X193725Y112378D01*
X194232Y112277D01*
X194739Y112378D01*
X195169Y112665D01*
X195457Y113095D01*
X195558Y113602D01*
X195457Y114110D01*
X195169Y114540D01*
X194739Y114827D01*
X194232Y114928D01*
D02*
G37*
G36*
X191083D02*
X190575Y114827D01*
X190145Y114540D01*
X189858Y114110D01*
X189757Y113602D01*
X189858Y113095D01*
X190145Y112665D01*
X190575Y112378D01*
X191083Y112277D01*
X191590Y112378D01*
X192020Y112665D01*
X192307Y113095D01*
X192408Y113602D01*
X192307Y114110D01*
X192020Y114540D01*
X191590Y114827D01*
X191083Y114928D01*
D02*
G37*
G36*
X184783D02*
X184276Y114827D01*
X183846Y114540D01*
X183559Y114110D01*
X183458Y113602D01*
X183559Y113095D01*
X183846Y112665D01*
X184276Y112378D01*
X184783Y112277D01*
X185291Y112378D01*
X185721Y112665D01*
X186008Y113095D01*
X186109Y113602D01*
X186008Y114110D01*
X185721Y114540D01*
X185291Y114827D01*
X184783Y114928D01*
D02*
G37*
G36*
X185284Y111201D02*
Y110453D01*
X184283D01*
Y111201D01*
X184135Y111102D01*
X183936Y110804D01*
X183866Y110453D01*
X183936Y110102D01*
X183936Y110101D01*
X183937Y110099D01*
X184135Y109802D01*
X184284Y109702D01*
Y110450D01*
X185284D01*
Y109702D01*
X185433Y109802D01*
X185632Y110099D01*
X185702Y110450D01*
X185632Y110802D01*
X185632Y110802D01*
X185631Y110804D01*
X185432Y111102D01*
X185284Y111201D01*
D02*
G37*
G36*
X191083Y111778D02*
X190575Y111677D01*
X190145Y111390D01*
X189858Y110960D01*
X189757Y110453D01*
X189858Y109946D01*
X190145Y109516D01*
X190146Y109515D01*
X190147Y109514D01*
X190577Y109227D01*
X191084Y109126D01*
X191591Y109227D01*
X192021Y109514D01*
X192308Y109944D01*
X192409Y110451D01*
X192308Y110958D01*
X192021Y111388D01*
X192021Y111389D01*
X192020Y111390D01*
X191590Y111677D01*
X191083Y111778D01*
D02*
G37*
G36*
X194732Y108052D02*
Y107803D01*
X194981D01*
X194881Y107952D01*
X194732Y108052D01*
D02*
G37*
G36*
X193732D02*
X193583Y107952D01*
X193484Y107803D01*
X193732D01*
Y108052D01*
D02*
G37*
G36*
X194981Y106803D02*
X194732D01*
Y106555D01*
X194881Y106654D01*
X194981Y106803D01*
D02*
G37*
G36*
X193732D02*
X193484D01*
X193583Y106654D01*
X193732Y106555D01*
Y106803D01*
D02*
G37*
G36*
X154036Y132000D02*
X153787D01*
Y131752D01*
X153936Y131851D01*
X154036Y132000D01*
D02*
G37*
G36*
X162236Y117500D02*
X162087Y117401D01*
X161988Y117252D01*
X162236D01*
Y117500D01*
D02*
G37*
G36*
Y116252D02*
X161988D01*
X162087Y116103D01*
X162236Y116004D01*
Y116252D01*
D02*
G37*
G36*
X159587Y118078D02*
X159079Y117977D01*
X158649Y117689D01*
X158362Y117259D01*
X158261Y116752D01*
X158362Y116245D01*
X158649Y115815D01*
X159079Y115527D01*
X159587Y115427D01*
X160094Y115527D01*
X160524Y115815D01*
X160811Y116245D01*
X160912Y116752D01*
X160811Y117259D01*
X160524Y117689D01*
X160094Y117977D01*
X159587Y118078D01*
D02*
G37*
%LPD*%
D11*
X234034Y76926D02*
Y134176D01*
X269234D01*
Y76926D02*
Y134176D01*
X234034Y76926D02*
X269234D01*
D38*
X131634Y125551D02*
D03*
X83000Y85500D02*
D03*
X75000Y80500D02*
D03*
Y84000D02*
D03*
X71400Y78400D02*
D03*
X131634Y88051D02*
D03*
X129134D02*
D03*
X106000Y84700D02*
D03*
X143684Y92551D02*
D03*
Y95051D02*
D03*
X209634Y88051D02*
D03*
X126500Y98000D02*
D03*
X163000Y47196D02*
D03*
X158000Y50100D02*
D03*
Y47200D02*
D03*
X136500Y53500D02*
D03*
X95400Y143300D02*
D03*
X98016D02*
D03*
X101953D02*
D03*
X92800D02*
D03*
X265809Y99251D02*
D03*
X243759Y102401D02*
D03*
Y96101D02*
D03*
X259509Y127601D02*
D03*
X262659Y89801D02*
D03*
X243759D02*
D03*
X259509Y118151D02*
D03*
Y86651D02*
D03*
X243759D02*
D03*
X240609Y89801D02*
D03*
X262659Y86651D02*
D03*
X240609D02*
D03*
X262659Y83501D02*
D03*
X240609D02*
D03*
X262659Y80351D02*
D03*
X243759Y83501D02*
D03*
X259509Y96101D02*
D03*
Y83501D02*
D03*
Y89801D02*
D03*
X243759Y80351D02*
D03*
X262659Y118151D02*
D03*
Y121301D02*
D03*
X265809Y127601D02*
D03*
X240609Y118151D02*
D03*
X237459Y127601D02*
D03*
X243759D02*
D03*
X262659Y102401D02*
D03*
Y111851D02*
D03*
X265809D02*
D03*
X240609Y102401D02*
D03*
Y115001D02*
D03*
X265809Y80351D02*
D03*
Y86651D02*
D03*
Y92951D02*
D03*
X237459Y80351D02*
D03*
Y86651D02*
D03*
Y92951D02*
D03*
Y99251D02*
D03*
X240609Y92951D02*
D03*
X243759D02*
D03*
X259509Y124451D02*
D03*
Y108701D02*
D03*
X262659D02*
D03*
X259509Y115001D02*
D03*
X262659D02*
D03*
X246909Y118151D02*
D03*
X262659Y127601D02*
D03*
X240609Y124451D02*
D03*
X262659D02*
D03*
X259509Y130751D02*
D03*
X240609Y80351D02*
D03*
X259509D02*
D03*
X262659Y96101D02*
D03*
Y130751D02*
D03*
X265809Y124451D02*
D03*
Y118151D02*
D03*
Y121301D02*
D03*
X237459Y124451D02*
D03*
Y130751D02*
D03*
X243759Y118151D02*
D03*
X240609Y127601D02*
D03*
X265809Y108701D02*
D03*
X262659Y99251D02*
D03*
X259509Y111851D02*
D03*
X237459Y115001D02*
D03*
X240609Y99251D02*
D03*
Y108701D02*
D03*
X265809Y83501D02*
D03*
Y89801D02*
D03*
X237459Y83501D02*
D03*
Y89801D02*
D03*
Y108701D02*
D03*
X262659Y92951D02*
D03*
X240609Y130751D02*
D03*
X243759Y99252D02*
D03*
Y124449D02*
D03*
X226631Y83501D02*
D03*
X197381Y141951D02*
D03*
X131700Y104300D02*
D03*
X128000Y108100D02*
D03*
X223100Y53632D02*
D03*
X226100D02*
D03*
Y50632D02*
D03*
X184784Y110450D02*
D03*
X112000Y136505D02*
D03*
Y140000D02*
D03*
X91168Y118000D02*
D03*
X96100D02*
D03*
X93600D02*
D03*
X116500Y104300D02*
D03*
X109200Y188049D02*
D03*
X104200D02*
D03*
X99200D02*
D03*
X94200D02*
D03*
X194134Y197600D02*
D03*
X184134D02*
D03*
X174134D02*
D03*
X129000D02*
D03*
X116600D02*
D03*
X109200D02*
D03*
X104200D02*
D03*
X99200D02*
D03*
X94200D02*
D03*
X169134D02*
D03*
X119000Y83000D02*
D03*
Y80000D02*
D03*
Y77000D02*
D03*
X75000Y71000D02*
D03*
X179159Y182073D02*
D03*
X189134D02*
D03*
X194134Y188049D02*
D03*
X174134D02*
D03*
X184134D02*
D03*
X189134D02*
D03*
X179134D02*
D03*
X169134D02*
D03*
X153541Y176100D02*
D03*
X158659D02*
D03*
X101600Y167900D02*
D03*
X92600Y165000D02*
D03*
Y180700D02*
D03*
X175400Y41800D02*
D03*
X136500Y46000D02*
D03*
X140800Y32600D02*
D03*
X136500D02*
D03*
X168600Y41800D02*
D03*
X163000Y50196D02*
D03*
Y54196D02*
D03*
X182300Y64000D02*
D03*
X175400D02*
D03*
X172700D02*
D03*
X179134D02*
D03*
X182000Y80032D02*
D03*
X179134Y70500D02*
D03*
Y73500D02*
D03*
X191600Y78051D02*
D03*
X191634Y80400D02*
D03*
X195384D02*
D03*
X200416Y66561D02*
D03*
X205384D02*
D03*
X208648D02*
D03*
X199100Y78051D02*
D03*
X206634Y78051D02*
D03*
X202884Y78051D02*
D03*
X200547Y158051D02*
D03*
X194232D02*
D03*
X187925D02*
D03*
X107000Y71600D02*
D03*
X75000Y66500D02*
D03*
X158000Y59200D02*
D03*
X143500D02*
D03*
Y61700D02*
D03*
X158000Y75200D02*
D03*
Y72200D02*
D03*
Y66000D02*
D03*
X172884Y90551D02*
D03*
X126500Y93500D02*
D03*
X136700Y167900D02*
D03*
X143600Y78900D02*
D03*
X272700Y197638D02*
D03*
X268763D02*
D03*
X264826D02*
D03*
X260889D02*
D03*
X256952D02*
D03*
X253015D02*
D03*
X249078D02*
D03*
X245141D02*
D03*
X241204D02*
D03*
X237267D02*
D03*
X233330D02*
D03*
X229393D02*
D03*
X225456D02*
D03*
X221519D02*
D03*
X217582D02*
D03*
X213645D02*
D03*
X209708D02*
D03*
X205771D02*
D03*
X50000Y62800D02*
D03*
X75000Y91300D02*
D03*
X91400Y83500D02*
D03*
X96512D02*
D03*
X93362Y85500D02*
D03*
X106000Y87900D02*
D03*
X128000Y105600D02*
D03*
X112000Y147800D02*
D03*
X116500D02*
D03*
Y144100D02*
D03*
X126600Y147800D02*
D03*
Y144100D02*
D03*
Y154301D02*
D03*
X159587Y123051D02*
D03*
X162736D02*
D03*
X197382Y97854D02*
D03*
X200532D02*
D03*
X203681D02*
D03*
X169035D02*
D03*
X162736D02*
D03*
X159587D02*
D03*
Y145098D02*
D03*
X162736D02*
D03*
X165886D02*
D03*
X169035D02*
D03*
X172185D02*
D03*
X175335D02*
D03*
X178484D02*
D03*
X184783D02*
D03*
X187933D02*
D03*
X191083D02*
D03*
X194232D02*
D03*
X197382D02*
D03*
X200532D02*
D03*
X203681D02*
D03*
Y141949D02*
D03*
X200532D02*
D03*
X191083D02*
D03*
X187933D02*
D03*
X184783D02*
D03*
X203681Y138799D02*
D03*
X200532D02*
D03*
X197382D02*
D03*
X194232D02*
D03*
X191083D02*
D03*
X184783D02*
D03*
X203681Y135650D02*
D03*
X200532D02*
D03*
X191083D02*
D03*
X184783D02*
D03*
X203681Y132500D02*
D03*
X200532D02*
D03*
X191083D02*
D03*
X184783D02*
D03*
X197382D02*
D03*
X203681Y129350D02*
D03*
X200532D02*
D03*
X191083D02*
D03*
X187933D02*
D03*
X184783D02*
D03*
X203681Y126201D02*
D03*
X200532D02*
D03*
X197382D02*
D03*
X194232D02*
D03*
X187933D02*
D03*
X184783D02*
D03*
X203681Y119902D02*
D03*
X200532D02*
D03*
X197382D02*
D03*
X194232D02*
D03*
X191083D02*
D03*
X187933D02*
D03*
X184783D02*
D03*
X203681Y116752D02*
D03*
X200532D02*
D03*
X191083D02*
D03*
X187933D02*
D03*
X184783D02*
D03*
X203681Y113602D02*
D03*
X200532D02*
D03*
X197382D02*
D03*
X194232D02*
D03*
X191083D02*
D03*
X184783D02*
D03*
X203681Y110453D02*
D03*
X200532D02*
D03*
X191083D02*
D03*
X184783D02*
D03*
X203681Y107303D02*
D03*
X200532D02*
D03*
X194232D02*
D03*
X191083D02*
D03*
X187933D02*
D03*
X200532Y104154D02*
D03*
X197382D02*
D03*
X194232D02*
D03*
X191083D02*
D03*
X187933D02*
D03*
X184783D02*
D03*
X203681Y101004D02*
D03*
X200532D02*
D03*
X197382D02*
D03*
X194232D02*
D03*
X191083D02*
D03*
X187933D02*
D03*
X184783D02*
D03*
X178484Y141949D02*
D03*
X169035D02*
D03*
X165886D02*
D03*
X162736D02*
D03*
X159587D02*
D03*
X178484Y138799D02*
D03*
X175335D02*
D03*
X172185D02*
D03*
X169035D02*
D03*
X165886D02*
D03*
X162736D02*
D03*
X159587D02*
D03*
X178484Y135650D02*
D03*
X162736D02*
D03*
X159587D02*
D03*
X178484Y132500D02*
D03*
X172185D02*
D03*
X169035D02*
D03*
X165886D02*
D03*
X178484Y129350D02*
D03*
X175335D02*
D03*
X172185D02*
D03*
X162736D02*
D03*
X178484Y126201D02*
D03*
X175335D02*
D03*
X172185D02*
D03*
X169035D02*
D03*
X165886D02*
D03*
X162736D02*
D03*
X159587D02*
D03*
X172185Y141949D02*
D03*
X178484Y119902D02*
D03*
X175335D02*
D03*
X172185D02*
D03*
X169035D02*
D03*
X165886D02*
D03*
X159587D02*
D03*
X178484Y116752D02*
D03*
X175335D02*
D03*
X172185D02*
D03*
X162736D02*
D03*
X159587D02*
D03*
X172185Y113602D02*
D03*
X169035D02*
D03*
X165886D02*
D03*
X162736D02*
D03*
X159587D02*
D03*
X178484Y110453D02*
D03*
X172185D02*
D03*
X162736D02*
D03*
X178484Y107303D02*
D03*
X175335D02*
D03*
X172185D02*
D03*
X165886D02*
D03*
X162736D02*
D03*
X159587D02*
D03*
X175335Y104154D02*
D03*
X172185D02*
D03*
X165886D02*
D03*
X162736D02*
D03*
X159587D02*
D03*
X178484Y101004D02*
D03*
X175335D02*
D03*
X172185D02*
D03*
X169035D02*
D03*
X165886D02*
D03*
X162736D02*
D03*
X159587D02*
D03*
X156437Y138799D02*
D03*
Y132500D02*
D03*
X153287Y94705D02*
D03*
X159587D02*
D03*
X162736D02*
D03*
X169035D02*
D03*
X210768Y129350D02*
D03*
X169035Y107303D02*
D03*
X233634Y102051D02*
D03*
X226634Y89801D02*
D03*
Y83501D02*
D03*
X226600Y86600D02*
D03*
X146634Y113602D02*
D03*
X156437D02*
D03*
X146634Y122551D02*
D03*
X159587Y129350D02*
D03*
X153287Y132500D02*
D03*
X209600Y80400D02*
D03*
X219634Y77051D02*
D03*
Y74051D02*
D03*
Y70301D02*
D03*
X168634Y70500D02*
D03*
Y73500D02*
D03*
X181634Y158051D02*
D03*
X178486D02*
D03*
X175384Y165051D02*
D03*
X178484Y104154D02*
D03*
X155134Y85551D02*
D03*
X336600Y181000D02*
D03*
X344800D02*
D03*
X340737D02*
D03*
X337900Y132900D02*
D03*
X340737D02*
D03*
X346300D02*
D03*
X261700Y74500D02*
D03*
X275922D02*
D03*
X112000Y118300D02*
D03*
Y121900D02*
D03*
X116500Y110800D02*
D03*
Y136700D02*
D03*
Y114500D02*
D03*
Y118200D02*
D03*
Y121900D02*
D03*
Y125600D02*
D03*
Y133000D02*
D03*
Y129300D02*
D03*
X112000Y133000D02*
D03*
Y129516D02*
D03*
X101300Y149300D02*
D03*
X84500Y148400D02*
D03*
X126600Y114500D02*
D03*
Y110800D02*
D03*
Y118200D02*
D03*
Y125600D02*
D03*
Y129300D02*
D03*
Y133000D02*
D03*
Y140400D02*
D03*
Y136700D02*
D03*
X151634Y138551D02*
D03*
X131634Y115801D02*
D03*
X146634Y105728D02*
D03*
X226634Y119903D02*
D03*
X226634Y115001D02*
D03*
X213634Y92551D02*
D03*
X247244Y136083D02*
D03*
X249606Y134508D02*
D03*
X226634Y96551D02*
D03*
X222634Y130751D02*
D03*
Y72051D02*
D03*
X226634Y124451D02*
D03*
Y130751D02*
D03*
Y99251D02*
D03*
Y108701D02*
D03*
X229634Y102051D02*
D03*
X222634Y134551D02*
D03*
Y126051D02*
D03*
X217582Y188189D02*
D03*
X213645D02*
D03*
X209708D02*
D03*
X205771D02*
D03*
X264826D02*
D03*
X268763D02*
D03*
X260889D02*
D03*
X256952D02*
D03*
X272700D02*
D03*
X213634Y108878D02*
D03*
Y99051D02*
D03*
Y95051D02*
D03*
Y113601D02*
D03*
X181634Y153551D02*
D03*
X208406Y152551D02*
D03*
X146634Y138551D02*
D03*
X151634Y149823D02*
D03*
X131400Y147800D02*
D03*
X129534Y154301D02*
D03*
X141600Y141551D02*
D03*
X184784Y126201D02*
D03*
X146634Y129351D02*
D03*
X131634Y112551D02*
D03*
X208406Y93551D02*
D03*
X153284Y94701D02*
D03*
X143634Y85551D02*
D03*
X213634Y129351D02*
D03*
X187884Y90551D02*
D03*
X195384D02*
D03*
X203684Y126201D02*
D03*
X213634Y126199D02*
D03*
X200534Y126201D02*
D03*
X194234D02*
D03*
X187933D02*
D03*
X191084Y110451D02*
D03*
X141634Y115801D02*
D03*
Y112801D02*
D03*
X144034Y149801D02*
D03*
X146634Y156051D02*
D03*
X131400Y139051D02*
D03*
Y141551D02*
D03*
X182134Y90551D02*
D03*
X149134Y138551D02*
D03*
X146634Y145051D02*
D03*
X131634Y85051D02*
D03*
X129134D02*
D03*
X146634Y149801D02*
D03*
Y119903D02*
D03*
X147134Y85551D02*
D03*
X146634Y153051D02*
D03*
X141600Y147800D02*
D03*
X144084Y153051D02*
D03*
Y156051D02*
D03*
X141634Y129301D02*
D03*
X141600Y139051D02*
D03*
X141634Y125551D02*
D03*
X159134Y87551D02*
D03*
X197384Y126201D02*
D03*
X209634Y85051D02*
D03*
X106000Y98000D02*
D03*
X86000Y85500D02*
D03*
X253284Y80379D02*
D03*
X249780Y91403D02*
D03*
X84500Y141000D02*
D03*
Y138000D02*
D03*
X75500Y141000D02*
D03*
X100000Y118000D02*
D03*
X103500D02*
D03*
X99016Y114331D02*
D03*
X115500Y89000D02*
D03*
X111516Y108831D02*
D03*
Y111831D02*
D03*
X86516Y108831D02*
D03*
Y111831D02*
D03*
X181634Y123051D02*
D03*
X197382Y107303D02*
D03*
X275922Y108726D02*
D03*
Y94553D02*
D03*
Y130773D02*
D03*
Y124474D02*
D03*
Y118175D02*
D03*
Y104002D02*
D03*
Y99277D02*
D03*
Y89828D02*
D03*
Y83529D02*
D03*
X118500Y56000D02*
D03*
Y49000D02*
D03*
X112500Y74500D02*
D03*
X115500D02*
D03*
X119000D02*
D03*
X112500Y59500D02*
D03*
X115500D02*
D03*
X109500Y56000D02*
D03*
X107000D02*
D03*
Y58500D02*
D03*
Y61000D02*
D03*
Y63500D02*
D03*
X89000Y85500D02*
D03*
X80000Y83500D02*
D03*
X126500Y88000D02*
D03*
X143500Y36000D02*
D03*
Y41000D02*
D03*
X136500Y51000D02*
D03*
X143500D02*
D03*
X136500Y56000D02*
D03*
Y66000D02*
D03*
Y71000D02*
D03*
X143500Y66000D02*
D03*
Y71000D02*
D03*
X102500Y98000D02*
D03*
X91500D02*
D03*
X96000Y52500D02*
D03*
X88000D02*
D03*
X82500D02*
D03*
X107000Y78600D02*
D03*
Y80500D02*
D03*
X96900Y38500D02*
D03*
X95000D02*
D03*
X104900Y47500D02*
D03*
X102000D02*
D03*
X98000D02*
D03*
X95100D02*
D03*
X89900D02*
D03*
X87000D02*
D03*
X89900Y38500D02*
D03*
X87000D02*
D03*
X83000D02*
D03*
X80100D02*
D03*
X83000Y47500D02*
D03*
X80100D02*
D03*
X75000Y56500D02*
D03*
Y76500D02*
D03*
X72500Y68787D02*
D03*
Y64063D02*
D03*
X50000Y71500D02*
D03*
X54500Y84000D02*
D03*
X37500Y80500D02*
D03*
X24500Y70500D02*
D03*
X14500Y76000D02*
D03*
X37500Y75500D02*
D03*
Y70500D02*
D03*
X28500Y75500D02*
D03*
Y70500D02*
D03*
X84500Y118500D02*
D03*
Y122500D02*
D03*
Y126500D02*
D03*
Y130500D02*
D03*
Y134500D02*
D03*
X75500Y118500D02*
D03*
Y122500D02*
D03*
Y126500D02*
D03*
Y130500D02*
D03*
Y134500D02*
D03*
X24272Y126500D02*
D03*
Y123600D02*
D03*
X43500Y137500D02*
D03*
Y142500D02*
D03*
X17000Y117500D02*
D03*
X43500Y132500D02*
D03*
Y127500D02*
D03*
Y117500D02*
D03*
D68*
X51600Y148000D02*
X53600Y150000D01*
X51600Y100300D02*
Y148000D01*
Y100300D02*
X56400Y95500D01*
X88200D01*
X102700Y81000D01*
Y60300D02*
Y81000D01*
Y60300D02*
X107000Y56000D01*
D69*
X48700Y99100D02*
Y149200D01*
X51100Y84100D02*
Y96700D01*
X37500Y70500D02*
X51100Y84100D01*
X51300Y151800D02*
Y161200D01*
X48700Y99100D02*
X51100Y96700D01*
X44200Y168300D02*
X51300Y161200D01*
X48700Y149200D02*
X51300Y151800D01*
X71400Y78400D02*
Y87700D01*
X179134Y82134D02*
X184600Y87600D01*
X179134Y73500D02*
Y82134D01*
X184600Y87600D02*
Y96900D01*
X182000Y99500D02*
X184600Y96900D01*
X182000Y99500D02*
Y105500D01*
X183803Y107303D01*
X187933D01*
X75000Y66500D02*
X78100Y69600D01*
Y73400D01*
X75000Y76500D02*
X78100Y73400D01*
X71400Y87700D02*
X75000Y91300D01*
D70*
X125850Y106850D02*
X128000D01*
X123600Y104600D02*
X125850Y106850D01*
X128000D02*
Y108100D01*
X112500Y59500D02*
X115500D01*
X123600Y67600D01*
Y79700D01*
X121900Y81400D02*
X123600Y79700D01*
X121900Y81400D02*
Y98900D01*
X128000Y105600D02*
Y106850D01*
X121900Y98900D02*
X123600Y100600D01*
Y104600D01*
D72*
X120800Y102100D02*
Y148501D01*
X119000Y83000D02*
Y100300D01*
X120800Y102100D01*
Y148501D02*
X126600Y154301D01*
D82*
X6500Y85000D02*
D03*
X162800Y12100D02*
D03*
X257505Y22217D02*
D03*
X69000Y51000D02*
D03*
X59000Y41000D02*
D03*
Y51000D02*
D03*
X69000Y41000D02*
D03*
X151800Y12200D02*
D03*
X57250Y112500D02*
D03*
X67250Y107500D02*
D03*
Y137500D02*
D03*
X57250Y132500D02*
D03*
X67250Y117500D02*
D03*
X12950Y149900D02*
D03*
X18950Y139900D02*
D03*
Y100100D02*
D03*
X12950Y110100D02*
D03*
X67250Y127500D02*
D03*
X57250Y122500D02*
D03*
X188600Y36700D02*
D03*
X218600D02*
D03*
X178600D02*
D03*
X208600D02*
D03*
X198600D02*
D03*
D83*
X348400Y14500D02*
D03*
X72550Y223000D02*
D03*
X334823Y223567D02*
D03*
X57000Y13400D02*
D03*
D85*
X44250Y156000D02*
D03*
Y94000D02*
D03*
D86*
X57250Y142500D02*
D03*
X168600Y36700D02*
D03*
D87*
X302753Y108417D02*
D03*
Y98577D02*
D03*
Y90697D02*
D03*
Y80857D02*
D03*
Y45617D02*
D03*
Y35777D02*
D03*
Y27897D02*
D03*
Y18057D02*
D03*
D88*
X313423Y120507D02*
D03*
Y68767D02*
D03*
Y57707D02*
D03*
Y5967D02*
D03*
D89*
X20000Y46000D02*
D03*
D90*
X43600D02*
D03*
D91*
X31800Y27500D02*
D03*
D92*
X330765Y26069D02*
D03*
X326435D02*
D03*
Y34731D02*
D03*
X330765D02*
D03*
Y30400D02*
D03*
X326435D02*
D03*
X330465Y83569D02*
D03*
X326135D02*
D03*
Y92231D02*
D03*
X330465D02*
D03*
Y87900D02*
D03*
X326135D02*
D03*
D93*
X94669Y130500D02*
D03*
X99000Y126169D02*
D03*
Y130500D02*
D03*
Y134831D02*
D03*
X103331Y130500D02*
D03*
X89031Y69968D02*
D03*
X92968D02*
D03*
X89031Y66031D02*
D03*
X92968D02*
D03*
X85094Y69968D02*
D03*
Y73905D02*
D03*
X89031D02*
D03*
X92968D02*
D03*
X96905D02*
D03*
Y69968D02*
D03*
Y66031D02*
D03*
X85094D02*
D03*
Y62094D02*
D03*
X89031D02*
D03*
X92968D02*
D03*
X96905D02*
D03*
D94*
X131011Y176837D02*
D03*
Y178806D02*
D03*
Y180774D02*
D03*
Y182743D02*
D03*
X112310Y175853D02*
D03*
X129043Y184711D02*
D03*
X116247Y179790D02*
D03*
X112310Y177821D02*
D03*
X131011Y184711D02*
D03*
X134200Y177821D02*
D03*
X112310Y169947D02*
D03*
X116247Y165900D02*
D03*
X104200Y181758D02*
D03*
Y177821D02*
D03*
X112310Y179790D02*
D03*
X107389Y180774D02*
D03*
X122153Y179790D02*
D03*
X126090Y175853D02*
D03*
X112310Y171916D02*
D03*
X118216Y165900D02*
D03*
X126090Y173884D02*
D03*
X104200Y179790D02*
D03*
X104247Y175853D02*
D03*
X120184Y179790D02*
D03*
X107389Y184711D02*
D03*
Y178806D02*
D03*
X126090Y177821D02*
D03*
D95*
X32250Y102500D02*
D03*
Y147500D02*
D03*
D96*
X135000Y151500D02*
X147100Y163600D01*
X135000Y102000D02*
Y151500D01*
X129700Y149500D02*
X142800Y162600D01*
Y176600D01*
X129700Y101200D02*
Y149500D01*
X126500Y93500D02*
X135000Y102000D01*
X126500Y98000D02*
X129700Y101200D01*
X50400Y99800D02*
Y148500D01*
X53000Y151100D01*
X50400Y99800D02*
X52800Y97400D01*
Y83300D02*
Y97400D01*
X50000Y80500D02*
X52800Y83300D01*
X50000Y71500D02*
Y80500D01*
Y71500D02*
X55000Y66500D01*
X65000D01*
X106000Y84700D02*
X106100D01*
X108775Y82025D01*
X93400Y145300D02*
X95400Y143300D01*
X98016D02*
X106600Y134716D01*
X101953Y143300D02*
X113700D01*
X106600Y127300D02*
Y134716D01*
X89000Y145300D02*
X93400D01*
X113700Y143300D02*
X119100Y137900D01*
X108775Y65275D02*
Y82025D01*
X107000Y63500D02*
X108775Y65275D01*
X106000Y87900D02*
X109700Y84200D01*
Y63700D02*
Y84200D01*
X107000Y61000D02*
X109700Y63700D01*
X110700Y62200D02*
Y98500D01*
X111625Y61825D02*
X121200Y71400D01*
X111625Y61817D02*
Y61825D01*
X109500Y59692D02*
X111625Y61817D01*
X109500Y56000D02*
Y59692D01*
X110700Y98500D02*
X116500Y104300D01*
X107000Y58500D02*
X110700Y62200D01*
X175335Y101004D02*
X179400Y96939D01*
Y85500D02*
Y96939D01*
X177000Y83100D02*
X179400Y85500D01*
X177000Y72634D02*
Y83100D01*
Y72634D02*
X179134Y70500D01*
X119100Y103000D02*
Y137900D01*
X106600Y127300D02*
X112000Y121900D01*
X95600Y120900D02*
X109400D01*
X112000Y118300D01*
X142800Y176600D02*
X148274Y182073D01*
X179159D01*
X131478Y175100D02*
X134200Y177821D01*
X129600Y175100D02*
X131478D01*
X128700Y176000D02*
X129600Y175100D01*
X128700Y176000D02*
Y177179D01*
X116379Y189500D02*
X128700Y177179D01*
X111200Y189500D02*
X116379D01*
X104200Y196500D02*
X111200Y189500D01*
X104200Y196500D02*
Y197600D01*
X116948Y190900D02*
X131011Y176837D01*
X111700Y190900D02*
X116948D01*
X117517Y192300D02*
X131011Y178806D01*
X112200Y192300D02*
X117517D01*
X106200Y196400D02*
X111700Y190900D01*
X106200Y196400D02*
Y198500D01*
X105300Y199400D02*
X106200Y198500D01*
X101000Y199400D02*
X105300D01*
X99200Y197600D02*
X101000Y199400D01*
X97200Y200600D02*
X106100D01*
X107500Y199200D01*
X94200Y197600D02*
X97200Y200600D01*
X107500Y197000D02*
Y199200D01*
Y197000D02*
X112200Y192300D01*
X121922Y193800D02*
X131011Y184711D01*
X113000Y193800D02*
X121922D01*
X109200Y197600D02*
X113000Y193800D01*
X152600Y195100D02*
X176600D01*
X140600Y183100D02*
X152600Y195100D01*
X140600Y177500D02*
Y183100D01*
X134300Y171200D02*
X140600Y177500D01*
X116963Y171200D02*
X134300D01*
X112310Y175853D02*
X116963Y171200D01*
X112310Y177821D02*
X117731Y172400D01*
X133700D01*
X153200Y197600D02*
X169134D01*
X139300Y183700D02*
X153200Y197600D01*
X139300Y178000D02*
Y183700D01*
X133700Y172400D02*
X139300Y178000D01*
X171834Y199900D02*
X174134Y197600D01*
X153800Y199900D02*
X171834D01*
X134674Y180774D02*
X153800Y199900D01*
X131011Y180774D02*
X134674D01*
X121200Y71400D02*
Y77800D01*
X119000Y80000D02*
X121200Y77800D01*
X113000Y86000D02*
X119000Y80000D01*
X113000Y96900D02*
X119100Y103000D01*
X113000Y86000D02*
Y96900D01*
X65000Y66500D02*
X75000Y56500D01*
X86100Y54400D02*
X88000Y52500D01*
X73600Y54400D02*
X86100D01*
X65200Y62800D02*
X73600Y54400D01*
X50000Y62800D02*
X65200D01*
X88100Y128400D02*
X95600Y120900D01*
X88100Y128400D02*
Y144400D01*
X89000Y145300D01*
M02*
