G04*
G04 #@! TF.GenerationSoftware,Altium Limited,Altium Designer,19.1.9 (167)*
G04*
G04 Layer_Color=16711935*
%FSLAX25Y25*%
%MOIN*%
G70*
G01*
G75*
%ADD11C,0.00100*%
%ADD42R,0.02402X0.02902*%
%ADD43R,0.07400X0.08900*%
%ADD46R,0.02565X0.02565*%
%ADD47R,0.02565X0.02565*%
%ADD48R,0.02400X0.01600*%
%ADD55R,0.06509X0.04343*%
%ADD56R,0.02902X0.02402*%
%ADD57R,0.04343X0.06509*%
%ADD58C,0.06400*%
%ADD59C,0.17900*%
%ADD60C,0.04400*%
%ADD61C,0.09400*%
%ADD62R,0.06400X0.06400*%
%ADD63C,0.06900*%
%ADD64O,0.13900X0.08400*%
%ADD65O,0.07400X0.15400*%
%ADD66O,0.07400X0.18400*%
%ADD67O,0.15400X0.07400*%
%ADD117R,0.07099X0.08359*%
%ADD118O,0.05906X0.02165*%
%ADD119R,0.06587X0.05406*%
%ADD120R,0.05406X0.06587*%
%ADD121R,0.05912X0.02369*%
%ADD122R,0.03550X0.09652*%
%ADD123R,0.15400X0.10400*%
%ADD124R,0.03900X0.02400*%
%ADD125R,0.02200X0.04000*%
%ADD126R,0.08300X0.03900*%
%ADD127R,0.04700X0.05100*%
%ADD128R,0.06400X0.04800*%
%ADD129R,0.11400X0.03200*%
%ADD130R,0.05131X0.03162*%
%ADD131O,0.06902X0.01784*%
%ADD132O,0.06509X0.03162*%
%ADD133R,0.02998X0.02841*%
%ADD134R,0.04900X0.05400*%
D11*
X234034Y76926D02*
Y134176D01*
X269234D01*
Y76926D02*
Y134176D01*
X234034Y76926D02*
X269234D01*
D42*
X153541Y179668D02*
D03*
Y183132D02*
D03*
X102500Y95232D02*
D03*
Y91768D02*
D03*
X106496Y111563D02*
D03*
Y108098D02*
D03*
X91536Y111563D02*
D03*
Y108098D02*
D03*
X129000Y194532D02*
D03*
Y191068D02*
D03*
X121800Y171068D02*
D03*
Y174532D02*
D03*
X116600Y174632D02*
D03*
Y171168D02*
D03*
X101600Y171168D02*
D03*
Y174632D02*
D03*
X216600Y73732D02*
D03*
Y70268D02*
D03*
X175335Y132343D02*
D03*
Y135807D02*
D03*
X191634Y84068D02*
D03*
Y87532D02*
D03*
X173800Y154632D02*
D03*
Y151168D02*
D03*
X195384Y84068D02*
D03*
Y87532D02*
D03*
X180384Y84068D02*
D03*
Y87532D02*
D03*
X176634Y84068D02*
D03*
Y87532D02*
D03*
X184134Y84068D02*
D03*
Y87532D02*
D03*
X181634Y100847D02*
D03*
Y104311D02*
D03*
X175335Y113760D02*
D03*
Y110295D02*
D03*
X187933Y135807D02*
D03*
Y132343D02*
D03*
X181634Y126043D02*
D03*
Y129508D02*
D03*
X187933Y113760D02*
D03*
Y110295D02*
D03*
X181634Y120059D02*
D03*
Y116595D02*
D03*
Y133917D02*
D03*
Y137382D02*
D03*
X194232Y154632D02*
D03*
Y151168D02*
D03*
X164300Y154632D02*
D03*
Y151168D02*
D03*
X200547Y154632D02*
D03*
Y151168D02*
D03*
X205771Y194646D02*
D03*
Y191181D02*
D03*
X206634Y84068D02*
D03*
Y87532D02*
D03*
X212200Y73732D02*
D03*
Y70268D02*
D03*
X187925Y154632D02*
D03*
Y151168D02*
D03*
X181634Y108721D02*
D03*
Y112185D02*
D03*
X172884Y87532D02*
D03*
Y84068D02*
D03*
X169055Y151168D02*
D03*
Y154632D02*
D03*
X272700Y191181D02*
D03*
Y194646D02*
D03*
X181634Y141791D02*
D03*
Y145256D02*
D03*
X336100Y99732D02*
D03*
Y96268D02*
D03*
X338600Y41632D02*
D03*
Y38168D02*
D03*
X47500Y184732D02*
D03*
Y181268D02*
D03*
X219600Y51168D02*
D03*
Y54632D02*
D03*
X205384Y70268D02*
D03*
Y73732D02*
D03*
X200416Y73732D02*
D03*
Y70268D02*
D03*
X187884Y87532D02*
D03*
Y84068D02*
D03*
D43*
X187114Y171100D02*
D03*
X172154D02*
D03*
D46*
X342300Y38228D02*
D03*
Y41772D02*
D03*
X318100Y41372D02*
D03*
Y37828D02*
D03*
X98500Y91728D02*
D03*
Y95272D02*
D03*
X95266Y111602D02*
D03*
Y108059D02*
D03*
X102766Y108059D02*
D03*
Y111602D02*
D03*
X99016Y111602D02*
D03*
Y108059D02*
D03*
X116600Y194572D02*
D03*
Y191028D02*
D03*
X179134Y191028D02*
D03*
Y194572D02*
D03*
X169134Y191028D02*
D03*
Y194572D02*
D03*
X99200Y191028D02*
D03*
Y194572D02*
D03*
X94200Y191028D02*
D03*
Y194572D02*
D03*
X174134Y191028D02*
D03*
Y194572D02*
D03*
X189134Y191028D02*
D03*
Y194572D02*
D03*
X109200Y191028D02*
D03*
Y194572D02*
D03*
X104200Y191028D02*
D03*
Y194572D02*
D03*
X184134Y191028D02*
D03*
Y194572D02*
D03*
X194134Y191028D02*
D03*
Y194572D02*
D03*
X268763Y191142D02*
D03*
Y194685D02*
D03*
X264826Y191142D02*
D03*
Y194685D02*
D03*
X260889Y191142D02*
D03*
Y194685D02*
D03*
X256952Y191142D02*
D03*
Y194685D02*
D03*
X253015Y191142D02*
D03*
Y194685D02*
D03*
X249078Y191142D02*
D03*
Y194685D02*
D03*
X245141Y191142D02*
D03*
Y194685D02*
D03*
X241204Y191142D02*
D03*
Y194685D02*
D03*
X237267Y191142D02*
D03*
Y194685D02*
D03*
X233330Y191142D02*
D03*
Y194685D02*
D03*
X229393Y191142D02*
D03*
Y194685D02*
D03*
X217582Y191142D02*
D03*
Y194685D02*
D03*
X225456Y191142D02*
D03*
Y194685D02*
D03*
X221519Y191142D02*
D03*
Y194685D02*
D03*
X209708Y191142D02*
D03*
Y194685D02*
D03*
X213645Y191142D02*
D03*
Y194685D02*
D03*
X202884Y84028D02*
D03*
Y87572D02*
D03*
X161634Y87572D02*
D03*
Y84028D02*
D03*
X195448Y70228D02*
D03*
Y73772D02*
D03*
X316600Y100072D02*
D03*
Y96528D02*
D03*
X190480Y70228D02*
D03*
Y73772D02*
D03*
X340400Y96228D02*
D03*
Y99772D02*
D03*
X199134Y84028D02*
D03*
Y87572D02*
D03*
X121700Y191028D02*
D03*
Y194572D02*
D03*
X139870Y167118D02*
D03*
Y163575D02*
D03*
X169134Y84028D02*
D03*
Y87572D02*
D03*
X165384Y84028D02*
D03*
Y87572D02*
D03*
X227700Y10772D02*
D03*
Y7228D02*
D03*
X144370Y167118D02*
D03*
Y163575D02*
D03*
X75000Y41228D02*
D03*
Y44772D02*
D03*
X91500Y95272D02*
D03*
Y91728D02*
D03*
D47*
X119928Y144100D02*
D03*
X123472D02*
D03*
X81772Y118500D02*
D03*
X78228D02*
D03*
X123472Y110800D02*
D03*
X119928D02*
D03*
X123472Y136700D02*
D03*
X119928D02*
D03*
X123472Y125600D02*
D03*
X119928D02*
D03*
X123472Y140400D02*
D03*
X119928D02*
D03*
X123472Y129300D02*
D03*
X119928D02*
D03*
X123472Y133000D02*
D03*
X119928D02*
D03*
X123472Y118200D02*
D03*
X119928D02*
D03*
X123472Y147800D02*
D03*
X119928D02*
D03*
X123472Y121900D02*
D03*
X119928D02*
D03*
X123472Y114500D02*
D03*
X119928D02*
D03*
X78228Y141000D02*
D03*
X81772D02*
D03*
X50272Y122500D02*
D03*
X46728D02*
D03*
X24272Y132500D02*
D03*
X20728D02*
D03*
X24272Y112500D02*
D03*
X20728D02*
D03*
X24272Y117500D02*
D03*
X20728D02*
D03*
X81772Y134500D02*
D03*
X78228D02*
D03*
X81772Y130500D02*
D03*
X78228D02*
D03*
X81772Y126500D02*
D03*
X78228D02*
D03*
X81772Y122500D02*
D03*
X78228D02*
D03*
X272969Y94553D02*
D03*
X269426D02*
D03*
X253284Y99277D02*
D03*
X249741D02*
D03*
X253284Y108726D02*
D03*
X249741D02*
D03*
X253284Y83529D02*
D03*
X249741D02*
D03*
X272969Y99277D02*
D03*
X269426D02*
D03*
X153372Y141600D02*
D03*
X149828D02*
D03*
X91372Y157800D02*
D03*
X87828D02*
D03*
X219728Y119903D02*
D03*
X223272D02*
D03*
X112228Y56000D02*
D03*
X115772D02*
D03*
X181406Y161500D02*
D03*
X177862D02*
D03*
X31228Y80500D02*
D03*
X34772D02*
D03*
X19272Y73000D02*
D03*
X15728D02*
D03*
D48*
X325372Y99968D02*
D03*
Y96032D02*
D03*
Y98000D02*
D03*
X328828D02*
D03*
Y99968D02*
D03*
Y96032D02*
D03*
X326672Y41068D02*
D03*
Y37132D02*
D03*
Y39100D02*
D03*
X330128D02*
D03*
Y41068D02*
D03*
Y37132D02*
D03*
D55*
X92600Y176935D02*
D03*
Y168865D02*
D03*
X214400Y86535D02*
D03*
Y78465D02*
D03*
X87500Y79535D02*
D03*
Y71465D02*
D03*
X102500Y64535D02*
D03*
Y56465D02*
D03*
Y79535D02*
D03*
Y71465D02*
D03*
X95000Y71465D02*
D03*
Y79535D02*
D03*
Y64535D02*
D03*
Y56465D02*
D03*
X80000Y56465D02*
D03*
Y64535D02*
D03*
Y71465D02*
D03*
Y79535D02*
D03*
D56*
X103868Y121400D02*
D03*
X107332D02*
D03*
X103868Y125800D02*
D03*
X107332D02*
D03*
X94632D02*
D03*
X91168D02*
D03*
X94632Y121400D02*
D03*
X91168D02*
D03*
X106732Y140000D02*
D03*
X103268D02*
D03*
X50232Y127500D02*
D03*
X46768D02*
D03*
X31268Y75500D02*
D03*
X34732D02*
D03*
X249780Y94553D02*
D03*
X253245D02*
D03*
X253245Y104002D02*
D03*
X249780D02*
D03*
X272930Y83529D02*
D03*
X269465D02*
D03*
X272930Y89828D02*
D03*
X269465D02*
D03*
X272930Y104002D02*
D03*
X269465D02*
D03*
X272930Y108726D02*
D03*
X269465D02*
D03*
X272930Y118175D02*
D03*
X269465D02*
D03*
X272930Y124474D02*
D03*
X269465D02*
D03*
X272930Y130773D02*
D03*
X269465D02*
D03*
X230095Y89828D02*
D03*
X233560D02*
D03*
X230095Y99277D02*
D03*
X233560D02*
D03*
X230095Y108726D02*
D03*
X233560D02*
D03*
X230095Y115025D02*
D03*
X233560D02*
D03*
X230095Y124474D02*
D03*
X233560D02*
D03*
X230095Y130773D02*
D03*
X233560D02*
D03*
X149868Y117539D02*
D03*
X153332D02*
D03*
X149868Y146800D02*
D03*
X153332D02*
D03*
X134968Y86500D02*
D03*
X138432D02*
D03*
X165728Y123051D02*
D03*
X169193D02*
D03*
X189665D02*
D03*
X186201D02*
D03*
X149868Y125413D02*
D03*
X153332D02*
D03*
X149868Y113602D02*
D03*
X153332D02*
D03*
X149868Y109665D02*
D03*
X153332D02*
D03*
X134968Y103100D02*
D03*
X138432D02*
D03*
X134968Y125551D02*
D03*
X138432D02*
D03*
X134968Y114200D02*
D03*
X138432D02*
D03*
X177067Y123051D02*
D03*
X173602D02*
D03*
X165728Y135650D02*
D03*
X169193D02*
D03*
X153332Y153000D02*
D03*
X149868D02*
D03*
X169193Y110453D02*
D03*
X165728D02*
D03*
X134968Y147800D02*
D03*
X138432D02*
D03*
X169193Y129350D02*
D03*
X165728D02*
D03*
X165728Y116752D02*
D03*
X169193D02*
D03*
X194075Y129350D02*
D03*
X197539D02*
D03*
X194075Y110453D02*
D03*
X197539D02*
D03*
X194075Y123051D02*
D03*
X197539D02*
D03*
X194075Y116752D02*
D03*
X197539D02*
D03*
X230095Y83529D02*
D03*
X233560D02*
D03*
X153332Y121476D02*
D03*
X149868D02*
D03*
X153332Y129351D02*
D03*
X149868D02*
D03*
X138432Y144200D02*
D03*
X134968D02*
D03*
X197539Y135650D02*
D03*
X194075D02*
D03*
X149868Y97854D02*
D03*
X153332D02*
D03*
X149868Y105728D02*
D03*
X153332D02*
D03*
X149868Y135600D02*
D03*
X153332D02*
D03*
X149866Y101791D02*
D03*
X153331D02*
D03*
X223232Y115000D02*
D03*
X219768D02*
D03*
X115732Y49000D02*
D03*
X112268D02*
D03*
X112268Y52500D02*
D03*
X115732D02*
D03*
X172932Y161500D02*
D03*
X169468D02*
D03*
X189732D02*
D03*
X186268D02*
D03*
X31268Y70500D02*
D03*
X34732D02*
D03*
D57*
X88965Y139000D02*
D03*
X97035D02*
D03*
X264865Y74500D02*
D03*
X272935D02*
D03*
X140735Y93000D02*
D03*
X132665D02*
D03*
X140735Y120000D02*
D03*
X132665D02*
D03*
X140735Y108500D02*
D03*
X132665D02*
D03*
X264865Y136800D02*
D03*
X272935D02*
D03*
X132665Y154300D02*
D03*
X140735D02*
D03*
X27965Y46000D02*
D03*
X36035D02*
D03*
D58*
X6500Y85000D02*
D03*
X162800Y12100D02*
D03*
X257505Y22217D02*
D03*
X69000Y51000D02*
D03*
X59000Y41000D02*
D03*
Y51000D02*
D03*
X69000Y41000D02*
D03*
X151800Y12200D02*
D03*
X57250Y112500D02*
D03*
X67250Y107500D02*
D03*
Y137500D02*
D03*
X57250Y132500D02*
D03*
X67250Y117500D02*
D03*
X12950Y149900D02*
D03*
X18950Y139900D02*
D03*
Y100100D02*
D03*
X12950Y110100D02*
D03*
X67250Y127500D02*
D03*
X57250Y122500D02*
D03*
X188600Y36700D02*
D03*
X218600D02*
D03*
X178600D02*
D03*
X208600D02*
D03*
X198600D02*
D03*
D59*
X348400Y14500D02*
D03*
X72550Y223000D02*
D03*
X334823Y223567D02*
D03*
X57000Y13400D02*
D03*
D60*
X32250Y102500D02*
D03*
Y147500D02*
D03*
D61*
X44250Y156000D02*
D03*
Y94000D02*
D03*
D62*
X57250Y142500D02*
D03*
X168600Y36700D02*
D03*
D63*
X302753Y108417D02*
D03*
Y98577D02*
D03*
Y90697D02*
D03*
Y80857D02*
D03*
Y45617D02*
D03*
Y35777D02*
D03*
Y27897D02*
D03*
Y18057D02*
D03*
D64*
X313423Y120507D02*
D03*
Y68767D02*
D03*
Y57707D02*
D03*
Y5967D02*
D03*
D65*
X20000Y46000D02*
D03*
D66*
X43600D02*
D03*
D67*
X31800Y27500D02*
D03*
D117*
X328600Y30400D02*
D03*
X328300Y87900D02*
D03*
D118*
X337261Y34239D02*
D03*
Y31679D02*
D03*
Y29120D02*
D03*
Y26561D02*
D03*
X319939Y34239D02*
D03*
Y31679D02*
D03*
Y29120D02*
D03*
Y26561D02*
D03*
X336961Y91739D02*
D03*
Y89179D02*
D03*
Y86620D02*
D03*
Y84061D02*
D03*
X319639Y91739D02*
D03*
Y89179D02*
D03*
Y86620D02*
D03*
Y84061D02*
D03*
D119*
X288400Y25075D02*
D03*
Y31925D02*
D03*
X174034Y75425D02*
D03*
Y68575D02*
D03*
X184134Y75425D02*
D03*
Y68575D02*
D03*
X288400Y66975D02*
D03*
Y73825D02*
D03*
X114000Y70425D02*
D03*
Y63575D02*
D03*
D120*
X295225Y18000D02*
D03*
X288375D02*
D03*
X96225Y148400D02*
D03*
X89375D02*
D03*
X133275Y134100D02*
D03*
X140125D02*
D03*
X288375Y80900D02*
D03*
X295225D02*
D03*
X96575Y43000D02*
D03*
X103425D02*
D03*
X88425D02*
D03*
X81575D02*
D03*
D121*
X25196Y198327D02*
D03*
Y195177D02*
D03*
Y192027D02*
D03*
Y201476D02*
D03*
Y188878D02*
D03*
D122*
X4724Y184646D02*
D03*
Y205708D02*
D03*
D123*
X15747Y178642D02*
D03*
Y211712D02*
D03*
D124*
X298653Y180441D02*
D03*
Y142055D02*
D03*
D125*
X346249Y185489D02*
D03*
X340737D02*
D03*
X337981D02*
D03*
Y128345D02*
D03*
X340737D02*
D03*
X346249D02*
D03*
X343493Y185489D02*
D03*
Y128345D02*
D03*
D126*
X307922Y185460D02*
D03*
X313040Y128374D02*
D03*
D127*
X296690Y170401D02*
D03*
Y146780D02*
D03*
D128*
X351229Y128585D02*
D03*
Y185249D02*
D03*
D129*
X150650Y46000D02*
D03*
X129350Y51000D02*
D03*
X150650Y36000D02*
D03*
X129350Y71000D02*
D03*
X150650Y76000D02*
D03*
X129350D02*
D03*
X150650Y51000D02*
D03*
Y56000D02*
D03*
Y61000D02*
D03*
Y81000D02*
D03*
Y71000D02*
D03*
Y41000D02*
D03*
X129350Y36000D02*
D03*
Y41000D02*
D03*
Y56000D02*
D03*
Y61000D02*
D03*
Y66000D02*
D03*
X150650D02*
D03*
X129350Y46000D02*
D03*
Y81000D02*
D03*
D130*
X110488Y97240D02*
D03*
Y89760D02*
D03*
X121512D02*
D03*
Y93500D02*
D03*
Y97240D02*
D03*
D131*
X200307Y49061D02*
D03*
Y51621D02*
D03*
Y54180D02*
D03*
Y56739D02*
D03*
X213693Y49061D02*
D03*
Y51621D02*
D03*
Y54180D02*
D03*
Y56739D02*
D03*
D132*
X63728Y80500D02*
D03*
Y75500D02*
D03*
Y70500D02*
D03*
Y65500D02*
D03*
X42272Y80500D02*
D03*
Y75500D02*
D03*
Y70500D02*
D03*
Y65500D02*
D03*
D133*
X46768Y117500D02*
D03*
X50232D02*
D03*
X46768Y132500D02*
D03*
X50232D02*
D03*
X46768Y137500D02*
D03*
X50232D02*
D03*
X46768Y142500D02*
D03*
X50232D02*
D03*
D134*
X13035Y125083D02*
D03*
X20035D02*
D03*
M02*
