G04*
G04 #@! TF.GenerationSoftware,Altium Limited,Altium Designer,19.1.9 (167)*
G04*
G04 Layer_Color=2752767*
%FSLAX25Y25*%
%MOIN*%
G70*
G01*
G75*
%ADD11C,0.00100*%
%ADD13C,0.00200*%
%ADD136C,0.00267*%
D11*
X234034Y76926D02*
Y134176D01*
X269234D01*
Y76926D02*
Y134176D01*
X234034Y76926D02*
X269234D01*
D13*
X5700Y84200D02*
Y85800D01*
X7300D01*
Y84200D01*
X5700D01*
X162000Y11300D02*
Y12900D01*
X163600D01*
Y11300D01*
X162000D01*
X256705Y21417D02*
Y23017D01*
X258306D01*
Y21417D01*
X256705D01*
X68200Y50200D02*
Y51800D01*
X69800D01*
Y50200D01*
X68200D01*
X58200Y40200D02*
Y41800D01*
X59800D01*
Y40200D01*
X58200D01*
Y50200D02*
Y51800D01*
X59800D01*
Y50200D01*
X58200D01*
X68200Y40200D02*
Y41800D01*
X69800D01*
Y40200D01*
X68200D01*
X151000Y11400D02*
Y13000D01*
X152600D01*
Y11400D01*
X151000D01*
X32250Y101700D02*
X31450Y103300D01*
X33050D01*
X32250Y101700D01*
Y146700D02*
X31450Y148300D01*
X33050D01*
X32250Y146700D01*
X56450Y111700D02*
Y113300D01*
X58050D01*
Y111700D01*
X56450D01*
X66450Y106700D02*
Y108300D01*
X68050D01*
Y106700D01*
X66450D01*
X44250Y155200D02*
X44650Y155600D01*
X45050D01*
X44650Y156000D01*
X45050Y156400D01*
X44650D01*
X44250Y156800D01*
X43850Y156400D01*
X43450D01*
X43850Y156000D01*
X43450Y155600D01*
X43850D01*
X44250Y155200D01*
Y93200D02*
X44650Y93600D01*
X45050D01*
X44650Y94000D01*
X45050Y94400D01*
X44650D01*
X44250Y94800D01*
X43850Y94400D01*
X43450D01*
X43850Y94000D01*
X43450Y93600D01*
X43850D01*
X44250Y93200D01*
X56450Y141700D02*
Y143300D01*
X58050D01*
Y141700D01*
X56450D01*
X66450Y136700D02*
Y138300D01*
X68050D01*
Y136700D01*
X66450D01*
X56450Y131700D02*
Y133300D01*
X58050D01*
Y131700D01*
X56450D01*
X66450Y116700D02*
Y118300D01*
X68050D01*
Y116700D01*
X66450D01*
X12150Y149100D02*
Y150700D01*
X13750D01*
Y149100D01*
X12150D01*
X18150Y139100D02*
Y140700D01*
X19750D01*
Y139100D01*
X18150D01*
Y99300D02*
Y100900D01*
X19750D01*
Y99300D01*
X18150D01*
X12150Y109300D02*
Y110900D01*
X13750D01*
Y109300D01*
X12150D01*
X66450Y126700D02*
Y128300D01*
X68050D01*
Y126700D01*
X66450D01*
X56450Y121700D02*
Y123300D01*
X58050D01*
Y121700D01*
X56450D01*
X301953Y107617D02*
Y109217D01*
X303553D01*
Y107617D01*
X301953D01*
X312623Y119707D02*
X313023Y120507D01*
X312623Y121307D01*
X313423Y120907D01*
X314223Y121307D01*
X313823Y120507D01*
X314223Y119707D01*
X313423Y120107D01*
X312623Y119707D01*
Y67967D02*
X313023Y68767D01*
X312623Y69567D01*
X313423Y69167D01*
X314223Y69567D01*
X313823Y68767D01*
X314223Y67967D01*
X313423Y68367D01*
X312623Y67967D01*
X301953Y97777D02*
Y99377D01*
X303553D01*
Y97777D01*
X301953D01*
Y89897D02*
Y91497D01*
X303553D01*
Y89897D01*
X301953D01*
Y80057D02*
Y81657D01*
X303553D01*
Y80057D01*
X301953D01*
Y44817D02*
Y46417D01*
X303553D01*
Y44817D01*
X301953D01*
X312623Y56907D02*
X313023Y57707D01*
X312623Y58507D01*
X313423Y58107D01*
X314223Y58507D01*
X313823Y57707D01*
X314223Y56907D01*
X313423Y57307D01*
X312623Y56907D01*
Y5167D02*
X313023Y5967D01*
X312623Y6767D01*
X313423Y6367D01*
X314223Y6767D01*
X313823Y5967D01*
X314223Y5167D01*
X313423Y5567D01*
X312623Y5167D01*
X301953Y34977D02*
Y36577D01*
X303553D01*
Y34977D01*
X301953D01*
Y27097D02*
Y28697D01*
X303553D01*
Y27097D01*
X301953D01*
Y17257D02*
Y18857D01*
X303553D01*
Y17257D01*
X301953D01*
X187800Y35900D02*
Y37500D01*
X189400D01*
Y35900D01*
X187800D01*
X217800D02*
Y37500D01*
X219400D01*
Y35900D01*
X217800D01*
X177800D02*
Y37500D01*
X179400D01*
Y35900D01*
X177800D01*
X207800D02*
Y37500D01*
X209400D01*
Y35900D01*
X207800D01*
X197800D02*
Y37500D01*
X199400D01*
Y35900D01*
X197800D01*
X167800D02*
Y37500D01*
X169400D01*
Y35900D01*
X167800D01*
X19200Y45200D02*
Y46800D01*
X20800D01*
Y45200D01*
X19200D01*
X42800D02*
Y46800D01*
X44400D01*
Y45200D01*
X42800D01*
X31000Y26700D02*
Y28300D01*
X32600D01*
Y26700D01*
X31000D01*
X131234Y125151D02*
Y124751D01*
X132034D01*
Y125151D01*
X132434D01*
Y125951D01*
X132034D01*
Y126351D01*
X131234D01*
Y125951D01*
X130834D01*
Y125151D01*
X131234D01*
X82600Y85100D02*
Y84700D01*
X83400D01*
Y85100D01*
X83800D01*
Y85900D01*
X83400D01*
Y86300D01*
X82600D01*
Y85900D01*
X82200D01*
Y85100D01*
X82600D01*
X74600Y80100D02*
Y79700D01*
X75400D01*
Y80100D01*
X75800D01*
Y80900D01*
X75400D01*
Y81300D01*
X74600D01*
Y80900D01*
X74200D01*
Y80100D01*
X74600D01*
Y83600D02*
Y83200D01*
X75400D01*
Y83600D01*
X75800D01*
Y84400D01*
X75400D01*
Y84800D01*
X74600D01*
Y84400D01*
X74200D01*
Y83600D01*
X74600D01*
X71000Y78000D02*
Y77600D01*
X71800D01*
Y78000D01*
X72200D01*
Y78800D01*
X71800D01*
Y79200D01*
X71000D01*
Y78800D01*
X70600D01*
Y78000D01*
X71000D01*
X131234Y87651D02*
Y87251D01*
X132034D01*
Y87651D01*
X132434D01*
Y88451D01*
X132034D01*
Y88851D01*
X131234D01*
Y88451D01*
X130834D01*
Y87651D01*
X131234D01*
X128734D02*
Y87251D01*
X129534D01*
Y87651D01*
X129934D01*
Y88451D01*
X129534D01*
Y88851D01*
X128734D01*
Y88451D01*
X128334D01*
Y87651D01*
X128734D01*
X105600Y84300D02*
Y83900D01*
X106400D01*
Y84300D01*
X106800D01*
Y85100D01*
X106400D01*
Y85500D01*
X105600D01*
Y85100D01*
X105200D01*
Y84300D01*
X105600D01*
X143284Y92151D02*
Y91751D01*
X144084D01*
Y92151D01*
X144484D01*
Y92951D01*
X144084D01*
Y93351D01*
X143284D01*
Y92951D01*
X142884D01*
Y92151D01*
X143284D01*
Y94651D02*
Y94251D01*
X144084D01*
Y94651D01*
X144484D01*
Y95451D01*
X144084D01*
Y95851D01*
X143284D01*
Y95451D01*
X142884D01*
Y94651D01*
X143284D01*
X209234Y87651D02*
Y87251D01*
X210034D01*
Y87651D01*
X210434D01*
Y88451D01*
X210034D01*
Y88851D01*
X209234D01*
Y88451D01*
X208834D01*
Y87651D01*
X209234D01*
X126100Y97600D02*
Y97200D01*
X126900D01*
Y97600D01*
X127300D01*
Y98400D01*
X126900D01*
Y98800D01*
X126100D01*
Y98400D01*
X125700D01*
Y97600D01*
X126100D01*
X162600Y46796D02*
Y46396D01*
X163400D01*
Y46796D01*
X163800D01*
Y47596D01*
X163400D01*
Y47996D01*
X162600D01*
Y47596D01*
X162200D01*
Y46796D01*
X162600D01*
X157600Y49700D02*
Y49300D01*
X158400D01*
Y49700D01*
X158800D01*
Y50500D01*
X158400D01*
Y50900D01*
X157600D01*
Y50500D01*
X157200D01*
Y49700D01*
X157600D01*
Y46800D02*
Y46400D01*
X158400D01*
Y46800D01*
X158800D01*
Y47600D01*
X158400D01*
Y48000D01*
X157600D01*
Y47600D01*
X157200D01*
Y46800D01*
X157600D01*
X136100Y53100D02*
Y52700D01*
X136900D01*
Y53100D01*
X137300D01*
Y53900D01*
X136900D01*
Y54300D01*
X136100D01*
Y53900D01*
X135700D01*
Y53100D01*
X136100D01*
X95000Y142900D02*
Y142500D01*
X95800D01*
Y142900D01*
X96200D01*
Y143700D01*
X95800D01*
Y144100D01*
X95000D01*
Y143700D01*
X94600D01*
Y142900D01*
X95000D01*
X97616D02*
Y142500D01*
X98416D01*
Y142900D01*
X98816D01*
Y143700D01*
X98416D01*
Y144100D01*
X97616D01*
Y143700D01*
X97216D01*
Y142900D01*
X97616D01*
X101553D02*
Y142500D01*
X102353D01*
Y142900D01*
X102753D01*
Y143700D01*
X102353D01*
Y144100D01*
X101553D01*
Y143700D01*
X101153D01*
Y142900D01*
X101553D01*
X92400D02*
Y142500D01*
X93200D01*
Y142900D01*
X93600D01*
Y143700D01*
X93200D01*
Y144100D01*
X92400D01*
Y143700D01*
X92000D01*
Y142900D01*
X92400D01*
X329965Y25269D02*
X330365D01*
X330765Y25669D01*
X331165Y25269D01*
X331565D01*
Y25669D01*
X331165Y26069D01*
X331565Y26469D01*
Y26869D01*
X331165D01*
X330765Y26469D01*
X330365Y26869D01*
X329965D01*
Y26469D01*
X330365Y26069D01*
X329965Y25669D01*
Y25269D01*
X325635D02*
X326035D01*
X326435Y25669D01*
X326835Y25269D01*
X327235D01*
Y25669D01*
X326835Y26069D01*
X327235Y26469D01*
Y26869D01*
X326835D01*
X326435Y26469D01*
X326035Y26869D01*
X325635D01*
Y26469D01*
X326035Y26069D01*
X325635Y25669D01*
Y25269D01*
Y33931D02*
X326035D01*
X326435Y34331D01*
X326835Y33931D01*
X327235D01*
Y34331D01*
X326835Y34731D01*
X327235Y35131D01*
Y35531D01*
X326835D01*
X326435Y35131D01*
X326035Y35531D01*
X325635D01*
Y35131D01*
X326035Y34731D01*
X325635Y34331D01*
Y33931D01*
X329965D02*
X330365D01*
X330765Y34331D01*
X331165Y33931D01*
X331565D01*
Y34331D01*
X331165Y34731D01*
X331565Y35131D01*
Y35531D01*
X331165D01*
X330765Y35131D01*
X330365Y35531D01*
X329965D01*
Y35131D01*
X330365Y34731D01*
X329965Y34331D01*
Y33931D01*
Y29600D02*
X330365D01*
X330765Y30000D01*
X331165Y29600D01*
X331565D01*
Y30000D01*
X331165Y30400D01*
X331565Y30800D01*
Y31200D01*
X331165D01*
X330765Y30800D01*
X330365Y31200D01*
X329965D01*
Y30800D01*
X330365Y30400D01*
X329965Y30000D01*
Y29600D01*
X325635D02*
X326035D01*
X326435Y30000D01*
X326835Y29600D01*
X327235D01*
Y30000D01*
X326835Y30400D01*
X327235Y30800D01*
Y31200D01*
X326835D01*
X326435Y30800D01*
X326035Y31200D01*
X325635D01*
Y30800D01*
X326035Y30400D01*
X325635Y30000D01*
Y29600D01*
X265409Y98851D02*
Y98451D01*
X266209D01*
Y98851D01*
X266609D01*
Y99651D01*
X266209D01*
Y100051D01*
X265409D01*
Y99651D01*
X265009D01*
Y98851D01*
X265409D01*
X243359Y102001D02*
Y101601D01*
X244159D01*
Y102001D01*
X244559D01*
Y102801D01*
X244159D01*
Y103201D01*
X243359D01*
Y102801D01*
X242959D01*
Y102001D01*
X243359D01*
Y95701D02*
Y95301D01*
X244159D01*
Y95701D01*
X244559D01*
Y96501D01*
X244159D01*
Y96901D01*
X243359D01*
Y96501D01*
X242959D01*
Y95701D01*
X243359D01*
X259109Y127201D02*
Y126801D01*
X259909D01*
Y127201D01*
X260309D01*
Y128001D01*
X259909D01*
Y128401D01*
X259109D01*
Y128001D01*
X258709D01*
Y127201D01*
X259109D01*
X262259Y89401D02*
Y89001D01*
X263059D01*
Y89401D01*
X263459D01*
Y90201D01*
X263059D01*
Y90601D01*
X262259D01*
Y90201D01*
X261859D01*
Y89401D01*
X262259D01*
X243359D02*
Y89001D01*
X244159D01*
Y89401D01*
X244559D01*
Y90201D01*
X244159D01*
Y90601D01*
X243359D01*
Y90201D01*
X242959D01*
Y89401D01*
X243359D01*
X259109Y117751D02*
Y117351D01*
X259909D01*
Y117751D01*
X260309D01*
Y118551D01*
X259909D01*
Y118951D01*
X259109D01*
Y118551D01*
X258709D01*
Y117751D01*
X259109D01*
Y86251D02*
Y85851D01*
X259909D01*
Y86251D01*
X260309D01*
Y87051D01*
X259909D01*
Y87451D01*
X259109D01*
Y87051D01*
X258709D01*
Y86251D01*
X259109D01*
X243359D02*
Y85851D01*
X244159D01*
Y86251D01*
X244559D01*
Y87051D01*
X244159D01*
Y87451D01*
X243359D01*
Y87051D01*
X242959D01*
Y86251D01*
X243359D01*
X240209Y89401D02*
Y89001D01*
X241009D01*
Y89401D01*
X241409D01*
Y90201D01*
X241009D01*
Y90601D01*
X240209D01*
Y90201D01*
X239809D01*
Y89401D01*
X240209D01*
X262259Y86251D02*
Y85851D01*
X263059D01*
Y86251D01*
X263459D01*
Y87051D01*
X263059D01*
Y87451D01*
X262259D01*
Y87051D01*
X261859D01*
Y86251D01*
X262259D01*
X240209D02*
Y85851D01*
X241009D01*
Y86251D01*
X241409D01*
Y87051D01*
X241009D01*
Y87451D01*
X240209D01*
Y87051D01*
X239809D01*
Y86251D01*
X240209D01*
X262259Y83101D02*
Y82701D01*
X263059D01*
Y83101D01*
X263459D01*
Y83901D01*
X263059D01*
Y84301D01*
X262259D01*
Y83901D01*
X261859D01*
Y83101D01*
X262259D01*
X240209D02*
Y82701D01*
X241009D01*
Y83101D01*
X241409D01*
Y83901D01*
X241009D01*
Y84301D01*
X240209D01*
Y83901D01*
X239809D01*
Y83101D01*
X240209D01*
X262259Y79951D02*
Y79551D01*
X263059D01*
Y79951D01*
X263459D01*
Y80751D01*
X263059D01*
Y81151D01*
X262259D01*
Y80751D01*
X261859D01*
Y79951D01*
X262259D01*
X243359Y83101D02*
Y82701D01*
X244159D01*
Y83101D01*
X244559D01*
Y83901D01*
X244159D01*
Y84301D01*
X243359D01*
Y83901D01*
X242959D01*
Y83101D01*
X243359D01*
X259109Y95701D02*
Y95301D01*
X259909D01*
Y95701D01*
X260309D01*
Y96501D01*
X259909D01*
Y96901D01*
X259109D01*
Y96501D01*
X258709D01*
Y95701D01*
X259109D01*
Y83101D02*
Y82701D01*
X259909D01*
Y83101D01*
X260309D01*
Y83901D01*
X259909D01*
Y84301D01*
X259109D01*
Y83901D01*
X258709D01*
Y83101D01*
X259109D01*
Y89401D02*
Y89001D01*
X259909D01*
Y89401D01*
X260309D01*
Y90201D01*
X259909D01*
Y90601D01*
X259109D01*
Y90201D01*
X258709D01*
Y89401D01*
X259109D01*
X243359Y79951D02*
Y79551D01*
X244159D01*
Y79951D01*
X244559D01*
Y80751D01*
X244159D01*
Y81151D01*
X243359D01*
Y80751D01*
X242959D01*
Y79951D01*
X243359D01*
X262259Y117751D02*
Y117351D01*
X263059D01*
Y117751D01*
X263459D01*
Y118551D01*
X263059D01*
Y118951D01*
X262259D01*
Y118551D01*
X261859D01*
Y117751D01*
X262259D01*
Y120901D02*
Y120501D01*
X263059D01*
Y120901D01*
X263459D01*
Y121701D01*
X263059D01*
Y122101D01*
X262259D01*
Y121701D01*
X261859D01*
Y120901D01*
X262259D01*
X265409Y127201D02*
Y126801D01*
X266209D01*
Y127201D01*
X266609D01*
Y128001D01*
X266209D01*
Y128401D01*
X265409D01*
Y128001D01*
X265009D01*
Y127201D01*
X265409D01*
X240209Y117751D02*
Y117351D01*
X241009D01*
Y117751D01*
X241409D01*
Y118551D01*
X241009D01*
Y118951D01*
X240209D01*
Y118551D01*
X239809D01*
Y117751D01*
X240209D01*
X237059Y127201D02*
Y126801D01*
X237859D01*
Y127201D01*
X238259D01*
Y128001D01*
X237859D01*
Y128401D01*
X237059D01*
Y128001D01*
X236659D01*
Y127201D01*
X237059D01*
X243359D02*
Y126801D01*
X244159D01*
Y127201D01*
X244559D01*
Y128001D01*
X244159D01*
Y128401D01*
X243359D01*
Y128001D01*
X242959D01*
Y127201D01*
X243359D01*
X262259Y102001D02*
Y101601D01*
X263059D01*
Y102001D01*
X263459D01*
Y102801D01*
X263059D01*
Y103201D01*
X262259D01*
Y102801D01*
X261859D01*
Y102001D01*
X262259D01*
Y111451D02*
Y111051D01*
X263059D01*
Y111451D01*
X263459D01*
Y112251D01*
X263059D01*
Y112651D01*
X262259D01*
Y112251D01*
X261859D01*
Y111451D01*
X262259D01*
X265409D02*
Y111051D01*
X266209D01*
Y111451D01*
X266609D01*
Y112251D01*
X266209D01*
Y112651D01*
X265409D01*
Y112251D01*
X265009D01*
Y111451D01*
X265409D01*
X240209Y102001D02*
Y101601D01*
X241009D01*
Y102001D01*
X241409D01*
Y102801D01*
X241009D01*
Y103201D01*
X240209D01*
Y102801D01*
X239809D01*
Y102001D01*
X240209D01*
Y114601D02*
Y114201D01*
X241009D01*
Y114601D01*
X241409D01*
Y115401D01*
X241009D01*
Y115801D01*
X240209D01*
Y115401D01*
X239809D01*
Y114601D01*
X240209D01*
X265409Y79951D02*
Y79551D01*
X266209D01*
Y79951D01*
X266609D01*
Y80751D01*
X266209D01*
Y81151D01*
X265409D01*
Y80751D01*
X265009D01*
Y79951D01*
X265409D01*
Y86251D02*
Y85851D01*
X266209D01*
Y86251D01*
X266609D01*
Y87051D01*
X266209D01*
Y87451D01*
X265409D01*
Y87051D01*
X265009D01*
Y86251D01*
X265409D01*
Y92551D02*
Y92151D01*
X266209D01*
Y92551D01*
X266609D01*
Y93351D01*
X266209D01*
Y93751D01*
X265409D01*
Y93351D01*
X265009D01*
Y92551D01*
X265409D01*
X237059Y79951D02*
Y79551D01*
X237859D01*
Y79951D01*
X238259D01*
Y80751D01*
X237859D01*
Y81151D01*
X237059D01*
Y80751D01*
X236659D01*
Y79951D01*
X237059D01*
Y86251D02*
Y85851D01*
X237859D01*
Y86251D01*
X238259D01*
Y87051D01*
X237859D01*
Y87451D01*
X237059D01*
Y87051D01*
X236659D01*
Y86251D01*
X237059D01*
Y92551D02*
Y92151D01*
X237859D01*
Y92551D01*
X238259D01*
Y93351D01*
X237859D01*
Y93751D01*
X237059D01*
Y93351D01*
X236659D01*
Y92551D01*
X237059D01*
Y98851D02*
Y98451D01*
X237859D01*
Y98851D01*
X238259D01*
Y99651D01*
X237859D01*
Y100051D01*
X237059D01*
Y99651D01*
X236659D01*
Y98851D01*
X237059D01*
X240209Y92551D02*
Y92151D01*
X241009D01*
Y92551D01*
X241409D01*
Y93351D01*
X241009D01*
Y93751D01*
X240209D01*
Y93351D01*
X239809D01*
Y92551D01*
X240209D01*
X243359D02*
Y92151D01*
X244159D01*
Y92551D01*
X244559D01*
Y93351D01*
X244159D01*
Y93751D01*
X243359D01*
Y93351D01*
X242959D01*
Y92551D01*
X243359D01*
X259109Y124051D02*
Y123651D01*
X259909D01*
Y124051D01*
X260309D01*
Y124851D01*
X259909D01*
Y125251D01*
X259109D01*
Y124851D01*
X258709D01*
Y124051D01*
X259109D01*
Y108301D02*
Y107901D01*
X259909D01*
Y108301D01*
X260309D01*
Y109101D01*
X259909D01*
Y109501D01*
X259109D01*
Y109101D01*
X258709D01*
Y108301D01*
X259109D01*
X262259D02*
Y107901D01*
X263059D01*
Y108301D01*
X263459D01*
Y109101D01*
X263059D01*
Y109501D01*
X262259D01*
Y109101D01*
X261859D01*
Y108301D01*
X262259D01*
X259109Y114601D02*
Y114201D01*
X259909D01*
Y114601D01*
X260309D01*
Y115401D01*
X259909D01*
Y115801D01*
X259109D01*
Y115401D01*
X258709D01*
Y114601D01*
X259109D01*
X262259D02*
Y114201D01*
X263059D01*
Y114601D01*
X263459D01*
Y115401D01*
X263059D01*
Y115801D01*
X262259D01*
Y115401D01*
X261859D01*
Y114601D01*
X262259D01*
X246509Y117751D02*
Y117351D01*
X247309D01*
Y117751D01*
X247709D01*
Y118551D01*
X247309D01*
Y118951D01*
X246509D01*
Y118551D01*
X246109D01*
Y117751D01*
X246509D01*
X262259Y127201D02*
Y126801D01*
X263059D01*
Y127201D01*
X263459D01*
Y128001D01*
X263059D01*
Y128401D01*
X262259D01*
Y128001D01*
X261859D01*
Y127201D01*
X262259D01*
X240209Y124051D02*
Y123651D01*
X241009D01*
Y124051D01*
X241409D01*
Y124851D01*
X241009D01*
Y125251D01*
X240209D01*
Y124851D01*
X239809D01*
Y124051D01*
X240209D01*
X262259D02*
Y123651D01*
X263059D01*
Y124051D01*
X263459D01*
Y124851D01*
X263059D01*
Y125251D01*
X262259D01*
Y124851D01*
X261859D01*
Y124051D01*
X262259D01*
X259109Y130351D02*
Y129951D01*
X259909D01*
Y130351D01*
X260309D01*
Y131151D01*
X259909D01*
Y131551D01*
X259109D01*
Y131151D01*
X258709D01*
Y130351D01*
X259109D01*
X240209Y79951D02*
Y79551D01*
X241009D01*
Y79951D01*
X241409D01*
Y80751D01*
X241009D01*
Y81151D01*
X240209D01*
Y80751D01*
X239809D01*
Y79951D01*
X240209D01*
X259109D02*
Y79551D01*
X259909D01*
Y79951D01*
X260309D01*
Y80751D01*
X259909D01*
Y81151D01*
X259109D01*
Y80751D01*
X258709D01*
Y79951D01*
X259109D01*
X262259Y95701D02*
Y95301D01*
X263059D01*
Y95701D01*
X263459D01*
Y96501D01*
X263059D01*
Y96901D01*
X262259D01*
Y96501D01*
X261859D01*
Y95701D01*
X262259D01*
Y130351D02*
Y129951D01*
X263059D01*
Y130351D01*
X263459D01*
Y131151D01*
X263059D01*
Y131551D01*
X262259D01*
Y131151D01*
X261859D01*
Y130351D01*
X262259D01*
X265409Y124051D02*
Y123651D01*
X266209D01*
Y124051D01*
X266609D01*
Y124851D01*
X266209D01*
Y125251D01*
X265409D01*
Y124851D01*
X265009D01*
Y124051D01*
X265409D01*
Y117751D02*
Y117351D01*
X266209D01*
Y117751D01*
X266609D01*
Y118551D01*
X266209D01*
Y118951D01*
X265409D01*
Y118551D01*
X265009D01*
Y117751D01*
X265409D01*
Y120901D02*
Y120501D01*
X266209D01*
Y120901D01*
X266609D01*
Y121701D01*
X266209D01*
Y122101D01*
X265409D01*
Y121701D01*
X265009D01*
Y120901D01*
X265409D01*
X237059Y124051D02*
Y123651D01*
X237859D01*
Y124051D01*
X238259D01*
Y124851D01*
X237859D01*
Y125251D01*
X237059D01*
Y124851D01*
X236659D01*
Y124051D01*
X237059D01*
Y130351D02*
Y129951D01*
X237859D01*
Y130351D01*
X238259D01*
Y131151D01*
X237859D01*
Y131551D01*
X237059D01*
Y131151D01*
X236659D01*
Y130351D01*
X237059D01*
X243359Y117751D02*
Y117351D01*
X244159D01*
Y117751D01*
X244559D01*
Y118551D01*
X244159D01*
Y118951D01*
X243359D01*
Y118551D01*
X242959D01*
Y117751D01*
X243359D01*
X240209Y127201D02*
Y126801D01*
X241009D01*
Y127201D01*
X241409D01*
Y128001D01*
X241009D01*
Y128401D01*
X240209D01*
Y128001D01*
X239809D01*
Y127201D01*
X240209D01*
X265409Y108301D02*
Y107901D01*
X266209D01*
Y108301D01*
X266609D01*
Y109101D01*
X266209D01*
Y109501D01*
X265409D01*
Y109101D01*
X265009D01*
Y108301D01*
X265409D01*
X262259Y98851D02*
Y98451D01*
X263059D01*
Y98851D01*
X263459D01*
Y99651D01*
X263059D01*
Y100051D01*
X262259D01*
Y99651D01*
X261859D01*
Y98851D01*
X262259D01*
X259109Y111451D02*
Y111051D01*
X259909D01*
Y111451D01*
X260309D01*
Y112251D01*
X259909D01*
Y112651D01*
X259109D01*
Y112251D01*
X258709D01*
Y111451D01*
X259109D01*
X237059Y114601D02*
Y114201D01*
X237859D01*
Y114601D01*
X238259D01*
Y115401D01*
X237859D01*
Y115801D01*
X237059D01*
Y115401D01*
X236659D01*
Y114601D01*
X237059D01*
X240209Y98851D02*
Y98451D01*
X241009D01*
Y98851D01*
X241409D01*
Y99651D01*
X241009D01*
Y100051D01*
X240209D01*
Y99651D01*
X239809D01*
Y98851D01*
X240209D01*
Y108301D02*
Y107901D01*
X241009D01*
Y108301D01*
X241409D01*
Y109101D01*
X241009D01*
Y109501D01*
X240209D01*
Y109101D01*
X239809D01*
Y108301D01*
X240209D01*
X265409Y83101D02*
Y82701D01*
X266209D01*
Y83101D01*
X266609D01*
Y83901D01*
X266209D01*
Y84301D01*
X265409D01*
Y83901D01*
X265009D01*
Y83101D01*
X265409D01*
Y89401D02*
Y89001D01*
X266209D01*
Y89401D01*
X266609D01*
Y90201D01*
X266209D01*
Y90601D01*
X265409D01*
Y90201D01*
X265009D01*
Y89401D01*
X265409D01*
X237059Y83101D02*
Y82701D01*
X237859D01*
Y83101D01*
X238259D01*
Y83901D01*
X237859D01*
Y84301D01*
X237059D01*
Y83901D01*
X236659D01*
Y83101D01*
X237059D01*
Y89401D02*
Y89001D01*
X237859D01*
Y89401D01*
X238259D01*
Y90201D01*
X237859D01*
Y90601D01*
X237059D01*
Y90201D01*
X236659D01*
Y89401D01*
X237059D01*
Y108301D02*
Y107901D01*
X237859D01*
Y108301D01*
X238259D01*
Y109101D01*
X237859D01*
Y109501D01*
X237059D01*
Y109101D01*
X236659D01*
Y108301D01*
X237059D01*
X262259Y92551D02*
Y92151D01*
X263059D01*
Y92551D01*
X263459D01*
Y93351D01*
X263059D01*
Y93751D01*
X262259D01*
Y93351D01*
X261859D01*
Y92551D01*
X262259D01*
X240209Y130351D02*
Y129951D01*
X241009D01*
Y130351D01*
X241409D01*
Y131151D01*
X241009D01*
Y131551D01*
X240209D01*
Y131151D01*
X239809D01*
Y130351D01*
X240209D01*
X243359Y98852D02*
Y98452D01*
X244159D01*
Y98852D01*
X244559D01*
Y99652D01*
X244159D01*
Y100052D01*
X243359D01*
Y99652D01*
X242959D01*
Y98852D01*
X243359D01*
Y124049D02*
Y123649D01*
X244159D01*
Y124049D01*
X244559D01*
Y124849D01*
X244159D01*
Y125249D01*
X243359D01*
Y124849D01*
X242959D01*
Y124049D01*
X243359D01*
X226231Y83101D02*
Y82701D01*
X227031D01*
Y83101D01*
X227431D01*
Y83901D01*
X227031D01*
Y84301D01*
X226231D01*
Y83901D01*
X225831D01*
Y83101D01*
X226231D01*
X196981Y141551D02*
Y141151D01*
X197781D01*
Y141551D01*
X198181D01*
Y142351D01*
X197781D01*
Y142751D01*
X196981D01*
Y142351D01*
X196581D01*
Y141551D01*
X196981D01*
X93869Y129700D02*
X94269D01*
X94669Y130100D01*
X95069Y129700D01*
X95469D01*
Y130100D01*
X95069Y130500D01*
X95469Y130900D01*
Y131300D01*
X95069D01*
X94669Y130900D01*
X94269Y131300D01*
X93869D01*
Y130900D01*
X94269Y130500D01*
X93869Y130100D01*
Y129700D01*
X98200Y125369D02*
X98600D01*
X99000Y125769D01*
X99400Y125369D01*
X99800D01*
Y125769D01*
X99400Y126169D01*
X99800Y126569D01*
Y126969D01*
X99400D01*
X99000Y126569D01*
X98600Y126969D01*
X98200D01*
Y126569D01*
X98600Y126169D01*
X98200Y125769D01*
Y125369D01*
Y129700D02*
X98600D01*
X99000Y130100D01*
X99400Y129700D01*
X99800D01*
Y130100D01*
X99400Y130500D01*
X99800Y130900D01*
Y131300D01*
X99400D01*
X99000Y130900D01*
X98600Y131300D01*
X98200D01*
Y130900D01*
X98600Y130500D01*
X98200Y130100D01*
Y129700D01*
Y134031D02*
X98600D01*
X99000Y134431D01*
X99400Y134031D01*
X99800D01*
Y134431D01*
X99400Y134831D01*
X99800Y135231D01*
Y135631D01*
X99400D01*
X99000Y135231D01*
X98600Y135631D01*
X98200D01*
Y135231D01*
X98600Y134831D01*
X98200Y134431D01*
Y134031D01*
X102531Y129700D02*
X102931D01*
X103331Y130100D01*
X103731Y129700D01*
X104131D01*
Y130100D01*
X103731Y130500D01*
X104131Y130900D01*
Y131300D01*
X103731D01*
X103331Y130900D01*
X102931Y131300D01*
X102531D01*
Y130900D01*
X102931Y130500D01*
X102531Y130100D01*
Y129700D01*
X131300Y103900D02*
Y103500D01*
X132100D01*
Y103900D01*
X132500D01*
Y104700D01*
X132100D01*
Y105100D01*
X131300D01*
Y104700D01*
X130900D01*
Y103900D01*
X131300D01*
X127600Y107700D02*
Y107300D01*
X128400D01*
Y107700D01*
X128800D01*
Y108500D01*
X128400D01*
Y108900D01*
X127600D01*
Y108500D01*
X127200D01*
Y107700D01*
X127600D01*
X222700Y53232D02*
Y52832D01*
X223500D01*
Y53232D01*
X223900D01*
Y54032D01*
X223500D01*
Y54432D01*
X222700D01*
Y54032D01*
X222300D01*
Y53232D01*
X222700D01*
X225700D02*
Y52832D01*
X226500D01*
Y53232D01*
X226900D01*
Y54032D01*
X226500D01*
Y54432D01*
X225700D01*
Y54032D01*
X225300D01*
Y53232D01*
X225700D01*
Y50232D02*
Y49832D01*
X226500D01*
Y50232D01*
X226900D01*
Y51032D01*
X226500D01*
Y51432D01*
X225700D01*
Y51032D01*
X225300D01*
Y50232D01*
X225700D01*
X184384Y110050D02*
Y109651D01*
X185184D01*
Y110050D01*
X185584D01*
Y110851D01*
X185184D01*
Y111250D01*
X184384D01*
Y110851D01*
X183984D01*
Y110050D01*
X184384D01*
X111600Y136105D02*
Y135705D01*
X112400D01*
Y136105D01*
X112800D01*
Y136905D01*
X112400D01*
Y137305D01*
X111600D01*
Y136905D01*
X111200D01*
Y136105D01*
X111600D01*
Y139600D02*
Y139200D01*
X112400D01*
Y139600D01*
X112800D01*
Y140400D01*
X112400D01*
Y140800D01*
X111600D01*
Y140400D01*
X111200D01*
Y139600D01*
X111600D01*
X90768Y117600D02*
Y117200D01*
X91568D01*
Y117600D01*
X91968D01*
Y118400D01*
X91568D01*
Y118800D01*
X90768D01*
Y118400D01*
X90368D01*
Y117600D01*
X90768D01*
X95700D02*
Y117200D01*
X96500D01*
Y117600D01*
X96900D01*
Y118400D01*
X96500D01*
Y118800D01*
X95700D01*
Y118400D01*
X95300D01*
Y117600D01*
X95700D01*
X93200D02*
Y117200D01*
X94000D01*
Y117600D01*
X94400D01*
Y118400D01*
X94000D01*
Y118800D01*
X93200D01*
Y118400D01*
X92800D01*
Y117600D01*
X93200D01*
X116100Y103900D02*
Y103500D01*
X116900D01*
Y103900D01*
X117300D01*
Y104700D01*
X116900D01*
Y105100D01*
X116100D01*
Y104700D01*
X115700D01*
Y103900D01*
X116100D01*
X108800Y187648D02*
Y187249D01*
X109600D01*
Y187648D01*
X110000D01*
Y188449D01*
X109600D01*
Y188848D01*
X108800D01*
Y188449D01*
X108400D01*
Y187648D01*
X108800D01*
X103800D02*
Y187249D01*
X104600D01*
Y187648D01*
X105000D01*
Y188449D01*
X104600D01*
Y188848D01*
X103800D01*
Y188449D01*
X103400D01*
Y187648D01*
X103800D01*
X98800D02*
Y187249D01*
X99600D01*
Y187648D01*
X100000D01*
Y188449D01*
X99600D01*
Y188848D01*
X98800D01*
Y188449D01*
X98400D01*
Y187648D01*
X98800D01*
X93800D02*
Y187249D01*
X94600D01*
Y187648D01*
X95000D01*
Y188449D01*
X94600D01*
Y188848D01*
X93800D01*
Y188449D01*
X93400D01*
Y187648D01*
X93800D01*
X193734Y197200D02*
Y196800D01*
X194534D01*
Y197200D01*
X194934D01*
Y198000D01*
X194534D01*
Y198400D01*
X193734D01*
Y198000D01*
X193334D01*
Y197200D01*
X193734D01*
X183734D02*
Y196800D01*
X184534D01*
Y197200D01*
X184934D01*
Y198000D01*
X184534D01*
Y198400D01*
X183734D01*
Y198000D01*
X183334D01*
Y197200D01*
X183734D01*
X173734D02*
Y196800D01*
X174534D01*
Y197200D01*
X174934D01*
Y198000D01*
X174534D01*
Y198400D01*
X173734D01*
Y198000D01*
X173334D01*
Y197200D01*
X173734D01*
X128600D02*
Y196800D01*
X129400D01*
Y197200D01*
X129800D01*
Y198000D01*
X129400D01*
Y198400D01*
X128600D01*
Y198000D01*
X128200D01*
Y197200D01*
X128600D01*
X116200D02*
Y196800D01*
X117000D01*
Y197200D01*
X117400D01*
Y198000D01*
X117000D01*
Y198400D01*
X116200D01*
Y198000D01*
X115800D01*
Y197200D01*
X116200D01*
X108800D02*
Y196800D01*
X109600D01*
Y197200D01*
X110000D01*
Y198000D01*
X109600D01*
Y198400D01*
X108800D01*
Y198000D01*
X108400D01*
Y197200D01*
X108800D01*
X103800D02*
Y196800D01*
X104600D01*
Y197200D01*
X105000D01*
Y198000D01*
X104600D01*
Y198400D01*
X103800D01*
Y198000D01*
X103400D01*
Y197200D01*
X103800D01*
X98800D02*
Y196800D01*
X99600D01*
Y197200D01*
X100000D01*
Y198000D01*
X99600D01*
Y198400D01*
X98800D01*
Y198000D01*
X98400D01*
Y197200D01*
X98800D01*
X93800D02*
Y196800D01*
X94600D01*
Y197200D01*
X95000D01*
Y198000D01*
X94600D01*
Y198400D01*
X93800D01*
Y198000D01*
X93400D01*
Y197200D01*
X93800D01*
X168734D02*
Y196800D01*
X169534D01*
Y197200D01*
X169934D01*
Y198000D01*
X169534D01*
Y198400D01*
X168734D01*
Y198000D01*
X168334D01*
Y197200D01*
X168734D01*
X118600Y82600D02*
Y82200D01*
X119400D01*
Y82600D01*
X119800D01*
Y83400D01*
X119400D01*
Y83800D01*
X118600D01*
Y83400D01*
X118200D01*
Y82600D01*
X118600D01*
Y79600D02*
Y79200D01*
X119400D01*
Y79600D01*
X119800D01*
Y80400D01*
X119400D01*
Y80800D01*
X118600D01*
Y80400D01*
X118200D01*
Y79600D01*
X118600D01*
Y76600D02*
Y76200D01*
X119400D01*
Y76600D01*
X119800D01*
Y77400D01*
X119400D01*
Y77800D01*
X118600D01*
Y77400D01*
X118200D01*
Y76600D01*
X118600D01*
X74600Y70600D02*
Y70200D01*
X75400D01*
Y70600D01*
X75800D01*
Y71400D01*
X75400D01*
Y71800D01*
X74600D01*
Y71400D01*
X74200D01*
Y70600D01*
X74600D01*
X178759Y181674D02*
Y181273D01*
X179559D01*
Y181674D01*
X179959D01*
Y182474D01*
X179559D01*
Y182873D01*
X178759D01*
Y182474D01*
X178359D01*
Y181674D01*
X178759D01*
X188734D02*
Y181273D01*
X189534D01*
Y181674D01*
X189934D01*
Y182474D01*
X189534D01*
Y182873D01*
X188734D01*
Y182474D01*
X188334D01*
Y181674D01*
X188734D01*
X193734Y187648D02*
Y187249D01*
X194534D01*
Y187648D01*
X194934D01*
Y188449D01*
X194534D01*
Y188848D01*
X193734D01*
Y188449D01*
X193334D01*
Y187648D01*
X193734D01*
X173734D02*
Y187249D01*
X174534D01*
Y187648D01*
X174934D01*
Y188449D01*
X174534D01*
Y188848D01*
X173734D01*
Y188449D01*
X173334D01*
Y187648D01*
X173734D01*
X183734D02*
Y187249D01*
X184534D01*
Y187648D01*
X184934D01*
Y188449D01*
X184534D01*
Y188848D01*
X183734D01*
Y188449D01*
X183334D01*
Y187648D01*
X183734D01*
X188734D02*
Y187249D01*
X189534D01*
Y187648D01*
X189934D01*
Y188449D01*
X189534D01*
Y188848D01*
X188734D01*
Y188449D01*
X188334D01*
Y187648D01*
X188734D01*
X178734D02*
Y187249D01*
X179534D01*
Y187648D01*
X179934D01*
Y188449D01*
X179534D01*
Y188848D01*
X178734D01*
Y188449D01*
X178334D01*
Y187648D01*
X178734D01*
X168734D02*
Y187249D01*
X169534D01*
Y187648D01*
X169934D01*
Y188449D01*
X169534D01*
Y188848D01*
X168734D01*
Y188449D01*
X168334D01*
Y187648D01*
X168734D01*
X153141Y175700D02*
Y175300D01*
X153941D01*
Y175700D01*
X154341D01*
Y176500D01*
X153941D01*
Y176900D01*
X153141D01*
Y176500D01*
X152741D01*
Y175700D01*
X153141D01*
X158259D02*
Y175300D01*
X159059D01*
Y175700D01*
X159459D01*
Y176500D01*
X159059D01*
Y176900D01*
X158259D01*
Y176500D01*
X157859D01*
Y175700D01*
X158259D01*
X101200Y167500D02*
Y167100D01*
X102000D01*
Y167500D01*
X102400D01*
Y168300D01*
X102000D01*
Y168700D01*
X101200D01*
Y168300D01*
X100800D01*
Y167500D01*
X101200D01*
X92200Y164600D02*
Y164200D01*
X93000D01*
Y164600D01*
X93400D01*
Y165400D01*
X93000D01*
Y165800D01*
X92200D01*
Y165400D01*
X91800D01*
Y164600D01*
X92200D01*
Y180300D02*
Y179900D01*
X93000D01*
Y180300D01*
X93400D01*
Y181100D01*
X93000D01*
Y181500D01*
X92200D01*
Y181100D01*
X91800D01*
Y180300D01*
X92200D01*
X175000Y41400D02*
Y41000D01*
X175800D01*
Y41400D01*
X176200D01*
Y42200D01*
X175800D01*
Y42600D01*
X175000D01*
Y42200D01*
X174600D01*
Y41400D01*
X175000D01*
X136100Y45600D02*
Y45200D01*
X136900D01*
Y45600D01*
X137300D01*
Y46400D01*
X136900D01*
Y46800D01*
X136100D01*
Y46400D01*
X135700D01*
Y45600D01*
X136100D01*
X140400Y32200D02*
Y31800D01*
X141200D01*
Y32200D01*
X141600D01*
Y33000D01*
X141200D01*
Y33400D01*
X140400D01*
Y33000D01*
X140000D01*
Y32200D01*
X140400D01*
X136100D02*
Y31800D01*
X136900D01*
Y32200D01*
X137300D01*
Y33000D01*
X136900D01*
Y33400D01*
X136100D01*
Y33000D01*
X135700D01*
Y32200D01*
X136100D01*
X168200Y41400D02*
Y41000D01*
X169000D01*
Y41400D01*
X169400D01*
Y42200D01*
X169000D01*
Y42600D01*
X168200D01*
Y42200D01*
X167800D01*
Y41400D01*
X168200D01*
X162600Y49796D02*
Y49396D01*
X163400D01*
Y49796D01*
X163800D01*
Y50596D01*
X163400D01*
Y50996D01*
X162600D01*
Y50596D01*
X162200D01*
Y49796D01*
X162600D01*
Y53796D02*
Y53396D01*
X163400D01*
Y53796D01*
X163800D01*
Y54596D01*
X163400D01*
Y54996D01*
X162600D01*
Y54596D01*
X162200D01*
Y53796D01*
X162600D01*
X181900Y63600D02*
Y63200D01*
X182700D01*
Y63600D01*
X183100D01*
Y64400D01*
X182700D01*
Y64800D01*
X181900D01*
Y64400D01*
X181500D01*
Y63600D01*
X181900D01*
X175000D02*
Y63200D01*
X175800D01*
Y63600D01*
X176200D01*
Y64400D01*
X175800D01*
Y64800D01*
X175000D01*
Y64400D01*
X174600D01*
Y63600D01*
X175000D01*
X172300D02*
Y63200D01*
X173100D01*
Y63600D01*
X173500D01*
Y64400D01*
X173100D01*
Y64800D01*
X172300D01*
Y64400D01*
X171900D01*
Y63600D01*
X172300D01*
X178734D02*
Y63200D01*
X179534D01*
Y63600D01*
X179934D01*
Y64400D01*
X179534D01*
Y64800D01*
X178734D01*
Y64400D01*
X178334D01*
Y63600D01*
X178734D01*
X181600Y79632D02*
Y79232D01*
X182400D01*
Y79632D01*
X182800D01*
Y80432D01*
X182400D01*
Y80832D01*
X181600D01*
Y80432D01*
X181200D01*
Y79632D01*
X181600D01*
X178734Y70100D02*
Y69700D01*
X179534D01*
Y70100D01*
X179934D01*
Y70900D01*
X179534D01*
Y71300D01*
X178734D01*
Y70900D01*
X178334D01*
Y70100D01*
X178734D01*
Y73100D02*
Y72700D01*
X179534D01*
Y73100D01*
X179934D01*
Y73900D01*
X179534D01*
Y74300D01*
X178734D01*
Y73900D01*
X178334D01*
Y73100D01*
X178734D01*
X191200Y77651D02*
Y77251D01*
X192000D01*
Y77651D01*
X192400D01*
Y78451D01*
X192000D01*
Y78851D01*
X191200D01*
Y78451D01*
X190800D01*
Y77651D01*
X191200D01*
X191234Y80000D02*
Y79600D01*
X192034D01*
Y80000D01*
X192434D01*
Y80800D01*
X192034D01*
Y81200D01*
X191234D01*
Y80800D01*
X190834D01*
Y80000D01*
X191234D01*
X194984D02*
Y79600D01*
X195784D01*
Y80000D01*
X196184D01*
Y80800D01*
X195784D01*
Y81200D01*
X194984D01*
Y80800D01*
X194584D01*
Y80000D01*
X194984D01*
X200016Y66161D02*
Y65761D01*
X200816D01*
Y66161D01*
X201216D01*
Y66961D01*
X200816D01*
Y67361D01*
X200016D01*
Y66961D01*
X199616D01*
Y66161D01*
X200016D01*
X204984D02*
Y65761D01*
X205784D01*
Y66161D01*
X206184D01*
Y66961D01*
X205784D01*
Y67361D01*
X204984D01*
Y66961D01*
X204584D01*
Y66161D01*
X204984D01*
X208248D02*
Y65761D01*
X209048D01*
Y66161D01*
X209448D01*
Y66961D01*
X209048D01*
Y67361D01*
X208248D01*
Y66961D01*
X207848D01*
Y66161D01*
X208248D01*
X198700Y77651D02*
Y77251D01*
X199500D01*
Y77651D01*
X199900D01*
Y78451D01*
X199500D01*
Y78851D01*
X198700D01*
Y78451D01*
X198300D01*
Y77651D01*
X198700D01*
X206234Y77651D02*
Y77251D01*
X207034D01*
Y77651D01*
X207434D01*
Y78451D01*
X207034D01*
Y78851D01*
X206234D01*
Y78451D01*
X205834D01*
Y77651D01*
X206234D01*
X202484Y77651D02*
Y77251D01*
X203284D01*
Y77651D01*
X203684D01*
Y78451D01*
X203284D01*
Y78851D01*
X202484D01*
Y78451D01*
X202084D01*
Y77651D01*
X202484D01*
X200147Y157651D02*
Y157251D01*
X200947D01*
Y157651D01*
X201347D01*
Y158451D01*
X200947D01*
Y158851D01*
X200147D01*
Y158451D01*
X199747D01*
Y157651D01*
X200147D01*
X193832D02*
Y157251D01*
X194632D01*
Y157651D01*
X195032D01*
Y158451D01*
X194632D01*
Y158851D01*
X193832D01*
Y158451D01*
X193432D01*
Y157651D01*
X193832D01*
X187525D02*
Y157251D01*
X188325D01*
Y157651D01*
X188725D01*
Y158451D01*
X188325D01*
Y158851D01*
X187525D01*
Y158451D01*
X187125D01*
Y157651D01*
X187525D01*
X106600Y71200D02*
Y70800D01*
X107400D01*
Y71200D01*
X107800D01*
Y72000D01*
X107400D01*
Y72400D01*
X106600D01*
Y72000D01*
X106200D01*
Y71200D01*
X106600D01*
X74600Y66100D02*
Y65700D01*
X75400D01*
Y66100D01*
X75800D01*
Y66900D01*
X75400D01*
Y67300D01*
X74600D01*
Y66900D01*
X74200D01*
Y66100D01*
X74600D01*
X157600Y58800D02*
Y58400D01*
X158400D01*
Y58800D01*
X158800D01*
Y59600D01*
X158400D01*
Y60000D01*
X157600D01*
Y59600D01*
X157200D01*
Y58800D01*
X157600D01*
X143100D02*
Y58400D01*
X143900D01*
Y58800D01*
X144300D01*
Y59600D01*
X143900D01*
Y60000D01*
X143100D01*
Y59600D01*
X142700D01*
Y58800D01*
X143100D01*
Y61300D02*
Y60900D01*
X143900D01*
Y61300D01*
X144300D01*
Y62100D01*
X143900D01*
Y62500D01*
X143100D01*
Y62100D01*
X142700D01*
Y61300D01*
X143100D01*
X157600Y74800D02*
Y74400D01*
X158400D01*
Y74800D01*
X158800D01*
Y75600D01*
X158400D01*
Y76000D01*
X157600D01*
Y75600D01*
X157200D01*
Y74800D01*
X157600D01*
Y71800D02*
Y71400D01*
X158400D01*
Y71800D01*
X158800D01*
Y72600D01*
X158400D01*
Y73000D01*
X157600D01*
Y72600D01*
X157200D01*
Y71800D01*
X157600D01*
Y65600D02*
Y65200D01*
X158400D01*
Y65600D01*
X158800D01*
Y66400D01*
X158400D01*
Y66800D01*
X157600D01*
Y66400D01*
X157200D01*
Y65600D01*
X157600D01*
X172484Y90151D02*
Y89751D01*
X173284D01*
Y90151D01*
X173684D01*
Y90951D01*
X173284D01*
Y91351D01*
X172484D01*
Y90951D01*
X172084D01*
Y90151D01*
X172484D01*
X126100Y93100D02*
Y92700D01*
X126900D01*
Y93100D01*
X127300D01*
Y93900D01*
X126900D01*
Y94300D01*
X126100D01*
Y93900D01*
X125700D01*
Y93100D01*
X126100D01*
X130211Y176837D02*
X131011Y177637D01*
X131811Y176837D01*
X131011Y176037D01*
X130211Y176837D01*
Y178806D02*
X131011Y179606D01*
X131811Y178806D01*
X131011Y178006D01*
X130211Y178806D01*
Y180774D02*
X131011Y181574D01*
X131811Y180774D01*
X131011Y179974D01*
X130211Y180774D01*
Y182743D02*
X131011Y183543D01*
X131811Y182743D01*
X131011Y181943D01*
X130211Y182743D01*
X111510Y175853D02*
X112310Y176653D01*
X113110Y175853D01*
X112310Y175053D01*
X111510Y175853D01*
X128243Y184711D02*
X129043Y185511D01*
X129843Y184711D01*
X129043Y183911D01*
X128243Y184711D01*
X115447Y179790D02*
X116247Y180590D01*
X117047Y179790D01*
X116247Y178990D01*
X115447Y179790D01*
X111510Y177821D02*
X112310Y178621D01*
X113110Y177821D01*
X112310Y177021D01*
X111510Y177821D01*
X130211Y184711D02*
X131011Y185511D01*
X131811Y184711D01*
X131011Y183911D01*
X130211Y184711D01*
X133400Y177821D02*
X134200Y178621D01*
X135000Y177821D01*
X134200Y177021D01*
X133400Y177821D01*
X111510Y169947D02*
X112310Y170747D01*
X113110Y169947D01*
X112310Y169147D01*
X111510Y169947D01*
X115447Y165900D02*
X116247Y166700D01*
X117047Y165900D01*
X116247Y165100D01*
X115447Y165900D01*
X103400Y181758D02*
X104200Y182558D01*
X105000Y181758D01*
X104200Y180958D01*
X103400Y181758D01*
Y177821D02*
X104200Y178621D01*
X105000Y177821D01*
X104200Y177021D01*
X103400Y177821D01*
X111510Y179790D02*
X112310Y180590D01*
X113110Y179790D01*
X112310Y178990D01*
X111510Y179790D01*
X106589Y180774D02*
X107389Y181574D01*
X108189Y180774D01*
X107389Y179974D01*
X106589Y180774D01*
X121353Y179790D02*
X122153Y180590D01*
X122953Y179790D01*
X122153Y178990D01*
X121353Y179790D01*
X125290Y175853D02*
X126090Y176653D01*
X126890Y175853D01*
X126090Y175053D01*
X125290Y175853D01*
X111510Y171916D02*
X112310Y172716D01*
X113110Y171916D01*
X112310Y171116D01*
X111510Y171916D01*
X117416Y165900D02*
X118216Y166700D01*
X119016Y165900D01*
X118216Y165100D01*
X117416Y165900D01*
X136300Y167500D02*
Y167100D01*
X137100D01*
Y167500D01*
X137500D01*
Y168300D01*
X137100D01*
Y168700D01*
X136300D01*
Y168300D01*
X135900D01*
Y167500D01*
X136300D01*
X125290Y173884D02*
X126090Y174684D01*
X126890Y173884D01*
X126090Y173084D01*
X125290Y173884D01*
X103400Y179790D02*
X104200Y180590D01*
X105000Y179790D01*
X104200Y178990D01*
X103400Y179790D01*
X103447Y175853D02*
X104247Y176653D01*
X105047Y175853D01*
X104247Y175053D01*
X103447Y175853D01*
X119384Y179790D02*
X120184Y180590D01*
X120984Y179790D01*
X120184Y178990D01*
X119384Y179790D01*
X106589Y184711D02*
X107389Y185511D01*
X108189Y184711D01*
X107389Y183911D01*
X106589Y184711D01*
Y178806D02*
X107389Y179606D01*
X108189Y178806D01*
X107389Y178006D01*
X106589Y178806D01*
X125290Y177821D02*
X126090Y178621D01*
X126890Y177821D01*
X126090Y177021D01*
X125290Y177821D01*
X143200Y78500D02*
Y78100D01*
X144000D01*
Y78500D01*
X144400D01*
Y79300D01*
X144000D01*
Y79700D01*
X143200D01*
Y79300D01*
X142800D01*
Y78500D01*
X143200D01*
X272300Y197238D02*
Y196838D01*
X273100D01*
Y197238D01*
X273500D01*
Y198038D01*
X273100D01*
Y198438D01*
X272300D01*
Y198038D01*
X271900D01*
Y197238D01*
X272300D01*
X268363D02*
Y196838D01*
X269163D01*
Y197238D01*
X269563D01*
Y198038D01*
X269163D01*
Y198438D01*
X268363D01*
Y198038D01*
X267963D01*
Y197238D01*
X268363D01*
X264426D02*
Y196838D01*
X265226D01*
Y197238D01*
X265626D01*
Y198038D01*
X265226D01*
Y198438D01*
X264426D01*
Y198038D01*
X264026D01*
Y197238D01*
X264426D01*
X260489D02*
Y196838D01*
X261289D01*
Y197238D01*
X261689D01*
Y198038D01*
X261289D01*
Y198438D01*
X260489D01*
Y198038D01*
X260089D01*
Y197238D01*
X260489D01*
X256552D02*
Y196838D01*
X257352D01*
Y197238D01*
X257752D01*
Y198038D01*
X257352D01*
Y198438D01*
X256552D01*
Y198038D01*
X256152D01*
Y197238D01*
X256552D01*
X252615D02*
Y196838D01*
X253415D01*
Y197238D01*
X253815D01*
Y198038D01*
X253415D01*
Y198438D01*
X252615D01*
Y198038D01*
X252215D01*
Y197238D01*
X252615D01*
X248678D02*
Y196838D01*
X249478D01*
Y197238D01*
X249878D01*
Y198038D01*
X249478D01*
Y198438D01*
X248678D01*
Y198038D01*
X248278D01*
Y197238D01*
X248678D01*
X244741D02*
Y196838D01*
X245541D01*
Y197238D01*
X245941D01*
Y198038D01*
X245541D01*
Y198438D01*
X244741D01*
Y198038D01*
X244341D01*
Y197238D01*
X244741D01*
X240804D02*
Y196838D01*
X241604D01*
Y197238D01*
X242004D01*
Y198038D01*
X241604D01*
Y198438D01*
X240804D01*
Y198038D01*
X240404D01*
Y197238D01*
X240804D01*
X236867D02*
Y196838D01*
X237667D01*
Y197238D01*
X238067D01*
Y198038D01*
X237667D01*
Y198438D01*
X236867D01*
Y198038D01*
X236467D01*
Y197238D01*
X236867D01*
X232930D02*
Y196838D01*
X233730D01*
Y197238D01*
X234130D01*
Y198038D01*
X233730D01*
Y198438D01*
X232930D01*
Y198038D01*
X232530D01*
Y197238D01*
X232930D01*
X228993D02*
Y196838D01*
X229793D01*
Y197238D01*
X230193D01*
Y198038D01*
X229793D01*
Y198438D01*
X228993D01*
Y198038D01*
X228593D01*
Y197238D01*
X228993D01*
X225056D02*
Y196838D01*
X225856D01*
Y197238D01*
X226256D01*
Y198038D01*
X225856D01*
Y198438D01*
X225056D01*
Y198038D01*
X224656D01*
Y197238D01*
X225056D01*
X221119D02*
Y196838D01*
X221919D01*
Y197238D01*
X222319D01*
Y198038D01*
X221919D01*
Y198438D01*
X221119D01*
Y198038D01*
X220719D01*
Y197238D01*
X221119D01*
X217182D02*
Y196838D01*
X217982D01*
Y197238D01*
X218382D01*
Y198038D01*
X217982D01*
Y198438D01*
X217182D01*
Y198038D01*
X216782D01*
Y197238D01*
X217182D01*
X213245D02*
Y196838D01*
X214045D01*
Y197238D01*
X214445D01*
Y198038D01*
X214045D01*
Y198438D01*
X213245D01*
Y198038D01*
X212845D01*
Y197238D01*
X213245D01*
X209308D02*
Y196838D01*
X210108D01*
Y197238D01*
X210508D01*
Y198038D01*
X210108D01*
Y198438D01*
X209308D01*
Y198038D01*
X208908D01*
Y197238D01*
X209308D01*
X205371D02*
Y196838D01*
X206171D01*
Y197238D01*
X206571D01*
Y198038D01*
X206171D01*
Y198438D01*
X205371D01*
Y198038D01*
X204971D01*
Y197238D01*
X205371D01*
X49600Y62400D02*
Y62000D01*
X50400D01*
Y62400D01*
X50800D01*
Y63200D01*
X50400D01*
Y63600D01*
X49600D01*
Y63200D01*
X49200D01*
Y62400D01*
X49600D01*
X74600Y90900D02*
Y90500D01*
X75400D01*
Y90900D01*
X75800D01*
Y91700D01*
X75400D01*
Y92100D01*
X74600D01*
Y91700D01*
X74200D01*
Y90900D01*
X74600D01*
X91000Y83100D02*
Y82700D01*
X91800D01*
Y83100D01*
X92200D01*
Y83900D01*
X91800D01*
Y84300D01*
X91000D01*
Y83900D01*
X90600D01*
Y83100D01*
X91000D01*
X96112D02*
Y82700D01*
X96912D01*
Y83100D01*
X97312D01*
Y83900D01*
X96912D01*
Y84300D01*
X96112D01*
Y83900D01*
X95712D01*
Y83100D01*
X96112D01*
X92962Y85100D02*
Y84700D01*
X93762D01*
Y85100D01*
X94162D01*
Y85900D01*
X93762D01*
Y86300D01*
X92962D01*
Y85900D01*
X92562D01*
Y85100D01*
X92962D01*
X105600Y87500D02*
Y87100D01*
X106400D01*
Y87500D01*
X106800D01*
Y88300D01*
X106400D01*
Y88700D01*
X105600D01*
Y88300D01*
X105200D01*
Y87500D01*
X105600D01*
X127600Y105200D02*
Y104800D01*
X128400D01*
Y105200D01*
X128800D01*
Y106000D01*
X128400D01*
Y106400D01*
X127600D01*
Y106000D01*
X127200D01*
Y105200D01*
X127600D01*
X111600Y147400D02*
Y147000D01*
X112400D01*
Y147400D01*
X112800D01*
Y148200D01*
X112400D01*
Y148600D01*
X111600D01*
Y148200D01*
X111200D01*
Y147400D01*
X111600D01*
X116100D02*
Y147000D01*
X116900D01*
Y147400D01*
X117300D01*
Y148200D01*
X116900D01*
Y148600D01*
X116100D01*
Y148200D01*
X115700D01*
Y147400D01*
X116100D01*
Y143700D02*
Y143300D01*
X116900D01*
Y143700D01*
X117300D01*
Y144500D01*
X116900D01*
Y144900D01*
X116100D01*
Y144500D01*
X115700D01*
Y143700D01*
X116100D01*
X126200Y147400D02*
Y147000D01*
X127000D01*
Y147400D01*
X127400D01*
Y148200D01*
X127000D01*
Y148600D01*
X126200D01*
Y148200D01*
X125800D01*
Y147400D01*
X126200D01*
Y143700D02*
Y143300D01*
X127000D01*
Y143700D01*
X127400D01*
Y144500D01*
X127000D01*
Y144900D01*
X126200D01*
Y144500D01*
X125800D01*
Y143700D01*
X126200D01*
Y153901D02*
Y153501D01*
X127000D01*
Y153901D01*
X127400D01*
Y154701D01*
X127000D01*
Y155101D01*
X126200D01*
Y154701D01*
X125800D01*
Y153901D01*
X126200D01*
X329665Y82769D02*
X330065D01*
X330465Y83169D01*
X330865Y82769D01*
X331265D01*
Y83169D01*
X330865Y83569D01*
X331265Y83969D01*
Y84369D01*
X330865D01*
X330465Y83969D01*
X330065Y84369D01*
X329665D01*
Y83969D01*
X330065Y83569D01*
X329665Y83169D01*
Y82769D01*
X325335D02*
X325735D01*
X326135Y83169D01*
X326535Y82769D01*
X326935D01*
Y83169D01*
X326535Y83569D01*
X326935Y83969D01*
Y84369D01*
X326535D01*
X326135Y83969D01*
X325735Y84369D01*
X325335D01*
Y83969D01*
X325735Y83569D01*
X325335Y83169D01*
Y82769D01*
Y91431D02*
X325735D01*
X326135Y91831D01*
X326535Y91431D01*
X326935D01*
Y91831D01*
X326535Y92231D01*
X326935Y92631D01*
Y93031D01*
X326535D01*
X326135Y92631D01*
X325735Y93031D01*
X325335D01*
Y92631D01*
X325735Y92231D01*
X325335Y91831D01*
Y91431D01*
X329665D02*
X330065D01*
X330465Y91831D01*
X330865Y91431D01*
X331265D01*
Y91831D01*
X330865Y92231D01*
X331265Y92631D01*
Y93031D01*
X330865D01*
X330465Y92631D01*
X330065Y93031D01*
X329665D01*
Y92631D01*
X330065Y92231D01*
X329665Y91831D01*
Y91431D01*
Y87100D02*
X330065D01*
X330465Y87500D01*
X330865Y87100D01*
X331265D01*
Y87500D01*
X330865Y87900D01*
X331265Y88300D01*
Y88700D01*
X330865D01*
X330465Y88300D01*
X330065Y88700D01*
X329665D01*
Y88300D01*
X330065Y87900D01*
X329665Y87500D01*
Y87100D01*
X325335D02*
X325735D01*
X326135Y87500D01*
X326535Y87100D01*
X326935D01*
Y87500D01*
X326535Y87900D01*
X326935Y88300D01*
Y88700D01*
X326535D01*
X326135Y88300D01*
X325735Y88700D01*
X325335D01*
Y88300D01*
X325735Y87900D01*
X325335Y87500D01*
Y87100D01*
X159187Y122651D02*
Y122251D01*
X159987D01*
Y122651D01*
X160387D01*
Y123451D01*
X159987D01*
Y123851D01*
X159187D01*
Y123451D01*
X158787D01*
Y122651D01*
X159187D01*
X162336D02*
Y122251D01*
X163136D01*
Y122651D01*
X163536D01*
Y123451D01*
X163136D01*
Y123851D01*
X162336D01*
Y123451D01*
X161936D01*
Y122651D01*
X162336D01*
X196982Y97454D02*
Y97054D01*
X197782D01*
Y97454D01*
X198182D01*
Y98254D01*
X197782D01*
Y98654D01*
X196982D01*
Y98254D01*
X196582D01*
Y97454D01*
X196982D01*
X200132D02*
Y97054D01*
X200932D01*
Y97454D01*
X201331D01*
Y98254D01*
X200932D01*
Y98654D01*
X200132D01*
Y98254D01*
X199732D01*
Y97454D01*
X200132D01*
X203281D02*
Y97054D01*
X204081D01*
Y97454D01*
X204481D01*
Y98254D01*
X204081D01*
Y98654D01*
X203281D01*
Y98254D01*
X202881D01*
Y97454D01*
X203281D01*
X168635D02*
Y97054D01*
X169435D01*
Y97454D01*
X169835D01*
Y98254D01*
X169435D01*
Y98654D01*
X168635D01*
Y98254D01*
X168235D01*
Y97454D01*
X168635D01*
X162336D02*
Y97054D01*
X163136D01*
Y97454D01*
X163536D01*
Y98254D01*
X163136D01*
Y98654D01*
X162336D01*
Y98254D01*
X161936D01*
Y97454D01*
X162336D01*
X159187D02*
Y97054D01*
X159987D01*
Y97454D01*
X160387D01*
Y98254D01*
X159987D01*
Y98654D01*
X159187D01*
Y98254D01*
X158787D01*
Y97454D01*
X159187D01*
Y144699D02*
Y144299D01*
X159987D01*
Y144699D01*
X160387D01*
Y145499D01*
X159987D01*
Y145898D01*
X159187D01*
Y145499D01*
X158787D01*
Y144699D01*
X159187D01*
X162336D02*
Y144299D01*
X163136D01*
Y144699D01*
X163536D01*
Y145499D01*
X163136D01*
Y145898D01*
X162336D01*
Y145499D01*
X161936D01*
Y144699D01*
X162336D01*
X165486D02*
Y144299D01*
X166286D01*
Y144699D01*
X166686D01*
Y145499D01*
X166286D01*
Y145898D01*
X165486D01*
Y145499D01*
X165086D01*
Y144699D01*
X165486D01*
X168635D02*
Y144299D01*
X169435D01*
Y144699D01*
X169835D01*
Y145499D01*
X169435D01*
Y145898D01*
X168635D01*
Y145499D01*
X168235D01*
Y144699D01*
X168635D01*
X171785D02*
Y144299D01*
X172585D01*
Y144699D01*
X172985D01*
Y145499D01*
X172585D01*
Y145898D01*
X171785D01*
Y145499D01*
X171385D01*
Y144699D01*
X171785D01*
X174935D02*
Y144299D01*
X175735D01*
Y144699D01*
X176135D01*
Y145499D01*
X175735D01*
Y145898D01*
X174935D01*
Y145499D01*
X174535D01*
Y144699D01*
X174935D01*
X178084D02*
Y144299D01*
X178884D01*
Y144699D01*
X179284D01*
Y145499D01*
X178884D01*
Y145898D01*
X178084D01*
Y145499D01*
X177684D01*
Y144699D01*
X178084D01*
X184383D02*
Y144299D01*
X185184D01*
Y144699D01*
X185583D01*
Y145499D01*
X185184D01*
Y145898D01*
X184383D01*
Y145499D01*
X183984D01*
Y144699D01*
X184383D01*
X187533D02*
Y144299D01*
X188333D01*
Y144699D01*
X188733D01*
Y145499D01*
X188333D01*
Y145898D01*
X187533D01*
Y145499D01*
X187133D01*
Y144699D01*
X187533D01*
X190683D02*
Y144299D01*
X191483D01*
Y144699D01*
X191883D01*
Y145499D01*
X191483D01*
Y145898D01*
X190683D01*
Y145499D01*
X190283D01*
Y144699D01*
X190683D01*
X193832D02*
Y144299D01*
X194632D01*
Y144699D01*
X195032D01*
Y145499D01*
X194632D01*
Y145898D01*
X193832D01*
Y145499D01*
X193432D01*
Y144699D01*
X193832D01*
X196982D02*
Y144299D01*
X197782D01*
Y144699D01*
X198182D01*
Y145499D01*
X197782D01*
Y145898D01*
X196982D01*
Y145499D01*
X196582D01*
Y144699D01*
X196982D01*
X200132D02*
Y144299D01*
X200932D01*
Y144699D01*
X201331D01*
Y145499D01*
X200932D01*
Y145898D01*
X200132D01*
Y145499D01*
X199732D01*
Y144699D01*
X200132D01*
X203281D02*
Y144299D01*
X204081D01*
Y144699D01*
X204481D01*
Y145499D01*
X204081D01*
Y145898D01*
X203281D01*
Y145499D01*
X202881D01*
Y144699D01*
X203281D01*
Y141549D02*
Y141149D01*
X204081D01*
Y141549D01*
X204481D01*
Y142349D01*
X204081D01*
Y142749D01*
X203281D01*
Y142349D01*
X202881D01*
Y141549D01*
X203281D01*
X200132D02*
Y141149D01*
X200932D01*
Y141549D01*
X201331D01*
Y142349D01*
X200932D01*
Y142749D01*
X200132D01*
Y142349D01*
X199732D01*
Y141549D01*
X200132D01*
X190683D02*
Y141149D01*
X191483D01*
Y141549D01*
X191883D01*
Y142349D01*
X191483D01*
Y142749D01*
X190683D01*
Y142349D01*
X190283D01*
Y141549D01*
X190683D01*
X187533D02*
Y141149D01*
X188333D01*
Y141549D01*
X188733D01*
Y142349D01*
X188333D01*
Y142749D01*
X187533D01*
Y142349D01*
X187133D01*
Y141549D01*
X187533D01*
X184383D02*
Y141149D01*
X185184D01*
Y141549D01*
X185583D01*
Y142349D01*
X185184D01*
Y142749D01*
X184383D01*
Y142349D01*
X183984D01*
Y141549D01*
X184383D01*
X203281Y138399D02*
Y137999D01*
X204081D01*
Y138399D01*
X204481D01*
Y139199D01*
X204081D01*
Y139599D01*
X203281D01*
Y139199D01*
X202881D01*
Y138399D01*
X203281D01*
X200132D02*
Y137999D01*
X200932D01*
Y138399D01*
X201331D01*
Y139199D01*
X200932D01*
Y139599D01*
X200132D01*
Y139199D01*
X199732D01*
Y138399D01*
X200132D01*
X196982D02*
Y137999D01*
X197782D01*
Y138399D01*
X198182D01*
Y139199D01*
X197782D01*
Y139599D01*
X196982D01*
Y139199D01*
X196582D01*
Y138399D01*
X196982D01*
X193832D02*
Y137999D01*
X194632D01*
Y138399D01*
X195032D01*
Y139199D01*
X194632D01*
Y139599D01*
X193832D01*
Y139199D01*
X193432D01*
Y138399D01*
X193832D01*
X190683D02*
Y137999D01*
X191483D01*
Y138399D01*
X191883D01*
Y139199D01*
X191483D01*
Y139599D01*
X190683D01*
Y139199D01*
X190283D01*
Y138399D01*
X190683D01*
X184383D02*
Y137999D01*
X185184D01*
Y138399D01*
X185583D01*
Y139199D01*
X185184D01*
Y139599D01*
X184383D01*
Y139199D01*
X183984D01*
Y138399D01*
X184383D01*
X203281Y135250D02*
Y134850D01*
X204081D01*
Y135250D01*
X204481D01*
Y136050D01*
X204081D01*
Y136450D01*
X203281D01*
Y136050D01*
X202881D01*
Y135250D01*
X203281D01*
X200132D02*
Y134850D01*
X200932D01*
Y135250D01*
X201331D01*
Y136050D01*
X200932D01*
Y136450D01*
X200132D01*
Y136050D01*
X199732D01*
Y135250D01*
X200132D01*
X190683D02*
Y134850D01*
X191483D01*
Y135250D01*
X191883D01*
Y136050D01*
X191483D01*
Y136450D01*
X190683D01*
Y136050D01*
X190283D01*
Y135250D01*
X190683D01*
X184383D02*
Y134850D01*
X185184D01*
Y135250D01*
X185583D01*
Y136050D01*
X185184D01*
Y136450D01*
X184383D01*
Y136050D01*
X183984D01*
Y135250D01*
X184383D01*
X203281Y132100D02*
Y131700D01*
X204081D01*
Y132100D01*
X204481D01*
Y132900D01*
X204081D01*
Y133300D01*
X203281D01*
Y132900D01*
X202881D01*
Y132100D01*
X203281D01*
X200132D02*
Y131700D01*
X200932D01*
Y132100D01*
X201331D01*
Y132900D01*
X200932D01*
Y133300D01*
X200132D01*
Y132900D01*
X199732D01*
Y132100D01*
X200132D01*
X190683D02*
Y131700D01*
X191483D01*
Y132100D01*
X191883D01*
Y132900D01*
X191483D01*
Y133300D01*
X190683D01*
Y132900D01*
X190283D01*
Y132100D01*
X190683D01*
X184383D02*
Y131700D01*
X185184D01*
Y132100D01*
X185583D01*
Y132900D01*
X185184D01*
Y133300D01*
X184383D01*
Y132900D01*
X183984D01*
Y132100D01*
X184383D01*
X196982D02*
Y131700D01*
X197782D01*
Y132100D01*
X198182D01*
Y132900D01*
X197782D01*
Y133300D01*
X196982D01*
Y132900D01*
X196582D01*
Y132100D01*
X196982D01*
X203281Y128950D02*
Y128550D01*
X204081D01*
Y128950D01*
X204481D01*
Y129750D01*
X204081D01*
Y130150D01*
X203281D01*
Y129750D01*
X202881D01*
Y128950D01*
X203281D01*
X200132D02*
Y128550D01*
X200932D01*
Y128950D01*
X201331D01*
Y129750D01*
X200932D01*
Y130150D01*
X200132D01*
Y129750D01*
X199732D01*
Y128950D01*
X200132D01*
X190683D02*
Y128550D01*
X191483D01*
Y128950D01*
X191883D01*
Y129750D01*
X191483D01*
Y130150D01*
X190683D01*
Y129750D01*
X190283D01*
Y128950D01*
X190683D01*
X187533D02*
Y128550D01*
X188333D01*
Y128950D01*
X188733D01*
Y129750D01*
X188333D01*
Y130150D01*
X187533D01*
Y129750D01*
X187133D01*
Y128950D01*
X187533D01*
X184383D02*
Y128550D01*
X185184D01*
Y128950D01*
X185583D01*
Y129750D01*
X185184D01*
Y130150D01*
X184383D01*
Y129750D01*
X183984D01*
Y128950D01*
X184383D01*
X203281Y125801D02*
Y125401D01*
X204081D01*
Y125801D01*
X204481D01*
Y126601D01*
X204081D01*
Y127001D01*
X203281D01*
Y126601D01*
X202881D01*
Y125801D01*
X203281D01*
X200132D02*
Y125401D01*
X200932D01*
Y125801D01*
X201331D01*
Y126601D01*
X200932D01*
Y127001D01*
X200132D01*
Y126601D01*
X199732D01*
Y125801D01*
X200132D01*
X196982D02*
Y125401D01*
X197782D01*
Y125801D01*
X198182D01*
Y126601D01*
X197782D01*
Y127001D01*
X196982D01*
Y126601D01*
X196582D01*
Y125801D01*
X196982D01*
X193832D02*
Y125401D01*
X194632D01*
Y125801D01*
X195032D01*
Y126601D01*
X194632D01*
Y127001D01*
X193832D01*
Y126601D01*
X193432D01*
Y125801D01*
X193832D01*
X187533D02*
Y125401D01*
X188333D01*
Y125801D01*
X188733D01*
Y126601D01*
X188333D01*
Y127001D01*
X187533D01*
Y126601D01*
X187133D01*
Y125801D01*
X187533D01*
X184383D02*
Y125401D01*
X185184D01*
Y125801D01*
X185583D01*
Y126601D01*
X185184D01*
Y127001D01*
X184383D01*
Y126601D01*
X183984D01*
Y125801D01*
X184383D01*
X203281Y119502D02*
Y119102D01*
X204081D01*
Y119502D01*
X204481D01*
Y120302D01*
X204081D01*
Y120702D01*
X203281D01*
Y120302D01*
X202881D01*
Y119502D01*
X203281D01*
X200132D02*
Y119102D01*
X200932D01*
Y119502D01*
X201331D01*
Y120302D01*
X200932D01*
Y120702D01*
X200132D01*
Y120302D01*
X199732D01*
Y119502D01*
X200132D01*
X196982D02*
Y119102D01*
X197782D01*
Y119502D01*
X198182D01*
Y120302D01*
X197782D01*
Y120702D01*
X196982D01*
Y120302D01*
X196582D01*
Y119502D01*
X196982D01*
X193832D02*
Y119102D01*
X194632D01*
Y119502D01*
X195032D01*
Y120302D01*
X194632D01*
Y120702D01*
X193832D01*
Y120302D01*
X193432D01*
Y119502D01*
X193832D01*
X190683D02*
Y119102D01*
X191483D01*
Y119502D01*
X191883D01*
Y120302D01*
X191483D01*
Y120702D01*
X190683D01*
Y120302D01*
X190283D01*
Y119502D01*
X190683D01*
X187533D02*
Y119102D01*
X188333D01*
Y119502D01*
X188733D01*
Y120302D01*
X188333D01*
Y120702D01*
X187533D01*
Y120302D01*
X187133D01*
Y119502D01*
X187533D01*
X184383D02*
Y119102D01*
X185184D01*
Y119502D01*
X185583D01*
Y120302D01*
X185184D01*
Y120702D01*
X184383D01*
Y120302D01*
X183984D01*
Y119502D01*
X184383D01*
X203281Y116352D02*
Y115952D01*
X204081D01*
Y116352D01*
X204481D01*
Y117152D01*
X204081D01*
Y117552D01*
X203281D01*
Y117152D01*
X202881D01*
Y116352D01*
X203281D01*
X200132D02*
Y115952D01*
X200932D01*
Y116352D01*
X201331D01*
Y117152D01*
X200932D01*
Y117552D01*
X200132D01*
Y117152D01*
X199732D01*
Y116352D01*
X200132D01*
X190683D02*
Y115952D01*
X191483D01*
Y116352D01*
X191883D01*
Y117152D01*
X191483D01*
Y117552D01*
X190683D01*
Y117152D01*
X190283D01*
Y116352D01*
X190683D01*
X187533D02*
Y115952D01*
X188333D01*
Y116352D01*
X188733D01*
Y117152D01*
X188333D01*
Y117552D01*
X187533D01*
Y117152D01*
X187133D01*
Y116352D01*
X187533D01*
X184383D02*
Y115952D01*
X185184D01*
Y116352D01*
X185583D01*
Y117152D01*
X185184D01*
Y117552D01*
X184383D01*
Y117152D01*
X183984D01*
Y116352D01*
X184383D01*
X203281Y113202D02*
Y112802D01*
X204081D01*
Y113202D01*
X204481D01*
Y114002D01*
X204081D01*
Y114402D01*
X203281D01*
Y114002D01*
X202881D01*
Y113202D01*
X203281D01*
X200132D02*
Y112802D01*
X200932D01*
Y113202D01*
X201331D01*
Y114002D01*
X200932D01*
Y114402D01*
X200132D01*
Y114002D01*
X199732D01*
Y113202D01*
X200132D01*
X196982D02*
Y112802D01*
X197782D01*
Y113202D01*
X198182D01*
Y114002D01*
X197782D01*
Y114402D01*
X196982D01*
Y114002D01*
X196582D01*
Y113202D01*
X196982D01*
X193832D02*
Y112802D01*
X194632D01*
Y113202D01*
X195032D01*
Y114002D01*
X194632D01*
Y114402D01*
X193832D01*
Y114002D01*
X193432D01*
Y113202D01*
X193832D01*
X190683D02*
Y112802D01*
X191483D01*
Y113202D01*
X191883D01*
Y114002D01*
X191483D01*
Y114402D01*
X190683D01*
Y114002D01*
X190283D01*
Y113202D01*
X190683D01*
X184383D02*
Y112802D01*
X185184D01*
Y113202D01*
X185583D01*
Y114002D01*
X185184D01*
Y114402D01*
X184383D01*
Y114002D01*
X183984D01*
Y113202D01*
X184383D01*
X203281Y110053D02*
Y109653D01*
X204081D01*
Y110053D01*
X204481D01*
Y110853D01*
X204081D01*
Y111253D01*
X203281D01*
Y110853D01*
X202881D01*
Y110053D01*
X203281D01*
X200132D02*
Y109653D01*
X200932D01*
Y110053D01*
X201331D01*
Y110853D01*
X200932D01*
Y111253D01*
X200132D01*
Y110853D01*
X199732D01*
Y110053D01*
X200132D01*
X190683D02*
Y109653D01*
X191483D01*
Y110053D01*
X191883D01*
Y110853D01*
X191483D01*
Y111253D01*
X190683D01*
Y110853D01*
X190283D01*
Y110053D01*
X190683D01*
X184383D02*
Y109653D01*
X185184D01*
Y110053D01*
X185583D01*
Y110853D01*
X185184D01*
Y111253D01*
X184383D01*
Y110853D01*
X183984D01*
Y110053D01*
X184383D01*
X203281Y106903D02*
Y106503D01*
X204081D01*
Y106903D01*
X204481D01*
Y107703D01*
X204081D01*
Y108103D01*
X203281D01*
Y107703D01*
X202881D01*
Y106903D01*
X203281D01*
X200132D02*
Y106503D01*
X200932D01*
Y106903D01*
X201331D01*
Y107703D01*
X200932D01*
Y108103D01*
X200132D01*
Y107703D01*
X199732D01*
Y106903D01*
X200132D01*
X193832D02*
Y106503D01*
X194632D01*
Y106903D01*
X195032D01*
Y107703D01*
X194632D01*
Y108103D01*
X193832D01*
Y107703D01*
X193432D01*
Y106903D01*
X193832D01*
X190683D02*
Y106503D01*
X191483D01*
Y106903D01*
X191883D01*
Y107703D01*
X191483D01*
Y108103D01*
X190683D01*
Y107703D01*
X190283D01*
Y106903D01*
X190683D01*
X187533D02*
Y106503D01*
X188333D01*
Y106903D01*
X188733D01*
Y107703D01*
X188333D01*
Y108103D01*
X187533D01*
Y107703D01*
X187133D01*
Y106903D01*
X187533D01*
X200132Y103754D02*
Y103354D01*
X200932D01*
Y103754D01*
X201331D01*
Y104554D01*
X200932D01*
Y104954D01*
X200132D01*
Y104554D01*
X199732D01*
Y103754D01*
X200132D01*
X196982D02*
Y103354D01*
X197782D01*
Y103754D01*
X198182D01*
Y104554D01*
X197782D01*
Y104954D01*
X196982D01*
Y104554D01*
X196582D01*
Y103754D01*
X196982D01*
X193832D02*
Y103354D01*
X194632D01*
Y103754D01*
X195032D01*
Y104554D01*
X194632D01*
Y104954D01*
X193832D01*
Y104554D01*
X193432D01*
Y103754D01*
X193832D01*
X190683D02*
Y103354D01*
X191483D01*
Y103754D01*
X191883D01*
Y104554D01*
X191483D01*
Y104954D01*
X190683D01*
Y104554D01*
X190283D01*
Y103754D01*
X190683D01*
X187533D02*
Y103354D01*
X188333D01*
Y103754D01*
X188733D01*
Y104554D01*
X188333D01*
Y104954D01*
X187533D01*
Y104554D01*
X187133D01*
Y103754D01*
X187533D01*
X184383D02*
Y103354D01*
X185184D01*
Y103754D01*
X185583D01*
Y104554D01*
X185184D01*
Y104954D01*
X184383D01*
Y104554D01*
X183984D01*
Y103754D01*
X184383D01*
X203281Y100604D02*
Y100204D01*
X204081D01*
Y100604D01*
X204481D01*
Y101404D01*
X204081D01*
Y101804D01*
X203281D01*
Y101404D01*
X202881D01*
Y100604D01*
X203281D01*
X200132D02*
Y100204D01*
X200932D01*
Y100604D01*
X201331D01*
Y101404D01*
X200932D01*
Y101804D01*
X200132D01*
Y101404D01*
X199732D01*
Y100604D01*
X200132D01*
X196982D02*
Y100204D01*
X197782D01*
Y100604D01*
X198182D01*
Y101404D01*
X197782D01*
Y101804D01*
X196982D01*
Y101404D01*
X196582D01*
Y100604D01*
X196982D01*
X193832D02*
Y100204D01*
X194632D01*
Y100604D01*
X195032D01*
Y101404D01*
X194632D01*
Y101804D01*
X193832D01*
Y101404D01*
X193432D01*
Y100604D01*
X193832D01*
X190683D02*
Y100204D01*
X191483D01*
Y100604D01*
X191883D01*
Y101404D01*
X191483D01*
Y101804D01*
X190683D01*
Y101404D01*
X190283D01*
Y100604D01*
X190683D01*
X187533D02*
Y100204D01*
X188333D01*
Y100604D01*
X188733D01*
Y101404D01*
X188333D01*
Y101804D01*
X187533D01*
Y101404D01*
X187133D01*
Y100604D01*
X187533D01*
X184383D02*
Y100204D01*
X185184D01*
Y100604D01*
X185583D01*
Y101404D01*
X185184D01*
Y101804D01*
X184383D01*
Y101404D01*
X183984D01*
Y100604D01*
X184383D01*
X178084Y141549D02*
Y141149D01*
X178884D01*
Y141549D01*
X179284D01*
Y142349D01*
X178884D01*
Y142749D01*
X178084D01*
Y142349D01*
X177684D01*
Y141549D01*
X178084D01*
X168635D02*
Y141149D01*
X169435D01*
Y141549D01*
X169835D01*
Y142349D01*
X169435D01*
Y142749D01*
X168635D01*
Y142349D01*
X168235D01*
Y141549D01*
X168635D01*
X165486D02*
Y141149D01*
X166286D01*
Y141549D01*
X166686D01*
Y142349D01*
X166286D01*
Y142749D01*
X165486D01*
Y142349D01*
X165086D01*
Y141549D01*
X165486D01*
X162336D02*
Y141149D01*
X163136D01*
Y141549D01*
X163536D01*
Y142349D01*
X163136D01*
Y142749D01*
X162336D01*
Y142349D01*
X161936D01*
Y141549D01*
X162336D01*
X159187D02*
Y141149D01*
X159987D01*
Y141549D01*
X160387D01*
Y142349D01*
X159987D01*
Y142749D01*
X159187D01*
Y142349D01*
X158787D01*
Y141549D01*
X159187D01*
X178084Y138399D02*
Y137999D01*
X178884D01*
Y138399D01*
X179284D01*
Y139199D01*
X178884D01*
Y139599D01*
X178084D01*
Y139199D01*
X177684D01*
Y138399D01*
X178084D01*
X174935D02*
Y137999D01*
X175735D01*
Y138399D01*
X176135D01*
Y139199D01*
X175735D01*
Y139599D01*
X174935D01*
Y139199D01*
X174535D01*
Y138399D01*
X174935D01*
X171785D02*
Y137999D01*
X172585D01*
Y138399D01*
X172985D01*
Y139199D01*
X172585D01*
Y139599D01*
X171785D01*
Y139199D01*
X171385D01*
Y138399D01*
X171785D01*
X168635D02*
Y137999D01*
X169435D01*
Y138399D01*
X169835D01*
Y139199D01*
X169435D01*
Y139599D01*
X168635D01*
Y139199D01*
X168235D01*
Y138399D01*
X168635D01*
X165486D02*
Y137999D01*
X166286D01*
Y138399D01*
X166686D01*
Y139199D01*
X166286D01*
Y139599D01*
X165486D01*
Y139199D01*
X165086D01*
Y138399D01*
X165486D01*
X162336D02*
Y137999D01*
X163136D01*
Y138399D01*
X163536D01*
Y139199D01*
X163136D01*
Y139599D01*
X162336D01*
Y139199D01*
X161936D01*
Y138399D01*
X162336D01*
X159187D02*
Y137999D01*
X159987D01*
Y138399D01*
X160387D01*
Y139199D01*
X159987D01*
Y139599D01*
X159187D01*
Y139199D01*
X158787D01*
Y138399D01*
X159187D01*
X178084Y135250D02*
Y134850D01*
X178884D01*
Y135250D01*
X179284D01*
Y136050D01*
X178884D01*
Y136450D01*
X178084D01*
Y136050D01*
X177684D01*
Y135250D01*
X178084D01*
X162336D02*
Y134850D01*
X163136D01*
Y135250D01*
X163536D01*
Y136050D01*
X163136D01*
Y136450D01*
X162336D01*
Y136050D01*
X161936D01*
Y135250D01*
X162336D01*
X159187D02*
Y134850D01*
X159987D01*
Y135250D01*
X160387D01*
Y136050D01*
X159987D01*
Y136450D01*
X159187D01*
Y136050D01*
X158787D01*
Y135250D01*
X159187D01*
X178084Y132100D02*
Y131700D01*
X178884D01*
Y132100D01*
X179284D01*
Y132900D01*
X178884D01*
Y133300D01*
X178084D01*
Y132900D01*
X177684D01*
Y132100D01*
X178084D01*
X171785D02*
Y131700D01*
X172585D01*
Y132100D01*
X172985D01*
Y132900D01*
X172585D01*
Y133300D01*
X171785D01*
Y132900D01*
X171385D01*
Y132100D01*
X171785D01*
X168635D02*
Y131700D01*
X169435D01*
Y132100D01*
X169835D01*
Y132900D01*
X169435D01*
Y133300D01*
X168635D01*
Y132900D01*
X168235D01*
Y132100D01*
X168635D01*
X165486D02*
Y131700D01*
X166286D01*
Y132100D01*
X166686D01*
Y132900D01*
X166286D01*
Y133300D01*
X165486D01*
Y132900D01*
X165086D01*
Y132100D01*
X165486D01*
X178084Y128950D02*
Y128550D01*
X178884D01*
Y128950D01*
X179284D01*
Y129750D01*
X178884D01*
Y130150D01*
X178084D01*
Y129750D01*
X177684D01*
Y128950D01*
X178084D01*
X174935D02*
Y128550D01*
X175735D01*
Y128950D01*
X176135D01*
Y129750D01*
X175735D01*
Y130150D01*
X174935D01*
Y129750D01*
X174535D01*
Y128950D01*
X174935D01*
X171785D02*
Y128550D01*
X172585D01*
Y128950D01*
X172985D01*
Y129750D01*
X172585D01*
Y130150D01*
X171785D01*
Y129750D01*
X171385D01*
Y128950D01*
X171785D01*
X162336D02*
Y128550D01*
X163136D01*
Y128950D01*
X163536D01*
Y129750D01*
X163136D01*
Y130150D01*
X162336D01*
Y129750D01*
X161936D01*
Y128950D01*
X162336D01*
X178084Y125801D02*
Y125401D01*
X178884D01*
Y125801D01*
X179284D01*
Y126601D01*
X178884D01*
Y127001D01*
X178084D01*
Y126601D01*
X177684D01*
Y125801D01*
X178084D01*
X174935D02*
Y125401D01*
X175735D01*
Y125801D01*
X176135D01*
Y126601D01*
X175735D01*
Y127001D01*
X174935D01*
Y126601D01*
X174535D01*
Y125801D01*
X174935D01*
X171785D02*
Y125401D01*
X172585D01*
Y125801D01*
X172985D01*
Y126601D01*
X172585D01*
Y127001D01*
X171785D01*
Y126601D01*
X171385D01*
Y125801D01*
X171785D01*
X168635D02*
Y125401D01*
X169435D01*
Y125801D01*
X169835D01*
Y126601D01*
X169435D01*
Y127001D01*
X168635D01*
Y126601D01*
X168235D01*
Y125801D01*
X168635D01*
X165486D02*
Y125401D01*
X166286D01*
Y125801D01*
X166686D01*
Y126601D01*
X166286D01*
Y127001D01*
X165486D01*
Y126601D01*
X165086D01*
Y125801D01*
X165486D01*
X162336D02*
Y125401D01*
X163136D01*
Y125801D01*
X163536D01*
Y126601D01*
X163136D01*
Y127001D01*
X162336D01*
Y126601D01*
X161936D01*
Y125801D01*
X162336D01*
X159187D02*
Y125401D01*
X159987D01*
Y125801D01*
X160387D01*
Y126601D01*
X159987D01*
Y127001D01*
X159187D01*
Y126601D01*
X158787D01*
Y125801D01*
X159187D01*
X171785Y141549D02*
Y141149D01*
X172585D01*
Y141549D01*
X172985D01*
Y142349D01*
X172585D01*
Y142749D01*
X171785D01*
Y142349D01*
X171385D01*
Y141549D01*
X171785D01*
X178084Y119502D02*
Y119102D01*
X178884D01*
Y119502D01*
X179284D01*
Y120302D01*
X178884D01*
Y120702D01*
X178084D01*
Y120302D01*
X177684D01*
Y119502D01*
X178084D01*
X174935D02*
Y119102D01*
X175735D01*
Y119502D01*
X176135D01*
Y120302D01*
X175735D01*
Y120702D01*
X174935D01*
Y120302D01*
X174535D01*
Y119502D01*
X174935D01*
X171785D02*
Y119102D01*
X172585D01*
Y119502D01*
X172985D01*
Y120302D01*
X172585D01*
Y120702D01*
X171785D01*
Y120302D01*
X171385D01*
Y119502D01*
X171785D01*
X168635D02*
Y119102D01*
X169435D01*
Y119502D01*
X169835D01*
Y120302D01*
X169435D01*
Y120702D01*
X168635D01*
Y120302D01*
X168235D01*
Y119502D01*
X168635D01*
X165486D02*
Y119102D01*
X166286D01*
Y119502D01*
X166686D01*
Y120302D01*
X166286D01*
Y120702D01*
X165486D01*
Y120302D01*
X165086D01*
Y119502D01*
X165486D01*
X159187D02*
Y119102D01*
X159987D01*
Y119502D01*
X160387D01*
Y120302D01*
X159987D01*
Y120702D01*
X159187D01*
Y120302D01*
X158787D01*
Y119502D01*
X159187D01*
X178084Y116352D02*
Y115952D01*
X178884D01*
Y116352D01*
X179284D01*
Y117152D01*
X178884D01*
Y117552D01*
X178084D01*
Y117152D01*
X177684D01*
Y116352D01*
X178084D01*
X174935D02*
Y115952D01*
X175735D01*
Y116352D01*
X176135D01*
Y117152D01*
X175735D01*
Y117552D01*
X174935D01*
Y117152D01*
X174535D01*
Y116352D01*
X174935D01*
X171785D02*
Y115952D01*
X172585D01*
Y116352D01*
X172985D01*
Y117152D01*
X172585D01*
Y117552D01*
X171785D01*
Y117152D01*
X171385D01*
Y116352D01*
X171785D01*
X162336D02*
Y115952D01*
X163136D01*
Y116352D01*
X163536D01*
Y117152D01*
X163136D01*
Y117552D01*
X162336D01*
Y117152D01*
X161936D01*
Y116352D01*
X162336D01*
X159187D02*
Y115952D01*
X159987D01*
Y116352D01*
X160387D01*
Y117152D01*
X159987D01*
Y117552D01*
X159187D01*
Y117152D01*
X158787D01*
Y116352D01*
X159187D01*
X171785Y113202D02*
Y112802D01*
X172585D01*
Y113202D01*
X172985D01*
Y114002D01*
X172585D01*
Y114402D01*
X171785D01*
Y114002D01*
X171385D01*
Y113202D01*
X171785D01*
X168635D02*
Y112802D01*
X169435D01*
Y113202D01*
X169835D01*
Y114002D01*
X169435D01*
Y114402D01*
X168635D01*
Y114002D01*
X168235D01*
Y113202D01*
X168635D01*
X165486D02*
Y112802D01*
X166286D01*
Y113202D01*
X166686D01*
Y114002D01*
X166286D01*
Y114402D01*
X165486D01*
Y114002D01*
X165086D01*
Y113202D01*
X165486D01*
X162336D02*
Y112802D01*
X163136D01*
Y113202D01*
X163536D01*
Y114002D01*
X163136D01*
Y114402D01*
X162336D01*
Y114002D01*
X161936D01*
Y113202D01*
X162336D01*
X159187D02*
Y112802D01*
X159987D01*
Y113202D01*
X160387D01*
Y114002D01*
X159987D01*
Y114402D01*
X159187D01*
Y114002D01*
X158787D01*
Y113202D01*
X159187D01*
X178084Y110053D02*
Y109653D01*
X178884D01*
Y110053D01*
X179284D01*
Y110853D01*
X178884D01*
Y111253D01*
X178084D01*
Y110853D01*
X177684D01*
Y110053D01*
X178084D01*
X171785D02*
Y109653D01*
X172585D01*
Y110053D01*
X172985D01*
Y110853D01*
X172585D01*
Y111253D01*
X171785D01*
Y110853D01*
X171385D01*
Y110053D01*
X171785D01*
X162336D02*
Y109653D01*
X163136D01*
Y110053D01*
X163536D01*
Y110853D01*
X163136D01*
Y111253D01*
X162336D01*
Y110853D01*
X161936D01*
Y110053D01*
X162336D01*
X178084Y106903D02*
Y106503D01*
X178884D01*
Y106903D01*
X179284D01*
Y107703D01*
X178884D01*
Y108103D01*
X178084D01*
Y107703D01*
X177684D01*
Y106903D01*
X178084D01*
X174935D02*
Y106503D01*
X175735D01*
Y106903D01*
X176135D01*
Y107703D01*
X175735D01*
Y108103D01*
X174935D01*
Y107703D01*
X174535D01*
Y106903D01*
X174935D01*
X171785D02*
Y106503D01*
X172585D01*
Y106903D01*
X172985D01*
Y107703D01*
X172585D01*
Y108103D01*
X171785D01*
Y107703D01*
X171385D01*
Y106903D01*
X171785D01*
X165486D02*
Y106503D01*
X166286D01*
Y106903D01*
X166686D01*
Y107703D01*
X166286D01*
Y108103D01*
X165486D01*
Y107703D01*
X165086D01*
Y106903D01*
X165486D01*
X162336D02*
Y106503D01*
X163136D01*
Y106903D01*
X163536D01*
Y107703D01*
X163136D01*
Y108103D01*
X162336D01*
Y107703D01*
X161936D01*
Y106903D01*
X162336D01*
X159187D02*
Y106503D01*
X159987D01*
Y106903D01*
X160387D01*
Y107703D01*
X159987D01*
Y108103D01*
X159187D01*
Y107703D01*
X158787D01*
Y106903D01*
X159187D01*
X174935Y103754D02*
Y103354D01*
X175735D01*
Y103754D01*
X176135D01*
Y104554D01*
X175735D01*
Y104954D01*
X174935D01*
Y104554D01*
X174535D01*
Y103754D01*
X174935D01*
X171785D02*
Y103354D01*
X172585D01*
Y103754D01*
X172985D01*
Y104554D01*
X172585D01*
Y104954D01*
X171785D01*
Y104554D01*
X171385D01*
Y103754D01*
X171785D01*
X165486D02*
Y103354D01*
X166286D01*
Y103754D01*
X166686D01*
Y104554D01*
X166286D01*
Y104954D01*
X165486D01*
Y104554D01*
X165086D01*
Y103754D01*
X165486D01*
X162336D02*
Y103354D01*
X163136D01*
Y103754D01*
X163536D01*
Y104554D01*
X163136D01*
Y104954D01*
X162336D01*
Y104554D01*
X161936D01*
Y103754D01*
X162336D01*
X159187D02*
Y103354D01*
X159987D01*
Y103754D01*
X160387D01*
Y104554D01*
X159987D01*
Y104954D01*
X159187D01*
Y104554D01*
X158787D01*
Y103754D01*
X159187D01*
X178084Y100604D02*
Y100204D01*
X178884D01*
Y100604D01*
X179284D01*
Y101404D01*
X178884D01*
Y101804D01*
X178084D01*
Y101404D01*
X177684D01*
Y100604D01*
X178084D01*
X174935D02*
Y100204D01*
X175735D01*
Y100604D01*
X176135D01*
Y101404D01*
X175735D01*
Y101804D01*
X174935D01*
Y101404D01*
X174535D01*
Y100604D01*
X174935D01*
X171785D02*
Y100204D01*
X172585D01*
Y100604D01*
X172985D01*
Y101404D01*
X172585D01*
Y101804D01*
X171785D01*
Y101404D01*
X171385D01*
Y100604D01*
X171785D01*
X168635D02*
Y100204D01*
X169435D01*
Y100604D01*
X169835D01*
Y101404D01*
X169435D01*
Y101804D01*
X168635D01*
Y101404D01*
X168235D01*
Y100604D01*
X168635D01*
X165486D02*
Y100204D01*
X166286D01*
Y100604D01*
X166686D01*
Y101404D01*
X166286D01*
Y101804D01*
X165486D01*
Y101404D01*
X165086D01*
Y100604D01*
X165486D01*
X162336D02*
Y100204D01*
X163136D01*
Y100604D01*
X163536D01*
Y101404D01*
X163136D01*
Y101804D01*
X162336D01*
Y101404D01*
X161936D01*
Y100604D01*
X162336D01*
X159187D02*
Y100204D01*
X159987D01*
Y100604D01*
X160387D01*
Y101404D01*
X159987D01*
Y101804D01*
X159187D01*
Y101404D01*
X158787D01*
Y100604D01*
X159187D01*
X156037Y138399D02*
Y137999D01*
X156837D01*
Y138399D01*
X157237D01*
Y139199D01*
X156837D01*
Y139599D01*
X156037D01*
Y139199D01*
X155637D01*
Y138399D01*
X156037D01*
Y132100D02*
Y131700D01*
X156837D01*
Y132100D01*
X157237D01*
Y132900D01*
X156837D01*
Y133300D01*
X156037D01*
Y132900D01*
X155637D01*
Y132100D01*
X156037D01*
X152887Y94305D02*
Y93905D01*
X153687D01*
Y94305D01*
X154087D01*
Y95105D01*
X153687D01*
Y95505D01*
X152887D01*
Y95105D01*
X152487D01*
Y94305D01*
X152887D01*
X159187D02*
Y93905D01*
X159987D01*
Y94305D01*
X160387D01*
Y95105D01*
X159987D01*
Y95505D01*
X159187D01*
Y95105D01*
X158787D01*
Y94305D01*
X159187D01*
X162336D02*
Y93905D01*
X163136D01*
Y94305D01*
X163536D01*
Y95105D01*
X163136D01*
Y95505D01*
X162336D01*
Y95105D01*
X161936D01*
Y94305D01*
X162336D01*
X168635D02*
Y93905D01*
X169435D01*
Y94305D01*
X169835D01*
Y95105D01*
X169435D01*
Y95505D01*
X168635D01*
Y95105D01*
X168235D01*
Y94305D01*
X168635D01*
X210368Y128950D02*
Y128550D01*
X211168D01*
Y128950D01*
X211568D01*
Y129750D01*
X211168D01*
Y130150D01*
X210368D01*
Y129750D01*
X209968D01*
Y128950D01*
X210368D01*
X168635Y106903D02*
Y106503D01*
X169435D01*
Y106903D01*
X169835D01*
Y107703D01*
X169435D01*
Y108103D01*
X168635D01*
Y107703D01*
X168235D01*
Y106903D01*
X168635D01*
X88231Y69169D02*
X88631D01*
X89031Y69569D01*
X89432Y69169D01*
X89832D01*
Y69569D01*
X89432Y69968D01*
X89832Y70368D01*
Y70768D01*
X89432D01*
X89031Y70368D01*
X88631Y70768D01*
X88231D01*
Y70368D01*
X88631Y69968D01*
X88231Y69569D01*
Y69169D01*
X92168D02*
X92568D01*
X92968Y69569D01*
X93369Y69169D01*
X93769D01*
Y69569D01*
X93369Y69968D01*
X93769Y70368D01*
Y70768D01*
X93369D01*
X92968Y70368D01*
X92568Y70768D01*
X92168D01*
Y70368D01*
X92568Y69968D01*
X92168Y69569D01*
Y69169D01*
X88231Y65232D02*
X88631D01*
X89031Y65632D01*
X89432Y65232D01*
X89832D01*
Y65632D01*
X89432Y66031D01*
X89832Y66431D01*
Y66831D01*
X89432D01*
X89031Y66431D01*
X88631Y66831D01*
X88231D01*
Y66431D01*
X88631Y66031D01*
X88231Y65632D01*
Y65232D01*
X92168D02*
X92568D01*
X92968Y65632D01*
X93369Y65232D01*
X93769D01*
Y65632D01*
X93369Y66031D01*
X93769Y66431D01*
Y66831D01*
X93369D01*
X92968Y66431D01*
X92568Y66831D01*
X92168D01*
Y66431D01*
X92568Y66031D01*
X92168Y65632D01*
Y65232D01*
X84294Y69169D02*
X84694D01*
X85094Y69569D01*
X85495Y69169D01*
X85895D01*
Y69569D01*
X85495Y69968D01*
X85895Y70368D01*
Y70768D01*
X85495D01*
X85094Y70368D01*
X84694Y70768D01*
X84294D01*
Y70368D01*
X84694Y69968D01*
X84294Y69569D01*
Y69169D01*
Y73106D02*
X84694D01*
X85094Y73506D01*
X85495Y73106D01*
X85895D01*
Y73506D01*
X85495Y73905D01*
X85895Y74305D01*
Y74705D01*
X85495D01*
X85094Y74305D01*
X84694Y74705D01*
X84294D01*
Y74305D01*
X84694Y73905D01*
X84294Y73506D01*
Y73106D01*
X88231D02*
X88631D01*
X89031Y73506D01*
X89432Y73106D01*
X89832D01*
Y73506D01*
X89432Y73905D01*
X89832Y74305D01*
Y74705D01*
X89432D01*
X89031Y74305D01*
X88631Y74705D01*
X88231D01*
Y74305D01*
X88631Y73905D01*
X88231Y73506D01*
Y73106D01*
X92168D02*
X92568D01*
X92968Y73506D01*
X93369Y73106D01*
X93769D01*
Y73506D01*
X93369Y73905D01*
X93769Y74305D01*
Y74705D01*
X93369D01*
X92968Y74305D01*
X92568Y74705D01*
X92168D01*
Y74305D01*
X92568Y73905D01*
X92168Y73506D01*
Y73106D01*
X96105D02*
X96505D01*
X96905Y73506D01*
X97306Y73106D01*
X97706D01*
Y73506D01*
X97306Y73905D01*
X97706Y74305D01*
Y74705D01*
X97306D01*
X96905Y74305D01*
X96505Y74705D01*
X96105D01*
Y74305D01*
X96505Y73905D01*
X96105Y73506D01*
Y73106D01*
Y69169D02*
X96505D01*
X96905Y69569D01*
X97306Y69169D01*
X97706D01*
Y69569D01*
X97306Y69968D01*
X97706Y70368D01*
Y70768D01*
X97306D01*
X96905Y70368D01*
X96505Y70768D01*
X96105D01*
Y70368D01*
X96505Y69968D01*
X96105Y69569D01*
Y69169D01*
Y65232D02*
X96505D01*
X96905Y65632D01*
X97306Y65232D01*
X97706D01*
Y65632D01*
X97306Y66031D01*
X97706Y66431D01*
Y66831D01*
X97306D01*
X96905Y66431D01*
X96505Y66831D01*
X96105D01*
Y66431D01*
X96505Y66031D01*
X96105Y65632D01*
Y65232D01*
X84294D02*
X84694D01*
X85094Y65632D01*
X85495Y65232D01*
X85895D01*
Y65632D01*
X85495Y66031D01*
X85895Y66431D01*
Y66831D01*
X85495D01*
X85094Y66431D01*
X84694Y66831D01*
X84294D01*
Y66431D01*
X84694Y66031D01*
X84294Y65632D01*
Y65232D01*
Y61295D02*
X84694D01*
X85094Y61695D01*
X85495Y61295D01*
X85895D01*
Y61695D01*
X85495Y62094D01*
X85895Y62494D01*
Y62894D01*
X85495D01*
X85094Y62494D01*
X84694Y62894D01*
X84294D01*
Y62494D01*
X84694Y62094D01*
X84294Y61695D01*
Y61295D01*
X88231D02*
X88631D01*
X89031Y61695D01*
X89432Y61295D01*
X89832D01*
Y61695D01*
X89432Y62094D01*
X89832Y62494D01*
Y62894D01*
X89432D01*
X89031Y62494D01*
X88631Y62894D01*
X88231D01*
Y62494D01*
X88631Y62094D01*
X88231Y61695D01*
Y61295D01*
X92168D02*
X92568D01*
X92968Y61695D01*
X93369Y61295D01*
X93769D01*
Y61695D01*
X93369Y62094D01*
X93769Y62494D01*
Y62894D01*
X93369D01*
X92968Y62494D01*
X92568Y62894D01*
X92168D01*
Y62494D01*
X92568Y62094D01*
X92168Y61695D01*
Y61295D01*
X96105D02*
X96505D01*
X96905Y61695D01*
X97306Y61295D01*
X97706D01*
Y61695D01*
X97306Y62094D01*
X97706Y62494D01*
Y62894D01*
X97306D01*
X96905Y62494D01*
X96505Y62894D01*
X96105D01*
Y62494D01*
X96505Y62094D01*
X96105Y61695D01*
Y61295D01*
X233234Y101651D02*
Y101251D01*
X234034D01*
Y101651D01*
X234434D01*
Y102451D01*
X234034D01*
Y102851D01*
X233234D01*
Y102451D01*
X232834D01*
Y101651D01*
X233234D01*
X226234Y89401D02*
Y89001D01*
X227034D01*
Y89401D01*
X227434D01*
Y90201D01*
X227034D01*
Y90601D01*
X226234D01*
Y90201D01*
X225834D01*
Y89401D01*
X226234D01*
Y83101D02*
Y82701D01*
X227034D01*
Y83101D01*
X227434D01*
Y83901D01*
X227034D01*
Y84301D01*
X226234D01*
Y83901D01*
X225834D01*
Y83101D01*
X226234D01*
X226200Y86200D02*
Y85800D01*
X227000D01*
Y86200D01*
X227400D01*
Y87000D01*
X227000D01*
Y87400D01*
X226200D01*
Y87000D01*
X225800D01*
Y86200D01*
X226200D01*
X146234Y113202D02*
Y112802D01*
X147034D01*
Y113202D01*
X147434D01*
Y114002D01*
X147034D01*
Y114402D01*
X146234D01*
Y114002D01*
X145834D01*
Y113202D01*
X146234D01*
X156037D02*
Y112802D01*
X156837D01*
Y113202D01*
X157237D01*
Y114002D01*
X156837D01*
Y114402D01*
X156037D01*
Y114002D01*
X155637D01*
Y113202D01*
X156037D01*
X146234Y122151D02*
Y121751D01*
X147034D01*
Y122151D01*
X147434D01*
Y122951D01*
X147034D01*
Y123351D01*
X146234D01*
Y122951D01*
X145834D01*
Y122151D01*
X146234D01*
X159187Y128950D02*
Y128550D01*
X159987D01*
Y128950D01*
X160387D01*
Y129750D01*
X159987D01*
Y130150D01*
X159187D01*
Y129750D01*
X158787D01*
Y128950D01*
X159187D01*
X152887Y132100D02*
Y131700D01*
X153687D01*
Y132100D01*
X154087D01*
Y132900D01*
X153687D01*
Y133300D01*
X152887D01*
Y132900D01*
X152487D01*
Y132100D01*
X152887D01*
X209200Y80000D02*
Y79600D01*
X210000D01*
Y80000D01*
X210400D01*
Y80800D01*
X210000D01*
Y81200D01*
X209200D01*
Y80800D01*
X208800D01*
Y80000D01*
X209200D01*
X219234Y76651D02*
Y76251D01*
X220034D01*
Y76651D01*
X220434D01*
Y77451D01*
X220034D01*
Y77851D01*
X219234D01*
Y77451D01*
X218834D01*
Y76651D01*
X219234D01*
Y73651D02*
Y73251D01*
X220034D01*
Y73651D01*
X220434D01*
Y74451D01*
X220034D01*
Y74851D01*
X219234D01*
Y74451D01*
X218834D01*
Y73651D01*
X219234D01*
Y69901D02*
Y69501D01*
X220034D01*
Y69901D01*
X220434D01*
Y70701D01*
X220034D01*
Y71101D01*
X219234D01*
Y70701D01*
X218834D01*
Y69901D01*
X219234D01*
X168234Y70100D02*
Y69700D01*
X169034D01*
Y70100D01*
X169434D01*
Y70900D01*
X169034D01*
Y71300D01*
X168234D01*
Y70900D01*
X167834D01*
Y70100D01*
X168234D01*
Y73100D02*
Y72700D01*
X169034D01*
Y73100D01*
X169434D01*
Y73900D01*
X169034D01*
Y74300D01*
X168234D01*
Y73900D01*
X167834D01*
Y73100D01*
X168234D01*
X181234Y157651D02*
Y157251D01*
X182034D01*
Y157651D01*
X182434D01*
Y158451D01*
X182034D01*
Y158851D01*
X181234D01*
Y158451D01*
X180834D01*
Y157651D01*
X181234D01*
X178086D02*
Y157251D01*
X178886D01*
Y157651D01*
X179286D01*
Y158451D01*
X178886D01*
Y158851D01*
X178086D01*
Y158451D01*
X177686D01*
Y157651D01*
X178086D01*
X174984Y164651D02*
Y164251D01*
X175784D01*
Y164651D01*
X176184D01*
Y165451D01*
X175784D01*
Y165851D01*
X174984D01*
Y165451D01*
X174584D01*
Y164651D01*
X174984D01*
X178084Y103753D02*
Y103354D01*
X178884D01*
Y103753D01*
X179284D01*
Y104553D01*
X178884D01*
Y104954D01*
X178084D01*
Y104553D01*
X177684D01*
Y103753D01*
X178084D01*
X154734Y85151D02*
Y84751D01*
X155534D01*
Y85151D01*
X155934D01*
Y85951D01*
X155534D01*
Y86351D01*
X154734D01*
Y85951D01*
X154334D01*
Y85151D01*
X154734D01*
X336200Y180600D02*
Y180200D01*
X337000D01*
Y180600D01*
X337400D01*
Y181400D01*
X337000D01*
Y181800D01*
X336200D01*
Y181400D01*
X335800D01*
Y180600D01*
X336200D01*
X344400D02*
Y180200D01*
X345200D01*
Y180600D01*
X345600D01*
Y181400D01*
X345200D01*
Y181800D01*
X344400D01*
Y181400D01*
X344000D01*
Y180600D01*
X344400D01*
X340337D02*
Y180200D01*
X341137D01*
Y180600D01*
X341537D01*
Y181400D01*
X341137D01*
Y181800D01*
X340337D01*
Y181400D01*
X339937D01*
Y180600D01*
X340337D01*
X337500Y132500D02*
Y132100D01*
X338300D01*
Y132500D01*
X338700D01*
Y133300D01*
X338300D01*
Y133700D01*
X337500D01*
Y133300D01*
X337100D01*
Y132500D01*
X337500D01*
X340337D02*
Y132100D01*
X341137D01*
Y132500D01*
X341537D01*
Y133300D01*
X341137D01*
Y133700D01*
X340337D01*
Y133300D01*
X339937D01*
Y132500D01*
X340337D01*
X345900D02*
Y132100D01*
X346700D01*
Y132500D01*
X347100D01*
Y133300D01*
X346700D01*
Y133700D01*
X345900D01*
Y133300D01*
X345500D01*
Y132500D01*
X345900D01*
X261300Y74100D02*
Y73700D01*
X262100D01*
Y74100D01*
X262500D01*
Y74900D01*
X262100D01*
Y75300D01*
X261300D01*
Y74900D01*
X260900D01*
Y74100D01*
X261300D01*
X275522D02*
Y73700D01*
X276322D01*
Y74100D01*
X276722D01*
Y74900D01*
X276322D01*
Y75300D01*
X275522D01*
Y74900D01*
X275122D01*
Y74100D01*
X275522D01*
X111600Y117900D02*
Y117500D01*
X112400D01*
Y117900D01*
X112800D01*
Y118700D01*
X112400D01*
Y119100D01*
X111600D01*
Y118700D01*
X111200D01*
Y117900D01*
X111600D01*
Y121500D02*
Y121100D01*
X112400D01*
Y121500D01*
X112800D01*
Y122300D01*
X112400D01*
Y122700D01*
X111600D01*
Y122300D01*
X111200D01*
Y121500D01*
X111600D01*
X116100Y110400D02*
Y110000D01*
X116900D01*
Y110400D01*
X117300D01*
Y111200D01*
X116900D01*
Y111600D01*
X116100D01*
Y111200D01*
X115700D01*
Y110400D01*
X116100D01*
Y136300D02*
Y135900D01*
X116900D01*
Y136300D01*
X117300D01*
Y137100D01*
X116900D01*
Y137500D01*
X116100D01*
Y137100D01*
X115700D01*
Y136300D01*
X116100D01*
Y114100D02*
Y113700D01*
X116900D01*
Y114100D01*
X117300D01*
Y114900D01*
X116900D01*
Y115300D01*
X116100D01*
Y114900D01*
X115700D01*
Y114100D01*
X116100D01*
Y117800D02*
Y117400D01*
X116900D01*
Y117800D01*
X117300D01*
Y118600D01*
X116900D01*
Y119000D01*
X116100D01*
Y118600D01*
X115700D01*
Y117800D01*
X116100D01*
Y121500D02*
Y121100D01*
X116900D01*
Y121500D01*
X117300D01*
Y122300D01*
X116900D01*
Y122700D01*
X116100D01*
Y122300D01*
X115700D01*
Y121500D01*
X116100D01*
Y125200D02*
Y124800D01*
X116900D01*
Y125200D01*
X117300D01*
Y126000D01*
X116900D01*
Y126400D01*
X116100D01*
Y126000D01*
X115700D01*
Y125200D01*
X116100D01*
Y132600D02*
Y132200D01*
X116900D01*
Y132600D01*
X117300D01*
Y133400D01*
X116900D01*
Y133800D01*
X116100D01*
Y133400D01*
X115700D01*
Y132600D01*
X116100D01*
Y128900D02*
Y128500D01*
X116900D01*
Y128900D01*
X117300D01*
Y129700D01*
X116900D01*
Y130100D01*
X116100D01*
Y129700D01*
X115700D01*
Y128900D01*
X116100D01*
X111600Y132600D02*
Y132200D01*
X112400D01*
Y132600D01*
X112800D01*
Y133400D01*
X112400D01*
Y133800D01*
X111600D01*
Y133400D01*
X111200D01*
Y132600D01*
X111600D01*
Y129116D02*
Y128716D01*
X112400D01*
Y129116D01*
X112800D01*
Y129916D01*
X112400D01*
Y130316D01*
X111600D01*
Y129916D01*
X111200D01*
Y129116D01*
X111600D01*
X100900Y148900D02*
Y148500D01*
X101700D01*
Y148900D01*
X102100D01*
Y149700D01*
X101700D01*
Y150100D01*
X100900D01*
Y149700D01*
X100500D01*
Y148900D01*
X100900D01*
X84100Y148000D02*
Y147600D01*
X84900D01*
Y148000D01*
X85300D01*
Y148800D01*
X84900D01*
Y149200D01*
X84100D01*
Y148800D01*
X83700D01*
Y148000D01*
X84100D01*
X126200Y114100D02*
Y113700D01*
X127000D01*
Y114100D01*
X127400D01*
Y114900D01*
X127000D01*
Y115300D01*
X126200D01*
Y114900D01*
X125800D01*
Y114100D01*
X126200D01*
Y110400D02*
Y110000D01*
X127000D01*
Y110400D01*
X127400D01*
Y111200D01*
X127000D01*
Y111600D01*
X126200D01*
Y111200D01*
X125800D01*
Y110400D01*
X126200D01*
Y117800D02*
Y117400D01*
X127000D01*
Y117800D01*
X127400D01*
Y118600D01*
X127000D01*
Y119000D01*
X126200D01*
Y118600D01*
X125800D01*
Y117800D01*
X126200D01*
Y125200D02*
Y124800D01*
X127000D01*
Y125200D01*
X127400D01*
Y126000D01*
X127000D01*
Y126400D01*
X126200D01*
Y126000D01*
X125800D01*
Y125200D01*
X126200D01*
Y128900D02*
Y128500D01*
X127000D01*
Y128900D01*
X127400D01*
Y129700D01*
X127000D01*
Y130100D01*
X126200D01*
Y129700D01*
X125800D01*
Y128900D01*
X126200D01*
Y132600D02*
Y132200D01*
X127000D01*
Y132600D01*
X127400D01*
Y133400D01*
X127000D01*
Y133800D01*
X126200D01*
Y133400D01*
X125800D01*
Y132600D01*
X126200D01*
Y140000D02*
Y139600D01*
X127000D01*
Y140000D01*
X127400D01*
Y140800D01*
X127000D01*
Y141200D01*
X126200D01*
Y140800D01*
X125800D01*
Y140000D01*
X126200D01*
Y136300D02*
Y135900D01*
X127000D01*
Y136300D01*
X127400D01*
Y137100D01*
X127000D01*
Y137500D01*
X126200D01*
Y137100D01*
X125800D01*
Y136300D01*
X126200D01*
X151234Y138151D02*
Y137751D01*
X152034D01*
Y138151D01*
X152434D01*
Y138951D01*
X152034D01*
Y139351D01*
X151234D01*
Y138951D01*
X150834D01*
Y138151D01*
X151234D01*
X131234Y115401D02*
Y115001D01*
X132034D01*
Y115401D01*
X132434D01*
Y116201D01*
X132034D01*
Y116601D01*
X131234D01*
Y116201D01*
X130834D01*
Y115401D01*
X131234D01*
X146234Y105328D02*
Y104928D01*
X147034D01*
Y105328D01*
X147434D01*
Y106128D01*
X147034D01*
Y106528D01*
X146234D01*
Y106128D01*
X145834D01*
Y105328D01*
X146234D01*
X226234Y119503D02*
Y119103D01*
X227034D01*
Y119503D01*
X227434D01*
Y120303D01*
X227034D01*
Y120703D01*
X226234D01*
Y120303D01*
X225834D01*
Y119503D01*
X226234D01*
X226234Y114601D02*
Y114201D01*
X227034D01*
Y114601D01*
X227434D01*
Y115401D01*
X227034D01*
Y115801D01*
X226234D01*
Y115401D01*
X225834D01*
Y114601D01*
X226234D01*
X213234Y92151D02*
Y91751D01*
X214034D01*
Y92151D01*
X214434D01*
Y92951D01*
X214034D01*
Y93351D01*
X213234D01*
Y92951D01*
X212834D01*
Y92151D01*
X213234D01*
X246844Y135683D02*
Y135283D01*
X247644D01*
Y135683D01*
X248044D01*
Y136483D01*
X247644D01*
Y136883D01*
X246844D01*
Y136483D01*
X246444D01*
Y135683D01*
X246844D01*
X249206Y134108D02*
Y133708D01*
X250006D01*
Y134108D01*
X250406D01*
Y134908D01*
X250006D01*
Y135308D01*
X249206D01*
Y134908D01*
X248806D01*
Y134108D01*
X249206D01*
X226234Y96151D02*
Y95751D01*
X227034D01*
Y96151D01*
X227434D01*
Y96951D01*
X227034D01*
Y97351D01*
X226234D01*
Y96951D01*
X225834D01*
Y96151D01*
X226234D01*
X222234Y130351D02*
Y129951D01*
X223034D01*
Y130351D01*
X223434D01*
Y131151D01*
X223034D01*
Y131551D01*
X222234D01*
Y131151D01*
X221834D01*
Y130351D01*
X222234D01*
Y71651D02*
Y71251D01*
X223034D01*
Y71651D01*
X223434D01*
Y72451D01*
X223034D01*
Y72851D01*
X222234D01*
Y72451D01*
X221834D01*
Y71651D01*
X222234D01*
X226234Y124051D02*
Y123651D01*
X227034D01*
Y124051D01*
X227434D01*
Y124851D01*
X227034D01*
Y125251D01*
X226234D01*
Y124851D01*
X225834D01*
Y124051D01*
X226234D01*
Y130351D02*
Y129951D01*
X227034D01*
Y130351D01*
X227434D01*
Y131151D01*
X227034D01*
Y131551D01*
X226234D01*
Y131151D01*
X225834D01*
Y130351D01*
X226234D01*
Y98851D02*
Y98451D01*
X227034D01*
Y98851D01*
X227434D01*
Y99651D01*
X227034D01*
Y100051D01*
X226234D01*
Y99651D01*
X225834D01*
Y98851D01*
X226234D01*
Y108301D02*
Y107901D01*
X227034D01*
Y108301D01*
X227434D01*
Y109101D01*
X227034D01*
Y109501D01*
X226234D01*
Y109101D01*
X225834D01*
Y108301D01*
X226234D01*
X229234Y101651D02*
Y101251D01*
X230034D01*
Y101651D01*
X230434D01*
Y102451D01*
X230034D01*
Y102851D01*
X229234D01*
Y102451D01*
X228834D01*
Y101651D01*
X229234D01*
X222234Y134151D02*
Y133751D01*
X223034D01*
Y134151D01*
X223434D01*
Y134951D01*
X223034D01*
Y135351D01*
X222234D01*
Y134951D01*
X221834D01*
Y134151D01*
X222234D01*
Y125651D02*
Y125251D01*
X223034D01*
Y125651D01*
X223434D01*
Y126451D01*
X223034D01*
Y126851D01*
X222234D01*
Y126451D01*
X221834D01*
Y125651D01*
X222234D01*
X217182Y187789D02*
Y187389D01*
X217982D01*
Y187789D01*
X218382D01*
Y188589D01*
X217982D01*
Y188989D01*
X217182D01*
Y188589D01*
X216782D01*
Y187789D01*
X217182D01*
X213245D02*
Y187389D01*
X214045D01*
Y187789D01*
X214445D01*
Y188589D01*
X214045D01*
Y188989D01*
X213245D01*
Y188589D01*
X212845D01*
Y187789D01*
X213245D01*
X209308D02*
Y187389D01*
X210108D01*
Y187789D01*
X210508D01*
Y188589D01*
X210108D01*
Y188989D01*
X209308D01*
Y188589D01*
X208908D01*
Y187789D01*
X209308D01*
X205371D02*
Y187389D01*
X206171D01*
Y187789D01*
X206571D01*
Y188589D01*
X206171D01*
Y188989D01*
X205371D01*
Y188589D01*
X204971D01*
Y187789D01*
X205371D01*
X264426D02*
Y187389D01*
X265226D01*
Y187789D01*
X265626D01*
Y188589D01*
X265226D01*
Y188989D01*
X264426D01*
Y188589D01*
X264026D01*
Y187789D01*
X264426D01*
X268363D02*
Y187389D01*
X269163D01*
Y187789D01*
X269563D01*
Y188589D01*
X269163D01*
Y188989D01*
X268363D01*
Y188589D01*
X267963D01*
Y187789D01*
X268363D01*
X260489D02*
Y187389D01*
X261289D01*
Y187789D01*
X261689D01*
Y188589D01*
X261289D01*
Y188989D01*
X260489D01*
Y188589D01*
X260089D01*
Y187789D01*
X260489D01*
X256552D02*
Y187389D01*
X257352D01*
Y187789D01*
X257752D01*
Y188589D01*
X257352D01*
Y188989D01*
X256552D01*
Y188589D01*
X256152D01*
Y187789D01*
X256552D01*
X272300D02*
Y187389D01*
X273100D01*
Y187789D01*
X273500D01*
Y188589D01*
X273100D01*
Y188989D01*
X272300D01*
Y188589D01*
X271900D01*
Y187789D01*
X272300D01*
X213234Y108478D02*
Y108078D01*
X214034D01*
Y108478D01*
X214434D01*
Y109278D01*
X214034D01*
Y109678D01*
X213234D01*
Y109278D01*
X212834D01*
Y108478D01*
X213234D01*
Y98651D02*
Y98251D01*
X214034D01*
Y98651D01*
X214434D01*
Y99451D01*
X214034D01*
Y99851D01*
X213234D01*
Y99451D01*
X212834D01*
Y98651D01*
X213234D01*
Y94651D02*
Y94251D01*
X214034D01*
Y94651D01*
X214434D01*
Y95451D01*
X214034D01*
Y95851D01*
X213234D01*
Y95451D01*
X212834D01*
Y94651D01*
X213234D01*
Y113201D02*
Y112801D01*
X214034D01*
Y113201D01*
X214434D01*
Y114001D01*
X214034D01*
Y114401D01*
X213234D01*
Y114001D01*
X212834D01*
Y113201D01*
X213234D01*
X181234Y153151D02*
Y152751D01*
X182034D01*
Y153151D01*
X182434D01*
Y153951D01*
X182034D01*
Y154351D01*
X181234D01*
Y153951D01*
X180834D01*
Y153151D01*
X181234D01*
X208006Y152151D02*
Y151751D01*
X208806D01*
Y152151D01*
X209206D01*
Y152951D01*
X208806D01*
Y153351D01*
X208006D01*
Y152951D01*
X207606D01*
Y152151D01*
X208006D01*
X146234Y138151D02*
Y137751D01*
X147034D01*
Y138151D01*
X147434D01*
Y138951D01*
X147034D01*
Y139351D01*
X146234D01*
Y138951D01*
X145834D01*
Y138151D01*
X146234D01*
X151234Y149423D02*
Y149023D01*
X152034D01*
Y149423D01*
X152434D01*
Y150223D01*
X152034D01*
Y150623D01*
X151234D01*
Y150223D01*
X150834D01*
Y149423D01*
X151234D01*
X131000Y147400D02*
Y147000D01*
X131800D01*
Y147400D01*
X132200D01*
Y148200D01*
X131800D01*
Y148600D01*
X131000D01*
Y148200D01*
X130600D01*
Y147400D01*
X131000D01*
X129134Y153901D02*
Y153501D01*
X129934D01*
Y153901D01*
X130334D01*
Y154701D01*
X129934D01*
Y155101D01*
X129134D01*
Y154701D01*
X128734D01*
Y153901D01*
X129134D01*
X141200Y141151D02*
Y140751D01*
X142000D01*
Y141151D01*
X142400D01*
Y141951D01*
X142000D01*
Y142351D01*
X141200D01*
Y141951D01*
X140800D01*
Y141151D01*
X141200D01*
X184384Y125801D02*
Y125401D01*
X185184D01*
Y125801D01*
X185584D01*
Y126601D01*
X185184D01*
Y127001D01*
X184384D01*
Y126601D01*
X183984D01*
Y125801D01*
X184384D01*
X146234Y128951D02*
Y128551D01*
X147034D01*
Y128951D01*
X147434D01*
Y129751D01*
X147034D01*
Y130151D01*
X146234D01*
Y129751D01*
X145834D01*
Y128951D01*
X146234D01*
X131234Y112151D02*
Y111751D01*
X132034D01*
Y112151D01*
X132434D01*
Y112951D01*
X132034D01*
Y113351D01*
X131234D01*
Y112951D01*
X130834D01*
Y112151D01*
X131234D01*
X208006Y93151D02*
Y92751D01*
X208806D01*
Y93151D01*
X209206D01*
Y93951D01*
X208806D01*
Y94351D01*
X208006D01*
Y93951D01*
X207606D01*
Y93151D01*
X208006D01*
X152884Y94301D02*
Y93901D01*
X153684D01*
Y94301D01*
X154084D01*
Y95101D01*
X153684D01*
Y95501D01*
X152884D01*
Y95101D01*
X152484D01*
Y94301D01*
X152884D01*
X143234Y85151D02*
Y84751D01*
X144034D01*
Y85151D01*
X144434D01*
Y85951D01*
X144034D01*
Y86351D01*
X143234D01*
Y85951D01*
X142834D01*
Y85151D01*
X143234D01*
X213234Y128951D02*
Y128551D01*
X214034D01*
Y128951D01*
X214434D01*
Y129751D01*
X214034D01*
Y130151D01*
X213234D01*
Y129751D01*
X212834D01*
Y128951D01*
X213234D01*
X187484Y90151D02*
Y89751D01*
X188284D01*
Y90151D01*
X188684D01*
Y90951D01*
X188284D01*
Y91351D01*
X187484D01*
Y90951D01*
X187084D01*
Y90151D01*
X187484D01*
X194984D02*
Y89751D01*
X195784D01*
Y90151D01*
X196184D01*
Y90951D01*
X195784D01*
Y91351D01*
X194984D01*
Y90951D01*
X194584D01*
Y90151D01*
X194984D01*
X203284Y125801D02*
Y125401D01*
X204084D01*
Y125801D01*
X204484D01*
Y126601D01*
X204084D01*
Y127001D01*
X203284D01*
Y126601D01*
X202884D01*
Y125801D01*
X203284D01*
X213234Y125799D02*
Y125399D01*
X214034D01*
Y125799D01*
X214434D01*
Y126599D01*
X214034D01*
Y126999D01*
X213234D01*
Y126599D01*
X212834D01*
Y125799D01*
X213234D01*
X200134Y125801D02*
Y125401D01*
X200934D01*
Y125801D01*
X201334D01*
Y126601D01*
X200934D01*
Y127001D01*
X200134D01*
Y126601D01*
X199734D01*
Y125801D01*
X200134D01*
X193834D02*
Y125401D01*
X194634D01*
Y125801D01*
X195034D01*
Y126601D01*
X194634D01*
Y127001D01*
X193834D01*
Y126601D01*
X193434D01*
Y125801D01*
X193834D01*
X187533D02*
Y125401D01*
X188333D01*
Y125801D01*
X188733D01*
Y126601D01*
X188333D01*
Y127001D01*
X187533D01*
Y126601D01*
X187133D01*
Y125801D01*
X187533D01*
X190684Y110051D02*
Y109651D01*
X191484D01*
Y110051D01*
X191884D01*
Y110851D01*
X191484D01*
Y111251D01*
X190684D01*
Y110851D01*
X190284D01*
Y110051D01*
X190684D01*
X141234Y115401D02*
Y115001D01*
X142034D01*
Y115401D01*
X142434D01*
Y116201D01*
X142034D01*
Y116601D01*
X141234D01*
Y116201D01*
X140834D01*
Y115401D01*
X141234D01*
Y112401D02*
Y112001D01*
X142034D01*
Y112401D01*
X142434D01*
Y113201D01*
X142034D01*
Y113601D01*
X141234D01*
Y113201D01*
X140834D01*
Y112401D01*
X141234D01*
X143634Y149401D02*
Y149001D01*
X144434D01*
Y149401D01*
X144834D01*
Y150201D01*
X144434D01*
Y150601D01*
X143634D01*
Y150201D01*
X143234D01*
Y149401D01*
X143634D01*
X146234Y155651D02*
Y155251D01*
X147034D01*
Y155651D01*
X147434D01*
Y156451D01*
X147034D01*
Y156851D01*
X146234D01*
Y156451D01*
X145834D01*
Y155651D01*
X146234D01*
X131000Y138651D02*
Y138251D01*
X131800D01*
Y138651D01*
X132200D01*
Y139451D01*
X131800D01*
Y139851D01*
X131000D01*
Y139451D01*
X130600D01*
Y138651D01*
X131000D01*
Y141151D02*
Y140751D01*
X131800D01*
Y141151D01*
X132200D01*
Y141951D01*
X131800D01*
Y142351D01*
X131000D01*
Y141951D01*
X130600D01*
Y141151D01*
X131000D01*
X181734Y90151D02*
Y89751D01*
X182534D01*
Y90151D01*
X182934D01*
Y90951D01*
X182534D01*
Y91351D01*
X181734D01*
Y90951D01*
X181334D01*
Y90151D01*
X181734D01*
X148734Y138151D02*
Y137751D01*
X149534D01*
Y138151D01*
X149934D01*
Y138951D01*
X149534D01*
Y139351D01*
X148734D01*
Y138951D01*
X148334D01*
Y138151D01*
X148734D01*
X146234Y144651D02*
Y144251D01*
X147034D01*
Y144651D01*
X147434D01*
Y145451D01*
X147034D01*
Y145851D01*
X146234D01*
Y145451D01*
X145834D01*
Y144651D01*
X146234D01*
X131234Y84651D02*
Y84251D01*
X132034D01*
Y84651D01*
X132434D01*
Y85451D01*
X132034D01*
Y85851D01*
X131234D01*
Y85451D01*
X130834D01*
Y84651D01*
X131234D01*
X128734D02*
Y84251D01*
X129534D01*
Y84651D01*
X129934D01*
Y85451D01*
X129534D01*
Y85851D01*
X128734D01*
Y85451D01*
X128334D01*
Y84651D01*
X128734D01*
X146234Y149401D02*
Y149001D01*
X147034D01*
Y149401D01*
X147434D01*
Y150201D01*
X147034D01*
Y150601D01*
X146234D01*
Y150201D01*
X145834D01*
Y149401D01*
X146234D01*
Y119503D02*
Y119103D01*
X147034D01*
Y119503D01*
X147434D01*
Y120303D01*
X147034D01*
Y120703D01*
X146234D01*
Y120303D01*
X145834D01*
Y119503D01*
X146234D01*
X146734Y85151D02*
Y84751D01*
X147534D01*
Y85151D01*
X147934D01*
Y85951D01*
X147534D01*
Y86351D01*
X146734D01*
Y85951D01*
X146334D01*
Y85151D01*
X146734D01*
X146234Y152651D02*
Y152251D01*
X147034D01*
Y152651D01*
X147434D01*
Y153451D01*
X147034D01*
Y153851D01*
X146234D01*
Y153451D01*
X145834D01*
Y152651D01*
X146234D01*
X141200Y147400D02*
Y147000D01*
X142000D01*
Y147400D01*
X142400D01*
Y148200D01*
X142000D01*
Y148600D01*
X141200D01*
Y148200D01*
X140800D01*
Y147400D01*
X141200D01*
X143684Y152651D02*
Y152251D01*
X144484D01*
Y152651D01*
X144884D01*
Y153451D01*
X144484D01*
Y153851D01*
X143684D01*
Y153451D01*
X143284D01*
Y152651D01*
X143684D01*
Y155651D02*
Y155251D01*
X144484D01*
Y155651D01*
X144884D01*
Y156451D01*
X144484D01*
Y156851D01*
X143684D01*
Y156451D01*
X143284D01*
Y155651D01*
X143684D01*
X141234Y128901D02*
Y128501D01*
X142034D01*
Y128901D01*
X142434D01*
Y129701D01*
X142034D01*
Y130101D01*
X141234D01*
Y129701D01*
X140834D01*
Y128901D01*
X141234D01*
X141200Y138651D02*
Y138251D01*
X142000D01*
Y138651D01*
X142400D01*
Y139451D01*
X142000D01*
Y139851D01*
X141200D01*
Y139451D01*
X140800D01*
Y138651D01*
X141200D01*
X141234Y125151D02*
Y124751D01*
X142034D01*
Y125151D01*
X142434D01*
Y125951D01*
X142034D01*
Y126351D01*
X141234D01*
Y125951D01*
X140834D01*
Y125151D01*
X141234D01*
X158734Y87151D02*
Y86751D01*
X159534D01*
Y87151D01*
X159934D01*
Y87951D01*
X159534D01*
Y88351D01*
X158734D01*
Y87951D01*
X158334D01*
Y87151D01*
X158734D01*
X196984Y125801D02*
Y125401D01*
X197784D01*
Y125801D01*
X198184D01*
Y126601D01*
X197784D01*
Y127001D01*
X196984D01*
Y126601D01*
X196584D01*
Y125801D01*
X196984D01*
X209234Y84651D02*
Y84251D01*
X210034D01*
Y84651D01*
X210434D01*
Y85451D01*
X210034D01*
Y85851D01*
X209234D01*
Y85451D01*
X208834D01*
Y84651D01*
X209234D01*
X105600Y97600D02*
Y97200D01*
X106400D01*
Y97600D01*
X106800D01*
Y98400D01*
X106400D01*
Y98800D01*
X105600D01*
Y98400D01*
X105200D01*
Y97600D01*
X105600D01*
X85600Y85100D02*
Y84700D01*
X86400D01*
Y85100D01*
X86800D01*
Y85900D01*
X86400D01*
Y86300D01*
X85600D01*
Y85900D01*
X85200D01*
Y85100D01*
X85600D01*
X252884Y79979D02*
Y79580D01*
X253684D01*
Y79979D01*
X254084D01*
Y80779D01*
X253684D01*
Y81179D01*
X252884D01*
Y80779D01*
X252484D01*
Y79979D01*
X252884D01*
X249380Y91003D02*
Y90603D01*
X250180D01*
Y91003D01*
X250580D01*
Y91803D01*
X250180D01*
Y92203D01*
X249380D01*
Y91803D01*
X248980D01*
Y91003D01*
X249380D01*
X84100Y140600D02*
Y140200D01*
X84900D01*
Y140600D01*
X85300D01*
Y141400D01*
X84900D01*
Y141800D01*
X84100D01*
Y141400D01*
X83700D01*
Y140600D01*
X84100D01*
Y137600D02*
Y137200D01*
X84900D01*
Y137600D01*
X85300D01*
Y138400D01*
X84900D01*
Y138800D01*
X84100D01*
Y138400D01*
X83700D01*
Y137600D01*
X84100D01*
X75100Y140600D02*
Y140200D01*
X75900D01*
Y140600D01*
X76300D01*
Y141400D01*
X75900D01*
Y141800D01*
X75100D01*
Y141400D01*
X74700D01*
Y140600D01*
X75100D01*
X99600Y117600D02*
Y117200D01*
X100400D01*
Y117600D01*
X100800D01*
Y118400D01*
X100400D01*
Y118800D01*
X99600D01*
Y118400D01*
X99200D01*
Y117600D01*
X99600D01*
X103100D02*
Y117200D01*
X103900D01*
Y117600D01*
X104300D01*
Y118400D01*
X103900D01*
Y118800D01*
X103100D01*
Y118400D01*
X102700D01*
Y117600D01*
X103100D01*
X98616Y113931D02*
Y113531D01*
X99416D01*
Y113931D01*
X99816D01*
Y114731D01*
X99416D01*
Y115131D01*
X98616D01*
Y114731D01*
X98216D01*
Y113931D01*
X98616D01*
X115100Y88600D02*
Y88200D01*
X115900D01*
Y88600D01*
X116300D01*
Y89400D01*
X115900D01*
Y89800D01*
X115100D01*
Y89400D01*
X114700D01*
Y88600D01*
X115100D01*
X111116Y108431D02*
Y108031D01*
X111916D01*
Y108431D01*
X112316D01*
Y109231D01*
X111916D01*
Y109631D01*
X111116D01*
Y109231D01*
X110716D01*
Y108431D01*
X111116D01*
Y111431D02*
Y111031D01*
X111916D01*
Y111431D01*
X112316D01*
Y112231D01*
X111916D01*
Y112631D01*
X111116D01*
Y112231D01*
X110716D01*
Y111431D01*
X111116D01*
X86116Y108431D02*
Y108031D01*
X86916D01*
Y108431D01*
X87316D01*
Y109231D01*
X86916D01*
Y109631D01*
X86116D01*
Y109231D01*
X85716D01*
Y108431D01*
X86116D01*
Y111431D02*
Y111031D01*
X86916D01*
Y111431D01*
X87316D01*
Y112231D01*
X86916D01*
Y112631D01*
X86116D01*
Y112231D01*
X85716D01*
Y111431D01*
X86116D01*
X181234Y122651D02*
Y122251D01*
X182034D01*
Y122651D01*
X182434D01*
Y123451D01*
X182034D01*
Y123851D01*
X181234D01*
Y123451D01*
X180834D01*
Y122651D01*
X181234D01*
X196982Y106903D02*
Y106503D01*
X197782D01*
Y106903D01*
X198182D01*
Y107703D01*
X197782D01*
Y108103D01*
X196982D01*
Y107703D01*
X196582D01*
Y106903D01*
X196982D01*
X275522Y108326D02*
Y107926D01*
X276322D01*
Y108326D01*
X276722D01*
Y109126D01*
X276322D01*
Y109526D01*
X275522D01*
Y109126D01*
X275122D01*
Y108326D01*
X275522D01*
Y94153D02*
Y93753D01*
X276322D01*
Y94153D01*
X276722D01*
Y94953D01*
X276322D01*
Y95353D01*
X275522D01*
Y94953D01*
X275122D01*
Y94153D01*
X275522D01*
Y130373D02*
Y129973D01*
X276322D01*
Y130373D01*
X276722D01*
Y131173D01*
X276322D01*
Y131573D01*
X275522D01*
Y131173D01*
X275122D01*
Y130373D01*
X275522D01*
Y124074D02*
Y123674D01*
X276322D01*
Y124074D01*
X276722D01*
Y124874D01*
X276322D01*
Y125274D01*
X275522D01*
Y124874D01*
X275122D01*
Y124074D01*
X275522D01*
Y117775D02*
Y117375D01*
X276322D01*
Y117775D01*
X276722D01*
Y118575D01*
X276322D01*
Y118975D01*
X275522D01*
Y118575D01*
X275122D01*
Y117775D01*
X275522D01*
Y103602D02*
Y103202D01*
X276322D01*
Y103602D01*
X276722D01*
Y104402D01*
X276322D01*
Y104802D01*
X275522D01*
Y104402D01*
X275122D01*
Y103602D01*
X275522D01*
Y98877D02*
Y98477D01*
X276322D01*
Y98877D01*
X276722D01*
Y99677D01*
X276322D01*
Y100077D01*
X275522D01*
Y99677D01*
X275122D01*
Y98877D01*
X275522D01*
Y89428D02*
Y89028D01*
X276322D01*
Y89428D01*
X276722D01*
Y90228D01*
X276322D01*
Y90628D01*
X275522D01*
Y90228D01*
X275122D01*
Y89428D01*
X275522D01*
Y83129D02*
Y82729D01*
X276322D01*
Y83129D01*
X276722D01*
Y83929D01*
X276322D01*
Y84329D01*
X275522D01*
Y83929D01*
X275122D01*
Y83129D01*
X275522D01*
X118100Y55600D02*
Y55200D01*
X118900D01*
Y55600D01*
X119300D01*
Y56400D01*
X118900D01*
Y56800D01*
X118100D01*
Y56400D01*
X117700D01*
Y55600D01*
X118100D01*
Y48600D02*
Y48200D01*
X118900D01*
Y48600D01*
X119300D01*
Y49400D01*
X118900D01*
Y49800D01*
X118100D01*
Y49400D01*
X117700D01*
Y48600D01*
X118100D01*
X112100Y74100D02*
Y73700D01*
X112900D01*
Y74100D01*
X113300D01*
Y74900D01*
X112900D01*
Y75300D01*
X112100D01*
Y74900D01*
X111700D01*
Y74100D01*
X112100D01*
X115100D02*
Y73700D01*
X115900D01*
Y74100D01*
X116300D01*
Y74900D01*
X115900D01*
Y75300D01*
X115100D01*
Y74900D01*
X114700D01*
Y74100D01*
X115100D01*
X118600D02*
Y73700D01*
X119400D01*
Y74100D01*
X119800D01*
Y74900D01*
X119400D01*
Y75300D01*
X118600D01*
Y74900D01*
X118200D01*
Y74100D01*
X118600D01*
X112100Y59100D02*
Y58700D01*
X112900D01*
Y59100D01*
X113300D01*
Y59900D01*
X112900D01*
Y60300D01*
X112100D01*
Y59900D01*
X111700D01*
Y59100D01*
X112100D01*
X115100D02*
Y58700D01*
X115900D01*
Y59100D01*
X116300D01*
Y59900D01*
X115900D01*
Y60300D01*
X115100D01*
Y59900D01*
X114700D01*
Y59100D01*
X115100D01*
X109100Y55600D02*
Y55200D01*
X109900D01*
Y55600D01*
X110300D01*
Y56400D01*
X109900D01*
Y56800D01*
X109100D01*
Y56400D01*
X108700D01*
Y55600D01*
X109100D01*
X106600D02*
Y55200D01*
X107400D01*
Y55600D01*
X107800D01*
Y56400D01*
X107400D01*
Y56800D01*
X106600D01*
Y56400D01*
X106200D01*
Y55600D01*
X106600D01*
Y58100D02*
Y57700D01*
X107400D01*
Y58100D01*
X107800D01*
Y58900D01*
X107400D01*
Y59300D01*
X106600D01*
Y58900D01*
X106200D01*
Y58100D01*
X106600D01*
Y60600D02*
Y60200D01*
X107400D01*
Y60600D01*
X107800D01*
Y61400D01*
X107400D01*
Y61800D01*
X106600D01*
Y61400D01*
X106200D01*
Y60600D01*
X106600D01*
Y63100D02*
Y62700D01*
X107400D01*
Y63100D01*
X107800D01*
Y63900D01*
X107400D01*
Y64300D01*
X106600D01*
Y63900D01*
X106200D01*
Y63100D01*
X106600D01*
X88600Y85100D02*
Y84700D01*
X89400D01*
Y85100D01*
X89800D01*
Y85900D01*
X89400D01*
Y86300D01*
X88600D01*
Y85900D01*
X88200D01*
Y85100D01*
X88600D01*
X79600Y83100D02*
Y82700D01*
X80400D01*
Y83100D01*
X80800D01*
Y83900D01*
X80400D01*
Y84300D01*
X79600D01*
Y83900D01*
X79200D01*
Y83100D01*
X79600D01*
X126100Y87600D02*
Y87200D01*
X126900D01*
Y87600D01*
X127300D01*
Y88400D01*
X126900D01*
Y88800D01*
X126100D01*
Y88400D01*
X125700D01*
Y87600D01*
X126100D01*
X143100Y35600D02*
Y35200D01*
X143900D01*
Y35600D01*
X144300D01*
Y36400D01*
X143900D01*
Y36800D01*
X143100D01*
Y36400D01*
X142700D01*
Y35600D01*
X143100D01*
Y40600D02*
Y40200D01*
X143900D01*
Y40600D01*
X144300D01*
Y41400D01*
X143900D01*
Y41800D01*
X143100D01*
Y41400D01*
X142700D01*
Y40600D01*
X143100D01*
X136100Y50600D02*
Y50200D01*
X136900D01*
Y50600D01*
X137300D01*
Y51400D01*
X136900D01*
Y51800D01*
X136100D01*
Y51400D01*
X135700D01*
Y50600D01*
X136100D01*
X143100D02*
Y50200D01*
X143900D01*
Y50600D01*
X144300D01*
Y51400D01*
X143900D01*
Y51800D01*
X143100D01*
Y51400D01*
X142700D01*
Y50600D01*
X143100D01*
X136100Y55600D02*
Y55200D01*
X136900D01*
Y55600D01*
X137300D01*
Y56400D01*
X136900D01*
Y56800D01*
X136100D01*
Y56400D01*
X135700D01*
Y55600D01*
X136100D01*
Y65600D02*
Y65200D01*
X136900D01*
Y65600D01*
X137300D01*
Y66400D01*
X136900D01*
Y66800D01*
X136100D01*
Y66400D01*
X135700D01*
Y65600D01*
X136100D01*
Y70600D02*
Y70200D01*
X136900D01*
Y70600D01*
X137300D01*
Y71400D01*
X136900D01*
Y71800D01*
X136100D01*
Y71400D01*
X135700D01*
Y70600D01*
X136100D01*
X143100Y65600D02*
Y65200D01*
X143900D01*
Y65600D01*
X144300D01*
Y66400D01*
X143900D01*
Y66800D01*
X143100D01*
Y66400D01*
X142700D01*
Y65600D01*
X143100D01*
Y70600D02*
Y70200D01*
X143900D01*
Y70600D01*
X144300D01*
Y71400D01*
X143900D01*
Y71800D01*
X143100D01*
Y71400D01*
X142700D01*
Y70600D01*
X143100D01*
X102100Y97600D02*
Y97200D01*
X102900D01*
Y97600D01*
X103300D01*
Y98400D01*
X102900D01*
Y98800D01*
X102100D01*
Y98400D01*
X101700D01*
Y97600D01*
X102100D01*
X91100D02*
Y97200D01*
X91900D01*
Y97600D01*
X92300D01*
Y98400D01*
X91900D01*
Y98800D01*
X91100D01*
Y98400D01*
X90700D01*
Y97600D01*
X91100D01*
X95600Y52100D02*
Y51700D01*
X96400D01*
Y52100D01*
X96800D01*
Y52900D01*
X96400D01*
Y53300D01*
X95600D01*
Y52900D01*
X95200D01*
Y52100D01*
X95600D01*
X87600D02*
Y51700D01*
X88400D01*
Y52100D01*
X88800D01*
Y52900D01*
X88400D01*
Y53300D01*
X87600D01*
Y52900D01*
X87200D01*
Y52100D01*
X87600D01*
X82100D02*
Y51700D01*
X82900D01*
Y52100D01*
X83300D01*
Y52900D01*
X82900D01*
Y53300D01*
X82100D01*
Y52900D01*
X81700D01*
Y52100D01*
X82100D01*
X106600Y78200D02*
Y77800D01*
X107400D01*
Y78200D01*
X107800D01*
Y79000D01*
X107400D01*
Y79400D01*
X106600D01*
Y79000D01*
X106200D01*
Y78200D01*
X106600D01*
Y80100D02*
Y79700D01*
X107400D01*
Y80100D01*
X107800D01*
Y80900D01*
X107400D01*
Y81300D01*
X106600D01*
Y80900D01*
X106200D01*
Y80100D01*
X106600D01*
X96500Y38100D02*
Y37700D01*
X97300D01*
Y38100D01*
X97700D01*
Y38900D01*
X97300D01*
Y39300D01*
X96500D01*
Y38900D01*
X96100D01*
Y38100D01*
X96500D01*
X94600D02*
Y37700D01*
X95400D01*
Y38100D01*
X95800D01*
Y38900D01*
X95400D01*
Y39300D01*
X94600D01*
Y38900D01*
X94200D01*
Y38100D01*
X94600D01*
X104500Y47100D02*
Y46700D01*
X105300D01*
Y47100D01*
X105700D01*
Y47900D01*
X105300D01*
Y48300D01*
X104500D01*
Y47900D01*
X104100D01*
Y47100D01*
X104500D01*
X101600D02*
Y46700D01*
X102400D01*
Y47100D01*
X102800D01*
Y47900D01*
X102400D01*
Y48300D01*
X101600D01*
Y47900D01*
X101200D01*
Y47100D01*
X101600D01*
X97600D02*
Y46700D01*
X98400D01*
Y47100D01*
X98800D01*
Y47900D01*
X98400D01*
Y48300D01*
X97600D01*
Y47900D01*
X97200D01*
Y47100D01*
X97600D01*
X94700D02*
Y46700D01*
X95500D01*
Y47100D01*
X95900D01*
Y47900D01*
X95500D01*
Y48300D01*
X94700D01*
Y47900D01*
X94300D01*
Y47100D01*
X94700D01*
X89500D02*
Y46700D01*
X90300D01*
Y47100D01*
X90700D01*
Y47900D01*
X90300D01*
Y48300D01*
X89500D01*
Y47900D01*
X89100D01*
Y47100D01*
X89500D01*
X86600D02*
Y46700D01*
X87400D01*
Y47100D01*
X87800D01*
Y47900D01*
X87400D01*
Y48300D01*
X86600D01*
Y47900D01*
X86200D01*
Y47100D01*
X86600D01*
X89500Y38100D02*
Y37700D01*
X90300D01*
Y38100D01*
X90700D01*
Y38900D01*
X90300D01*
Y39300D01*
X89500D01*
Y38900D01*
X89100D01*
Y38100D01*
X89500D01*
X86600D02*
Y37700D01*
X87400D01*
Y38100D01*
X87800D01*
Y38900D01*
X87400D01*
Y39300D01*
X86600D01*
Y38900D01*
X86200D01*
Y38100D01*
X86600D01*
X82600D02*
Y37700D01*
X83400D01*
Y38100D01*
X83800D01*
Y38900D01*
X83400D01*
Y39300D01*
X82600D01*
Y38900D01*
X82200D01*
Y38100D01*
X82600D01*
X79700D02*
Y37700D01*
X80500D01*
Y38100D01*
X80900D01*
Y38900D01*
X80500D01*
Y39300D01*
X79700D01*
Y38900D01*
X79300D01*
Y38100D01*
X79700D01*
X82600Y47100D02*
Y46700D01*
X83400D01*
Y47100D01*
X83800D01*
Y47900D01*
X83400D01*
Y48300D01*
X82600D01*
Y47900D01*
X82200D01*
Y47100D01*
X82600D01*
X79700D02*
Y46700D01*
X80500D01*
Y47100D01*
X80900D01*
Y47900D01*
X80500D01*
Y48300D01*
X79700D01*
Y47900D01*
X79300D01*
Y47100D01*
X79700D01*
X74600Y56100D02*
Y55700D01*
X75400D01*
Y56100D01*
X75800D01*
Y56900D01*
X75400D01*
Y57300D01*
X74600D01*
Y56900D01*
X74200D01*
Y56100D01*
X74600D01*
Y76100D02*
Y75700D01*
X75400D01*
Y76100D01*
X75800D01*
Y76900D01*
X75400D01*
Y77300D01*
X74600D01*
Y76900D01*
X74200D01*
Y76100D01*
X74600D01*
X72100Y68387D02*
Y67987D01*
X72900D01*
Y68387D01*
X73300D01*
Y69187D01*
X72900D01*
Y69587D01*
X72100D01*
Y69187D01*
X71700D01*
Y68387D01*
X72100D01*
Y63663D02*
Y63263D01*
X72900D01*
Y63663D01*
X73300D01*
Y64463D01*
X72900D01*
Y64863D01*
X72100D01*
Y64463D01*
X71700D01*
Y63663D01*
X72100D01*
X49600Y71100D02*
Y70700D01*
X50400D01*
Y71100D01*
X50800D01*
Y71900D01*
X50400D01*
Y72300D01*
X49600D01*
Y71900D01*
X49200D01*
Y71100D01*
X49600D01*
X54100Y83600D02*
Y83200D01*
X54900D01*
Y83600D01*
X55300D01*
Y84400D01*
X54900D01*
Y84800D01*
X54100D01*
Y84400D01*
X53700D01*
Y83600D01*
X54100D01*
X37100Y80100D02*
Y79700D01*
X37900D01*
Y80100D01*
X38300D01*
Y80900D01*
X37900D01*
Y81300D01*
X37100D01*
Y80900D01*
X36700D01*
Y80100D01*
X37100D01*
X24100Y70100D02*
Y69700D01*
X24900D01*
Y70100D01*
X25300D01*
Y70900D01*
X24900D01*
Y71300D01*
X24100D01*
Y70900D01*
X23700D01*
Y70100D01*
X24100D01*
X14100Y75600D02*
Y75200D01*
X14900D01*
Y75600D01*
X15300D01*
Y76400D01*
X14900D01*
Y76800D01*
X14100D01*
Y76400D01*
X13700D01*
Y75600D01*
X14100D01*
X37100Y75100D02*
Y74700D01*
X37900D01*
Y75100D01*
X38300D01*
Y75900D01*
X37900D01*
Y76300D01*
X37100D01*
Y75900D01*
X36700D01*
Y75100D01*
X37100D01*
Y70100D02*
Y69700D01*
X37900D01*
Y70100D01*
X38300D01*
Y70900D01*
X37900D01*
Y71300D01*
X37100D01*
Y70900D01*
X36700D01*
Y70100D01*
X37100D01*
X28100Y75100D02*
Y74700D01*
X28900D01*
Y75100D01*
X29300D01*
Y75900D01*
X28900D01*
Y76300D01*
X28100D01*
Y75900D01*
X27700D01*
Y75100D01*
X28100D01*
Y70100D02*
Y69700D01*
X28900D01*
Y70100D01*
X29300D01*
Y70900D01*
X28900D01*
Y71300D01*
X28100D01*
Y70900D01*
X27700D01*
Y70100D01*
X28100D01*
X84100Y118100D02*
Y117700D01*
X84900D01*
Y118100D01*
X85300D01*
Y118900D01*
X84900D01*
Y119300D01*
X84100D01*
Y118900D01*
X83700D01*
Y118100D01*
X84100D01*
Y122100D02*
Y121700D01*
X84900D01*
Y122100D01*
X85300D01*
Y122900D01*
X84900D01*
Y123300D01*
X84100D01*
Y122900D01*
X83700D01*
Y122100D01*
X84100D01*
Y126100D02*
Y125700D01*
X84900D01*
Y126100D01*
X85300D01*
Y126900D01*
X84900D01*
Y127300D01*
X84100D01*
Y126900D01*
X83700D01*
Y126100D01*
X84100D01*
Y130100D02*
Y129700D01*
X84900D01*
Y130100D01*
X85300D01*
Y130900D01*
X84900D01*
Y131300D01*
X84100D01*
Y130900D01*
X83700D01*
Y130100D01*
X84100D01*
Y134100D02*
Y133700D01*
X84900D01*
Y134100D01*
X85300D01*
Y134900D01*
X84900D01*
Y135300D01*
X84100D01*
Y134900D01*
X83700D01*
Y134100D01*
X84100D01*
X75100Y118100D02*
Y117700D01*
X75900D01*
Y118100D01*
X76300D01*
Y118900D01*
X75900D01*
Y119300D01*
X75100D01*
Y118900D01*
X74700D01*
Y118100D01*
X75100D01*
Y122100D02*
Y121700D01*
X75900D01*
Y122100D01*
X76300D01*
Y122900D01*
X75900D01*
Y123300D01*
X75100D01*
Y122900D01*
X74700D01*
Y122100D01*
X75100D01*
Y126100D02*
Y125700D01*
X75900D01*
Y126100D01*
X76300D01*
Y126900D01*
X75900D01*
Y127300D01*
X75100D01*
Y126900D01*
X74700D01*
Y126100D01*
X75100D01*
Y130100D02*
Y129700D01*
X75900D01*
Y130100D01*
X76300D01*
Y130900D01*
X75900D01*
Y131300D01*
X75100D01*
Y130900D01*
X74700D01*
Y130100D01*
X75100D01*
Y134100D02*
Y133700D01*
X75900D01*
Y134100D01*
X76300D01*
Y134900D01*
X75900D01*
Y135300D01*
X75100D01*
Y134900D01*
X74700D01*
Y134100D01*
X75100D01*
X23872Y126100D02*
Y125700D01*
X24672D01*
Y126100D01*
X25072D01*
Y126900D01*
X24672D01*
Y127300D01*
X23872D01*
Y126900D01*
X23472D01*
Y126100D01*
X23872D01*
Y123200D02*
Y122800D01*
X24672D01*
Y123200D01*
X25072D01*
Y124000D01*
X24672D01*
Y124400D01*
X23872D01*
Y124000D01*
X23472D01*
Y123200D01*
X23872D01*
X43100Y137100D02*
Y136700D01*
X43900D01*
Y137100D01*
X44300D01*
Y137900D01*
X43900D01*
Y138300D01*
X43100D01*
Y137900D01*
X42700D01*
Y137100D01*
X43100D01*
Y142100D02*
Y141700D01*
X43900D01*
Y142100D01*
X44300D01*
Y142900D01*
X43900D01*
Y143300D01*
X43100D01*
Y142900D01*
X42700D01*
Y142100D01*
X43100D01*
X16600Y117100D02*
Y116700D01*
X17400D01*
Y117100D01*
X17800D01*
Y117900D01*
X17400D01*
Y118300D01*
X16600D01*
Y117900D01*
X16200D01*
Y117100D01*
X16600D01*
X43100Y132100D02*
Y131700D01*
X43900D01*
Y132100D01*
X44300D01*
Y132900D01*
X43900D01*
Y133300D01*
X43100D01*
Y132900D01*
X42700D01*
Y132100D01*
X43100D01*
Y127100D02*
Y126700D01*
X43900D01*
Y127100D01*
X44300D01*
Y127900D01*
X43900D01*
Y128300D01*
X43100D01*
Y127900D01*
X42700D01*
Y127100D01*
X43100D01*
Y117100D02*
Y116700D01*
X43900D01*
Y117100D01*
X44300D01*
Y117900D01*
X43900D01*
Y118300D01*
X43100D01*
Y117900D01*
X42700D01*
Y117100D01*
X43100D01*
D136*
X349200Y14500D02*
G03*
X349200Y14500I-800J0D01*
G01*
X73350Y223000D02*
G03*
X73350Y223000I-800J0D01*
G01*
X335623Y223567D02*
G03*
X335623Y223567I-800J0D01*
G01*
X57800Y13400D02*
G03*
X57800Y13400I-800J0D01*
G01*
M02*
