G04*
G04 #@! TF.GenerationSoftware,Altium Limited,Altium Designer,19.1.9 (167)*
G04*
G04 Layer_Color=8388736*
%FSLAX25Y25*%
%MOIN*%
G70*
G01*
G75*
%ADD11C,0.00100*%
%ADD17C,0.01400*%
%ADD37R,0.07887X0.14383*%
%ADD38C,0.01800*%
%ADD39O,0.01339X0.03110*%
%ADD40O,0.03110X0.01339*%
%ADD41R,0.13398X0.13398*%
%ADD42R,0.02402X0.02902*%
%ADD43R,0.07400X0.08900*%
%ADD44O,0.07493X0.03753*%
%ADD45R,0.03900X0.04400*%
%ADD46R,0.02565X0.02565*%
%ADD47R,0.02565X0.02565*%
%ADD48R,0.02400X0.01600*%
%ADD49R,0.02178X0.04147*%
%ADD50C,0.01802*%
%ADD51O,0.03740X0.01181*%
%ADD52O,0.01181X0.03740*%
%ADD53R,0.16745X0.16745*%
%ADD54R,0.03400X0.04400*%
%ADD55R,0.06509X0.04343*%
%ADD56R,0.02902X0.02402*%
%ADD57R,0.04343X0.06509*%
%ADD58C,0.06400*%
%ADD59C,0.17900*%
%ADD60C,0.04400*%
%ADD61C,0.09400*%
%ADD62R,0.06400X0.06400*%
%ADD63C,0.06900*%
%ADD64O,0.13900X0.08400*%
%ADD65O,0.07400X0.15400*%
%ADD66O,0.07400X0.18400*%
%ADD67O,0.15400X0.07400*%
D11*
X234034Y76926D02*
Y134176D01*
X269234D01*
Y76926D02*
Y134176D01*
X234034Y76926D02*
X269234D01*
D17*
X124121Y185695D02*
D03*
Y167979D02*
D03*
X110342Y183727D02*
D03*
Y181758D02*
D03*
X106405Y162073D02*
D03*
Y164042D02*
D03*
Y166010D02*
D03*
X110342Y173884D02*
D03*
Y171916D02*
D03*
Y169947D02*
D03*
Y167979D02*
D03*
Y166010D02*
D03*
X131995Y185695D02*
D03*
X110342Y164042D02*
D03*
Y162073D02*
D03*
Y160105D02*
D03*
X108373Y185695D02*
D03*
X106405Y167979D02*
D03*
X108373Y181758D02*
D03*
X106405Y160105D02*
D03*
X116247Y164042D02*
D03*
X108373Y173884D02*
D03*
Y171916D02*
D03*
X124121Y164042D02*
D03*
X108373Y169947D02*
D03*
X124121Y177821D02*
D03*
X108373Y175853D02*
D03*
X114279D02*
D03*
X124121Y162073D02*
D03*
Y160105D02*
D03*
X122153Y185695D02*
D03*
Y183727D02*
D03*
Y181758D02*
D03*
X131995Y169947D02*
D03*
X130027Y160105D02*
D03*
X124121Y183727D02*
D03*
X128058Y160105D02*
D03*
Y162073D02*
D03*
Y164042D02*
D03*
Y166010D02*
D03*
X122153Y167979D02*
D03*
X128058D02*
D03*
X122153Y164042D02*
D03*
Y162073D02*
D03*
Y160105D02*
D03*
X128058Y169947D02*
D03*
X124121Y181758D02*
D03*
X128058Y171916D02*
D03*
Y173884D02*
D03*
Y177821D02*
D03*
Y181758D02*
D03*
Y185695D02*
D03*
X126090Y160105D02*
D03*
Y162073D02*
D03*
Y164042D02*
D03*
Y179790D02*
D03*
Y181758D02*
D03*
X131995Y183727D02*
D03*
X120184Y164042D02*
D03*
Y162073D02*
D03*
Y160105D02*
D03*
X118216Y185695D02*
D03*
Y183727D02*
D03*
Y181758D02*
D03*
X126090Y183727D02*
D03*
X118216Y177821D02*
D03*
X126090Y185695D02*
D03*
X130027Y162073D02*
D03*
X131995Y175853D02*
D03*
X130027Y164042D02*
D03*
Y166010D02*
D03*
Y167979D02*
D03*
Y169947D02*
D03*
X118216Y164042D02*
D03*
Y162073D02*
D03*
Y160105D02*
D03*
X116247Y185695D02*
D03*
Y183727D02*
D03*
Y181758D02*
D03*
X131995Y173884D02*
D03*
X116247Y177821D02*
D03*
X106405Y171916D02*
D03*
Y169947D02*
D03*
Y173884D02*
D03*
Y183727D02*
D03*
Y185695D02*
D03*
X108373Y160105D02*
D03*
Y162073D02*
D03*
Y164042D02*
D03*
X116247Y162073D02*
D03*
X131995Y171916D02*
D03*
X116247Y160105D02*
D03*
X114279Y185695D02*
D03*
Y183727D02*
D03*
Y181758D02*
D03*
X130027Y171916D02*
D03*
X108373Y167979D02*
D03*
Y166010D02*
D03*
X114279Y173884D02*
D03*
X120184Y167979D02*
D03*
Y181758D02*
D03*
X124121Y171916D02*
D03*
X114279Y167979D02*
D03*
X120184Y183727D02*
D03*
X114279Y164042D02*
D03*
Y162073D02*
D03*
Y160105D02*
D03*
X112310Y185695D02*
D03*
Y183727D02*
D03*
Y181758D02*
D03*
X120184Y185695D02*
D03*
X130027Y173884D02*
D03*
X124121Y169947D02*
D03*
X130027Y185695D02*
D03*
X131995Y160105D02*
D03*
Y162073D02*
D03*
Y164042D02*
D03*
Y166010D02*
D03*
Y167979D02*
D03*
X112310Y164042D02*
D03*
Y162073D02*
D03*
Y160105D02*
D03*
X110342Y185695D02*
D03*
X128058Y179790D02*
D03*
X108373Y177821D02*
D03*
Y183727D02*
D03*
X120184Y177821D02*
D03*
X106405Y175853D02*
D03*
Y179790D02*
D03*
X124121Y173884D02*
D03*
X118216Y167979D02*
D03*
X114279Y171916D02*
D03*
X122153Y177821D02*
D03*
X124121Y175853D02*
D03*
X128058D02*
D03*
X108373Y179790D02*
D03*
X110342D02*
D03*
X106405Y177821D02*
D03*
Y181758D02*
D03*
X116247Y167979D02*
D03*
X114279Y169947D02*
D03*
X131995Y177821D02*
D03*
X130027Y183727D02*
D03*
X110342Y177821D02*
D03*
X131995Y181758D02*
D03*
Y179790D02*
D03*
X114279Y177821D02*
D03*
X128058Y183727D02*
D03*
X110342Y175853D02*
D03*
X130027Y181758D02*
D03*
Y179790D02*
D03*
Y177821D02*
D03*
Y175853D02*
D03*
D37*
X239200Y23061D02*
D03*
Y43139D02*
D03*
D38*
X264234Y100826D02*
D03*
X257934D02*
D03*
X242184Y97676D02*
D03*
X245334Y103976D02*
D03*
Y100826D02*
D03*
Y97676D02*
D03*
Y110276D02*
D03*
X257934Y126026D02*
D03*
X261084Y91376D02*
D03*
X245334Y119726D02*
D03*
Y91376D02*
D03*
X257934Y116576D02*
D03*
Y88226D02*
D03*
X245334D02*
D03*
X242184Y91376D02*
D03*
X261084Y88226D02*
D03*
X242184D02*
D03*
X261084Y85076D02*
D03*
X242184D02*
D03*
X261084Y81926D02*
D03*
X245334Y85076D02*
D03*
X257934Y97676D02*
D03*
Y85076D02*
D03*
Y91376D02*
D03*
X245334Y81926D02*
D03*
X261084Y116576D02*
D03*
Y119726D02*
D03*
X264234Y126026D02*
D03*
Y129176D02*
D03*
X242184Y116576D02*
D03*
X239034Y119726D02*
D03*
Y126026D02*
D03*
X245334D02*
D03*
X261084Y103976D02*
D03*
Y110276D02*
D03*
X264234D02*
D03*
Y113426D02*
D03*
X242184Y103976D02*
D03*
X239034Y110276D02*
D03*
Y116576D02*
D03*
X264234Y81926D02*
D03*
Y88226D02*
D03*
Y94526D02*
D03*
X239034Y81926D02*
D03*
Y88226D02*
D03*
Y94526D02*
D03*
Y100826D02*
D03*
X257934Y103976D02*
D03*
X242184Y94526D02*
D03*
X245334D02*
D03*
Y113426D02*
D03*
X257934Y122876D02*
D03*
X245334Y107126D02*
D03*
X257934D02*
D03*
X242184Y110276D02*
D03*
X261084Y107126D02*
D03*
X257934Y113426D02*
D03*
X242184D02*
D03*
X261084D02*
D03*
X245334Y116576D02*
D03*
X261084Y126026D02*
D03*
X242184Y122876D02*
D03*
X261084D02*
D03*
X245334D02*
D03*
Y129176D02*
D03*
X257934D02*
D03*
Y119726D02*
D03*
X242184Y129176D02*
D03*
Y81926D02*
D03*
X264234Y97676D02*
D03*
X239034D02*
D03*
X264234Y103976D02*
D03*
X239034D02*
D03*
X257934Y81926D02*
D03*
X261084Y97676D02*
D03*
Y129176D02*
D03*
X264234Y122876D02*
D03*
Y116576D02*
D03*
Y119726D02*
D03*
X239034Y122876D02*
D03*
Y129176D02*
D03*
X242184Y119726D02*
D03*
Y126026D02*
D03*
X264234Y107126D02*
D03*
X261084Y100826D02*
D03*
X257934Y110276D02*
D03*
X239034Y113426D02*
D03*
X242184Y100826D02*
D03*
Y107126D02*
D03*
X264234Y85076D02*
D03*
Y91376D02*
D03*
X239034Y85076D02*
D03*
Y91376D02*
D03*
Y107126D02*
D03*
X261084Y94526D02*
D03*
X257934D02*
D03*
D39*
X92110Y121169D02*
D03*
X94079D02*
D03*
X96047D02*
D03*
X98016D02*
D03*
X99984D02*
D03*
X101953D02*
D03*
X103921D02*
D03*
X105890D02*
D03*
Y139831D02*
D03*
X103921D02*
D03*
X101953D02*
D03*
X99984D02*
D03*
X98016D02*
D03*
X96047D02*
D03*
X94079D02*
D03*
X92110D02*
D03*
D40*
X108331Y123610D02*
D03*
Y125579D02*
D03*
Y127547D02*
D03*
Y129516D02*
D03*
Y131484D02*
D03*
Y133453D02*
D03*
Y135421D02*
D03*
Y137390D02*
D03*
X89669D02*
D03*
Y135421D02*
D03*
Y133453D02*
D03*
Y131484D02*
D03*
Y129516D02*
D03*
Y127547D02*
D03*
Y125579D02*
D03*
Y123610D02*
D03*
D41*
X99000Y130500D02*
D03*
D42*
X272700Y194646D02*
D03*
Y191181D02*
D03*
X205771Y194646D02*
D03*
Y191181D02*
D03*
X344600Y159132D02*
D03*
Y155668D02*
D03*
X188500Y12432D02*
D03*
Y8968D02*
D03*
X109500Y91768D02*
D03*
Y95232D02*
D03*
X179134Y76568D02*
D03*
Y80032D02*
D03*
X167323Y76567D02*
D03*
Y80032D02*
D03*
X175259Y76568D02*
D03*
Y80032D02*
D03*
X171260Y76568D02*
D03*
Y80032D02*
D03*
X136500Y39268D02*
D03*
Y42732D02*
D03*
X287323Y170835D02*
D03*
Y174300D02*
D03*
D43*
X91536Y109831D02*
D03*
X106496D02*
D03*
D44*
X207723Y51873D02*
D03*
Y73527D02*
D03*
X198077Y51873D02*
D03*
Y73527D02*
D03*
D45*
X283529Y202550D02*
D03*
X299671D02*
D03*
Y208850D02*
D03*
X283529D02*
D03*
X38779Y220472D02*
D03*
X54921D02*
D03*
Y226772D02*
D03*
X38779D02*
D03*
Y195275D02*
D03*
X54921D02*
D03*
Y201575D02*
D03*
X38779D02*
D03*
D46*
X328300Y177928D02*
D03*
Y181472D02*
D03*
X340737Y174228D02*
D03*
Y177772D02*
D03*
X337000Y140372D02*
D03*
Y136828D02*
D03*
X340737Y140372D02*
D03*
Y136828D02*
D03*
X344400Y140372D02*
D03*
Y136828D02*
D03*
X344800Y174228D02*
D03*
Y177772D02*
D03*
X336600Y174228D02*
D03*
Y177772D02*
D03*
X268763Y194685D02*
D03*
Y191142D02*
D03*
X264826Y194685D02*
D03*
Y191142D02*
D03*
X260889Y194685D02*
D03*
Y191142D02*
D03*
X256952Y194685D02*
D03*
Y191142D02*
D03*
X253015Y194685D02*
D03*
Y191142D02*
D03*
X249078Y194685D02*
D03*
Y191142D02*
D03*
X245141Y194685D02*
D03*
Y191142D02*
D03*
X241204Y194685D02*
D03*
Y191142D02*
D03*
X237267Y194685D02*
D03*
Y191142D02*
D03*
X233330Y194685D02*
D03*
Y191142D02*
D03*
X229393Y194685D02*
D03*
Y191142D02*
D03*
X217582Y194685D02*
D03*
Y191142D02*
D03*
X225456Y194685D02*
D03*
Y191142D02*
D03*
X221519Y194685D02*
D03*
Y191142D02*
D03*
X209708Y194685D02*
D03*
Y191142D02*
D03*
X213645Y194685D02*
D03*
Y191142D02*
D03*
X276637Y191142D02*
D03*
Y194685D02*
D03*
X146500Y79772D02*
D03*
Y76228D02*
D03*
X183800Y53228D02*
D03*
Y56772D02*
D03*
X146500Y39228D02*
D03*
Y42772D02*
D03*
Y67772D02*
D03*
Y64228D02*
D03*
Y57272D02*
D03*
Y53728D02*
D03*
X106000Y95272D02*
D03*
Y91728D02*
D03*
X102500Y95272D02*
D03*
Y91728D02*
D03*
D47*
X123472Y136700D02*
D03*
X119928D02*
D03*
X123472Y110800D02*
D03*
X119928D02*
D03*
X123472Y133000D02*
D03*
X119928D02*
D03*
X123472Y129300D02*
D03*
X119928D02*
D03*
X123472Y125600D02*
D03*
X119928D02*
D03*
X123472Y121900D02*
D03*
X119928D02*
D03*
X123472Y118200D02*
D03*
X119928D02*
D03*
X123472Y114500D02*
D03*
X119928D02*
D03*
X119928Y140400D02*
D03*
X123472D02*
D03*
X134628Y117500D02*
D03*
X138172D02*
D03*
X178972Y83500D02*
D03*
X175428D02*
D03*
X34772Y75500D02*
D03*
X31228D02*
D03*
X43228D02*
D03*
X46772D02*
D03*
X60728Y70500D02*
D03*
X64272D02*
D03*
X43228D02*
D03*
X46772D02*
D03*
X43228Y80500D02*
D03*
X46772D02*
D03*
D48*
X64544Y182064D02*
D03*
Y186000D02*
D03*
Y184032D02*
D03*
X68000D02*
D03*
Y182064D02*
D03*
Y186000D02*
D03*
D49*
X153541Y180431D02*
D03*
X158659D02*
D03*
Y171769D02*
D03*
X156100D02*
D03*
X153541D02*
D03*
D50*
X208405Y96280D02*
D03*
X205256D02*
D03*
X202106D02*
D03*
X198957D02*
D03*
X195807D02*
D03*
X192657D02*
D03*
X189508D02*
D03*
X186358Y96280D02*
D03*
X183209Y96280D02*
D03*
X180059D02*
D03*
X176909D02*
D03*
X173760D02*
D03*
X170610D02*
D03*
X167461Y96280D02*
D03*
X164311D02*
D03*
X161161Y96280D02*
D03*
X158012D02*
D03*
X154862D02*
D03*
X208405Y99429D02*
D03*
X205256D02*
D03*
X202106D02*
D03*
X198957D02*
D03*
X195807D02*
D03*
X192657D02*
D03*
X189508D02*
D03*
X186358D02*
D03*
X183209D02*
D03*
X180059D02*
D03*
X176909D02*
D03*
X173760D02*
D03*
X170610D02*
D03*
X167461D02*
D03*
X164311D02*
D03*
X161161D02*
D03*
X158012D02*
D03*
X154862D02*
D03*
X208405Y102579D02*
D03*
X205256D02*
D03*
X202106D02*
D03*
X198957D02*
D03*
X195807D02*
D03*
X192657D02*
D03*
X189508D02*
D03*
X186358D02*
D03*
X183209D02*
D03*
X180059D02*
D03*
X176909D02*
D03*
X173760D02*
D03*
X170610D02*
D03*
X167461D02*
D03*
X164311D02*
D03*
X161161D02*
D03*
X158012D02*
D03*
X154862D02*
D03*
X208405Y105728D02*
D03*
X205256D02*
D03*
X202106D02*
D03*
X198957D02*
D03*
X195807D02*
D03*
X192657D02*
D03*
X189508D02*
D03*
X186358D02*
D03*
X183209D02*
D03*
X180059D02*
D03*
X176909Y105728D02*
D03*
X173760D02*
D03*
X170610Y105728D02*
D03*
X167461D02*
D03*
X164311D02*
D03*
X161161D02*
D03*
X158012Y105728D02*
D03*
X154862D02*
D03*
X208405Y108878D02*
D03*
X205256D02*
D03*
X202106D02*
D03*
X198957D02*
D03*
X195807D02*
D03*
X192657D02*
D03*
X189508D02*
D03*
X186358D02*
D03*
X183209D02*
D03*
X180059D02*
D03*
X176909Y108878D02*
D03*
X173760Y108878D02*
D03*
X170610D02*
D03*
X167461D02*
D03*
X164311D02*
D03*
X161161D02*
D03*
X158012D02*
D03*
X154862Y108878D02*
D03*
X208405Y112028D02*
D03*
X205256D02*
D03*
X202106D02*
D03*
X198957D02*
D03*
X195807D02*
D03*
X192657D02*
D03*
X189508D02*
D03*
X186358D02*
D03*
X183209D02*
D03*
X180059D02*
D03*
X176909D02*
D03*
X173760D02*
D03*
X170610D02*
D03*
X167461D02*
D03*
X164311D02*
D03*
X161161D02*
D03*
X158012D02*
D03*
X154862D02*
D03*
X208405Y115177D02*
D03*
X205256D02*
D03*
X202106D02*
D03*
X198957D02*
D03*
X195807D02*
D03*
X192657D02*
D03*
X189508D02*
D03*
X186358Y115177D02*
D03*
X183209D02*
D03*
X180059Y115177D02*
D03*
X176909D02*
D03*
X173760D02*
D03*
X170610D02*
D03*
X167461Y115177D02*
D03*
X164311D02*
D03*
X161161Y115177D02*
D03*
X158012D02*
D03*
X154862D02*
D03*
X208405Y118327D02*
D03*
X205256D02*
D03*
X202106D02*
D03*
X198957D02*
D03*
X195807D02*
D03*
X192657D02*
D03*
X189508D02*
D03*
X186358D02*
D03*
X183209D02*
D03*
X180059D02*
D03*
X176909D02*
D03*
X173760D02*
D03*
X170610D02*
D03*
X167461D02*
D03*
X164311D02*
D03*
X161161D02*
D03*
X158012D02*
D03*
X154862D02*
D03*
X208405Y121476D02*
D03*
X205256D02*
D03*
X202106D02*
D03*
X198957D02*
D03*
X195807D02*
D03*
X192657D02*
D03*
X189508D02*
D03*
X186358D02*
D03*
X183209D02*
D03*
X180059D02*
D03*
X176909D02*
D03*
X173760D02*
D03*
X170610D02*
D03*
X167461D02*
D03*
X164311D02*
D03*
X161161D02*
D03*
X158012D02*
D03*
X154862D02*
D03*
X208405Y124626D02*
D03*
X205256D02*
D03*
X202106D02*
D03*
X198957D02*
D03*
X195807D02*
D03*
X192657D02*
D03*
X189508D02*
D03*
X186358D02*
D03*
X183209D02*
D03*
X180059D02*
D03*
X176909D02*
D03*
X173760D02*
D03*
X170610D02*
D03*
X167461D02*
D03*
X164311D02*
D03*
X161161D02*
D03*
X158012D02*
D03*
X154862D02*
D03*
X208405Y127776D02*
D03*
X205256D02*
D03*
X202106D02*
D03*
X198957D02*
D03*
X195807D02*
D03*
X192657D02*
D03*
X189508D02*
D03*
X186358D02*
D03*
X183209D02*
D03*
X180059D02*
D03*
X176909D02*
D03*
X173760D02*
D03*
X170610D02*
D03*
X167461D02*
D03*
X164311D02*
D03*
X161161D02*
D03*
X158012D02*
D03*
X154862D02*
D03*
X208405Y130925D02*
D03*
X205256D02*
D03*
X202106D02*
D03*
X198957D02*
D03*
X195807D02*
D03*
X192657D02*
D03*
X189508D02*
D03*
X186358D02*
D03*
X183209D02*
D03*
X180059D02*
D03*
X176909D02*
D03*
X173760D02*
D03*
X170610D02*
D03*
X167461D02*
D03*
X164311D02*
D03*
X161161D02*
D03*
X158012D02*
D03*
X154862D02*
D03*
X208405Y134075D02*
D03*
X205256D02*
D03*
X202106D02*
D03*
X198957D02*
D03*
X195807D02*
D03*
X192657D02*
D03*
X189508D02*
D03*
X186358D02*
D03*
X183209D02*
D03*
X180059D02*
D03*
X176909D02*
D03*
X173760D02*
D03*
X170610D02*
D03*
X167461D02*
D03*
X164311D02*
D03*
X161161D02*
D03*
X158012D02*
D03*
X154862D02*
D03*
X208405Y137224D02*
D03*
X205256D02*
D03*
X202106D02*
D03*
X198957D02*
D03*
X195807D02*
D03*
X192657D02*
D03*
X189508D02*
D03*
X186358D02*
D03*
X183209D02*
D03*
X180059D02*
D03*
X176909D02*
D03*
X173760D02*
D03*
X170610D02*
D03*
X167461D02*
D03*
X164311D02*
D03*
X161161D02*
D03*
X158012D02*
D03*
X154862D02*
D03*
X208405Y140374D02*
D03*
X205256D02*
D03*
X202106D02*
D03*
X198957D02*
D03*
X195807D02*
D03*
X192657D02*
D03*
X189508D02*
D03*
X186358D02*
D03*
X183209D02*
D03*
X180059D02*
D03*
X176909D02*
D03*
X173760D02*
D03*
X170610D02*
D03*
X167461D02*
D03*
X164311D02*
D03*
X161161D02*
D03*
X158012D02*
D03*
X154862D02*
D03*
X208405Y143524D02*
D03*
X205256D02*
D03*
X202106D02*
D03*
X198957D02*
D03*
X195807D02*
D03*
X192657D02*
D03*
X189508D02*
D03*
X186358D02*
D03*
X183209D02*
D03*
X180059D02*
D03*
X176909Y143524D02*
D03*
X173760D02*
D03*
X170610Y143524D02*
D03*
X167461D02*
D03*
X164311D02*
D03*
X161161D02*
D03*
X158012Y143524D02*
D03*
X154862D02*
D03*
X208405Y146673D02*
D03*
X205256D02*
D03*
X202106D02*
D03*
X198957D02*
D03*
X195807D02*
D03*
X192657Y146673D02*
D03*
X189508Y146673D02*
D03*
X186358D02*
D03*
X183209D02*
D03*
X180059D02*
D03*
X176909Y146673D02*
D03*
X173760D02*
D03*
X170610D02*
D03*
X167461Y146673D02*
D03*
X164311D02*
D03*
X161161Y146673D02*
D03*
X158012D02*
D03*
X154862D02*
D03*
X208405Y149823D02*
D03*
X205256D02*
D03*
X202106D02*
D03*
X198957D02*
D03*
X195807D02*
D03*
X192657D02*
D03*
X189508D02*
D03*
X186358D02*
D03*
X183209D02*
D03*
X180059D02*
D03*
X176909D02*
D03*
X173760D02*
D03*
X170610D02*
D03*
X167461D02*
D03*
X164311D02*
D03*
X161161D02*
D03*
X158012D02*
D03*
X154862D02*
D03*
D51*
X79287Y76661D02*
D03*
Y75087D02*
D03*
Y73512D02*
D03*
Y71937D02*
D03*
Y70362D02*
D03*
Y68787D02*
D03*
Y67213D02*
D03*
Y65638D02*
D03*
Y64063D02*
D03*
Y62488D02*
D03*
Y60913D02*
D03*
Y59339D02*
D03*
X102713D02*
D03*
Y60913D02*
D03*
Y62488D02*
D03*
Y64063D02*
D03*
Y65638D02*
D03*
Y67213D02*
D03*
Y68787D02*
D03*
Y70362D02*
D03*
Y71937D02*
D03*
Y73512D02*
D03*
Y75087D02*
D03*
Y76661D02*
D03*
D52*
X82339Y56287D02*
D03*
X83913D02*
D03*
X85488D02*
D03*
X87063D02*
D03*
X88638D02*
D03*
X90213D02*
D03*
X91787D02*
D03*
X93362D02*
D03*
X94937D02*
D03*
X96512D02*
D03*
X98087D02*
D03*
X99661D02*
D03*
Y79713D02*
D03*
X98087D02*
D03*
X96512D02*
D03*
X94937D02*
D03*
X93362D02*
D03*
X91787D02*
D03*
X90213D02*
D03*
X88638D02*
D03*
X87063D02*
D03*
X85488D02*
D03*
X83913D02*
D03*
X82339D02*
D03*
D53*
X91000Y68000D02*
D03*
D54*
X14250Y70500D02*
D03*
X20750D02*
D03*
D55*
X336737Y161182D02*
D03*
Y153111D02*
D03*
X124000Y62965D02*
D03*
Y71035D02*
D03*
X219600Y66935D02*
D03*
Y58865D02*
D03*
X114000Y62965D02*
D03*
Y71035D02*
D03*
X54500Y79535D02*
D03*
Y71465D02*
D03*
D56*
X60768Y77000D02*
D03*
X64232D02*
D03*
X31268Y80500D02*
D03*
X34732D02*
D03*
X64232D02*
D03*
X60768D02*
D03*
X60768Y84000D02*
D03*
X64232D02*
D03*
D57*
X104035Y43000D02*
D03*
X95965D02*
D03*
X80965D02*
D03*
X89035D02*
D03*
D58*
X6500Y85000D02*
D03*
X162800Y12100D02*
D03*
X257505Y22217D02*
D03*
X69000Y51000D02*
D03*
X59000Y41000D02*
D03*
Y51000D02*
D03*
X69000Y41000D02*
D03*
X151800Y12200D02*
D03*
X57250Y112500D02*
D03*
X67250Y107500D02*
D03*
Y137500D02*
D03*
X57250Y132500D02*
D03*
X67250Y117500D02*
D03*
X12950Y149900D02*
D03*
X18950Y139900D02*
D03*
Y100100D02*
D03*
X12950Y110100D02*
D03*
X67250Y127500D02*
D03*
X57250Y122500D02*
D03*
X188600Y36700D02*
D03*
X218600D02*
D03*
X178600D02*
D03*
X208600D02*
D03*
X198600D02*
D03*
D59*
X348400Y14500D02*
D03*
X72550Y223000D02*
D03*
X334823Y223567D02*
D03*
X57000Y13400D02*
D03*
D60*
X32250Y102500D02*
D03*
Y147500D02*
D03*
D61*
X44250Y156000D02*
D03*
Y94000D02*
D03*
D62*
X57250Y142500D02*
D03*
X168600Y36700D02*
D03*
D63*
X302753Y108417D02*
D03*
Y98577D02*
D03*
Y90697D02*
D03*
Y80857D02*
D03*
Y45617D02*
D03*
Y35777D02*
D03*
Y27897D02*
D03*
Y18057D02*
D03*
D64*
X313423Y120507D02*
D03*
Y68767D02*
D03*
Y57707D02*
D03*
Y5967D02*
D03*
D65*
X20000Y46000D02*
D03*
D66*
X43600D02*
D03*
D67*
X31800Y27500D02*
D03*
M02*
