G04*
G04 #@! TF.GenerationSoftware,Altium Limited,Altium Designer,19.1.9 (167)*
G04*
G04 Layer_Color=65535*
%FSLAX25Y25*%
%MOIN*%
G70*
G01*
G75*
%ADD10C,0.00984*%
%ADD11C,0.00100*%
%ADD12C,0.00787*%
%ADD13C,0.00200*%
%ADD14C,0.01000*%
%ADD15C,0.00300*%
G36*
X144791Y191601D02*
X140854Y195538D01*
X144791D01*
Y191601D01*
D02*
G37*
G36*
X154138Y152579D02*
X152106Y150547D01*
Y152579D01*
X154138D01*
D02*
G37*
G36*
X236673Y131141D02*
X233917Y128385D01*
X233917Y131141D01*
X236673Y131141D01*
D02*
G37*
D10*
X89453Y117311D02*
G03*
X89453Y117311I-492J0D01*
G01*
X144692Y198097D02*
G03*
X144692Y198097I-492J0D01*
G01*
X203392Y80023D02*
G03*
X203392Y80023I-492J0D01*
G01*
X151179Y171769D02*
G03*
X151179Y171769I-492J0D01*
G01*
X150039Y151988D02*
G03*
X150039Y151988I-492J0D01*
G01*
X76236Y80106D02*
G03*
X76236Y80106I-492J0D01*
G01*
D11*
X11500Y85000D02*
G03*
X11500Y85000I-5000J0D01*
G01*
X10100D02*
G03*
X10100Y85000I-3600J0D01*
G01*
X74000Y51000D02*
G03*
X74000Y51000I-5000J0D01*
G01*
X72600D02*
G03*
X72600Y51000I-3600J0D01*
G01*
X64000Y41000D02*
G03*
X64000Y41000I-5000J0D01*
G01*
X62600D02*
G03*
X62600Y41000I-3600J0D01*
G01*
X64000Y51000D02*
G03*
X64000Y51000I-5000J0D01*
G01*
X62600D02*
G03*
X62600Y51000I-3600J0D01*
G01*
X74000Y41000D02*
G03*
X74000Y41000I-5000J0D01*
G01*
X72600D02*
G03*
X72600Y41000I-3600J0D01*
G01*
X156800Y12200D02*
G03*
X156800Y12200I-5000J0D01*
G01*
X155400D02*
G03*
X155400Y12200I-3600J0D01*
G01*
X87205Y102941D02*
X110827D01*
Y116721D01*
X87205D02*
X110827D01*
X87205Y102941D02*
Y116721D01*
X280773Y211606D02*
X302427D01*
X280773Y199794D02*
Y211606D01*
Y199794D02*
X302427D01*
Y211606D01*
X36023Y229528D02*
X57677D01*
X36023Y217716D02*
Y229528D01*
Y217716D02*
X57677D01*
Y229528D01*
X36023Y204331D02*
X57677D01*
X36023Y192519D02*
Y204331D01*
Y192519D02*
X57677D01*
Y204331D01*
X-10550Y156300D02*
X75450D01*
Y93700D02*
Y156300D01*
X-10550Y93700D02*
X75450D01*
X-10550D02*
Y156300D01*
X298773Y68767D02*
X353893D01*
Y120347D01*
X298773D02*
X353893D01*
X298773Y68767D02*
Y120347D01*
Y5967D02*
X353893D01*
Y57547D01*
X298773D02*
X353893D01*
X298773Y5967D02*
Y57547D01*
X163600Y31700D02*
Y41700D01*
Y31700D02*
X223600D01*
Y41700D01*
X163600D02*
X223600D01*
X40600Y28000D02*
X47100D01*
Y37500D01*
X-10400Y28000D02*
X23100D01*
X-10400D02*
Y64000D01*
X47100D01*
Y54500D02*
Y64000D01*
X68339Y181079D02*
Y186985D01*
X64205Y181079D02*
X68339D01*
X64205D02*
Y186985D01*
X68339D01*
X11500Y67000D02*
X23500D01*
Y74000D01*
X11500D02*
X23500D01*
X11500Y67000D02*
Y74000D01*
X10500Y67000D02*
X11500D01*
Y74000D01*
X10500D02*
X11500D01*
X10500Y67000D02*
Y74000D01*
X234034Y76926D02*
Y134176D01*
X269234D01*
Y76926D02*
Y134176D01*
X234034Y76926D02*
X269234D01*
D12*
X230735Y19714D02*
X234476D01*
X225814Y24635D02*
X230735Y19714D01*
X247665D02*
X252586Y24635D01*
X243924Y19714D02*
X247665D01*
X225814Y24635D02*
Y46486D01*
X234476D01*
X243924D02*
X252586D01*
Y24635D02*
Y46486D01*
X233934Y79951D02*
Y131151D01*
Y79951D02*
X269334D01*
Y131151D01*
X233934D02*
X269334D01*
X140854Y195538D02*
X144791Y191601D01*
X93609Y195538D02*
X144791D01*
X93609Y150262D02*
X144791D01*
Y195538D01*
X93609Y150262D02*
Y195538D01*
X195420Y46952D02*
X210380D01*
X195420Y78448D02*
X210380D01*
Y46952D02*
Y78448D01*
X195420Y46952D02*
Y78448D01*
X151769Y177281D02*
X160431D01*
X151769Y174919D02*
X160431D01*
Y177281D01*
X151769Y174919D02*
Y177281D01*
X152106Y150547D02*
X154138Y152579D01*
X152106Y93524D02*
Y152579D01*
X211161Y93524D02*
Y152579D01*
X152106D02*
X211161D01*
X152106Y93524D02*
X211161D01*
X78303Y78630D02*
Y80697D01*
X80370D01*
X101630D02*
X103697D01*
Y78630D02*
Y80697D01*
Y55303D02*
Y57370D01*
X101630Y55303D02*
X103697D01*
X78303D02*
Y57370D01*
Y55303D02*
X80370D01*
X339197Y156359D02*
Y157934D01*
X334276Y156359D02*
Y157934D01*
X121539Y66213D02*
Y67787D01*
X126461Y66213D02*
Y67787D01*
X222061Y62113D02*
Y63687D01*
X217139Y62113D02*
Y63687D01*
X111539Y66213D02*
Y67787D01*
X116461Y66213D02*
Y67787D01*
X99213Y40539D02*
X100787D01*
X99213Y45461D02*
X100787D01*
X84213D02*
X85787D01*
X84213Y40539D02*
X85787D01*
X56961Y74713D02*
Y76287D01*
X52039Y74713D02*
Y76287D01*
D13*
X57250Y150266D02*
X57517Y150399D01*
X57916Y150799D01*
Y148000D01*
D14*
X226799Y62098D02*
X225799Y63098D01*
X223800D01*
X222800Y62098D01*
Y58100D01*
X223800Y57100D01*
X225799D01*
X226799Y58100D01*
X228798Y57100D02*
X230797D01*
X229798D01*
Y63098D01*
X228798Y62098D01*
X237795Y57100D02*
X233796D01*
X237795Y61099D01*
Y62098D01*
X236795Y63098D01*
X234796D01*
X233796Y62098D01*
X242793Y57100D02*
Y63098D01*
X239794Y60099D01*
X243793D01*
D15*
X339600Y172700D02*
X341899D01*
Y171550D01*
X341516Y171167D01*
X340750D01*
X340366Y171550D01*
Y172700D01*
Y171934D02*
X339600Y171167D01*
Y170401D02*
Y169634D01*
Y170018D01*
X341899D01*
X341516Y170401D01*
X339600Y166952D02*
Y168485D01*
X341133Y166952D01*
X341516D01*
X341899Y167335D01*
Y168102D01*
X341516Y168485D01*
X341899Y166185D02*
Y164653D01*
X341516D01*
X339983Y166185D01*
X339600D01*
X335400Y172700D02*
X337699D01*
Y171550D01*
X337316Y171167D01*
X336550D01*
X336166Y171550D01*
Y172700D01*
Y171934D02*
X335400Y171167D01*
Y170401D02*
Y169634D01*
Y170018D01*
X337699D01*
X337316Y170401D01*
X335400Y166952D02*
Y168485D01*
X336933Y166952D01*
X337316D01*
X337699Y167335D01*
Y168102D01*
X337316Y168485D01*
X335400Y164653D02*
Y166185D01*
X336933Y164653D01*
X337316D01*
X337699Y165036D01*
Y165802D01*
X337316Y166185D01*
X147000Y21899D02*
X148533D01*
X147766D01*
Y19600D01*
X149299D02*
Y21899D01*
X150449D01*
X150832Y21516D01*
Y20750D01*
X150449Y20366D01*
X149299D01*
X151599Y19600D02*
X152365D01*
X151982D01*
Y21899D01*
X151599Y21516D01*
X144900Y83900D02*
Y86199D01*
X146050D01*
X146433Y85816D01*
Y85050D01*
X146050Y84666D01*
X144900D01*
X145666D02*
X146433Y83900D01*
X147199Y85816D02*
X147582Y86199D01*
X148349D01*
X148732Y85816D01*
Y85433D01*
X148349Y85050D01*
X147966D01*
X148349D01*
X148732Y84666D01*
Y84283D01*
X148349Y83900D01*
X147582D01*
X147199Y84283D01*
X150648Y83900D02*
Y86199D01*
X149498Y85050D01*
X151031D01*
X150700Y63000D02*
X148401D01*
Y64150D01*
X148784Y64533D01*
X149550D01*
X149934Y64150D01*
Y63000D01*
Y63766D02*
X150700Y64533D01*
Y66832D02*
Y65299D01*
X149167Y66832D01*
X148784D01*
X148401Y66449D01*
Y65683D01*
X148784Y65299D01*
X150700Y67598D02*
Y68365D01*
Y67982D01*
X148401D01*
X148784Y67598D01*
X188233Y18716D02*
X187850Y19099D01*
X187083D01*
X186700Y18716D01*
Y17183D01*
X187083Y16800D01*
X187850D01*
X188233Y17183D01*
X188999Y16800D02*
X189766D01*
X189383D01*
Y19099D01*
X188999Y18716D01*
X190915D02*
X191298Y19099D01*
X192065D01*
X192448Y18716D01*
Y17183D01*
X192065Y16800D01*
X191298D01*
X190915Y17183D01*
Y18716D01*
X194364Y16800D02*
Y19099D01*
X193215Y17950D01*
X194747D01*
X326200Y234800D02*
Y237099D01*
X326966Y236333D01*
X327733Y237099D01*
Y234800D01*
X330032D02*
X328499D01*
X330032Y236333D01*
Y236716D01*
X329649Y237099D01*
X328883D01*
X328499Y236716D01*
X283911Y171474D02*
X283527Y171091D01*
Y170324D01*
X283911Y169941D01*
X285444D01*
X285827Y170324D01*
Y171091D01*
X285444Y171474D01*
X285827Y172240D02*
Y173007D01*
Y172623D01*
X283527D01*
X283911Y172240D01*
Y174156D02*
X283527Y174539D01*
Y175306D01*
X283911Y175689D01*
X284294D01*
X284677Y175306D01*
X285060Y175689D01*
X285444D01*
X285827Y175306D01*
Y174539D01*
X285444Y174156D01*
X285060D01*
X284677Y174539D01*
X284294Y174156D01*
X283911D01*
X284677Y174539D02*
Y175306D01*
X170584Y70233D02*
X170201Y69850D01*
Y69083D01*
X170584Y68700D01*
X172117D01*
X172500Y69083D01*
Y69850D01*
X172117Y70233D01*
X172500Y72532D02*
Y70999D01*
X170967Y72532D01*
X170584D01*
X170201Y72149D01*
Y71382D01*
X170584Y70999D01*
X172117Y73299D02*
X172500Y73682D01*
Y74448D01*
X172117Y74831D01*
X170584D01*
X170201Y74448D01*
Y73682D01*
X170584Y73299D01*
X170967D01*
X171350Y73682D01*
Y74831D01*
X174484Y70233D02*
X174101Y69850D01*
Y69083D01*
X174484Y68700D01*
X176017D01*
X176400Y69083D01*
Y69850D01*
X176017Y70233D01*
X174484Y70999D02*
X174101Y71382D01*
Y72149D01*
X174484Y72532D01*
X174867D01*
X175250Y72149D01*
Y71766D01*
Y72149D01*
X175634Y72532D01*
X176017D01*
X176400Y72149D01*
Y71382D01*
X176017Y70999D01*
X174484Y73299D02*
X174101Y73682D01*
Y74448D01*
X174484Y74831D01*
X176017D01*
X176400Y74448D01*
Y73682D01*
X176017Y73299D01*
X174484D01*
X163884Y76833D02*
X163501Y76450D01*
Y75683D01*
X163884Y75300D01*
X165417D01*
X165800Y75683D01*
Y76450D01*
X165417Y76833D01*
X163884Y77599D02*
X163501Y77982D01*
Y78749D01*
X163884Y79132D01*
X164267D01*
X164650Y78749D01*
Y78366D01*
Y78749D01*
X165034Y79132D01*
X165417D01*
X165800Y78749D01*
Y77982D01*
X165417Y77599D01*
X165800Y79899D02*
Y80665D01*
Y80282D01*
X163501D01*
X163884Y79899D01*
X218033Y55916D02*
X217650Y56299D01*
X216883D01*
X216500Y55916D01*
Y54383D01*
X216883Y54000D01*
X217650D01*
X218033Y54383D01*
X220332Y56299D02*
X218799D01*
Y55150D01*
X219566Y55533D01*
X219949D01*
X220332Y55150D01*
Y54383D01*
X219949Y54000D01*
X219182D01*
X218799Y54383D01*
X221098Y55916D02*
X221482Y56299D01*
X222248D01*
X222631Y55916D01*
Y55533D01*
X222248Y55150D01*
X222631Y54766D01*
Y54383D01*
X222248Y54000D01*
X221482D01*
X221098Y54383D01*
Y54766D01*
X221482Y55150D01*
X221098Y55533D01*
Y55916D01*
X221482Y55150D02*
X222248D01*
X272359Y183816D02*
X271975Y183433D01*
Y182667D01*
X272359Y182283D01*
X273892D01*
X274275Y182667D01*
Y183433D01*
X273892Y183816D01*
X271975Y186116D02*
X272359Y185349D01*
X273125Y184583D01*
X273892D01*
X274275Y184966D01*
Y185732D01*
X273892Y186116D01*
X273508D01*
X273125Y185732D01*
Y184583D01*
X272359Y186882D02*
X271975Y187265D01*
Y188032D01*
X272359Y188415D01*
X272742D01*
X273125Y188032D01*
Y187648D01*
Y188032D01*
X273508Y188415D01*
X273892D01*
X274275Y188032D01*
Y187265D01*
X273892Y186882D01*
X181084Y76833D02*
X180701Y76450D01*
Y75683D01*
X181084Y75300D01*
X182617D01*
X183000Y75683D01*
Y76450D01*
X182617Y76833D01*
Y77599D02*
X183000Y77982D01*
Y78749D01*
X182617Y79132D01*
X181084D01*
X180701Y78749D01*
Y77982D01*
X181084Y77599D01*
X181467D01*
X181850Y77982D01*
Y79132D01*
X183000Y81431D02*
Y79899D01*
X181467Y81431D01*
X181084D01*
X180701Y81048D01*
Y80282D01*
X181084Y79899D01*
X330784Y154833D02*
X330401Y154450D01*
Y153683D01*
X330784Y153300D01*
X332317D01*
X332700Y153683D01*
Y154450D01*
X332317Y154833D01*
X332700Y155599D02*
Y156366D01*
Y155982D01*
X330401D01*
X330784Y155599D01*
X332700Y158665D02*
X330401D01*
X331550Y157515D01*
Y159048D01*
X332700Y160964D02*
X330401D01*
X331550Y159815D01*
Y161347D01*
X348216Y159867D02*
X348599Y160250D01*
Y161017D01*
X348216Y161400D01*
X346683D01*
X346300Y161017D01*
Y160250D01*
X346683Y159867D01*
X346300Y159101D02*
Y158334D01*
Y158718D01*
X348599D01*
X348216Y159101D01*
X346300Y156035D02*
X348599D01*
X347450Y157185D01*
Y155652D01*
X348599Y153353D02*
Y154885D01*
X347450D01*
X347833Y154119D01*
Y153736D01*
X347450Y153353D01*
X346683D01*
X346300Y153736D01*
Y154502D01*
X346683Y154885D01*
X150000Y187899D02*
X150766D01*
X150383D01*
Y185600D01*
X150000D01*
X150766D01*
X153449Y187516D02*
X153066Y187899D01*
X152299D01*
X151916Y187516D01*
Y185983D01*
X152299Y185600D01*
X153066D01*
X153449Y185983D01*
X155365Y185600D02*
Y187899D01*
X154215Y186750D01*
X155748D01*
X48344Y24683D02*
Y26982D01*
X49111Y26215D01*
X49877Y26982D01*
Y24683D01*
X50644D02*
X51410D01*
X51027D01*
Y26982D01*
X50644Y26599D01*
X174500Y85200D02*
Y87499D01*
X175650D01*
X176033Y87116D01*
Y86350D01*
X175650Y85966D01*
X174500D01*
X175266D02*
X176033Y85200D01*
X178332D02*
X176799D01*
X178332Y86733D01*
Y87116D01*
X177949Y87499D01*
X177182D01*
X176799Y87116D01*
X179098Y87499D02*
X180631D01*
Y87116D01*
X179098Y85583D01*
Y85200D01*
X140000Y116400D02*
Y118699D01*
X141150D01*
X141533Y118316D01*
Y117550D01*
X141150Y117166D01*
X140000D01*
X140766D02*
X141533Y116400D01*
X143832D02*
X142299D01*
X143832Y117933D01*
Y118316D01*
X143449Y118699D01*
X142683D01*
X142299Y118316D01*
X144598D02*
X144982Y118699D01*
X145748D01*
X146131Y118316D01*
Y117933D01*
X145748Y117550D01*
X146131Y117166D01*
Y116783D01*
X145748Y116400D01*
X144982D01*
X144598Y116783D01*
Y117166D01*
X144982Y117550D01*
X144598Y117933D01*
Y118316D01*
X144982Y117550D02*
X145748D01*
X185000Y58400D02*
X182701D01*
Y59550D01*
X183084Y59933D01*
X183850D01*
X184234Y59550D01*
Y58400D01*
Y59166D02*
X185000Y59933D01*
Y62232D02*
Y60699D01*
X183467Y62232D01*
X183084D01*
X182701Y61849D01*
Y61083D01*
X183084Y60699D01*
X184617Y62998D02*
X185000Y63382D01*
Y64148D01*
X184617Y64531D01*
X183084D01*
X182701Y64148D01*
Y63382D01*
X183084Y62998D01*
X183467D01*
X183850Y63382D01*
Y64531D01*
X277424Y196850D02*
X275125D01*
Y198000D01*
X275508Y198383D01*
X276275D01*
X276658Y198000D01*
Y196850D01*
Y197617D02*
X277424Y198383D01*
X275125Y200682D02*
Y199150D01*
X276275D01*
X275892Y199916D01*
Y200299D01*
X276275Y200682D01*
X277041D01*
X277424Y200299D01*
Y199533D01*
X277041Y199150D01*
X275508Y201449D02*
X275125Y201832D01*
Y202599D01*
X275508Y202982D01*
X275892D01*
X276275Y202599D01*
Y202215D01*
Y202599D01*
X276658Y202982D01*
X277041D01*
X277424Y202599D01*
Y201832D01*
X277041Y201449D01*
X214432Y196850D02*
X212133D01*
Y198000D01*
X212516Y198383D01*
X213283D01*
X213666Y198000D01*
Y196850D01*
Y197617D02*
X214432Y198383D01*
X212133Y200682D02*
Y199150D01*
X213283D01*
X212899Y199916D01*
Y200299D01*
X213283Y200682D01*
X214049D01*
X214432Y200299D01*
Y199533D01*
X214049Y199150D01*
X214432Y202599D02*
X212133D01*
X213283Y201449D01*
Y202982D01*
X210495Y196850D02*
X208196D01*
Y198000D01*
X208579Y198383D01*
X209346D01*
X209729Y198000D01*
Y196850D01*
Y197617D02*
X210495Y198383D01*
X208196Y200682D02*
Y199150D01*
X209346D01*
X208962Y199916D01*
Y200299D01*
X209346Y200682D01*
X210112D01*
X210495Y200299D01*
Y199533D01*
X210112Y199150D01*
X208196Y202982D02*
Y201449D01*
X209346D01*
X208962Y202215D01*
Y202599D01*
X209346Y202982D01*
X210112D01*
X210495Y202599D01*
Y201832D01*
X210112Y201449D01*
X222306Y196850D02*
X220007D01*
Y198000D01*
X220390Y198383D01*
X221157D01*
X221540Y198000D01*
Y196850D01*
Y197617D02*
X222306Y198383D01*
X220007Y200682D02*
Y199150D01*
X221157D01*
X220774Y199916D01*
Y200299D01*
X221157Y200682D01*
X221923D01*
X222306Y200299D01*
Y199533D01*
X221923Y199150D01*
X220007Y202982D02*
X220390Y202215D01*
X221157Y201449D01*
X221923D01*
X222306Y201832D01*
Y202599D01*
X221923Y202982D01*
X221540D01*
X221157Y202599D01*
Y201449D01*
X226243Y196850D02*
X223944D01*
Y198000D01*
X224327Y198383D01*
X225094D01*
X225477Y198000D01*
Y196850D01*
Y197617D02*
X226243Y198383D01*
X223944Y200682D02*
Y199150D01*
X225094D01*
X224710Y199916D01*
Y200299D01*
X225094Y200682D01*
X225860D01*
X226243Y200299D01*
Y199533D01*
X225860Y199150D01*
X223944Y201449D02*
Y202982D01*
X224327D01*
X225860Y201449D01*
X226243D01*
X218369Y196850D02*
X216070D01*
Y198000D01*
X216453Y198383D01*
X217220D01*
X217603Y198000D01*
Y196850D01*
Y197617D02*
X218369Y198383D01*
X216070Y200682D02*
Y199150D01*
X217220D01*
X216837Y199916D01*
Y200299D01*
X217220Y200682D01*
X217986D01*
X218369Y200299D01*
Y199533D01*
X217986Y199150D01*
X216453Y201449D02*
X216070Y201832D01*
Y202599D01*
X216453Y202982D01*
X216837D01*
X217220Y202599D01*
X217603Y202982D01*
X217986D01*
X218369Y202599D01*
Y201832D01*
X217986Y201449D01*
X217603D01*
X217220Y201832D01*
X216837Y201449D01*
X216453D01*
X217220Y201832D02*
Y202599D01*
X230180Y196850D02*
X227881D01*
Y198000D01*
X228264Y198383D01*
X229031D01*
X229414Y198000D01*
Y196850D01*
Y197617D02*
X230180Y198383D01*
X227881Y200682D02*
Y199150D01*
X229031D01*
X228647Y199916D01*
Y200299D01*
X229031Y200682D01*
X229797D01*
X230180Y200299D01*
Y199533D01*
X229797Y199150D01*
Y201449D02*
X230180Y201832D01*
Y202599D01*
X229797Y202982D01*
X228264D01*
X227881Y202599D01*
Y201832D01*
X228264Y201449D01*
X228647D01*
X229031Y201832D01*
Y202982D01*
X234117Y196850D02*
X231818D01*
Y198000D01*
X232201Y198383D01*
X232968D01*
X233351Y198000D01*
Y196850D01*
Y197617D02*
X234117Y198383D01*
X231818Y200682D02*
X232201Y199916D01*
X232968Y199150D01*
X233734D01*
X234117Y199533D01*
Y200299D01*
X233734Y200682D01*
X233351D01*
X232968Y200299D01*
Y199150D01*
X232201Y201449D02*
X231818Y201832D01*
Y202599D01*
X232201Y202982D01*
X233734D01*
X234117Y202599D01*
Y201832D01*
X233734Y201449D01*
X232201D01*
X238054Y196850D02*
X235755D01*
Y198000D01*
X236138Y198383D01*
X236905D01*
X237288Y198000D01*
Y196850D01*
Y197617D02*
X238054Y198383D01*
X235755Y200682D02*
X236138Y199916D01*
X236905Y199150D01*
X237671D01*
X238054Y199533D01*
Y200299D01*
X237671Y200682D01*
X237288D01*
X236905Y200299D01*
Y199150D01*
X238054Y201449D02*
Y202215D01*
Y201832D01*
X235755D01*
X236138Y201449D01*
X241991Y196850D02*
X239692D01*
Y198000D01*
X240075Y198383D01*
X240842D01*
X241225Y198000D01*
Y196850D01*
Y197617D02*
X241991Y198383D01*
X239692Y200682D02*
X240075Y199916D01*
X240842Y199150D01*
X241608D01*
X241991Y199533D01*
Y200299D01*
X241608Y200682D01*
X241225D01*
X240842Y200299D01*
Y199150D01*
X241991Y202982D02*
Y201449D01*
X240458Y202982D01*
X240075D01*
X239692Y202599D01*
Y201832D01*
X240075Y201449D01*
X245928Y196850D02*
X243629D01*
Y198000D01*
X244012Y198383D01*
X244779D01*
X245162Y198000D01*
Y196850D01*
Y197617D02*
X245928Y198383D01*
X243629Y200682D02*
X244012Y199916D01*
X244779Y199150D01*
X245545D01*
X245928Y199533D01*
Y200299D01*
X245545Y200682D01*
X245162D01*
X244779Y200299D01*
Y199150D01*
X244012Y201449D02*
X243629Y201832D01*
Y202599D01*
X244012Y202982D01*
X244395D01*
X244779Y202599D01*
Y202215D01*
Y202599D01*
X245162Y202982D01*
X245545D01*
X245928Y202599D01*
Y201832D01*
X245545Y201449D01*
X249865Y196850D02*
X247566D01*
Y198000D01*
X247949Y198383D01*
X248716D01*
X249099Y198000D01*
Y196850D01*
Y197617D02*
X249865Y198383D01*
X247566Y200682D02*
X247949Y199916D01*
X248716Y199150D01*
X249482D01*
X249865Y199533D01*
Y200299D01*
X249482Y200682D01*
X249099D01*
X248716Y200299D01*
Y199150D01*
X249865Y202599D02*
X247566D01*
X248716Y201449D01*
Y202982D01*
X253802Y196850D02*
X251503D01*
Y198000D01*
X251886Y198383D01*
X252653D01*
X253036Y198000D01*
Y196850D01*
Y197617D02*
X253802Y198383D01*
X251503Y200682D02*
X251886Y199916D01*
X252653Y199150D01*
X253419D01*
X253802Y199533D01*
Y200299D01*
X253419Y200682D01*
X253036D01*
X252653Y200299D01*
Y199150D01*
X251503Y202982D02*
Y201449D01*
X252653D01*
X252270Y202215D01*
Y202599D01*
X252653Y202982D01*
X253419D01*
X253802Y202599D01*
Y201832D01*
X253419Y201449D01*
X257739Y196850D02*
X255440D01*
Y198000D01*
X255823Y198383D01*
X256590D01*
X256973Y198000D01*
Y196850D01*
Y197617D02*
X257739Y198383D01*
X255440Y200682D02*
X255823Y199916D01*
X256590Y199150D01*
X257356D01*
X257739Y199533D01*
Y200299D01*
X257356Y200682D01*
X256973D01*
X256590Y200299D01*
Y199150D01*
X255440Y202982D02*
X255823Y202215D01*
X256590Y201449D01*
X257356D01*
X257739Y201832D01*
Y202599D01*
X257356Y202982D01*
X256973D01*
X256590Y202599D01*
Y201449D01*
X261676Y196850D02*
X259377D01*
Y198000D01*
X259760Y198383D01*
X260527D01*
X260910Y198000D01*
Y196850D01*
Y197617D02*
X261676Y198383D01*
X259377Y200682D02*
X259760Y199916D01*
X260527Y199150D01*
X261293D01*
X261676Y199533D01*
Y200299D01*
X261293Y200682D01*
X260910D01*
X260527Y200299D01*
Y199150D01*
X259377Y201449D02*
Y202982D01*
X259760D01*
X261293Y201449D01*
X261676D01*
X265613Y196850D02*
X263314D01*
Y198000D01*
X263697Y198383D01*
X264464D01*
X264847Y198000D01*
Y196850D01*
Y197617D02*
X265613Y198383D01*
X263314Y200682D02*
X263697Y199916D01*
X264464Y199150D01*
X265230D01*
X265613Y199533D01*
Y200299D01*
X265230Y200682D01*
X264847D01*
X264464Y200299D01*
Y199150D01*
X263697Y201449D02*
X263314Y201832D01*
Y202599D01*
X263697Y202982D01*
X264081D01*
X264464Y202599D01*
X264847Y202982D01*
X265230D01*
X265613Y202599D01*
Y201832D01*
X265230Y201449D01*
X264847D01*
X264464Y201832D01*
X264081Y201449D01*
X263697D01*
X264464Y201832D02*
Y202599D01*
X269550Y196850D02*
X267251D01*
Y198000D01*
X267634Y198383D01*
X268401D01*
X268784Y198000D01*
Y196850D01*
Y197617D02*
X269550Y198383D01*
X267251Y200682D02*
X267634Y199916D01*
X268401Y199150D01*
X269167D01*
X269550Y199533D01*
Y200299D01*
X269167Y200682D01*
X268784D01*
X268401Y200299D01*
Y199150D01*
X269167Y201449D02*
X269550Y201832D01*
Y202599D01*
X269167Y202982D01*
X267634D01*
X267251Y202599D01*
Y201832D01*
X267634Y201449D01*
X268018D01*
X268401Y201832D01*
Y202982D01*
X133000Y128200D02*
Y130499D01*
X134150D01*
X134533Y130116D01*
Y129350D01*
X134150Y128966D01*
X133000D01*
X133766D02*
X134533Y128200D01*
X135299D02*
X136066D01*
X135682D01*
Y130499D01*
X135299Y130116D01*
X137215D02*
X137599Y130499D01*
X138365D01*
X138748Y130116D01*
Y128583D01*
X138365Y128200D01*
X137599D01*
X137215Y128583D01*
Y130116D01*
X141047Y128200D02*
X139515D01*
X141047Y129733D01*
Y130116D01*
X140664Y130499D01*
X139898D01*
X139515Y130116D01*
X343600Y172700D02*
X345899D01*
Y171550D01*
X345516Y171167D01*
X344750D01*
X344366Y171550D01*
Y172700D01*
Y171934D02*
X343600Y171167D01*
Y170401D02*
Y169634D01*
Y170018D01*
X345899D01*
X345516Y170401D01*
X343600Y166952D02*
Y168485D01*
X345133Y166952D01*
X345516D01*
X345899Y167335D01*
Y168102D01*
X345516Y168485D01*
Y166185D02*
X345899Y165802D01*
Y165036D01*
X345516Y164653D01*
X345133D01*
X344750Y165036D01*
Y165419D01*
Y165036D01*
X344366Y164653D01*
X343983D01*
X343600Y165036D01*
Y165802D01*
X343983Y166185D01*
X345500Y142100D02*
X343201D01*
Y143250D01*
X343584Y143633D01*
X344350D01*
X344734Y143250D01*
Y142100D01*
Y142866D02*
X345500Y143633D01*
Y144399D02*
Y145166D01*
Y144782D01*
X343201D01*
X343584Y144399D01*
X345500Y147848D02*
Y146315D01*
X343967Y147848D01*
X343584D01*
X343201Y147465D01*
Y146698D01*
X343584Y146315D01*
X345500Y149764D02*
X343201D01*
X344350Y148615D01*
Y150147D01*
X341837Y142100D02*
X339538D01*
Y143250D01*
X339921Y143633D01*
X340688D01*
X341071Y143250D01*
Y142100D01*
Y142866D02*
X341837Y143633D01*
Y144399D02*
Y145166D01*
Y144782D01*
X339538D01*
X339921Y144399D01*
X341837Y147848D02*
Y146315D01*
X340304Y147848D01*
X339921D01*
X339538Y147465D01*
Y146698D01*
X339921Y146315D01*
X339538Y150147D02*
Y148615D01*
X340688D01*
X340304Y149381D01*
Y149764D01*
X340688Y150147D01*
X341454D01*
X341837Y149764D01*
Y148998D01*
X341454Y148615D01*
X338100Y142100D02*
X335801D01*
Y143250D01*
X336184Y143633D01*
X336950D01*
X337334Y143250D01*
Y142100D01*
Y142866D02*
X338100Y143633D01*
Y144399D02*
Y145166D01*
Y144782D01*
X335801D01*
X336184Y144399D01*
X338100Y147848D02*
Y146315D01*
X336567Y147848D01*
X336184D01*
X335801Y147465D01*
Y146698D01*
X336184Y146315D01*
X335801Y150147D02*
X336184Y149381D01*
X336950Y148615D01*
X337717D01*
X338100Y148998D01*
Y149764D01*
X337717Y150147D01*
X337334D01*
X336950Y149764D01*
Y148615D01*
X324666Y184948D02*
Y187247D01*
X325816D01*
X326199Y186864D01*
Y186097D01*
X325816Y185714D01*
X324666D01*
X325433D02*
X326199Y184948D01*
X326966D02*
X327732D01*
X327349D01*
Y187247D01*
X326966Y186864D01*
X330415Y184948D02*
X328882D01*
X330415Y186481D01*
Y186864D01*
X330031Y187247D01*
X329265D01*
X328882Y186864D01*
X331181D02*
X331564Y187247D01*
X332331D01*
X332714Y186864D01*
Y186481D01*
X332331Y186097D01*
X332714Y185714D01*
Y185331D01*
X332331Y184948D01*
X331564D01*
X331181Y185331D01*
Y185714D01*
X331564Y186097D01*
X331181Y186481D01*
Y186864D01*
X331564Y186097D02*
X332331D01*
X195300Y81499D02*
X196833Y79200D01*
Y81499D02*
X195300Y79200D01*
X199132D02*
X197599D01*
X199132Y80733D01*
Y81116D01*
X198749Y81499D01*
X197983D01*
X197599Y81116D01*
X54033Y68916D02*
X53650Y69299D01*
X52883D01*
X52500Y68916D01*
Y67383D01*
X52883Y67000D01*
X53650D01*
X54033Y67383D01*
X56332Y67000D02*
X54799D01*
X56332Y68533D01*
Y68916D01*
X55949Y69299D01*
X55182D01*
X54799Y68916D01*
X67633Y84916D02*
X67250Y85299D01*
X66483D01*
X66100Y84916D01*
Y83383D01*
X66483Y83000D01*
X67250D01*
X67633Y83383D01*
X68399Y84916D02*
X68783Y85299D01*
X69549D01*
X69932Y84916D01*
Y84533D01*
X69549Y84150D01*
X69166D01*
X69549D01*
X69932Y83766D01*
Y83383D01*
X69549Y83000D01*
X68783D01*
X68399Y83383D01*
X84533Y50916D02*
X84150Y51299D01*
X83383D01*
X83000Y50916D01*
Y49383D01*
X83383Y49000D01*
X84150D01*
X84533Y49383D01*
X86832Y51299D02*
X85299D01*
Y50150D01*
X86066Y50533D01*
X86449D01*
X86832Y50150D01*
Y49383D01*
X86449Y49000D01*
X85682D01*
X85299Y49383D01*
X99533Y50916D02*
X99150Y51299D01*
X98383D01*
X98000Y50916D01*
Y49383D01*
X98383Y49000D01*
X99150D01*
X99533Y49383D01*
X101832Y51299D02*
X101066Y50916D01*
X100299Y50150D01*
Y49383D01*
X100682Y49000D01*
X101449D01*
X101832Y49383D01*
Y49766D01*
X101449Y50150D01*
X100299D01*
X108584Y66533D02*
X108201Y66150D01*
Y65383D01*
X108584Y65000D01*
X110117D01*
X110500Y65383D01*
Y66150D01*
X110117Y66533D01*
Y67299D02*
X110500Y67682D01*
Y68449D01*
X110117Y68832D01*
X108584D01*
X108201Y68449D01*
Y67682D01*
X108584Y67299D01*
X108967D01*
X109350Y67682D01*
Y68832D01*
X67633Y81316D02*
X67250Y81699D01*
X66483D01*
X66100Y81316D01*
Y79783D01*
X66483Y79400D01*
X67250D01*
X67633Y79783D01*
X68399Y79400D02*
X69166D01*
X68783D01*
Y81699D01*
X68399Y81316D01*
X71848Y81699D02*
X70315D01*
Y80550D01*
X71082Y80933D01*
X71465D01*
X71848Y80550D01*
Y79783D01*
X71465Y79400D01*
X70698D01*
X70315Y79783D01*
X132984Y39433D02*
X132601Y39050D01*
Y38283D01*
X132984Y37900D01*
X134517D01*
X134900Y38283D01*
Y39050D01*
X134517Y39433D01*
X134900Y41732D02*
Y40199D01*
X133367Y41732D01*
X132984D01*
X132601Y41349D01*
Y40582D01*
X132984Y40199D01*
X132601Y44031D02*
X132984Y43265D01*
X133750Y42498D01*
X134517D01*
X134900Y42882D01*
Y43648D01*
X134517Y44031D01*
X134134D01*
X133750Y43648D01*
Y42498D01*
X206487Y187181D02*
X206870Y187564D01*
Y188330D01*
X206487Y188713D01*
X204954D01*
X204571Y188330D01*
Y187564D01*
X204954Y187181D01*
X206870Y184881D02*
X206487Y185648D01*
X205720Y186414D01*
X204954D01*
X204571Y186031D01*
Y185265D01*
X204954Y184881D01*
X205337D01*
X205720Y185265D01*
Y186414D01*
X206870Y182582D02*
X206487Y183349D01*
X205720Y184115D01*
X204954D01*
X204571Y183732D01*
Y182965D01*
X204954Y182582D01*
X205337D01*
X205720Y182965D01*
Y184115D01*
X122533Y60016D02*
X122150Y60399D01*
X121383D01*
X121000Y60016D01*
Y58483D01*
X121383Y58100D01*
X122150D01*
X122533Y58483D01*
X123299Y60399D02*
X124832D01*
Y60016D01*
X123299Y58483D01*
Y58100D01*
X125599D02*
X126365D01*
X125982D01*
Y60399D01*
X125599Y60016D01*
X20500Y76799D02*
Y74500D01*
X21650D01*
X22033Y74883D01*
Y76416D01*
X21650Y76799D01*
X20500D01*
X22799Y74500D02*
X23566D01*
X23182D01*
Y76799D01*
X22799Y76416D01*
X346825Y85980D02*
Y88280D01*
X347592Y87513D01*
X348358Y88280D01*
Y85980D01*
X350274D02*
Y88280D01*
X349125Y87130D01*
X350657D01*
X63900Y234200D02*
Y236499D01*
X64666Y235733D01*
X65433Y236499D01*
Y234200D01*
X66199Y236116D02*
X66583Y236499D01*
X67349D01*
X67732Y236116D01*
Y235733D01*
X67349Y235350D01*
X66966D01*
X67349D01*
X67732Y234966D01*
Y234583D01*
X67349Y234200D01*
X66583D01*
X66199Y234583D01*
X100900Y91700D02*
X98601D01*
Y92850D01*
X98984Y93233D01*
X99750D01*
X100134Y92850D01*
Y91700D01*
Y92466D02*
X100900Y93233D01*
Y95532D02*
Y93999D01*
X99367Y95532D01*
X98984D01*
X98601Y95149D01*
Y94383D01*
X98984Y93999D01*
X107000Y86000D02*
X104701D01*
Y87150D01*
X105084Y87533D01*
X105850D01*
X106234Y87150D01*
Y86000D01*
Y86766D02*
X107000Y87533D01*
X105084Y88299D02*
X104701Y88683D01*
Y89449D01*
X105084Y89832D01*
X105467D01*
X105850Y89449D01*
Y89066D01*
Y89449D01*
X106234Y89832D01*
X106617D01*
X107000Y89449D01*
Y88683D01*
X106617Y88299D01*
X43000Y82000D02*
Y84299D01*
X44150D01*
X44533Y83916D01*
Y83150D01*
X44150Y82766D01*
X43000D01*
X43766D02*
X44533Y82000D01*
X46832Y84299D02*
X45299D01*
Y83150D01*
X46066Y83533D01*
X46449D01*
X46832Y83150D01*
Y82383D01*
X46449Y82000D01*
X45682D01*
X45299Y82383D01*
X43000Y66500D02*
Y68799D01*
X44150D01*
X44533Y68416D01*
Y67650D01*
X44150Y67266D01*
X43000D01*
X43766D02*
X44533Y66500D01*
X46832Y68799D02*
X46066Y68416D01*
X45299Y67650D01*
Y66883D01*
X45682Y66500D01*
X46449D01*
X46832Y66883D01*
Y67266D01*
X46449Y67650D01*
X45299D01*
X66500Y69500D02*
Y71799D01*
X67650D01*
X68033Y71416D01*
Y70650D01*
X67650Y70266D01*
X66500D01*
X67266D02*
X68033Y69500D01*
X68799Y71799D02*
X70332D01*
Y71416D01*
X68799Y69883D01*
Y69500D01*
X41500Y74000D02*
X39201D01*
Y75150D01*
X39584Y75533D01*
X40350D01*
X40734Y75150D01*
Y74000D01*
Y74766D02*
X41500Y75533D01*
X39584Y76299D02*
X39201Y76683D01*
Y77449D01*
X39584Y77832D01*
X39967D01*
X40350Y77449D01*
X40734Y77832D01*
X41117D01*
X41500Y77449D01*
Y76683D01*
X41117Y76299D01*
X40734D01*
X40350Y76683D01*
X39967Y76299D01*
X39584D01*
X40350Y76683D02*
Y77449D01*
X30100Y71800D02*
Y74099D01*
X31250D01*
X31633Y73716D01*
Y72950D01*
X31250Y72566D01*
X30100D01*
X30866D02*
X31633Y71800D01*
X32399D02*
X33166D01*
X32783D01*
Y74099D01*
X32399Y73716D01*
X34315D02*
X34699Y74099D01*
X35465D01*
X35848Y73716D01*
Y72183D01*
X35465Y71800D01*
X34699D01*
X34315Y72183D01*
Y73716D01*
X150700Y52400D02*
X148401D01*
Y53550D01*
X148784Y53933D01*
X149550D01*
X149934Y53550D01*
Y52400D01*
Y53166D02*
X150700Y53933D01*
Y56232D02*
Y54699D01*
X149167Y56232D01*
X148784D01*
X148401Y55849D01*
Y55082D01*
X148784Y54699D01*
Y56998D02*
X148401Y57382D01*
Y58148D01*
X148784Y58531D01*
X150317D01*
X150700Y58148D01*
Y57382D01*
X150317Y56998D01*
X148784D01*
X150600Y38100D02*
X148301D01*
Y39250D01*
X148684Y39633D01*
X149450D01*
X149834Y39250D01*
Y38100D01*
Y38866D02*
X150600Y39633D01*
Y41932D02*
Y40399D01*
X149067Y41932D01*
X148684D01*
X148301Y41549D01*
Y40782D01*
X148684Y40399D01*
X150600Y44231D02*
Y42698D01*
X149067Y44231D01*
X148684D01*
X148301Y43848D01*
Y43082D01*
X148684Y42698D01*
X3600Y92599D02*
X5133D01*
X4366D01*
Y90300D01*
X5899D02*
Y92599D01*
X7049D01*
X7432Y92216D01*
Y91450D01*
X7049Y91066D01*
X5899D01*
X8198Y92216D02*
X8582Y92599D01*
X9348D01*
X9731Y92216D01*
Y91833D01*
X9348Y91450D01*
X9731Y91066D01*
Y90683D01*
X9348Y90300D01*
X8582D01*
X8198Y90683D01*
Y91066D01*
X8582Y91450D01*
X8198Y91833D01*
Y92216D01*
X8582Y91450D02*
X9348D01*
X56000Y58799D02*
X57533D01*
X56766D01*
Y56500D01*
X58299D02*
Y58799D01*
X59449D01*
X59832Y58416D01*
Y57650D01*
X59449Y57266D01*
X58299D01*
X60598Y58416D02*
X60982Y58799D01*
X61748D01*
X62131Y58416D01*
Y58033D01*
X61748Y57650D01*
X61365D01*
X61748D01*
X62131Y57266D01*
Y56883D01*
X61748Y56500D01*
X60982D01*
X60598Y56883D01*
X56000Y36299D02*
X57533D01*
X56766D01*
Y34000D01*
X58299D02*
Y36299D01*
X59449D01*
X59832Y35916D01*
Y35150D01*
X59449Y34766D01*
X58299D01*
X61748Y34000D02*
Y36299D01*
X60598Y35150D01*
X62131D01*
X66000Y58799D02*
X67533D01*
X66766D01*
Y56500D01*
X68299D02*
Y58799D01*
X69449D01*
X69832Y58416D01*
Y57650D01*
X69449Y57266D01*
X68299D01*
X72131Y58799D02*
X70599D01*
Y57650D01*
X71365Y58033D01*
X71748D01*
X72131Y57650D01*
Y56883D01*
X71748Y56500D01*
X70982D01*
X70599Y56883D01*
X66000Y36299D02*
X67533D01*
X66766D01*
Y34000D01*
X68299D02*
Y36299D01*
X69449D01*
X69832Y35916D01*
Y35150D01*
X69449Y34766D01*
X68299D01*
X72131Y34000D02*
X70599D01*
X72131Y35533D01*
Y35916D01*
X71748Y36299D01*
X70982D01*
X70599Y35916D01*
X63600Y191599D02*
X64366D01*
X63983D01*
Y189300D01*
X63600D01*
X64366D01*
X67049Y191216D02*
X66666Y191599D01*
X65899D01*
X65516Y191216D01*
Y189683D01*
X65899Y189300D01*
X66666D01*
X67049Y189683D01*
X67815Y191599D02*
X69348D01*
Y191216D01*
X67815Y189683D01*
Y189300D01*
X118600Y99500D02*
Y101799D01*
X119750D01*
X120133Y101416D01*
Y100650D01*
X119750Y100266D01*
X118600D01*
X119366D02*
X120133Y99500D01*
X120899D02*
X121666D01*
X121282D01*
Y101799D01*
X120899Y101416D01*
X122815D02*
X123198Y101799D01*
X123965D01*
X124348Y101416D01*
Y99883D01*
X123965Y99500D01*
X123198D01*
X122815Y99883D01*
Y101416D01*
X126647Y101799D02*
X125881Y101416D01*
X125115Y100650D01*
Y99883D01*
X125498Y99500D01*
X126264D01*
X126647Y99883D01*
Y100266D01*
X126264Y100650D01*
X125115D01*
X133000Y139200D02*
Y141499D01*
X134150D01*
X134533Y141116D01*
Y140350D01*
X134150Y139966D01*
X133000D01*
X133766D02*
X134533Y139200D01*
X135299Y139583D02*
X135682Y139200D01*
X136449D01*
X136832Y139583D01*
Y141116D01*
X136449Y141499D01*
X135682D01*
X135299Y141116D01*
Y140733D01*
X135682Y140350D01*
X136832D01*
X137599Y141499D02*
X139131D01*
Y141116D01*
X137599Y139583D01*
Y139200D01*
X87300Y102499D02*
X88833Y100200D01*
Y102499D02*
X87300Y100200D01*
X89599Y102116D02*
X89982Y102499D01*
X90749D01*
X91132Y102116D01*
Y101733D01*
X90749Y101350D01*
X90366D01*
X90749D01*
X91132Y100966D01*
Y100583D01*
X90749Y100200D01*
X89982D01*
X89599Y100583D01*
X31633Y83716D02*
X31250Y84099D01*
X30483D01*
X30100Y83716D01*
Y82183D01*
X30483Y81800D01*
X31250D01*
X31633Y82183D01*
X32399Y81800D02*
X33166D01*
X32783D01*
Y84099D01*
X32399Y83716D01*
X34315Y84099D02*
X35848D01*
Y83716D01*
X34315Y82183D01*
Y81800D01*
X111384Y92033D02*
X111001Y91650D01*
Y90883D01*
X111384Y90500D01*
X112917D01*
X113300Y90883D01*
Y91650D01*
X112917Y92033D01*
Y92799D02*
X113300Y93182D01*
Y93949D01*
X112917Y94332D01*
X111384D01*
X111001Y93949D01*
Y93182D01*
X111384Y92799D01*
X111767D01*
X112150Y93182D01*
Y94332D01*
X113300Y96248D02*
X111001D01*
X112150Y95099D01*
Y96631D01*
X60033Y74916D02*
X59650Y75299D01*
X58883D01*
X58500Y74916D01*
Y73383D01*
X58883Y73000D01*
X59650D01*
X60033Y73383D01*
X60799Y73000D02*
X61566D01*
X61182D01*
Y75299D01*
X60799Y74916D01*
X62715D02*
X63099Y75299D01*
X63865D01*
X64248Y74916D01*
Y73383D01*
X63865Y73000D01*
X63099D01*
X62715Y73383D01*
Y74916D01*
X65015D02*
X65398Y75299D01*
X66164D01*
X66547Y74916D01*
Y73383D01*
X66164Y73000D01*
X65398D01*
X65015Y73383D01*
Y74916D01*
X118600Y103100D02*
Y105399D01*
X119750D01*
X120133Y105016D01*
Y104250D01*
X119750Y103866D01*
X118600D01*
X119366D02*
X120133Y103100D01*
X120899Y103483D02*
X121282Y103100D01*
X122049D01*
X122432Y103483D01*
Y105016D01*
X122049Y105399D01*
X121282D01*
X120899Y105016D01*
Y104633D01*
X121282Y104250D01*
X122432D01*
X123198Y105016D02*
X123582Y105399D01*
X124348D01*
X124731Y105016D01*
Y104633D01*
X124348Y104250D01*
X124731Y103866D01*
Y103483D01*
X124348Y103100D01*
X123582D01*
X123198Y103483D01*
Y103866D01*
X123582Y104250D01*
X123198Y104633D01*
Y105016D01*
X123582Y104250D02*
X124348D01*
X118600Y106700D02*
Y108999D01*
X119750D01*
X120133Y108616D01*
Y107850D01*
X119750Y107466D01*
X118600D01*
X119366D02*
X120133Y106700D01*
X120899Y107083D02*
X121282Y106700D01*
X122049D01*
X122432Y107083D01*
Y108616D01*
X122049Y108999D01*
X121282D01*
X120899Y108616D01*
Y108233D01*
X121282Y107850D01*
X122432D01*
X123198Y107083D02*
X123582Y106700D01*
X124348D01*
X124731Y107083D01*
Y108616D01*
X124348Y108999D01*
X123582D01*
X123198Y108616D01*
Y108233D01*
X123582Y107850D01*
X124731D01*
X133000Y120800D02*
Y123099D01*
X134150D01*
X134533Y122716D01*
Y121950D01*
X134150Y121566D01*
X133000D01*
X133766D02*
X134533Y120800D01*
X135299D02*
X136066D01*
X135682D01*
Y123099D01*
X135299Y122716D01*
X137215D02*
X137599Y123099D01*
X138365D01*
X138748Y122716D01*
Y121183D01*
X138365Y120800D01*
X137599D01*
X137215Y121183D01*
Y122716D01*
X139515D02*
X139898Y123099D01*
X140664D01*
X141047Y122716D01*
Y121183D01*
X140664Y120800D01*
X139898D01*
X139515Y121183D01*
Y122716D01*
X133000Y124500D02*
Y126799D01*
X134150D01*
X134533Y126416D01*
Y125650D01*
X134150Y125266D01*
X133000D01*
X133766D02*
X134533Y124500D01*
X135299D02*
X136066D01*
X135682D01*
Y126799D01*
X135299Y126416D01*
X137215D02*
X137599Y126799D01*
X138365D01*
X138748Y126416D01*
Y124883D01*
X138365Y124500D01*
X137599D01*
X137215Y124883D01*
Y126416D01*
X139515Y124500D02*
X140281D01*
X139898D01*
Y126799D01*
X139515Y126416D01*
X133000Y131900D02*
Y134199D01*
X134150D01*
X134533Y133816D01*
Y133050D01*
X134150Y132666D01*
X133000D01*
X133766D02*
X134533Y131900D01*
X135299D02*
X136066D01*
X135682D01*
Y134199D01*
X135299Y133816D01*
X137215D02*
X137599Y134199D01*
X138365D01*
X138748Y133816D01*
Y132283D01*
X138365Y131900D01*
X137599D01*
X137215Y132283D01*
Y133816D01*
X141047Y134199D02*
X139515D01*
Y133050D01*
X140281Y133433D01*
X140664D01*
X141047Y133050D01*
Y132283D01*
X140664Y131900D01*
X139898D01*
X139515Y132283D01*
X133000Y135600D02*
Y137899D01*
X134150D01*
X134533Y137516D01*
Y136750D01*
X134150Y136366D01*
X133000D01*
X133766D02*
X134533Y135600D01*
X135299D02*
X136066D01*
X135682D01*
Y137899D01*
X135299Y137516D01*
X137215Y135600D02*
X137982D01*
X137599D01*
Y137899D01*
X137215Y137516D01*
X140664Y137899D02*
X139131D01*
Y136750D01*
X139898Y137133D01*
X140281D01*
X140664Y136750D01*
Y135983D01*
X140281Y135600D01*
X139515D01*
X139131Y135983D01*
M02*
