G04*
G04 #@! TF.GenerationSoftware,Altium Limited,Altium Designer,19.1.9 (167)*
G04*
G04 Layer_Physical_Order=3*
G04 Layer_Color=16440176*
%FSLAX25Y25*%
%MOIN*%
G70*
G01*
G75*
%ADD11C,0.00100*%
%ADD38C,0.01800*%
%ADD68C,0.00475*%
%ADD69C,0.01500*%
%ADD72C,0.00800*%
%ADD75C,0.02500*%
%ADD82C,0.06000*%
%ADD83C,0.17500*%
%ADD85C,0.09000*%
%ADD86R,0.06000X0.06000*%
%ADD87C,0.06500*%
%ADD88O,0.13500X0.08000*%
%ADD89O,0.07000X0.15000*%
%ADD90O,0.07000X0.18000*%
%ADD91O,0.15000X0.07000*%
%ADD92C,0.01378*%
%ADD93C,0.01968*%
%ADD94C,0.01200*%
%ADD95C,0.15000*%
%ADD96C,0.00525*%
%ADD97C,0.00400*%
G36*
X165210Y143986D02*
X165211Y143986D01*
X165379Y143874D01*
X165604Y143829D01*
X165632Y143822D01*
X165660Y143818D01*
X165886Y143773D01*
X166393Y143874D01*
X166548Y143977D01*
X166651Y144034D01*
X167636Y143049D01*
Y138049D01*
X166636Y137049D01*
X164136D01*
X163673Y136587D01*
Y136587D01*
X163496Y136705D01*
X163483Y136716D01*
X163438Y136744D01*
X163243Y136874D01*
X163017Y136919D01*
X162962Y136932D01*
X162943Y136934D01*
X162736Y136975D01*
X162531Y136934D01*
X162510Y136932D01*
X162448Y136918D01*
X162229Y136874D01*
X162050Y136755D01*
X161989Y136716D01*
X161970Y136701D01*
X161799Y136587D01*
X161686Y136418D01*
X161669Y136396D01*
X161625Y136327D01*
X161512Y136157D01*
X161473Y135965D01*
X161454Y135875D01*
X161450Y135845D01*
X161411Y135650D01*
X161444Y135482D01*
X161446Y135461D01*
X161445Y135427D01*
X161442Y135392D01*
X161435Y135358D01*
X161426Y135324D01*
X161413Y135291D01*
X161398Y135260D01*
X161380Y135230D01*
X161360Y135202D01*
X161337Y135175D01*
X161312Y135151D01*
X161285Y135129D01*
X161256Y135109D01*
X161226Y135092D01*
X161194Y135078D01*
X161161Y135066D01*
X161127Y135058D01*
X161093Y135052D01*
X161058Y135049D01*
X161046Y135049D01*
X160268D01*
X160335Y135150D01*
X158838D01*
X158905Y135049D01*
X155250D01*
X155237Y135063D01*
X131622D01*
X130636Y136049D01*
Y138575D01*
X130751Y138402D01*
X130900Y138303D01*
Y139051D01*
Y139799D01*
X130751Y139700D01*
X130636Y139527D01*
Y141075D01*
X130751Y140902D01*
X130900Y140803D01*
Y141551D01*
Y142299D01*
X130751Y142200D01*
X130636Y142027D01*
Y143049D01*
X131636Y144049D01*
X140078D01*
X140180Y143947D01*
X145942D01*
X145942Y143948D01*
X145967Y143933D01*
X146127Y143827D01*
X146307Y143791D01*
X146361Y143777D01*
X146473Y143757D01*
X146475Y143757D01*
X146634Y143726D01*
X146794Y143758D01*
X146812Y143759D01*
X146924Y143780D01*
X146976Y143794D01*
X147141Y143827D01*
X147276Y143917D01*
X147341Y143955D01*
X147434Y144020D01*
X147447Y144031D01*
X147474Y144049D01*
X158816D01*
X158816Y144049D01*
X158910Y143986D01*
X158916Y143983D01*
X159079Y143874D01*
X159301Y143830D01*
X159332Y143822D01*
X159363Y143817D01*
X159587Y143773D01*
X160094Y143874D01*
X160292Y144006D01*
X160309Y144017D01*
X160345Y144042D01*
X160356Y144049D01*
X161967D01*
X162229Y143874D01*
X162476Y143825D01*
X162483Y143823D01*
X162489Y143822D01*
X162736Y143773D01*
X163243Y143874D01*
X163457Y144017D01*
X163459Y144018D01*
X163467Y144023D01*
X163506Y144049D01*
X165116D01*
X165116Y144049D01*
X165210Y143986D01*
D02*
G37*
G36*
X196137Y139551D02*
Y139202D01*
X196056Y138799D01*
X196128Y138438D01*
X196137Y132903D01*
X196056Y132500D01*
X196128Y132139D01*
X196137Y126604D01*
X196056Y126201D01*
X196128Y125840D01*
X196137Y120305D01*
X196056Y119902D01*
X196128Y119541D01*
X196137Y114005D01*
X196056Y113602D01*
X196128Y113241D01*
X196137Y109551D01*
X195137Y108551D01*
X194623D01*
X194474Y108581D01*
X194466Y108582D01*
X194461Y108583D01*
X194232Y108629D01*
X193883Y108559D01*
X191474Y108551D01*
X191375Y108571D01*
X191321Y108583D01*
X191286Y108588D01*
X191083Y108629D01*
X190876Y108588D01*
X190869Y108587D01*
X190834Y108579D01*
X190752Y108563D01*
X188324Y108551D01*
X188223Y108571D01*
X188171Y108583D01*
X188137Y108588D01*
X187933Y108629D01*
X187727Y108588D01*
X187719Y108587D01*
X187679Y108578D01*
X187602Y108563D01*
X182637Y108551D01*
X181637Y109551D01*
Y114051D01*
X180137Y115551D01*
X173689D01*
X173619Y115557D01*
X173552Y115575D01*
X173489Y115604D01*
X173432Y115644D01*
X173382Y115694D01*
X173342Y115751D01*
X173313Y115814D01*
X173295Y115881D01*
X173289Y115951D01*
X173295Y116020D01*
X173313Y116088D01*
X173329Y116124D01*
X173410Y116245D01*
X173444Y116417D01*
X173455Y116457D01*
X173476Y116569D01*
X173477Y116586D01*
X173511Y116752D01*
X173477Y116919D01*
X173460Y117021D01*
X173446Y117076D01*
X173410Y117259D01*
X173305Y117416D01*
X173291Y117440D01*
X173227Y117534D01*
X173223Y117538D01*
X173122Y117689D01*
X172943Y117809D01*
X172897Y117842D01*
X172869Y117859D01*
X172692Y117977D01*
X172487Y118017D01*
X172480Y118019D01*
X172439Y118027D01*
X172185Y118078D01*
X171931Y118027D01*
X171917Y118025D01*
X171909Y118023D01*
X171678Y117977D01*
X171248Y117689D01*
X170960Y117259D01*
X170860Y116752D01*
X170910Y116499D01*
X170913Y116481D01*
X170915Y116471D01*
X170960Y116245D01*
X171053Y116106D01*
X171074Y116041D01*
X171084Y115972D01*
X171082Y115902D01*
X171067Y115834D01*
X171041Y115770D01*
X171004Y115710D01*
X170958Y115658D01*
X170903Y115615D01*
X170841Y115583D01*
X170775Y115561D01*
X170706Y115551D01*
X168637Y115551D01*
X167637Y114551D01*
Y103051D01*
X166652Y102066D01*
X166565Y102114D01*
X166393Y102228D01*
X165886Y102329D01*
X165379Y102228D01*
X165119Y102055D01*
X163509Y102051D01*
X163243Y102228D01*
X162736Y102329D01*
X162229Y102228D01*
X161963Y102051D01*
X160360D01*
X160094Y102228D01*
X159587Y102329D01*
X159079Y102228D01*
X158813Y102051D01*
X140855D01*
X140831Y102074D01*
X130637Y102051D01*
X128004Y104683D01*
X128351Y104752D01*
X128649Y104951D01*
X128748Y105100D01*
X128000D01*
Y106100D01*
X128748D01*
X128649Y106249D01*
X128351Y106448D01*
X128000Y106518D01*
X127649Y106448D01*
X127637Y106440D01*
Y107260D01*
X127649Y107252D01*
X128000Y107182D01*
X128351Y107252D01*
X128649Y107451D01*
X128748Y107600D01*
X128000D01*
Y108600D01*
X128748D01*
X128649Y108749D01*
X128351Y108948D01*
X128000Y109018D01*
X127649Y108948D01*
X127637Y108940D01*
Y109051D01*
X129637Y111051D01*
X132637D01*
X133637Y112051D01*
Y116051D01*
X134637Y117051D01*
X157924D01*
X158271Y116704D01*
X158302Y116545D01*
X158308Y116506D01*
X158320Y116453D01*
X158362Y116245D01*
X158467Y116088D01*
X158469Y116084D01*
X158531Y115989D01*
X158541Y115977D01*
X158649Y115815D01*
X158822Y115699D01*
X158856Y115674D01*
X158905Y115644D01*
X159079Y115527D01*
X159263Y115491D01*
X159269Y115489D01*
X159380Y115466D01*
X159396Y115464D01*
X159587Y115427D01*
X159790Y115467D01*
X159832Y115473D01*
X159889Y115487D01*
X160094Y115527D01*
X160250Y115632D01*
X160255Y115634D01*
X160349Y115697D01*
X160362Y115706D01*
X160524Y115815D01*
X160640Y115988D01*
X160664Y116021D01*
X160694Y116069D01*
X160811Y116245D01*
X160848Y116430D01*
X160849Y116434D01*
X160872Y116545D01*
X160874Y116559D01*
X160912Y116752D01*
X160871Y116959D01*
X160865Y116997D01*
X160853Y117048D01*
X160811Y117259D01*
X160705Y117417D01*
X160704Y117420D01*
X160642Y117515D01*
X160634Y117525D01*
X160524Y117689D01*
X160346Y117808D01*
X160317Y117830D01*
X160275Y117855D01*
X160137Y117948D01*
Y118706D01*
X160243Y118777D01*
X160333Y118834D01*
X160362Y118856D01*
X160524Y118964D01*
X160633Y119128D01*
X160653Y119154D01*
X160705Y119236D01*
X160811Y119394D01*
X160851Y119592D01*
X160869Y119675D01*
X160872Y119703D01*
X160912Y119902D01*
X160875Y120086D01*
X160872Y120152D01*
X160880Y120222D01*
X160901Y120288D01*
X160932Y120351D01*
X160974Y120406D01*
X161025Y120454D01*
X161083Y120492D01*
X161148Y120519D01*
X161216Y120535D01*
X161272Y120539D01*
X161553D01*
X162740Y121727D01*
X162926Y121764D01*
X162948Y121766D01*
X163060Y121790D01*
X163065Y121791D01*
X163243Y121827D01*
X163408Y121936D01*
X163471Y121976D01*
X163508Y122003D01*
X163673Y122114D01*
X163780Y122273D01*
X163795Y122292D01*
X163857Y122387D01*
X163860Y122393D01*
X163961Y122544D01*
X164000Y122740D01*
X164016Y122810D01*
X164023Y122854D01*
X164062Y123051D01*
X164024Y123242D01*
X164021Y123263D01*
X163998Y123374D01*
X163997Y123378D01*
X163961Y123558D01*
X163844Y123733D01*
X163811Y123786D01*
X163789Y123816D01*
X163673Y123988D01*
X163667Y123993D01*
X163637Y125239D01*
X163673Y125264D01*
X163785Y125431D01*
X163786Y125432D01*
X163849Y125526D01*
X163849Y125527D01*
X163961Y125694D01*
X164005Y125916D01*
X164013Y125947D01*
X164017Y125979D01*
X164062Y126201D01*
X164038Y126318D01*
X164238Y126517D01*
X164562Y126194D01*
X164661Y125694D01*
X164949Y125264D01*
X165379Y124976D01*
X165886Y124875D01*
X166393Y124976D01*
X166612Y125122D01*
X166625Y125131D01*
X166631Y125136D01*
X166823Y125264D01*
X166942Y125442D01*
X166947Y125448D01*
X166967Y125480D01*
X167110Y125694D01*
X167155Y125918D01*
X167166Y125967D01*
X167170Y125991D01*
X167211Y126201D01*
X167172Y126399D01*
X167169Y126418D01*
X167149Y126514D01*
X167110Y126708D01*
X166996Y126880D01*
X166958Y126940D01*
X166936Y126969D01*
X166823Y127138D01*
X166659Y127248D01*
X166640Y127262D01*
X166545Y127324D01*
X166545Y127324D01*
X166393Y127425D01*
X166189Y127466D01*
X166122Y127481D01*
X166088Y127486D01*
X165886Y127526D01*
X165885Y127526D01*
X164698Y128715D01*
X164422D01*
X164352Y128721D01*
X164285Y128739D01*
X164222Y128768D01*
X164164Y128808D01*
X164115Y128858D01*
X164075Y128915D01*
X164046Y128978D01*
X164028Y129045D01*
X164022Y129115D01*
X164025Y129169D01*
X164062Y129350D01*
X164023Y129545D01*
X164010Y129622D01*
X164000Y129662D01*
X163961Y129858D01*
X163854Y130018D01*
X163841Y130041D01*
X163776Y130134D01*
X163774Y130138D01*
X163673Y130288D01*
X163511Y130396D01*
X163446Y130443D01*
X163409Y130465D01*
X163243Y130575D01*
X163054Y130613D01*
X163029Y130620D01*
X162918Y130640D01*
X162914Y130640D01*
X162736Y130676D01*
X162537Y130636D01*
X162466Y130624D01*
X162428Y130615D01*
X162229Y130575D01*
X162064Y130465D01*
X162047Y130455D01*
X161953Y130391D01*
X161953Y130391D01*
X161799Y130288D01*
X161678Y130107D01*
X161645Y130060D01*
X161629Y130033D01*
X161512Y129858D01*
X161472Y129658D01*
X161468Y129644D01*
X161453Y129563D01*
X161411Y129350D01*
X161447Y129166D01*
X161451Y129135D01*
X161449Y129065D01*
X161434Y128997D01*
X161408Y128933D01*
X161371Y128874D01*
X161324Y128822D01*
X161269Y128779D01*
X161207Y128746D01*
X161141Y128725D01*
X161072Y128715D01*
X160245Y128715D01*
X160335Y128850D01*
X159587D01*
Y129850D01*
X160335D01*
X160236Y129999D01*
X159938Y130198D01*
X159587Y130268D01*
X159235Y130198D01*
X159137Y130132D01*
Y130197D01*
X159975Y131035D01*
Y131389D01*
X160637Y132051D01*
X164650D01*
X164661Y131993D01*
X164818Y131758D01*
X164828Y131743D01*
X164830Y131740D01*
X164949Y131563D01*
X165139Y131435D01*
X165151Y131426D01*
X165173Y131413D01*
X165379Y131275D01*
X165641Y131223D01*
X165674Y131216D01*
X165679Y131216D01*
X165886Y131175D01*
X166103Y131218D01*
X166127Y131221D01*
X166165Y131230D01*
X166393Y131275D01*
X166562Y131388D01*
X166645Y131442D01*
X166656Y131451D01*
X166823Y131563D01*
X166938Y131734D01*
X166961Y131766D01*
X166996Y131821D01*
X167110Y131993D01*
X167146Y132171D01*
X167148Y132177D01*
X167171Y132289D01*
X167174Y132314D01*
X167211Y132500D01*
X167174Y132689D01*
X167166Y132741D01*
X167147Y132826D01*
X167110Y133007D01*
X167070Y133068D01*
X167063Y133099D01*
X167060Y133168D01*
X167069Y133238D01*
X167090Y133304D01*
X167122Y133366D01*
X167165Y133421D01*
X167216Y133468D01*
X167275Y133506D01*
X167340Y133532D01*
X167408Y133547D01*
X167460Y133551D01*
X172637D01*
X176984Y137898D01*
X177037Y137943D01*
X177098Y137977D01*
X177163Y138001D01*
X177232Y138013D01*
X177302D01*
X177370Y138001D01*
X177436Y137977D01*
X177491Y137945D01*
X177547Y137862D01*
X177977Y137575D01*
X178484Y137474D01*
X178693Y137515D01*
X178694Y137515D01*
X178700Y137517D01*
X178991Y137575D01*
X179172Y137695D01*
X179218Y137724D01*
X179249Y137747D01*
X179421Y137862D01*
X179525Y138017D01*
X179542Y138039D01*
X179604Y138133D01*
X179612Y138147D01*
X179709Y138292D01*
X179740Y138450D01*
X179765Y138556D01*
X179777Y138634D01*
X179810Y138799D01*
X179778Y138961D01*
X179772Y139008D01*
X179749Y139119D01*
X179740Y139149D01*
X179709Y139306D01*
X179626Y139430D01*
X179624Y139435D01*
X179564Y139532D01*
X179507Y139608D01*
X179421Y139736D01*
X179354Y139782D01*
X179329Y139817D01*
X179298Y139879D01*
X179280Y139946D01*
X179273Y140016D01*
X179278Y140085D01*
X179295Y140153D01*
X179324Y140217D01*
X179363Y140274D01*
X179637Y140551D01*
X195137D01*
X196137Y139551D01*
D02*
G37*
G36*
X180633Y113556D02*
Y109139D01*
X180635Y91054D01*
X179635Y90054D01*
X174584D01*
X174514Y90060D01*
X174447Y90078D01*
X174384Y90108D01*
X174327Y90148D01*
X174277Y90197D01*
X174237Y90254D01*
X174208Y90317D01*
X174190Y90385D01*
X174186Y90432D01*
X174209Y90551D01*
X174174Y90729D01*
X174160Y90816D01*
X174144Y90880D01*
X174108Y91058D01*
X174013Y91201D01*
X173994Y91236D01*
X173930Y91330D01*
X173912Y91352D01*
X173821Y91488D01*
X173696Y91572D01*
X173693Y91575D01*
X173601Y91641D01*
X173520Y91690D01*
X173391Y91776D01*
X173234Y91807D01*
X173186Y91821D01*
X173075Y91842D01*
X173040Y91846D01*
X172884Y91877D01*
X172737Y91847D01*
X172735Y91847D01*
X172623Y91829D01*
X172534Y91807D01*
X172377Y91776D01*
X172234Y91681D01*
X172202Y91663D01*
X172108Y91599D01*
X172089Y91584D01*
X171947Y91488D01*
X171843Y91333D01*
X171798Y91271D01*
X171768Y91221D01*
X171659Y91058D01*
X171621Y90866D01*
X171618Y90855D01*
X171597Y90744D01*
X171596Y90742D01*
X171558Y90551D01*
X171583Y90425D01*
X171577Y90373D01*
X171557Y90306D01*
X171526Y90244D01*
X171484Y90188D01*
X171433Y90140D01*
X171375Y90102D01*
X171311Y90074D01*
X171243Y90058D01*
X171186Y90054D01*
X161135D01*
X159635Y91554D01*
X153393D01*
X153300Y91572D01*
X143116D01*
X142635Y92054D01*
Y96054D01*
X143135Y96554D01*
X159460D01*
X159587Y96529D01*
X159707Y96553D01*
X162610Y96554D01*
X162736Y96529D01*
X162863Y96554D01*
X164135Y96554D01*
X167608Y100027D01*
X167661Y100072D01*
X167722Y100107D01*
X167787Y100130D01*
X167856Y100143D01*
X167926D01*
X167994Y100130D01*
X168060Y100107D01*
X168079Y100095D01*
X168098Y100067D01*
X168247Y99967D01*
X168247Y99967D01*
X168340Y99903D01*
X168365Y99889D01*
X168528Y99779D01*
X168728Y99740D01*
X168759Y99731D01*
X168832Y99719D01*
X169035Y99678D01*
X169243Y99720D01*
X169323Y99734D01*
X169342Y99739D01*
X169543Y99779D01*
X169720Y99898D01*
X169739Y99909D01*
X169781Y99939D01*
X169973Y100067D01*
X170106Y100267D01*
X170136Y100310D01*
X170142Y100321D01*
X170260Y100497D01*
X170303Y100712D01*
X170307Y100728D01*
X170314Y100767D01*
X170361Y101004D01*
X170312Y101248D01*
X170304Y101292D01*
X170301Y101302D01*
X170260Y101511D01*
X170139Y101692D01*
X170129Y101709D01*
X170104Y101744D01*
X169973Y101941D01*
X169782Y102069D01*
X169729Y102105D01*
X169715Y102113D01*
X169543Y102228D01*
X169337Y102269D01*
X169310Y102276D01*
X169249Y102287D01*
X169035Y102329D01*
X168857Y102294D01*
X168635Y102293D01*
Y102638D01*
X168637Y102865D01*
Y105166D01*
Y105443D01*
Y106015D01*
X168848D01*
X169035Y105978D01*
X169289Y106028D01*
X169314Y106033D01*
X169323Y106035D01*
X169543Y106079D01*
X169732Y106205D01*
X169732Y106205D01*
X169733Y106206D01*
X169973Y106366D01*
X170260Y106796D01*
X170361Y107303D01*
X170306Y107580D01*
X170305Y107585D01*
X170305Y107587D01*
X170260Y107810D01*
X170137Y107994D01*
X170132Y108003D01*
X170115Y108027D01*
X169973Y108240D01*
X169784Y108367D01*
X169734Y108402D01*
X169716Y108412D01*
X169543Y108528D01*
X169347Y108567D01*
X169316Y108575D01*
X169218Y108592D01*
X169035Y108629D01*
X168960Y108614D01*
X168899Y108630D01*
X168836Y108660D01*
X168779Y108700D01*
X168730Y108750D01*
X168690Y108807D01*
X168660Y108870D01*
X168642Y108938D01*
X168637Y109006D01*
Y112786D01*
X168684Y112755D01*
X169035Y112685D01*
X169387Y112755D01*
X169684Y112953D01*
X169784Y113102D01*
X169035D01*
Y114102D01*
X169784D01*
X169684Y114251D01*
X169387Y114450D01*
X169090Y114509D01*
X169133Y114552D01*
X170574D01*
X170643Y114546D01*
X170710Y114528D01*
X170774Y114498D01*
X170831Y114458D01*
X170880Y114409D01*
X170920Y114352D01*
X170949Y114289D01*
X170968Y114221D01*
X170974Y114152D01*
X170971Y114126D01*
X170960Y114110D01*
X170927Y113940D01*
X170919Y113915D01*
X170897Y113804D01*
X170894Y113775D01*
X170860Y113602D01*
X170896Y113419D01*
X170906Y113351D01*
X170923Y113281D01*
X170960Y113095D01*
X171064Y112941D01*
X171070Y112929D01*
X171133Y112835D01*
X171142Y112823D01*
X171248Y112665D01*
X171425Y112547D01*
X171460Y112521D01*
X171498Y112498D01*
X171678Y112378D01*
X171871Y112339D01*
X171874Y112339D01*
X171985Y112316D01*
X171989Y112316D01*
X172185Y112277D01*
X172407Y112321D01*
X172438Y112326D01*
X172469Y112333D01*
X172692Y112378D01*
X172858Y112488D01*
X172859Y112489D01*
X172954Y112552D01*
X172957Y112555D01*
X173122Y112665D01*
X173243Y112847D01*
X173267Y112879D01*
X173289Y112915D01*
X173410Y113095D01*
X173447Y113282D01*
X173450Y113293D01*
X173472Y113404D01*
X173474Y113417D01*
X173511Y113602D01*
X173473Y113792D01*
X173463Y113857D01*
X173447Y113924D01*
X173410Y114110D01*
X173398Y114127D01*
X173396Y114161D01*
X173403Y114230D01*
X173423Y114297D01*
X173454Y114360D01*
X173495Y114416D01*
X173546Y114464D01*
X173603Y114503D01*
X173667Y114531D01*
X173735Y114547D01*
X173796Y114552D01*
X179637D01*
X180633Y113556D01*
D02*
G37*
G36*
X193015Y104672D02*
X193008Y104661D01*
X192967Y104456D01*
X192961Y104434D01*
X192950Y104374D01*
X192907Y104154D01*
X192952Y103928D01*
X192962Y103871D01*
X192967Y103853D01*
X193008Y103646D01*
X193126Y103469D01*
X193135Y103453D01*
X193165Y103411D01*
X193295Y103216D01*
X193490Y103086D01*
X193534Y103055D01*
X193549Y103047D01*
X193633Y102991D01*
Y102167D01*
X193553Y102114D01*
X193534Y102103D01*
X193477Y102063D01*
X193295Y101941D01*
X193170Y101755D01*
X193135Y101705D01*
X193124Y101686D01*
X193008Y101511D01*
X192967Y101306D01*
X192962Y101287D01*
X192951Y101226D01*
X192907Y101004D01*
X192951Y100781D01*
X192961Y100724D01*
X192967Y100704D01*
X193008Y100497D01*
X193124Y100323D01*
X193134Y100306D01*
X193171Y100253D01*
X193295Y100067D01*
X193478Y99944D01*
X193532Y99907D01*
X193552Y99895D01*
X193633Y99841D01*
Y94054D01*
X196133Y91554D01*
Y91050D01*
X196033Y91200D01*
X195884Y91299D01*
Y90551D01*
X195384D01*
Y90051D01*
X194635D01*
X194735Y89902D01*
X195033Y89703D01*
X195384Y89634D01*
X195735Y89703D01*
X195877Y89798D01*
X195633Y89554D01*
X187633D01*
X187384Y89803D01*
X187533Y89703D01*
X187884Y89634D01*
X188235Y89703D01*
X188533Y89902D01*
X188632Y90051D01*
X187884D01*
Y90551D01*
X187384D01*
Y91299D01*
X187235Y91200D01*
X187133Y91047D01*
Y91554D01*
X188633Y93054D01*
Y99906D01*
X188633Y99906D01*
X188687Y99945D01*
X188870Y100067D01*
X188995Y100253D01*
X189031Y100305D01*
X189041Y100323D01*
X189158Y100497D01*
X189199Y100703D01*
X189204Y100723D01*
X189214Y100781D01*
X189259Y101004D01*
X189214Y101227D01*
X189204Y101286D01*
X189199Y101305D01*
X189158Y101511D01*
X189041Y101686D01*
X189031Y101704D01*
X188995Y101755D01*
X188870Y101941D01*
X188690Y102061D01*
X188633Y102102D01*
Y102885D01*
X188633Y102884D01*
X188741Y102951D01*
X188843Y103026D01*
X188938Y103109D01*
X189025Y103201D01*
X189104Y103300D01*
X189175Y103405D01*
X189235Y103517D01*
X189286Y103633D01*
X189327Y103753D01*
X189356Y103876D01*
X189375Y104001D01*
X189383Y104128D01*
X189380Y104254D01*
X189366Y104380D01*
X189341Y104504D01*
X189318Y104588D01*
X189282Y104703D01*
X189633Y105054D01*
X190996D01*
X190732Y105001D01*
X190434Y104802D01*
X190334Y104654D01*
X191831D01*
X191732Y104802D01*
X191434Y105001D01*
X191169Y105054D01*
X192633D01*
X193015Y104672D01*
D02*
G37*
G36*
X187136Y90051D02*
X187133Y90054D01*
Y90056D01*
X187136Y90051D01*
D02*
G37*
%LPC*%
G36*
X160087Y142697D02*
Y142449D01*
X160335D01*
X160236Y142598D01*
X160087Y142697D01*
D02*
G37*
G36*
X159087D02*
X158938Y142598D01*
X158838Y142449D01*
X159087D01*
Y142697D01*
D02*
G37*
G36*
X131900Y142299D02*
Y142051D01*
X132148D01*
X132049Y142200D01*
X131900Y142299D01*
D02*
G37*
G36*
X160335Y141449D02*
X160087D01*
Y141200D01*
X160236Y141300D01*
X160335Y141449D01*
D02*
G37*
G36*
X159087D02*
X158838D01*
X158938Y141300D01*
X159087Y141200D01*
Y141449D01*
D02*
G37*
G36*
X132148Y141051D02*
X131900D01*
Y140803D01*
X132049Y140902D01*
X132148Y141051D01*
D02*
G37*
G36*
X165886Y143274D02*
X165379Y143173D01*
X164949Y142886D01*
X164661Y142456D01*
X164560Y141949D01*
X164661Y141442D01*
X164949Y141012D01*
X165379Y140724D01*
X165886Y140623D01*
X166393Y140724D01*
X166823Y141012D01*
X167110Y141442D01*
X167211Y141949D01*
X167110Y142456D01*
X166823Y142886D01*
X166393Y143173D01*
X165886Y143274D01*
D02*
G37*
G36*
X162736D02*
X162229Y143173D01*
X161799Y142886D01*
X161512Y142456D01*
X161411Y141949D01*
X161512Y141442D01*
X161799Y141012D01*
X162229Y140724D01*
X162736Y140623D01*
X163243Y140724D01*
X163673Y141012D01*
X163961Y141442D01*
X164062Y141949D01*
X163961Y142456D01*
X163673Y142886D01*
X163243Y143173D01*
X162736Y143274D01*
D02*
G37*
G36*
X131900Y139799D02*
Y139551D01*
X132148D01*
X132049Y139700D01*
X131900Y139799D01*
D02*
G37*
G36*
X151634Y139877D02*
X151127Y139776D01*
X150697Y139488D01*
X150409Y139058D01*
X150384Y138931D01*
X150358Y139058D01*
X150071Y139488D01*
X149641Y139776D01*
X149134Y139877D01*
X148627Y139776D01*
X148197Y139488D01*
X147909Y139058D01*
X147884Y138931D01*
X147858Y139058D01*
X147571Y139488D01*
X147141Y139776D01*
X146634Y139877D01*
X146127Y139776D01*
X145697Y139488D01*
X145409Y139058D01*
X145308Y138551D01*
X145409Y138044D01*
X145697Y137614D01*
X146127Y137327D01*
X146634Y137226D01*
X147141Y137327D01*
X147571Y137614D01*
X147858Y138044D01*
X147884Y138172D01*
X147909Y138044D01*
X148197Y137614D01*
X148627Y137327D01*
X149134Y137226D01*
X149641Y137327D01*
X150071Y137614D01*
X150358Y138044D01*
X150384Y138172D01*
X150409Y138044D01*
X150697Y137614D01*
X151127Y137327D01*
X151634Y137226D01*
X152141Y137327D01*
X152571Y137614D01*
X152858Y138044D01*
X152959Y138551D01*
X152858Y139058D01*
X152571Y139488D01*
X152141Y139776D01*
X151634Y139877D01*
D02*
G37*
G36*
X132148Y138551D02*
X131900D01*
Y138303D01*
X132049Y138402D01*
X132148Y138551D01*
D02*
G37*
G36*
X141600Y142877D02*
X141093Y142776D01*
X140663Y142488D01*
X140375Y142058D01*
X140275Y141551D01*
X140375Y141044D01*
X140663Y140614D01*
X141093Y140327D01*
X141221Y140301D01*
X141093Y140276D01*
X140663Y139988D01*
X140375Y139558D01*
X140275Y139051D01*
X140375Y138544D01*
X140663Y138114D01*
X141093Y137827D01*
X141600Y137726D01*
X142107Y137827D01*
X142537Y138114D01*
X142825Y138544D01*
X142926Y139051D01*
X142825Y139558D01*
X142537Y139988D01*
X142107Y140276D01*
X141979Y140301D01*
X142107Y140327D01*
X142537Y140614D01*
X142825Y141044D01*
X142926Y141551D01*
X142825Y142058D01*
X142537Y142488D01*
X142107Y142776D01*
X141600Y142877D01*
D02*
G37*
G36*
X165886Y140125D02*
X165379Y140024D01*
X164949Y139736D01*
X164661Y139306D01*
X164560Y138799D01*
X164661Y138292D01*
X164949Y137862D01*
X165379Y137575D01*
X165886Y137474D01*
X166393Y137575D01*
X166823Y137862D01*
X167110Y138292D01*
X167211Y138799D01*
X167110Y139306D01*
X166823Y139736D01*
X166393Y140024D01*
X165886Y140125D01*
D02*
G37*
G36*
X162736D02*
X162229Y140024D01*
X161799Y139736D01*
X161512Y139306D01*
X161411Y138799D01*
X161512Y138292D01*
X161799Y137862D01*
X162229Y137575D01*
X162736Y137474D01*
X163243Y137575D01*
X163673Y137862D01*
X163961Y138292D01*
X164062Y138799D01*
X163961Y139306D01*
X163673Y139736D01*
X163243Y140024D01*
X162736Y140125D01*
D02*
G37*
G36*
X159587D02*
X159079Y140024D01*
X158649Y139736D01*
X158362Y139306D01*
X158261Y138799D01*
X158362Y138292D01*
X158649Y137862D01*
X159079Y137575D01*
X159587Y137474D01*
X160094Y137575D01*
X160524Y137862D01*
X160811Y138292D01*
X160912Y138799D01*
X160811Y139306D01*
X160524Y139736D01*
X160094Y140024D01*
X159587Y140125D01*
D02*
G37*
G36*
X156437D02*
X155930Y140024D01*
X155500Y139736D01*
X155212Y139306D01*
X155112Y138799D01*
X155212Y138292D01*
X155500Y137862D01*
X155930Y137575D01*
X156437Y137474D01*
X156944Y137575D01*
X157374Y137862D01*
X157662Y138292D01*
X157763Y138799D01*
X157662Y139306D01*
X157374Y139736D01*
X156944Y140024D01*
X156437Y140125D01*
D02*
G37*
G36*
X160087Y136398D02*
Y136150D01*
X160335D01*
X160236Y136299D01*
X160087Y136398D01*
D02*
G37*
G36*
X159087D02*
X158938Y136299D01*
X158838Y136150D01*
X159087D01*
Y136398D01*
D02*
G37*
G36*
X194232Y140125D02*
X193725Y140024D01*
X193295Y139736D01*
X193008Y139306D01*
X192907Y138799D01*
X193008Y138292D01*
X193295Y137862D01*
X193725Y137575D01*
X194232Y137474D01*
X194739Y137575D01*
X195169Y137862D01*
X195457Y138292D01*
X195558Y138799D01*
X195457Y139306D01*
X195169Y139736D01*
X194739Y140024D01*
X194232Y140125D01*
D02*
G37*
G36*
X191083D02*
X190575Y140024D01*
X190145Y139736D01*
X189858Y139306D01*
X189757Y138799D01*
X189858Y138292D01*
X190145Y137862D01*
X190575Y137575D01*
X191083Y137474D01*
X191590Y137575D01*
X192020Y137862D01*
X192307Y138292D01*
X192408Y138799D01*
X192307Y139306D01*
X192020Y139736D01*
X191590Y140024D01*
X191083Y140125D01*
D02*
G37*
G36*
X184783D02*
X184276Y140024D01*
X183846Y139736D01*
X183559Y139306D01*
X183458Y138799D01*
X183559Y138292D01*
X183846Y137862D01*
X184276Y137575D01*
X184783Y137474D01*
X185291Y137575D01*
X185721Y137862D01*
X186008Y138292D01*
X186109Y138799D01*
X186008Y139306D01*
X185721Y139736D01*
X185291Y140024D01*
X184783Y140125D01*
D02*
G37*
G36*
X185284Y136398D02*
Y136150D01*
X185532D01*
X185432Y136299D01*
X185284Y136398D01*
D02*
G37*
G36*
X184283D02*
X184135Y136299D01*
X184035Y136150D01*
X184283D01*
Y136398D01*
D02*
G37*
G36*
X185532Y135150D02*
X185284D01*
Y134901D01*
X185432Y135001D01*
X185532Y135150D01*
D02*
G37*
G36*
X184283D02*
X184035D01*
X184135Y135001D01*
X184283Y134901D01*
Y135150D01*
D02*
G37*
G36*
X191083Y136975D02*
X190575Y136874D01*
X190145Y136587D01*
X189858Y136157D01*
X189757Y135650D01*
X189858Y135142D01*
X190145Y134712D01*
X190575Y134425D01*
X191083Y134324D01*
X191590Y134425D01*
X192020Y134712D01*
X192307Y135142D01*
X192408Y135650D01*
X192307Y136157D01*
X192020Y136587D01*
X191590Y136874D01*
X191083Y136975D01*
D02*
G37*
G36*
X178484D02*
X177977Y136874D01*
X177547Y136587D01*
X177260Y136157D01*
X177159Y135650D01*
X177260Y135142D01*
X177547Y134712D01*
X177977Y134425D01*
X178484Y134324D01*
X178991Y134425D01*
X179421Y134712D01*
X179709Y135142D01*
X179810Y135650D01*
X179709Y136157D01*
X179421Y136587D01*
X178991Y136874D01*
X178484Y136975D01*
D02*
G37*
G36*
X172685Y133248D02*
Y133000D01*
X172933D01*
X172834Y133149D01*
X172685Y133248D01*
D02*
G37*
G36*
X171685D02*
X171536Y133149D01*
X171437Y133000D01*
X171685D01*
Y133248D01*
D02*
G37*
G36*
X169535D02*
Y133000D01*
X169784D01*
X169684Y133149D01*
X169535Y133248D01*
D02*
G37*
G36*
X168535D02*
X168387Y133149D01*
X168287Y133000D01*
X168535D01*
Y133248D01*
D02*
G37*
G36*
X172933Y132000D02*
X172685D01*
Y131752D01*
X172834Y131851D01*
X172933Y132000D01*
D02*
G37*
G36*
X171685D02*
X171437D01*
X171536Y131851D01*
X171685Y131752D01*
Y132000D01*
D02*
G37*
G36*
X169784D02*
X169535D01*
Y131752D01*
X169684Y131851D01*
X169784Y132000D01*
D02*
G37*
G36*
X168535D02*
X168287D01*
X168387Y131851D01*
X168535Y131752D01*
Y132000D01*
D02*
G37*
G36*
X191083Y133826D02*
X190575Y133725D01*
X190145Y133437D01*
X189858Y133007D01*
X189757Y132500D01*
X189858Y131993D01*
X190145Y131563D01*
X190575Y131275D01*
X191083Y131175D01*
X191590Y131275D01*
X192020Y131563D01*
X192307Y131993D01*
X192408Y132500D01*
X192307Y133007D01*
X192020Y133437D01*
X191590Y133725D01*
X191083Y133826D01*
D02*
G37*
G36*
X184783D02*
X184276Y133725D01*
X183846Y133437D01*
X183559Y133007D01*
X183458Y132500D01*
X183559Y131993D01*
X183846Y131563D01*
X184276Y131275D01*
X184783Y131175D01*
X185291Y131275D01*
X185721Y131563D01*
X186008Y131993D01*
X186109Y132500D01*
X186008Y133007D01*
X185721Y133437D01*
X185291Y133725D01*
X184783Y133826D01*
D02*
G37*
G36*
X178484D02*
X177977Y133725D01*
X177547Y133437D01*
X177260Y133007D01*
X177159Y132500D01*
X177260Y131993D01*
X177547Y131563D01*
X177977Y131275D01*
X178484Y131175D01*
X178991Y131275D01*
X179421Y131563D01*
X179709Y131993D01*
X179810Y132500D01*
X179709Y133007D01*
X179421Y133437D01*
X178991Y133725D01*
X178484Y133826D01*
D02*
G37*
G36*
X188433Y130099D02*
Y129850D01*
X188681D01*
X188582Y129999D01*
X188433Y130099D01*
D02*
G37*
G36*
X187433D02*
X187284Y129999D01*
X187185Y129850D01*
X187433D01*
Y130099D01*
D02*
G37*
G36*
X185284D02*
Y129850D01*
X185532D01*
X185432Y129999D01*
X185284Y130099D01*
D02*
G37*
G36*
X184283D02*
X184135Y129999D01*
X184035Y129850D01*
X184283D01*
Y130099D01*
D02*
G37*
G36*
X178984D02*
Y129850D01*
X179233D01*
X179133Y129999D01*
X178984Y130099D01*
D02*
G37*
G36*
X177984D02*
X177835Y129999D01*
X177736Y129850D01*
X177984D01*
Y130099D01*
D02*
G37*
G36*
X188681Y128850D02*
X188433D01*
Y128602D01*
X188582Y128702D01*
X188681Y128850D01*
D02*
G37*
G36*
X187433D02*
X187185D01*
X187284Y128702D01*
X187433Y128602D01*
Y128850D01*
D02*
G37*
G36*
X185532D02*
X185284D01*
Y128602D01*
X185432Y128702D01*
X185532Y128850D01*
D02*
G37*
G36*
X184283D02*
X184035D01*
X184135Y128702D01*
X184283Y128602D01*
Y128850D01*
D02*
G37*
G36*
X179233D02*
X178984D01*
Y128602D01*
X179133Y128702D01*
X179233Y128850D01*
D02*
G37*
G36*
X177984D02*
X177736D01*
X177835Y128702D01*
X177984Y128602D01*
Y128850D01*
D02*
G37*
G36*
X191083Y130676D02*
X190575Y130575D01*
X190145Y130288D01*
X189858Y129858D01*
X189757Y129350D01*
X189858Y128843D01*
X190145Y128413D01*
X190575Y128126D01*
X191083Y128025D01*
X191590Y128126D01*
X192020Y128413D01*
X192307Y128843D01*
X192408Y129350D01*
X192307Y129858D01*
X192020Y130288D01*
X191590Y130575D01*
X191083Y130676D01*
D02*
G37*
G36*
X175335D02*
X174827Y130575D01*
X174397Y130288D01*
X174110Y129858D01*
X174009Y129350D01*
X174110Y128843D01*
X174397Y128413D01*
X174827Y128126D01*
X175335Y128025D01*
X175842Y128126D01*
X176272Y128413D01*
X176559Y128843D01*
X176660Y129350D01*
X176559Y129858D01*
X176272Y130288D01*
X175842Y130575D01*
X175335Y130676D01*
D02*
G37*
G36*
X172185D02*
X171678Y130575D01*
X171248Y130288D01*
X170960Y129858D01*
X170860Y129350D01*
X170960Y128843D01*
X171248Y128413D01*
X171678Y128126D01*
X172185Y128025D01*
X172692Y128126D01*
X173122Y128413D01*
X173410Y128843D01*
X173511Y129350D01*
X173410Y129858D01*
X173122Y130288D01*
X172692Y130575D01*
X172185Y130676D01*
D02*
G37*
G36*
X187433Y126950D02*
X187284Y126850D01*
X187185Y126701D01*
X187433D01*
Y126950D01*
D02*
G37*
G36*
X188433D02*
Y126701D01*
X188681D01*
X188582Y126850D01*
X188433Y126950D01*
D02*
G37*
G36*
X175835Y126949D02*
Y126701D01*
X176083D01*
X175984Y126850D01*
X175835Y126949D01*
D02*
G37*
G36*
X174835D02*
X174686Y126850D01*
X174586Y126701D01*
X174835D01*
Y126949D01*
D02*
G37*
G36*
X187933Y126201D02*
X187933D01*
Y126201D01*
X187933D01*
Y126201D01*
D02*
G37*
G36*
X188681Y125701D02*
X188433D01*
Y125452D01*
X188582Y125552D01*
X188681Y125701D01*
D02*
G37*
G36*
X187433Y125701D02*
X187185D01*
X187284Y125552D01*
X187433Y125452D01*
Y125701D01*
D02*
G37*
G36*
X176083Y125701D02*
X175835D01*
Y125452D01*
X175984Y125552D01*
X176083Y125701D01*
D02*
G37*
G36*
X174835D02*
X174586D01*
X174686Y125552D01*
X174835Y125452D01*
Y125701D01*
D02*
G37*
G36*
X194234Y127119D02*
X193883Y127049D01*
X193883Y127049D01*
X193881Y127049D01*
X193583Y126850D01*
X193484Y126701D01*
X194232D01*
Y125701D01*
X193484D01*
X193583Y125552D01*
X193881Y125353D01*
X194232Y125283D01*
X194583Y125353D01*
X194583Y125353D01*
X194585Y125353D01*
X194883Y125552D01*
X194982Y125701D01*
X194234D01*
Y126701D01*
X194982D01*
X194883Y126850D01*
X194585Y127049D01*
X194234Y127119D01*
D02*
G37*
G36*
X184784Y127527D02*
X184277Y127426D01*
X183847Y127138D01*
X183846Y127138D01*
X183846Y127138D01*
X183559Y126708D01*
X183458Y126201D01*
X183559Y125694D01*
X183846Y125264D01*
X184276Y124976D01*
X184783Y124875D01*
X185291Y124976D01*
X185721Y125264D01*
X185721Y125264D01*
X185721Y125264D01*
X186008Y125694D01*
X186109Y126201D01*
X186008Y126708D01*
X185721Y127138D01*
X185291Y127426D01*
X184784Y127527D01*
D02*
G37*
G36*
X178484Y127526D02*
X177977Y127425D01*
X177547Y127138D01*
X177260Y126708D01*
X177159Y126201D01*
X177260Y125694D01*
X177547Y125264D01*
X177977Y124976D01*
X178484Y124875D01*
X178991Y124976D01*
X179421Y125264D01*
X179709Y125694D01*
X179810Y126201D01*
X179709Y126708D01*
X179421Y127138D01*
X178991Y127425D01*
X178484Y127526D01*
D02*
G37*
G36*
X172185D02*
X171678Y127425D01*
X171248Y127138D01*
X170960Y126708D01*
X170860Y126201D01*
X170960Y125694D01*
X171248Y125264D01*
X171678Y124976D01*
X172185Y124875D01*
X172692Y124976D01*
X173122Y125264D01*
X173410Y125694D01*
X173511Y126201D01*
X173410Y126708D01*
X173122Y127138D01*
X172692Y127425D01*
X172185Y127526D01*
D02*
G37*
G36*
X169035D02*
X168528Y127425D01*
X168098Y127138D01*
X167811Y126708D01*
X167710Y126201D01*
X167811Y125694D01*
X168098Y125264D01*
X168528Y124976D01*
X169035Y124875D01*
X169543Y124976D01*
X169973Y125264D01*
X170260Y125694D01*
X170361Y126201D01*
X170260Y126708D01*
X169973Y127138D01*
X169543Y127425D01*
X169035Y127526D01*
D02*
G37*
G36*
X181634Y124377D02*
X181127Y124276D01*
X180697Y123988D01*
X180409Y123558D01*
X180308Y123051D01*
X180409Y122544D01*
X180697Y122114D01*
X181127Y121827D01*
X181634Y121726D01*
X182141Y121827D01*
X182571Y122114D01*
X182858Y122544D01*
X182959Y123051D01*
X182858Y123558D01*
X182571Y123988D01*
X182141Y124276D01*
X181634Y124377D01*
D02*
G37*
G36*
X172685Y120650D02*
Y120402D01*
X172933D01*
X172834Y120551D01*
X172685Y120650D01*
D02*
G37*
G36*
X171685D02*
X171536Y120551D01*
X171437Y120402D01*
X171685D01*
Y120650D01*
D02*
G37*
G36*
X172933Y119402D02*
X172685D01*
Y119153D01*
X172834Y119253D01*
X172933Y119402D01*
D02*
G37*
G36*
X171685D02*
X171437D01*
X171536Y119253D01*
X171685Y119153D01*
Y119402D01*
D02*
G37*
G36*
X194232Y121227D02*
X193725Y121126D01*
X193295Y120839D01*
X193008Y120409D01*
X192907Y119902D01*
X193008Y119394D01*
X193295Y118964D01*
X193725Y118677D01*
X194232Y118576D01*
X194739Y118677D01*
X195169Y118964D01*
X195457Y119394D01*
X195558Y119902D01*
X195457Y120409D01*
X195169Y120839D01*
X194739Y121126D01*
X194232Y121227D01*
D02*
G37*
G36*
X191083D02*
X190575Y121126D01*
X190145Y120839D01*
X189858Y120409D01*
X189757Y119902D01*
X189858Y119394D01*
X190145Y118964D01*
X190575Y118677D01*
X191083Y118576D01*
X191590Y118677D01*
X192020Y118964D01*
X192307Y119394D01*
X192408Y119902D01*
X192307Y120409D01*
X192020Y120839D01*
X191590Y121126D01*
X191083Y121227D01*
D02*
G37*
G36*
X187933D02*
X187426Y121126D01*
X186996Y120839D01*
X186708Y120409D01*
X186608Y119902D01*
X186708Y119394D01*
X186996Y118964D01*
X187426Y118677D01*
X187933Y118576D01*
X188440Y118677D01*
X188870Y118964D01*
X189158Y119394D01*
X189259Y119902D01*
X189158Y120409D01*
X188870Y120839D01*
X188440Y121126D01*
X187933Y121227D01*
D02*
G37*
G36*
X184783D02*
X184276Y121126D01*
X183846Y120839D01*
X183559Y120409D01*
X183458Y119902D01*
X183559Y119394D01*
X183846Y118964D01*
X184276Y118677D01*
X184783Y118576D01*
X185291Y118677D01*
X185721Y118964D01*
X186008Y119394D01*
X186109Y119902D01*
X186008Y120409D01*
X185721Y120839D01*
X185291Y121126D01*
X184783Y121227D01*
D02*
G37*
G36*
X178484D02*
X177977Y121126D01*
X177547Y120839D01*
X177260Y120409D01*
X177159Y119902D01*
X177260Y119394D01*
X177547Y118964D01*
X177977Y118677D01*
X178484Y118576D01*
X178991Y118677D01*
X179421Y118964D01*
X179709Y119394D01*
X179810Y119902D01*
X179709Y120409D01*
X179421Y120839D01*
X178991Y121126D01*
X178484Y121227D01*
D02*
G37*
G36*
X175335D02*
X174827Y121126D01*
X174397Y120839D01*
X174110Y120409D01*
X174009Y119902D01*
X174110Y119394D01*
X174397Y118964D01*
X174827Y118677D01*
X175335Y118576D01*
X175842Y118677D01*
X176272Y118964D01*
X176559Y119394D01*
X176660Y119902D01*
X176559Y120409D01*
X176272Y120839D01*
X175842Y121126D01*
X175335Y121227D01*
D02*
G37*
G36*
X169035D02*
X168528Y121126D01*
X168098Y120839D01*
X167811Y120409D01*
X167710Y119902D01*
X167811Y119394D01*
X168098Y118964D01*
X168528Y118677D01*
X169035Y118576D01*
X169543Y118677D01*
X169973Y118964D01*
X170260Y119394D01*
X170361Y119902D01*
X170260Y120409D01*
X169973Y120839D01*
X169543Y121126D01*
X169035Y121227D01*
D02*
G37*
G36*
X165886D02*
X165379Y121126D01*
X164949Y120839D01*
X164661Y120409D01*
X164560Y119902D01*
X164661Y119394D01*
X164949Y118964D01*
X165379Y118677D01*
X165886Y118576D01*
X166393Y118677D01*
X166823Y118964D01*
X167110Y119394D01*
X167211Y119902D01*
X167110Y120409D01*
X166823Y120839D01*
X166393Y121126D01*
X165886Y121227D01*
D02*
G37*
G36*
X178984Y117500D02*
Y117252D01*
X179233D01*
X179133Y117401D01*
X178984Y117500D01*
D02*
G37*
G36*
X177984D02*
X177835Y117401D01*
X177736Y117252D01*
X177984D01*
Y117500D01*
D02*
G37*
G36*
X175835D02*
Y117252D01*
X176083D01*
X175984Y117401D01*
X175835Y117500D01*
D02*
G37*
G36*
X174835D02*
X174686Y117401D01*
X174586Y117252D01*
X174835D01*
Y117500D01*
D02*
G37*
G36*
X142134Y116550D02*
Y116301D01*
X142382D01*
X142283Y116450D01*
X142134Y116550D01*
D02*
G37*
G36*
X141134D02*
X140985Y116450D01*
X140885Y116301D01*
X141134D01*
Y116550D01*
D02*
G37*
G36*
X179233Y116252D02*
X178984D01*
Y116004D01*
X179133Y116103D01*
X179233Y116252D01*
D02*
G37*
G36*
X177984D02*
X177736D01*
X177835Y116103D01*
X177984Y116004D01*
Y116252D01*
D02*
G37*
G36*
X176083D02*
X175835D01*
Y116004D01*
X175984Y116103D01*
X176083Y116252D01*
D02*
G37*
G36*
X174835D02*
X174586D01*
X174686Y116103D01*
X174835Y116004D01*
Y116252D01*
D02*
G37*
G36*
X191083Y118078D02*
X190575Y117977D01*
X190145Y117689D01*
X189858Y117259D01*
X189757Y116752D01*
X189858Y116245D01*
X190145Y115815D01*
X190575Y115527D01*
X191083Y115427D01*
X191590Y115527D01*
X192020Y115815D01*
X192307Y116245D01*
X192408Y116752D01*
X192307Y117259D01*
X192020Y117689D01*
X191590Y117977D01*
X191083Y118078D01*
D02*
G37*
G36*
X187933D02*
X187426Y117977D01*
X186996Y117689D01*
X186708Y117259D01*
X186608Y116752D01*
X186708Y116245D01*
X186996Y115815D01*
X187426Y115527D01*
X187933Y115427D01*
X188440Y115527D01*
X188870Y115815D01*
X189158Y116245D01*
X189259Y116752D01*
X189158Y117259D01*
X188870Y117689D01*
X188440Y117977D01*
X187933Y118078D01*
D02*
G37*
G36*
X184783D02*
X184276Y117977D01*
X183846Y117689D01*
X183559Y117259D01*
X183458Y116752D01*
X183559Y116245D01*
X183846Y115815D01*
X184276Y115527D01*
X184783Y115427D01*
X185291Y115527D01*
X185721Y115815D01*
X186008Y116245D01*
X186109Y116752D01*
X186008Y117259D01*
X185721Y117689D01*
X185291Y117977D01*
X184783Y118078D01*
D02*
G37*
G36*
X162736D02*
X162229Y117977D01*
X161799Y117689D01*
X161512Y117259D01*
X161411Y116752D01*
X161512Y116245D01*
X161799Y115815D01*
X162229Y115527D01*
X162736Y115427D01*
X163243Y115527D01*
X163673Y115815D01*
X163961Y116245D01*
X164062Y116752D01*
X163961Y117259D01*
X163673Y117689D01*
X163243Y117977D01*
X162736Y118078D01*
D02*
G37*
G36*
X142382Y115301D02*
X142134D01*
Y115053D01*
X142283Y115152D01*
X142382Y115301D01*
D02*
G37*
G36*
X141134D02*
X140885D01*
X140985Y115152D01*
X141134Y115053D01*
Y115301D01*
D02*
G37*
G36*
X194732Y114351D02*
Y114102D01*
X194981D01*
X194881Y114251D01*
X194732Y114351D01*
D02*
G37*
G36*
X193732D02*
X193583Y114251D01*
X193484Y114102D01*
X193732D01*
Y114351D01*
D02*
G37*
G36*
X191583D02*
Y114102D01*
X191831D01*
X191732Y114251D01*
X191583Y114351D01*
D02*
G37*
G36*
X190583D02*
X190434Y114251D01*
X190334Y114102D01*
X190583D01*
Y114351D01*
D02*
G37*
G36*
X156937Y114351D02*
Y114102D01*
X157185D01*
X157086Y114251D01*
X156937Y114351D01*
D02*
G37*
G36*
X155937D02*
X155788Y114251D01*
X155689Y114102D01*
X155937D01*
Y114351D01*
D02*
G37*
G36*
X142134Y113549D02*
Y113301D01*
X142382D01*
X142283Y113450D01*
X142134Y113549D01*
D02*
G37*
G36*
X141134D02*
X140985Y113450D01*
X140885Y113301D01*
X141134D01*
Y113549D01*
D02*
G37*
G36*
X194981Y113102D02*
X194732D01*
Y112854D01*
X194881Y112953D01*
X194981Y113102D01*
D02*
G37*
G36*
X193732D02*
X193484D01*
X193583Y112953D01*
X193732Y112854D01*
Y113102D01*
D02*
G37*
G36*
X191831D02*
X191583D01*
Y112854D01*
X191732Y112953D01*
X191831Y113102D01*
D02*
G37*
G36*
X190583D02*
X190334D01*
X190434Y112953D01*
X190583Y112854D01*
Y113102D01*
D02*
G37*
G36*
X157185Y113102D02*
X156937D01*
Y112854D01*
X157086Y112953D01*
X157185Y113102D01*
D02*
G37*
G36*
X155937D02*
X155689D01*
X155788Y112953D01*
X155937Y112854D01*
Y113102D01*
D02*
G37*
G36*
X184783Y114928D02*
X184276Y114827D01*
X183846Y114540D01*
X183559Y114110D01*
X183458Y113602D01*
X183559Y113095D01*
X183846Y112665D01*
X184276Y112378D01*
X184783Y112277D01*
X185291Y112378D01*
X185721Y112665D01*
X186008Y113095D01*
X186109Y113602D01*
X186008Y114110D01*
X185721Y114540D01*
X185291Y114827D01*
X184783Y114928D01*
D02*
G37*
G36*
X165886D02*
X165379Y114827D01*
X164949Y114540D01*
X164661Y114110D01*
X164560Y113602D01*
X164661Y113095D01*
X164949Y112665D01*
X165379Y112378D01*
X165886Y112277D01*
X166393Y112378D01*
X166823Y112665D01*
X167110Y113095D01*
X167211Y113602D01*
X167110Y114110D01*
X166823Y114540D01*
X166393Y114827D01*
X165886Y114928D01*
D02*
G37*
G36*
X162736D02*
X162229Y114827D01*
X161799Y114540D01*
X161512Y114110D01*
X161411Y113602D01*
X161512Y113095D01*
X161799Y112665D01*
X162229Y112378D01*
X162736Y112277D01*
X163243Y112378D01*
X163673Y112665D01*
X163961Y113095D01*
X164062Y113602D01*
X163961Y114110D01*
X163673Y114540D01*
X163243Y114827D01*
X162736Y114928D01*
D02*
G37*
G36*
X159587D02*
X159079Y114827D01*
X158649Y114540D01*
X158362Y114110D01*
X158261Y113602D01*
X158362Y113095D01*
X158649Y112665D01*
X159079Y112378D01*
X159587Y112277D01*
X160094Y112378D01*
X160524Y112665D01*
X160811Y113095D01*
X160912Y113602D01*
X160811Y114110D01*
X160524Y114540D01*
X160094Y114827D01*
X159587Y114928D01*
D02*
G37*
G36*
X146634Y114928D02*
X146127Y114827D01*
X145697Y114540D01*
X145409Y114110D01*
X145308Y113602D01*
X145409Y113095D01*
X145697Y112665D01*
X146127Y112378D01*
X146634Y112277D01*
X147141Y112378D01*
X147571Y112665D01*
X147859Y113095D01*
X147959Y113602D01*
X147859Y114110D01*
X147571Y114540D01*
X147141Y114827D01*
X146634Y114928D01*
D02*
G37*
G36*
X142382Y112301D02*
X142134D01*
Y112053D01*
X142283Y112152D01*
X142382Y112301D01*
D02*
G37*
G36*
X141134D02*
X140885D01*
X140985Y112152D01*
X141134Y112053D01*
Y112301D01*
D02*
G37*
G36*
X190583Y111201D02*
X190434Y111102D01*
X190334Y110953D01*
X190583D01*
Y111201D01*
D02*
G37*
G36*
X191583D02*
Y110951D01*
X191832D01*
X191733Y111100D01*
X191733Y111100D01*
X191732Y111102D01*
X191583Y111201D01*
D02*
G37*
G36*
X191084Y110453D02*
X191083D01*
Y110451D01*
X191084D01*
Y110453D01*
D02*
G37*
G36*
X191832Y109951D02*
X191584D01*
Y109703D01*
X191733Y109802D01*
X191832Y109951D01*
D02*
G37*
G36*
X190584Y109953D02*
X190334D01*
X190434Y109804D01*
X190434Y109804D01*
X190435Y109802D01*
X190584Y109703D01*
Y109953D01*
D02*
G37*
G36*
X162736Y111778D02*
X162229Y111677D01*
X161799Y111390D01*
X161512Y110960D01*
X161411Y110453D01*
X161512Y109946D01*
X161799Y109516D01*
X162229Y109228D01*
X162736Y109127D01*
X163243Y109228D01*
X163673Y109516D01*
X163961Y109946D01*
X164062Y110453D01*
X163961Y110960D01*
X163673Y111390D01*
X163243Y111677D01*
X162736Y111778D01*
D02*
G37*
G36*
X184783D02*
X184276Y111677D01*
X183846Y111390D01*
X183559Y110960D01*
X183458Y110453D01*
X183559Y109946D01*
X183559Y109945D01*
X183560Y109943D01*
X183847Y109513D01*
X184277Y109226D01*
X184784Y109125D01*
X185292Y109226D01*
X185722Y109513D01*
X186009Y109943D01*
X186110Y110450D01*
X186009Y110958D01*
X186008Y110958D01*
X186008Y110960D01*
X185721Y111390D01*
X185291Y111677D01*
X184783Y111778D01*
D02*
G37*
G36*
X165886Y108629D02*
X165379Y108528D01*
X164949Y108240D01*
X164661Y107810D01*
X164560Y107303D01*
X164661Y106796D01*
X164949Y106366D01*
X165379Y106079D01*
X165886Y105978D01*
X166393Y106079D01*
X166823Y106366D01*
X167110Y106796D01*
X167211Y107303D01*
X167110Y107810D01*
X166823Y108240D01*
X166393Y108528D01*
X165886Y108629D01*
D02*
G37*
G36*
X162736D02*
X162229Y108528D01*
X161799Y108240D01*
X161512Y107810D01*
X161411Y107303D01*
X161512Y106796D01*
X161799Y106366D01*
X162229Y106079D01*
X162736Y105978D01*
X163243Y106079D01*
X163673Y106366D01*
X163961Y106796D01*
X164062Y107303D01*
X163961Y107810D01*
X163673Y108240D01*
X163243Y108528D01*
X162736Y108629D01*
D02*
G37*
G36*
X159587D02*
X159079Y108528D01*
X158649Y108240D01*
X158362Y107810D01*
X158261Y107303D01*
X158362Y106796D01*
X158649Y106366D01*
X159079Y106079D01*
X159587Y105978D01*
X160094Y106079D01*
X160524Y106366D01*
X160811Y106796D01*
X160912Y107303D01*
X160811Y107810D01*
X160524Y108240D01*
X160094Y108528D01*
X159587Y108629D01*
D02*
G37*
G36*
X146634Y107054D02*
X146127Y106953D01*
X145697Y106666D01*
X145409Y106236D01*
X145308Y105728D01*
X145409Y105221D01*
X145697Y104791D01*
X146127Y104504D01*
X146634Y104403D01*
X147141Y104504D01*
X147571Y104791D01*
X147859Y105221D01*
X147959Y105728D01*
X147859Y106236D01*
X147571Y106666D01*
X147141Y106953D01*
X146634Y107054D01*
D02*
G37*
G36*
X131700Y105625D02*
X131193Y105525D01*
X130763Y105237D01*
X130475Y104807D01*
X130375Y104300D01*
X130475Y103793D01*
X130763Y103363D01*
X131193Y103075D01*
X131700Y102974D01*
X132207Y103075D01*
X132637Y103363D01*
X132925Y103793D01*
X133026Y104300D01*
X132925Y104807D01*
X132637Y105237D01*
X132207Y105525D01*
X131700Y105625D01*
D02*
G37*
G36*
X165886Y105479D02*
X165379Y105378D01*
X164949Y105091D01*
X164661Y104661D01*
X164560Y104154D01*
X164661Y103646D01*
X164949Y103216D01*
X165379Y102929D01*
X165886Y102828D01*
X166393Y102929D01*
X166823Y103216D01*
X167110Y103646D01*
X167211Y104154D01*
X167110Y104661D01*
X166823Y105091D01*
X166393Y105378D01*
X165886Y105479D01*
D02*
G37*
G36*
X162736D02*
X162229Y105378D01*
X161799Y105091D01*
X161512Y104661D01*
X161411Y104154D01*
X161512Y103646D01*
X161799Y103216D01*
X162229Y102929D01*
X162736Y102828D01*
X163243Y102929D01*
X163673Y103216D01*
X163961Y103646D01*
X164062Y104154D01*
X163961Y104661D01*
X163673Y105091D01*
X163243Y105378D01*
X162736Y105479D01*
D02*
G37*
G36*
X159587D02*
X159079Y105378D01*
X158649Y105091D01*
X158362Y104661D01*
X158261Y104154D01*
X158362Y103646D01*
X158649Y103216D01*
X159079Y102929D01*
X159587Y102828D01*
X160094Y102929D01*
X160524Y103216D01*
X160811Y103646D01*
X160912Y104154D01*
X160811Y104661D01*
X160524Y105091D01*
X160094Y105378D01*
X159587Y105479D01*
D02*
G37*
G36*
X172685Y111201D02*
Y110953D01*
X172933D01*
X172834Y111102D01*
X172685Y111201D01*
D02*
G37*
G36*
X171685D02*
X171536Y111102D01*
X171437Y110953D01*
X171685D01*
Y111201D01*
D02*
G37*
G36*
X172933Y109953D02*
X172685D01*
Y109704D01*
X172834Y109804D01*
X172933Y109953D01*
D02*
G37*
G36*
X171685D02*
X171437D01*
X171536Y109804D01*
X171685Y109704D01*
Y109953D01*
D02*
G37*
G36*
X178484Y111778D02*
X177977Y111677D01*
X177547Y111390D01*
X177260Y110960D01*
X177159Y110453D01*
X177260Y109946D01*
X177547Y109516D01*
X177977Y109228D01*
X178484Y109127D01*
X178991Y109228D01*
X179421Y109516D01*
X179709Y109946D01*
X179810Y110453D01*
X179709Y110960D01*
X179421Y111390D01*
X178991Y111677D01*
X178484Y111778D01*
D02*
G37*
G36*
Y108629D02*
X177977Y108528D01*
X177547Y108240D01*
X177260Y107810D01*
X177159Y107303D01*
X177260Y106796D01*
X177547Y106366D01*
X177977Y106079D01*
X178484Y105978D01*
X178991Y106079D01*
X179421Y106366D01*
X179709Y106796D01*
X179810Y107303D01*
X179709Y107810D01*
X179421Y108240D01*
X178991Y108528D01*
X178484Y108629D01*
D02*
G37*
G36*
X175335D02*
X174827Y108528D01*
X174397Y108240D01*
X174110Y107810D01*
X174009Y107303D01*
X174110Y106796D01*
X174397Y106366D01*
X174827Y106079D01*
X175335Y105978D01*
X175842Y106079D01*
X176272Y106366D01*
X176559Y106796D01*
X176660Y107303D01*
X176559Y107810D01*
X176272Y108240D01*
X175842Y108528D01*
X175335Y108629D01*
D02*
G37*
G36*
X172185D02*
X171678Y108528D01*
X171248Y108240D01*
X170960Y107810D01*
X170860Y107303D01*
X170960Y106796D01*
X171248Y106366D01*
X171678Y106079D01*
X172185Y105978D01*
X172692Y106079D01*
X173122Y106366D01*
X173410Y106796D01*
X173511Y107303D01*
X173410Y107810D01*
X173122Y108240D01*
X172692Y108528D01*
X172185Y108629D01*
D02*
G37*
G36*
X175335Y105479D02*
X174827Y105378D01*
X174397Y105091D01*
X174110Y104661D01*
X174009Y104154D01*
X174110Y103646D01*
X174397Y103216D01*
X174827Y102929D01*
X175335Y102828D01*
X175842Y102929D01*
X176272Y103216D01*
X176559Y103646D01*
X176660Y104154D01*
X176559Y104661D01*
X176272Y105091D01*
X175842Y105378D01*
X175335Y105479D01*
D02*
G37*
G36*
X172185D02*
X171678Y105378D01*
X171248Y105091D01*
X170960Y104661D01*
X170860Y104154D01*
X170960Y103646D01*
X171248Y103216D01*
X171678Y102929D01*
X172185Y102828D01*
X172692Y102929D01*
X173122Y103216D01*
X173410Y103646D01*
X173511Y104154D01*
X173410Y104661D01*
X173122Y105091D01*
X172692Y105378D01*
X172185Y105479D01*
D02*
G37*
G36*
X178484Y105479D02*
X177977Y105378D01*
X177547Y105091D01*
X177260Y104661D01*
X177159Y104154D01*
X177260Y103646D01*
X177547Y103216D01*
X177977Y102929D01*
X178484Y102828D01*
X178991Y102929D01*
X179421Y103216D01*
X179709Y103646D01*
X179810Y104154D01*
X179709Y104661D01*
X179421Y105091D01*
X178991Y105378D01*
X178484Y105479D01*
D02*
G37*
G36*
X178484Y102329D02*
X177977Y102228D01*
X177547Y101941D01*
X177260Y101511D01*
X177159Y101004D01*
X177260Y100497D01*
X177547Y100067D01*
X177977Y99779D01*
X178484Y99678D01*
X178991Y99779D01*
X179421Y100067D01*
X179709Y100497D01*
X179810Y101004D01*
X179709Y101511D01*
X179421Y101941D01*
X178991Y102228D01*
X178484Y102329D01*
D02*
G37*
G36*
X175335D02*
X174827Y102228D01*
X174397Y101941D01*
X174110Y101511D01*
X174009Y101004D01*
X174110Y100497D01*
X174397Y100067D01*
X174827Y99779D01*
X175335Y99678D01*
X175842Y99779D01*
X176272Y100067D01*
X176559Y100497D01*
X176660Y101004D01*
X176559Y101511D01*
X176272Y101941D01*
X175842Y102228D01*
X175335Y102329D01*
D02*
G37*
G36*
X172185D02*
X171678Y102228D01*
X171248Y101941D01*
X170960Y101511D01*
X170860Y101004D01*
X170960Y100497D01*
X171248Y100067D01*
X171678Y99779D01*
X172185Y99678D01*
X172692Y99779D01*
X173122Y100067D01*
X173410Y100497D01*
X173511Y101004D01*
X173410Y101511D01*
X173122Y101941D01*
X172692Y102228D01*
X172185Y102329D01*
D02*
G37*
G36*
X169035Y99180D02*
X168528Y99079D01*
X168098Y98792D01*
X167811Y98362D01*
X167710Y97854D01*
X167811Y97347D01*
X168098Y96917D01*
X168528Y96630D01*
X169035Y96529D01*
X169543Y96630D01*
X169973Y96917D01*
X170260Y97347D01*
X170361Y97854D01*
X170260Y98362D01*
X169973Y98792D01*
X169543Y99079D01*
X169035Y99180D01*
D02*
G37*
G36*
X144184Y95799D02*
Y95551D01*
X144432D01*
X144333Y95700D01*
X144184Y95799D01*
D02*
G37*
G36*
X143184D02*
X143035Y95700D01*
X142936Y95551D01*
X143184D01*
Y95799D01*
D02*
G37*
G36*
X144432Y94551D02*
X144184D01*
Y94303D01*
X144333Y94402D01*
X144432Y94551D01*
D02*
G37*
G36*
X143184D02*
X142936D01*
X143035Y94402D01*
X143184Y94303D01*
Y94551D01*
D02*
G37*
G36*
X169035Y96030D02*
X168528Y95929D01*
X168098Y95642D01*
X167811Y95212D01*
X167710Y94705D01*
X167811Y94197D01*
X168098Y93767D01*
X168528Y93480D01*
X169035Y93379D01*
X169543Y93480D01*
X169973Y93767D01*
X170260Y94197D01*
X170361Y94705D01*
X170260Y95212D01*
X169973Y95642D01*
X169543Y95929D01*
X169035Y96030D01*
D02*
G37*
G36*
X162736D02*
X162229Y95929D01*
X161799Y95642D01*
X161512Y95212D01*
X161411Y94705D01*
X161512Y94197D01*
X161799Y93767D01*
X162229Y93480D01*
X162736Y93379D01*
X163243Y93480D01*
X163673Y93767D01*
X163961Y94197D01*
X164062Y94705D01*
X163961Y95212D01*
X163673Y95642D01*
X163243Y95929D01*
X162736Y96030D01*
D02*
G37*
G36*
X159587D02*
X159079Y95929D01*
X158649Y95642D01*
X158362Y95212D01*
X158261Y94705D01*
X158362Y94197D01*
X158649Y93767D01*
X159079Y93480D01*
X159587Y93379D01*
X160094Y93480D01*
X160524Y93767D01*
X160811Y94197D01*
X160912Y94705D01*
X160811Y95212D01*
X160524Y95642D01*
X160094Y95929D01*
X159587Y96030D01*
D02*
G37*
G36*
X153287D02*
X152780Y95929D01*
X152350Y95642D01*
X152349Y95640D01*
X152347Y95638D01*
X152059Y95208D01*
X151958Y94701D01*
X152059Y94194D01*
X152347Y93764D01*
X152777Y93477D01*
X153284Y93376D01*
X153791Y93477D01*
X154221Y93764D01*
X154223Y93766D01*
X154225Y93767D01*
X154512Y94197D01*
X154613Y94705D01*
X154512Y95212D01*
X154225Y95642D01*
X153795Y95929D01*
X153287Y96030D01*
D02*
G37*
G36*
X144184Y93300D02*
Y93051D01*
X144432D01*
X144333Y93200D01*
X144184Y93300D01*
D02*
G37*
G36*
X143184D02*
X143035Y93200D01*
X142936Y93051D01*
X143184D01*
Y93300D01*
D02*
G37*
G36*
X144432Y92051D02*
X144184D01*
Y91803D01*
X144333Y91902D01*
X144432Y92051D01*
D02*
G37*
G36*
X143184D02*
X142936D01*
X143035Y91902D01*
X143184Y91803D01*
Y92051D01*
D02*
G37*
G36*
X191831Y103654D02*
X191583D01*
Y103405D01*
X191732Y103505D01*
X191831Y103654D01*
D02*
G37*
G36*
X190583D02*
X190334D01*
X190434Y103505D01*
X190583Y103405D01*
Y103654D01*
D02*
G37*
G36*
X191083Y102329D02*
X190575Y102228D01*
X190145Y101941D01*
X189858Y101511D01*
X189757Y101004D01*
X189858Y100497D01*
X190145Y100067D01*
X190575Y99779D01*
X191083Y99678D01*
X191590Y99779D01*
X192020Y100067D01*
X192307Y100497D01*
X192408Y101004D01*
X192307Y101511D01*
X192020Y101941D01*
X191590Y102228D01*
X191083Y102329D01*
D02*
G37*
G36*
X194884Y91299D02*
X194735Y91200D01*
X194635Y91051D01*
X194884D01*
Y91299D01*
D02*
G37*
G36*
X188384D02*
Y91051D01*
X188632D01*
X188533Y91200D01*
X188384Y91299D01*
D02*
G37*
%LPD*%
D11*
X234034Y76926D02*
Y134176D01*
X269234D01*
Y76926D02*
Y134176D01*
X234034Y76926D02*
X269234D01*
D38*
X131634Y125551D02*
D03*
X83000Y85500D02*
D03*
X75000Y80500D02*
D03*
Y84000D02*
D03*
X71400Y78400D02*
D03*
X131634Y88051D02*
D03*
X129134D02*
D03*
X106000Y84700D02*
D03*
X143684Y92551D02*
D03*
Y95051D02*
D03*
X209634Y88051D02*
D03*
X126500Y98000D02*
D03*
X163000Y47196D02*
D03*
X158000Y50100D02*
D03*
Y47200D02*
D03*
X136500Y53500D02*
D03*
X95400Y143300D02*
D03*
X98016D02*
D03*
X101953D02*
D03*
X92800D02*
D03*
X265809Y99251D02*
D03*
X243759Y102401D02*
D03*
Y96101D02*
D03*
X259509Y127601D02*
D03*
X262659Y89801D02*
D03*
X243759D02*
D03*
X259509Y118151D02*
D03*
Y86651D02*
D03*
X243759D02*
D03*
X240609Y89801D02*
D03*
X262659Y86651D02*
D03*
X240609D02*
D03*
X262659Y83501D02*
D03*
X240609D02*
D03*
X262659Y80351D02*
D03*
X243759Y83501D02*
D03*
X259509Y96101D02*
D03*
Y83501D02*
D03*
Y89801D02*
D03*
X243759Y80351D02*
D03*
X262659Y118151D02*
D03*
Y121301D02*
D03*
X265809Y127601D02*
D03*
X240609Y118151D02*
D03*
X237459Y127601D02*
D03*
X243759D02*
D03*
X262659Y102401D02*
D03*
Y111851D02*
D03*
X265809D02*
D03*
X240609Y102401D02*
D03*
Y115001D02*
D03*
X265809Y80351D02*
D03*
Y86651D02*
D03*
Y92951D02*
D03*
X237459Y80351D02*
D03*
Y86651D02*
D03*
Y92951D02*
D03*
Y99251D02*
D03*
X240609Y92951D02*
D03*
X243759D02*
D03*
X259509Y124451D02*
D03*
Y108701D02*
D03*
X262659D02*
D03*
X259509Y115001D02*
D03*
X262659D02*
D03*
X246909Y118151D02*
D03*
X262659Y127601D02*
D03*
X240609Y124451D02*
D03*
X262659D02*
D03*
X259509Y130751D02*
D03*
X240609Y80351D02*
D03*
X259509D02*
D03*
X262659Y96101D02*
D03*
Y130751D02*
D03*
X265809Y124451D02*
D03*
Y118151D02*
D03*
Y121301D02*
D03*
X237459Y124451D02*
D03*
Y130751D02*
D03*
X243759Y118151D02*
D03*
X240609Y127601D02*
D03*
X265809Y108701D02*
D03*
X262659Y99251D02*
D03*
X259509Y111851D02*
D03*
X237459Y115001D02*
D03*
X240609Y99251D02*
D03*
Y108701D02*
D03*
X265809Y83501D02*
D03*
Y89801D02*
D03*
X237459Y83501D02*
D03*
Y89801D02*
D03*
Y108701D02*
D03*
X262659Y92951D02*
D03*
X240609Y130751D02*
D03*
X243759Y99252D02*
D03*
Y124449D02*
D03*
X226631Y83501D02*
D03*
X197381Y141951D02*
D03*
X131700Y104300D02*
D03*
X128000Y108100D02*
D03*
X223100Y53632D02*
D03*
X226100D02*
D03*
Y50632D02*
D03*
X184784Y110450D02*
D03*
X112000Y136505D02*
D03*
Y140000D02*
D03*
X91168Y118000D02*
D03*
X96100D02*
D03*
X93600D02*
D03*
X116500Y104300D02*
D03*
X109200Y188049D02*
D03*
X104200D02*
D03*
X99200D02*
D03*
X94200D02*
D03*
X194134Y197600D02*
D03*
X184134D02*
D03*
X174134D02*
D03*
X129000D02*
D03*
X116600D02*
D03*
X109200D02*
D03*
X104200D02*
D03*
X99200D02*
D03*
X94200D02*
D03*
X169134D02*
D03*
X119000Y83000D02*
D03*
Y80000D02*
D03*
Y77000D02*
D03*
X75000Y71000D02*
D03*
X179159Y182073D02*
D03*
X189134D02*
D03*
X194134Y188049D02*
D03*
X174134D02*
D03*
X184134D02*
D03*
X189134D02*
D03*
X179134D02*
D03*
X169134D02*
D03*
X153541Y176100D02*
D03*
X158659D02*
D03*
X101600Y167900D02*
D03*
X92600Y165000D02*
D03*
Y180700D02*
D03*
X175400Y41800D02*
D03*
X136500Y46000D02*
D03*
X140800Y32600D02*
D03*
X136500D02*
D03*
X168600Y41800D02*
D03*
X163000Y50196D02*
D03*
Y54196D02*
D03*
X182300Y64000D02*
D03*
X175400D02*
D03*
X172700D02*
D03*
X179134D02*
D03*
X182000Y80032D02*
D03*
X179134Y70500D02*
D03*
Y73500D02*
D03*
X191600Y78051D02*
D03*
X191634Y80400D02*
D03*
X195384D02*
D03*
X200416Y66561D02*
D03*
X205384D02*
D03*
X208648D02*
D03*
X199100Y78051D02*
D03*
X206634Y78051D02*
D03*
X202884Y78051D02*
D03*
X200547Y158051D02*
D03*
X194232D02*
D03*
X187925D02*
D03*
X107000Y71600D02*
D03*
X75000Y66500D02*
D03*
X158000Y59200D02*
D03*
X143500D02*
D03*
Y61700D02*
D03*
X158000Y75200D02*
D03*
Y72200D02*
D03*
Y66000D02*
D03*
X172884Y90551D02*
D03*
X126500Y93500D02*
D03*
X136700Y167900D02*
D03*
X143600Y78900D02*
D03*
X272700Y197638D02*
D03*
X268763D02*
D03*
X264826D02*
D03*
X260889D02*
D03*
X256952D02*
D03*
X253015D02*
D03*
X249078D02*
D03*
X245141D02*
D03*
X241204D02*
D03*
X237267D02*
D03*
X233330D02*
D03*
X229393D02*
D03*
X225456D02*
D03*
X221519D02*
D03*
X217582D02*
D03*
X213645D02*
D03*
X209708D02*
D03*
X205771D02*
D03*
X50000Y62800D02*
D03*
X75000Y91300D02*
D03*
X91400Y83500D02*
D03*
X96512D02*
D03*
X93362Y85500D02*
D03*
X106000Y87900D02*
D03*
X128000Y105600D02*
D03*
X112000Y147800D02*
D03*
X116500D02*
D03*
Y144100D02*
D03*
X126600Y147800D02*
D03*
Y144100D02*
D03*
Y154301D02*
D03*
X159587Y123051D02*
D03*
X162736D02*
D03*
X197382Y97854D02*
D03*
X200532D02*
D03*
X203681D02*
D03*
X169035D02*
D03*
X162736D02*
D03*
X159587D02*
D03*
Y145098D02*
D03*
X162736D02*
D03*
X165886D02*
D03*
X169035D02*
D03*
X172185D02*
D03*
X175335D02*
D03*
X178484D02*
D03*
X184783D02*
D03*
X187933D02*
D03*
X191083D02*
D03*
X194232D02*
D03*
X197382D02*
D03*
X200532D02*
D03*
X203681D02*
D03*
Y141949D02*
D03*
X200532D02*
D03*
X191083D02*
D03*
X187933D02*
D03*
X184783D02*
D03*
X203681Y138799D02*
D03*
X200532D02*
D03*
X197382D02*
D03*
X194232D02*
D03*
X191083D02*
D03*
X184783D02*
D03*
X203681Y135650D02*
D03*
X200532D02*
D03*
X191083D02*
D03*
X184783D02*
D03*
X203681Y132500D02*
D03*
X200532D02*
D03*
X191083D02*
D03*
X184783D02*
D03*
X197382D02*
D03*
X203681Y129350D02*
D03*
X200532D02*
D03*
X191083D02*
D03*
X187933D02*
D03*
X184783D02*
D03*
X203681Y126201D02*
D03*
X200532D02*
D03*
X197382D02*
D03*
X194232D02*
D03*
X187933D02*
D03*
X184783D02*
D03*
X203681Y119902D02*
D03*
X200532D02*
D03*
X197382D02*
D03*
X194232D02*
D03*
X191083D02*
D03*
X187933D02*
D03*
X184783D02*
D03*
X203681Y116752D02*
D03*
X200532D02*
D03*
X191083D02*
D03*
X187933D02*
D03*
X184783D02*
D03*
X203681Y113602D02*
D03*
X200532D02*
D03*
X197382D02*
D03*
X194232D02*
D03*
X191083D02*
D03*
X184783D02*
D03*
X203681Y110453D02*
D03*
X200532D02*
D03*
X191083D02*
D03*
X184783D02*
D03*
X203681Y107303D02*
D03*
X200532D02*
D03*
X194232D02*
D03*
X191083D02*
D03*
X187933D02*
D03*
X200532Y104154D02*
D03*
X197382D02*
D03*
X194232D02*
D03*
X191083D02*
D03*
X187933D02*
D03*
X184783D02*
D03*
X203681Y101004D02*
D03*
X200532D02*
D03*
X197382D02*
D03*
X194232D02*
D03*
X191083D02*
D03*
X187933D02*
D03*
X184783D02*
D03*
X178484Y141949D02*
D03*
X169035D02*
D03*
X165886D02*
D03*
X162736D02*
D03*
X159587D02*
D03*
X178484Y138799D02*
D03*
X175335D02*
D03*
X172185D02*
D03*
X169035D02*
D03*
X165886D02*
D03*
X162736D02*
D03*
X159587D02*
D03*
X178484Y135650D02*
D03*
X162736D02*
D03*
X159587D02*
D03*
X178484Y132500D02*
D03*
X172185D02*
D03*
X169035D02*
D03*
X165886D02*
D03*
X178484Y129350D02*
D03*
X175335D02*
D03*
X172185D02*
D03*
X162736D02*
D03*
X178484Y126201D02*
D03*
X175335D02*
D03*
X172185D02*
D03*
X169035D02*
D03*
X165886D02*
D03*
X162736D02*
D03*
X159587D02*
D03*
X172185Y141949D02*
D03*
X178484Y119902D02*
D03*
X175335D02*
D03*
X172185D02*
D03*
X169035D02*
D03*
X165886D02*
D03*
X159587D02*
D03*
X178484Y116752D02*
D03*
X175335D02*
D03*
X172185D02*
D03*
X162736D02*
D03*
X159587D02*
D03*
X172185Y113602D02*
D03*
X169035D02*
D03*
X165886D02*
D03*
X162736D02*
D03*
X159587D02*
D03*
X178484Y110453D02*
D03*
X172185D02*
D03*
X162736D02*
D03*
X178484Y107303D02*
D03*
X175335D02*
D03*
X172185D02*
D03*
X165886D02*
D03*
X162736D02*
D03*
X159587D02*
D03*
X175335Y104154D02*
D03*
X172185D02*
D03*
X165886D02*
D03*
X162736D02*
D03*
X159587D02*
D03*
X178484Y101004D02*
D03*
X175335D02*
D03*
X172185D02*
D03*
X169035D02*
D03*
X165886D02*
D03*
X162736D02*
D03*
X159587D02*
D03*
X156437Y138799D02*
D03*
Y132500D02*
D03*
X153287Y94705D02*
D03*
X159587D02*
D03*
X162736D02*
D03*
X169035D02*
D03*
X210768Y129350D02*
D03*
X169035Y107303D02*
D03*
X233634Y102051D02*
D03*
X226634Y89801D02*
D03*
Y83501D02*
D03*
X226600Y86600D02*
D03*
X146634Y113602D02*
D03*
X156437D02*
D03*
X146634Y122551D02*
D03*
X159587Y129350D02*
D03*
X153287Y132500D02*
D03*
X209600Y80400D02*
D03*
X219634Y77051D02*
D03*
Y74051D02*
D03*
Y70301D02*
D03*
X168634Y70500D02*
D03*
Y73500D02*
D03*
X181634Y158051D02*
D03*
X178486D02*
D03*
X175384Y165051D02*
D03*
X178484Y104154D02*
D03*
X155134Y85551D02*
D03*
X336600Y181000D02*
D03*
X344800D02*
D03*
X340737D02*
D03*
X337900Y132900D02*
D03*
X340737D02*
D03*
X346300D02*
D03*
X261700Y74500D02*
D03*
X275922D02*
D03*
X112000Y118300D02*
D03*
Y121900D02*
D03*
X116500Y110800D02*
D03*
Y136700D02*
D03*
Y114500D02*
D03*
Y118200D02*
D03*
Y121900D02*
D03*
Y125600D02*
D03*
Y133000D02*
D03*
Y129300D02*
D03*
X112000Y133000D02*
D03*
Y129516D02*
D03*
X101300Y149300D02*
D03*
X84500Y148400D02*
D03*
X126600Y114500D02*
D03*
Y110800D02*
D03*
Y118200D02*
D03*
Y125600D02*
D03*
Y129300D02*
D03*
Y133000D02*
D03*
Y140400D02*
D03*
Y136700D02*
D03*
X151634Y138551D02*
D03*
X131634Y115801D02*
D03*
X146634Y105728D02*
D03*
X226634Y119903D02*
D03*
X226634Y115001D02*
D03*
X213634Y92551D02*
D03*
X247244Y136083D02*
D03*
X249606Y134508D02*
D03*
X226634Y96551D02*
D03*
X222634Y130751D02*
D03*
Y72051D02*
D03*
X226634Y124451D02*
D03*
Y130751D02*
D03*
Y99251D02*
D03*
Y108701D02*
D03*
X229634Y102051D02*
D03*
X222634Y134551D02*
D03*
Y126051D02*
D03*
X217582Y188189D02*
D03*
X213645D02*
D03*
X209708D02*
D03*
X205771D02*
D03*
X264826D02*
D03*
X268763D02*
D03*
X260889D02*
D03*
X256952D02*
D03*
X272700D02*
D03*
X213634Y108878D02*
D03*
Y99051D02*
D03*
Y95051D02*
D03*
Y113601D02*
D03*
X181634Y153551D02*
D03*
X208406Y152551D02*
D03*
X146634Y138551D02*
D03*
X151634Y149823D02*
D03*
X131400Y147800D02*
D03*
X129534Y154301D02*
D03*
X141600Y141551D02*
D03*
X184784Y126201D02*
D03*
X146634Y129351D02*
D03*
X131634Y112551D02*
D03*
X208406Y93551D02*
D03*
X153284Y94701D02*
D03*
X143634Y85551D02*
D03*
X213634Y129351D02*
D03*
X187884Y90551D02*
D03*
X195384D02*
D03*
X203684Y126201D02*
D03*
X213634Y126199D02*
D03*
X200534Y126201D02*
D03*
X194234D02*
D03*
X187933D02*
D03*
X191084Y110451D02*
D03*
X141634Y115801D02*
D03*
Y112801D02*
D03*
X144034Y149801D02*
D03*
X146634Y156051D02*
D03*
X131400Y139051D02*
D03*
Y141551D02*
D03*
X182134Y90551D02*
D03*
X149134Y138551D02*
D03*
X146634Y145051D02*
D03*
X131634Y85051D02*
D03*
X129134D02*
D03*
X146634Y149801D02*
D03*
Y119903D02*
D03*
X147134Y85551D02*
D03*
X146634Y153051D02*
D03*
X141600Y147800D02*
D03*
X144084Y153051D02*
D03*
Y156051D02*
D03*
X141634Y129301D02*
D03*
X141600Y139051D02*
D03*
X141634Y125551D02*
D03*
X159134Y87551D02*
D03*
X197384Y126201D02*
D03*
X209634Y85051D02*
D03*
X106000Y98000D02*
D03*
X86000Y85500D02*
D03*
X253284Y80379D02*
D03*
X249780Y91403D02*
D03*
X84500Y141000D02*
D03*
Y138000D02*
D03*
X75500Y141000D02*
D03*
X100000Y118000D02*
D03*
X103500D02*
D03*
X99016Y114331D02*
D03*
X115500Y89000D02*
D03*
X111516Y108831D02*
D03*
Y111831D02*
D03*
X86516Y108831D02*
D03*
Y111831D02*
D03*
X181634Y123051D02*
D03*
X197382Y107303D02*
D03*
X275922Y108726D02*
D03*
Y94553D02*
D03*
Y130773D02*
D03*
Y124474D02*
D03*
Y118175D02*
D03*
Y104002D02*
D03*
Y99277D02*
D03*
Y89828D02*
D03*
Y83529D02*
D03*
X118500Y56000D02*
D03*
Y49000D02*
D03*
X112500Y74500D02*
D03*
X115500D02*
D03*
X119000D02*
D03*
X112500Y59500D02*
D03*
X115500D02*
D03*
X109500Y56000D02*
D03*
X107000D02*
D03*
Y58500D02*
D03*
Y61000D02*
D03*
Y63500D02*
D03*
X89000Y85500D02*
D03*
X80000Y83500D02*
D03*
X126500Y88000D02*
D03*
X143500Y36000D02*
D03*
Y41000D02*
D03*
X136500Y51000D02*
D03*
X143500D02*
D03*
X136500Y56000D02*
D03*
Y66000D02*
D03*
Y71000D02*
D03*
X143500Y66000D02*
D03*
Y71000D02*
D03*
X102500Y98000D02*
D03*
X91500D02*
D03*
X96000Y52500D02*
D03*
X88000D02*
D03*
X82500D02*
D03*
X107000Y78600D02*
D03*
Y80500D02*
D03*
X96900Y38500D02*
D03*
X95000D02*
D03*
X104900Y47500D02*
D03*
X102000D02*
D03*
X98000D02*
D03*
X95100D02*
D03*
X89900D02*
D03*
X87000D02*
D03*
X89900Y38500D02*
D03*
X87000D02*
D03*
X83000D02*
D03*
X80100D02*
D03*
X83000Y47500D02*
D03*
X80100D02*
D03*
X75000Y56500D02*
D03*
Y76500D02*
D03*
X72500Y68787D02*
D03*
Y64063D02*
D03*
X50000Y71500D02*
D03*
X54500Y84000D02*
D03*
X37500Y80500D02*
D03*
X24500Y70500D02*
D03*
X14500Y76000D02*
D03*
X37500Y75500D02*
D03*
Y70500D02*
D03*
X28500Y75500D02*
D03*
Y70500D02*
D03*
X84500Y118500D02*
D03*
Y122500D02*
D03*
Y126500D02*
D03*
Y130500D02*
D03*
Y134500D02*
D03*
X75500Y118500D02*
D03*
Y122500D02*
D03*
Y126500D02*
D03*
Y130500D02*
D03*
Y134500D02*
D03*
X24272Y126500D02*
D03*
Y123600D02*
D03*
X43500Y137500D02*
D03*
Y142500D02*
D03*
X17000Y117500D02*
D03*
X43500Y132500D02*
D03*
Y127500D02*
D03*
Y117500D02*
D03*
D68*
X83000Y85500D02*
X89400Y91900D01*
X135500D01*
X140000Y87400D01*
X197382Y88982D02*
Y97854D01*
X193500Y85100D02*
X197382Y88982D01*
X174800Y85100D02*
X193500D01*
X171700Y82000D02*
X174800Y85100D01*
X154700Y82000D02*
X171700D01*
X149300Y87400D02*
X154700Y82000D01*
X140000Y87400D02*
X149300D01*
X202105Y96551D02*
Y101528D01*
X198957Y96551D02*
Y100501D01*
X223800Y47200D02*
Y51332D01*
X220700Y44100D02*
X223800Y47200D01*
X167000Y44100D02*
X220700D01*
X223800Y51332D02*
X226100Y53632D01*
X161700Y38800D02*
X167000Y44100D01*
X122000Y38800D02*
X161700D01*
X115200Y45600D02*
X122000Y38800D01*
X152100Y37600D02*
X160600Y29100D01*
X121500Y37600D02*
X152100D01*
X114800Y44300D02*
X121500Y37600D01*
X160600Y29100D02*
X221800D01*
X79700Y44300D02*
X114800D01*
X77200Y46800D02*
X79700Y44300D01*
X94200Y45600D02*
X115200D01*
X89100Y50700D02*
X94200Y45600D01*
X84300Y50700D02*
X89100D01*
X82500Y52500D02*
X84300Y50700D01*
X226100Y33400D02*
Y50632D01*
X221800Y29100D02*
X226100Y33400D01*
X77200Y46800D02*
Y59363D01*
X72500Y64063D02*
X77200Y59363D01*
X153449Y123051D02*
X159587D01*
X149000Y127500D02*
X153449Y123051D01*
X130600Y127500D02*
X149000D01*
X158563Y121478D02*
X161163D01*
X162736Y123051D01*
X129800Y124500D02*
Y126700D01*
X127300Y122000D02*
X129800Y124500D01*
X120000Y122000D02*
X127300D01*
X129800Y126700D02*
X130600Y127500D01*
X161166Y124625D02*
X162741Y126200D01*
X158141Y124625D02*
X161166D01*
X164313Y127774D02*
X165886Y126201D01*
X158641Y127774D02*
X164313D01*
X198957Y112027D02*
X200531Y113601D01*
X198957Y109725D02*
Y112027D01*
Y109725D02*
X199805Y108877D01*
X201305D01*
X202107Y108075D01*
Y106551D02*
Y108075D01*
Y106551D02*
X203107Y105551D01*
X203731D01*
X238631Y102026D02*
X239830Y100827D01*
X244441D01*
X242182Y88225D02*
X243756Y86651D01*
X242182Y88225D02*
Y95000D01*
X236307Y91375D02*
X239032D01*
X240606Y89801D01*
X261080Y85075D02*
X262656Y86651D01*
X258655Y85075D02*
X261080D01*
X242180Y79600D02*
Y85077D01*
X240606Y86651D02*
X242180Y85077D01*
X200531Y110451D02*
X202107Y112027D01*
X205107D01*
X199457Y101001D02*
X200531D01*
X198957Y100501D02*
X199457Y101001D01*
X200531Y138801D02*
X202107Y140377D01*
X204457D01*
X200531Y135651D02*
X202107Y134075D01*
X204655D01*
X200531Y132501D02*
X202107Y130925D01*
Y128699D02*
Y130925D01*
Y128699D02*
X203031Y127775D01*
X209407D01*
X263318Y107102D02*
X264232Y108016D01*
X264230D02*
Y112503D01*
X263306Y113427D02*
X264230Y112503D01*
X261080Y113427D02*
X263306D01*
X259506Y115001D02*
X261080Y113427D01*
X118400Y123600D02*
X120000Y122000D01*
X98100Y123600D02*
X118400D01*
X85400Y136300D02*
X98100Y123600D01*
X82400Y136300D02*
X85400D01*
X77700Y141000D02*
X82400Y136300D01*
X75500Y141000D02*
X77700D01*
X91900Y119700D02*
X93600Y118000D01*
X89500Y119700D02*
X91900D01*
X85600Y115800D02*
X89500Y119700D01*
X84000Y115800D02*
X85600D01*
X70400Y102200D02*
X84000Y115800D01*
X56400Y102200D02*
X70400D01*
X46500Y112100D02*
X56400Y102200D01*
X27800Y112100D02*
X46500D01*
X18950Y103250D02*
X27800Y112100D01*
X18950Y100100D02*
Y103250D01*
D69*
X107000Y78600D02*
Y80500D01*
X79500Y95800D02*
X136800D01*
X75000Y91300D02*
X79500Y95800D01*
X136800D02*
X142200Y90400D01*
X184133Y86800D02*
X187884Y90551D01*
X163000Y86800D02*
X184133D01*
X161700Y85500D02*
X163000Y86800D01*
X158200Y85500D02*
X161700D01*
X153300Y90400D02*
X158200Y85500D01*
X142200Y90400D02*
X153300D01*
X182134Y90551D02*
Y104634D01*
X183900Y106400D02*
X185687D01*
X182134Y104634D02*
X183900Y106400D01*
X185687D02*
X187933Y104154D01*
X71400Y71000D02*
X75000D01*
X59000Y58600D02*
X71400Y71000D01*
X59000Y51000D02*
Y58600D01*
X73000Y74500D02*
X75000Y76500D01*
X41500Y74500D02*
X73000D01*
X37500Y70500D02*
X41500Y74500D01*
D72*
X64000Y60287D02*
X72500Y68787D01*
X64000Y46000D02*
Y60287D01*
X59000Y41000D02*
X64000Y46000D01*
D75*
X107000Y68400D02*
Y71600D01*
X96000Y57400D02*
X107000Y68400D01*
X96000Y52500D02*
Y57400D01*
X96500Y76540D02*
X102060D01*
X75040D02*
X96500D01*
X96512Y76552D01*
Y83500D01*
X102060Y76540D02*
X107000Y71600D01*
X75000Y76500D02*
X75040Y76540D01*
D82*
X6500Y85000D02*
D03*
X162800Y12100D02*
D03*
X257505Y22217D02*
D03*
X69000Y51000D02*
D03*
X59000Y41000D02*
D03*
Y51000D02*
D03*
X69000Y41000D02*
D03*
X151800Y12200D02*
D03*
X57250Y112500D02*
D03*
X67250Y107500D02*
D03*
Y137500D02*
D03*
X57250Y132500D02*
D03*
X67250Y117500D02*
D03*
X12950Y149900D02*
D03*
X18950Y139900D02*
D03*
Y100100D02*
D03*
X12950Y110100D02*
D03*
X67250Y127500D02*
D03*
X57250Y122500D02*
D03*
X188600Y36700D02*
D03*
X218600D02*
D03*
X178600D02*
D03*
X208600D02*
D03*
X198600D02*
D03*
D83*
X348400Y14500D02*
D03*
X72550Y223000D02*
D03*
X334823Y223567D02*
D03*
X57000Y13400D02*
D03*
D85*
X44250Y156000D02*
D03*
Y94000D02*
D03*
D86*
X57250Y142500D02*
D03*
X168600Y36700D02*
D03*
D87*
X302753Y108417D02*
D03*
Y98577D02*
D03*
Y90697D02*
D03*
Y80857D02*
D03*
Y45617D02*
D03*
Y35777D02*
D03*
Y27897D02*
D03*
Y18057D02*
D03*
D88*
X313423Y120507D02*
D03*
Y68767D02*
D03*
Y57707D02*
D03*
Y5967D02*
D03*
D89*
X20000Y46000D02*
D03*
D90*
X43600D02*
D03*
D91*
X31800Y27500D02*
D03*
D92*
X330765Y26069D02*
D03*
X326435D02*
D03*
Y34731D02*
D03*
X330765D02*
D03*
Y30400D02*
D03*
X326435D02*
D03*
X330465Y83569D02*
D03*
X326135D02*
D03*
Y92231D02*
D03*
X330465D02*
D03*
Y87900D02*
D03*
X326135D02*
D03*
D93*
X94669Y130500D02*
D03*
X99000Y126169D02*
D03*
Y130500D02*
D03*
Y134831D02*
D03*
X103331Y130500D02*
D03*
X89031Y69968D02*
D03*
X92968D02*
D03*
X89031Y66031D02*
D03*
X92968D02*
D03*
X85094Y69968D02*
D03*
Y73905D02*
D03*
X89031D02*
D03*
X92968D02*
D03*
X96905D02*
D03*
Y69968D02*
D03*
Y66031D02*
D03*
X85094D02*
D03*
Y62094D02*
D03*
X89031D02*
D03*
X92968D02*
D03*
X96905D02*
D03*
D94*
X131011Y176837D02*
D03*
Y178806D02*
D03*
Y180774D02*
D03*
Y182743D02*
D03*
X112310Y175853D02*
D03*
X129043Y184711D02*
D03*
X116247Y179790D02*
D03*
X112310Y177821D02*
D03*
X131011Y184711D02*
D03*
X134200Y177821D02*
D03*
X112310Y169947D02*
D03*
X116247Y165900D02*
D03*
X104200Y181758D02*
D03*
Y177821D02*
D03*
X112310Y179790D02*
D03*
X107389Y180774D02*
D03*
X122153Y179790D02*
D03*
X126090Y175853D02*
D03*
X112310Y171916D02*
D03*
X118216Y165900D02*
D03*
X126090Y173884D02*
D03*
X104200Y179790D02*
D03*
X104247Y175853D02*
D03*
X120184Y179790D02*
D03*
X107389Y184711D02*
D03*
Y178806D02*
D03*
X126090Y177821D02*
D03*
D95*
X32250Y102500D02*
D03*
Y147500D02*
D03*
D96*
X44300Y80500D02*
X75000D01*
X145483Y83900D02*
X147134Y85551D01*
X140100Y83900D02*
X145483D01*
X134400Y89600D02*
X140100Y83900D01*
X129795Y89600D02*
X130973D01*
X129781Y89614D02*
X129795Y89600D01*
X128487Y89614D02*
X129781D01*
X128473Y89600D02*
X128487Y89614D01*
X120200Y89600D02*
X128473D01*
X132295D02*
X134400D01*
X132281Y89614D02*
X132295Y89600D01*
X130987Y89614D02*
X132281D01*
X108800Y90700D02*
X134900D01*
X106000Y87900D02*
X108800Y90700D01*
X134900D02*
X140049Y85551D01*
X130973Y89600D02*
X130987Y89614D01*
X116937Y86338D02*
X120200Y89600D01*
X99262Y86338D02*
X116937D01*
X98200Y87400D02*
X99262Y86338D01*
X87900Y87400D02*
X98200D01*
X86000Y85500D02*
X87900Y87400D01*
X140049Y85551D02*
X143634D01*
X198957Y92541D02*
X199447Y92051D01*
X198957Y92541D02*
Y96551D01*
X199447Y92051D02*
X200141D01*
X200631Y92541D01*
Y94051D01*
X151985Y88700D02*
X155134Y85551D01*
X140500Y88700D02*
X151985D01*
X135700Y93500D02*
X140500Y88700D01*
X126500Y93500D02*
X135700D01*
X200631Y94051D02*
X201131Y94551D01*
X202131D02*
X202631Y94051D01*
Y92551D02*
Y94051D01*
Y92551D02*
X203131Y92051D01*
X201131Y94551D02*
X202131D01*
X203131Y92051D02*
X204131D01*
X204631Y92551D02*
Y95551D01*
X202605Y96051D02*
X204131D01*
X204631Y95551D01*
X202105Y96551D02*
X202605Y96051D01*
X204131Y92051D02*
X204631Y92551D01*
X206131Y90051D02*
Y98551D01*
Y90051D02*
X206631Y89551D01*
X207381D01*
X207881Y90051D01*
Y91051D01*
X208381Y91551D01*
X209131D01*
X216131Y84551D01*
X211131Y91551D02*
X217631Y85051D01*
X211131Y91551D02*
Y98551D01*
X41900Y78100D02*
X44300Y80500D01*
X27200Y78100D02*
X41900D01*
X24500Y75400D02*
X27200Y78100D01*
X24500Y70500D02*
Y75400D01*
X124386Y110800D02*
X126600D01*
X123637Y110051D02*
X124386Y110800D01*
X158288Y118051D02*
X159587Y116752D01*
X130137Y118051D02*
X158288D01*
X129637Y117551D02*
X130137Y118051D01*
X129637Y113051D02*
Y117551D01*
X129137Y112551D02*
X129637Y113051D01*
X119137Y112551D02*
X129137D01*
X118637Y112051D02*
X119137Y112551D01*
X118637Y107551D02*
Y112051D01*
Y107551D02*
X119137Y107051D01*
X123137D01*
X123637Y107551D01*
Y110051D01*
X103641Y140550D02*
Y141359D01*
X103450Y141550D02*
X103641Y141359D01*
X94550Y141550D02*
X103450D01*
X92800Y143300D02*
X94550Y141550D01*
X112000Y150409D02*
X114141Y152550D01*
X112000Y147800D02*
Y150409D01*
X114141Y152550D02*
X121641D01*
X128100Y116200D02*
X128600Y116700D01*
X106400Y116200D02*
X128100D01*
X128600Y116700D02*
Y118500D01*
X129100Y119000D01*
X143300D01*
X144600Y120300D02*
Y124000D01*
X143300Y119000D02*
X144600Y120300D01*
X143636Y120644D02*
Y125651D01*
X143043Y120051D02*
X143636Y120644D01*
X142536Y120051D02*
X143043D01*
X142136Y120451D02*
X142536Y120051D01*
X142136Y120451D02*
Y123151D01*
X141736Y123551D02*
X142136Y123151D01*
X141036Y123551D02*
X141736D01*
X140636Y123151D02*
X141036Y123551D01*
X140636Y120451D02*
Y123151D01*
X140236Y120051D02*
X140636Y120451D01*
X139536Y120051D02*
X140236D01*
X139136Y120451D02*
X139536Y120051D01*
X139136Y120451D02*
Y126151D01*
X138736Y126551D02*
X139136Y126151D01*
X138036Y126551D02*
X138736D01*
X137636Y126151D02*
X138036Y126551D01*
X137636Y120451D02*
Y126151D01*
X137236Y120051D02*
X137636Y120451D01*
X136036Y120051D02*
X137236D01*
X135636Y120451D02*
X136036Y120051D01*
X135636Y120451D02*
Y126151D01*
X135236Y126551D02*
X135636Y126151D01*
X134536Y126551D02*
X135236D01*
X134136Y126151D02*
X134536Y126551D01*
X134136Y120451D02*
Y126151D01*
X133736Y120051D02*
X134136Y120451D01*
X132136Y120051D02*
X133736D01*
X131636Y120551D02*
X132136Y120051D01*
X131636Y120551D02*
Y125551D01*
X148600Y120700D02*
Y124000D01*
X148000Y124600D02*
X148600Y124000D01*
X145200Y124600D02*
X148000D01*
X148600Y120700D02*
X149398Y119902D01*
X149561Y122051D02*
Y125651D01*
Y122051D02*
X150134Y121478D01*
X158563D01*
X149161Y126051D02*
X149561Y125651D01*
X144036Y126051D02*
X149161D01*
X143636Y125651D02*
X144036Y126051D01*
X154842Y134099D02*
X156441Y132500D01*
X130141Y134099D02*
X154842D01*
X129039Y135201D02*
X130141Y134099D01*
X125141Y135201D02*
X129039D01*
X124641Y135701D02*
X125141Y135201D01*
X124641Y135701D02*
Y138050D01*
X125141Y138550D01*
X128741D01*
X129141Y138950D01*
Y142150D01*
X128741Y142550D02*
X129141Y142150D01*
X125141Y142550D02*
X128741D01*
X124641Y143050D02*
X125141Y142550D01*
X124641Y143050D02*
Y145550D01*
X125141Y146050D01*
X128741D01*
X129141Y146450D01*
Y149650D01*
X128741Y150050D02*
X129141Y149650D01*
X123541Y150050D02*
X128741D01*
X123141Y149650D02*
X123541Y150050D01*
X123141Y133450D02*
Y149650D01*
Y133450D02*
X123541Y133050D01*
X126641D01*
X154491Y124625D02*
X158141D01*
X148066Y131050D02*
X154491Y124625D01*
X140442Y131050D02*
X148066D01*
X140042Y130650D02*
X140442Y131050D01*
X140042Y128851D02*
Y130650D01*
X139741Y128550D02*
X140042Y128851D01*
X139041Y128550D02*
X139741D01*
X138641Y128950D02*
X139041Y128550D01*
X138641Y128950D02*
Y130650D01*
X138241Y131050D02*
X138641Y130650D01*
X137541Y131050D02*
X138241D01*
X137141Y130650D02*
X137541Y131050D01*
X137141Y128950D02*
Y130650D01*
X136741Y128550D02*
X137141Y128950D01*
X136041Y128550D02*
X136741D01*
X135641Y128950D02*
X136041Y128550D01*
X135641Y128950D02*
Y130650D01*
X135241Y131050D02*
X135641Y130650D01*
X134541Y131050D02*
X135241D01*
X134141Y130650D02*
X134541Y131050D01*
X134141Y128950D02*
Y130650D01*
X133741Y128550D02*
X134141Y128950D01*
X133041Y128550D02*
X133741D01*
X132641Y128950D02*
X133041Y128550D01*
X132641Y128950D02*
Y130650D01*
X132241Y131050D02*
X132641Y130650D01*
X131541Y131050D02*
X132241D01*
X131141Y130650D02*
X131541Y131050D01*
X131141Y129550D02*
Y130650D01*
X128641Y127050D02*
X131141Y129550D01*
X128641Y125050D02*
Y127050D01*
X127141Y123550D02*
X128641Y125050D01*
X120141Y123550D02*
X127141D01*
X118240Y125451D02*
X120141Y123550D01*
X118240Y125451D02*
Y133550D01*
X118740Y134050D01*
X119641D01*
X120141Y133550D01*
Y127050D02*
Y133550D01*
Y127050D02*
X120641Y126550D01*
X125641D01*
X126595Y125595D01*
X154491Y126200D02*
X159591D01*
X148641Y132050D02*
X154491Y126200D01*
X130141Y132050D02*
X148641D01*
X128240Y130149D02*
X130141Y132050D01*
X128240Y128638D02*
Y130149D01*
X127303Y127701D02*
X128240Y128638D01*
X121641Y127701D02*
X127303D01*
X121141Y128201D02*
X121641Y127701D01*
X121141Y128201D02*
Y137899D01*
X120641Y138399D02*
X121141Y137899D01*
X94625Y138399D02*
X120641D01*
X94141Y138883D02*
X94625Y138399D01*
X94141Y138883D02*
Y139566D01*
X94625Y140050D01*
X103141D01*
X103641Y140550D01*
X154917Y127774D02*
X158641D01*
X149641Y133050D02*
X154917Y127774D01*
X129641Y133050D02*
X149641D01*
X127756Y131165D02*
X129641Y133050D01*
X122541Y131165D02*
X127756D01*
X122141Y131565D02*
X122541Y131165D01*
X122141Y131565D02*
Y152050D01*
X121641Y152550D02*
X122141Y152050D01*
X219634Y77051D02*
X219659Y77026D01*
X220656D01*
X203681Y113601D02*
X205631Y115551D01*
Y121551D01*
X205131Y122051D02*
X205631Y121551D01*
X203131Y122051D02*
X205131D01*
X202631Y122551D02*
X203131Y122051D01*
X202631Y122551D02*
Y123551D01*
X203131Y124051D01*
X209631D01*
X211131Y122551D01*
X221631D01*
X226131Y118051D01*
X229631D01*
X235631Y112051D01*
X248131D01*
X256131Y104051D01*
X266131D01*
X266631Y103551D01*
Y100076D02*
Y103551D01*
X265806Y99251D02*
X266631Y100076D01*
X203731Y105551D02*
X215131D01*
X217131Y107551D01*
Y110051D01*
X215180Y112002D02*
X217131Y110051D01*
X212131Y112002D02*
X215180D01*
X211631Y112502D02*
X212131Y112002D01*
X211631Y112502D02*
Y116051D01*
X212131Y116551D01*
X218131D01*
X224056Y110626D01*
X229056D01*
X235581Y104101D01*
X243181D01*
X244131Y105051D01*
X246131D01*
X249027Y102155D01*
Y101447D02*
Y102155D01*
X248446Y100866D02*
X249027Y101447D01*
X247740Y100866D02*
X248446D01*
X246206Y102401D02*
X247740Y100866D01*
X243756Y102401D02*
X246206D01*
X226631Y96551D02*
X234131D01*
X235131Y97551D01*
X242056D01*
X243756Y99251D01*
Y96101D02*
X245206Y97551D01*
X247631D01*
X251631Y93551D01*
Y90551D02*
Y93551D01*
X250131Y89051D02*
X251631Y90551D01*
X250131Y76051D02*
Y89051D01*
X246631Y72551D02*
X250131Y76051D01*
X225131Y72551D02*
X246631D01*
X220656Y77026D02*
X225131Y72551D01*
X208804Y108878D02*
X213631D01*
X207631Y110051D02*
X208804Y108878D01*
X207631Y110051D02*
Y111551D01*
X208631Y112551D01*
Y118551D01*
X209631Y119551D01*
X219631D01*
X225780Y113402D01*
X230280D01*
X236631Y107051D01*
X242131D01*
X242631Y107551D01*
Y108551D01*
X243131Y109051D01*
X246131D01*
X254519Y100663D01*
Y97163D02*
Y100663D01*
Y97163D02*
X257744Y93938D01*
X260131D01*
X260769Y93300D01*
Y91688D02*
Y93300D01*
Y91688D02*
X262656Y89801D01*
X211631Y99051D02*
X213631D01*
X211131Y98551D02*
X211631Y99051D01*
X217631Y84051D02*
Y85051D01*
Y84051D02*
X226131Y75551D01*
X244131D01*
X247131Y78551D01*
Y89551D01*
X245631Y91051D02*
X247131Y89551D01*
X245006Y91051D02*
X245631D01*
X243756Y89801D02*
X245006Y91051D01*
X233631Y102051D02*
X233656Y102026D01*
X238631D01*
X244441Y100827D02*
X244855D01*
X246631Y99051D01*
X248131D01*
X253131Y94051D01*
Y90051D02*
Y94051D01*
X251631Y88551D02*
X253131Y90051D01*
X251631Y82450D02*
Y88551D01*
Y82450D02*
X252131Y81950D01*
X255131D01*
X255631Y82450D01*
Y83051D01*
X255131Y83551D02*
X255631Y83051D01*
X253631Y83551D02*
X255131D01*
X253131Y84051D02*
X253631Y83551D01*
X253131Y84051D02*
Y87551D01*
X253631Y88051D01*
X254131D01*
X254631Y87551D01*
Y85551D02*
Y87551D01*
Y85551D02*
X255131Y85051D01*
X256131D01*
X256631Y85551D01*
Y87551D01*
X257131Y88051D01*
X258106D01*
X259506Y86651D01*
X241131Y96051D02*
X242182Y95000D01*
X235631Y96051D02*
X241131D01*
X234131Y94551D02*
X235631Y96051D01*
X225131Y94551D02*
X234131D01*
X224631Y95051D02*
X225131Y94551D01*
X224631Y95051D02*
Y100551D01*
X225131Y101051D01*
X227631D01*
X228032Y101452D01*
Y103150D01*
X227631Y103551D02*
X228032Y103150D01*
X225131Y103551D02*
X227631D01*
X224631Y104051D02*
X225131Y103551D01*
X224631Y104051D02*
Y108051D01*
X217056Y115626D02*
X224631Y108051D01*
X216206Y115626D02*
X217056D01*
X215235Y114655D02*
X216206Y115626D01*
X215235Y113947D02*
Y114655D01*
Y113947D02*
X218631Y110551D01*
Y107051D02*
Y110551D01*
X215631Y104051D02*
X218631Y107051D01*
X202892Y104051D02*
X215631D01*
X200531Y106412D02*
X202892Y104051D01*
X200531Y106412D02*
Y107301D01*
X203681Y101001D02*
X207131D01*
X207631Y100501D01*
Y96051D02*
Y100501D01*
Y96051D02*
X208131Y95551D01*
X209131D01*
X209631Y96051D01*
Y100501D01*
X210131Y101001D01*
X218331D01*
X218631Y100701D01*
Y99851D02*
Y100701D01*
X218331Y99551D02*
X218631Y99851D01*
X215681Y99551D02*
X218331D01*
X215381Y99251D02*
X215681Y99551D01*
X215381Y98351D02*
Y99251D01*
Y98351D02*
X215681Y98051D01*
X218331D01*
X218631Y97751D01*
Y96851D02*
Y97751D01*
X218331Y96551D02*
X218631Y96851D01*
X215681Y96551D02*
X218331D01*
X215381Y96251D02*
X215681Y96551D01*
X215381Y95450D02*
Y96251D01*
Y95450D02*
X215681Y95150D01*
X216331D01*
X216631Y94850D01*
Y93351D02*
Y94850D01*
Y93351D02*
X216931Y93051D01*
X217831D01*
X218131Y93351D01*
Y94850D01*
X218431Y95150D01*
X219831D01*
X220131Y95450D01*
Y104251D01*
X220431Y104551D01*
X221331D01*
X221631Y104251D01*
Y92051D02*
Y104251D01*
Y92051D02*
X222131Y91551D01*
X236131D01*
X236307Y91375D01*
X257631Y84051D02*
X258655Y85075D01*
X257631Y75051D02*
Y84051D01*
X256631Y74051D02*
X257631Y75051D01*
X250131Y74051D02*
X256631D01*
X247131Y71051D02*
X250131Y74051D01*
X223631Y71051D02*
X247131D01*
X222631Y72051D02*
X223631Y71051D01*
X213631Y95051D02*
X215381Y93301D01*
Y91526D02*
Y93301D01*
Y91526D02*
X216356Y90551D01*
X218831D01*
X219131Y90851D01*
Y93251D01*
X219431Y93551D01*
X220331D01*
X220631Y93251D01*
Y85551D02*
Y93251D01*
Y85551D02*
X221131Y85051D01*
X222131D01*
X222631Y85551D01*
Y89551D01*
X223131Y90051D01*
X224131D01*
X224631Y89551D01*
Y81051D02*
Y89551D01*
Y81051D02*
X225631Y80051D01*
X228131D01*
X228631Y80551D01*
Y89551D01*
X229131Y90051D01*
X234631D01*
X235131Y89551D01*
Y79051D02*
Y89551D01*
Y79051D02*
X235631Y78551D01*
X241131D01*
X242131Y79551D01*
X213631Y91051D02*
Y92551D01*
Y91051D02*
X215631Y89051D01*
X218131D01*
X219131Y88051D01*
Y84551D02*
Y88051D01*
Y84551D02*
X226631Y77051D01*
X230131D01*
X230631Y77551D01*
Y88051D01*
X231131Y88551D01*
X232631D01*
X233131Y88051D01*
Y77551D02*
Y88051D01*
Y77551D02*
X233631Y77051D01*
X243631D01*
X245631Y79051D01*
Y84551D01*
X245131Y85051D02*
X245631Y84551D01*
X244256Y85051D02*
X245131D01*
X243756Y84551D02*
X244256Y85051D01*
X243756Y83501D02*
Y84551D01*
X205107Y112027D02*
X207131Y114051D01*
Y119551D01*
X208656Y121076D01*
X221106D01*
X225381Y116801D01*
X228881D01*
X235131Y110551D01*
X247131D01*
X255131Y102551D01*
X260131D01*
X260631Y102051D01*
Y101051D02*
Y102051D01*
X260131Y100551D02*
X260631Y101051D01*
X256631Y100551D02*
X260131D01*
X256131Y100051D02*
X256631Y100551D01*
X256131Y99051D02*
Y100051D01*
Y99051D02*
X256631Y98551D01*
X260131D01*
X260631Y98051D01*
Y97226D02*
Y98051D01*
X259506Y96101D02*
X260631Y97226D01*
X203681Y107301D02*
X203931Y107051D01*
X214631D01*
X215631Y108051D01*
Y109551D01*
X214631Y110551D02*
X215631Y109551D01*
X211131Y110551D02*
X214631D01*
X210131Y111551D02*
X211131Y110551D01*
X210131Y111551D02*
Y117051D01*
X211131Y118051D01*
X218631D01*
X224631Y112051D01*
X229631D01*
X236106Y105576D01*
X242656D01*
X243631Y106551D01*
X246631D01*
X253131Y100051D01*
Y96176D02*
Y100051D01*
Y96176D02*
X259506Y89801D01*
X234831Y99251D02*
X237456D01*
X233631Y98051D02*
X234831Y99251D01*
X230131Y98051D02*
X233631D01*
X229631Y98551D02*
X230131Y98051D01*
X229631Y98551D02*
Y99551D01*
X230131Y100051D01*
X231131D01*
X231631Y100551D01*
Y106051D01*
X230631Y107051D02*
X231631Y106051D01*
X229131Y107051D02*
X230631D01*
X228631Y106551D02*
X229131Y107051D01*
X228631Y105051D02*
Y106551D01*
Y105051D02*
X229631Y104051D01*
Y102051D02*
Y104051D01*
X202105Y101528D02*
Y102100D01*
X202605Y102600D01*
X216180D01*
X220131Y106551D01*
Y109051D01*
X220510Y109430D01*
X221252D01*
X223131Y107551D01*
Y94551D02*
Y107551D01*
Y94551D02*
X224631Y93051D01*
X234631D01*
X236131Y94551D01*
X240106D01*
X240606Y94051D01*
Y92951D02*
Y94051D01*
X243756Y92951D02*
X245631D01*
X246131Y93451D01*
Y95051D01*
X246631Y95551D01*
X247631D01*
X248631Y94551D01*
Y93051D02*
Y94551D01*
X247631Y92051D02*
X248631Y93051D01*
X247631Y91051D02*
Y92051D01*
Y91051D02*
X248631Y90051D01*
Y77051D02*
Y90051D01*
X245631Y74051D02*
X248631Y77051D01*
X225631Y74051D02*
X245631D01*
X216131Y83551D02*
X225631Y74051D01*
X216131Y83551D02*
Y84551D01*
X205631Y99051D02*
X206131Y98551D01*
X204881Y99051D02*
X205631D01*
X203681Y97851D02*
X204881Y99051D01*
X203681Y135651D02*
X203731D01*
X208631Y140551D01*
X243131D01*
X247131Y136551D01*
X204457Y140377D02*
X207532Y143452D01*
X245230D01*
X256631Y132051D01*
Y111576D02*
Y132051D01*
Y111576D02*
X259506Y108701D01*
X203681Y138801D02*
X204881D01*
X208131Y142051D01*
X244131D01*
X249631Y136551D01*
Y134551D02*
Y136551D01*
X204655Y134075D02*
X209631Y139051D01*
X240631D01*
X254631Y125051D01*
Y110551D02*
Y125051D01*
Y110551D02*
X258131Y107051D01*
X261006D01*
X262656Y108701D01*
X209407Y127775D02*
X213131Y124051D01*
X223131D01*
X225131Y122051D01*
X227631D01*
X236280Y113402D01*
X249280D01*
X257106Y105576D01*
X261792D01*
X263318Y107102D01*
X203681Y132501D02*
X205081D01*
X210131Y137551D01*
X239631D01*
X252631Y124551D01*
Y116051D02*
Y124551D01*
X252131Y115551D02*
X252631Y116051D01*
X250131Y115551D02*
X252131D01*
X249631Y116051D02*
X250131Y115551D01*
X249631Y116051D02*
Y125051D01*
X249131Y125551D02*
X249631Y125051D01*
X247406Y125551D02*
X249131D01*
X246906Y125051D02*
X247406Y125551D01*
X246906Y118151D02*
Y125051D01*
X222631Y126051D02*
X224131D01*
X224631Y126551D01*
Y134051D01*
X225131Y134551D01*
X228131D01*
X228631Y134051D01*
Y125551D02*
Y134051D01*
Y125551D02*
X229131Y125051D01*
X231131D01*
X231631Y125551D01*
Y134051D01*
X232131Y134551D01*
X234131D01*
X234631Y134051D01*
Y121551D02*
Y134051D01*
Y121551D02*
X235131Y121051D01*
X243256D01*
X243756Y121551D01*
Y124451D01*
X203681Y129351D02*
X204931D01*
X206631Y131051D01*
X215131D01*
X215631Y130551D01*
Y126551D02*
Y130551D01*
Y126551D02*
X216131Y126051D01*
X220131D01*
X220631Y126551D01*
Y133051D01*
X220131Y133551D02*
X220631Y133051D01*
X211131Y133551D02*
X220131D01*
X210631Y134051D02*
X211131Y133551D01*
X210631Y134051D02*
Y135650D01*
X211131Y136150D01*
X238532D01*
X240631Y134051D01*
Y130776D02*
Y134051D01*
X240606Y130751D02*
X240631Y130776D01*
X149398Y119902D02*
X159587D01*
X144600Y124000D02*
X145200Y124600D01*
X105800Y116800D02*
X106400Y116200D01*
X105800Y116800D02*
Y121400D01*
X106300Y121900D01*
X112000D01*
X92700Y121400D02*
X96100Y118000D01*
X89600Y121400D02*
X92700D01*
X86063Y117862D02*
X89600Y121400D01*
X85147Y116937D02*
X86063Y117853D01*
X83538Y116937D02*
X85147D01*
X69900Y103300D02*
X83538Y116937D01*
X86063Y117853D02*
Y117862D01*
X56900Y103300D02*
X69900D01*
X46900Y113300D02*
X56900Y103300D01*
X27900Y113300D02*
X46900D01*
X12950Y128250D02*
X27900Y113300D01*
X12950Y128250D02*
Y149900D01*
D97*
X82700Y132700D02*
X84500Y134500D01*
X82700Y130500D02*
Y132700D01*
X79000Y126800D02*
X82700Y130500D01*
X79000Y119200D02*
Y126800D01*
X73300Y113500D02*
X79000Y119200D01*
X80400Y118600D02*
Y126400D01*
X84500Y130500D01*
X73800Y112000D02*
X80400Y118600D01*
X65400Y113500D02*
X73300D01*
X62700Y116200D02*
X65400Y113500D01*
X62700Y116200D02*
Y122100D01*
X63700Y123100D01*
X61300Y115500D02*
Y128450D01*
Y115500D02*
X64800Y112000D01*
X57250Y132500D02*
X61300Y128450D01*
X63700Y123100D02*
X66100D01*
X67250Y121950D01*
Y117500D02*
Y121950D01*
X64800Y112000D02*
X73800D01*
M02*
