G04*
G04 #@! TF.GenerationSoftware,Altium Limited,Altium Designer,19.1.9 (167)*
G04*
G04 Layer_Physical_Order=6*
G04 Layer_Color=16711680*
%FSLAX25Y25*%
%MOIN*%
G70*
G01*
G75*
%ADD11C,0.00100*%
%ADD14C,0.01000*%
%ADD22R,0.02000X0.02500*%
%ADD23R,0.07000X0.08500*%
%ADD26R,0.02165X0.02165*%
%ADD27R,0.02165X0.02165*%
%ADD28R,0.02000X0.01200*%
%ADD34R,0.05709X0.03543*%
%ADD35R,0.02500X0.02000*%
%ADD36R,0.03543X0.05709*%
%ADD38C,0.01800*%
%ADD68C,0.00475*%
%ADD69C,0.01500*%
%ADD70C,0.02000*%
%ADD72C,0.00800*%
%ADD75C,0.02500*%
%ADD77C,0.00750*%
%ADD79C,0.01200*%
%ADD80C,0.00600*%
%ADD81C,0.02350*%
%ADD82C,0.06000*%
%ADD83C,0.17500*%
%ADD84C,0.04000*%
%ADD85C,0.09000*%
%ADD86R,0.06000X0.06000*%
%ADD87C,0.06500*%
%ADD88O,0.13500X0.08000*%
%ADD89O,0.07000X0.15000*%
%ADD90O,0.07000X0.18000*%
%ADD91O,0.15000X0.07000*%
%ADD92C,0.01378*%
%ADD93C,0.01968*%
%ADD94C,0.01200*%
%ADD98R,0.06299X0.07559*%
%ADD99O,0.05512X0.01772*%
%ADD100R,0.05787X0.04606*%
%ADD101R,0.04606X0.05787*%
%ADD102R,0.05512X0.01969*%
%ADD103R,0.03150X0.09252*%
%ADD104R,0.15000X0.10000*%
%ADD105R,0.03500X0.02000*%
%ADD106R,0.01800X0.03600*%
%ADD107R,0.07900X0.03500*%
%ADD108R,0.04300X0.04700*%
%ADD109R,0.06000X0.04400*%
%ADD110R,0.11000X0.02800*%
%ADD111R,0.04331X0.02362*%
%ADD112O,0.06102X0.00984*%
%ADD113O,0.05709X0.02362*%
%ADD114R,0.02598X0.02441*%
%ADD115R,0.04500X0.05000*%
%ADD116C,0.00700*%
G36*
X193647Y177008D02*
Y162008D01*
X192647Y161008D01*
X190982D01*
Y162500D01*
X189647D01*
Y163508D01*
X189147Y164008D01*
X187000D01*
Y166156D01*
X191229D01*
Y175860D01*
X183025D01*
Y166156D01*
X185100D01*
Y164008D01*
X174087D01*
Y166156D01*
X176269D01*
Y175860D01*
X168065D01*
Y166156D01*
X172207D01*
Y164008D01*
X169647D01*
Y162500D01*
X168218D01*
Y161008D01*
X166647D01*
X165647Y162008D01*
Y177008D01*
X166647Y178008D01*
X192647D01*
X193647Y177008D01*
D02*
G37*
G36*
X201047Y149918D02*
X201461D01*
Y148378D01*
X199632Y146548D01*
Y146061D01*
X199594Y146036D01*
X199307Y145606D01*
X199258Y145357D01*
X199256Y145352D01*
X199256Y145347D01*
X199206Y145098D01*
X199307Y144591D01*
X199447Y144382D01*
X199451Y144376D01*
X199455Y144369D01*
X199594Y144161D01*
X199632Y144136D01*
Y142912D01*
X199594Y142886D01*
X199307Y142456D01*
X199257Y142205D01*
X199256Y142202D01*
X199256Y142199D01*
X199206Y141949D01*
X199307Y141442D01*
X199444Y141237D01*
X199451Y141226D01*
X199458Y141215D01*
X199594Y141012D01*
X199632Y140986D01*
Y139762D01*
X199594Y139736D01*
X199307Y139306D01*
X199261Y139077D01*
X199255Y139053D01*
X199252Y139029D01*
X199206Y138799D01*
X199235Y138652D01*
X199235Y138652D01*
X198632Y138049D01*
X197878D01*
X198031Y138150D01*
X198130Y138299D01*
X196634D01*
X196733Y138150D01*
X196886Y138049D01*
X194729D01*
X194881Y138150D01*
X194981Y138299D01*
X193484D01*
X193583Y138150D01*
X193736Y138049D01*
X191579D01*
X191732Y138150D01*
X191831Y138299D01*
X191083D01*
Y139299D01*
X191831D01*
X191732Y139448D01*
X191434Y139647D01*
X191083Y139717D01*
X190732Y139647D01*
X190729Y139646D01*
X191632Y140549D01*
Y140753D01*
X191759Y140838D01*
X191829Y140882D01*
X191851Y140899D01*
X192020Y141012D01*
X192134Y141182D01*
X192149Y141201D01*
X192188Y141263D01*
X192307Y141442D01*
X192351Y141660D01*
X192365Y141722D01*
X192367Y141743D01*
X192408Y141949D01*
X192367Y142156D01*
X192365Y142174D01*
X192352Y142230D01*
X192307Y142456D01*
X192177Y142651D01*
X192149Y142695D01*
X192138Y142709D01*
X192020Y142886D01*
X191843Y143004D01*
X191829Y143015D01*
X191785Y143043D01*
X191632Y143145D01*
Y143902D01*
X191772Y143996D01*
X191829Y144032D01*
X191847Y144046D01*
X192020Y144161D01*
X192136Y144335D01*
X192149Y144351D01*
X192182Y144404D01*
X192307Y144591D01*
X192351Y144814D01*
X192365Y144872D01*
X192367Y144892D01*
X192408Y145098D01*
X192367Y145305D01*
X192365Y145324D01*
X192351Y145383D01*
X192307Y145606D01*
X192183Y145792D01*
X192149Y145845D01*
X192136Y145862D01*
X192020Y146036D01*
X191847Y146151D01*
X191829Y146165D01*
X191772Y146201D01*
X191632Y146295D01*
Y147548D01*
X193332Y149249D01*
Y149918D01*
X193732D01*
Y151168D01*
X194732D01*
Y149918D01*
X195132D01*
Y149048D01*
X196442Y147739D01*
Y146032D01*
X196322Y145853D01*
X196300Y145823D01*
X196280Y145789D01*
X196157Y145606D01*
X196119Y145412D01*
X196118Y145409D01*
X196096Y145297D01*
X196095Y145293D01*
X196056Y145098D01*
X196100Y144881D01*
X196105Y144845D01*
X196114Y144809D01*
X196157Y144591D01*
X196267Y144428D01*
X196269Y144424D01*
X196332Y144329D01*
X196335Y144325D01*
X196445Y144161D01*
X196615Y144047D01*
X196632Y144035D01*
Y143014D01*
X196444Y142888D01*
X196157Y142458D01*
X196056Y141951D01*
X196098Y141735D01*
X196101Y141718D01*
X196110Y141676D01*
X196157Y141444D01*
X196263Y141285D01*
X196318Y141198D01*
X196335Y141176D01*
X196444Y141014D01*
X196599Y140910D01*
X196639Y140880D01*
X196735Y140819D01*
X196737Y140818D01*
X196874Y140726D01*
X197035Y140694D01*
X197049Y140690D01*
X197160Y140665D01*
X197213Y140659D01*
X197381Y140625D01*
X197544Y140658D01*
X197612Y140667D01*
X197723Y140692D01*
X197736Y140696D01*
X197888Y140726D01*
X198019Y140814D01*
X198037Y140823D01*
X198132Y140884D01*
X198181Y140922D01*
X198318Y141014D01*
X198412Y141153D01*
X198451Y141205D01*
X198512Y141301D01*
X198517Y141311D01*
X198606Y141444D01*
X198638Y141605D01*
X198641Y141615D01*
X198665Y141726D01*
X198671Y141773D01*
X198707Y141951D01*
X198669Y142139D01*
X198664Y142179D01*
X198642Y142275D01*
X198606Y142458D01*
X198483Y142642D01*
X198447Y142699D01*
X198435Y142713D01*
X198318Y142888D01*
X198133Y143012D01*
X198132Y143012D01*
Y144035D01*
X198132Y144034D01*
X198153Y144050D01*
X198319Y144161D01*
X198431Y144328D01*
X198451Y144355D01*
X198496Y144426D01*
X198606Y144591D01*
X198643Y144772D01*
X198665Y144876D01*
X198669Y144905D01*
X198707Y145098D01*
X198668Y145294D01*
X198664Y145329D01*
X198645Y145413D01*
X198606Y145606D01*
X198502Y145762D01*
X198447Y145849D01*
X198429Y145871D01*
X198322Y146031D01*
Y147739D01*
X199632Y149048D01*
Y149918D01*
X200047D01*
Y151168D01*
X201047D01*
Y149918D01*
D02*
G37*
G36*
X169555Y149918D02*
X169974D01*
Y149209D01*
X171135Y148048D01*
Y145869D01*
X171135Y145868D01*
X171072Y145774D01*
X171070Y145770D01*
X170960Y145606D01*
X170917Y145389D01*
X170908Y145352D01*
X170903Y145316D01*
X170860Y145098D01*
X170898Y144905D01*
X170899Y144901D01*
X170921Y144789D01*
X170922Y144785D01*
X170960Y144591D01*
X171083Y144408D01*
X171103Y144375D01*
X171135Y144328D01*
Y142719D01*
X171135Y142718D01*
X171072Y142624D01*
X171071Y142622D01*
X170960Y142456D01*
X170917Y142237D01*
X170908Y142202D01*
X170903Y142168D01*
X170860Y141949D01*
X170898Y141756D01*
X170899Y141751D01*
X170921Y141639D01*
X170922Y141634D01*
X170960Y141442D01*
X171080Y141262D01*
X171103Y141225D01*
X171135Y141179D01*
Y140549D01*
X172003Y139681D01*
X171834Y139647D01*
X171536Y139448D01*
X171437Y139299D01*
X172185D01*
Y138299D01*
X171437D01*
X171536Y138150D01*
X171689Y138049D01*
X169532D01*
X169684Y138150D01*
X169784Y138299D01*
X168287D01*
X168387Y138150D01*
X168539Y138049D01*
X167635D01*
X167161Y138523D01*
X167172Y138599D01*
X167211Y138799D01*
X167160Y139056D01*
X167157Y139073D01*
X167155Y139081D01*
X167110Y139306D01*
X166989Y139488D01*
X166987Y139491D01*
X166977Y139506D01*
X166823Y139736D01*
X166644Y139857D01*
X166635Y139863D01*
Y140884D01*
X166636Y140884D01*
X166655Y140899D01*
X166823Y141012D01*
X166938Y141184D01*
X166954Y141205D01*
X166990Y141261D01*
X167110Y141442D01*
X167154Y141659D01*
X167168Y141726D01*
X167171Y141745D01*
X167211Y141949D01*
X167170Y142158D01*
X167167Y142179D01*
X167155Y142230D01*
X167110Y142456D01*
X166980Y142652D01*
X166950Y142699D01*
X166940Y142710D01*
X166823Y142886D01*
X166646Y143005D01*
X166635Y143012D01*
Y144035D01*
X166636Y144034D01*
X166651Y144046D01*
X166823Y144161D01*
X166940Y144337D01*
X166954Y144355D01*
X166985Y144404D01*
X167110Y144591D01*
X167155Y144813D01*
X167168Y144876D01*
X167171Y144894D01*
X167211Y145098D01*
X167170Y145307D01*
X167167Y145329D01*
X167155Y145383D01*
X167110Y145606D01*
X166986Y145792D01*
X166950Y145849D01*
X166938Y145863D01*
X166823Y146036D01*
X166650Y146151D01*
X166635Y146162D01*
Y147548D01*
X168135Y149048D01*
Y149918D01*
X168555D01*
Y151168D01*
X169555D01*
Y149918D01*
D02*
G37*
G36*
X172800Y149918D02*
X173300D01*
Y151168D01*
X174300D01*
Y149918D01*
X174800D01*
Y150383D01*
X177635Y147548D01*
Y146094D01*
X177547Y146036D01*
X177427Y145856D01*
X177408Y145831D01*
X177384Y145792D01*
X177260Y145606D01*
X177219Y145400D01*
X177199Y145307D01*
X177198Y145297D01*
X177159Y145098D01*
X177201Y144885D01*
X177206Y144855D01*
X177216Y144812D01*
X177260Y144591D01*
X177372Y144422D01*
X177428Y144337D01*
X177435Y144329D01*
X177547Y144161D01*
X177635Y144103D01*
Y144049D01*
X178989Y142694D01*
X178984Y142697D01*
Y141949D01*
X178484D01*
Y141449D01*
X177736D01*
X177835Y141300D01*
X178133Y141101D01*
X178484Y141031D01*
X178650Y141064D01*
X176219Y138633D01*
X176252Y138799D01*
X176182Y139150D01*
X175984Y139448D01*
X175835Y139548D01*
Y138799D01*
X174835D01*
Y139548D01*
X174686Y139448D01*
X174487Y139150D01*
X174417Y138799D01*
X174425Y138758D01*
X173135Y140049D01*
Y141030D01*
X173243Y141192D01*
X173275Y141237D01*
X173292Y141266D01*
X173410Y141442D01*
X173449Y141640D01*
X173453Y141653D01*
X173470Y141743D01*
X173511Y141949D01*
X173466Y142172D01*
X173459Y142216D01*
X173452Y142242D01*
X173410Y142456D01*
X173295Y142627D01*
X173290Y142636D01*
X173251Y142693D01*
X173135Y142868D01*
Y144180D01*
X173247Y144347D01*
X173275Y144387D01*
X173290Y144412D01*
X173410Y144591D01*
X173449Y144791D01*
X173453Y144803D01*
X173468Y144886D01*
X173511Y145098D01*
X173467Y145320D01*
X173459Y145366D01*
X173452Y145394D01*
X173410Y145606D01*
X173297Y145775D01*
X173290Y145786D01*
X173240Y145860D01*
X173135Y146017D01*
Y148548D01*
X172761Y148923D01*
Y151549D01*
X172800D01*
Y149918D01*
D02*
G37*
G36*
X188425D02*
X188877D01*
Y149051D01*
X190134Y147794D01*
Y146019D01*
X190037Y145873D01*
X189994Y145813D01*
X189971Y145775D01*
X189858Y145606D01*
X189818Y145404D01*
X189816Y145397D01*
X189807Y145350D01*
X189757Y145098D01*
X189858Y144591D01*
X190134Y144178D01*
Y142869D01*
X190033Y142718D01*
X189994Y142663D01*
X189973Y142628D01*
X189858Y142456D01*
X189818Y142253D01*
X189816Y142247D01*
X189808Y142207D01*
X189757Y141949D01*
X189810Y141685D01*
X189810Y141684D01*
X189810Y141683D01*
X189858Y141442D01*
X190134Y141029D01*
Y140551D01*
X187634Y138051D01*
X185284D01*
X185432Y138150D01*
X185532Y138299D01*
X184783D01*
Y138799D01*
X184283D01*
Y139548D01*
X184135Y139448D01*
X184134Y139447D01*
Y140051D01*
X184719Y140636D01*
X184783Y140623D01*
X185002Y140667D01*
X185035Y140672D01*
X185071Y140681D01*
X185291Y140724D01*
X185452Y140832D01*
X185457Y140835D01*
X185551Y140898D01*
X185558Y140903D01*
X185721Y141012D01*
X185837Y141186D01*
X185865Y141223D01*
X185892Y141268D01*
X186008Y141442D01*
X186045Y141625D01*
X186048Y141637D01*
X186070Y141748D01*
X186072Y141764D01*
X186109Y141949D01*
X186070Y142142D01*
X186062Y142200D01*
X186046Y142264D01*
X186008Y142456D01*
X185907Y142608D01*
X185899Y142622D01*
X185836Y142717D01*
X185823Y142733D01*
X185721Y142886D01*
X185634Y142944D01*
Y144103D01*
X185721Y144161D01*
X185832Y144328D01*
X185860Y144366D01*
X185897Y144425D01*
X186008Y144591D01*
X186044Y144770D01*
X186046Y144778D01*
X186069Y144889D01*
X186072Y144912D01*
X186109Y145098D01*
X186070Y145293D01*
X186063Y145342D01*
X186047Y145412D01*
X186008Y145606D01*
X185907Y145758D01*
X185903Y145764D01*
X185841Y145859D01*
X185827Y145876D01*
X185721Y146036D01*
X185634Y146094D01*
Y147713D01*
X186971Y149050D01*
Y149918D01*
X187425D01*
Y151168D01*
X188425D01*
Y149918D01*
D02*
G37*
G36*
X104200Y150000D02*
Y141800D01*
X103700D01*
X103300Y141400D01*
Y141000D01*
X102018D01*
Y139782D01*
X99300Y142500D01*
Y143093D01*
X99341Y143300D01*
X99300Y143508D01*
X99300Y145300D01*
X99000Y145600D01*
X98528D01*
Y147900D01*
X96225D01*
Y148900D01*
X98528D01*
Y151000D01*
X103200D01*
X104200Y150000D01*
D02*
G37*
G36*
X161759Y123928D02*
X161716Y123865D01*
X161665Y123790D01*
X161665Y123790D01*
X161647Y123761D01*
X161512Y123558D01*
X161465Y123325D01*
X161453Y123268D01*
X161451Y123256D01*
X161411Y123051D01*
X161452Y122844D01*
X161456Y122816D01*
X161469Y122759D01*
X161512Y122544D01*
X161614Y122390D01*
X161675Y122296D01*
X161689Y122278D01*
X161799Y122114D01*
X161964Y122004D01*
X161997Y121979D01*
X162070Y121933D01*
X162229Y121827D01*
X162402Y121792D01*
X162408Y121790D01*
X162519Y121766D01*
X162552Y121762D01*
X162736Y121726D01*
X162890Y121756D01*
X162928Y121759D01*
X163137Y121550D01*
X163611D01*
Y121448D01*
X165739D01*
X166637Y120550D01*
Y120398D01*
X166535Y120551D01*
X166386Y120650D01*
Y119902D01*
Y119153D01*
X166535Y119253D01*
X166637Y119405D01*
Y117752D01*
X166228D01*
Y116752D01*
X165228D01*
Y117752D01*
X164637D01*
Y118050D01*
X163137Y119550D01*
X161137D01*
X160891Y119796D01*
X160912Y119902D01*
X160873Y120098D01*
X160872Y120109D01*
X160850Y120214D01*
X160811Y120409D01*
X160681Y120604D01*
X160663Y120633D01*
X160649Y120651D01*
X160524Y120839D01*
X160348Y120957D01*
X160347Y120957D01*
X160342Y120960D01*
X160094Y121126D01*
X159846Y121176D01*
X159829Y121179D01*
X159818Y121181D01*
X159587Y121227D01*
X159079Y121126D01*
X158873Y120988D01*
X158854Y120976D01*
X158842Y120967D01*
X158649Y120839D01*
X158533Y120665D01*
X158530Y120661D01*
X158502Y120619D01*
X158457Y120550D01*
X154582D01*
Y120976D01*
X153332D01*
Y121976D01*
X154582D01*
Y122476D01*
X153637D01*
Y122550D01*
X156137D01*
X158637Y125050D01*
X158969D01*
X159079Y124976D01*
X159274Y124937D01*
X159338Y124922D01*
X159391Y124914D01*
X159587Y124875D01*
X159771Y124912D01*
X159790Y124914D01*
X159901Y124937D01*
X159913Y124940D01*
X160094Y124976D01*
X160205Y125050D01*
X160637D01*
X161759Y123928D01*
D02*
G37*
G36*
X166228Y128350D02*
X166978D01*
Y128422D01*
X167636Y127764D01*
X167636Y124736D01*
X166951Y124051D01*
X166228D01*
Y123051D01*
X165728D01*
Y122551D01*
X164478D01*
Y122550D01*
X164400D01*
Y128000D01*
X164750Y128350D01*
X165228D01*
Y129350D01*
X166228D01*
Y128350D01*
D02*
G37*
G36*
X163137Y118051D02*
Y117567D01*
X163087Y117600D01*
X162736Y117670D01*
X162385Y117600D01*
X162087Y117401D01*
X161988Y117252D01*
X162736D01*
Y116252D01*
X161988D01*
X162087Y116103D01*
X162385Y115904D01*
X162736Y115834D01*
X163087Y115904D01*
X163137Y115937D01*
Y115551D01*
X162460Y114874D01*
X162437Y114868D01*
X162229Y114827D01*
X161816Y114551D01*
X160507D01*
X160317Y114678D01*
X160298Y114691D01*
X160286Y114699D01*
X160094Y114827D01*
X159587Y114928D01*
X159336Y114878D01*
X159319Y114875D01*
X159309Y114873D01*
X159079Y114827D01*
X158901Y114708D01*
X158899Y114707D01*
X158888Y114699D01*
X158666Y114551D01*
X157637D01*
X155637Y116551D01*
X154582D01*
Y117039D01*
X153332D01*
Y118039D01*
X154582D01*
Y118539D01*
X153137D01*
Y118551D01*
X155637D01*
X156137Y119051D01*
X158591D01*
X158649Y118964D01*
X158817Y118853D01*
X158854Y118825D01*
X158913Y118788D01*
X159079Y118677D01*
X159258Y118641D01*
X159266Y118639D01*
X159378Y118616D01*
X159400Y118613D01*
X159587Y118576D01*
X159782Y118615D01*
X159830Y118622D01*
X159900Y118639D01*
X160094Y118677D01*
X160246Y118779D01*
X160253Y118782D01*
X160348Y118844D01*
X160364Y118858D01*
X160524Y118964D01*
X160582Y119051D01*
X162137D01*
X163137Y118051D01*
D02*
G37*
G36*
X192986Y107700D02*
X192973Y107635D01*
X192963Y107592D01*
X192963Y107591D01*
X192950Y107520D01*
X192907Y107303D01*
X192952Y107078D01*
X192960Y107028D01*
X192966Y107006D01*
X193008Y106796D01*
X193124Y106622D01*
X193131Y106609D01*
X193165Y106561D01*
X193295Y106366D01*
X193489Y106236D01*
X193528Y106209D01*
X193546Y106198D01*
X193633Y106140D01*
Y105316D01*
X193553Y105263D01*
X193534Y105252D01*
X193478Y105213D01*
X193295Y105091D01*
X193170Y104904D01*
X193135Y104854D01*
X193124Y104835D01*
X193008Y104661D01*
X192967Y104455D01*
X192962Y104437D01*
X192951Y104376D01*
X192907Y104154D01*
X192951Y103931D01*
X192961Y103873D01*
X192967Y103853D01*
X193008Y103646D01*
X193124Y103472D01*
X193134Y103455D01*
X193170Y103403D01*
X193295Y103216D01*
X193478Y103094D01*
X193532Y103056D01*
X193552Y103044D01*
X193633Y102991D01*
Y102167D01*
X193549Y102111D01*
X193534Y102102D01*
X193491Y102072D01*
X193295Y101941D01*
X193165Y101746D01*
X193135Y101705D01*
X193126Y101689D01*
X193008Y101511D01*
X192967Y101304D01*
X192962Y101287D01*
X192952Y101230D01*
X192907Y101004D01*
X192950Y100784D01*
X192961Y100723D01*
X192967Y100702D01*
X193008Y100497D01*
X193122Y100326D01*
X193134Y100305D01*
X193177Y100244D01*
X193295Y100067D01*
X193466Y99952D01*
X193532Y99906D01*
X193556Y99892D01*
X193633Y99841D01*
Y98554D01*
X192633Y97554D01*
Y96209D01*
X192623Y96199D01*
Y88985D01*
X192633Y88975D01*
Y88782D01*
X192134D01*
Y87532D01*
X191134D01*
Y88782D01*
X190634D01*
Y87054D01*
X190633D01*
Y89554D01*
X189296Y90891D01*
X189282Y90942D01*
X189282Y90942D01*
X189243Y91062D01*
X189193Y91179D01*
X189134Y91290D01*
X189065Y91397D01*
X188987Y91497D01*
X188900Y91589D01*
X188806Y91674D01*
X188705Y91750D01*
X188633Y91797D01*
Y99906D01*
X188633Y99906D01*
X188700Y99953D01*
X188870Y100067D01*
X188989Y100244D01*
X189031Y100304D01*
X189043Y100325D01*
X189158Y100497D01*
X189198Y100701D01*
X189204Y100722D01*
X189215Y100784D01*
X189259Y101004D01*
X189214Y101230D01*
X189204Y101286D01*
X189199Y101304D01*
X189158Y101511D01*
X189039Y101688D01*
X189031Y101704D01*
X189001Y101746D01*
X188870Y101941D01*
X188679Y102069D01*
X188633Y102102D01*
Y103058D01*
X188870Y103216D01*
X189158Y103646D01*
X189259Y104154D01*
X189208Y104406D01*
X189202Y104439D01*
X189200Y104449D01*
X189158Y104661D01*
X189042Y104834D01*
X189029Y104857D01*
X188987Y104916D01*
X188870Y105091D01*
X188724Y105188D01*
X188723Y105190D01*
X188633Y105253D01*
Y106207D01*
X188870Y106366D01*
X189158Y106796D01*
X189259Y107303D01*
X189216Y107519D01*
X189200Y107621D01*
X189633Y108054D01*
X190586D01*
X190434Y107952D01*
X190334Y107803D01*
X191831D01*
X191732Y107952D01*
X191580Y108054D01*
X192633D01*
X192986Y107700D01*
D02*
G37*
G36*
X161595Y111094D02*
X161584Y111068D01*
X161512Y110960D01*
X161474Y110769D01*
X161470Y110755D01*
X161448Y110643D01*
X161448Y110638D01*
X161411Y110453D01*
X161453Y110241D01*
X161461Y110191D01*
X161470Y110154D01*
X161512Y109946D01*
X161622Y109780D01*
X161627Y109771D01*
X161691Y109677D01*
X161692Y109676D01*
X161799Y109516D01*
X161984Y109392D01*
X162020Y109366D01*
X162048Y109349D01*
X162229Y109228D01*
X162426Y109189D01*
X162435Y109187D01*
X162545Y109165D01*
X162736Y109127D01*
X162956Y109171D01*
X162998Y109178D01*
X163029Y109186D01*
X163243Y109228D01*
X163354Y109302D01*
X163377Y109312D01*
X163610Y109080D01*
Y108851D01*
X163838D01*
X164136Y108553D01*
X166636D01*
X167136Y108053D01*
Y106732D01*
X166522Y106118D01*
Y105838D01*
X166521Y105803D01*
X166516Y105769D01*
X166509Y105735D01*
X166498Y105701D01*
X166485Y105669D01*
X166469Y105638D01*
X166450Y105609D01*
X166429Y105581D01*
X166405Y105555D01*
X166379Y105532D01*
X166352Y105510D01*
X166322Y105492D01*
X166291Y105476D01*
X166259Y105462D01*
X166226Y105452D01*
X166192Y105444D01*
X166157Y105440D01*
X166122Y105438D01*
X166087Y105440D01*
X166077Y105441D01*
X165886Y105479D01*
X165662Y105435D01*
X165615Y105427D01*
X165591Y105420D01*
X165379Y105378D01*
X165206Y105263D01*
X165196Y105257D01*
X165143Y105220D01*
X164949Y105091D01*
X164820Y104898D01*
X164794Y104862D01*
X164782Y104842D01*
X164661Y104661D01*
X164621Y104458D01*
X164618Y104446D01*
X164605Y104376D01*
X164561Y104156D01*
X164238Y103833D01*
X164038Y104033D01*
X164062Y104154D01*
X164024Y104342D01*
X164024Y104348D01*
X164002Y104459D01*
X163999Y104469D01*
X163961Y104661D01*
X163841Y104841D01*
X163821Y104874D01*
X163795Y104909D01*
X163673Y105091D01*
X163511Y105199D01*
X163509Y105201D01*
X163415Y105264D01*
X163409Y105268D01*
X163243Y105378D01*
X163028Y105421D01*
X162994Y105429D01*
X162955Y105436D01*
X162736Y105479D01*
X162544Y105441D01*
X162542Y105441D01*
X162430Y105419D01*
X162424Y105417D01*
X162229Y105378D01*
X162047Y105256D01*
X162016Y105238D01*
X161983Y105214D01*
X161799Y105091D01*
X161691Y104929D01*
X161688Y104926D01*
X161625Y104832D01*
X161621Y104824D01*
X161512Y104661D01*
X161470Y104451D01*
X161460Y104411D01*
X161453Y104364D01*
X161411Y104154D01*
X161448Y103966D01*
X161449Y103959D01*
X161471Y103847D01*
X161474Y103836D01*
X161512Y103646D01*
X161627Y103474D01*
X161652Y103433D01*
X161683Y103389D01*
X161799Y103216D01*
X161955Y103112D01*
X161963Y103105D01*
X162058Y103042D01*
X162071Y103035D01*
X162229Y102929D01*
X162429Y102889D01*
X162479Y102877D01*
X162536Y102868D01*
X162736Y102828D01*
X162910Y102863D01*
X162915Y102863D01*
X162915Y102863D01*
X162950Y102867D01*
X162985Y102867D01*
X163020Y102864D01*
X163054Y102858D01*
X163088Y102849D01*
X163121Y102838D01*
X163152Y102823D01*
X163183Y102806D01*
X163211Y102786D01*
X163238Y102764D01*
X163263Y102740D01*
X163286Y102713D01*
X163306Y102684D01*
X163324Y102654D01*
X163339Y102623D01*
X163351Y102590D01*
X163360Y102557D01*
X163366Y102522D01*
X163370Y102488D01*
X163370Y102467D01*
Y102240D01*
X163185D01*
X163024Y102272D01*
X163003Y102278D01*
X162969Y102283D01*
X162736Y102329D01*
X162488Y102280D01*
X162440Y102271D01*
X162433Y102269D01*
X162229Y102228D01*
X162044Y102105D01*
X162024Y102093D01*
X161980Y102062D01*
X161967Y102053D01*
X160356D01*
X160094Y102228D01*
X159843Y102278D01*
X159839Y102279D01*
X159836Y102280D01*
X159587Y102329D01*
X159079Y102228D01*
X158877Y102093D01*
X158865Y102086D01*
X158815Y102053D01*
X158636D01*
X157636Y101053D01*
Y100382D01*
X157072Y99818D01*
Y99229D01*
X157050Y99117D01*
Y97467D01*
X156636Y97053D01*
X154582D01*
Y97354D01*
X153332D01*
Y98354D01*
X154582D01*
Y98854D01*
X153136D01*
Y100791D01*
X154581D01*
Y101291D01*
X153331D01*
Y102291D01*
X154581D01*
Y102791D01*
X153136D01*
Y104728D01*
X154582D01*
Y105228D01*
X153332D01*
Y106228D01*
X154582D01*
Y106553D01*
X155636D01*
X156636Y107553D01*
Y110553D01*
X157636Y111553D01*
X161136D01*
X161595Y111094D01*
D02*
G37*
G36*
X103000Y69693D02*
X105000D01*
Y66307D01*
X103000D01*
Y64535D01*
X102000D01*
Y66307D01*
X99646D01*
Y65750D01*
X97854D01*
Y65756D01*
X97909Y66031D01*
X97854Y66307D01*
Y66307D01*
X97854D01*
X97833Y66416D01*
X97615Y66741D01*
X97405Y66881D01*
Y66031D01*
X96406D01*
Y66881D01*
X96196Y66741D01*
X95978Y66416D01*
X95957Y66307D01*
X95500D01*
Y64535D01*
X95000D01*
Y64035D01*
X92146D01*
Y63200D01*
X91950D01*
X91000Y62250D01*
Y56250D01*
X89750Y55000D01*
X82854D01*
Y55965D01*
X80000D01*
Y56965D01*
X82854D01*
Y57900D01*
X83100D01*
X83800Y58600D01*
X83800Y66200D01*
X82750Y67250D01*
X79000Y67250D01*
X78000Y68250D01*
Y69693D01*
X79500D01*
Y71465D01*
X80500D01*
Y69693D01*
X82854D01*
Y70250D01*
X84147D01*
X84091Y69968D01*
X84167Y69585D01*
X84385Y69259D01*
X84595Y69119D01*
Y69968D01*
X85594D01*
Y69119D01*
X85804Y69259D01*
X86022Y69585D01*
X86043Y69693D01*
X87000D01*
Y71465D01*
X88000D01*
Y69693D01*
X88083D01*
X88104Y69585D01*
X88322Y69259D01*
X88532Y69119D01*
Y69968D01*
X89531D01*
Y69119D01*
X89741Y69259D01*
X89959Y69585D01*
X89980Y69693D01*
X90354D01*
Y70250D01*
X92021D01*
X91965Y69968D01*
X92041Y69585D01*
X92259Y69259D01*
X92469Y69119D01*
Y69968D01*
X93468D01*
Y69119D01*
X93678Y69259D01*
X93896Y69585D01*
X93917Y69693D01*
X94500D01*
Y71465D01*
X95500D01*
Y69693D01*
X95957D01*
X95978Y69585D01*
X96196Y69259D01*
X96406Y69119D01*
Y69968D01*
X97405D01*
Y69119D01*
X97615Y69259D01*
X97833Y69585D01*
X97854Y69693D01*
X97854D01*
Y69693D01*
X97909Y69968D01*
X97854Y70244D01*
Y70250D01*
X99646D01*
Y69693D01*
X102000D01*
Y71465D01*
X103000D01*
Y69693D01*
D02*
G37*
%LPC*%
G36*
X175884Y165799D02*
Y165551D01*
X176132D01*
X176033Y165700D01*
X175884Y165799D01*
D02*
G37*
G36*
X174884D02*
X174735Y165700D01*
X174636Y165551D01*
X174884D01*
Y165799D01*
D02*
G37*
G36*
X176132Y164551D02*
X175884D01*
Y164303D01*
X176033Y164402D01*
X176132Y164551D01*
D02*
G37*
G36*
X174884D02*
X174636D01*
X174735Y164402D01*
X174884Y164303D01*
Y164551D01*
D02*
G37*
G36*
X194232Y146424D02*
X193725Y146323D01*
X193295Y146036D01*
X193008Y145606D01*
X192907Y145098D01*
X193008Y144591D01*
X193295Y144161D01*
X193725Y143874D01*
X194232Y143773D01*
X194739Y143874D01*
X195169Y144161D01*
X195457Y144591D01*
X195558Y145098D01*
X195457Y145606D01*
X195169Y146036D01*
X194739Y146323D01*
X194232Y146424D01*
D02*
G37*
G36*
X197882Y139548D02*
Y139299D01*
X198130D01*
X198031Y139448D01*
X197882Y139548D01*
D02*
G37*
G36*
X196882D02*
X196733Y139448D01*
X196634Y139299D01*
X196882D01*
Y139548D01*
D02*
G37*
G36*
X194732D02*
Y139299D01*
X194981D01*
X194881Y139448D01*
X194732Y139548D01*
D02*
G37*
G36*
X193732D02*
X193583Y139448D01*
X193484Y139299D01*
X193732D01*
Y139548D01*
D02*
G37*
G36*
X169035Y146424D02*
X168528Y146323D01*
X168098Y146036D01*
X167811Y145606D01*
X167710Y145098D01*
X167811Y144591D01*
X168098Y144161D01*
X168528Y143874D01*
X169035Y143773D01*
X169543Y143874D01*
X169973Y144161D01*
X170260Y144591D01*
X170361Y145098D01*
X170260Y145606D01*
X169973Y146036D01*
X169543Y146323D01*
X169035Y146424D01*
D02*
G37*
G36*
X169035Y143274D02*
X168528Y143173D01*
X168098Y142886D01*
X167811Y142456D01*
X167710Y141949D01*
X167811Y141442D01*
X168098Y141012D01*
X168528Y140724D01*
X169035Y140623D01*
X169543Y140724D01*
X169973Y141012D01*
X170260Y141442D01*
X170361Y141949D01*
X170260Y142456D01*
X169973Y142886D01*
X169543Y143173D01*
X169035Y143274D01*
D02*
G37*
G36*
X169535Y139548D02*
Y139299D01*
X169784D01*
X169684Y139448D01*
X169535Y139548D01*
D02*
G37*
G36*
X168535D02*
X168387Y139448D01*
X168287Y139299D01*
X168535D01*
Y139548D01*
D02*
G37*
G36*
X175335Y146424D02*
X174827Y146323D01*
X174397Y146036D01*
X174110Y145606D01*
X174009Y145098D01*
X174110Y144591D01*
X174397Y144161D01*
X174827Y143874D01*
X175335Y143773D01*
X175842Y143874D01*
X176272Y144161D01*
X176559Y144591D01*
X176660Y145098D01*
X176559Y145606D01*
X176272Y146036D01*
X175842Y146323D01*
X175335Y146424D01*
D02*
G37*
G36*
X177984Y142697D02*
X177835Y142598D01*
X177736Y142449D01*
X177984D01*
Y142697D01*
D02*
G37*
G36*
X187933Y146424D02*
X187426Y146323D01*
X186996Y146036D01*
X186708Y145606D01*
X186608Y145098D01*
X186708Y144591D01*
X186996Y144161D01*
X187426Y143874D01*
X187933Y143773D01*
X188440Y143874D01*
X188870Y144161D01*
X189158Y144591D01*
X189259Y145098D01*
X189158Y145606D01*
X188870Y146036D01*
X188440Y146323D01*
X187933Y146424D01*
D02*
G37*
G36*
Y143274D02*
X187426Y143173D01*
X186996Y142886D01*
X186708Y142456D01*
X186608Y141949D01*
X186708Y141442D01*
X186996Y141012D01*
X187426Y140724D01*
X187933Y140623D01*
X188440Y140724D01*
X188870Y141012D01*
X189158Y141442D01*
X189259Y141949D01*
X189158Y142456D01*
X188870Y142886D01*
X188440Y143173D01*
X187933Y143274D01*
D02*
G37*
G36*
X185284Y139548D02*
Y139299D01*
X185532D01*
X185432Y139448D01*
X185284Y139548D01*
D02*
G37*
G36*
X101800Y150048D02*
Y149800D01*
X102048D01*
X101949Y149949D01*
X101800Y150048D01*
D02*
G37*
G36*
X100800D02*
X100651Y149949D01*
X100552Y149800D01*
X100800D01*
Y150048D01*
D02*
G37*
G36*
X102048Y148800D02*
X101800D01*
Y148552D01*
X101949Y148651D01*
X102048Y148800D01*
D02*
G37*
G36*
X100800D02*
X100552D01*
X100651Y148651D01*
X100800Y148552D01*
Y148800D01*
D02*
G37*
G36*
X101953Y144625D02*
X101446Y144525D01*
X101015Y144237D01*
X100728Y143807D01*
X100627Y143300D01*
X100728Y142793D01*
X101015Y142363D01*
X101446Y142075D01*
X101953Y141974D01*
X102460Y142075D01*
X102890Y142363D01*
X103177Y142793D01*
X103278Y143300D01*
X103177Y143807D01*
X102890Y144237D01*
X102460Y144525D01*
X101953Y144625D01*
D02*
G37*
G36*
X159587Y124377D02*
X159079Y124276D01*
X158649Y123988D01*
X158362Y123558D01*
X158261Y123051D01*
X158362Y122544D01*
X158649Y122114D01*
X159079Y121827D01*
X159587Y121726D01*
X160094Y121827D01*
X160524Y122114D01*
X160811Y122544D01*
X160912Y123051D01*
X160811Y123558D01*
X160524Y123988D01*
X160094Y124276D01*
X159587Y124377D01*
D02*
G37*
G36*
X165386Y120650D02*
X165237Y120551D01*
X165138Y120402D01*
X165386D01*
Y120650D01*
D02*
G37*
G36*
Y119402D02*
X165138D01*
X165237Y119253D01*
X165386Y119153D01*
Y119402D01*
D02*
G37*
G36*
X165886Y127526D02*
X165379Y127425D01*
X164949Y127138D01*
X164661Y126708D01*
X164560Y126201D01*
X164661Y125694D01*
X164949Y125264D01*
X165379Y124976D01*
X165886Y124875D01*
X166393Y124976D01*
X166823Y125264D01*
X167110Y125694D01*
X167211Y126201D01*
X167110Y126708D01*
X166823Y127138D01*
X166393Y127425D01*
X165886Y127526D01*
D02*
G37*
G36*
X165228Y124051D02*
X164478D01*
Y123551D01*
X165228D01*
Y124051D01*
D02*
G37*
G36*
X159587Y118078D02*
X159079Y117977D01*
X158649Y117689D01*
X158362Y117259D01*
X158261Y116752D01*
X158362Y116245D01*
X158649Y115815D01*
X159079Y115527D01*
X159587Y115427D01*
X160094Y115527D01*
X160524Y115815D01*
X160811Y116245D01*
X160912Y116752D01*
X160811Y117259D01*
X160524Y117689D01*
X160094Y117977D01*
X159587Y118078D01*
D02*
G37*
G36*
X191831Y106803D02*
X191583D01*
Y106555D01*
X191732Y106654D01*
X191831Y106803D01*
D02*
G37*
G36*
X190583D02*
X190334D01*
X190434Y106654D01*
X190583Y106555D01*
Y106803D01*
D02*
G37*
G36*
X191083Y105479D02*
X190575Y105378D01*
X190145Y105091D01*
X189858Y104661D01*
X189757Y104154D01*
X189858Y103646D01*
X190145Y103216D01*
X190575Y102929D01*
X191083Y102828D01*
X191590Y102929D01*
X192020Y103216D01*
X192307Y103646D01*
X192408Y104154D01*
X192307Y104661D01*
X192020Y105091D01*
X191590Y105378D01*
X191083Y105479D01*
D02*
G37*
G36*
Y102329D02*
X190575Y102228D01*
X190145Y101941D01*
X189858Y101511D01*
X189757Y101004D01*
X189858Y100497D01*
X190145Y100067D01*
X190575Y99779D01*
X191083Y99678D01*
X191590Y99779D01*
X192020Y100067D01*
X192307Y100497D01*
X192408Y101004D01*
X192307Y101511D01*
X192020Y101941D01*
X191590Y102228D01*
X191083Y102329D01*
D02*
G37*
G36*
X166386Y108052D02*
Y107803D01*
X166634D01*
X166535Y107952D01*
X166386Y108052D01*
D02*
G37*
G36*
X165386D02*
X165237Y107952D01*
X165138Y107803D01*
X165386D01*
Y108052D01*
D02*
G37*
G36*
X166634Y106803D02*
X166386D01*
Y106555D01*
X166535Y106654D01*
X166634Y106803D01*
D02*
G37*
G36*
X165386D02*
X165138D01*
X165237Y106654D01*
X165386Y106555D01*
Y106803D01*
D02*
G37*
G36*
X162736Y108629D02*
X162229Y108528D01*
X161799Y108240D01*
X161512Y107810D01*
X161411Y107303D01*
X161512Y106796D01*
X161799Y106366D01*
X162229Y106079D01*
X162736Y105978D01*
X163243Y106079D01*
X163673Y106366D01*
X163961Y106796D01*
X164062Y107303D01*
X163961Y107810D01*
X163673Y108240D01*
X163243Y108528D01*
X162736Y108629D01*
D02*
G37*
G36*
X159587D02*
X159079Y108528D01*
X158649Y108240D01*
X158362Y107810D01*
X158261Y107303D01*
X158362Y106796D01*
X158649Y106366D01*
X159079Y106079D01*
X159587Y105978D01*
X160094Y106079D01*
X160524Y106366D01*
X160811Y106796D01*
X160912Y107303D01*
X160811Y107810D01*
X160524Y108240D01*
X160094Y108528D01*
X159587Y108629D01*
D02*
G37*
G36*
Y105479D02*
X159079Y105378D01*
X158649Y105091D01*
X158362Y104661D01*
X158261Y104154D01*
X158362Y103646D01*
X158649Y103216D01*
X159079Y102929D01*
X159587Y102828D01*
X160094Y102929D01*
X160524Y103216D01*
X160811Y103646D01*
X160912Y104154D01*
X160811Y104661D01*
X160524Y105091D01*
X160094Y105378D01*
X159587Y105479D01*
D02*
G37*
G36*
X92469Y66881D02*
X92259Y66741D01*
X92119Y66531D01*
X92469D01*
Y66881D01*
D02*
G37*
G36*
X89531D02*
Y66531D01*
X89881D01*
X89741Y66741D01*
X89531Y66881D01*
D02*
G37*
G36*
X88532D02*
X88322Y66741D01*
X88182Y66531D01*
X88532D01*
Y66881D01*
D02*
G37*
G36*
X85594D02*
Y66531D01*
X85944D01*
X85804Y66741D01*
X85594Y66881D01*
D02*
G37*
G36*
X84595D02*
X84385Y66741D01*
X84245Y66531D01*
X84595D01*
Y66881D01*
D02*
G37*
G36*
X89881Y65531D02*
X89531D01*
Y65182D01*
X89741Y65322D01*
X89881Y65531D01*
D02*
G37*
G36*
X88532D02*
X88182D01*
X88322Y65322D01*
X88532Y65182D01*
Y65531D01*
D02*
G37*
G36*
X85944D02*
X85594D01*
Y65182D01*
X85804Y65322D01*
X85944Y65531D01*
D02*
G37*
G36*
X84595D02*
X84245D01*
X84385Y65322D01*
X84595Y65182D01*
Y65531D01*
D02*
G37*
G36*
X93468Y66881D02*
Y66031D01*
X92968D01*
Y65531D01*
X92119D01*
X92146Y65491D01*
Y65035D01*
X94500D01*
Y66307D01*
X93917D01*
X93896Y66416D01*
X93678Y66741D01*
X93468Y66881D01*
D02*
G37*
G36*
X89531Y62944D02*
Y62594D01*
X89881D01*
X89741Y62804D01*
X89531Y62944D01*
D02*
G37*
G36*
X88532D02*
X88322Y62804D01*
X88182Y62594D01*
X88532D01*
Y62944D01*
D02*
G37*
G36*
X85594D02*
Y62594D01*
X85944D01*
X85804Y62804D01*
X85594Y62944D01*
D02*
G37*
G36*
X84595D02*
X84385Y62804D01*
X84245Y62594D01*
X84595D01*
Y62944D01*
D02*
G37*
G36*
X89881Y61594D02*
X89531D01*
Y61245D01*
X89741Y61385D01*
X89881Y61594D01*
D02*
G37*
G36*
X88532D02*
X88182D01*
X88322Y61385D01*
X88532Y61245D01*
Y61594D01*
D02*
G37*
G36*
X85944D02*
X85594D01*
Y61245D01*
X85804Y61385D01*
X85944Y61594D01*
D02*
G37*
G36*
X84595D02*
X84245D01*
X84385Y61385D01*
X84595Y61245D01*
Y61594D01*
D02*
G37*
%LPD*%
D11*
X234034Y76926D02*
Y134176D01*
X269234D01*
Y76926D02*
Y134176D01*
X234034Y76926D02*
X269234D01*
D14*
X101600Y167900D02*
Y171168D01*
X102921Y177821D02*
X104200D01*
X101600Y176500D02*
X102921Y177821D01*
X101600Y174632D02*
Y176500D01*
X124121Y175853D02*
X126090D01*
X122800Y174532D02*
X124121Y175853D01*
X121800Y174532D02*
X122800D01*
X122153Y177821D02*
Y179790D01*
X121800Y177469D02*
X122153Y177821D01*
X121800Y174532D02*
Y177469D01*
X112310Y169947D02*
X114279D01*
X115499Y171168D01*
X116600D01*
X116247Y165900D02*
Y167979D01*
X116600Y168332D01*
Y171168D01*
X164310Y140375D02*
X165886Y138799D01*
X181634Y137382D02*
X183051D01*
X184783Y135650D01*
X156300Y135600D02*
X157800Y137100D01*
X153332Y135600D02*
X156300D01*
X140025Y134000D02*
X140328Y133697D01*
X213645Y191142D02*
X213682Y191104D01*
X213645Y191142D02*
X213645Y191142D01*
X173760Y121476D02*
Y122551D01*
X173442Y122869D02*
X173760Y122551D01*
X173421Y122869D02*
X173442D01*
X172185Y119902D02*
X173760Y121476D01*
X173602Y123051D02*
X173760Y123209D01*
Y124626D01*
X175335Y126201D01*
X173421Y122869D02*
X173602Y123051D01*
X169943Y110953D02*
Y111360D01*
X169443Y110453D02*
X169943Y110953D01*
X169193Y110453D02*
X169443D01*
X169943Y111360D02*
X172185Y113602D01*
X175335Y135807D02*
Y138799D01*
X197382Y129193D02*
X197539Y129350D01*
X197382Y123209D02*
Y129193D01*
Y123209D02*
X197539Y123051D01*
X197382Y122894D02*
X197539Y123051D01*
X197382Y116910D02*
Y122894D01*
Y116910D02*
X197539Y116752D01*
X197382Y116595D02*
X197539Y116752D01*
X197382Y110610D02*
Y116595D01*
Y110610D02*
X197539Y110453D01*
X175177D02*
X175335Y110295D01*
X172185Y110453D02*
X175177D01*
X181634Y104311D02*
Y104561D01*
X181134Y105061D02*
X181634Y104561D01*
X180727Y105061D02*
X181134D01*
X178484Y107303D02*
X180727Y105061D01*
X237169Y83596D02*
X237172Y83594D01*
X172185Y113602D02*
Y116752D01*
X209670Y191179D02*
X209708Y191142D01*
X18247Y207850D02*
X19000Y208602D01*
X17000Y210459D02*
X17072Y210531D01*
D22*
X153541Y179668D02*
D03*
Y183132D02*
D03*
X102500Y95232D02*
D03*
Y91768D02*
D03*
X106496Y111563D02*
D03*
Y108098D02*
D03*
X91536Y111563D02*
D03*
Y108098D02*
D03*
X129000Y194532D02*
D03*
Y191068D02*
D03*
X121800Y171068D02*
D03*
Y174532D02*
D03*
X116600Y174632D02*
D03*
Y171168D02*
D03*
X101600Y171168D02*
D03*
Y174632D02*
D03*
X216600Y73732D02*
D03*
Y70268D02*
D03*
X175335Y132343D02*
D03*
Y135807D02*
D03*
X191634Y84068D02*
D03*
Y87532D02*
D03*
X173800Y154632D02*
D03*
Y151168D02*
D03*
X195384Y84068D02*
D03*
Y87532D02*
D03*
X180384Y84068D02*
D03*
Y87532D02*
D03*
X176634Y84068D02*
D03*
Y87532D02*
D03*
X184134Y84068D02*
D03*
Y87532D02*
D03*
X181634Y100847D02*
D03*
Y104311D02*
D03*
X175335Y113760D02*
D03*
Y110295D02*
D03*
X187933Y135807D02*
D03*
Y132343D02*
D03*
X181634Y126043D02*
D03*
Y129508D02*
D03*
X187933Y113760D02*
D03*
Y110295D02*
D03*
X181634Y120059D02*
D03*
Y116595D02*
D03*
Y133917D02*
D03*
Y137382D02*
D03*
X194232Y154632D02*
D03*
Y151168D02*
D03*
X164300Y154632D02*
D03*
Y151168D02*
D03*
X200547Y154632D02*
D03*
Y151168D02*
D03*
X205771Y194646D02*
D03*
Y191181D02*
D03*
X206634Y84068D02*
D03*
Y87532D02*
D03*
X212200Y73732D02*
D03*
Y70268D02*
D03*
X187925Y154632D02*
D03*
Y151168D02*
D03*
X181634Y108721D02*
D03*
Y112185D02*
D03*
X172884Y87532D02*
D03*
Y84068D02*
D03*
X169055Y151168D02*
D03*
Y154632D02*
D03*
X272700Y191181D02*
D03*
Y194646D02*
D03*
X181634Y141791D02*
D03*
Y145256D02*
D03*
X336100Y99732D02*
D03*
Y96268D02*
D03*
X338600Y41632D02*
D03*
Y38168D02*
D03*
X47500Y184732D02*
D03*
Y181268D02*
D03*
X219600Y51168D02*
D03*
Y54632D02*
D03*
X205384Y70268D02*
D03*
Y73732D02*
D03*
X200416Y73732D02*
D03*
Y70268D02*
D03*
X187884Y87532D02*
D03*
Y84068D02*
D03*
D23*
X187114Y171100D02*
D03*
X172154D02*
D03*
D26*
X342300Y38228D02*
D03*
Y41772D02*
D03*
X318100Y41372D02*
D03*
Y37828D02*
D03*
X98500Y91728D02*
D03*
Y95272D02*
D03*
X95266Y111602D02*
D03*
Y108059D02*
D03*
X102766Y108059D02*
D03*
Y111602D02*
D03*
X99016Y111602D02*
D03*
Y108059D02*
D03*
X116600Y194572D02*
D03*
Y191028D02*
D03*
X179134Y191028D02*
D03*
Y194572D02*
D03*
X169134Y191028D02*
D03*
Y194572D02*
D03*
X99200Y191028D02*
D03*
Y194572D02*
D03*
X94200Y191028D02*
D03*
Y194572D02*
D03*
X174134Y191028D02*
D03*
Y194572D02*
D03*
X189134Y191028D02*
D03*
Y194572D02*
D03*
X109200Y191028D02*
D03*
Y194572D02*
D03*
X104200Y191028D02*
D03*
Y194572D02*
D03*
X184134Y191028D02*
D03*
Y194572D02*
D03*
X194134Y191028D02*
D03*
Y194572D02*
D03*
X268763Y191142D02*
D03*
Y194685D02*
D03*
X264826Y191142D02*
D03*
Y194685D02*
D03*
X260889Y191142D02*
D03*
Y194685D02*
D03*
X256952Y191142D02*
D03*
Y194685D02*
D03*
X253015Y191142D02*
D03*
Y194685D02*
D03*
X249078Y191142D02*
D03*
Y194685D02*
D03*
X245141Y191142D02*
D03*
Y194685D02*
D03*
X241204Y191142D02*
D03*
Y194685D02*
D03*
X237267Y191142D02*
D03*
Y194685D02*
D03*
X233330Y191142D02*
D03*
Y194685D02*
D03*
X229393Y191142D02*
D03*
Y194685D02*
D03*
X217582Y191142D02*
D03*
Y194685D02*
D03*
X225456Y191142D02*
D03*
Y194685D02*
D03*
X221519Y191142D02*
D03*
Y194685D02*
D03*
X209708Y191142D02*
D03*
Y194685D02*
D03*
X213645Y191142D02*
D03*
Y194685D02*
D03*
X202884Y84028D02*
D03*
Y87572D02*
D03*
X161634Y87572D02*
D03*
Y84028D02*
D03*
X195448Y70228D02*
D03*
Y73772D02*
D03*
X316600Y100072D02*
D03*
Y96528D02*
D03*
X190480Y70228D02*
D03*
Y73772D02*
D03*
X340400Y96228D02*
D03*
Y99772D02*
D03*
X199134Y84028D02*
D03*
Y87572D02*
D03*
X121700Y191028D02*
D03*
Y194572D02*
D03*
X139870Y167118D02*
D03*
Y163575D02*
D03*
X169134Y84028D02*
D03*
Y87572D02*
D03*
X165384Y84028D02*
D03*
Y87572D02*
D03*
X227700Y10772D02*
D03*
Y7228D02*
D03*
X144370Y167118D02*
D03*
Y163575D02*
D03*
X75000Y41228D02*
D03*
Y44772D02*
D03*
X91500Y95272D02*
D03*
Y91728D02*
D03*
D27*
X119928Y144100D02*
D03*
X123472D02*
D03*
X81772Y118500D02*
D03*
X78228D02*
D03*
X123472Y110800D02*
D03*
X119928D02*
D03*
X123472Y136700D02*
D03*
X119928D02*
D03*
X123472Y125600D02*
D03*
X119928D02*
D03*
X123472Y140400D02*
D03*
X119928D02*
D03*
X123472Y129300D02*
D03*
X119928D02*
D03*
X123472Y133000D02*
D03*
X119928D02*
D03*
X123472Y118200D02*
D03*
X119928D02*
D03*
X123472Y147800D02*
D03*
X119928D02*
D03*
X123472Y121900D02*
D03*
X119928D02*
D03*
X123472Y114500D02*
D03*
X119928D02*
D03*
X78228Y141000D02*
D03*
X81772D02*
D03*
X50272Y122500D02*
D03*
X46728D02*
D03*
X24272Y132500D02*
D03*
X20728D02*
D03*
X24272Y112500D02*
D03*
X20728D02*
D03*
X24272Y117500D02*
D03*
X20728D02*
D03*
X81772Y134500D02*
D03*
X78228D02*
D03*
X81772Y130500D02*
D03*
X78228D02*
D03*
X81772Y126500D02*
D03*
X78228D02*
D03*
X81772Y122500D02*
D03*
X78228D02*
D03*
X272969Y94553D02*
D03*
X269426D02*
D03*
X253284Y99277D02*
D03*
X249741D02*
D03*
X253284Y108726D02*
D03*
X249741D02*
D03*
X253284Y83529D02*
D03*
X249741D02*
D03*
X272969Y99277D02*
D03*
X269426D02*
D03*
X153372Y141600D02*
D03*
X149828D02*
D03*
X91372Y157800D02*
D03*
X87828D02*
D03*
X219728Y119903D02*
D03*
X223272D02*
D03*
X112228Y56000D02*
D03*
X115772D02*
D03*
X181406Y161500D02*
D03*
X177862D02*
D03*
X31228Y80500D02*
D03*
X34772D02*
D03*
X19272Y73000D02*
D03*
X15728D02*
D03*
D28*
X325372Y99968D02*
D03*
Y96032D02*
D03*
Y98000D02*
D03*
X328828D02*
D03*
Y99968D02*
D03*
Y96032D02*
D03*
X326672Y41068D02*
D03*
Y37132D02*
D03*
Y39100D02*
D03*
X330128D02*
D03*
Y41068D02*
D03*
Y37132D02*
D03*
D34*
X92600Y176935D02*
D03*
Y168865D02*
D03*
X214400Y86535D02*
D03*
Y78465D02*
D03*
X87500Y79535D02*
D03*
Y71465D02*
D03*
X102500Y64535D02*
D03*
Y56465D02*
D03*
Y79535D02*
D03*
Y71465D02*
D03*
X95000Y71465D02*
D03*
Y79535D02*
D03*
Y64535D02*
D03*
Y56465D02*
D03*
X80000Y56465D02*
D03*
Y64535D02*
D03*
Y71465D02*
D03*
Y79535D02*
D03*
D35*
X103868Y121400D02*
D03*
X107332D02*
D03*
X103868Y125800D02*
D03*
X107332D02*
D03*
X94632D02*
D03*
X91168D02*
D03*
X94632Y121400D02*
D03*
X91168D02*
D03*
X106732Y140000D02*
D03*
X103268D02*
D03*
X50232Y127500D02*
D03*
X46768D02*
D03*
X31268Y75500D02*
D03*
X34732D02*
D03*
X249780Y94553D02*
D03*
X253245D02*
D03*
X253245Y104002D02*
D03*
X249780D02*
D03*
X272930Y83529D02*
D03*
X269465D02*
D03*
X272930Y89828D02*
D03*
X269465D02*
D03*
X272930Y104002D02*
D03*
X269465D02*
D03*
X272930Y108726D02*
D03*
X269465D02*
D03*
X272930Y118175D02*
D03*
X269465D02*
D03*
X272930Y124474D02*
D03*
X269465D02*
D03*
X272930Y130773D02*
D03*
X269465D02*
D03*
X230095Y89828D02*
D03*
X233560D02*
D03*
X230095Y99277D02*
D03*
X233560D02*
D03*
X230095Y108726D02*
D03*
X233560D02*
D03*
X230095Y115025D02*
D03*
X233560D02*
D03*
X230095Y124474D02*
D03*
X233560D02*
D03*
X230095Y130773D02*
D03*
X233560D02*
D03*
X149868Y117539D02*
D03*
X153332D02*
D03*
X149868Y146800D02*
D03*
X153332D02*
D03*
X134968Y86500D02*
D03*
X138432D02*
D03*
X165728Y123051D02*
D03*
X169193D02*
D03*
X189665D02*
D03*
X186201D02*
D03*
X149868Y125413D02*
D03*
X153332D02*
D03*
X149868Y113602D02*
D03*
X153332D02*
D03*
X149868Y109665D02*
D03*
X153332D02*
D03*
X134968Y103100D02*
D03*
X138432D02*
D03*
X134968Y125551D02*
D03*
X138432D02*
D03*
X134968Y114200D02*
D03*
X138432D02*
D03*
X177067Y123051D02*
D03*
X173602D02*
D03*
X165728Y135650D02*
D03*
X169193D02*
D03*
X153332Y153000D02*
D03*
X149868D02*
D03*
X169193Y110453D02*
D03*
X165728D02*
D03*
X134968Y147800D02*
D03*
X138432D02*
D03*
X169193Y129350D02*
D03*
X165728D02*
D03*
X165728Y116752D02*
D03*
X169193D02*
D03*
X194075Y129350D02*
D03*
X197539D02*
D03*
X194075Y110453D02*
D03*
X197539D02*
D03*
X194075Y123051D02*
D03*
X197539D02*
D03*
X194075Y116752D02*
D03*
X197539D02*
D03*
X230095Y83529D02*
D03*
X233560D02*
D03*
X153332Y121476D02*
D03*
X149868D02*
D03*
X153332Y129351D02*
D03*
X149868D02*
D03*
X138432Y144200D02*
D03*
X134968D02*
D03*
X197539Y135650D02*
D03*
X194075D02*
D03*
X149868Y97854D02*
D03*
X153332D02*
D03*
X149868Y105728D02*
D03*
X153332D02*
D03*
X149868Y135600D02*
D03*
X153332D02*
D03*
X149866Y101791D02*
D03*
X153331D02*
D03*
X223232Y115000D02*
D03*
X219768D02*
D03*
X115732Y49000D02*
D03*
X112268D02*
D03*
X112268Y52500D02*
D03*
X115732D02*
D03*
X172932Y161500D02*
D03*
X169468D02*
D03*
X189732D02*
D03*
X186268D02*
D03*
X31268Y70500D02*
D03*
X34732D02*
D03*
D36*
X88965Y139000D02*
D03*
X97035D02*
D03*
X264865Y74500D02*
D03*
X272935D02*
D03*
X140735Y93000D02*
D03*
X132665D02*
D03*
X140735Y120000D02*
D03*
X132665D02*
D03*
X140735Y108500D02*
D03*
X132665D02*
D03*
X264865Y136800D02*
D03*
X272935D02*
D03*
X132665Y154300D02*
D03*
X140735D02*
D03*
X27965Y46000D02*
D03*
X36035D02*
D03*
D38*
X131634Y125551D02*
D03*
X83000Y85500D02*
D03*
X75000Y80500D02*
D03*
Y84000D02*
D03*
X71400Y78400D02*
D03*
X131634Y88051D02*
D03*
X129134D02*
D03*
X106000Y84700D02*
D03*
X143684Y92551D02*
D03*
Y95051D02*
D03*
X209634Y88051D02*
D03*
X126500Y98000D02*
D03*
X163000Y47196D02*
D03*
X158000Y50100D02*
D03*
Y47200D02*
D03*
X136500Y53500D02*
D03*
X95400Y143300D02*
D03*
X98016D02*
D03*
X101953D02*
D03*
X92800D02*
D03*
X265809Y99251D02*
D03*
X243759Y102401D02*
D03*
Y96101D02*
D03*
X259509Y127601D02*
D03*
X262659Y89801D02*
D03*
X243759D02*
D03*
X259509Y118151D02*
D03*
Y86651D02*
D03*
X243759D02*
D03*
X240609Y89801D02*
D03*
X262659Y86651D02*
D03*
X240609D02*
D03*
X262659Y83501D02*
D03*
X240609D02*
D03*
X262659Y80351D02*
D03*
X243759Y83501D02*
D03*
X259509Y96101D02*
D03*
Y83501D02*
D03*
Y89801D02*
D03*
X243759Y80351D02*
D03*
X262659Y118151D02*
D03*
Y121301D02*
D03*
X265809Y127601D02*
D03*
X240609Y118151D02*
D03*
X237459Y127601D02*
D03*
X243759D02*
D03*
X262659Y102401D02*
D03*
Y111851D02*
D03*
X265809D02*
D03*
X240609Y102401D02*
D03*
Y115001D02*
D03*
X265809Y80351D02*
D03*
Y86651D02*
D03*
Y92951D02*
D03*
X237459Y80351D02*
D03*
Y86651D02*
D03*
Y92951D02*
D03*
Y99251D02*
D03*
X240609Y92951D02*
D03*
X243759D02*
D03*
X259509Y124451D02*
D03*
Y108701D02*
D03*
X262659D02*
D03*
X259509Y115001D02*
D03*
X262659D02*
D03*
X246909Y118151D02*
D03*
X262659Y127601D02*
D03*
X240609Y124451D02*
D03*
X262659D02*
D03*
X259509Y130751D02*
D03*
X240609Y80351D02*
D03*
X259509D02*
D03*
X262659Y96101D02*
D03*
Y130751D02*
D03*
X265809Y124451D02*
D03*
Y118151D02*
D03*
Y121301D02*
D03*
X237459Y124451D02*
D03*
Y130751D02*
D03*
X243759Y118151D02*
D03*
X240609Y127601D02*
D03*
X265809Y108701D02*
D03*
X262659Y99251D02*
D03*
X259509Y111851D02*
D03*
X237459Y115001D02*
D03*
X240609Y99251D02*
D03*
Y108701D02*
D03*
X265809Y83501D02*
D03*
Y89801D02*
D03*
X237459Y83501D02*
D03*
Y89801D02*
D03*
Y108701D02*
D03*
X262659Y92951D02*
D03*
X240609Y130751D02*
D03*
X243759Y99252D02*
D03*
Y124449D02*
D03*
X226631Y83501D02*
D03*
X197381Y141951D02*
D03*
X131700Y104300D02*
D03*
X128000Y108100D02*
D03*
X223100Y53632D02*
D03*
X226100D02*
D03*
Y50632D02*
D03*
X184784Y110450D02*
D03*
X112000Y136505D02*
D03*
Y140000D02*
D03*
X91168Y118000D02*
D03*
X96100D02*
D03*
X93600D02*
D03*
X116500Y104300D02*
D03*
X109200Y188049D02*
D03*
X104200D02*
D03*
X99200D02*
D03*
X94200D02*
D03*
X194134Y197600D02*
D03*
X184134D02*
D03*
X174134D02*
D03*
X129000D02*
D03*
X116600D02*
D03*
X109200D02*
D03*
X104200D02*
D03*
X99200D02*
D03*
X94200D02*
D03*
X169134D02*
D03*
X119000Y83000D02*
D03*
Y80000D02*
D03*
Y77000D02*
D03*
X75000Y71000D02*
D03*
X179159Y182073D02*
D03*
X189134D02*
D03*
X194134Y188049D02*
D03*
X174134D02*
D03*
X184134D02*
D03*
X189134D02*
D03*
X179134D02*
D03*
X169134D02*
D03*
X153541Y176100D02*
D03*
X158659D02*
D03*
X101600Y167900D02*
D03*
X92600Y165000D02*
D03*
Y180700D02*
D03*
X175400Y41800D02*
D03*
X136500Y46000D02*
D03*
X140800Y32600D02*
D03*
X136500D02*
D03*
X168600Y41800D02*
D03*
X163000Y50196D02*
D03*
Y54196D02*
D03*
X182300Y64000D02*
D03*
X175400D02*
D03*
X172700D02*
D03*
X179134D02*
D03*
X182000Y80032D02*
D03*
X179134Y70500D02*
D03*
Y73500D02*
D03*
X191600Y78051D02*
D03*
X191634Y80400D02*
D03*
X195384D02*
D03*
X200416Y66561D02*
D03*
X205384D02*
D03*
X208648D02*
D03*
X199100Y78051D02*
D03*
X206634Y78051D02*
D03*
X202884Y78051D02*
D03*
X200547Y158051D02*
D03*
X194232D02*
D03*
X187925D02*
D03*
X107000Y71600D02*
D03*
X75000Y66500D02*
D03*
X158000Y59200D02*
D03*
X143500D02*
D03*
Y61700D02*
D03*
X158000Y75200D02*
D03*
Y72200D02*
D03*
Y66000D02*
D03*
X172884Y90551D02*
D03*
X126500Y93500D02*
D03*
X136700Y167900D02*
D03*
X143600Y78900D02*
D03*
X272700Y197638D02*
D03*
X268763D02*
D03*
X264826D02*
D03*
X260889D02*
D03*
X256952D02*
D03*
X253015D02*
D03*
X249078D02*
D03*
X245141D02*
D03*
X241204D02*
D03*
X237267D02*
D03*
X233330D02*
D03*
X229393D02*
D03*
X225456D02*
D03*
X221519D02*
D03*
X217582D02*
D03*
X213645D02*
D03*
X209708D02*
D03*
X205771D02*
D03*
X50000Y62800D02*
D03*
X75000Y91300D02*
D03*
X91400Y83500D02*
D03*
X96512D02*
D03*
X93362Y85500D02*
D03*
X106000Y87900D02*
D03*
X128000Y105600D02*
D03*
X112000Y147800D02*
D03*
X116500D02*
D03*
Y144100D02*
D03*
X126600Y147800D02*
D03*
Y144100D02*
D03*
Y154301D02*
D03*
X159587Y123051D02*
D03*
X162736D02*
D03*
X197382Y97854D02*
D03*
X200532D02*
D03*
X203681D02*
D03*
X169035D02*
D03*
X162736D02*
D03*
X159587D02*
D03*
Y145098D02*
D03*
X162736D02*
D03*
X165886D02*
D03*
X169035D02*
D03*
X172185D02*
D03*
X175335D02*
D03*
X178484D02*
D03*
X184783D02*
D03*
X187933D02*
D03*
X191083D02*
D03*
X194232D02*
D03*
X197382D02*
D03*
X200532D02*
D03*
X203681D02*
D03*
Y141949D02*
D03*
X200532D02*
D03*
X191083D02*
D03*
X187933D02*
D03*
X184783D02*
D03*
X203681Y138799D02*
D03*
X200532D02*
D03*
X197382D02*
D03*
X194232D02*
D03*
X191083D02*
D03*
X184783D02*
D03*
X203681Y135650D02*
D03*
X200532D02*
D03*
X191083D02*
D03*
X184783D02*
D03*
X203681Y132500D02*
D03*
X200532D02*
D03*
X191083D02*
D03*
X184783D02*
D03*
X197382D02*
D03*
X203681Y129350D02*
D03*
X200532D02*
D03*
X191083D02*
D03*
X187933D02*
D03*
X184783D02*
D03*
X203681Y126201D02*
D03*
X200532D02*
D03*
X197382D02*
D03*
X194232D02*
D03*
X187933D02*
D03*
X184783D02*
D03*
X203681Y119902D02*
D03*
X200532D02*
D03*
X197382D02*
D03*
X194232D02*
D03*
X191083D02*
D03*
X187933D02*
D03*
X184783D02*
D03*
X203681Y116752D02*
D03*
X200532D02*
D03*
X191083D02*
D03*
X187933D02*
D03*
X184783D02*
D03*
X203681Y113602D02*
D03*
X200532D02*
D03*
X197382D02*
D03*
X194232D02*
D03*
X191083D02*
D03*
X184783D02*
D03*
X203681Y110453D02*
D03*
X200532D02*
D03*
X191083D02*
D03*
X184783D02*
D03*
X203681Y107303D02*
D03*
X200532D02*
D03*
X194232D02*
D03*
X191083D02*
D03*
X187933D02*
D03*
X200532Y104154D02*
D03*
X197382D02*
D03*
X194232D02*
D03*
X191083D02*
D03*
X187933D02*
D03*
X184783D02*
D03*
X203681Y101004D02*
D03*
X200532D02*
D03*
X197382D02*
D03*
X194232D02*
D03*
X191083D02*
D03*
X187933D02*
D03*
X184783D02*
D03*
X178484Y141949D02*
D03*
X169035D02*
D03*
X165886D02*
D03*
X162736D02*
D03*
X159587D02*
D03*
X178484Y138799D02*
D03*
X175335D02*
D03*
X172185D02*
D03*
X169035D02*
D03*
X165886D02*
D03*
X162736D02*
D03*
X159587D02*
D03*
X178484Y135650D02*
D03*
X162736D02*
D03*
X159587D02*
D03*
X178484Y132500D02*
D03*
X172185D02*
D03*
X169035D02*
D03*
X165886D02*
D03*
X178484Y129350D02*
D03*
X175335D02*
D03*
X172185D02*
D03*
X162736D02*
D03*
X178484Y126201D02*
D03*
X175335D02*
D03*
X172185D02*
D03*
X169035D02*
D03*
X165886D02*
D03*
X162736D02*
D03*
X159587D02*
D03*
X172185Y141949D02*
D03*
X178484Y119902D02*
D03*
X175335D02*
D03*
X172185D02*
D03*
X169035D02*
D03*
X165886D02*
D03*
X159587D02*
D03*
X178484Y116752D02*
D03*
X175335D02*
D03*
X172185D02*
D03*
X162736D02*
D03*
X159587D02*
D03*
X172185Y113602D02*
D03*
X169035D02*
D03*
X165886D02*
D03*
X162736D02*
D03*
X159587D02*
D03*
X178484Y110453D02*
D03*
X172185D02*
D03*
X162736D02*
D03*
X178484Y107303D02*
D03*
X175335D02*
D03*
X172185D02*
D03*
X165886D02*
D03*
X162736D02*
D03*
X159587D02*
D03*
X175335Y104154D02*
D03*
X172185D02*
D03*
X165886D02*
D03*
X162736D02*
D03*
X159587D02*
D03*
X178484Y101004D02*
D03*
X175335D02*
D03*
X172185D02*
D03*
X169035D02*
D03*
X165886D02*
D03*
X162736D02*
D03*
X159587D02*
D03*
X156437Y138799D02*
D03*
Y132500D02*
D03*
X153287Y94705D02*
D03*
X159587D02*
D03*
X162736D02*
D03*
X169035D02*
D03*
X210768Y129350D02*
D03*
X169035Y107303D02*
D03*
X233634Y102051D02*
D03*
X226634Y89801D02*
D03*
Y83501D02*
D03*
X226600Y86600D02*
D03*
X146634Y113602D02*
D03*
X156437D02*
D03*
X146634Y122551D02*
D03*
X159587Y129350D02*
D03*
X153287Y132500D02*
D03*
X209600Y80400D02*
D03*
X219634Y77051D02*
D03*
Y74051D02*
D03*
Y70301D02*
D03*
X168634Y70500D02*
D03*
Y73500D02*
D03*
X181634Y158051D02*
D03*
X178486D02*
D03*
X175384Y165051D02*
D03*
X178484Y104154D02*
D03*
X155134Y85551D02*
D03*
X336600Y181000D02*
D03*
X344800D02*
D03*
X340737D02*
D03*
X337900Y132900D02*
D03*
X340737D02*
D03*
X346300D02*
D03*
X261700Y74500D02*
D03*
X275922D02*
D03*
X112000Y118300D02*
D03*
Y121900D02*
D03*
X116500Y110800D02*
D03*
Y136700D02*
D03*
Y114500D02*
D03*
Y118200D02*
D03*
Y121900D02*
D03*
Y125600D02*
D03*
Y133000D02*
D03*
Y129300D02*
D03*
X112000Y133000D02*
D03*
Y129516D02*
D03*
X101300Y149300D02*
D03*
X84500Y148400D02*
D03*
X126600Y114500D02*
D03*
Y110800D02*
D03*
Y118200D02*
D03*
Y125600D02*
D03*
Y129300D02*
D03*
Y133000D02*
D03*
Y140400D02*
D03*
Y136700D02*
D03*
X151634Y138551D02*
D03*
X131634Y115801D02*
D03*
X146634Y105728D02*
D03*
X226634Y119903D02*
D03*
X226634Y115001D02*
D03*
X213634Y92551D02*
D03*
X247244Y136083D02*
D03*
X249606Y134508D02*
D03*
X226634Y96551D02*
D03*
X222634Y130751D02*
D03*
Y72051D02*
D03*
X226634Y124451D02*
D03*
Y130751D02*
D03*
Y99251D02*
D03*
Y108701D02*
D03*
X229634Y102051D02*
D03*
X222634Y134551D02*
D03*
Y126051D02*
D03*
X217582Y188189D02*
D03*
X213645D02*
D03*
X209708D02*
D03*
X205771D02*
D03*
X264826D02*
D03*
X268763D02*
D03*
X260889D02*
D03*
X256952D02*
D03*
X272700D02*
D03*
X213634Y108878D02*
D03*
Y99051D02*
D03*
Y95051D02*
D03*
Y113601D02*
D03*
X181634Y153551D02*
D03*
X208406Y152551D02*
D03*
X146634Y138551D02*
D03*
X151634Y149823D02*
D03*
X131400Y147800D02*
D03*
X129534Y154301D02*
D03*
X141600Y141551D02*
D03*
X184784Y126201D02*
D03*
X146634Y129351D02*
D03*
X131634Y112551D02*
D03*
X208406Y93551D02*
D03*
X153284Y94701D02*
D03*
X143634Y85551D02*
D03*
X213634Y129351D02*
D03*
X187884Y90551D02*
D03*
X195384D02*
D03*
X203684Y126201D02*
D03*
X213634Y126199D02*
D03*
X200534Y126201D02*
D03*
X194234D02*
D03*
X187933D02*
D03*
X191084Y110451D02*
D03*
X141634Y115801D02*
D03*
Y112801D02*
D03*
X144034Y149801D02*
D03*
X146634Y156051D02*
D03*
X131400Y139051D02*
D03*
Y141551D02*
D03*
X182134Y90551D02*
D03*
X149134Y138551D02*
D03*
X146634Y145051D02*
D03*
X131634Y85051D02*
D03*
X129134D02*
D03*
X146634Y149801D02*
D03*
Y119903D02*
D03*
X147134Y85551D02*
D03*
X146634Y153051D02*
D03*
X141600Y147800D02*
D03*
X144084Y153051D02*
D03*
Y156051D02*
D03*
X141634Y129301D02*
D03*
X141600Y139051D02*
D03*
X141634Y125551D02*
D03*
X159134Y87551D02*
D03*
X197384Y126201D02*
D03*
X209634Y85051D02*
D03*
X106000Y98000D02*
D03*
X86000Y85500D02*
D03*
X253284Y80379D02*
D03*
X249780Y91403D02*
D03*
X84500Y141000D02*
D03*
Y138000D02*
D03*
X75500Y141000D02*
D03*
X100000Y118000D02*
D03*
X103500D02*
D03*
X99016Y114331D02*
D03*
X115500Y89000D02*
D03*
X111516Y108831D02*
D03*
Y111831D02*
D03*
X86516Y108831D02*
D03*
Y111831D02*
D03*
X181634Y123051D02*
D03*
X197382Y107303D02*
D03*
X275922Y108726D02*
D03*
Y94553D02*
D03*
Y130773D02*
D03*
Y124474D02*
D03*
Y118175D02*
D03*
Y104002D02*
D03*
Y99277D02*
D03*
Y89828D02*
D03*
Y83529D02*
D03*
X118500Y56000D02*
D03*
Y49000D02*
D03*
X112500Y74500D02*
D03*
X115500D02*
D03*
X119000D02*
D03*
X112500Y59500D02*
D03*
X115500D02*
D03*
X109500Y56000D02*
D03*
X107000D02*
D03*
Y58500D02*
D03*
Y61000D02*
D03*
Y63500D02*
D03*
X89000Y85500D02*
D03*
X80000Y83500D02*
D03*
X126500Y88000D02*
D03*
X143500Y36000D02*
D03*
Y41000D02*
D03*
X136500Y51000D02*
D03*
X143500D02*
D03*
X136500Y56000D02*
D03*
Y66000D02*
D03*
Y71000D02*
D03*
X143500Y66000D02*
D03*
Y71000D02*
D03*
X102500Y98000D02*
D03*
X91500D02*
D03*
X96000Y52500D02*
D03*
X88000D02*
D03*
X82500D02*
D03*
X107000Y78600D02*
D03*
Y80500D02*
D03*
X96900Y38500D02*
D03*
X95000D02*
D03*
X104900Y47500D02*
D03*
X102000D02*
D03*
X98000D02*
D03*
X95100D02*
D03*
X89900D02*
D03*
X87000D02*
D03*
X89900Y38500D02*
D03*
X87000D02*
D03*
X83000D02*
D03*
X80100D02*
D03*
X83000Y47500D02*
D03*
X80100D02*
D03*
X75000Y56500D02*
D03*
Y76500D02*
D03*
X72500Y68787D02*
D03*
Y64063D02*
D03*
X50000Y71500D02*
D03*
X54500Y84000D02*
D03*
X37500Y80500D02*
D03*
X24500Y70500D02*
D03*
X14500Y76000D02*
D03*
X37500Y75500D02*
D03*
Y70500D02*
D03*
X28500Y75500D02*
D03*
Y70500D02*
D03*
X84500Y118500D02*
D03*
Y122500D02*
D03*
Y126500D02*
D03*
Y130500D02*
D03*
Y134500D02*
D03*
X75500Y118500D02*
D03*
Y122500D02*
D03*
Y126500D02*
D03*
Y130500D02*
D03*
Y134500D02*
D03*
X24272Y126500D02*
D03*
Y123600D02*
D03*
X43500Y137500D02*
D03*
Y142500D02*
D03*
X17000Y117500D02*
D03*
X43500Y132500D02*
D03*
Y127500D02*
D03*
Y117500D02*
D03*
D68*
X106100Y84800D02*
X110500D01*
X106000Y84700D02*
X106100Y84800D01*
X104900Y82900D02*
X111000D01*
X110500Y84800D02*
X113600Y87900D01*
X104100Y83700D02*
X104900Y82900D01*
X111000D02*
X114900Y86800D01*
X143500Y90000D02*
X157500D01*
X140600Y87100D02*
X143500Y90000D01*
X144300Y89100D02*
X158700D01*
X141500Y86300D02*
X144300Y89100D01*
X159400Y89800D02*
X162800D01*
X163500Y89100D01*
Y85912D02*
Y89100D01*
X158700D02*
X159400Y89800D01*
X157500Y90000D02*
X161199Y93699D01*
X144800Y96700D02*
X150600Y90900D01*
X129100Y96700D02*
X144800D01*
X127800Y98000D02*
X129100Y96700D01*
X126500Y98000D02*
X127800D01*
X125740Y97240D02*
X126500Y98000D01*
X121512Y97240D02*
X125740D01*
X156400Y48500D02*
X158000Y50100D01*
X112000Y136505D02*
X115895Y140400D01*
X194134Y194572D02*
Y197600D01*
X184134Y194572D02*
Y197600D01*
X174134Y194572D02*
Y197600D01*
X169134Y194572D02*
Y197600D01*
X109200Y194572D02*
Y197600D01*
X104200Y194572D02*
Y197600D01*
X99200Y194572D02*
Y197600D01*
X94200Y194572D02*
Y197600D01*
X114900Y86800D02*
X120100D01*
X121512Y88212D02*
Y89760D01*
X120100Y86800D02*
X121512Y88212D01*
X119000Y80000D02*
X121000Y78000D01*
X116247Y179790D02*
Y182947D01*
X116600Y183300D01*
Y191028D01*
X116600Y191028D01*
X121700D01*
X129000Y184754D02*
X129043Y184711D01*
X129000Y184754D02*
Y191068D01*
X173300Y43900D02*
X175400Y41800D01*
X164400Y43900D02*
X173300D01*
X159000Y38500D02*
X164400Y43900D01*
X141000Y38500D02*
X159000D01*
X138500Y36000D02*
X141000Y38500D01*
X129350Y36000D02*
X138500D01*
X164300Y41800D02*
X168600D01*
X158500Y36000D02*
X164300Y41800D01*
X150650Y36000D02*
X158500D01*
X190480Y73772D02*
Y76932D01*
X191600Y78051D01*
X205384Y76801D02*
X206634Y78051D01*
X205384Y73732D02*
Y76801D01*
X199100Y78051D02*
X200416Y76735D01*
Y73732D02*
Y76735D01*
X208631Y104052D02*
X213631Y99052D01*
X208631Y104052D02*
Y111052D01*
X207631Y112052D02*
X208631Y111052D01*
X205281Y112052D02*
X207631D01*
X203681Y110452D02*
X205281Y112052D01*
X261080Y81926D02*
X262656Y83502D01*
X261080Y79501D02*
Y81926D01*
X255631Y74052D02*
X261080Y79501D01*
X227131Y74052D02*
X255631D01*
X219631Y81552D02*
X227131Y74052D01*
X219631Y81552D02*
Y91552D01*
X214131Y97052D02*
X219631Y91552D01*
X212631Y97052D02*
X214131D01*
X203957Y105726D02*
X212631Y97052D01*
X198955Y105726D02*
X203957D01*
X197381Y104152D02*
X198955Y105726D01*
X200531Y104152D02*
X203531D01*
X206131Y101552D01*
Y91953D02*
Y101552D01*
Y91953D02*
X207106Y90978D01*
X216631D01*
X218131Y89478D01*
Y81052D02*
Y89478D01*
Y81052D02*
X226631Y72552D01*
X256131D01*
X262656Y79077D01*
Y80352D01*
X257631Y83502D02*
X259506D01*
X256631Y82502D02*
X257631Y83502D01*
X256631Y79552D02*
Y82502D01*
X254131Y77052D02*
X256631Y79552D01*
X228131Y77052D02*
X254131D01*
X222631Y82552D02*
X228131Y77052D01*
X222631Y82552D02*
Y99552D01*
X221631Y100552D02*
X222631Y99552D01*
X216631Y100552D02*
X221631D01*
X211631Y105552D02*
X216631Y100552D01*
X211631Y105552D02*
Y111602D01*
X213631Y113602D01*
X203681Y116752D02*
X213931D01*
X215631Y115052D01*
Y103552D02*
Y115052D01*
Y103552D02*
X217131Y102052D01*
X223131D01*
X224131Y101052D01*
Y83052D02*
Y101052D01*
Y83052D02*
X228631Y78552D01*
X251131D01*
X251631Y79052D01*
Y79852D01*
X251131Y80352D02*
X251631Y79852D01*
X243756Y80352D02*
X251131D01*
X254706Y75552D02*
X259506Y80352D01*
X227631Y75552D02*
X254706D01*
X221131Y82052D02*
X227631Y75552D01*
X221131Y82052D02*
Y94052D01*
X210131Y105052D02*
X221131Y94052D01*
X210131Y105052D02*
Y113552D01*
X208507Y115176D02*
X210131Y113552D01*
X202007Y115176D02*
X208507D01*
X200531Y116652D02*
X202007Y115176D01*
X164310Y140375D02*
Y146875D01*
X127400Y134900D02*
X128300Y134000D01*
Y129800D02*
Y134000D01*
Y129800D02*
X129700Y128400D01*
X126634Y136801D02*
Y138151D01*
X127034Y138551D01*
X128783D01*
X129183Y138151D01*
Y130451D02*
Y138151D01*
Y130451D02*
X129583Y130051D01*
X139234D01*
X139634Y129651D01*
Y129201D02*
Y129651D01*
X139234Y128801D02*
X139634Y129201D01*
X131409Y128801D02*
X139234D01*
X131009Y128401D02*
X131409Y128801D01*
X131009Y127951D02*
Y128401D01*
Y127951D02*
X131409Y127551D01*
X142634D01*
X143634Y126551D01*
Y104451D02*
Y126551D01*
Y104451D02*
X144034Y104051D01*
X144660D01*
X145060Y104451D01*
Y118329D01*
X146634Y119903D01*
X141634Y129301D02*
X143999D01*
X144900Y128400D01*
Y126600D02*
Y128400D01*
Y126600D02*
X148000Y123500D01*
X155400D01*
X156500Y124600D01*
Y125300D01*
X159000Y127800D01*
X161186D01*
X162736Y129350D01*
X116500Y133000D02*
X119928D01*
X123900Y116200D02*
X127400D01*
X123472Y115772D02*
X123900Y116200D01*
X123472Y114500D02*
Y115772D01*
X127400Y116200D02*
X128600Y117400D01*
Y127300D01*
X126600Y110800D02*
X129700Y113900D01*
Y128400D01*
X126600Y129300D02*
X128600Y127300D01*
X123472Y136700D02*
X125272Y134900D01*
X127400D01*
X119928Y136700D02*
Y140400D01*
X129350Y41000D02*
X136800D01*
X144300Y48500D01*
X156400D01*
X159372Y84028D02*
X161634D01*
X155800Y87600D02*
X159372Y84028D01*
X146500Y87600D02*
X155800D01*
X145400Y86500D02*
X146500Y87600D01*
X145400Y84500D02*
Y86500D01*
X143600Y82700D02*
X145400Y84500D01*
X143600Y78900D02*
Y82700D01*
X141500Y78000D02*
Y86300D01*
Y78000D02*
X143500Y76000D01*
X165384Y84028D02*
X169134D01*
X163500Y85912D02*
X165384Y84028D01*
X150600Y90900D02*
X155700D01*
X157700Y92900D01*
X140600Y84500D02*
Y87100D01*
X143500Y76000D02*
X150650D01*
Y66000D02*
X158000D01*
X161199Y99467D02*
X162736Y101004D01*
X161199Y93699D02*
Y99467D01*
X157700Y92900D02*
Y99117D01*
X165384Y87572D02*
Y98516D01*
X167400Y92200D02*
X169134Y90466D01*
Y87572D02*
Y90466D01*
X137100Y81000D02*
X140600Y84500D01*
X129350Y81000D02*
X137100D01*
X104100Y83700D02*
Y86000D01*
X106000Y87900D01*
X113600D02*
Y92500D01*
X118340Y97240D01*
X121512D01*
X110488D02*
Y99012D01*
X109500Y100000D02*
X110488Y99012D01*
X101500Y100000D02*
X109500D01*
X100500Y99000D02*
X101500Y100000D01*
X100500Y95550D02*
Y99000D01*
X66700Y100000D02*
X95500D01*
X96500Y99000D01*
X51700Y85000D02*
X66700Y100000D01*
X96500Y95550D02*
Y99000D01*
X6500Y85000D02*
X51700D01*
X96778Y95272D02*
X98500D01*
X96500Y95550D02*
X96778Y95272D01*
X24500Y70500D02*
X29500Y65500D01*
X42272D01*
X157700Y99117D02*
X159587Y101004D01*
X164999Y138799D02*
X165886D01*
X163462Y137262D02*
X164999Y138799D01*
X157962Y137262D02*
X163462D01*
X157800Y137100D02*
X157962Y137262D01*
X116500Y144100D02*
X119928D01*
X116500Y147800D02*
X119928D01*
X126600D02*
Y150672D01*
X123472Y153800D02*
X126600Y150672D01*
X108472Y153800D02*
X123472D01*
X107972Y153300D02*
X108472Y153800D01*
X107972Y151300D02*
Y153300D01*
Y151300D02*
X108472Y150800D01*
X122472D01*
X123472Y149800D01*
Y147800D02*
Y149800D01*
X226679Y86679D02*
X234977D01*
X217700Y115000D02*
X219768D01*
X214400Y118300D02*
X217700Y115000D01*
X202133Y118300D02*
X214400D01*
X220403Y113097D02*
X247955D01*
X219768Y113732D02*
X220403Y113097D01*
X219768Y113732D02*
Y115000D01*
X226600Y86600D02*
X226679Y86679D01*
X136500Y59000D02*
Y60000D01*
X181406Y161500D02*
X181634Y161272D01*
Y158051D02*
Y161272D01*
X177862Y158675D02*
X178486Y158051D01*
X177862Y158675D02*
Y161500D01*
X172932D02*
X177862D01*
X181406D02*
X186268D01*
Y170254D02*
X187114Y171100D01*
X186268Y161500D02*
Y170254D01*
X172154Y171100D02*
X172932Y170322D01*
Y161500D02*
Y170322D01*
X202884Y87572D02*
Y95502D01*
X200532Y97854D02*
X202884Y95502D01*
X198994Y87572D02*
Y99392D01*
Y87572D02*
X199134D01*
X197382Y101004D02*
X198994Y99392D01*
X195800Y98000D02*
Y102586D01*
X193500Y95700D02*
X195800Y98000D01*
X193500Y89300D02*
Y95700D01*
X195268Y87532D02*
X195384D01*
X193500Y89300D02*
X195268Y87532D01*
X194232Y104154D02*
X195800Y102586D01*
X184134Y87532D02*
Y96434D01*
X186321Y98621D01*
Y102616D01*
X184783Y104154D02*
X186321Y102616D01*
X180384Y87532D02*
Y96116D01*
X178484Y98016D02*
X180384Y96116D01*
X178484Y98016D02*
Y101004D01*
X176634Y87532D02*
X176900Y87798D01*
Y102588D01*
X175335Y104154D02*
X176900Y102588D01*
X167423Y105691D02*
X169035Y107303D01*
X167423Y100367D02*
Y105691D01*
X167400Y100344D02*
X167423Y100367D01*
X167400Y92200D02*
Y100344D01*
X164300Y99600D02*
X165384Y98516D01*
X164300Y99600D02*
Y102568D01*
X165886Y104154D01*
X159134Y87551D02*
X159154Y87572D01*
X161634D01*
X100000Y118000D02*
X102766Y115234D01*
Y111602D02*
Y115234D01*
X116500Y110800D02*
X119928D01*
X116500Y114500D02*
X119928D01*
X116500Y118200D02*
X119928D01*
X116500Y121900D02*
X119928D01*
X116500Y125600D02*
X119928D01*
X116500Y129300D02*
X119928D01*
X115895Y140400D02*
X119928D01*
X86000Y85500D02*
Y88500D01*
X156437Y138799D02*
Y140563D01*
X155400Y141600D02*
X156437Y140563D01*
X153372Y141600D02*
X155400D01*
X242221Y85114D02*
X244436D01*
X240609Y83501D02*
X242221Y85114D01*
X245213Y81954D02*
X246788Y83529D01*
X242212Y81954D02*
X245213D01*
X240609Y80351D02*
X242212Y81954D01*
X244436Y85114D02*
X245296Y85974D01*
X246788Y83529D02*
X249741D01*
X200532Y119902D02*
X202133Y118300D01*
X249741Y108726D02*
Y111311D01*
X247955Y113097D02*
X249741Y111311D01*
X245296Y85974D02*
Y87383D01*
X244426Y88253D02*
X245296Y87383D01*
X236552Y88253D02*
X244426D01*
X234977Y86679D02*
X236552Y88253D01*
X237459Y108701D02*
X239196Y106964D01*
X245813D01*
X247576Y108726D01*
X249741D01*
Y104041D02*
X249780Y104002D01*
X249741Y104041D02*
Y108726D01*
X253284Y99277D02*
Y100655D01*
X252300Y101639D02*
X253284Y100655D01*
X250725Y101639D02*
X252300D01*
X249780Y102584D02*
X250725Y101639D01*
X249780Y102584D02*
Y104002D01*
X257051Y92951D02*
X262659D01*
X255450Y94553D02*
X257051Y92951D01*
X253245Y94553D02*
X255450D01*
X253245D02*
X253284Y94592D01*
Y99277D01*
X265809Y99251D02*
X265835Y99277D01*
X269426D01*
X264071Y94689D02*
X269426D01*
X262659Y96101D02*
X264071Y94689D01*
X269426Y94553D02*
Y94689D01*
X81772Y141000D02*
X84500D01*
X75500D02*
X78228D01*
X99016Y111602D02*
Y114331D01*
X106496Y108098D02*
X107228Y108831D01*
X111516D01*
X90803D02*
X91536Y108098D01*
X86516Y108831D02*
X90803D01*
X95266Y111602D02*
X99016D01*
X106456Y108059D02*
X106496Y108098D01*
X102766Y108059D02*
X106456D01*
X102766Y108059D02*
X102766Y108059D01*
X99016Y108059D02*
X102766D01*
X95226Y108098D02*
X95266Y108059D01*
X91536Y108098D02*
X95226D01*
X86000Y88500D02*
X89228Y91728D01*
X91500D01*
X129350Y59000D02*
X136500D01*
X112268Y49000D02*
X112268Y49000D01*
X112268Y49000D02*
Y52500D01*
X112228Y52539D02*
X112268Y52500D01*
X112228Y52539D02*
Y56000D01*
X109500D02*
X112228D01*
X123000Y71000D02*
X129350D01*
X121000Y73000D02*
X123000Y71000D01*
X121000Y73000D02*
Y78000D01*
X80000Y79535D02*
Y83500D01*
X143500Y66000D02*
X150650D01*
X129350D02*
X136500D01*
X129350Y71000D02*
X136500D01*
Y56000D02*
Y59000D01*
X135500Y61000D02*
X136500Y60000D01*
X129350Y61000D02*
X135500D01*
X129350Y51000D02*
X136500D01*
X143500Y36000D02*
X150650D01*
X100222Y95272D02*
X100500Y95550D01*
X98500Y95272D02*
X100222D01*
X37500Y80500D02*
X42272D01*
X34772D02*
X37500D01*
X14500Y76000D02*
X15728Y74772D01*
Y73000D02*
Y74772D01*
X81772Y118500D02*
X84500D01*
X81772Y122500D02*
X84500D01*
X81772Y126500D02*
X84500D01*
X81772Y130500D02*
X84500D01*
X81772Y134500D02*
X84500D01*
X20728Y132500D02*
Y134276D01*
X18950Y136054D02*
X20728Y134276D01*
X18950Y136054D02*
Y139900D01*
X50232Y142500D02*
X57250D01*
X50232Y137500D02*
X67250D01*
X50232Y132500D02*
X57250D01*
X50232Y122539D02*
X50272Y122500D01*
X50232Y117500D02*
X67250D01*
X62250Y122500D02*
X67250Y127500D01*
X57250Y122500D02*
X62250D01*
X50232Y122539D02*
Y127500D01*
X50272Y122500D02*
X57250D01*
X20728Y106228D02*
Y112500D01*
X18950Y104450D02*
X20728Y106228D01*
X18950Y100100D02*
Y104450D01*
X17000Y117500D02*
X20728D01*
D69*
X131634Y88051D02*
X134916D01*
X131634D02*
Y91969D01*
X132665Y93000D01*
X134916Y88051D02*
X134968Y88000D01*
X141451Y92551D02*
X143684D01*
Y95051D01*
X141300Y92400D02*
X141451Y92551D01*
Y95051D02*
X143684D01*
X132000Y98300D02*
X145400D01*
X209634Y85051D02*
Y88051D01*
X216449D01*
X207153D02*
X209634D01*
X88965Y139000D02*
Y147990D01*
X107039Y89760D02*
X110488D01*
X106849Y89950D02*
X107039Y89760D01*
X106714Y89950D02*
X106849D01*
X105900Y90764D02*
X106714Y89950D01*
X131700Y104300D02*
X132900Y103100D01*
X106732Y140000D02*
X112000D01*
X91168Y118000D02*
X91168Y118000D01*
Y121400D01*
X109200Y188049D02*
Y191028D01*
X104200Y188049D02*
Y191028D01*
X99200Y188049D02*
Y191028D01*
X94200Y188049D02*
Y191028D01*
X129000Y194532D02*
Y197600D01*
X116600Y194572D02*
Y197600D01*
X194134Y188049D02*
X194134Y188049D01*
X194134Y188049D02*
Y191028D01*
X189134Y188049D02*
X189134Y188049D01*
X189134Y188049D02*
Y191028D01*
X184134Y188049D02*
X184134Y188049D01*
X184134Y188049D02*
Y191028D01*
X179134Y188049D02*
X179134Y188049D01*
X179134Y188049D02*
Y191028D01*
X174134Y188049D02*
X174134Y188049D01*
X174134Y188049D02*
Y191028D01*
X169134Y188049D02*
X169134Y188049D01*
X169134Y188049D02*
Y191028D01*
X158659Y176100D02*
Y181341D01*
X156868Y183132D02*
X158659Y181341D01*
X153541Y183132D02*
X156868D01*
X153541Y176100D02*
Y179668D01*
X92600Y176935D02*
Y180700D01*
Y165000D02*
Y168865D01*
X129350Y46000D02*
X136500D01*
X205335Y70316D02*
X205384Y70268D01*
X202884Y70316D02*
X205335D01*
X200416Y70268D02*
X200465Y70316D01*
X202884D01*
Y78051D01*
X302695Y18000D02*
X302753Y18057D01*
X295225Y18000D02*
X302695D01*
X343280Y89179D02*
X343400Y89300D01*
X336961Y89179D02*
X343280D01*
X343320Y86620D02*
X343400Y86700D01*
X336961Y86620D02*
X343320D01*
X343361Y84061D02*
X343400Y84100D01*
X336961Y84061D02*
X343361D01*
X184134Y64834D02*
Y68575D01*
X183300Y64000D02*
X184134Y64834D01*
X182300Y64000D02*
X183300D01*
X179134D02*
X182300D01*
X180175Y68575D02*
X184134D01*
X179134Y67534D02*
X180175Y68575D01*
X179134Y64000D02*
Y67534D01*
X172700Y67241D02*
X174034Y68575D01*
X172700Y64000D02*
Y67241D01*
X174034Y68575D02*
X175400Y67209D01*
Y64000D02*
Y67209D01*
X172700Y64000D02*
X175400D01*
X182000Y76900D02*
Y80032D01*
X182300Y76918D02*
X182650Y76568D01*
X177209Y75425D02*
X179134Y73500D01*
X174000Y75425D02*
X177209D01*
X206287Y64200D02*
X208648Y66561D01*
X191600Y64200D02*
X206287D01*
X190480Y65320D02*
X191600Y64200D01*
X190480Y65320D02*
Y70228D01*
X202884Y81584D02*
Y84028D01*
X201700Y80400D02*
X202884Y81584D01*
X195384Y80400D02*
X201700D01*
X195384Y73836D02*
X195448Y73772D01*
X195384Y73836D02*
Y80400D01*
X172884Y84068D02*
X172884Y84068D01*
X176634D01*
X180384D01*
X184134D01*
X184134Y84068D01*
X187884D01*
X187884Y84068D01*
X191634D01*
X195384D01*
Y80400D02*
Y84068D01*
X191634Y80400D02*
Y84068D01*
X200416Y66561D02*
Y70268D01*
X205384Y66561D02*
Y70268D01*
X235922Y111088D02*
X238222D01*
X233560Y108726D02*
X235922Y111088D01*
X235922Y96915D02*
X238273D01*
X233560Y99277D02*
X235922Y96915D01*
X185732Y151168D02*
X187925D01*
X184700Y152200D02*
X185732Y151168D01*
X184700Y152200D02*
Y154500D01*
X166700Y152300D02*
Y156400D01*
X165568Y151168D02*
X166700Y152300D01*
X164310Y151168D02*
X165568D01*
X164300D02*
X164310D01*
X166700Y156400D02*
X167600Y157300D01*
X175700D01*
X177200Y155800D01*
X183400D01*
X184700Y154500D01*
X200547Y154632D02*
Y158051D01*
X194232Y154632D02*
Y158051D01*
X187925Y154632D02*
Y158051D01*
X181634Y145256D02*
X181634Y145256D01*
Y153551D01*
X176149D02*
X181634D01*
X175068Y154632D02*
X176149Y153551D01*
X173800Y154632D02*
X175068D01*
X173800Y154632D02*
X173800Y154632D01*
X169055Y154632D02*
X173800D01*
X132900Y103100D02*
X134968D01*
Y106400D02*
Y114200D01*
Y103100D02*
Y106400D01*
X138432D02*
Y114200D01*
Y103100D02*
Y106400D01*
X134968Y114200D02*
Y122132D01*
Y125551D01*
X138432Y122132D02*
Y125551D01*
Y114200D02*
Y122132D01*
X134532Y122132D02*
X134968D01*
X134100Y121700D02*
X134532Y122132D01*
X159586Y129350D02*
X159587Y129350D01*
X132663Y154301D02*
X132665Y154300D01*
X129534Y154301D02*
X132663D01*
X123472Y118200D02*
X126600D01*
X123472D02*
Y121900D01*
X131634Y118969D02*
X132665Y120000D01*
X131634Y115801D02*
Y118969D01*
Y114176D02*
Y115801D01*
X123472Y140400D02*
X126600D01*
X75000Y65500D02*
Y66500D01*
Y65500D02*
X75965Y64535D01*
X80000D01*
X143500Y51000D02*
Y55100D01*
X144400Y56000D01*
X150650D01*
X151100Y92600D02*
X154800D01*
X145400Y98300D02*
X151100Y92600D01*
X154800D02*
X155800Y93600D01*
Y97600D01*
X150650Y71000D02*
X156000D01*
X157000Y70000D01*
X159800D01*
X160900Y71100D01*
Y77100D01*
X157000Y81000D02*
X160900Y77100D01*
X150650Y81000D02*
X157000D01*
X104896Y91768D02*
X105900Y90764D01*
X106000Y90864D01*
Y98000D01*
X117000Y93500D02*
X121512D01*
X115500Y92000D02*
X117000Y93500D01*
X115500Y89000D02*
Y92000D01*
X133500Y95100D02*
X134968D01*
Y88000D02*
Y95100D01*
X133400Y95000D02*
X133500Y95100D01*
X128700Y101600D02*
X132000Y98300D01*
X111900Y101600D02*
X128700D01*
X110300Y103200D02*
X111900Y101600D01*
X67600Y103200D02*
X110300D01*
X51100Y86700D02*
X67600Y103200D01*
X42200Y86700D02*
X51100D01*
X181634Y133917D02*
X181816Y133735D01*
X169035Y135492D02*
X169193Y135650D01*
X131400Y131960D02*
Y139051D01*
X138032Y144200D02*
X138032Y144200D01*
X138432Y144200D02*
Y147800D01*
X134568Y144200D02*
X134568Y144200D01*
X134968Y144200D02*
Y147800D01*
X133300Y148000D02*
X133400Y147900D01*
X133700Y148000D02*
Y152300D01*
X139700Y147900D02*
Y152300D01*
X138432Y147800D02*
X141600D01*
X131400D02*
X134968D01*
X123472Y144100D02*
X126600D01*
X272700Y194646D02*
Y197638D01*
X272700Y188189D02*
X272700Y188189D01*
Y191181D01*
X253079Y104069D02*
X260991D01*
X224111Y115025D02*
X230095D01*
X149828Y141600D02*
X149868D01*
X148100D02*
X149828D01*
X131634Y114176D02*
X134944D01*
X103700Y125800D02*
X103868Y125632D01*
X43500Y127576D02*
X43576Y127500D01*
X43424Y127576D02*
X43500D01*
X91400Y83500D02*
X92111D01*
X94150Y79535D02*
X95000D01*
X93128Y80557D02*
Y82484D01*
X92111Y83500D02*
X93128Y82484D01*
X95000Y79535D02*
X95490D01*
X93128Y80557D02*
X94150Y79535D01*
X96512Y80557D02*
Y83500D01*
X95490Y79535D02*
X96512Y80557D01*
X227103Y83529D02*
X230095D01*
X203683Y119903D02*
X219728D01*
X227103Y89828D02*
X230095D01*
X227103Y99277D02*
X230095D01*
X149866Y101791D02*
X149868Y101790D01*
Y97854D02*
Y101790D01*
X149866Y101791D02*
X149868Y101793D01*
Y105728D01*
X146634D02*
X149868D01*
Y121476D02*
X149868Y121476D01*
X149868Y117539D02*
Y121476D01*
Y113602D02*
Y117539D01*
X153332Y113602D02*
X156437D01*
X153332Y109665D02*
Y113602D01*
X149868Y109665D02*
Y113602D01*
X146634D02*
X149868D01*
Y125413D02*
X149868Y125413D01*
Y129351D01*
X149868Y129351D02*
X149868Y129351D01*
X146634Y129351D02*
X149868D01*
X141400Y95000D02*
X141451Y95051D01*
X138432Y86500D02*
Y95100D01*
X139100D01*
X134968Y86500D02*
Y88000D01*
X219315Y73732D02*
X219634Y74051D01*
X216600Y73732D02*
X219315D01*
X219600Y70268D02*
X219634Y70301D01*
X216600Y70268D02*
X219600D01*
X211535Y78465D02*
X214400D01*
Y73732D02*
Y78465D01*
X212200Y73732D02*
X214400D01*
X212200Y70268D02*
X216600D01*
X209600Y80400D02*
X211535Y78465D01*
X207700Y80400D02*
X209600D01*
X206634Y81466D02*
X207700Y80400D01*
X206634Y81466D02*
Y84068D01*
X209634Y85051D02*
X216451D01*
X216500Y85100D01*
X216449Y88051D02*
X216500Y88000D01*
X214400Y73732D02*
X216600D01*
X206634Y87532D02*
X207153Y88051D01*
X187884Y90551D02*
X187884Y90551D01*
Y87532D02*
Y90551D01*
X172884Y87532D02*
Y90551D01*
X272935Y74500D02*
X275922D01*
X261700D02*
X264865D01*
X123472Y125600D02*
Y129300D01*
X103268Y138248D02*
X112000Y129516D01*
X103268Y138248D02*
Y140000D01*
X87965Y138000D02*
X88965Y139000D01*
X84500Y138000D02*
X87965D01*
X84500Y148400D02*
X89375D01*
X88965Y147990D02*
X89375Y148400D01*
X149868Y146800D02*
Y148568D01*
X151123Y149823D01*
X151634D01*
X154736Y146800D02*
X159587Y141949D01*
X153332Y146800D02*
X154736D01*
X146634Y137066D02*
Y138551D01*
Y137066D02*
X148100Y135600D01*
X149868D01*
X146634Y138551D02*
Y140134D01*
X148100Y141600D01*
X138868Y122132D02*
X139300Y121700D01*
X138432Y122132D02*
X138868D01*
X138533Y114301D02*
X141634D01*
X139600Y106400D02*
X139700Y106500D01*
X138432Y106400D02*
X139600D01*
X133900D02*
X134968D01*
X141634Y114301D02*
Y115801D01*
Y112801D02*
Y114301D01*
X138432Y114200D02*
X138533Y114301D01*
X131634Y112551D02*
Y114176D01*
X134944D02*
X134968Y114200D01*
X140735Y108500D02*
X141634Y109398D01*
Y112801D01*
X140735Y120000D02*
X141634Y119102D01*
Y115801D02*
Y119102D01*
X131634Y109531D02*
X132665Y108500D01*
X131634Y109531D02*
Y112551D01*
X146634Y153051D02*
X146685Y153000D01*
X149868D01*
X151634Y149823D02*
X152123D01*
X153332Y151032D01*
Y153000D01*
X140335Y154300D02*
X141584Y153051D01*
X141984D02*
X144084D01*
X141100Y156000D02*
X141151Y156051D01*
X141551D02*
X144084D01*
X233560Y83529D02*
X237431D01*
X203681Y119902D02*
X203683Y119903D01*
X223272D02*
X226634D01*
X213645Y188189D02*
Y191142D01*
X205771Y188189D02*
Y191181D01*
X209708Y191142D02*
X209708Y191142D01*
X264826D02*
X268763D01*
X260889D02*
X264826D01*
X256952D02*
X260889D01*
X253015D02*
X256952D01*
X249078D02*
X253015D01*
X245141D02*
X249078D01*
X241204D02*
X245141D01*
X237267D02*
X241204D01*
X233330D02*
X237267D01*
X229393D02*
X233330D01*
X225456D02*
X229393D01*
X221519D02*
X225456D01*
X217582D02*
X221519D01*
X213645D02*
X217582D01*
X213645D02*
X213645D01*
X209708D02*
X213645D01*
X209708D02*
Y191142D01*
X227103Y124474D02*
X230095D01*
X237437Y130773D02*
X237459Y130751D01*
X233560Y130773D02*
X237437D01*
X237436Y124474D02*
X237459Y124451D01*
X233560Y124474D02*
X237436D01*
X253284Y80379D02*
Y83529D01*
X233560Y89828D02*
X237432D01*
X237459Y89801D01*
X237431Y83529D02*
X237459Y83501D01*
X240609Y99219D02*
Y99251D01*
X238391Y97001D02*
X240609Y99219D01*
X238359Y97001D02*
X238391D01*
X238273Y96915D02*
X238359Y97001D01*
X240609Y108701D02*
Y108733D01*
X238391Y110951D02*
X240609Y108733D01*
X238359Y110951D02*
X238391D01*
X238222Y111088D02*
X238359Y110951D01*
X237435Y115025D02*
X237459Y115001D01*
X233560Y115025D02*
X237435D01*
X249741Y94592D02*
Y99277D01*
Y94592D02*
X249780Y94553D01*
X249780Y91403D02*
X249780Y91403D01*
Y94553D01*
X227103Y108726D02*
X230095D01*
X227103Y130773D02*
X230095D01*
X272930Y118175D02*
X275922D01*
X272930Y124474D02*
X275922D01*
X272930Y130773D02*
X275922D01*
X272930Y104002D02*
X275922D01*
X272930Y108726D02*
X275922D01*
X272969Y99277D02*
X275922D01*
X272969Y94553D02*
X275922D01*
X272930Y89828D02*
X275922D01*
X272930Y83529D02*
X275922D01*
X262681Y130773D02*
X269465D01*
X265809Y118151D02*
X265832Y118175D01*
X269465D01*
X265809Y124451D02*
X265832Y124474D01*
X269465D01*
X265809Y108701D02*
X265834Y108726D01*
X269465D01*
X260991Y104069D02*
X262659Y102401D01*
X265836Y89828D02*
X269465D01*
X265837Y83529D02*
X269465D01*
X259477Y111851D02*
X259509D01*
X256352Y108726D02*
X259477Y111851D01*
X253284Y108726D02*
X256352D01*
X97669Y134831D02*
X99000D01*
X97035Y135465D02*
X97669Y134831D01*
X97035Y135465D02*
Y139000D01*
X103500Y118000D02*
X106500D01*
X107332Y118832D01*
Y121400D01*
Y125800D01*
X103868Y121400D02*
Y125632D01*
X103331Y126169D02*
X103700Y125800D01*
X103868D01*
X94632D02*
Y126132D01*
Y121400D02*
Y125800D01*
X94669Y125837D01*
Y126169D01*
X94632Y126132D02*
X94669Y126169D01*
X91168Y121400D02*
Y125800D01*
Y129332D01*
X88965Y131535D02*
X91168Y129332D01*
X88965Y131535D02*
Y139000D01*
X91268Y111831D02*
X91536Y111563D01*
X86516Y111831D02*
X91268D01*
X106496Y111563D02*
X106764Y111831D01*
X111516D01*
X181791Y126201D02*
X184783D01*
X181634Y126043D02*
X181791Y126201D01*
X165728Y135650D02*
X165886Y135492D01*
X165728Y129350D02*
X165886Y129508D01*
X175335Y129350D02*
Y132343D01*
X187933Y135807D02*
X188091Y135650D01*
X189665Y123051D02*
X189847Y122869D01*
X194075Y123051D02*
X194232Y122894D01*
X177067Y123051D02*
X177249Y123233D01*
X181476Y119902D02*
X181634Y120059D01*
X178484Y119902D02*
X181476D01*
X175177Y113602D02*
X175335Y113760D01*
X181634Y112185D02*
X181816Y112367D01*
X338466Y41766D02*
X338600Y41632D01*
X272969Y94553D02*
X272971Y94551D01*
X89000Y84000D02*
Y85500D01*
X87500Y82500D02*
X89000Y84000D01*
X87500Y79535D02*
Y82500D01*
X115732Y49000D02*
X118500D01*
X115772Y56000D02*
X118500D01*
X115732Y49000D02*
Y52500D01*
X115732Y52500D02*
X115732Y52500D01*
X112500Y74500D02*
X115500D01*
X112500Y71925D02*
Y74500D01*
X115500Y71925D02*
Y74500D01*
X112500Y59500D02*
X115500D01*
X112500D02*
Y62075D01*
X114000Y63575D01*
X115500Y59500D02*
Y62075D01*
X114000Y63575D02*
X115500Y62075D01*
X114000Y70425D02*
X115500Y71925D01*
X112500D02*
X114000Y70425D01*
X143500Y71000D02*
X150650D01*
Y56000D02*
Y61000D01*
X143500Y51000D02*
X150650D01*
X143500Y41000D02*
X150650D01*
X102500Y95232D02*
Y98000D01*
Y91768D02*
X104896D01*
X102461Y91728D02*
X102500Y91768D01*
X98500Y91728D02*
X102461D01*
X91500Y95272D02*
Y98000D01*
X95000Y53379D02*
X95729Y52650D01*
X95769D01*
X95919Y52500D01*
X96000D01*
X95000Y53379D02*
Y56465D01*
X87000Y47500D02*
X89900D01*
X102000D02*
X104900D01*
X95100D02*
X98000D01*
X104900Y44475D02*
Y47500D01*
X103425Y43000D02*
X104900Y44475D01*
X102000Y44425D02*
Y47500D01*
Y44425D02*
X103425Y43000D01*
X98000Y44425D02*
Y47500D01*
X96575Y43000D02*
X98000Y44425D01*
X95100Y44475D02*
Y47500D01*
Y44475D02*
X96575Y43000D01*
X80100Y44475D02*
X81575Y43000D01*
X80100Y44475D02*
Y47500D01*
Y38500D02*
X83000D01*
X75879D02*
X80100D01*
X88425Y43000D02*
X89900Y44475D01*
Y47500D01*
X87000Y44425D02*
Y47500D01*
Y44425D02*
X88425Y43000D01*
X75000Y39379D02*
X75879Y38500D01*
X75000Y39379D02*
Y41228D01*
X83000Y44425D02*
Y47500D01*
X81575Y43000D02*
X83000Y44425D01*
X80100Y47500D02*
X83000D01*
X75879D02*
X80100D01*
X75000Y46621D02*
X75879Y47500D01*
X75000Y44772D02*
Y46621D01*
X103435Y78600D02*
X103485Y78550D01*
X103435Y78600D02*
X107000D01*
X102500Y79535D02*
X103435Y78600D01*
X103465Y80500D02*
X107000D01*
X102500Y79535D02*
X103465Y80500D01*
X95000Y56465D02*
X102500D01*
X33894Y77979D02*
X34732Y77141D01*
X32021Y77979D02*
X33894D01*
X31228Y78772D02*
X32021Y77979D01*
X31228Y78772D02*
Y80500D01*
X19272Y73000D02*
X22873D01*
X25374Y75500D01*
X28500D01*
X34732D02*
Y77141D01*
X37500Y70500D02*
X42272D01*
X37500Y75500D02*
X42272D01*
X28500Y70500D02*
X31268D01*
X28500Y75500D02*
X31268D01*
X34732D02*
X37500D01*
X34732Y70500D02*
X37500D01*
X75500Y118500D02*
X78228D01*
X75500Y122500D02*
X78228D01*
X75500Y126500D02*
X78228D01*
X75500Y130500D02*
X78228D01*
X75500Y134500D02*
X78228D01*
X21518Y123600D02*
X24272D01*
X20035Y125083D02*
X21518Y123600D01*
X24272D02*
Y126500D01*
X21453D02*
X24272D01*
X20035Y125083D02*
X21453Y126500D01*
X24272Y112500D02*
Y117500D01*
X24272Y117500D02*
Y123600D01*
X24272Y117500D02*
X24272Y117500D01*
X24272Y126500D02*
X24272Y126500D01*
X24272Y126500D02*
Y132500D01*
X43576Y127500D02*
X46768D01*
X43500Y142500D02*
X46768D01*
X43500Y137500D02*
X46768D01*
X43500Y132500D02*
X46768D01*
X43500Y117500D02*
X46768D01*
D70*
X304400Y10600D02*
X316600Y22800D01*
X290600Y10600D02*
X304400D01*
X288375Y12825D02*
X290600Y10600D01*
X288375Y12825D02*
Y18000D01*
X288400Y18025D01*
Y25075D01*
X343400Y86700D02*
Y89300D01*
Y84100D02*
Y86700D01*
Y81300D02*
Y84100D01*
X339900Y77800D02*
X343400Y81300D01*
X309000Y77800D02*
X339900D01*
X305025Y73825D02*
X309000Y77800D01*
X288400Y73825D02*
X305025D01*
X288375Y73850D02*
X288400Y73825D01*
X288375Y73850D02*
Y80900D01*
X302710D02*
X302753Y80857D01*
X295225Y80900D02*
X302710D01*
X302725Y80830D02*
X302753Y80857D01*
D72*
X126090Y172890D02*
Y173884D01*
X124268Y171068D02*
X126090Y172890D01*
X121800Y171068D02*
X124268D01*
X114032Y174632D02*
X116600D01*
X112310Y172910D02*
X114032Y174632D01*
X112310Y171916D02*
Y172910D01*
X194925Y109298D02*
Y109853D01*
X195770Y108453D02*
X196232D01*
X197382Y107303D01*
X194925Y109298D02*
X195770Y108453D01*
X194325Y110453D02*
X194925Y109853D01*
X194075Y110453D02*
X194325D01*
D75*
X140125Y134100D02*
Y134100D01*
X139725D02*
X139725Y134100D01*
X140125D01*
X140225Y134000D01*
X144700D01*
X140025D02*
X140125Y134100D01*
X144700Y134000D02*
X146200Y132500D01*
X153287D01*
D77*
X178484Y103996D02*
Y104154D01*
Y103996D02*
X181634Y100847D01*
D79*
X164310Y146875D02*
Y151168D01*
X154713Y125413D02*
X158650Y129350D01*
X159586D01*
X153332Y125413D02*
X154713D01*
X156176Y129351D02*
X157925Y131100D01*
X153332Y129351D02*
X156176D01*
X157925Y131100D02*
X158187D01*
X181634Y133917D02*
X183366D01*
X184783Y132500D01*
X181476Y141791D02*
X181634D01*
X178484Y138799D02*
X181476Y141791D01*
X169035Y132500D02*
X172185D01*
X169035D02*
Y135492D01*
X158187Y131100D02*
X162736Y135650D01*
X188091Y135650D02*
X194075D01*
X165886Y129508D02*
Y135492D01*
X178484Y110453D02*
X180217Y108721D01*
X181634D01*
X262372Y99344D02*
X262469Y99441D01*
X262659Y99251D02*
X267409Y104002D01*
X269465D01*
X265809Y83501D02*
X265837Y83529D01*
X265809Y89801D02*
X265836Y89828D01*
X188091Y110453D02*
X191083D01*
X187933Y110295D02*
X188091Y110453D01*
X191083D02*
Y113602D01*
X194232D01*
X191083Y116752D02*
X194075D01*
X197382Y132581D02*
X197539Y132739D01*
Y135650D01*
X187933Y126201D02*
X194232D01*
X186358Y123209D02*
Y124626D01*
X186201Y123051D02*
X186358Y123209D01*
Y124626D02*
X187933Y126201D01*
Y129350D02*
Y132343D01*
X178484Y129350D02*
X181476D01*
X181634Y129508D01*
X165886Y116909D02*
Y119902D01*
X165728Y116752D02*
X165886Y116909D01*
Y110610D02*
Y113602D01*
X165728Y110453D02*
X165886Y110610D01*
Y113602D02*
Y116595D01*
X165728Y116752D02*
X165886Y116595D01*
X177249Y124965D02*
X178484Y126201D01*
X169193Y120221D02*
Y123051D01*
X169035Y120064D02*
X169193Y120221D01*
X169035Y119902D02*
Y120064D01*
X191083Y129350D02*
X194075D01*
X189847Y121137D02*
Y122869D01*
Y121137D02*
X191083Y119902D01*
X194232D02*
Y122894D01*
X177249Y123233D02*
Y124965D01*
X169193Y116752D02*
X172185D01*
Y113602D02*
X175177D01*
X181816Y112367D02*
X183548D01*
X184783Y113602D01*
X187933Y113760D02*
Y116752D01*
X181476Y129350D02*
X184783D01*
D80*
X117200Y134900D02*
X122700D01*
X123472Y134128D01*
Y133000D02*
Y134128D01*
X116500Y135600D02*
Y136700D01*
Y135600D02*
X117200Y134900D01*
D81*
X20000Y46000D02*
X27965D01*
X36035D02*
X43600D01*
X54500Y80500D02*
Y84000D01*
Y75500D02*
Y80500D01*
X63728D01*
X54500Y70500D02*
Y75500D01*
X63728D01*
X54500Y68000D02*
Y70500D01*
X63728D01*
X57000Y65500D02*
X63728D01*
X54500Y68000D02*
X57000Y65500D01*
D82*
X6500Y85000D02*
D03*
X162800Y12100D02*
D03*
X257505Y22217D02*
D03*
X69000Y51000D02*
D03*
X59000Y41000D02*
D03*
Y51000D02*
D03*
X69000Y41000D02*
D03*
X151800Y12200D02*
D03*
X57250Y112500D02*
D03*
X67250Y107500D02*
D03*
Y137500D02*
D03*
X57250Y132500D02*
D03*
X67250Y117500D02*
D03*
X12950Y149900D02*
D03*
X18950Y139900D02*
D03*
Y100100D02*
D03*
X12950Y110100D02*
D03*
X67250Y127500D02*
D03*
X57250Y122500D02*
D03*
X188600Y36700D02*
D03*
X218600D02*
D03*
X178600D02*
D03*
X208600D02*
D03*
X198600D02*
D03*
D83*
X348400Y14500D02*
D03*
X72550Y223000D02*
D03*
X334823Y223567D02*
D03*
X57000Y13400D02*
D03*
D84*
X32250Y102500D02*
D03*
Y147500D02*
D03*
D85*
X44250Y156000D02*
D03*
Y94000D02*
D03*
D86*
X57250Y142500D02*
D03*
X168600Y36700D02*
D03*
D87*
X302753Y108417D02*
D03*
Y98577D02*
D03*
Y90697D02*
D03*
Y80857D02*
D03*
Y45617D02*
D03*
Y35777D02*
D03*
Y27897D02*
D03*
Y18057D02*
D03*
D88*
X313423Y120507D02*
D03*
Y68767D02*
D03*
Y57707D02*
D03*
Y5967D02*
D03*
D89*
X20000Y46000D02*
D03*
D90*
X43600D02*
D03*
D91*
X31800Y27500D02*
D03*
D92*
X330765Y26069D02*
D03*
X326435D02*
D03*
Y34731D02*
D03*
X330765D02*
D03*
Y30400D02*
D03*
X326435D02*
D03*
X330465Y83569D02*
D03*
X326135D02*
D03*
Y92231D02*
D03*
X330465D02*
D03*
Y87900D02*
D03*
X326135D02*
D03*
D93*
X94669Y130500D02*
D03*
X99000Y126169D02*
D03*
Y130500D02*
D03*
Y134831D02*
D03*
X103331Y130500D02*
D03*
X89031Y69968D02*
D03*
X92968D02*
D03*
X89031Y66031D02*
D03*
X92968D02*
D03*
X85094Y69968D02*
D03*
Y73905D02*
D03*
X89031D02*
D03*
X92968D02*
D03*
X96905D02*
D03*
Y69968D02*
D03*
Y66031D02*
D03*
X85094D02*
D03*
Y62094D02*
D03*
X89031D02*
D03*
X92968D02*
D03*
X96905D02*
D03*
D94*
X131011Y176837D02*
D03*
Y178806D02*
D03*
Y180774D02*
D03*
Y182743D02*
D03*
X112310Y175853D02*
D03*
X129043Y184711D02*
D03*
X116247Y179790D02*
D03*
X112310Y177821D02*
D03*
X131011Y184711D02*
D03*
X134200Y177821D02*
D03*
X112310Y169947D02*
D03*
X116247Y165900D02*
D03*
X104200Y181758D02*
D03*
Y177821D02*
D03*
X112310Y179790D02*
D03*
X107389Y180774D02*
D03*
X122153Y179790D02*
D03*
X126090Y175853D02*
D03*
X112310Y171916D02*
D03*
X118216Y165900D02*
D03*
X126090Y173884D02*
D03*
X104200Y179790D02*
D03*
X104247Y175853D02*
D03*
X120184Y179790D02*
D03*
X107389Y184711D02*
D03*
Y178806D02*
D03*
X126090Y177821D02*
D03*
D98*
X328600Y30400D02*
D03*
X328300Y87900D02*
D03*
D99*
X337261Y34239D02*
D03*
Y31679D02*
D03*
Y29120D02*
D03*
Y26561D02*
D03*
X319939Y34239D02*
D03*
Y31679D02*
D03*
Y29120D02*
D03*
Y26561D02*
D03*
X336961Y91739D02*
D03*
Y89179D02*
D03*
Y86620D02*
D03*
Y84061D02*
D03*
X319639Y91739D02*
D03*
Y89179D02*
D03*
Y86620D02*
D03*
Y84061D02*
D03*
D100*
X288400Y25075D02*
D03*
Y31925D02*
D03*
X174034Y75425D02*
D03*
Y68575D02*
D03*
X184134Y75425D02*
D03*
Y68575D02*
D03*
X288400Y66975D02*
D03*
Y73825D02*
D03*
X114000Y70425D02*
D03*
Y63575D02*
D03*
D101*
X295225Y18000D02*
D03*
X288375D02*
D03*
X96225Y148400D02*
D03*
X89375D02*
D03*
X133275Y134100D02*
D03*
X140125D02*
D03*
X288375Y80900D02*
D03*
X295225D02*
D03*
X96575Y43000D02*
D03*
X103425D02*
D03*
X88425D02*
D03*
X81575D02*
D03*
D102*
X25196Y198327D02*
D03*
Y195177D02*
D03*
Y192027D02*
D03*
Y201476D02*
D03*
Y188878D02*
D03*
D103*
X4724Y184646D02*
D03*
Y205708D02*
D03*
D104*
X15747Y178642D02*
D03*
Y211712D02*
D03*
D105*
X298653Y180441D02*
D03*
Y142055D02*
D03*
D106*
X346249Y185489D02*
D03*
X340737D02*
D03*
X337981D02*
D03*
Y128345D02*
D03*
X340737D02*
D03*
X346249D02*
D03*
X343493Y185489D02*
D03*
Y128345D02*
D03*
D107*
X307922Y185460D02*
D03*
X313040Y128374D02*
D03*
D108*
X296690Y170401D02*
D03*
Y146780D02*
D03*
D109*
X351229Y128585D02*
D03*
Y185249D02*
D03*
D110*
X150650Y46000D02*
D03*
X129350Y51000D02*
D03*
X150650Y36000D02*
D03*
X129350Y71000D02*
D03*
X150650Y76000D02*
D03*
X129350D02*
D03*
X150650Y51000D02*
D03*
Y56000D02*
D03*
Y61000D02*
D03*
Y81000D02*
D03*
Y71000D02*
D03*
Y41000D02*
D03*
X129350Y36000D02*
D03*
Y41000D02*
D03*
Y56000D02*
D03*
Y61000D02*
D03*
Y66000D02*
D03*
X150650D02*
D03*
X129350Y46000D02*
D03*
Y81000D02*
D03*
D111*
X110488Y97240D02*
D03*
Y89760D02*
D03*
X121512D02*
D03*
Y93500D02*
D03*
Y97240D02*
D03*
D112*
X200307Y49061D02*
D03*
Y51621D02*
D03*
Y54180D02*
D03*
Y56739D02*
D03*
X213693Y49061D02*
D03*
Y51621D02*
D03*
Y54180D02*
D03*
Y56739D02*
D03*
D113*
X63728Y80500D02*
D03*
Y75500D02*
D03*
Y70500D02*
D03*
Y65500D02*
D03*
X42272Y80500D02*
D03*
Y75500D02*
D03*
Y70500D02*
D03*
Y65500D02*
D03*
D114*
X46768Y117500D02*
D03*
X50232D02*
D03*
X46768Y132500D02*
D03*
X50232D02*
D03*
X46768Y137500D02*
D03*
X50232D02*
D03*
X46768Y142500D02*
D03*
X50232D02*
D03*
D115*
X13035Y125083D02*
D03*
X20035D02*
D03*
D116*
X197672Y84028D02*
X199134D01*
X197200Y84500D02*
X197672Y84028D01*
X197200Y84500D02*
Y89600D01*
X196249Y90551D02*
X197200Y89600D01*
X195384Y90551D02*
X196249D01*
X112000Y129516D02*
X113617Y131133D01*
X122967D01*
X123472Y130628D01*
Y129300D02*
Y130628D01*
M02*
